<?xml version="1.0" standalone="no"?>
<!DOCTYPE svg PUBLIC "-//W3C//DTD SVG 1.1//EN" "http://www.w3.org/Graphics/SVG/1.1/DTD/svg11.dtd" >
<svg xmlns="http://www.w3.org/2000/svg" xmlns:xlink="http://www.w3.org/1999/xlink" version="1.1">
<metadata></metadata>
<defs>
<font id="clearviewatt_bkitregular" horiz-adv-x="1177" >
<font-face units-per-em="2048" ascent="1536" descent="-512" />
<missing-glyph horiz-adv-x="675" />
<glyph horiz-adv-x="0" />
<glyph horiz-adv-x="682" />
<glyph unicode=" "  horiz-adv-x="675" />
<glyph unicode="&#x09;" horiz-adv-x="675" />
<glyph unicode="&#xa0;" horiz-adv-x="675" />
<glyph unicode="!" horiz-adv-x="575" d="M168 76q0 61 45 96t104 35q45 0 80 -23.5t35 -70.5q0 -61 -44 -98.5t-103 -37.5q-47 0 -82 24t-35 75zM268 371q29 250 55.5 497.5t53.5 497.5h207q-45 -250 -87 -497.5t-83 -497.5h-146z" />
<glyph unicode="&#x22;" horiz-adv-x="854" d="M301 1014l23 420h200l-102 -420h-121zM686 1014l23 420h200l-102 -420h-121z" />
<glyph unicode="#" horiz-adv-x="1275" d="M150 526l34 133h246l82 295h-246l35 131h248l80 281h143l-80 -281h289l80 281h143l-84 -281h234l-39 -131h-232l-84 -295h242l-37 -133h-243l-82 -295h-146l84 295h-282l-86 -295h-140l84 295h-243zM571 659h287l84 295h-289z" />
<glyph unicode="$" d="M168 188l98 136q76 -55 163 -91t183 -36q55 0 108.5 12t96.5 38.5t69.5 69.5t26.5 107q0 66 -44 110t-110.5 77.5t-144 63.5t-144.5 68.5t-111 94t-44 139.5q0 80 31 143.5t82 107.5t118.5 69.5t143.5 29.5l21 154h172l-21 -154q78 -4 150.5 -29.5t138.5 -66.5l-86 -139 q-141 100 -307 100q-47 0 -93.5 -8t-84 -29.5t-61 -58.5t-23.5 -92q0 -51 44 -87t110.5 -67t143 -61.5t143.5 -72.5t111 -101.5t44 -147.5t-33 -159.5t-88.5 -125t-130 -84t-158.5 -35.5l-23 -159h-172l23 159q-92 4 -180 39t-162 86z" />
<glyph unicode="%" horiz-adv-x="1513" d="M240 983q0 80 15 160t52 144.5t99.5 105.5t156.5 41q123 0 175.5 -64.5t52.5 -181.5q0 -80 -15.5 -160t-53.5 -144.5t-100.5 -104.5t-156.5 -40q-121 0 -173 64.5t-52 179.5zM252 0l1079 1434h113l-1077 -1434h-115zM365 983q0 -61 22 -103t92 -42q61 0 98 37.5t56.5 93 t26 117t6.5 106.5q0 61 -24 101t-93 40q-61 0 -98 -38t-55.5 -91t-24.5 -114.5t-6 -106.5zM920 233q0 78 15 158t53 144.5t100.5 105.5t154.5 41q121 0 174 -64.5t53 -181.5q0 -80 -15 -159.5t-52 -144t-99.5 -104.5t-156.5 -40q-123 0 -175 64.5t-52 180.5zM1044 231 q0 -61 22.5 -103t92.5 -42q61 0 97 38t56.5 93t27 115.5t6.5 105.5q0 61 -24 102.5t-93 41.5q-61 0 -98 -38t-55.5 -91.5t-25 -115t-6.5 -106.5z" />
<glyph unicode="&#x26;" horiz-adv-x="1275" d="M176 311q0 88 27.5 158t75 126t111 100t134.5 81q-47 59 -85 131t-38 150q0 80 34 142.5t89.5 104.5t125 64.5t143.5 22.5q123 0 201.5 -61.5t78.5 -188.5q0 -74 -32.5 -131.5t-83 -102.5t-113 -82t-121.5 -69l262 -447q33 61 43 137t10 146q0 23 -1 43t-3 43h162 q2 -16 2 -29.5v-30.5q0 -49 -6 -104t-20.5 -109.5t-38 -105.5t-60.5 -94l127 -205h-194l-60 96q-155 -119 -356 -119q-82 0 -157 17.5t-132 57.5t-91 103.5t-34 155.5zM348 344q0 -119 74.5 -176t185.5 -57q68 0 138.5 22.5t121.5 69.5l-288 477q-47 -29 -88 -62.5 t-74 -74.5t-51.5 -90.5t-18.5 -108.5zM563 1081q0 -66 36 -128t73 -115q41 25 84 54.5t78.5 66t59.5 80.5t24 98q0 66 -37 100.5t-103 34.5q-96 0 -155.5 -51.5t-59.5 -139.5z" />
<glyph unicode="'" horiz-adv-x="446" d="M301 1014l23 420h200l-102 -420h-121z" />
<glyph unicode="(" horiz-adv-x="612" d="M172 412q0 309 108.5 593.5t309.5 575.5l119 -29q-160 -264 -260.5 -557t-100.5 -616q0 -166 26.5 -320.5t80.5 -310.5l-127 -31q-74 178 -115 345t-41 350z" />
<glyph unicode=")" horiz-adv-x="612" d="M84 -252q162 266 262 561t100 619q0 166 -27.5 319.5t-80.5 304.5l127 29q74 -186 115 -351t41 -343q0 -315 -112 -605t-306 -565z" />
<glyph unicode="*" horiz-adv-x="688" d="M217 1147l70 141l162 -80l-7 187h162l-51 -185l182 80l31 -141l-195 -35l115 -133l-135 -90l-70 168l-116 -166l-111 88l152 137z" />
<glyph unicode="+" d="M168 459l22 155h410l57 408h158l-57 -408h399l-22 -155h-400l-59 -426h-158l60 426h-410z" />
<glyph unicode="," horiz-adv-x="430" d="M20 -244l142 443h215l-234 -443h-123z" />
<glyph unicode="-" horiz-adv-x="770" d="M168 449l25 165h557l-25 -165h-557z" />
<glyph unicode="." horiz-adv-x="430" d="M96 76q0 61 44 96t104 35q45 0 79.5 -23.5t34.5 -70.5q0 -61 -44 -98.5t-103 -37.5q-47 0 -81 24t-34 75z" />
<glyph unicode="/" horiz-adv-x="1048" d="M6 -236l1047 1670h168l-1049 -1670h-166z" />
<glyph unicode="0" d="M182 434q0 63 5.5 126t15.5 124q18 133 52 260t98.5 225.5t169 159t261.5 60.5q113 0 190 -32t123 -91.5t66.5 -143.5t20.5 -188q0 -63 -5 -126t-16 -124q-18 -131 -52 -258t-98.5 -227.5t-167 -162t-259.5 -61.5q-115 0 -192 32t-124 92.5t-67.5 145.5t-20.5 189z M365 424q0 -66 10 -120t37.5 -93t73.5 -61.5t120 -22.5q111 0 178.5 54.5t106.5 137t57.5 181t30.5 184.5q10 63 16 125.5t6 128.5q0 63 -10 118.5t-36.5 95.5t-73.5 62.5t-119 22.5q-115 0 -182.5 -53.5t-106.5 -135t-56.5 -179t-29.5 -185.5q-10 -66 -16 -130.5t-6 -129.5 z" />
<glyph unicode="1" d="M193 0l20 156h338l141 1009h-8l-332 -184l-55 137l455 252h151l-172 -1214h326l-21 -156h-843z" />
<glyph unicode="2" d="M162 166q168 131 314.5 238.5t256 208t172 201.5t62.5 220q0 37 -10.5 74t-33 64.5t-61.5 45t-96 17.5q-92 0 -183 -47t-188 -139l-80 131q127 113 239 161t245 48q164 0 259 -83t95 -241q0 -143 -78 -271t-195.5 -242t-258 -212t-265.5 -184h703l-21 -156h-870z" />
<glyph unicode="3" d="M152 117l102 135q66 -59 148.5 -93t172.5 -34q158 0 248 85t90 245q0 61 -21.5 97t-59 55.5t-87 24.5t-104.5 5h-133l20 149q72 0 149 7.5t141.5 34t105.5 81t41 146.5q0 51 -18.5 86t-50.5 55.5t-74 29.5t-87 9q-94 0 -180 -37t-160 -92l-61 139q109 70 211 107t233 37 q74 0 141.5 -16.5t120 -52.5t83 -94.5t30.5 -140.5q0 -129 -61.5 -222t-184.5 -136v-8q102 -20 147.5 -84t45.5 -164q0 -121 -41 -214t-113 -155.5t-170 -94.5t-215 -32q-119 0 -218 33t-191 109z" />
<glyph unicode="4" d="M156 446l729 916h200l-129 -913h187l-21 -156h-186l-41 -293h-184l41 293h-568zM342 449h440l101 706h-9z" />
<glyph unicode="5" d="M158 104l96 142q66 -53 141.5 -87t163.5 -34q98 0 167 32.5t114 89t65.5 134.5t20.5 170q0 125 -64.5 180t-185.5 55q-92 0 -164 -32.5t-139 -91.5l-127 96l190 608h725l-20 -156h-582l-127 -381l6 -6q72 53 144.5 82t160.5 29q178 0 273.5 -85t95.5 -267 q0 -139 -36 -251t-106.5 -191t-176 -122t-246.5 -43q-111 0 -207 29t-182 100z" />
<glyph unicode="6" d="M180 408q0 49 4 97t11 95q20 143 58 284.5t109.5 253t186.5 181.5t287 70q86 0 166.5 -23t152.5 -70l-96 -139q-59 41 -115.5 59.5t-128.5 18.5q-115 0 -190.5 -46t-123.5 -121t-75 -169t-41 -190h8q66 92 156 134t201 42q86 0 155.5 -22.5t120.5 -66.5t79 -111t28 -155 q0 -119 -39 -220t-111 -176t-171 -117t-218 -42q-219 0 -316.5 110t-97.5 323zM356 367q0 -123 70.5 -181.5t187.5 -58.5q84 0 146.5 29.5t103.5 82t61.5 122t20.5 147.5q0 121 -64.5 173t-181.5 52q-80 0 -143 -28.5t-108.5 -77.5t-69 -116t-23.5 -144z" />
<glyph unicode="7" d="M303 1210l21 156h880l8 -154q-152 -115 -248 -222t-157.5 -231t-97 -274.5t-62.5 -351.5l-18 -133h-191l8 61q18 139 50 296t91.5 308.5t157 291t246.5 245.5v8h-688z" />
<glyph unicode="8" d="M160 307q0 154 65.5 260.5t212.5 159.5l2 8q-78 33 -115.5 93.5t-37.5 144.5q0 111 39 189.5t106.5 128.5t157.5 74t192 24q74 0 144.5 -12.5t126 -44.5t89.5 -87t34 -143q0 -127 -57.5 -223.5t-180.5 -143.5l-2 -8q94 -31 140 -98.5t46 -165.5q0 -123 -40 -215 t-111.5 -152.5t-170 -90.5t-214.5 -30q-86 0 -164 15.5t-136.5 53.5t-92 101.5t-33.5 161.5zM346 317q0 -61 20.5 -99t56.5 -59.5t82 -29.5t99 -8q334 0 334 336q0 61 -20.5 100t-55.5 61.5t-82 30.5t-100 8q-334 0 -334 -340zM467 973q0 -53 18.5 -88t51 -54.5t73.5 -27.5 t88 -8q135 0 215 67.5t80 208.5q0 53 -19.5 86t-51 51.5t-73.5 25.5t-87 7q-137 0 -216 -61.5t-79 -206.5z" />
<glyph unicode="9" d="M190 98l109 125q61 -53 119.5 -75.5t140.5 -22.5q121 0 196.5 50t122 130t70 179.5t37.5 197.5h-8q-59 -94 -150.5 -147.5t-201.5 -53.5q-174 0 -283 93.5t-109 273.5q0 119 40 218t113 171t172 112t216 40q113 0 190.5 -32t125 -91.5t69 -144.5t21.5 -191 q0 -55 -4.5 -109.5t-12.5 -107.5q-20 -143 -58 -275.5t-107.5 -235t-180 -164t-278.5 -61.5q-98 0 -187.5 28t-161.5 93zM420 870q0 -119 67.5 -177t182.5 -58q80 0 141 28.5t103 78t62.5 116t20.5 141.5q0 117 -63.5 177.5t-179.5 60.5q-80 0 -141.5 -28.5t-104.5 -79 t-65.5 -117t-22.5 -142.5z" />
<glyph unicode=":" horiz-adv-x="430" d="M100 76q0 61 43 96t103 35q45 0 78.5 -22.5t33.5 -71.5q0 -61 -43 -98.5t-102 -37.5q-47 0 -80 25t-33 74zM205 811q0 59 43 94t100 35q45 0 79 -22.5t34 -71.5q0 -61 -43 -98t-103 -37q-47 0 -78.5 25.5t-31.5 74.5z" />
<glyph unicode=";" horiz-adv-x="430" d="M20 -244l140 443h209l-226 -443h-123zM221 807q0 61 43 96t103 35q45 0 78.5 -21.5t33.5 -70.5q0 -61 -43 -99t-102 -38q-47 0 -80 24.5t-33 73.5z" />
<glyph unicode="&#x3c;" d="M168 457l22 157l1029 441l-23 -162l-846 -356l746 -349l-21 -157z" />
<glyph unicode="=" d="M143 270l23 154h964l-22 -154h-965zM197 653l22 154h965l-23 -154h-964z" />
<glyph unicode="&#x3e;" d="M109 31l20 157l846 349l-746 356l23 162l905 -441l-22 -157z" />
<glyph unicode="?" horiz-adv-x="1054" d="M272 1249q111 68 215.5 104t233.5 36q74 0 140.5 -16.5t118.5 -51.5t83 -93.5t31 -140.5q0 -106 -33 -177.5t-89.5 -123t-131 -88t-160.5 -73.5q-35 -14 -54.5 -25.5t-30.5 -26t-16.5 -36t-9.5 -58.5l-16 -127h-176l22 162q6 49 16.5 81t28 54.5t46 40t73.5 35.5 q61 27 124 52.5t112 61t80.5 88t31.5 132.5q0 51 -19.5 85t-52 54.5t-74.5 29.5t-87 9q-96 0 -177 -33t-159 -88zM297 74q0 59 41 94t100 35q45 0 79 -22.5t34 -71.5q0 -59 -42 -95.5t-99 -36.5q-45 0 -79 24t-34 73z" />
<glyph unicode="@" horiz-adv-x="1644" d="M184 348q0 184 66.5 340t182.5 269.5t273.5 177t340.5 63.5q115 0 217 -29.5t179 -91t122 -153.5t45 -217q0 -90 -29 -194.5t-84 -194t-137 -148.5t-189 -59q-55 0 -94 32.5t-39 92.5h-10q-53 -61 -125 -96.5t-153 -35.5q-113 0 -168.5 63.5t-55.5 174.5q0 90 31 183 t87 168t136 122t178 47q57 0 100.5 -19.5t71.5 -70.5h9l22 74h150q-6 -18 -19.5 -65.5t-31 -108t-36 -127t-33.5 -125t-25.5 -100t-10.5 -52.5q0 -59 64 -59q27 0 51 11t45 26q45 31 77.5 71.5t55 89t37 99.5t22.5 102q6 43 6 86q0 106 -37.5 184t-102 129.5t-150.5 77 t-185 25.5q-164 0 -302 -58.5t-238.5 -162t-156.5 -243.5t-56 -302q0 -119 35.5 -208t102 -149.5t160 -90t208.5 -29.5q119 0 226 28.5t208 92.5l39 -76q-117 -74 -241 -102.5t-259 -28.5t-241.5 38t-182.5 110.5t-116 178t-40 240.5zM670 358q0 -143 141 -143 q96 0 156.5 61.5t83.5 147.5q14 51 31.5 107.5t17.5 109.5q0 66 -41 87.5t-98 21.5q-74 0 -128.5 -37t-91 -94.5t-54 -127t-17.5 -133.5z" />
<glyph unicode="A" horiz-adv-x="1314" d="M45 0l696 1374h209l320 -1374h-201l-72 330h-596l-163 -330h-193zM469 483h500l-148 709h-8z" />
<glyph unicode="B" horiz-adv-x="1302" d="M176 0l191 1358q88 10 205.5 17t228.5 7q82 0 166 -8t151.5 -37.5t110.5 -88t43 -158.5q0 -127 -63.5 -227.5t-198.5 -141.5l-2 -8q109 -20 168 -91t59 -188q0 -106 -36 -187t-100.5 -136.5t-155.5 -83t-202 -27.5h-565zM379 143q70 -4 129 -4h135q80 0 153.5 9.5t130 40 t91.5 89t35 158.5q0 74 -32 115t-82 60.5t-111.5 23.5t-122.5 4h-139.5t-116.5 -2zM471 778q59 -2 124.5 -2h133.5q72 0 137.5 10.5t114.5 40t77.5 84t28.5 144.5q0 55 -22.5 90t-62 55.5t-96 27.5t-124.5 7q-53 0 -121.5 -3t-128.5 -9z" />
<glyph unicode="C" horiz-adv-x="1294" d="M217 520q0 166 45 322.5t136 278.5t228.5 195t321.5 73q135 0 240.5 -46.5t200.5 -142.5l-132 -123q-70 76 -145.5 115t-179.5 39q-143 0 -241.5 -62.5t-160 -161t-89 -222t-27.5 -246.5q0 -90 19.5 -164t62.5 -128t111.5 -84t164.5 -30q113 0 212 46t185 118l82 -127 q-115 -92 -237.5 -142.5t-270.5 -50.5q-264 0 -395 142.5t-131 400.5z" />
<glyph unicode="D" horiz-adv-x="1370" d="M176 0l191 1358q104 10 207.5 17t207.5 7q264 0 412.5 -135t148.5 -405q0 -176 -47 -329t-141 -267.5t-235.5 -180t-327.5 -65.5h-416zM383 154q49 -2 98.5 -2h98.5q135 0 232 36.5t163.5 106.5t105.5 171t58 228q4 35 7 68t3 67q0 190 -92 297t-291 107q-59 0 -116.5 -4 t-117.5 -8z" />
<glyph unicode="E" horiz-adv-x="1093" d="M176 0l191 1366h815l-23 -158h-629l-57 -407h569l-22 -160h-569l-68 -485h653l-20 -156h-840z" />
<glyph unicode="F" horiz-adv-x="1044" d="M176 0l191 1366h800l-22 -158h-615l-57 -415h555l-22 -160h-555l-89 -633h-186z" />
<glyph unicode="G" horiz-adv-x="1429" d="M217 535q0 158 47 311t139.5 274t229.5 195t319 74q154 0 257.5 -54.5t174.5 -124.5l-129 -125q-78 78 -155.5 112t-163.5 34q-145 0 -244.5 -62.5t-163 -163t-91 -225.5t-27.5 -250q0 -84 18 -158.5t60 -130t112 -87t174 -31.5q180 0 284.5 97t133.5 261l14 86h-364 l22 154h533l-21 -152q-41 -293 -198.5 -441t-432.5 -148q-135 0 -234 40.5t-164.5 114.5t-97.5 175.5t-32 224.5z" />
<glyph unicode="H" horiz-adv-x="1355" d="M176 0l191 1366h186l-76 -549h631l76 549h186l-190 -1366h-187l90 643h-630l-91 -643h-186z" />
<glyph unicode="I" horiz-adv-x="538" d="M176 0l191 1366h186l-191 -1366h-186z" />
<glyph unicode="J" horiz-adv-x="917" d="M92 78l101 143q51 -49 96 -67.5t102 -18.5q96 0 145.5 51.5t65.5 161.5l143 1018h187l-141 -1004q-27 -186 -122.5 -286.5t-281.5 -100.5q-88 0 -158.5 24t-136.5 79z" />
<glyph unicode="K" horiz-adv-x="1185" d="M176 0l191 1366h186l-90 -645h8l596 645h233l-548 -580l397 -786h-231l-322 657l-164 -161l-70 -496h-186z" />
<glyph unicode="L" horiz-adv-x="1019" d="M176 0l191 1366h186l-170 -1206h575l-20 -160h-762z" />
<glyph unicode="M" horiz-adv-x="1570" d="M176 0l191 1366h172l342 -676l530 676h174l-190 -1366h-181l148 1061h-8l-514 -655l-328 651h-8l-148 -1057h-180z" />
<glyph unicode="N" horiz-adv-x="1435" d="M176 0l191 1366h184l563 -1051h8l148 1051h180l-190 -1366h-175l-571 1065h-8l-150 -1065h-180z" />
<glyph unicode="O" horiz-adv-x="1527" d="M215 528q0 170 47 326t140.5 274.5t232.5 189.5t323 71q266 0 404.5 -142.5t138.5 -404.5q0 -172 -46 -329t-138 -275.5t-231.5 -189.5t-325.5 -71q-268 0 -406.5 143.5t-138.5 407.5zM412 535q0 -92 20.5 -167t64.5 -128.5t114.5 -82t168.5 -28.5q147 0 247.5 63.5 t163 164t89.5 226.5t27 253q0 186 -87 293.5t-284 107.5q-147 0 -247.5 -62.5t-162 -163t-88 -226.5t-26.5 -250z" />
<glyph unicode="P" horiz-adv-x="1232" d="M176 0l191 1358q100 10 208.5 17t221.5 7q100 0 186 -16t149.5 -56t98.5 -105t35 -163q0 -117 -32 -212t-95.5 -164.5t-158.5 -107.5t-224 -38h-322l-72 -520h-186zM455 670h266q84 0 149.5 17.5t111.5 58t69.5 107.5t23.5 165q0 121 -74.5 167t-224.5 46 q-61 0 -119.5 -3t-124.5 -11z" />
<glyph unicode="Q" horiz-adv-x="1527" d="M215 524q0 172 46 329t138.5 275.5t231.5 189.5t327 71q266 0 404.5 -136.5t138.5 -402.5q0 -111 -20.5 -224.5t-65.5 -217t-116.5 -189.5t-176.5 -141v-8q35 -10 60.5 -26.5t51.5 -35t56.5 -36t77.5 -25.5l-78 -140q-63 6 -116.5 35t-101.5 60.5t-91 56.5t-86 25 q-23 0 -57.5 -3.5t-69.5 -3.5q-268 0 -410.5 138.5t-142.5 408.5zM412 532q0 -186 85.5 -293.5t282.5 -107.5q150 0 250 63.5t161.5 165t88.5 228.5t27 254q0 186 -87 289.5t-284 103.5q-150 0 -250 -62.5t-161.5 -162t-87 -225.5t-25.5 -253z" />
<glyph unicode="R" horiz-adv-x="1236" d="M176 0l191 1360q111 12 206 17t205 5q88 0 172 -14t149.5 -51t104.5 -99.5t39 -158.5q0 -72 -16.5 -139.5t-52 -124t-90 -100.5t-128.5 -66v-8q20 -10 32.5 -36t19.5 -50l129 -535h-197l-111 492q-10 45 -33.5 62t-70.5 17h-283l-80 -571h-186zM463 721h278 q147 0 230.5 73.5t83.5 233.5q0 61 -22.5 101t-62.5 62.5t-93.5 32t-114.5 9.5t-114.5 -3t-115.5 -11z" />
<glyph unicode="S" horiz-adv-x="1103" d="M90 127l107 139q78 -66 167 -102.5t191 -36.5q61 0 117.5 15.5t99.5 46t67.5 79.5t24.5 117q0 70 -45 116t-112.5 83t-147.5 70.5t-147.5 78.5t-112.5 108.5t-45 159.5q0 104 40 178t107.5 120.5t155.5 66.5t182 20q215 0 396 -120l-91 -150q-70 55 -150.5 87t-170.5 32 q-49 0 -99.5 -10.5t-90 -33t-64.5 -61t-25 -96.5q0 -68 45.5 -110.5t114 -77.5t147 -66.5t147.5 -78t114 -113t45 -168.5q0 -113 -40 -196t-109.5 -138t-162 -82t-198.5 -27q-133 0 -241.5 36t-215.5 114z" />
<glyph unicode="T" horiz-adv-x="1034" d="M207 1204l22 162h957l-23 -162h-385l-168 -1204h-186l168 1204h-385z" />
<glyph unicode="U" horiz-adv-x="1370" d="M238 377q0 70 12 153l117 836h186l-117 -836q-4 -33 -7 -63.5t-3 -58.5q0 -61 13.5 -112.5t46 -87.5t86 -55.5t130.5 -19.5q96 0 163 30t111 82t68.5 124.5t36.5 160.5l117 836h186l-116 -836q-41 -283 -180.5 -418t-407.5 -135q-231 0 -336.5 97.5t-105.5 302.5z" />
<glyph unicode="V" horiz-adv-x="1179" d="M236 1366h198l182 -1159h9l505 1159h195l-633 -1366h-207z" />
<glyph unicode="W" horiz-adv-x="1875" d="M252 1366h205l96 -1151h10l473 1151h189l149 -1151h8l424 1151h199l-547 -1366h-213l-153 1102h-9l-454 -1102h-228z" />
<glyph unicode="X" horiz-adv-x="1155" d="M35 0l534 709l-293 657h218l206 -516h9l362 516h215l-493 -672l327 -694h-217l-248 551h-8l-397 -551h-215z" />
<glyph unicode="Y" horiz-adv-x="1171" d="M217 1366h211l258 -659l444 659h205l-579 -823l-76 -543h-186l73 537z" />
<glyph unicode="Z" horiz-adv-x="1142" d="M94 0l21 154l868 1050h-690l22 162h906l-21 -152l-870 -1058h739l-20 -156h-955z" />
<glyph unicode="[" horiz-adv-x="634" d="M88 -213l250 1774h379l-17 -115h-215l-217 -1544h215l-16 -115h-379z" />
<glyph unicode="\" horiz-adv-x="1048" d="M236 1366h170l552 -1602h-167z" />
<glyph unicode="]" horiz-adv-x="634" d="M96 -213l17 115h211l217 1544h-211l16 115h373l-250 -1774h-373z" />
<glyph unicode="^" horiz-adv-x="749" d="M170 1169l393 215l336 -215l-111 -94l-245 158l-299 -158z" />
<glyph unicode="_" horiz-adv-x="991" d="M-57 -295l18 121h1022l-18 -121h-1022z" />
<glyph unicode="`" horiz-adv-x="733" d="M317 1380l193 82l242 -243l-109 -62z" />
<glyph unicode="a" horiz-adv-x="1155" d="M170 373q0 109 23.5 228.5t81 220t152.5 166t241 65.5q92 0 162.5 -30t115.5 -114h8l35 119h154l-144 -1028h-149l10 158h-8q-59 -92 -145 -136.5t-191 -44.5q-96 0 -161.5 31t-106.5 84t-59.5 125t-18.5 156zM352 385q0 -55 10.5 -104.5t36 -87t69.5 -60t112 -22.5 q66 0 118 23.5t89.5 63.5t60 95t33.5 117l34 258q3 25 3 47q0 88 -50 137q-63 61 -180 61q-106 0 -171.5 -51t-102.5 -129t-49.5 -171t-12.5 -177z" />
<glyph unicode="b" horiz-adv-x="1155" d="M156 0l200 1434h179l-76 -531h8q59 86 142 118t173 32q98 0 165 -31t107 -83t57 -122.5t17 -152.5q0 -111 -25.5 -233t-83.5 -222t-153.5 -166t-232.5 -66q-113 0 -186.5 47.5t-100.5 139.5h-8l-49 -164h-133zM385 344q0 -102 53 -167.5t168 -65.5q100 0 167 54t106 135 t54 177t15 182q0 51 -10 98.5t-35.5 81t-70 54t-111.5 20.5q-117 0 -199 -61t-98 -184l-35 -258q-4 -16 -4 -33v-33z" />
<glyph unicode="c" horiz-adv-x="1013" d="M170 397q0 129 38 248t110.5 210t179 144.5t245.5 53.5q94 0 181.5 -34t156.5 -95l-96 -125q-97 112 -253 112h-3q-100 0 -172 -45t-117 -115.5t-65.5 -159.5t-20.5 -175q0 -131 61.5 -214t202.5 -83q88 0 159 28.5t141 81.5l45 -125q-86 -59 -178.5 -93t-196.5 -34 q-201 0 -309.5 110t-108.5 310z" />
<glyph unicode="d" horiz-adv-x="1155" d="M170 373q0 109 23.5 228.5t81 220t152.5 166t241 65.5q92 0 159.5 -30t112.5 -114h8l74 525h178l-201 -1434h-149l10 158h-8q-59 -92 -145 -136.5t-191 -44.5q-96 0 -161.5 31t-106.5 84t-59.5 125t-18.5 156zM352 385q0 -55 10.5 -104.5t36 -87t69.5 -60t112 -22.5 q66 0 118 23.5t89.5 63.5t60 95t33.5 117l34 258q3 25 3 47q0 88 -50 137q-63 61 -180 61q-106 0 -171.5 -51t-102.5 -129t-49.5 -171t-12.5 -177z" />
<glyph unicode="e" horiz-adv-x="1112" d="M172 393q0 125 34 244t102.5 212t173 149.5t245.5 56.5q180 0 272.5 -111t92.5 -295q0 -47 -6.5 -99t-14.5 -93h-721q-6 -43 -6 -80q0 -123 65.5 -192.5t200.5 -69.5q78 0 154 23.5t168 82.5l45 -123q-102 -66 -197.5 -93.5t-193.5 -27.5q-209 0 -311.5 111t-102.5 305z M367 578h557q6 43 6 84q0 55 -12.5 102t-38 83t-67.5 56.5t-101 20.5q-84 0 -145.5 -31t-102.5 -80t-64.5 -111.5t-31.5 -123.5z" />
<glyph unicode="f" horiz-adv-x="653" d="M178 883l21 145h157l21 152q10 70 28.5 119t53.5 81.5t93 48t148 15.5q29 0 61 -3t64 -7l-18 -136q-23 4 -45.5 7.5t-50.5 3.5q-47 0 -76 -6.5t-45.5 -21.5t-24.5 -43t-14 -69l-21 -141h222l-21 -143h-215l-123 -885h-180l123 883h-158z" />
<glyph unicode="g" horiz-adv-x="1155" d="M125 -358l74 139q82 -51 164.5 -78t185.5 -27q61 0 105 9.5t75 34t48.5 66.5t27.5 108l39 268h-8q-66 -94 -139.5 -132t-172.5 -38q-96 0 -163.5 28.5t-109.5 81t-61.5 124t-19.5 155.5q0 109 23.5 227.5t81 217t152.5 163t241 64.5q102 0 172.5 -34t113.5 -126h9l28 135 h152l-156 -1116q-18 -127 -59 -202t-98.5 -112.5t-127 -49t-143.5 -11.5q-256 0 -434 105zM354 401q0 -57 11.5 -106t37 -86t68.5 -58.5t109 -21.5q68 0 120 23.5t89.5 63.5t60 94.5t33.5 115.5l32 240q4 27 4 52q0 86 -50 134q-64 61 -181 61q-102 0 -166.5 -48 t-101.5 -121.5t-51.5 -165t-14.5 -177.5z" />
<glyph unicode="h" horiz-adv-x="1155" d="M156 0l200 1434h179l-76 -533h8q55 78 138 115t190 37q172 0 237.5 -73t65.5 -206q0 -31 -3 -64.5t-8 -68.5l-88 -641h-178l84 602q4 35 8.5 69t4.5 58q0 80 -39 126t-154 46q-129 0 -207 -65.5t-94 -190.5l-90 -645h-178z" />
<glyph unicode="i" horiz-adv-x="489" d="M156 0l143 1028h178l-143 -1028h-178zM309 1268q0 53 40 84.5t89 31.5q41 0 70 -19t29 -62q0 -55 -37 -88t-90 -33q-41 0 -71 21.5t-30 64.5z" />
<glyph unicode="j" horiz-adv-x="501" d="M-203 -455l23 152q55 -6 110 -6q63 0 104.5 17.5t66 49t37 76.5t20.5 103l153 1091h178l-155 -1108q-25 -178 -117 -280.5t-283 -102.5q-35 0 -68.5 2t-68.5 6zM322 1268q0 53 37.5 84.5t89.5 31.5q41 0 69.5 -19.5t28.5 -64.5q0 -55 -37 -86.5t-90 -31.5 q-39 0 -68.5 22.5t-29.5 63.5z" />
<glyph unicode="k" horiz-adv-x="1032" d="M156 0l200 1434h179l-127 -895h8l465 489h225l-408 -405l295 -623h-215l-225 506l-174 -174l-45 -332h-178z" />
<glyph unicode="l" horiz-adv-x="557" d="M178 137v29.5t4 32.5l174 1235h179l-168 -1190q-3 -25 -3 -43q0 -35 13 -45q20 -14 78 -15h63l-18 -141q-25 -4 -62 -7t-78 -3q-94 0 -138 32.5t-44 114.5z" />
<glyph unicode="m" horiz-adv-x="1722" d="M156 0l143 1028h154v-131h8q49 72 122.5 114t176.5 42q98 0 166.5 -37t91.5 -127q66 90 150.5 127t185.5 37q170 0 240.5 -78t70.5 -215q0 -29 -3 -57.5t-7 -61.5l-88 -641h-178l86 623q4 29 7 56.5t3 51.5q0 78 -35 124t-135 46q-115 0 -185.5 -57.5t-87.5 -175.5 l-92 -668h-178l88 631q4 29 6 53.5t2 46.5q0 80 -36.5 125t-141.5 45q-53 0 -98 -19.5t-80 -51t-57.5 -75.5t-28.5 -93l-92 -662h-178z" />
<glyph unicode="n" horiz-adv-x="1155" d="M156 0l143 1028h150v-129h8q121 154 334 154q88 0 147 -19.5t95 -55.5t51.5 -88t15.5 -120q0 -29 -3 -60.5t-7 -66.5l-91 -643h-178l84 602q4 33 7 62.5t3 56.5q0 41 -9 74.5t-30.5 57.5t-58.5 36t-94 12q-129 0 -206 -66.5t-93 -189.5l-90 -645h-178z" />
<glyph unicode="o" horiz-adv-x="1175" d="M172 393q0 131 34 250t103.5 210t175 145.5t248.5 54.5q205 0 309.5 -112t104.5 -312q0 -129 -36 -248t-106.5 -208t-176 -142.5t-246.5 -53.5q-203 0 -306.5 108.5t-103.5 307.5zM354 395q0 -127 55.5 -203.5t192.5 -76.5q104 0 175 48t112 122.5t58.5 166t17.5 179.5 q0 127 -56.5 203.5t-193.5 76.5q-106 0 -176 -48t-111 -122.5t-57.5 -166t-16.5 -179.5z" />
<glyph unicode="p" horiz-adv-x="1155" d="M92 -451l207 1479h145v-131h9q66 86 146.5 121t178.5 35q100 0 167 -31t108 -83t58 -122.5t17 -152.5q0 -117 -25.5 -239t-86 -221.5t-157.5 -163t-238 -63.5q-104 0 -165 42t-96 118h-8l-82 -588h-178zM385 344q0 -102 52 -167.5t165 -65.5q100 0 168 52t106.5 132 t55 177t16.5 187q0 53 -10 99.5t-37 81t-71 54t-113 19.5q-117 0 -196 -61t-97 -186l-35 -254q-4 -16 -4 -34v-34z" />
<glyph unicode="q" horiz-adv-x="1155" d="M170 377q0 111 24.5 230.5t82 219t152.5 163t239 63.5q92 0 167.5 -32t116.5 -124h9l32 131h150l-174 -1235q-5 -31 -5 -54.5t5 -38.5q10 -30 63 -54l-117 -131q-72 25 -103.5 62.5t-31.5 109.5q0 29 6 69l54 381h-9q-59 -86 -134.5 -123t-176.5 -37q-98 0 -164.5 32 t-108.5 86.5t-59.5 127t-17.5 154.5zM352 389q0 -55 10.5 -105.5t37 -89t69.5 -61t111 -22.5q66 0 118 23.5t89.5 63.5t60 95t33.5 117l34 258q3 25 3 48q0 86 -48 135q-61 62 -182 62q-104 0 -169.5 -49t-102.5 -125.5t-50.5 -170t-13.5 -179.5z" />
<glyph unicode="r" horiz-adv-x="747" d="M156 0l143 1028h150v-131h8q57 80 138 117t193 37h54l-23 -158h-45q-145 0 -237.5 -51t-112.5 -191l-90 -651h-178z" />
<glyph unicode="s" horiz-adv-x="921" d="M82 86l84 131q66 -47 148.5 -75.5t164.5 -28.5q43 0 83 8t73 28.5t52.5 53.5t19.5 80q0 53 -37 85.5t-93.5 56.5t-121 44t-120.5 53t-93 83t-37 132q0 84 33.5 144.5t90 98.5t129 55.5t150.5 17.5q86 0 171 -19.5t159 -60.5l-70 -135q-55 37 -126.5 56t-137.5 19 q-37 0 -78 -6t-74.5 -21.5t-55 -45t-21.5 -74.5q0 -47 37 -77t93 -52.5t121.5 -45t122 -56t93.5 -83.5t37 -130q0 -92 -33 -157t-88.5 -107t-130 -61.5t-156.5 -19.5q-104 0 -203.5 26t-185.5 83z" />
<glyph unicode="t" horiz-adv-x="720" d="M168 883l20 145h172l39 283h176l-38 -283h243l-20 -145h-244l-84 -598q-6 -37 -6 -62q0 -47 31.5 -66.5t132.5 -19.5h30.5t34.5 2l-20 -141q-33 -4 -66.5 -7t-64.5 -3q-78 0 -128 12t-79 34.5t-41 57.5t-12 80q0 39 6 86l88 625h-170z" />
<glyph unicode="u" horiz-adv-x="1136" d="M199 262q0 29 3 61.5t7 69.5l90 635h178l-76 -543q-8 -49 -12 -92t-4 -80q0 -92 38 -139t144 -47q143 0 209 73.5t82 196.5l88 631h178l-143 -1028h-150v129h-8q-47 -66 -126 -109t-201 -43q-70 0 -125.5 12.5t-93 45.5t-58 88t-20.5 139z" />
<glyph unicode="v" horiz-adv-x="993" d="M184 1028h191l145 -870h8l383 870h185l-490 -1028h-215z" />
<glyph unicode="w" horiz-adv-x="1529" d="M195 1028h184l92 -852h8l355 852h145l119 -852h8l336 852h180l-442 -1028h-191l-117 764h-8l-329 -764h-191z" />
<glyph unicode="x" horiz-adv-x="972" d="M31 0l428 543l-244 485h203l164 -373h8l268 373h191l-375 -479l268 -549h-203l-188 424h-8l-307 -424h-205z" />
<glyph unicode="y" horiz-adv-x="1013" d="M25 -457l22 152q16 -4 35.5 -5t52.5 -1q39 0 66.5 9t52.5 32.5t49.5 64.5t56.5 107l68 135l-248 991h193l172 -801h8l377 801h190l-596 -1161q-49 -98 -91 -161.5t-85 -101.5t-93 -52.5t-120 -14.5q-43 0 -110 6z" />
<glyph unicode="z" horiz-adv-x="929" d="M80 0l18 139l656 744h-539l21 145h741l-21 -145l-653 -738h565l-18 -145h-770z" />
<glyph unicode="{" horiz-adv-x="712" d="M215 598l18 141q74 16 99.5 62.5t36.5 111.5l53 379q8 63 25.5 114.5t49 86.5t79 53.5t118.5 18.5h101l-17 -119h-53q-47 0 -72.5 -13.5t-39 -36t-18.5 -54t-11 -70.5l-54 -381q-6 -41 -15 -70.5t-25.5 -55.5t-41 -48.5t-61.5 -46.5q47 -41 66.5 -75t19.5 -83 q0 -29 -6 -66l-51 -366q-4 -29 -6 -52.5t-2 -41.5q0 -45 20.5 -63.5t79.5 -18.5h53l-16 -117h-96q-119 0 -164 46t-45 134q0 20 2 44t6 46l53 367q10 66 -4 112t-82 62z" />
<glyph unicode="|" horiz-adv-x="477" d="M106 -414l273 1930h141l-272 -1930h-142z" />
<glyph unicode="}" horiz-adv-x="712" d="M106 -213l17 117h53q43 0 67.5 9t39 29.5t21.5 54.5t13 83l52 366q6 41 15 72t24.5 55.5t39 48t60.5 48.5q-45 39 -63.5 72.5t-18.5 80.5q0 27 6 68l53 381q4 27 7.5 49t3.5 43q0 39 -20.5 60.5t-80.5 21.5h-55l16 119h99q115 0 158.5 -47.5t43.5 -135.5q0 -20 -2 -43.5 t-6 -46.5l-53 -379q-10 -66 6 -111.5t82 -62.5l-18 -141q-76 -16 -101.5 -62.5t-36.5 -111.5l-53 -367q-10 -66 -26.5 -116t-47 -84.5t-79 -52t-119.5 -17.5h-97z" />
<glyph unicode="~" horiz-adv-x="849" d="M188 1171q57 84 113.5 116t134.5 32q45 0 86 -13.5t80 -28.5t78 -27.5t80 -12.5t75.5 18.5t63.5 63.5l109 -45q-41 -74 -103.5 -111t-140.5 -37q-47 0 -89 12.5t-82 28t-79 28.5t-80 13q-43 0 -75.5 -16t-67.5 -70z" />
<glyph unicode="&#xa1;" horiz-adv-x="575" d="M168 -334q45 250 87 498t83 498h145q-29 -250 -55.5 -498t-52.5 -498h-207zM319 920q0 61 44.5 98t103.5 37q47 0 82 -23.5t35 -75.5q0 -61 -45 -96t-105 -35q-45 0 -80 24t-35 71z" />
<glyph unicode="&#xa2;" d="M250 575q0 113 27.5 221.5t86 196.5t147.5 148.5t210 77.5l20 147h168l-20 -145q78 -8 145.5 -39t126.5 -82l-96 -127q-102 111 -258 110q-104 0 -176 -44t-115 -114.5t-62.5 -158.5t-19.5 -178q0 -66 14.5 -119t45 -91t79 -59.5t117.5 -21.5q88 0 161 34t140 87l62 -115 q-70 -55 -148 -93t-166 -50l-20 -160h-168l20 160q-86 10 -146 46t-99 91t-57.5 127t-18.5 151z" />
<glyph unicode="&#xa3;" d="M129 0l18 145h41q68 0 115 32t75 82t40 115.5t12 133.5q0 41 -2 81t-6 77h-172l20 141h150q-6 55 -11.5 103t-5.5 96q0 182 106.5 282.5t313.5 100.5q98 0 186.5 -24t161.5 -71l-65 -153q-55 41 -120.5 67.5t-154.5 26.5q-135 0 -192 -61.5t-57 -190.5q0 -41 4 -85t6 -91 h309l-20 -141h-283q6 -45 10 -87t4 -83q0 -96 -25.5 -181.5t-103.5 -152.5l-2 -6h588l-20 -156h-920z" />
<glyph unicode="&#xa4;" d="M147 309l164 144q-51 82 -51 184q0 84 32 162t87 139l-123 145l109 97l124 -148q57 37 121 57.5t131 20.5q61 0 121 -19.5t107 -60.5l170 148l84 -97l-168 -145q49 -84 49 -182q0 -84 -32 -160t-85 -139l127 -148l-110 -96l-127 147q-55 -37 -120 -57t-132 -20 q-61 0 -121 19t-109 58l-166 -145zM420 659q0 -98 64.5 -160.5t160.5 -62.5q59 0 113.5 24.5t96.5 65.5t66.5 94.5t24.5 112.5q0 49 -17.5 90t-48 72t-71.5 47t-90 16q-59 0 -113.5 -24.5t-95.5 -65.5t-65.5 -95t-24.5 -114z" />
<glyph unicode="&#xa5;" d="M170 291l18 123h371l16 123l-34 81h-324l16 123h250l-233 625h211l233 -666l414 666h201l-408 -625h254l-16 -123h-326l-51 -71l-19 -133h367l-18 -123h-367l-39 -291h-184l39 291h-371z" />
<glyph unicode="&#xa6;" horiz-adv-x="477" d="M106 -414l117 830h142l-117 -830h-142zM262 686l117 830h141l-117 -830h-141z" />
<glyph unicode="&#xa7;" horiz-adv-x="970" d="M106 -129l82 133q63 -45 139 -72.5t154 -27.5q43 0 82 8t70 28.5t48 53.5t17 82t-38.5 84t-96 62.5t-126 54t-126 62.5t-96.5 84t-39 120t27.5 124t74 86.5t106.5 52t124 21.5l2 7q-41 14 -83 36.5t-76 53t-55.5 70.5t-21.5 89q0 84 39 142.5t98.5 94.5t133 52.5 t143.5 16.5q86 0 164 -17.5t156 -52.5l-70 -143q-59 35 -122.5 54t-133.5 19q-35 0 -75 -6t-72.5 -21.5t-54 -44t-21.5 -73.5q0 -49 36.5 -83t93 -60.5t122 -50t122 -56.5t93.5 -78.5t37 -113.5q0 -74 -27 -127.5t-72 -88t-104.5 -53t-126.5 -22.5v-9q49 -16 94 -38.5 t81 -54t57.5 -74.5t21.5 -101q0 -88 -37 -149.5t-95.5 -100.5t-134 -57t-151.5 -18q-104 0 -189 22.5t-174 79.5zM344 563q0 -41 19.5 -65.5t49 -38t65.5 -18.5t67 -5q47 0 91 8.5t78 28t54 55t20 90.5q0 41 -19 66t-49 37t-66 16t-66 4q-45 0 -89 -7t-78 -26.5t-55.5 -54.5 t-21.5 -90z" />
<glyph unicode="&#xa8;" horiz-adv-x="733" d="M248 1260q0 47 35.5 82.5t83.5 35.5q39 0 65.5 -25.5t26.5 -64.5q0 -47 -37 -82t-84 -35q-37 0 -63.5 26t-26.5 63zM631 1260q0 47 37 82.5t84 35.5q39 0 64.5 -25.5t25.5 -64.5q0 -47 -36 -82t-83 -35q-37 0 -64.5 25t-27.5 64z" />
<glyph unicode="&#xa9;" horiz-adv-x="1773" d="M178 684q0 147 55.5 275t151.5 223.5t225 151t277 55.5q147 0 276 -55.5t225.5 -151t151.5 -223.5t55 -275t-55 -275t-151.5 -223.5t-225.5 -150.5t-276 -55t-276.5 55t-225.5 150.5t-151.5 223.5t-55.5 275zM258 684q0 -129 50 -242.5t135 -199.5t200 -135.5t244 -49.5 t243.5 49.5t200.5 135.5t136.5 199.5t50.5 242.5t-48.5 244.5t-133.5 202t-199.5 136.5t-249.5 50q-133 0 -249 -50t-200 -136.5t-132 -202t-48 -244.5zM494 686q0 102 23.5 185t74.5 140.5t129 88t188 30.5q96 0 172 -32.5t146 -96.5l-72 -92q-51 53 -111.5 82t-132.5 29 q-84 0 -139 -23.5t-87 -66.5t-45 -104.5t-13 -137.5q0 -78 12 -141.5t45 -108.5t86 -68.5t137 -23.5q74 0 134.5 28.5t117.5 82.5l68 -92q-70 -61 -148 -96.5t-174 -35.5q-119 0 -197.5 34t-127 93.5t-67.5 143.5t-19 182z" />
<glyph unicode="&#xaa;" horiz-adv-x="798" d="M250 907q0 86 42 138.5t105.5 81t139 38t141.5 9.5q2 16 4 30.5t2 28.5q0 37 -22.5 51t-69.5 14q-86 0 -150.5 -23.5t-95.5 -39.5l-31 88q72 35 143.5 54.5t149.5 19.5q86 0 141.5 -32t55.5 -126q0 -37 -7 -83t-15.5 -94t-15.5 -93t-7 -78q0 -20 10 -30.5t27 -20.5 l-86 -82q-27 8 -46.5 23.5t-23.5 43.5h-8q-47 -33 -101.5 -52t-111.5 -19q-74 0 -122 37.5t-48 115.5zM371 926q0 -41 24.5 -64.5t65.5 -23.5q49 0 93 19.5t85 45.5l29 195q-41 0 -93.5 -6.5t-97.5 -24.5t-75.5 -52t-30.5 -89z" />
<glyph unicode="&#xab;" horiz-adv-x="929" d="M127 627l350 413l111 -67l-301 -348l207 -342l-132 -70zM518 627l340 401l113 -67l-293 -336l199 -330l-132 -70z" />
<glyph unicode="&#xac;" d="M168 459l22 155h967l-74 -524h-153l51 369h-813z" />
<glyph unicode="&#xad;" horiz-adv-x="770" d="M168 449l25 165h557l-25 -165h-557z" />
<glyph unicode="&#xae;" horiz-adv-x="927" d="M250 1085q0 72 27.5 135.5t76.5 110.5t115 75t139 28q74 0 138.5 -28t113.5 -75t77 -110.5t28 -135.5t-28 -134t-77 -109t-113.5 -75t-138.5 -28t-139.5 28t-114.5 75t-76.5 109.5t-27.5 133.5zM301 1087q0 -59 24.5 -113t66.5 -95t98.5 -64.5t117.5 -23.5t116.5 23.5 t98.5 63.5t67.5 94t24.5 115q0 59 -24.5 113.5t-65.5 95.5t-96.5 64.5t-118.5 23.5q-66 0 -122 -23.5t-98 -64.5t-65.5 -95t-23.5 -114zM475 899v379q41 4 73 6t62 2q29 0 57.5 -5t51 -19.5t36 -38t13.5 -60.5q0 -35 -16.5 -59.5t-44.5 -40.5l69 -164h-88l-53 131 q-4 8 -7 10t-14 2h-61v-143h-78zM553 1104h63q72 0 72 55q0 60 -76 60q-16 0 -31.5 -1t-27.5 -1v-113z" />
<glyph unicode="&#xaf;" horiz-adv-x="733" d="M227 1206l17 117h610l-16 -117h-611z" />
<glyph unicode="&#xb0;" horiz-adv-x="839" d="M274 1063q0 76 25 136.5t70 103.5t106.5 66.5t132.5 23.5q57 0 106.5 -18.5t84.5 -51.5t54 -78t19 -100q0 -76 -25.5 -137.5t-70.5 -104.5t-106.5 -65.5t-130.5 -22.5q-55 0 -103.5 18.5t-84.5 51.5t-56.5 78t-20.5 100zM358 1073q0 -80 52.5 -133t132.5 -53 q113 0 179 66.5t66 181.5q0 80 -46 132t-138 52q-115 0 -180.5 -67.5t-65.5 -178.5z" />
<glyph unicode="&#xb1;" d="M104 0l21 150h967l-21 -150h-967zM184 578l23 153h409l54 387h157l-53 -387h400l-23 -153h-399l-47 -345h-158l47 345h-410z" />
<glyph unicode="&#xb2;" horiz-adv-x="632" d="M186 862q35 27 102.5 69t135.5 92t118 106.5t50 109.5q0 29 -18.5 59.5t-71.5 30.5q-49 0 -90 -18.5t-90 -65.5l-60 80q70 59 132.5 84t133.5 25q92 0 142.5 -47.5t50.5 -124.5q0 -68 -37 -123.5t-94.5 -103.5t-127 -92t-136.5 -89h346l-15 -102h-467z" />
<glyph unicode="&#xb3;" horiz-adv-x="618" d="M170 817l66 88q41 -37 79.5 -52t90.5 -15q57 0 101 33.5t44 101.5q0 78 -111 78h-88l13 90h57q20 0 47 5t49.5 18.5t37.5 35t15 53.5q0 37 -24.5 58.5t-71.5 21.5q-45 0 -90 -15t-86 -50l-45 86q68 45 124 62.5t124 17.5q88 0 141 -37t53 -117q0 -115 -116 -166v-8 q92 -25 92 -127q0 -115 -71 -177.5t-198 -62.5q-66 0 -125 17.5t-108 60.5z" />
<glyph unicode="&#xb4;" horiz-adv-x="733" d="M322 1221l315 247l164 -86l-387 -225z" />
<glyph unicode="&#xb5;" horiz-adv-x="1189" d="M115 -451l207 1479h180l-76 -541q-8 -51 -12 -96t-4 -82q0 -88 36.5 -134t145.5 -46q143 0 207.5 73.5t81.5 194.5l88 631h180l-143 -1028h-152v129h-10q-47 -63 -113.5 -107.5t-185.5 -44.5q-27 0 -55.5 3.5t-55 14.5t-48 29.5t-36.5 49.5l-74 -525h-161z" />
<glyph unicode="&#xb6;" horiz-adv-x="999" d="M123 434q0 143 55 255t149.5 186.5t216.5 113.5t257 39h137l-143 -1028h-138q-104 0 -200.5 23.5t-171 76t-118.5 135t-44 199.5z" />
<glyph unicode="&#xb7;" horiz-adv-x="430" d="M150 469q0 61 44 96t103 35q45 0 80 -22.5t35 -71.5q0 -61 -44 -98t-104 -37q-47 0 -80.5 24.5t-33.5 73.5z" />
<glyph unicode="&#xb8;" horiz-adv-x="733" d="M135 -373l41 72q29 -16 60.5 -27.5t66.5 -11.5q49 0 84 21.5t35 76.5q0 39 -28.5 53.5t-63.5 14.5q-43 0 -78 -14l-33 30l105 158h96l-82 -111q16 4 31.5 6.5t31.5 2.5q49 0 87 -27.5t38 -95.5q0 -102 -65.5 -149.5t-157.5 -47.5q-49 0 -90 13.5t-78 35.5z" />
<glyph unicode="&#xb9;" horiz-adv-x="573" d="M174 752l14 100h170l62 434h-8l-152 -78l-27 92l230 121h100l-80 -569h162l-14 -100h-457z" />
<glyph unicode="&#xba;" horiz-adv-x="798" d="M252 1008q0 80 21.5 150.5t64.5 123.5t107.5 84t148.5 31q121 0 187.5 -63.5t66.5 -186.5q0 -80 -21.5 -151.5t-64.5 -125t-107.5 -85t-150.5 -31.5q-123 0 -187.5 65.5t-64.5 188.5zM377 1008q0 -76 32.5 -116t110.5 -40q61 0 100 26.5t63 69.5t33 95.5t9 103.5 q0 147 -145 147q-61 0 -100.5 -25.5t-63 -66.5t-31.5 -92t-8 -102z" />
<glyph unicode="&#xbb;" horiz-adv-x="929" d="M133 295l291 330l-201 336l133 67l232 -401l-344 -402zM514 283l299 342l-205 348l133 67l238 -413l-354 -414z" />
<glyph unicode="&#xbc;" horiz-adv-x="1527" d="M248 752l14 100h170l62 434h-9l-151 -78l-27 92l230 121h100l-80 -569h162l-14 -100h-457zM285 0l1200 1434h108l-1200 -1434h-108zM944 233l369 437h135l-59 -430h104l-14 -103h-105l-18 -137h-127l18 137h-286zM1059 233h207l43 314z" />
<glyph unicode="&#xbd;" horiz-adv-x="1470" d="M205 0l1200 1434h108l-1200 -1434h-108zM231 752l15 100h170l61 434h-8l-152 -78l-26 92l229 121h101l-80 -569h161l-14 -100h-457zM915 111q35 27 102.5 68.5t135.5 92t118 106.5t50 109q0 29 -18.5 60t-71.5 31q-49 0 -90 -18.5t-90 -65.5l-60 79q70 59 132.5 84 t133.5 25q92 0 142.5 -47t50.5 -125q0 -68 -37 -123t-94 -103t-127 -92.5t-137 -89.5h346l-15 -102h-466z" />
<glyph unicode="&#xbe;" horiz-adv-x="1447" d="M242 817l65 88q41 -37 80 -52t90 -15q57 0 101.5 33.5t44.5 101.5q0 78 -111 78h-88l12 90h58q20 0 46.5 5t49 18.5t38 35t15.5 53.5q0 37 -24.5 58.5t-71.5 21.5q-45 0 -90 -15t-86 -50l-45 86q68 45 124 62.5t123 17.5q88 0 141.5 -37t53.5 -117q0 -115 -117 -166v-8 q92 -25 92 -127q0 -115 -70.5 -177.5t-197.5 -62.5q-66 0 -125 17.5t-108 60.5zM246 0l1200 1434h108l-1200 -1434h-108zM879 233l368 437h135l-59 -430h104l-14 -103h-104l-19 -137h-127l19 137h-287zM993 233h207l43 314z" />
<glyph unicode="&#xbf;" horiz-adv-x="1054" d="M147 -55q0 106 33 178t89.5 123t131 88t160.5 74q33 14 53.5 25t31.5 25.5t16.5 36t9.5 58.5l16 127h176l-22 -162q-6 -49 -16.5 -80.5t-28 -54.5t-46 -40t-73.5 -36q-61 -27 -123.5 -52.5t-112 -61t-81 -88t-31.5 -132.5q0 -51 19.5 -84.5t52 -54t74.5 -30t87 -9.5 q96 0 177 33t159 88l70 -133q-111 -68 -215.5 -103.5t-233.5 -35.5q-74 0 -140.5 16t-118.5 51t-83 92.5t-31 141.5zM690 924q0 59 42 95t99 36q45 0 79 -23.5t34 -73.5q0 -59 -41 -94t-100 -35q-45 0 -79 23t-34 72z" />
<glyph unicode="&#xc0;" horiz-adv-x="1314" d="M45 0l696 1374h209l320 -1374h-201l-72 330h-596l-163 -330h-193zM469 483h500l-148 709h-8zM555 1667l193 82l242 -243l-109 -62z" />
<glyph unicode="&#xc1;" horiz-adv-x="1314" d="M45 0l696 1374h209l320 -1374h-201l-72 330h-596l-163 -330h-193zM469 483h500l-148 709h-8zM742 1508l315 247l164 -86l-387 -225z" />
<glyph unicode="&#xc2;" horiz-adv-x="1314" d="M45 0l696 1374h209l320 -1374h-201l-72 330h-596l-163 -330h-193zM469 483h500l-148 709h-8zM547 1542l344 201l295 -201l-92 -102l-219 162l-266 -162z" />
<glyph unicode="&#xc3;" horiz-adv-x="1314" d="M45 0l696 1374h209l320 -1374h-201l-72 330h-596l-163 -330h-193zM469 483h500l-148 709h-8zM527 1522q49 84 100 114.5t111 30.5q37 0 72.5 -13t70.5 -28.5t67.5 -28t61.5 -12.5q35 0 65.5 17.5t53.5 64.5l84 -67q-33 -74 -91.5 -110t-117.5 -36q-37 0 -73 12.5 t-70.5 28t-66.5 28.5t-60 13q-35 0 -67 -16t-60 -68z" />
<glyph unicode="&#xc4;" horiz-adv-x="1314" d="M45 0l696 1374h209l320 -1374h-201l-72 330h-596l-163 -330h-193zM469 483h500l-148 709h-8zM574 1547q0 47 35.5 82.5t83.5 35.5q39 0 65.5 -25.5t26.5 -64.5q0 -47 -37 -82t-84 -35q-37 0 -63.5 26t-26.5 63zM957 1547q0 47 37 82.5t84 35.5q39 0 64.5 -25.5 t25.5 -64.5q0 -47 -36 -82t-83 -35q-37 0 -64.5 25t-27.5 64z" />
<glyph unicode="&#xc5;" horiz-adv-x="1316" d="M47 0l653 1292q-41 27 -62.5 72t-21.5 94q0 55 20.5 103.5t56.5 82t83 53t103 19.5q45 0 86 -13t72.5 -39t50 -62.5t18.5 -83.5q0 -72 -38 -133.5t-99 -90.5l303 -1294h-201l-72 330h-596l-163 -330h-193zM471 483h500l-146 713h-8zM727 1464q0 -51 33 -81.5t82 -30.5 q66 0 109.5 45t43.5 110q0 49 -31.5 80t-86.5 31q-72 0 -111 -45t-39 -109z" />
<glyph unicode="&#xc6;" horiz-adv-x="1839" d="M45 0l950 1366h936l-20 -156h-633l-57 -407h571l-23 -160h-571l-70 -487h654l-21 -156h-837l47 336h-504l-225 -336h-197zM565 496h430l99 710h-27z" />
<glyph unicode="&#xc7;" horiz-adv-x="1294" d="M217 520q0 166 45 322.5t136 278.5t228.5 195t321.5 73q135 0 240.5 -46.5t200.5 -142.5l-132 -123q-70 76 -145.5 115t-179.5 39q-143 0 -241.5 -62.5t-160 -161t-89 -222t-27.5 -246.5q0 -90 19.5 -164t62.5 -128t111.5 -84t164.5 -30q113 0 212 46t185 118l82 -127 q-109 -86 -224.5 -136t-254.5 -54l-70 -97q16 4 32 6t32 2q49 0 87 -27t38 -95q0 -102 -65.5 -149.5t-157.5 -47.5q-49 0 -90 13.5t-78 35.5l41 72q29 -16 60.5 -27.5t66.5 -11.5q49 0 83.5 21.5t34.5 76.5q0 39 -28.5 53.5t-63.5 14.5q-43 0 -78 -15l-32 31l94 144 q-231 16 -346 157.5t-115 382.5z" />
<glyph unicode="&#xc8;" horiz-adv-x="1093" d="M176 0l191 1366h815l-23 -158h-629l-57 -407h569l-22 -160h-569l-68 -485h653l-20 -156h-840zM548 1667l193 82l242 -243l-109 -62z" />
<glyph unicode="&#xc9;" horiz-adv-x="1093" d="M176 0l191 1366h815l-23 -158h-629l-57 -407h569l-22 -160h-569l-68 -485h653l-20 -156h-840zM662 1508l315 247l164 -86l-387 -225z" />
<glyph unicode="&#xca;" horiz-adv-x="1093" d="M176 0l191 1366h815l-23 -158h-629l-57 -407h569l-22 -160h-569l-68 -485h653l-20 -156h-840zM483 1542l344 201l295 -201l-92 -102l-219 162l-266 -162z" />
<glyph unicode="&#xcb;" horiz-adv-x="1093" d="M176 0l191 1366h815l-23 -158h-629l-57 -407h569l-22 -160h-569l-68 -485h653l-20 -156h-840zM510 1547q0 47 35.5 82.5t83.5 35.5q39 0 65.5 -25.5t26.5 -64.5q0 -47 -37 -82t-84 -35q-37 0 -63.5 26t-26.5 63zM893 1547q0 47 37 82.5t84 35.5q39 0 64.5 -25.5 t25.5 -64.5q0 -47 -36 -82t-83 -35q-37 0 -64.5 25t-27.5 64z" />
<glyph unicode="&#xcc;" horiz-adv-x="538" d="M174 1667l193 82l242 -243l-109 -62zM176 0l191 1366h186l-191 -1366h-186z" />
<glyph unicode="&#xcd;" horiz-adv-x="538" d="M176 0l191 1366h186l-191 -1366h-186zM361 1508l315 247l164 -86l-387 -225z" />
<glyph unicode="&#xce;" horiz-adv-x="538" d="M176 0l191 1366h186l-191 -1366h-186zM176 1542l344 201l295 -201l-92 -102l-219 162l-266 -162z" />
<glyph unicode="&#xcf;" horiz-adv-x="538" d="M176 0l191 1366h186l-191 -1366h-186zM195 1547q0 47 35.5 82.5t83.5 35.5q39 0 65.5 -25.5t26.5 -64.5q0 -47 -37 -82t-84 -35q-37 0 -63.5 26t-26.5 63zM578 1547q0 47 37 82.5t84 35.5q39 0 64.5 -25.5t25.5 -64.5q0 -47 -36 -82t-83 -35q-37 0 -64.5 25t-27.5 64z " />
<glyph unicode="&#xd0;" horiz-adv-x="1370" d="M137 651l23 154h131l78 553q104 10 206.5 17t206.5 7q262 0 413 -136t151 -404q0 -178 -49.5 -332t-146.5 -267.5t-239.5 -178t-328.5 -64.5h-404l90 651h-131zM383 154q49 -2 98.5 -2h98.5q135 0 233 36.5t164.5 106.5t105.5 170t58 229q4 35 7 70t3 70q0 188 -91 291.5 t-288 103.5q-121 0 -240 -12l-57 -412h320l-23 -154h-319z" />
<glyph unicode="&#xd1;" horiz-adv-x="1435" d="M176 0l191 1366h184l563 -1051h8l148 1051h180l-190 -1366h-175l-571 1065h-8l-150 -1065h-180zM606 1522q49 84 100 114.5t111 30.5q37 0 72.5 -13t70.5 -28.5t67.5 -28t61.5 -12.5q35 0 65.5 17.5t53.5 64.5l84 -67q-33 -74 -91.5 -110t-117.5 -36q-37 0 -73 12.5 t-70.5 28t-66.5 28.5t-60 13q-35 0 -67 -16t-60 -68z" />
<glyph unicode="&#xd2;" horiz-adv-x="1527" d="M215 528q0 170 47 326t140.5 274.5t232.5 189.5t323 71q266 0 404.5 -142.5t138.5 -404.5q0 -172 -46 -329t-138 -275.5t-231.5 -189.5t-325.5 -71q-268 0 -406.5 143.5t-138.5 407.5zM412 535q0 -92 20.5 -167t64.5 -128.5t114.5 -82t168.5 -28.5q147 0 247.5 63.5 t163 164t89.5 226.5t27 253q0 186 -87 293.5t-284 107.5q-147 0 -247.5 -62.5t-162 -163t-88 -226.5t-26.5 -250zM745 1671l193 82l242 -243l-109 -62z" />
<glyph unicode="&#xd3;" horiz-adv-x="1527" d="M215 528q0 170 47 326t140.5 274.5t232.5 189.5t323 71q266 0 404.5 -142.5t138.5 -404.5q0 -172 -46 -329t-138 -275.5t-231.5 -189.5t-325.5 -71q-268 0 -406.5 143.5t-138.5 407.5zM412 535q0 -92 20.5 -167t64.5 -128.5t114.5 -82t168.5 -28.5q147 0 247.5 63.5 t163 164t89.5 226.5t27 253q0 186 -87 293.5t-284 107.5q-147 0 -247.5 -62.5t-162 -163t-88 -226.5t-26.5 -250zM842 1512l315 247l164 -86l-387 -225z" />
<glyph unicode="&#xd4;" horiz-adv-x="1527" d="M215 528q0 170 47 326t140.5 274.5t232.5 189.5t323 71q266 0 404.5 -142.5t138.5 -404.5q0 -172 -46 -329t-138 -275.5t-231.5 -189.5t-325.5 -71q-268 0 -406.5 143.5t-138.5 407.5zM412 535q0 -92 20.5 -167t64.5 -128.5t114.5 -82t168.5 -28.5q147 0 247.5 63.5 t163 164t89.5 226.5t27 253q0 186 -87 293.5t-284 107.5q-147 0 -247.5 -62.5t-162 -163t-88 -226.5t-26.5 -250zM669 1542l344 201l295 -201l-92 -102l-219 162l-266 -162z" />
<glyph unicode="&#xd5;" horiz-adv-x="1527" d="M215 528q0 170 47 326t140.5 274.5t232.5 189.5t323 71q266 0 404.5 -142.5t138.5 -404.5q0 -172 -46 -329t-138 -275.5t-231.5 -189.5t-325.5 -71q-268 0 -406.5 143.5t-138.5 407.5zM412 535q0 -92 20.5 -167t64.5 -128.5t114.5 -82t168.5 -28.5q147 0 247.5 63.5 t163 164t89.5 226.5t27 253q0 186 -87 293.5t-284 107.5q-147 0 -247.5 -62.5t-162 -163t-88 -226.5t-26.5 -250zM631 1526q49 84 100 114.5t111 30.5q37 0 72.5 -13t70.5 -28.5t67.5 -28t61.5 -12.5q35 0 65.5 17.5t53.5 64.5l84 -67q-33 -74 -91.5 -110t-117.5 -36 q-37 0 -73 12.5t-70.5 28t-66.5 28.5t-60 13q-35 0 -67 -16t-60 -68z" />
<glyph unicode="&#xd6;" horiz-adv-x="1527" d="M215 528q0 170 47 326t140.5 274.5t232.5 189.5t323 71q266 0 404.5 -142.5t138.5 -404.5q0 -172 -46 -329t-138 -275.5t-231.5 -189.5t-325.5 -71q-268 0 -406.5 143.5t-138.5 407.5zM412 535q0 -92 20.5 -167t64.5 -128.5t114.5 -82t168.5 -28.5q147 0 247.5 63.5 t163 164t89.5 226.5t27 253q0 186 -87 293.5t-284 107.5q-147 0 -247.5 -62.5t-162 -163t-88 -226.5t-26.5 -250zM684 1547q0 47 35.5 82.5t83.5 35.5q39 0 65.5 -25.5t26.5 -64.5q0 -47 -37 -82t-84 -35q-37 0 -63.5 26t-26.5 63zM1067 1547q0 47 37 82.5t84 35.5 q39 0 64.5 -25.5t25.5 -64.5q0 -47 -36 -82t-83 -35q-37 0 -64.5 25t-27.5 64z" />
<glyph unicode="&#xd7;" d="M188 211l367 319l-266 310l125 108l264 -309l356 309l90 -108l-352 -310l272 -319l-122 -109l-275 320l-364 -320z" />
<glyph unicode="&#xd8;" horiz-adv-x="1527" d="M162 47l135 146q-82 131 -82 335q0 170 47 326t140.5 274.5t232.5 189.5t323 71q225 0 361 -107l119 127l104 -88l-129 -139q88 -135 88 -340q0 -172 -46 -329t-138 -275.5t-231.5 -189.5t-325.5 -71q-229 0 -369 111l-129 -137zM412 535q0 -111 26 -191l758 807 q-92 86 -260 86q-147 0 -247.5 -62.5t-162 -163t-88 -226t-26.5 -250.5zM514 221q45 -45 109.5 -68.5t156.5 -23.5q147 0 247.5 63.5t163 164t89.5 226.5t27 253q0 119 -33 198z" />
<glyph unicode="&#xd9;" horiz-adv-x="1370" d="M238 377q0 70 12 153l117 836h186l-117 -836q-4 -33 -7 -63.5t-3 -58.5q0 -61 13.5 -112.5t46 -87.5t86 -55.5t130.5 -19.5q96 0 163 30t111 82t68.5 124.5t36.5 160.5l117 836h186l-116 -836q-41 -283 -180.5 -418t-407.5 -135q-231 0 -336.5 97.5t-105.5 302.5z M577 1667l193 82l242 -243l-109 -62z" />
<glyph unicode="&#xda;" horiz-adv-x="1370" d="M238 377q0 70 12 153l117 836h186l-117 -836q-4 -33 -7 -63.5t-3 -58.5q0 -61 13.5 -112.5t46 -87.5t86 -55.5t130.5 -19.5q96 0 163 30t111 82t68.5 124.5t36.5 160.5l117 836h186l-116 -836q-41 -283 -180.5 -418t-407.5 -135q-231 0 -336.5 97.5t-105.5 302.5z M783 1508l315 247l164 -86l-387 -225z" />
<glyph unicode="&#xdb;" horiz-adv-x="1370" d="M238 377q0 70 12 153l117 836h186l-117 -836q-4 -33 -7 -63.5t-3 -58.5q0 -61 13.5 -112.5t46 -87.5t86 -55.5t130.5 -19.5q96 0 163 30t111 82t68.5 124.5t36.5 160.5l117 836h186l-116 -836q-41 -283 -180.5 -418t-407.5 -135q-231 0 -336.5 97.5t-105.5 302.5z M585 1542l344 201l295 -201l-92 -102l-219 162l-266 -162z" />
<glyph unicode="&#xdc;" horiz-adv-x="1370" d="M238 377q0 70 12 153l117 836h186l-117 -836q-4 -33 -7 -63.5t-3 -58.5q0 -61 13.5 -112.5t46 -87.5t86 -55.5t130.5 -19.5q96 0 163 30t111 82t68.5 124.5t36.5 160.5l117 836h186l-116 -836q-41 -283 -180.5 -418t-407.5 -135q-231 0 -336.5 97.5t-105.5 302.5z M608 1547q0 47 35.5 82.5t83.5 35.5q39 0 65.5 -25.5t26.5 -64.5q0 -47 -37 -82t-84 -35q-37 0 -63.5 26t-26.5 63zM991 1547q0 47 37 82.5t84 35.5q39 0 64.5 -25.5t25.5 -64.5q0 -47 -36 -82t-83 -35q-37 0 -64.5 25t-27.5 64z" />
<glyph unicode="&#xdd;" horiz-adv-x="1171" d="M217 1366h211l258 -659l444 659h205l-579 -823l-76 -543h-186l73 537zM699 1491l315 247l164 -86l-387 -225z" />
<glyph unicode="&#xde;" horiz-adv-x="1230" d="M176 0l191 1366h182l-35 -250q70 4 127 7t121 3q102 0 187 -16t146.5 -55t96.5 -105t35 -164q0 -240 -132 -381t-386 -141h-312l-37 -264h-184zM418 414h272q174 0 262 82t88 270q0 121 -74.5 164t-228.5 43q-61 0 -118.5 -3t-124.5 -9z" />
<glyph unicode="&#xdf;" horiz-adv-x="1089" d="M156 0l155 1108q27 182 130.5 259t283.5 77q61 0 116.5 -13.5t98.5 -44t67.5 -78.5t24.5 -118t-20.5 -126t-55 -103.5t-83 -86t-103.5 -73.5v-8q61 -29 113.5 -66t90.5 -86t60.5 -108.5t22.5 -129.5q0 -90 -30 -167.5t-85 -135t-132 -91.5t-169 -34q-18 0 -43 2.5 t-50.5 5.5t-49 8t-41.5 13l47 131q57 -23 117 -22q125 0 189 78.5t64 207.5q0 63 -24.5 109.5t-63 81.5t-90 60.5t-102.5 43.5l-6 117q49 31 99 66.5t90 79.5t65.5 96.5t25.5 117.5q0 78 -45 110t-118 32q-109 0 -156 -55.5t-62 -157.5l-153 -1100h-178z" />
<glyph unicode="&#xe0;" horiz-adv-x="1155" d="M170 373q0 109 23.5 228.5t81 220t152.5 166t241 65.5q92 0 162.5 -30t115.5 -114h8l35 119h154l-144 -1028h-149l10 158h-8q-59 -92 -145 -136.5t-191 -44.5q-96 0 -161.5 31t-106.5 84t-59.5 125t-18.5 156zM352 385q0 -55 10.5 -104.5t36 -87t69.5 -60t112 -22.5 q66 0 118 23.5t89.5 63.5t60 95t33.5 117l34 258q16 123 -47 184t-180 61q-106 0 -171.5 -51t-102.5 -129t-49.5 -171t-12.5 -177zM434 1380l193 82l242 -243l-109 -62z" />
<glyph unicode="&#xe1;" horiz-adv-x="1155" d="M170 373q0 109 23.5 228.5t81 220t152.5 166t241 65.5q92 0 162.5 -30t115.5 -114h8l35 119h154l-144 -1028h-149l10 158h-8q-59 -92 -145 -136.5t-191 -44.5q-96 0 -161.5 31t-106.5 84t-59.5 125t-18.5 156zM352 385q0 -55 10.5 -104.5t36 -87t69.5 -60t112 -22.5 q66 0 118 23.5t89.5 63.5t60 95t33.5 117l34 258q16 123 -47 184t-180 61q-106 0 -171.5 -51t-102.5 -129t-49.5 -171t-12.5 -177zM562 1221l315 247l164 -86l-387 -225z" />
<glyph unicode="&#xe2;" horiz-adv-x="1155" d="M170 373q0 109 23.5 228.5t81 220t152.5 166t241 65.5q92 0 162.5 -30t115.5 -114h8l35 119h154l-144 -1028h-149l10 158h-8q-59 -92 -145 -136.5t-191 -44.5q-96 0 -161.5 31t-106.5 84t-59.5 125t-18.5 156zM352 385q0 -55 10.5 -104.5t36 -87t69.5 -60t112 -22.5 q66 0 118 23.5t89.5 63.5t60 95t33.5 117l34 258q16 123 -47 184t-180 61q-106 0 -171.5 -51t-102.5 -129t-49.5 -171t-12.5 -177zM391 1253l344 201l295 -201l-92 -102l-219 162l-266 -162z" />
<glyph unicode="&#xe3;" horiz-adv-x="1155" d="M170 373q0 109 23.5 228.5t81 220t152.5 166t241 65.5q92 0 162.5 -30t115.5 -114h8l35 119h154l-144 -1028h-149l10 158h-8q-59 -92 -145 -136.5t-191 -44.5q-96 0 -161.5 31t-106.5 84t-59.5 125t-18.5 156zM352 385q0 -55 10.5 -104.5t36 -87t69.5 -60t112 -22.5 q66 0 118 23.5t89.5 63.5t60 95t33.5 117l34 258q16 123 -47 184t-180 61q-106 0 -171.5 -51t-102.5 -129t-49.5 -171t-12.5 -177zM359 1235q49 84 100 114.5t111 30.5q37 0 72.5 -13t70.5 -28.5t67.5 -28t61.5 -12.5q35 0 65.5 17.5t53.5 64.5l84 -67q-33 -74 -91.5 -110 t-117.5 -36q-37 0 -73 12.5t-70.5 28t-66.5 28.5t-60 13q-35 0 -67 -16t-60 -68z" />
<glyph unicode="&#xe4;" horiz-adv-x="1155" d="M170 373q0 109 23.5 228.5t81 220t152.5 166t241 65.5q92 0 162.5 -30t115.5 -114h8l35 119h154l-144 -1028h-149l10 158h-8q-59 -92 -145 -136.5t-191 -44.5q-96 0 -161.5 31t-106.5 84t-59.5 125t-18.5 156zM352 385q0 -55 10.5 -104.5t36 -87t69.5 -60t112 -22.5 q66 0 118 23.5t89.5 63.5t60 95t33.5 117l34 258q16 123 -47 184t-180 61q-106 0 -171.5 -51t-102.5 -129t-49.5 -171t-12.5 -177zM424 1260q0 47 35.5 82.5t83.5 35.5q39 0 65.5 -25.5t26.5 -64.5q0 -47 -37 -82t-84 -35q-37 0 -63.5 26t-26.5 63zM807 1260q0 47 37 82.5 t84 35.5q39 0 64.5 -25.5t25.5 -64.5q0 -47 -36 -82t-83 -35q-37 0 -64.5 25t-27.5 64z" />
<glyph unicode="&#xe5;" horiz-adv-x="1155" d="M170 373q0 109 23.5 228.5t81 220t152.5 166t241 65.5q92 0 162.5 -30t115.5 -114h8l35 119h154l-144 -1028h-149l10 158h-8q-59 -92 -145 -136.5t-191 -44.5q-96 0 -161.5 31t-106.5 84t-59.5 125t-18.5 156zM352 385q0 -55 10.5 -104.5t36 -87t69.5 -60t112 -22.5 q66 0 118 23.5t89.5 63.5t60 95t33.5 117l34 258q16 123 -47 184t-180 61q-106 0 -171.5 -51t-102.5 -129t-49.5 -171t-12.5 -177zM536 1309q0 45 17.5 84t46.5 67.5t68.5 44t84.5 15.5q78 0 128.5 -46t50.5 -120q0 -90 -62.5 -148.5t-150.5 -58.5q-74 0 -128.5 44 t-54.5 118zM626 1315q0 -43 26 -67.5t67 -24.5q51 0 87 32.5t36 94.5q0 45 -26 69.5t-67 24.5q-53 0 -88 -35t-35 -94z" />
<glyph unicode="&#xe6;" horiz-adv-x="1757" d="M127 233q0 141 69.5 225.5t175 129.5t229.5 58t233 13l8 62t4 61q0 82 -45 106.5t-117 24.5q-98 0 -200.5 -33.5t-188.5 -84.5l-45 131q113 55 224.5 91t238.5 36q47 0 93 -7.5t85 -26t65.5 -52t36.5 -86.5q72 84 165 129t204 45q94 0 164.5 -30t117 -83t70 -128 t23.5 -165q0 -47 -5.5 -97t-17.5 -97h-723q-2 -16 -3 -35t-1 -35q0 -129 68.5 -197.5t197.5 -68.5q86 0 166 28.5t150 75.5l47 -125q-86 -55 -183.5 -88t-201.5 -33q-111 0 -205 38t-154 130q-100 -80 -212.5 -124t-243.5 -44q-61 0 -113.5 15.5t-91.5 48.5t-61.5 80 t-22.5 112zM307 264q0 -72 45 -113.5t125 -41.5q102 0 192.5 45t151.5 102q-18 57 -18 123q0 43 5 85t11 83q-72 0 -160 -8.5t-166.5 -37t-132 -85t-53.5 -152.5zM1006 580h563q2 18 3 36.5t1 36.5q0 117 -53.5 191t-180.5 74q-74 0 -131 -28t-99 -75t-68.5 -107.5 t-34.5 -127.5z" />
<glyph unicode="&#xe7;" horiz-adv-x="1013" d="M170 397q0 129 38 248t110.5 210t179 144.5t245.5 53.5q94 0 181.5 -34t156.5 -95l-96 -125q-98 113 -256 112q-100 0 -172 -45t-117 -115.5t-65.5 -159.5t-20.5 -175q0 -131 61.5 -214t202.5 -83q88 0 159 28.5t141 81.5l45 -125q-82 -55 -167 -88.5t-184 -38.5l-69 -94 q16 4 31.5 6t31.5 2q49 0 87 -27t38 -95q0 -102 -65.5 -149.5t-157.5 -47.5q-49 0 -90 13.5t-78 35.5l41 72q29 -16 60.5 -27.5t66.5 -11.5q49 0 84 21.5t35 76.5q0 39 -29 53.5t-63 14.5q-43 0 -78 -15l-33 31l96 146q-170 16 -260 123.5t-90 291.5z" />
<glyph unicode="&#xe8;" horiz-adv-x="1112" d="M172 393q0 125 34 244t102.5 212t173 149.5t245.5 56.5q180 0 272.5 -111t92.5 -295q0 -47 -6.5 -99t-14.5 -93h-721q-6 -43 -6 -80q0 -123 65.5 -192.5t200.5 -69.5q78 0 154 23.5t168 82.5l45 -123q-102 -66 -197.5 -93.5t-193.5 -27.5q-209 0 -311.5 111t-102.5 305z M367 578h557q6 43 6 84q0 55 -12.5 102t-38 83t-67.5 56.5t-101 20.5q-84 0 -145.5 -31t-102.5 -80t-64.5 -111.5t-31.5 -123.5zM458 1380l193 82l242 -243l-109 -62z" />
<glyph unicode="&#xe9;" horiz-adv-x="1112" d="M172 393q0 125 34 244t102.5 212t173 149.5t245.5 56.5q180 0 272.5 -111t92.5 -295q0 -47 -6.5 -99t-14.5 -93h-721q-6 -43 -6 -80q0 -123 65.5 -192.5t200.5 -69.5q78 0 154 23.5t168 82.5l45 -123q-102 -66 -197.5 -93.5t-193.5 -27.5q-209 0 -311.5 111t-102.5 305z M367 578h557q6 43 6 84q0 55 -12.5 102t-38 83t-67.5 56.5t-101 20.5q-84 0 -145.5 -31t-102.5 -80t-64.5 -111.5t-31.5 -123.5zM621 1221l315 247l164 -86l-387 -225z" />
<glyph unicode="&#xea;" horiz-adv-x="1112" d="M172 393q0 125 34 244t102.5 212t173 149.5t245.5 56.5q180 0 272.5 -111t92.5 -295q0 -47 -6.5 -99t-14.5 -93h-721q-6 -43 -6 -80q0 -123 65.5 -192.5t200.5 -69.5q78 0 154 23.5t168 82.5l45 -123q-102 -66 -197.5 -93.5t-193.5 -27.5q-209 0 -311.5 111t-102.5 305z M367 578h557q6 43 6 84q0 55 -12.5 102t-38 83t-67.5 56.5t-101 20.5q-84 0 -145.5 -31t-102.5 -80t-64.5 -111.5t-31.5 -123.5zM434 1255l344 201l295 -201l-92 -102l-219 162l-266 -162z" />
<glyph unicode="&#xeb;" horiz-adv-x="1112" d="M172 393q0 125 34 244t102.5 212t173 149.5t245.5 56.5q180 0 272.5 -111t92.5 -295q0 -47 -6.5 -99t-14.5 -93h-721q-6 -43 -6 -80q0 -123 65.5 -192.5t200.5 -69.5q78 0 154 23.5t168 82.5l45 -123q-102 -66 -197.5 -93.5t-193.5 -27.5q-209 0 -311.5 111t-102.5 305z M367 578h557q6 43 6 84q0 55 -12.5 102t-38 83t-67.5 56.5t-101 20.5q-84 0 -145.5 -31t-102.5 -80t-64.5 -111.5t-31.5 -123.5zM461 1260q0 47 35.5 82.5t83.5 35.5q39 0 65.5 -25.5t26.5 -64.5q0 -47 -37 -82t-84 -35q-37 0 -63.5 26t-26.5 63zM844 1260q0 47 37 82.5 t84 35.5q39 0 64.5 -25.5t25.5 -64.5q0 -47 -36 -82t-83 -35q-37 0 -64.5 25t-27.5 64z" />
<glyph unicode="&#xec;" horiz-adv-x="489" d="M127 1380l193 82l242 -243l-109 -62zM156 0l143 1028h178l-143 -1028h-178z" />
<glyph unicode="&#xed;" horiz-adv-x="489" d="M156 0l143 1028h178l-143 -1028h-178zM283 1221l315 247l164 -86l-387 -225z" />
<glyph unicode="&#xee;" horiz-adv-x="489" d="M108 1255l344 201l295 -201l-92 -102l-219 162l-266 -162zM156 0l143 1028h178l-143 -1028h-178z" />
<glyph unicode="&#xef;" horiz-adv-x="489" d="M131 1260q0 47 35.5 82.5t83.5 35.5q39 0 65.5 -25.5t26.5 -64.5q0 -47 -37 -82t-84 -35q-37 0 -63.5 26t-26.5 63zM156 0l143 1028h178l-143 -1028h-178zM514 1260q0 47 37 82.5t84 35.5q39 0 64.5 -25.5t25.5 -64.5q0 -47 -36 -82t-83 -35q-37 0 -64.5 25t-27.5 64z " />
<glyph unicode="&#xf0;" horiz-adv-x="1202" d="M201 379q0 119 27.5 229.5t87 196.5t153.5 137t227 51q84 0 153 -25.5t109 -103.5h9q-2 86 -24.5 171t-57.5 161l-264 -123l-37 105l250 116q-23 35 -49.5 68t-55.5 61l162 43q25 -27 47.5 -52t44.5 -54l174 90l37 -107l-158 -81q57 -109 78 -237t21 -251 q0 -141 -24 -282.5t-86 -255t-171 -185t-279 -71.5q-190 0 -282 108.5t-92 290.5zM379 377q0 -119 52 -189.5t179 -70.5q102 0 167 49t101.5 125t51 167t14.5 173q0 121 -55 178t-178 57q-88 0 -145.5 -29.5t-93.5 -79.5t-54.5 -117t-28.5 -142q-4 -31 -7 -60.5t-3 -60.5z " />
<glyph unicode="&#xf1;" horiz-adv-x="1155" d="M156 0l143 1028h150v-129h8q121 154 334 154q88 0 147 -19.5t95 -55.5t51.5 -88t15.5 -120q0 -29 -3 -60.5t-7 -66.5l-91 -643h-178l84 602q4 33 7 62.5t3 56.5q0 41 -9 74.5t-30.5 57.5t-58.5 36t-94 12q-129 0 -206 -66.5t-93 -189.5l-90 -645h-178zM420 1235 q49 84 100 114.5t111 30.5q37 0 72.5 -13t70.5 -28.5t67.5 -28t61.5 -12.5q35 0 65.5 17.5t53.5 64.5l84 -67q-33 -74 -91.5 -110t-117.5 -36q-37 0 -73 12.5t-70.5 28t-66.5 28.5t-60 13q-35 0 -67 -16t-60 -68z" />
<glyph unicode="&#xf2;" horiz-adv-x="1175" d="M172 393q0 131 34 250t103.5 210t175 145.5t248.5 54.5q205 0 309.5 -112t104.5 -312q0 -129 -36 -248t-106.5 -208t-176 -142.5t-246.5 -53.5q-203 0 -306.5 108.5t-103.5 307.5zM354 395q0 -127 55.5 -203.5t192.5 -76.5q104 0 175 48t112 122.5t58.5 166t17.5 179.5 q0 127 -56.5 203.5t-193.5 76.5q-106 0 -176 -48t-111 -122.5t-57.5 -166t-16.5 -179.5zM475 1380l193 82l242 -243l-109 -62z" />
<glyph unicode="&#xf3;" horiz-adv-x="1175" d="M172 393q0 131 34 250t103.5 210t175 145.5t248.5 54.5q205 0 309.5 -112t104.5 -312q0 -129 -36 -248t-106.5 -208t-176 -142.5t-246.5 -53.5q-203 0 -306.5 108.5t-103.5 307.5zM354 395q0 -127 55.5 -203.5t192.5 -76.5q104 0 175 48t112 122.5t58.5 166t17.5 179.5 q0 127 -56.5 203.5t-193.5 76.5q-106 0 -176 -48t-111 -122.5t-57.5 -166t-16.5 -179.5zM629 1221l315 247l164 -86l-387 -225z" />
<glyph unicode="&#xf4;" horiz-adv-x="1175" d="M172 393q0 131 34 250t103.5 210t175 145.5t248.5 54.5q205 0 309.5 -112t104.5 -312q0 -129 -36 -248t-106.5 -208t-176 -142.5t-246.5 -53.5q-203 0 -306.5 108.5t-103.5 307.5zM354 395q0 -127 55.5 -203.5t192.5 -76.5q104 0 175 48t112 122.5t58.5 166t17.5 179.5 q0 127 -56.5 203.5t-193.5 76.5q-106 0 -176 -48t-111 -122.5t-57.5 -166t-16.5 -179.5zM446 1255l344 201l295 -201l-92 -102l-219 162l-266 -162z" />
<glyph unicode="&#xf5;" horiz-adv-x="1175" d="M172 393q0 131 34 250t103.5 210t175 145.5t248.5 54.5q205 0 309.5 -112t104.5 -312q0 -129 -36 -248t-106.5 -208t-176 -142.5t-246.5 -53.5q-203 0 -306.5 108.5t-103.5 307.5zM354 395q0 -127 55.5 -203.5t192.5 -76.5q104 0 175 48t112 122.5t58.5 166t17.5 179.5 q0 127 -56.5 203.5t-193.5 76.5q-106 0 -176 -48t-111 -122.5t-57.5 -166t-16.5 -179.5zM426 1235q49 84 100 114.5t111 30.5q37 0 72.5 -13t70.5 -28.5t67.5 -28t61.5 -12.5q35 0 65.5 17.5t53.5 64.5l84 -67q-33 -74 -91.5 -110t-117.5 -36q-37 0 -73 12.5t-70.5 28 t-66.5 28.5t-60 13q-35 0 -67 -16t-60 -68z" />
<glyph unicode="&#xf6;" horiz-adv-x="1175" d="M172 393q0 131 34 250t103.5 210t175 145.5t248.5 54.5q205 0 309.5 -112t104.5 -312q0 -129 -36 -248t-106.5 -208t-176 -142.5t-246.5 -53.5q-203 0 -306.5 108.5t-103.5 307.5zM354 395q0 -127 55.5 -203.5t192.5 -76.5q104 0 175 48t112 122.5t58.5 166t17.5 179.5 q0 127 -56.5 203.5t-193.5 76.5q-106 0 -176 -48t-111 -122.5t-57.5 -166t-16.5 -179.5zM473 1260q0 47 35.5 82.5t83.5 35.5q39 0 65.5 -25.5t26.5 -64.5q0 -47 -37 -82t-84 -35q-37 0 -63.5 26t-26.5 63zM856 1260q0 47 37 82.5t84 35.5q39 0 64.5 -25.5t25.5 -64.5 q0 -47 -36 -82t-83 -35q-37 0 -64.5 25t-27.5 64z" />
<glyph unicode="&#xf7;" d="M168 459l22 155h967l-22 -155h-967zM504 182q0 53 40 90t91 37q41 0 68.5 -26.5t27.5 -67.5q0 -51 -39 -90t-90 -39q-41 0 -69.5 27.5t-28.5 68.5zM600 864q0 53 40 90t91 37q41 0 68.5 -26.5t27.5 -67.5q0 -51 -38.5 -90t-90.5 -39q-41 0 -69.5 27.5t-28.5 68.5z" />
<glyph unicode="&#xf8;" horiz-adv-x="1175" d="M100 45l119 121q-47 88 -47 227q0 131 34 250t103.5 210t175 145.5t248.5 54.5q86 0 155.5 -21.5t121.5 -62.5l131 133l82 -80l-138 -139q61 -102 62 -254q0 -129 -36 -248t-106.5 -208t-176 -142.5t-246.5 -53.5q-188 0 -297 99l-111 -113zM354 395q0 -47 6 -86l533 541 q-31 29 -75 45t-103 16q-106 0 -176 -48t-111 -122.5t-57.5 -166t-16.5 -179.5zM406 197q29 -39 76.5 -60.5t119.5 -21.5q104 0 175 48t112 122.5t58.5 166t17.5 179.5q0 33 -4.5 61.5t-10.5 55.5z" />
<glyph unicode="&#xf9;" horiz-adv-x="1136" d="M199 262q0 29 3 61.5t7 69.5l90 635h178l-76 -543q-8 -49 -12 -92t-4 -80q0 -92 38 -139t144 -47q143 0 209 73.5t82 196.5l88 631h178l-143 -1028h-150v129h-8q-47 -66 -126 -109t-201 -43q-70 0 -125.5 12.5t-93 45.5t-58 88t-20.5 139zM417 1380l193 82l242 -243 l-109 -62z" />
<glyph unicode="&#xfa;" horiz-adv-x="1136" d="M199 262q0 29 3 61.5t7 69.5l90 635h178l-76 -543q-8 -49 -12 -92t-4 -80q0 -92 38 -139t144 -47q143 0 209 73.5t82 196.5l88 631h178l-143 -1028h-150v129h-8q-47 -66 -126 -109t-201 -43q-70 0 -125.5 12.5t-93 45.5t-58 88t-20.5 139zM617 1221l315 247l164 -86 l-387 -225z" />
<glyph unicode="&#xfb;" horiz-adv-x="1136" d="M199 262q0 29 3 61.5t7 69.5l90 635h178l-76 -543q-8 -49 -12 -92t-4 -80q0 -92 38 -139t144 -47q143 0 209 73.5t82 196.5l88 631h178l-143 -1028h-150v129h-8q-47 -66 -126 -109t-201 -43q-70 0 -125.5 12.5t-93 45.5t-58 88t-20.5 139zM432 1255l344 201l295 -201 l-92 -102l-219 162l-266 -162z" />
<glyph unicode="&#xfc;" horiz-adv-x="1136" d="M199 262q0 29 3 61.5t7 69.5l90 635h178l-76 -543q-8 -49 -12 -92t-4 -80q0 -92 38 -139t144 -47q143 0 209 73.5t82 196.5l88 631h178l-143 -1028h-150v129h-8q-47 -66 -126 -109t-201 -43q-70 0 -125.5 12.5t-93 45.5t-58 88t-20.5 139zM461 1260q0 47 35.5 82.5 t83.5 35.5q39 0 65.5 -25.5t26.5 -64.5q0 -47 -37 -82t-84 -35q-37 0 -63.5 26t-26.5 63zM844 1260q0 47 37 82.5t84 35.5q39 0 64.5 -25.5t25.5 -64.5q0 -47 -36 -82t-83 -35q-37 0 -64.5 25t-27.5 64z" />
<glyph unicode="&#xfd;" horiz-adv-x="1013" d="M25 -457l22 152q16 -4 35.5 -5t52.5 -1q39 0 66.5 9t52.5 32.5t49.5 64.5t56.5 107l68 135l-248 991h193l172 -801h8l377 801h190l-596 -1161q-49 -98 -91 -161.5t-85 -101.5t-93 -52.5t-120 -14.5q-43 0 -110 6zM578 1221l315 247l164 -86l-387 -225z" />
<glyph unicode="&#xfe;" horiz-adv-x="1155" d="M92 -451l264 1885h166l-73 -527h8q70 82 148.5 114t172.5 32q96 0 163 -30t109 -82t60 -124t18 -158q0 -117 -28.5 -237.5t-90 -219t-158.5 -160.5t-237 -62q-100 0 -161.5 39.5t-100.5 107.5l-4 2l-80 -580h-176zM387 348q0 -106 54 -168.5t165 -62.5q100 0 167 51 t106 131t54 177t15 188q0 55 -11 101t-37 79t-70 51t-111 18q-123 0 -200 -61t-93 -184l-35 -254q-4 -16 -4 -32.5v-33.5z" />
<glyph unicode="&#xff;" horiz-adv-x="1013" d="M25 -457l22 152q16 -4 35.5 -5t52.5 -1q39 0 66.5 9t52.5 32.5t49.5 64.5t56.5 107l68 135l-248 991h193l172 -801h8l377 801h190l-596 -1161q-49 -98 -91 -161.5t-85 -101.5t-93 -52.5t-120 -14.5q-43 0 -110 6zM404 1260q0 47 35.5 82.5t83.5 35.5q39 0 65.5 -25.5 t26.5 -64.5q0 -47 -37 -82t-84 -35q-37 0 -63.5 26t-26.5 63zM787 1260q0 47 37 82.5t84 35.5q39 0 64.5 -25.5t25.5 -64.5q0 -47 -36 -82t-83 -35q-37 0 -64.5 25t-27.5 64z" />
<glyph unicode="&#x152;" horiz-adv-x="1830" d="M215 516q0 156 40 311.5t126 280.5t224 203t335 78q55 0 113.5 -6.5t103.5 -16.5h764l-23 -158h-577l-57 -407h518l-23 -160h-518l-67 -485h600l-21 -156h-786q-47 -10 -108.5 -16.5t-117.5 -6.5q-141 0 -240.5 39t-163 111t-93 170t-29.5 219zM410 522q0 -82 16 -153.5 t58 -125t111 -84t173 -30.5q63 0 120.5 9t100.5 24l146 1040q-39 16 -93.5 25.5t-117.5 9.5q-147 0 -245.5 -63.5t-158 -166t-85 -230.5t-25.5 -255z" />
<glyph unicode="&#x153;" horiz-adv-x="1898" d="M170 389q0 131 35 251t105.5 212t176 146.5t248.5 54.5q121 0 218.5 -51.5t138.5 -172.5q72 104 177 165t234 61q94 0 165 -31t117 -85t68.5 -130t22.5 -166q0 -47 -5 -93t-13 -93h-728q-2 -16 -3 -35t-1 -35q0 -133 69 -200.5t202 -67.5q86 0 164.5 29.5t148.5 76.5 l45 -127q-86 -55 -182 -88t-201 -33q-125 0 -220 51.5t-144 172.5q-74 -117 -181.5 -170.5t-242.5 -53.5q-201 0 -307.5 104.5t-106.5 307.5zM354 397q0 -129 57.5 -203.5t192.5 -74.5q104 0 174 47t111 121.5t57.5 166t16.5 179.5q0 127 -56.5 199.5t-191.5 72.5 q-104 0 -174 -46t-112 -119.5t-58.5 -164t-16.5 -178.5zM1147 580h563q2 14 3 31.5t1 33.5q0 57 -12 106.5t-39 86t-71 58.5t-107 22q-74 0 -132.5 -28t-100.5 -74t-68.5 -107.5t-36.5 -128.5z" />
<glyph unicode="&#x178;" horiz-adv-x="1171" d="M217 1366h211l258 -659l444 659h205l-579 -823l-76 -543h-186l73 537zM512 1547q0 47 35.5 82.5t83.5 35.5q39 0 65.5 -25.5t26.5 -64.5q0 -47 -37 -82t-84 -35q-37 0 -63.5 26t-26.5 63zM895 1547q0 47 37 82.5t84 35.5q39 0 64.5 -25.5t25.5 -64.5q0 -47 -36 -82 t-83 -35q-37 0 -64.5 25t-27.5 64z" />
<glyph unicode="&#x2c6;" horiz-adv-x="733" d="M223 1255l344 201l295 -201l-92 -102l-219 162l-266 -162z" />
<glyph unicode="&#x2dc;" horiz-adv-x="733" d="M203 1235q49 84 100 114.5t111 30.5q37 0 72.5 -13t70.5 -28.5t67.5 -28t61.5 -12.5q35 0 65.5 17.5t53.5 64.5l84 -67q-33 -74 -91.5 -110t-117.5 -36q-37 0 -73 12.5t-70.5 28t-66.5 28.5t-60 13q-35 0 -67 -16t-60 -68z" />
<glyph unicode="&#x2000;" horiz-adv-x="879" />
<glyph unicode="&#x2001;" horiz-adv-x="1759" />
<glyph unicode="&#x2002;" horiz-adv-x="879" />
<glyph unicode="&#x2003;" horiz-adv-x="1759" />
<glyph unicode="&#x2004;" horiz-adv-x="586" />
<glyph unicode="&#x2005;" horiz-adv-x="439" />
<glyph unicode="&#x2006;" horiz-adv-x="293" />
<glyph unicode="&#x2007;" horiz-adv-x="293" />
<glyph unicode="&#x2008;" horiz-adv-x="219" />
<glyph unicode="&#x2009;" horiz-adv-x="351" />
<glyph unicode="&#x200a;" horiz-adv-x="97" />
<glyph unicode="&#x2010;" horiz-adv-x="770" d="M168 449l25 165h557l-25 -165h-557z" />
<glyph unicode="&#x2011;" horiz-adv-x="770" d="M168 449l25 165h557l-25 -165h-557z" />
<glyph unicode="&#x2012;" horiz-adv-x="770" d="M168 449l25 165h557l-25 -165h-557z" />
<glyph unicode="&#x2013;" horiz-adv-x="1224" d="M164 463l20 139h1024l-20 -139h-1024z" />
<glyph unicode="&#x2014;" horiz-adv-x="1785" d="M164 465l20 135h1585l-20 -135h-1585z" />
<glyph unicode="&#x2018;" horiz-adv-x="440" d="M180 1006l234 428h129l-144 -428h-219z" />
<glyph unicode="&#x2019;" horiz-adv-x="440" d="M240 1006l143 428h219l-235 -428h-127z" />
<glyph unicode="&#x201a;" horiz-adv-x="440" d="M53 -313l144 428h219l-236 -428h-127z" />
<glyph unicode="&#x201c;" horiz-adv-x="825" d="M180 1006l236 428h127l-144 -428h-219zM567 1006l234 428h127l-144 -428h-217z" />
<glyph unicode="&#x201d;" horiz-adv-x="825" d="M240 1006l143 428h219l-235 -428h-127zM625 1006l143 428h219l-235 -428h-127z" />
<glyph unicode="&#x201e;" horiz-adv-x="825" d="M53 -315l144 430h219l-236 -430h-127zM438 -315l144 430h219l-236 -430h-127z" />
<glyph unicode="&#x2022;" horiz-adv-x="1067" d="M219 674q0 66 24.5 123t66.5 99t99.5 66.5t122.5 24.5q66 0 123.5 -24.5t100.5 -66.5t67.5 -99t24.5 -123t-24.5 -123t-67.5 -99t-100.5 -67t-123.5 -25t-123 25t-99 67t-66.5 99t-24.5 123z" />
<glyph unicode="&#x2026;" horiz-adv-x="1435" d="M106 70q0 59 40 93t98 34q43 0 75.5 -23t32.5 -70q0 -59 -42 -91.5t-97 -32.5q-41 0 -74 21.5t-33 68.5zM606 70q0 59 40 93t97 34q43 0 76 -23t33 -70q0 -59 -42 -91.5t-95 -32.5q-43 0 -76 21.5t-33 68.5zM1108 70q0 59 40 93t97 34q43 0 76 -23t33 -70 q0 -59 -43 -91.5t-97 -32.5q-41 0 -73.5 21.5t-32.5 68.5z" />
<glyph unicode="&#x202f;" horiz-adv-x="351" />
<glyph unicode="&#x2039;" horiz-adv-x="538" d="M127 627l342 401l113 -67l-295 -336l202 -330l-133 -70z" />
<glyph unicode="&#x203a;" horiz-adv-x="538" d="M133 295l291 330l-199 336l133 67l230 -401l-342 -402z" />
<glyph unicode="&#x205f;" horiz-adv-x="439" />
<glyph unicode="&#x20ac;" d="M109 477l18 109h143q4 47 9.5 95t17.5 95h-145l16 109h151q31 111 73 203t105.5 159.5t152.5 104.5t216 37q131 0 223.5 -50.5t170.5 -154.5l-127 -111q-51 84 -118 124t-165 40q-88 0 -146.5 -26.5t-97.5 -73.5t-63.5 -111.5t-42.5 -140.5h544l-14 -109h-549 q-10 -47 -16 -95t-10 -95h549l-17 -109h-541v-39q0 -66 9.5 -122t37 -98t74.5 -66.5t125 -24.5q119 0 202 54.5t157 140.5l88 -113q-98 -104 -211 -169t-262 -65q-127 0 -205 37t-123 103.5t-60.5 159t-15.5 202.5h-153z" />
<glyph unicode="&#x2122;" horiz-adv-x="1306" d="M285 1343l12 91h430l-12 -91h-162l-55 -389h-107l55 389h-161zM770 954l68 480h92l139 -252l207 252h94l-67 -480h-103l43 299l-199 -233l-131 233l-43 -299h-100z" />
<glyph unicode="&#x25fc;" horiz-adv-x="1024" d="M0 0v1024h1024v-1024h-1024z" />
</font>
</defs>
</svg>
