<?xml version="1.0" standalone="no"?>
<!DOCTYPE svg PUBLIC "-//W3C//DTD SVG 1.1//EN" "http://www.w3.org/Graphics/SVG/1.1/DTD/svg11.dtd" >
<svg xmlns="http://www.w3.org/2000/svg" xmlns:xlink="http://www.w3.org/1999/xlink" version="1.1">
<metadata></metadata>
<defs>
<font id="clearviewatt_bdregular" horiz-adv-x="1255" >
<font-face units-per-em="2048" ascent="1536" descent="-512" />
<missing-glyph horiz-adv-x="614" />
<glyph horiz-adv-x="0" />
<glyph horiz-adv-x="682" />
<glyph unicode=" "  horiz-adv-x="614" />
<glyph unicode="&#x09;" horiz-adv-x="614" />
<glyph unicode="&#xa0;" horiz-adv-x="614" />
<glyph unicode="!" horiz-adv-x="612" d="M117 125q0 61 54 103t134 42q82 0 136.5 -42t54.5 -103q0 -66 -54.5 -108t-134.5 -42q-82 0 -136 42t-54 108zM150 1366h317q-10 -246 -22.5 -487.5t-18.5 -487.5h-238q-6 246 -17 487.5t-21 487.5z" />
<glyph unicode="&#x22;" horiz-adv-x="987" d="M96 1434h301l-59 -516h-193zM590 1434h301l-62 -516h-190z" />
<glyph unicode="#" horiz-adv-x="1435" d="M100 473l27 213h227l33 248h-227l28 209h230l33 223h223l-33 -223h258l33 223h223l-35 -223h209l-33 -209h-206l-39 -248h221l-29 -213h-225l-31 -242h-231l37 242h-246l-37 -242h-219l35 242h-226zM575 686h254l35 248h-256z" />
<glyph unicode="$" d="M125 207l121 199q106 -70 197.5 -101t183.5 -31q229 0 229 136q0 53 -34 82.5t-105 58.5l-293 102q-137 49 -202.5 129t-65.5 201q0 61 20.5 118.5t62.5 103.5t105.5 76t151.5 40v158h270v-160q78 -6 149.5 -27.5t155.5 -62.5l-104 -213q-78 45 -161 68.5t-173 23.5 q-94 0 -146.5 -26.5t-52.5 -82.5q0 -47 34 -73.5t132 -61.5l234 -80q156 -55 225 -140t69 -216q0 -55 -20.5 -114.5t-63.5 -109.5t-112.5 -86t-167.5 -46v-166h-270v168q-172 12 -369 133z" />
<glyph unicode="%" horiz-adv-x="1626" d="M82 1085q0 72 14.5 135.5t48 110.5t91 75t143.5 28t143.5 -28t91 -75t48 -110.5t14.5 -135.5t-14.5 -134t-48 -109t-91 -75t-143.5 -28t-143.5 28t-91 75t-48 109.5t-14.5 133.5zM258 0l946 1434h156l-944 -1434h-158zM262 1087q0 -98 22.5 -151t94.5 -53t93.5 55.5 t21.5 151.5q0 41 -4.5 77.5t-16.5 63t-34.5 42t-59.5 15.5q-39 0 -61.5 -15.5t-35 -43t-16.5 -63.5t-4 -79zM950 334q0 72 14.5 135t48.5 110.5t91 75t143 27.5t142.5 -27.5t91.5 -75t49 -110.5t14 -135t-14 -134.5t-49 -109.5t-91.5 -74.5t-142.5 -27.5t-143 27.5t-91 74.5 t-48.5 109.5t-14.5 134.5zM1130 336q0 -98 23 -151.5t94 -53.5q72 0 93.5 55.5t21.5 151.5q0 41 -4 78t-16.5 63.5t-35 42t-59.5 15.5q-39 0 -61.5 -15.5t-34.5 -43t-16.5 -63.5t-4.5 -79z" />
<glyph unicode="&#x26;" horiz-adv-x="1366" d="M117 395q0 70 21.5 128.5t58 105.5t86 85t106.5 66q-59 57 -101 131t-42 160q0 61 24.5 118.5t73.5 102.5t123 73t174 28t170 -27t113 -70t62.5 -98t19.5 -113q0 -115 -77 -191.5t-198 -141.5l256 -340q4 18 5 49t1 59q0 49 -5 102.5t-11 88.5h258q10 -45 15 -103.5 t5 -105.5q0 -72 -19 -147.5t-71 -133.5l166 -221h-305l-55 70q-66 -41 -150 -65.5t-188 -24.5q-115 0 -210 25.5t-162.5 76.5t-105.5 129t-38 184zM408 416q0 -92 58 -153.5t173 -61.5q53 0 97 13t73 32l-291 375q-47 -37 -78.5 -89.5t-31.5 -115.5zM512 1081q0 -47 36 -102 t77 -96q72 53 108.5 97t36.5 103q0 51 -26.5 88t-98.5 37q-63 0 -98 -32.5t-35 -94.5z" />
<glyph unicode="'" horiz-adv-x="493" d="M96 1434h301l-59 -516h-193z" />
<glyph unicode="(" horiz-adv-x="690" d="M78 651q0 137 20.5 257t58.5 232.5t90 222.5t118 224l204 -53q-100 -184 -161.5 -401.5t-61.5 -481.5q0 -262 62.5 -475t160.5 -405l-204 -56q-127 207 -207 434.5t-80 501.5z" />
<glyph unicode=")" horiz-adv-x="690" d="M78 -229q100 193 161.5 405.5t61.5 474.5q0 264 -60.5 481.5t-162.5 401.5l205 53q63 -115 116.5 -224.5t91 -222t58 -232.5t20.5 -257q0 -274 -79.5 -501.5t-206.5 -434.5z" />
<glyph unicode="*" horiz-adv-x="768" d="M33 1112l69 197l197 -95v3l-39 204h232l-37 -202v-2l194 92l70 -195l-221 -27v-4l155 -145l-178 -121l-96 187h-4l-99 -187l-176 121l154 145v4z" />
<glyph unicode="+" d="M92 432v242h414v416h248v-416h409v-242h-409v-422h-248v422h-414z" />
<glyph unicode="," horiz-adv-x="530" d="M41 -270l102 516h310l-215 -516h-197z" />
<glyph unicode="-" horiz-adv-x="784" d="M98 399v271h588v-271h-588z" />
<glyph unicode="." horiz-adv-x="530" d="M74 125q0 61 55 103t135 42t135.5 -42t55.5 -103q0 -66 -55.5 -108t-135.5 -42q-82 0 -136 42t-54 108z" />
<glyph unicode="/" horiz-adv-x="1173" d="M45 -236l811 1670h262l-813 -1670h-260z" />
<glyph unicode="0" d="M92 682q0 160 24.5 290t86 222t165 143.5t261.5 51.5t261 -51.5t163.5 -143.5t85 -222t24.5 -290t-24.5 -290t-85 -223t-164 -144.5t-260.5 -51.5q-158 0 -261.5 51.5t-165 143.5t-86 223t-24.5 291zM385 682q0 -98 6 -184t29.5 -148.5t73 -99.5t135.5 -37t134 36 t71.5 98.5t29.5 148.5t6 186q0 102 -6 188t-29.5 147.5t-71.5 96.5t-134 35t-135.5 -34t-73 -95.5t-29.5 -147.5t-6 -190z" />
<glyph unicode="1" d="M133 1098l442 270h230v-1124h317v-244h-925v244h325v803h-6l-268 -166z" />
<glyph unicode="2" d="M125 242q160 131 288 229t217 180t136 156t47 156q0 72 -45 126t-133 54q-94 0 -178 -43t-170 -135l-154 204q63 61 123.5 103.5t122 68t127 37t143.5 11.5q211 0 333 -102.5t122 -295.5q0 -86 -28.5 -173t-99.5 -177t-190.5 -188.5t-304.5 -208.5h649v-244h-962z" />
<glyph unicode="3" d="M117 137l127 207q82 -61 171 -98t169 -37q117 0 189.5 49t72.5 150q0 104 -53.5 142t-157.5 38h-201v231h98q125 0 199 38t74 124q0 29 -9.5 58.5t-33 53t-63.5 38t-103 14.5q-88 0 -170 -37t-160 -107l-129 213q63 47 121.5 81t116 54.5t119 30t135.5 9.5q100 0 186 -25 t148.5 -74t97.5 -122.5t35 -174.5q0 -98 -36 -163.5t-116 -108.5v-4q92 -27 142.5 -105.5t50.5 -197.5q0 -96 -32 -176t-98.5 -139.5t-169 -92.5t-241.5 -33q-133 0 -255 42t-224 122z" />
<glyph unicode="4" d="M82 489l604 875h297v-848h188v-244h-188v-272h-283v272h-550zM385 516h324v514h-9z" />
<glyph unicode="5" d="M125 113l117 219q76 -55 161.5 -89t176.5 -34q143 0 205.5 65.5t62.5 196.5q0 127 -63.5 184.5t-192.5 57.5q-82 0 -142.5 -31t-113.5 -80l-209 139l115 625h811v-246h-586l-64 -266l9 -4q63 49 127.5 70.5t140.5 21.5q211 0 330.5 -113.5t119.5 -357.5q0 -238 -137 -368 t-415 -130q-135 0 -242 32t-211 108z" />
<glyph unicode="6" d="M98 639q0 156 28 293t96.5 238.5t183 160t288.5 58.5q111 0 203 -26t188 -85l-129 -215q-66 43 -126 61.5t-134 18.5q-160 0 -238.5 -84t-80.5 -271h8q49 66 126 99t175 33q106 0 193.5 -32t149 -92.5t94 -144.5t32.5 -188q0 -115 -37 -206t-104.5 -153.5t-162.5 -96.5 t-210 -34q-274 0 -408.5 171t-134.5 495zM401 451q0 -121 63.5 -179.5t176.5 -58.5q225 0 225 244q0 117 -55 170t-168 53q-111 0 -176.5 -56.5t-65.5 -172.5z" />
<glyph unicode="7" d="M121 1122v244h964l48 -223q-137 -111 -220.5 -212.5t-128.5 -218t-59 -263t-14 -347.5v-102h-301v68q0 121 11 264t48 286.5t105.5 273.5t185.5 222v8h-639z" />
<glyph unicode="8" d="M102 410q0 121 50.5 194.5t162.5 118.5v8q-98 47 -137 115.5t-39 169.5q0 178 116 275.5t372 97.5q487 0 487 -373q0 -100 -39 -168t-137 -117v-8q111 -41 162 -116.5t51 -196.5q0 -90 -23.5 -169t-83 -138.5t-160 -94.5t-253.5 -35q-154 0 -256.5 35t-162.5 94.5 t-85 138t-25 169.5zM381 403q0 -115 61.5 -158.5t184.5 -43.5q121 0 180 44t59 161q0 111 -55 156.5t-184 45.5q-119 0 -182.5 -43t-63.5 -162zM420 991q0 -170 207 -170t207 170q0 86 -49.5 125t-157.5 39q-109 0 -158 -39t-49 -125z" />
<glyph unicode="9" d="M98 903q0 113 37 202t104.5 152.5t162 97.5t210.5 34q262 0 402.5 -165t140.5 -517q0 -348 -139 -539t-445 -191q-123 0 -219 33t-186 109l145 188q37 -29 68 -47t60.5 -29.5t61 -16.5t70.5 -5q150 0 224.5 85t78.5 294h-8q-57 -72 -126.5 -107t-172.5 -35 q-102 0 -187 30t-148.5 88.5t-98.5 143.5t-35 195zM387 909q0 -98 55.5 -159.5t171.5 -61.5q66 0 110 16.5t71.5 47t39 72.5t11.5 91q0 106 -51.5 170t-178.5 64q-117 0 -173 -64.5t-56 -175.5z" />
<glyph unicode=":" horiz-adv-x="530" d="M82 125q0 61 53 103t131 42t131.5 -42t53.5 -103q0 -66 -53.5 -108t-131.5 -42t-131 42t-53 108zM82 834q0 63 53 104t131 41t131.5 -41t53.5 -104t-53.5 -106.5t-131.5 -43.5t-131 43t-53 107z" />
<glyph unicode=";" horiz-adv-x="530" d="M41 -270l100 516h310l-213 -516h-197zM102 834q0 63 53.5 104t131.5 41t130 -41t52 -104t-52 -106.5t-130 -43.5t-131.5 43t-53.5 107z" />
<glyph unicode="&#x3c;" d="M92 430v244l1071 440v-256l-788 -303l788 -295v-250z" />
<glyph unicode="=" d="M92 207v239h1071v-239h-1071zM92 682v240h1071v-240h-1071z" />
<glyph unicode="&#x3e;" d="M92 10v250l789 295l-789 303v256l1071 -440v-244z" />
<glyph unicode="?" horiz-adv-x="1116" d="M76 1239q61 41 117.5 69.5t114 47t119.5 27t134 8.5q229 0 342 -101.5t113 -279.5q0 -127 -57.5 -216t-188.5 -151l-82 -39q-25 -12 -39 -20.5t-21 -20.5t-8.5 -30.5t-1.5 -51.5v-82h-278v146q0 45 5 76.5t20.5 54t42 41t69.5 39.5l88 41q43 20 76 38.5t54.5 39t31.5 47 t10 65.5q0 78 -57 120t-158 42q-182 0 -307 -117zM285 123q0 61 54 103t132 42q82 0 136.5 -42t54.5 -103q0 -63 -54.5 -105.5t-134.5 -42.5t-134 42t-54 106z" />
<glyph unicode="@" horiz-adv-x="1685" d="M117 477q0 168 59.5 301t166 227.5t249.5 144.5t313 50q147 0 270 -40t210.5 -115.5t135.5 -185.5t48 -247q0 -129 -33 -225t-88 -158.5t-125 -93.5t-143 -31q-59 0 -113.5 32t-67.5 97h-2q-41 -61 -109.5 -91.5t-142.5 -30.5q-123 0 -192.5 84t-69.5 233 q0 72 19.5 148.5t61.5 139t108.5 103.5t163.5 41q59 0 100 -19.5t76 -62.5h2l8 62h213l-74 -551q-4 -23 14.5 -40.5t53.5 -17.5q33 0 71.5 20.5t71.5 67t55.5 121t22.5 183.5q0 111 -40 196.5t-110.5 144t-169 88t-217.5 29.5q-139 0 -260 -37.5t-209 -113.5t-138 -190.5 t-50 -268.5q0 -274 150.5 -427t439.5 -153q260 0 430 127l67 -96q-117 -82 -244.5 -112.5t-275.5 -30.5q-145 0 -274 45t-225.5 133t-151.5 218t-55 302zM694 408q0 -137 123 -138q72 0 108 41t46 123l16 137q6 57 -14.5 92t-98.5 35q-92 0 -136 -69.5t-44 -220.5z" />
<glyph unicode="A" horiz-adv-x="1435" d="M25 0l526 1372h319l541 -1372h-319l-109 287h-539l-110 -287h-309zM514 528h393l-194 547h-8z" />
<glyph unicode="B" horiz-adv-x="1363" d="M150 0v1356q123 14 250.5 20t248.5 6q100 0 200.5 -13t180.5 -53t130 -111.5t50 -190.5q0 -127 -59 -192.5t-164 -98.5v-8q129 -27 201 -108.5t72 -235.5q0 -104 -35 -175t-97.5 -114t-151.5 -62.5t-200 -19.5h-626zM446 217q57 -4 105.5 -4h118.5q63 0 115.5 5t91 24.5 t60 56t21.5 102.5q0 70 -27.5 110t-70.5 59.5t-93 23.5t-95 4q-57 0 -117.5 -1t-108.5 -3v-377zM449 807q47 -4 94 -4h121q131 0 192.5 35.5t61.5 144.5q0 88 -56.5 129t-206.5 41q-23 0 -52.5 -1t-58 -3t-54 -3t-41.5 -3v-336z" />
<glyph unicode="C" horiz-adv-x="1361" d="M115 692q0 156 44 285t129 220t209 141.5t283 50.5q154 0 280 -54.5t243 -173.5l-183 -190q-78 86 -155.5 126t-171.5 40q-178 0 -272.5 -107.5t-94.5 -339.5q0 -215 86 -340t279 -125q98 0 185 42t173 128l162 -198q-119 -113 -247 -166.5t-276 -53.5q-176 0 -303 52.5 t-208.5 145.5t-121.5 225t-40 292z" />
<glyph unicode="D" horiz-adv-x="1441" d="M150 0v1356q100 10 223 18t252 8q154 0 282.5 -39.5t222 -123.5t145.5 -215.5t52 -313.5q0 -178 -49 -308t-140 -215t-222.5 -126t-294.5 -41h-471zM449 240q47 -2 78.5 -2h68.5q98 0 176 19t132 71.5t83 140.5t29 227q0 82 -14.5 163t-55.5 145.5t-115.5 104.5 t-197.5 40q-43 0 -91 -2t-93 -6v-901z" />
<glyph unicode="E" horiz-adv-x="1177" d="M150 0v1366h931v-250h-632v-289h573v-254h-573v-329h653v-244h-952z" />
<glyph unicode="F" horiz-adv-x="1136" d="M150 0v1366h913v-250h-614v-301h555v-252h-555v-563h-299z" />
<glyph unicode="G" horiz-adv-x="1499" d="M115 680q0 182 53 315t145.5 221.5t213 130.5t255.5 42q96 0 174 -20.5t140.5 -51.5t109.5 -68t82 -71l-180 -191q-78 78 -154.5 114t-158.5 36q-195 0 -282 -115t-87 -340q0 -111 19.5 -199t63.5 -149.5t115 -95t171 -33.5q139 0 224 66.5t85 211.5v45h-324v240h604 v-147q0 -154 -33.5 -274t-106.5 -202t-186.5 -123.5t-273.5 -41.5q-139 0 -262 41.5t-213 129t-142 219.5t-52 310z" />
<glyph unicode="H" horiz-adv-x="1421" d="M150 0v1366h299v-506h524v506h299v-1366h-299v580h-524v-580h-299z" />
<glyph unicode="I" horiz-adv-x="598" d="M150 0v1366h299v-1366h-299z" />
<glyph unicode="J" horiz-adv-x="1003" d="M63 109l134 219q61 -59 110 -80t111 -21q66 0 101.5 39t35.5 137v963h299v-899q0 -106 -15.5 -196.5t-60.5 -157t-124 -103.5t-208 -37q-117 0 -204.5 31t-178.5 105z" />
<glyph unicode="K" horiz-adv-x="1318" d="M150 0v1366h299v-569h8l420 569h376l-475 -596l527 -770h-381l-371 571l-104 -114v-457h-299z" />
<glyph unicode="L" horiz-adv-x="1112" d="M150 0v1366h299v-1114h579v-252h-878z" />
<glyph unicode="M" horiz-adv-x="1636" d="M150 0v1366h260l407 -582l408 582h262v-1366h-289v874h-8l-373 -528l-371 524h-8v-870h-288z" />
<glyph unicode="N" horiz-adv-x="1497" d="M150 0v1366h276l623 -856h10v856h289v-1366h-258l-641 870h-9v-870h-290z" />
<glyph unicode="O" horiz-adv-x="1581" d="M115 684q0 180 48 313t137 220.5t214 129.5t277 42q154 0 277.5 -42t212.5 -129.5t137 -220.5t48 -313q0 -182 -49 -315t-138 -219.5t-213 -128t-275 -41.5q-152 0 -276 41.5t-213 128t-138 219.5t-49 315zM426 684q0 -111 17.5 -197t60.5 -145t112.5 -90t174.5 -31 q104 0 173.5 31t112.5 90t60.5 145t17.5 197t-17.5 197t-60.5 145t-112.5 90t-173.5 31t-174 -31t-113 -89t-60.5 -145t-17.5 -198z" />
<glyph unicode="P" horiz-adv-x="1298" d="M150 0v1356q88 10 221 18t266 8q113 0 217 -19.5t184 -69.5t127 -135t47 -214q0 -102 -26.5 -186t-85 -144.5t-151.5 -94.5t-224 -34h-276v-485h-299zM449 719h213q51 0 98 5t82 26.5t56.5 65.5t21.5 120q0 117 -66 162t-215 45q-43 0 -89 -2t-101 -6v-416z" />
<glyph unicode="Q" horiz-adv-x="1581" d="M115 684q0 334 169 519.5t507 185.5t506.5 -185.5t168.5 -519.5q0 -170 -52 -318.5t-185 -254.5v-2q41 -10 66.5 -26.5l51 -33t58.5 -32t90 -21.5l-98 -207q-82 2 -150.5 33t-129 65.5t-113 64.5t-101.5 30q-25 0 -45 -3.5t-45 -3.5q-346 0 -522 181.5t-176 527.5z M426 684q0 -100 15.5 -185t55.5 -146.5t111.5 -96.5t182.5 -35q113 0 183 35t110 96.5t55.5 146.5t15.5 185t-14.5 185t-54 146.5t-111.5 95.5t-184 34q-115 0 -185.5 -34t-110.5 -95.5t-54.5 -146.5t-14.5 -185z" />
<glyph unicode="R" horiz-adv-x="1320" d="M150 0v1358q224 24 455 24h18q104 0 208.5 -16t187.5 -62.5t134 -127t51 -211.5q0 -129 -51 -224.5t-180 -148.5v-2q18 -6 30.5 -27.5t20.5 -40.5l227 -522h-313l-193 467q-12 31 -26 41t-47 10h-223v-518h-299zM449 752h221q53 0 98 8t77 29.5t50 59.5t18 99 q0 66 -23.5 106t-62.5 61.5t-89 27.5t-103 6q-49 0 -94 -3t-92 -7v-387z" />
<glyph unicode="S" horiz-adv-x="1230" d="M68 145l131 213q94 -61 193.5 -103t211.5 -42q41 0 83 6t76 23.5t55.5 48.5t21.5 82t-33 83.5t-85 57.5t-121 44.5t-138 43.5q-68 23 -131.5 53.5t-113.5 76.5t-79.5 111.5t-29.5 157.5q0 111 44 183.5t114.5 118t161.5 63.5t183 18q129 0 244 -30.5t229 -89.5l-106 -230 q-78 47 -168 79t-178 32q-45 0 -85 -5t-71 -20.5t-49 -41t-18 -66.5q0 -43 22.5 -72t62.5 -49.5t94 -36.5t116 -33q74 -20 150.5 -48t138 -76t100.5 -120t39 -178q0 -117 -41 -197.5t-111 -129.5t-164 -70.5t-199 -21.5q-160 0 -288.5 37.5t-261.5 127.5z" />
<glyph unicode="T" horiz-adv-x="1124" d="M29 1112v254h1067v-254h-385v-1112h-299v1112h-383z" />
<glyph unicode="U" horiz-adv-x="1435" d="M150 549v817h299v-772q0 -78 7 -144.5t33.5 -115.5t81 -77t146.5 -28q94 0 147.5 28t81 77t34.5 115.5t7 144.5v772h299v-817q0 -135 -29.5 -241.5t-97 -180.5t-176.5 -112t-266 -38q-158 0 -266.5 38t-175 112t-96 180.5t-29.5 241.5z" />
<glyph unicode="V" horiz-adv-x="1302" d="M31 1366h315l305 -1018h8l302 1018h311l-467 -1366h-307z" />
<glyph unicode="W" horiz-adv-x="2058" d="M43 1366h330l223 -1004h8l279 1004h303l264 -1004h8l240 1004h317l-401 -1366h-320l-264 969h-10l-268 -969h-334z" />
<glyph unicode="X" horiz-adv-x="1329" d="M20 0l472 711l-418 655h352l244 -430h8l256 430h348l-430 -674l457 -692h-348l-295 463h-9l-288 -463h-349z" />
<glyph unicode="Y" horiz-adv-x="1323" d="M4 1366h344l318 -567l323 567h330l-506 -829v-537h-299v530z" />
<glyph unicode="Z" horiz-adv-x="1243" d="M88 0v219l664 893h-631v254h1001v-219l-671 -903h704v-244h-1067z" />
<glyph unicode="[" horiz-adv-x="757" d="M145 -256v1860h492v-166h-240v-1530h240v-164h-492z" />
<glyph unicode="\" horiz-adv-x="1173" d="M57 1366h262l779 -1602h-260z" />
<glyph unicode="]" horiz-adv-x="757" d="M121 -92h239v1530h-239v166h491v-1860h-491v164z" />
<glyph unicode="^" horiz-adv-x="886" d="M-8 1217l440 227l447 -227l-129 -148l-314 162l-319 -162z" />
<glyph unicode="_" horiz-adv-x="991" d="M-16 -172h1024v-178h-1024v178z" />
<glyph unicode="`" horiz-adv-x="712" d="M45 1399l289 119l284 -269l-172 -92z" />
<glyph unicode="a" horiz-adv-x="1150" d="M74 289q0 127 64.5 201.5t160.5 112.5t209 48.5t209 10.5v63q-2 66 -42 91.5t-112 25.5q-100 0 -197.5 -30t-177.5 -77l-90 193q121 59 239 91t255 32q113 0 191.5 -22.5t128 -73t72 -129t22.5 -189.5v-361q0 -51 24.5 -77.5t65.5 -48.5l-183 -177q-53 14 -95 41t-64 82 h-4q-76 -59 -159 -90t-181 -31q-74 0 -135.5 20.5t-105.5 59.5t-69.5 97.5t-25.5 136.5zM354 309q0 -66 39 -103.5t105 -37.5t119 20.5t106 59.5v254q-51 0 -114.5 -4t-120 -22.5t-95.5 -57.5t-39 -109z" />
<glyph unicode="b" horiz-adv-x="1208" d="M129 0v1434h289v-519h8q41 80 111.5 108t154.5 28q115 0 197 -43t134 -116t75.5 -168.5t23.5 -199.5t-23.5 -202.5t-74.5 -175t-133 -123t-199 -46.5q-102 0 -183 40t-116 137h-8l-43 -154h-213zM414 422q0 -53 9 -96t31.5 -74t60.5 -47.5t95 -16.5q74 0 117 30t65.5 77 t29.5 106.5t7 118.5t-6 115.5t-28.5 99.5t-65.5 68.5t-115 25.5q-92 0 -146 -42t-54 -140v-225z" />
<glyph unicode="c" horiz-adv-x="1062" d="M86 504q0 127 37 228.5t106.5 172t169 108.5t226.5 38q104 0 206.5 -39t188.5 -109l-125 -186q-55 57 -116.5 83.5t-143.5 26.5q-72 0 -120 -24.5t-78.5 -66.5t-44 -98t-13.5 -120q0 -66 13.5 -124t44 -101t78.5 -68.5t120 -25.5q82 0 149.5 21.5t139.5 80.5l92 -190 q-92 -66 -187.5 -101t-212.5 -35q-248 0 -389 139.5t-141 389.5z" />
<glyph unicode="d" horiz-adv-x="1208" d="M86 524q0 104 23.5 199.5t76 168.5t133 116t197.5 43q80 0 148.5 -26t117.5 -93h9v502h288v-1434h-237l-19 137h-8q-45 -84 -125 -122t-174 -38q-117 0 -198.5 46.5t-133 122t-75 174t-23.5 204.5zM379 520q0 -59 7 -117.5t29.5 -106.5t65.5 -78t117 -30q115 0 156 64.5 t41 169.5v225q0 98 -54.5 140t-146.5 42q-74 0 -116 -25.5t-64.5 -68.5t-28.5 -99t-6 -116z" />
<glyph unicode="e" horiz-adv-x="1173" d="M86 512q0 147 45 250.5t118 168t165 93.5t188 29q115 0 205 -39t153.5 -111t96.5 -173t33 -224q0 -10 -1.5 -36t-3.5 -48h-714q0 -111 65.5 -169t200.5 -58q84 0 153.5 20.5t151.5 65.5l92 -193q-100 -59 -199.5 -85t-211.5 -26q-133 0 -233.5 38t-168 109t-101.5 169 t-34 219zM373 604h454q0 104 -54 174t-167 70q-61 0 -105 -19.5t-73 -53.5t-42 -78t-13 -93z" />
<glyph unicode="f" horiz-adv-x="747" d="M41 797v231h158v125q0 78 15 133t57 90t113 51.5t181 16.5q37 0 79 -2t85 -8v-209q-27 4 -52.5 6t-60.5 2q-86 0 -110.5 -24.5t-24.5 -90.5v-90h228v-227h-217v-801h-293v797h-158z" />
<glyph unicode="g" horiz-adv-x="1208" d="M86 524q0 104 23.5 200.5t75 168.5t133 115t198.5 43q98 0 173 -31t128 -117h4l15 125h243v-1012q0 -147 -31.5 -241t-93 -146.5t-148.5 -72t-198 -19.5q-129 0 -237.5 27.5t-218.5 87.5l84 213q90 -53 175 -81t189 -28q102 0 147.5 38t45.5 147v204h-9 q-53 -80 -111.5 -109.5t-150.5 -29.5q-115 0 -197.5 41t-136 110.5t-78 164t-24.5 202.5zM379 532q0 -57 9 -112t32.5 -99.5t65.5 -71t108 -26.5q59 0 98 17.5t61.5 48t32 75t9.5 97.5v178q0 100 -52.5 145t-148.5 45q-68 0 -110 -25.5t-65.5 -66.5t-31.5 -95t-8 -110z" />
<glyph unicode="h" horiz-adv-x="1214" d="M129 0v1434h289v-506h2q51 70 124.5 96.5t166.5 26.5q104 0 175.5 -30t116 -86t63.5 -136t19 -178v-621h-288v575q0 51 -5.5 94.5t-23.5 74t-53 48t-94 17.5q-203 0 -203 -195v-614h-289z" />
<glyph unicode="i" horiz-adv-x="546" d="M100 1296q0 66 47.5 105t124.5 39q78 0 126 -39t48 -105t-48 -103.5t-126 -37.5t-125 38t-47 103zM129 0v1028h289v-1028h-289z" />
<glyph unicode="j" horiz-adv-x="561" d="M-160 -211q68 -6 135 -6q59 0 93 13.5t50.5 41t20.5 67.5t4 95v1028h289v-1063q0 -217 -102.5 -322.5t-319.5 -105.5q-45 0 -87 3t-83 7v242zM113 1296q0 37 14 65t38.5 45t55.5 25.5t64 8.5t64.5 -8.5t56 -25.5t39 -45t14.5 -65t-14.5 -63.5t-39 -44t-56.5 -25.5t-64 -8 q-33 0 -64 8t-55.5 25.5t-38.5 44.5t-14 63z" />
<glyph unicode="k" horiz-adv-x="1136" d="M129 0v1434h289v-791h8l317 385h359l-377 -412l403 -616h-350l-262 438l-98 -106v-332h-289z" />
<glyph unicode="l" horiz-adv-x="647" d="M129 223v1211h289v-1143q0 -47 15.5 -57.5t55.5 -10.5h101v-223q-78 -12 -209 -12q-143 0 -197.5 53t-54.5 182z" />
<glyph unicode="m" horiz-adv-x="1794" d="M129 0v1028h256l21 -125h4q27 55 89 101.5t177 46.5q98 0 167.5 -36t110.5 -116q59 86 134 119t180 33q203 0 300 -110t97 -323v-618h-289v588q0 51 -6 92t-23.5 69.5t-48 44t-77.5 15.5q-72 0 -126.5 -38t-54.5 -130v-641h-288v590q0 51 -6.5 92t-22.5 68.5t-48 43 t-81 15.5q-72 0 -124 -44t-52 -126v-639h-289z" />
<glyph unicode="n" horiz-adv-x="1214" d="M129 0v1028h250l18 -123h4q57 82 131 114t177 32q106 0 177.5 -30t116 -86t63.5 -136t19 -178v-621h-288v575q0 51 -6.5 94.5t-24.5 74t-53 48t-95 17.5q-201 0 -200 -195v-614h-289z" />
<glyph unicode="o" horiz-adv-x="1230" d="M86 514q0 113 29.5 210t94 170t164 115t240.5 42q262 0 396.5 -142.5t134.5 -394.5q0 -119 -33 -218t-98.5 -170t-164.5 -110t-235 -39q-133 0 -232 39t-164.5 110t-98.5 169t-33 219zM379 514q0 -154 52 -236.5t185 -82.5q131 0 183.5 82.5t52.5 236.5q0 152 -51 231.5 t-185 79.5q-133 0 -185 -80.5t-52 -230.5z" />
<glyph unicode="p" horiz-adv-x="1208" d="M129 -451v1479h242l18 -123h4q55 80 126 113t169 33q119 0 201 -43t134 -115t75.5 -168.5t23.5 -200.5q0 -111 -23.5 -210t-76.5 -173.5t-137 -119t-207 -44.5q-47 0 -84 6.5t-66.5 21.5t-55.5 41t-50 63l-4 2v-562h-289zM414 422q0 -53 9 -96t31.5 -74t59.5 -47.5 t94 -16.5q74 0 117 30t66.5 77t30.5 106.5t7 118.5q0 61 -6 116.5t-28.5 98.5t-65.5 68.5t-117 25.5q-92 0 -145 -42t-53 -140v-225z" />
<glyph unicode="q" horiz-adv-x="1208" d="M86 524q0 104 23.5 200.5t75 168.5t133 115t198.5 43q90 0 171 -29t128 -117h4l17 123h243v-1165q0 -61 19.5 -95t75.5 -63l-179 -192q-57 20 -96 46.5t-62.5 63.5t-33.5 85t-10 112v291h-7q-47 -78 -112.5 -106t-153.5 -28q-119 0 -201.5 46.5t-134 122t-75 175 t-23.5 203.5zM379 518q0 -59 7 -117.5t30.5 -105.5t66.5 -77t115 -30q115 0 156 63.5t41 170.5v225q0 98 -52.5 140t-148.5 42q-74 0 -117 -25.5t-64.5 -68.5t-27.5 -99t-6 -118z" />
<glyph unicode="r" horiz-adv-x="827" d="M129 0v1028h248l22 -137h9q43 78 108.5 118t185.5 40h72v-254h-67q-63 0 -116.5 -6.5t-91.5 -28t-59.5 -62.5t-21.5 -110v-588h-289z" />
<glyph unicode="s" horiz-adv-x="1007" d="M53 102l101 197q86 -47 177 -79t179 -32q74 0 115 25t41 84q0 31 -16.5 48t-45.5 29.5t-67.5 19.5t-81.5 18q-68 14 -134.5 35.5t-117.5 59.5t-83 95t-32 143q0 63 25.5 119t78 98t132 65.5t188.5 23.5q100 0 196.5 -20.5t190.5 -67.5l-76 -205q-66 35 -144.5 56.5 t-143.5 21.5q-74 0 -125.5 -20.5t-51.5 -74.5q0 -29 18.5 -46t51.5 -28.5t76 -19.5t90 -18q61 -12 121.5 -33t109.5 -55.5t80 -90t31 -141.5q0 -172 -111.5 -252t-312.5 -80q-244 0 -459 125z" />
<glyph unicode="t" horiz-adv-x="800" d="M31 797v231h170v272h284v-272h238v-231h-238v-461q0 -37 4.5 -60.5t21.5 -36t54 -16.5t105 -4h25.5t27.5 2v-225q-59 -8 -99 -11t-79 -3q-104 0 -172 16t-108 53t-54 97.5t-14 148.5l2 500h-168z" />
<glyph unicode="u" horiz-adv-x="1196" d="M129 385v643h289v-549q0 -59 4 -108t20.5 -83t51 -52.5t96.5 -18.5q117 0 152.5 54.5t35.5 152.5v604h289v-1028h-252l-16 119h-8q-45 -68 -117 -106t-178 -38q-86 0 -155 18.5t-116 65.5t-71.5 126t-24.5 200z" />
<glyph unicode="v" horiz-adv-x="1112" d="M23 1028h307l227 -762h10l226 762h297l-369 -1028h-328z" />
<glyph unicode="w" horiz-adv-x="1630" d="M33 1028h301l162 -721h8l196 721h226l202 -723h9l170 723h290l-313 -1028h-274l-195 610h-8l-186 -610h-281z" />
<glyph unicode="x" horiz-adv-x="1110" d="M12 0l367 541l-324 487h326l182 -315h8l185 315h301l-328 -481l369 -547h-334l-209 356h-8l-203 -356h-332z" />
<glyph unicode="y" horiz-adv-x="1124" d="M14 1028h314l233 -713h8l232 713h309l-424 -1071q-51 -127 -92 -209t-89 -129t-111.5 -64.5t-157.5 -17.5q-29 0 -67 3t-87 7v240q14 -4 41 -5t74 -1q41 0 66.5 6t44 20.5t31.5 38t28 58.5l49 119z" />
<glyph unicode="z" horiz-adv-x="987" d="M70 0v195l477 602h-471v231h823v-207l-469 -592h488v-229h-848z" />
<glyph unicode="{" horiz-adv-x="845" d="M137 563v193q72 14 91.5 61t19.5 113v393q0 82 17.5 137.5t54 88t94 47t137.5 14.5h154v-172h-72q-51 0 -78 -9.5t-39 -30t-13 -53t-1 -79.5v-385q0 -80 -31 -125t-96 -97q33 -25 57.5 -47t39.5 -46.5t22.5 -55.5t7.5 -72v-352q0 -49 2 -82t14 -53.5t39 -28.5t76 -8h72 v-170h-152q-82 0 -139.5 13.5t-94 47t-54 88t-17.5 138.5v358q0 66 -18.5 112t-92.5 62z" />
<glyph unicode="|" horiz-adv-x="587" d="M188 -451v1967h211v-1967h-211z" />
<glyph unicode="}" horiz-adv-x="845" d="M141 -86h74q49 0 75.5 8t39 28.5t14.5 53.5t2 82v352q0 41 7 72t21.5 55.5t38 47t56.5 46.5q-66 51 -94.5 96.5t-28.5 125.5v385q0 47 -2 79.5t-14.5 53t-39 30t-75.5 9.5h-74v172h154q80 0 137 -14.5t94 -47t54.5 -88t17.5 -137.5v-393q0 -66 19.5 -113t91.5 -61v-193 q-74 -16 -92.5 -62t-18.5 -112v-358q0 -84 -17.5 -138.5t-54.5 -88t-94 -47t-137 -13.5h-154v170z" />
<glyph unicode="~" horiz-adv-x="978" d="M4 1165q27 51 54.5 85t59.5 55.5t69.5 31t84.5 9.5q53 0 102.5 -14.5t97.5 -31t93 -31t88 -14.5t76 19.5t57 68.5l179 -67q-39 -92 -112 -137t-165 -45q-55 0 -104 13t-95.5 30.5t-91.5 31t-90 13.5t-76.5 -17.5t-60.5 -72.5z" />
<glyph unicode="&#xa1;" horiz-adv-x="612" d="M117 905q0 66 54 108t134 42q82 0 136.5 -42t54.5 -108q0 -61 -54.5 -103t-134.5 -42q-82 0 -136 42t-54 103zM145 -336q10 246 22.5 487.5t18.5 487.5h238q6 -246 17.5 -487.5t21.5 -487.5h-318z" />
<glyph unicode="&#xa2;" d="M154 690q0 209 98 345t291 173v158h268v-158q72 -12 139.5 -43.5t136.5 -85.5l-124 -192q-66 59 -125.5 84.5t-137.5 25.5q-133 0 -194.5 -79.5t-61.5 -215.5q0 -154 60.5 -242.5t193.5 -88.5q31 0 62 4t64.5 17.5t71.5 39t81 66.5l125 -172q-68 -66 -138.5 -107 t-152.5 -57v-162h-268v160q-94 18 -167 64t-122 115t-74.5 158t-25.5 193z" />
<glyph unicode="&#xa3;" d="M113 0v223h57q90 0 136 55.5t46 159.5q0 41 -4 88t-12 92h-203v224h176q-14 63 -24.5 116.5t-10.5 112.5q0 160 109 239t313 79q223 0 410 -91l-53 -247q-63 41 -134 68.5t-169 27.5q-109 0 -149 -37t-40 -109q0 -29 6 -66.5t17 -92.5h323v-224h-282q25 -115 24 -192 q0 -113 -57 -176v-6h551v-244h-1030z" />
<glyph unicode="&#xa4;" d="M84 305l160 162q-31 47 -48.5 106.5t-17.5 124.5v17q2 59 20.5 114.5t49.5 102.5l-164 164l147 147l168 -168q51 29 106.5 44.5t117.5 15.5q61 0 118.5 -17.5t108.5 -46.5l172 172l147 -147l-168 -170q68 -102 68 -228q0 -63 -17.5 -120.5t-47.5 -106.5l165 -166 l-147 -149l-168 168q-51 -31 -108.5 -48.5t-122.5 -17.5q-61 0 -119 17.5t-109 46.5l-164 -164zM422 698q0 -41 15.5 -77.5t43 -64.5t64.5 -44t80 -16t79.5 16t64.5 44t43 64.5t15 77.5q0 86 -58 145.5t-144 59.5t-144.5 -59.5t-58.5 -145.5z" />
<glyph unicode="&#xa5;" d="M29 1366h344l268 -578l264 578h322l-277 -551h221v-180h-331l-56 -90v-123h387v-180h-387v-242h-292v242h-402v180h402v108l-66 105h-336v180h221z" />
<glyph unicode="&#xa6;" horiz-adv-x="587" d="M188 328h211v-779h-211v779zM188 737v779h211v-779h-211z" />
<glyph unicode="&#xa7;" horiz-adv-x="1015" d="M59 -47l99 201q197 -117 342 -117q74 0 105.5 22.5t31.5 65.5q0 33 -23.5 55.5t-91.5 48.5q-76 25 -146.5 51.5t-119.5 53.5q-98 49 -142 105.5t-44 140.5q0 109 69.5 167t192.5 74v6q-115 33 -181.5 100.5t-66.5 162.5q0 63 25.5 118.5t77 95t129 62.5t182.5 23 q115 0 210 -20.5t191 -63.5l-80 -220q-78 45 -147.5 67t-147.5 22q-66 0 -107.5 -14.5t-41.5 -61.5q0 -31 25.5 -54.5t101.5 -50.5q102 -33 164.5 -55.5t115.5 -48.5q76 -39 116 -92.5t40 -137.5q0 -100 -58.5 -162.5t-187.5 -84.5v-6q111 -27 174.5 -98.5t63.5 -176.5 q0 -55 -21.5 -109.5t-72 -97.5t-132 -69.5t-202.5 -26.5q-129 0 -230.5 28.5t-212.5 96.5zM324 596q0 -41 37.5 -74t142.5 -33q178 1 178 107q0 47 -40 76.5t-138 29.5q-82 0 -131 -21.5t-49 -84.5z" />
<glyph unicode="&#xa8;" horiz-adv-x="712" d="M-12 1309q0 59 41 100t100 41t100 -41t41 -100t-41 -101.5t-100 -42.5t-100 42t-41 102zM442 1309q0 59 42 100t102 41q59 0 100 -41t41 -100t-41 -101.5t-100 -42.5t-101.5 42t-42.5 102z" />
<glyph unicode="&#xa9;" horiz-adv-x="1628" d="M106 684q0 147 55.5 275t152 224.5t225.5 152t276 55.5t275.5 -55.5t224.5 -152t151.5 -224.5t55.5 -275t-55.5 -275t-151.5 -224.5t-224 -152t-276 -55.5q-147 0 -276 55.5t-225.5 152t-152 224.5t-55.5 275zM203 686q0 -127 48 -237.5t132 -193.5t194.5 -131t237.5 -48 t238.5 48t195.5 131t132.5 193.5t48.5 237.5t-48.5 238.5t-131.5 195.5t-194.5 132t-240.5 48q-127 0 -238.5 -48t-194.5 -132t-131 -195.5t-48 -238.5zM414 690q0 201 109.5 317.5t314.5 116.5q98 0 178 -34.5t153 -108.5l-114 -125q-92 109 -209 109q-127 0 -182.5 -72 t-55.5 -203q0 -137 55.5 -210.5t180.5 -73.5q66 0 120 26.5t107 79.5l100 -129q-72 -68 -152.5 -103.5t-176.5 -35.5q-115 0 -197 34.5t-133 96t-74.5 142.5t-23.5 173z" />
<glyph unicode="&#xaa;" horiz-adv-x="849" d="M106 950q0 123 101.5 174.5t286.5 51.5v16q0 39 -12.5 57.5t-78.5 18.5q-43 0 -102 -12.5t-125 -47.5l-57 123q78 39 149.5 56.5t151.5 17.5q76 0 124 -15.5t75.5 -47t39 -81t11.5 -116.5v-197q0 -29 10 -43t47 -37l-113 -108q-76 14 -98 71h-4q-90 -72 -203 -71 q-94 0 -148.5 49t-54.5 141zM281 956q0 -37 21.5 -59.5t57.5 -22.5q31 0 61 11.5t73 40.5v147q-121 0 -167 -29.5t-46 -87.5z" />
<glyph unicode="&#xab;" horiz-adv-x="1021" d="M29 614l266 437l194 -97l-217 -342l222 -340l-195 -98zM500 614l254 414l194 -96l-205 -320l205 -317l-194 -96z" />
<glyph unicode="&#xac;" d="M92 432v242h1071v-604h-239v362h-832z" />
<glyph unicode="&#xad;" horiz-adv-x="784" d="M98 399v271h588v-271h-588z" />
<glyph unicode="&#xae;" horiz-adv-x="923" d="M106 1087q0 72 28 135.5t76 110.5t112.5 74t138.5 27t138.5 -27t113.5 -74t76.5 -110.5t27.5 -135.5t-27.5 -135t-76.5 -110t-113.5 -74t-138.5 -27t-138.5 27t-112.5 74t-76 110.5t-28 134.5zM158 1090q0 -61 23.5 -115.5t65.5 -94.5t97 -63.5t119 -23.5 q61 0 117.5 23.5t97.5 63.5t65.5 94t24.5 116q0 61 -24.5 114t-65.5 94t-96.5 64.5t-118.5 23.5t-118.5 -23.5t-97.5 -64.5t-65.5 -94t-23.5 -114zM315 899v385q37 4 75 4h71q31 0 61.5 -4t55 -18.5t39 -39t14.5 -63.5q0 -68 -60 -100l70 -164h-111l-51 131q-4 4 -5 6t-7 2 h-51v-139h-101zM414 1110h55q35 0 48 13.5t13 35.5q0 27 -14 40t-55 13q-14 0 -27.5 -1t-19.5 -1v-100z" />
<glyph unicode="&#xaf;" horiz-adv-x="712" d="M25 1202v178h661v-178h-661z" />
<glyph unicode="&#xb0;" horiz-adv-x="845" d="M106 1090q0 66 26 123t69 100t100 67.5t123 24.5t123 -24.5t100 -67.5t67.5 -100t24.5 -123t-24.5 -124.5t-67.5 -101.5t-100.5 -67.5t-122.5 -24.5q-66 0 -123 24.5t-100 67.5t-69 101.5t-26 124.5zM199 1090q0 -47 17 -88t48 -72t72 -48.5t88 -17.5t88 17.5t71.5 48.5 t48 72t17.5 88q0 45 -17.5 86t-48 71.5t-71.5 48t-88 17.5t-88 -17.5t-72 -48t-48 -71.5t-17 -86z" />
<glyph unicode="&#xb1;" d="M92 0v229h1071v-229h-1071zM92 662v239h414v375h248v-375h409v-239h-409v-340h-248v340h-414z" />
<glyph unicode="&#xb2;" horiz-adv-x="667" d="M51 899q80 57 144.5 100t110.5 78t71.5 66t25.5 65q0 29 -18 50.5t-59 21.5q-51 0 -88 -17.5t-78 -60.5l-103 115q72 63 138.5 90t148.5 27q117 0 181.5 -53.5t64.5 -149.5q0 -41 -14.5 -80t-51.5 -79t-98 -83t-156 -92h328v-147h-520z" />
<glyph unicode="&#xb3;" horiz-adv-x="653" d="M41 827l76 123q51 -41 93 -56t83 -15q57 0 86 22.5t29 56.5q0 41 -25 55.5t-66 14.5h-108v123h70q47 0 76.5 19.5t29.5 54.5q0 27 -19.5 46t-60.5 19q-47 0 -92 -18.5t-80 -52.5l-84 120q72 53 133.5 74t143.5 21q111 0 175 -48.5t64 -152.5q0 -43 -24.5 -76t-59.5 -51 v-2q49 -14 76 -55.5t27 -100.5q0 -104 -65.5 -156.5t-205.5 -52.5q-72 0 -140.5 19.5t-131.5 68.5z" />
<glyph unicode="&#xb4;" horiz-adv-x="712" d="M94 1249l285 271l289 -121l-402 -242z" />
<glyph unicode="&#xb5;" horiz-adv-x="1236" d="M141 -451v1479h291v-539q0 -59 2 -109t17.5 -86t50.5 -56.5t100 -20.5q57 0 94 14.5t57.5 40t27.5 64.5t7 88v604h291v-1028h-252l-18 119h-6q-23 -35 -45.5 -61.5t-50 -45t-65.5 -28t-91 -9.5q-10 0 -30.5 2.5t-44 9.5t-45 20t-34.5 36v-494h-256z" />
<glyph unicode="&#xb6;" horiz-adv-x="1097" d="M86 516q0 106 38 199.5t113.5 163t188.5 109.5t260 40h262v-1028h-262q-147 0 -260 40t-188.5 109.5t-113.5 164t-38 202.5z" />
<glyph unicode="&#xb7;" horiz-adv-x="530" d="M72 496q0 61 55 103t135 42t135.5 -42t55.5 -103q0 -63 -55.5 -105.5t-135.5 -42.5q-82 0 -136 42t-54 106z" />
<glyph unicode="&#xb8;" horiz-adv-x="712" d="M168 -385l33 98q41 -20 70.5 -29.5t64.5 -9.5q37 0 66.5 13.5t29.5 54.5q0 70 -88 70q-49 0 -82 -17l-55 29l86 176h131l-53 -96l2 -2q10 2 23.5 3t25.5 1q72 0 115 -41t43 -117q0 -78 -57.5 -131t-174.5 -53q-53 0 -99 16.5t-81 34.5z" />
<glyph unicode="&#xb9;" horiz-adv-x="616" d="M33 1309l235 112h146v-524h157v-145h-510v145h166v336h-6l-133 -59z" />
<glyph unicode="&#xba;" horiz-adv-x="849" d="M106 1083q0 70 18.5 129.5t57.5 102.5t99.5 66.5t142.5 23.5q154 0 236.5 -84t82.5 -238q0 -150 -79.5 -236.5t-239.5 -86.5q-158 0 -238 87t-80 236zM287 1083q0 -104 33.5 -144t105.5 -40t104.5 40t32.5 144q0 92 -30.5 134.5t-108.5 42.5t-107.5 -42t-29.5 -135z" />
<glyph unicode="&#xbb;" horiz-adv-x="1021" d="M72 295l207 317l-207 320l194 96l256 -414l-256 -415zM526 956l197 97l270 -439l-270 -440l-195 98l220 340z" />
<glyph unicode="&#xbc;" horiz-adv-x="1634" d="M109 1309l235 112h145v-524h158v-145h-510v145h166v336h-6l-133 -59zM283 0l1065 1434h155l-1065 -1434h-155zM969 258l321 412h183v-396h104v-147h-104v-127h-185v127h-278zM1130 260h166v240z" />
<glyph unicode="&#xbd;" horiz-adv-x="1579" d="M104 1309l236 112h145v-524h158v-145h-510v145h166v336h-6l-133 -59zM217 0l1065 1434h156l-1065 -1434h-156zM969 150q80 57 144.5 100t110.5 76.5t71.5 64.5t25.5 66q0 29 -18.5 50t-59.5 21q-51 0 -88 -17t-78 -60l-102 114q72 63 138.5 90t148.5 27q117 0 181 -53.5 t64 -149.5q0 -41 -14 -79t-51 -77.5t-98.5 -82.5t-155.5 -93h328v-147h-521z" />
<glyph unicode="&#xbe;" horiz-adv-x="1540" d="M119 827l76 123q51 -41 93 -56t83 -15q57 0 85.5 22.5t28.5 56.5q0 41 -24.5 55.5t-65.5 14.5h-108v123h69q47 0 77 19.5t30 54.5q0 27 -19.5 46t-60.5 19q-47 0 -92 -18.5t-80 -52.5l-84 120q72 53 133.5 74t142.5 21q111 0 175.5 -48.5t64.5 -152.5q0 -43 -24.5 -76 t-59.5 -51v-2q49 -14 76 -55.5t27 -100.5q0 -104 -66 -156.5t-205 -52.5q-72 0 -140.5 19.5t-131.5 68.5zM246 0l1065 1434h155l-1065 -1434h-155zM893 258l321 412h183v-396h104v-147h-104v-127h-185v127h-278zM1055 260h166v240z" />
<glyph unicode="&#xbf;" horiz-adv-x="1116" d="M111 20q0 127 57 216.5t188 150.5l82 39q25 12 39.5 20.5t21.5 20.5t8 30.5t1 51.5v82h278v-146q0 -45 -5 -76.5t-20.5 -54t-42 -41t-69.5 -39.5l-88 -41q-88 -41 -130 -77.5t-42 -112.5q0 -78 57.5 -120t157.5 -42q182 0 307 117l140 -207q-61 -41 -117.5 -69.5 t-114 -47t-120 -26.5t-134.5 -8q-229 0 -341.5 101t-112.5 279zM465 907q0 63 54 105.5t134 42.5t134.5 -42t54.5 -106q0 -61 -54.5 -103t-132.5 -42q-82 0 -136 42t-54 103z" />
<glyph unicode="&#xc0;" horiz-adv-x="1435" d="M25 0l526 1372h319l541 -1372h-319l-109 287h-539l-110 -287h-309zM307 1686l289 119l284 -269l-172 -92zM514 528h393l-194 547h-8z" />
<glyph unicode="&#xc1;" horiz-adv-x="1435" d="M25 0l526 1372h319l541 -1372h-319l-109 287h-539l-110 -287h-309zM514 528h393l-194 547h-8zM536 1536l285 271l289 -121l-402 -242z" />
<glyph unicode="&#xc2;" horiz-adv-x="1435" d="M25 0l526 1372h319l541 -1372h-319l-109 287h-539l-110 -287h-309zM334 1598l370 200l377 -200l-117 -162l-256 151l-260 -151zM514 528h393l-194 547h-8z" />
<glyph unicode="&#xc3;" horiz-adv-x="1435" d="M25 0l526 1372h319l541 -1372h-319l-109 287h-539l-110 -287h-309zM325 1555q43 102 99.5 140t130.5 38q43 0 80.5 -14.5t71.5 -31t66 -30.5t64 -14q35 0 68 19.5t53 70.5l137 -105q-29 -92 -94 -136t-137 -44q-47 0 -85 13.5t-70.5 31t-63.5 30.5t-62 13 q-35 0 -68.5 -18.5t-56.5 -71.5zM514 528h393l-194 547h-8z" />
<glyph unicode="&#xc4;" horiz-adv-x="1435" d="M25 0l526 1372h319l541 -1372h-319l-109 287h-539l-110 -287h-309zM340 1596q0 59 41 100t100 41t100 -41t41 -100t-41 -101.5t-100 -42.5t-100 42t-41 102zM514 528h393l-194 547h-8zM794 1596q0 59 42 100t102 41q59 0 100 -41t41 -100t-41 -101.5t-100 -42.5 t-101.5 42t-42.5 102z" />
<glyph unicode="&#xc5;" horiz-adv-x="1435" d="M25 0l481 1255q-47 37 -75 93.5t-28 121.5q0 63 24 117.5t66 93.5t97 60.5t119 21.5q63 0 118.5 -21.5t97.5 -60.5t65.5 -93.5t23.5 -117.5q0 -66 -26.5 -121t-72.5 -92l496 -1257h-319l-109 287h-539l-110 -287h-309zM514 528h393l-196 549h-4zM573 1470q0 -61 39 -100 t99 -39q57 0 95 39t38 100t-38 100.5t-95 39.5q-59 0 -98.5 -39t-39.5 -101z" />
<glyph unicode="&#xc6;" horiz-adv-x="1923" d="M29 0l698 1366h1100v-244h-604v-291h544v-251h-544v-336h624v-244h-917v309h-451l-141 -309h-309zM594 559h336v561h-47z" />
<glyph unicode="&#xc7;" horiz-adv-x="1361" d="M115 692q0 156 44 285t129 220t209 141.5t283 50.5q154 0 280 -54.5t243 -173.5l-183 -190q-78 86 -155.5 126t-171.5 40q-178 0 -272.5 -107.5t-94.5 -339.5q0 -215 86 -340t279 -125q98 0 185 42t173 128l162 -198q-115 -109 -235 -162t-261 -58l-43 -79l2 -2 q10 2 23.5 3t25.5 1q72 0 115 -40t43 -118t-58.5 -130t-170.5 -52q-53 0 -101.5 15t-81.5 36l33 98q39 -20 69.5 -30.5t67.5 -10.5q35 0 65 14.5t30 55.5q0 70 -89 69q-25 0 -44 -4t-37 -12l-56 29l80 162q-147 14 -255.5 71.5t-179.5 149.5t-104.5 217t-33.5 272z" />
<glyph unicode="&#xc8;" horiz-adv-x="1177" d="M150 0v1366h931v-250h-632v-289h573v-254h-573v-329h653v-244h-952zM278 1686l289 119l284 -269l-172 -92z" />
<glyph unicode="&#xc9;" horiz-adv-x="1177" d="M150 0v1366h931v-250h-632v-289h573v-254h-573v-329h653v-244h-952zM436 1536l285 271l289 -121l-402 -242z" />
<glyph unicode="&#xca;" horiz-adv-x="1177" d="M150 0v1366h931v-250h-632v-289h573v-254h-573v-329h653v-244h-952zM240 1598l370 200l377 -200l-117 -162l-256 151l-260 -151z" />
<glyph unicode="&#xcb;" horiz-adv-x="1177" d="M150 0v1366h931v-250h-632v-289h573v-254h-573v-329h653v-244h-952zM246 1596q0 59 41 100t100 41t100 -41t41 -100t-41 -101.5t-100 -42.5t-100 42t-41 102zM700 1596q0 59 42 100t102 41q59 0 100 -41t41 -100t-41 -101.5t-100 -42.5t-101.5 42t-42.5 102z" />
<glyph unicode="&#xcc;" horiz-adv-x="598" d="M-105 1686l289 119l284 -269l-172 -92zM150 0v1366h299v-1366h-299z" />
<glyph unicode="&#xcd;" horiz-adv-x="598" d="M135 1536l285 271l289 -121l-402 -242zM150 0v1366h299v-1366h-299z" />
<glyph unicode="&#xce;" horiz-adv-x="598" d="M-61 1598l370 200l377 -200l-117 -162l-256 151l-260 -151zM150 0v1366h299v-1366h-299z" />
<glyph unicode="&#xcf;" horiz-adv-x="598" d="M-67 1596q0 59 41 100t100 41t100 -41t41 -100t-41 -101.5t-100 -42.5t-100 42t-41 102zM150 0v1366h299v-1366h-299zM387 1596q0 59 42 100t102 41q59 0 100 -41t41 -100t-41 -101.5t-100 -42.5t-101.5 42t-42.5 102z" />
<glyph unicode="&#xd0;" horiz-adv-x="1441" d="M10 592v244h144v520q117 10 236.5 17t234.5 7q332 0 517 -175t185 -513q0 -178 -49 -308t-142.5 -215t-228.5 -127t-309 -42h-444v592h-144zM449 240q37 -2 73.5 -2h73.5q119 0 200 26.5t131 82.5t72.5 143t22.5 206q0 94 -18.5 176t-62.5 143.5t-118.5 96.5t-187.5 35 q-47 0 -94 -2t-92 -6v-303h315v-244h-315v-352z" />
<glyph unicode="&#xd1;" horiz-adv-x="1497" d="M150 0v1366h276l623 -856h10v856h289v-1366h-258l-641 870h-9v-870h-290zM362 1555q43 102 99.5 140t130.5 38q43 0 80.5 -14.5t71.5 -31t66 -30.5t64 -14q35 0 68 19.5t53 70.5l137 -105q-29 -92 -94 -136t-137 -44q-47 0 -85 13.5t-70.5 31t-63.5 30.5t-62 13 q-35 0 -68.5 -18.5t-56.5 -71.5z" />
<glyph unicode="&#xd2;" horiz-adv-x="1581" d="M115 684q0 180 48 313t137 220.5t214 129.5t277 42q154 0 277.5 -42t212.5 -129.5t137 -220.5t48 -313q0 -182 -49 -315t-138 -219.5t-213 -128t-275 -41.5q-152 0 -276 41.5t-213 128t-138 219.5t-49 315zM426 684q0 -111 17.5 -197t60.5 -145t112.5 -90t174.5 -31 q104 0 173.5 31t112.5 90t60.5 145t17.5 197t-17.5 197t-60.5 145t-112.5 90t-173.5 31t-174 -31t-113 -89t-60.5 -145t-17.5 -198zM465 1694l289 119l284 -269l-172 -92z" />
<glyph unicode="&#xd3;" horiz-adv-x="1581" d="M115 684q0 180 48 313t137 220.5t214 129.5t277 42q154 0 277.5 -42t212.5 -129.5t137 -220.5t48 -313q0 -182 -49 -315t-138 -219.5t-213 -128t-275 -41.5q-152 0 -276 41.5t-213 128t-138 219.5t-49 315zM426 684q0 -111 17.5 -197t60.5 -145t112.5 -90t174.5 -31 q104 0 173.5 31t112.5 90t60.5 145t17.5 197t-17.5 197t-60.5 145t-112.5 90t-173.5 31t-174 -31t-113 -89t-60.5 -145t-17.5 -198zM618 1544l285 271l289 -121l-402 -242z" />
<glyph unicode="&#xd4;" horiz-adv-x="1581" d="M115 684q0 180 48 313t137 220.5t214 129.5t277 42q154 0 277.5 -42t212.5 -129.5t137 -220.5t48 -313q0 -182 -49 -315t-138 -219.5t-213 -128t-275 -41.5q-152 0 -276 41.5t-213 128t-138 219.5t-49 315zM426 684q0 -111 17.5 -197t60.5 -145t112.5 -90t174.5 -31 q104 0 173.5 31t112.5 90t60.5 145t17.5 197t-17.5 197t-60.5 145t-112.5 90t-173.5 31t-174 -31t-113 -89t-60.5 -145t-17.5 -198zM430 1598l370 200l377 -200l-117 -162l-256 151l-260 -151z" />
<glyph unicode="&#xd5;" horiz-adv-x="1581" d="M115 684q0 180 48 313t137 220.5t214 129.5t277 42q154 0 277.5 -42t212.5 -129.5t137 -220.5t48 -313q0 -182 -49 -315t-138 -219.5t-213 -128t-275 -41.5q-152 0 -276 41.5t-213 128t-138 219.5t-49 315zM395 1563q43 102 99.5 140t130.5 38q43 0 80.5 -14.5t71.5 -31 t66 -30.5t64 -14q35 0 68 19.5t53 70.5l137 -105q-29 -92 -94 -136t-137 -44q-47 0 -85 13.5t-70.5 31t-63.5 30.5t-62 13q-35 0 -68.5 -18.5t-56.5 -71.5zM426 684q0 -111 17.5 -197t60.5 -145t112.5 -90t174.5 -31q104 0 173.5 31t112.5 90t60.5 145t17.5 197t-17.5 197 t-60.5 145t-112.5 90t-173.5 31t-174 -31t-113 -89t-60.5 -145t-17.5 -198z" />
<glyph unicode="&#xd6;" horiz-adv-x="1581" d="M115 684q0 180 48 313t137 220.5t214 129.5t277 42q154 0 277.5 -42t212.5 -129.5t137 -220.5t48 -313q0 -182 -49 -315t-138 -219.5t-213 -128t-275 -41.5q-152 0 -276 41.5t-213 128t-138 219.5t-49 315zM426 684q0 -111 17.5 -197t60.5 -145t112.5 -90t174.5 -31 q104 0 173.5 31t112.5 90t60.5 145t17.5 197t-17.5 197t-60.5 145t-112.5 90t-173.5 31t-174 -31t-113 -89t-60.5 -145t-17.5 -198zM426 1596q0 59 41 100t100 41t100 -41t41 -100t-41 -101.5t-100 -42.5t-100 42t-41 102zM880 1596q0 59 42 100t102 41q59 0 100 -41 t41 -100t-41 -101.5t-100 -42.5t-101.5 42t-42.5 102z" />
<glyph unicode="&#xd7;" d="M123 217l336 334l-332 330l170 170l332 -332l332 332l167 -170l-331 -330l333 -334l-167 -170l-334 334l-336 -334z" />
<glyph unicode="&#xd8;" horiz-adv-x="1581" d="M115 121l112 119q-113 168 -112 444q0 180 48 313t137 220.5t214 129.5t277 42q123 0 228 -28t189 -85l129 137l164 -160l-135 -143q47 -82 73.5 -187.5t26.5 -238.5q0 -182 -49 -315t-138 -219.5t-213 -128t-275 -41.5q-238 0 -398 98l-125 -131zM426 684 q0 -125 20 -213l576 610q-84 66 -231 66q-104 0 -174 -31t-113 -89t-60.5 -145t-17.5 -198zM575 272q84 -51 216 -51q104 0 173.5 31t112.5 90t60.5 145t17.5 197q0 53 -3 99t-13 87z" />
<glyph unicode="&#xd9;" horiz-adv-x="1435" d="M150 549v817h299v-772q0 -78 7 -144.5t33.5 -115.5t81 -77t146.5 -28q94 0 147.5 28t81 77t34.5 115.5t7 144.5v772h299v-817q0 -135 -29.5 -241.5t-97 -180.5t-176.5 -112t-266 -38q-158 0 -266.5 38t-175 112t-96 180.5t-29.5 241.5zM313 1686l289 119l284 -269 l-172 -92z" />
<glyph unicode="&#xda;" horiz-adv-x="1435" d="M150 549v817h299v-772q0 -78 7 -144.5t33.5 -115.5t81 -77t146.5 -28q94 0 147.5 28t81 77t34.5 115.5t7 144.5v772h299v-817q0 -135 -29.5 -241.5t-97 -180.5t-176.5 -112t-266 -38q-158 0 -266.5 38t-175 112t-96 180.5t-29.5 241.5zM543 1536l285 271l289 -121 l-402 -242z" />
<glyph unicode="&#xdb;" horiz-adv-x="1435" d="M150 549v817h299v-772q0 -78 7 -144.5t33.5 -115.5t81 -77t146.5 -28q94 0 147.5 28t81 77t34.5 115.5t7 144.5v772h299v-817q0 -135 -29.5 -241.5t-97 -180.5t-176.5 -112t-266 -38q-158 0 -266.5 38t-175 112t-96 180.5t-29.5 241.5zM346 1598l370 200l377 -200 l-117 -162l-256 151l-260 -151z" />
<glyph unicode="&#xdc;" horiz-adv-x="1435" d="M150 549v817h299v-772q0 -78 7 -144.5t33.5 -115.5t81 -77t146.5 -28q94 0 147.5 28t81 77t34.5 115.5t7 144.5v772h299v-817q0 -135 -29.5 -241.5t-97 -180.5t-176.5 -112t-266 -38q-158 0 -266.5 38t-175 112t-96 180.5t-29.5 241.5zM348 1596q0 59 41 100t100 41 t100 -41t41 -100t-41 -101.5t-100 -42.5t-100 42t-41 102zM802 1596q0 59 42 100t102 41q59 0 100 -41t41 -100t-41 -101.5t-100 -42.5t-101.5 42t-42.5 102z" />
<glyph unicode="&#xdd;" horiz-adv-x="1323" d="M4 1366h344l318 -567l323 567h330l-506 -829v-537h-299v530zM538 1503l285 271l289 -121l-402 -242z" />
<glyph unicode="&#xde;" horiz-adv-x="1294" d="M150 0v1366h290v-240q100 6 191 7q117 0 221 -19.5t183 -71t126 -137.5t47 -219q0 -94 -26.5 -176t-86 -142.5t-152.5 -95t-224 -34.5h-277v-238h-292zM442 471h226q49 0 94 6t78.5 27.5t53 64.5t19.5 119q0 117 -64.5 162t-215.5 45q-43 0 -88 -2t-103 -6v-416z" />
<glyph unicode="&#xdf;" horiz-adv-x="1206" d="M129 0v1073q0 80 17.5 147.5t65.5 118t134 78t223 27.5q209 0 315.5 -90t106.5 -238q0 -88 -38 -172t-130 -151v-2q61 -25 117.5 -64t99.5 -91t69 -117.5t26 -143.5q0 -111 -37 -186.5t-94.5 -124t-128 -70t-140.5 -21.5q-78 0 -136 9.5t-87 19.5l39 201 q23 -6 53.5 -10.5t52.5 -4.5q37 0 70 9.5t58.5 31t41 56t15.5 88.5q0 37 -12.5 75.5t-44 74.5t-87 64.5t-141.5 47.5l-33 170q106 74 159.5 143.5t53.5 143.5q0 66 -36.5 107.5t-127.5 41.5q-92 0 -126.5 -43t-34.5 -129v-1069h-283z" />
<glyph unicode="&#xe0;" horiz-adv-x="1150" d="M74 289q0 127 64.5 201.5t160.5 112.5t209 48.5t209 10.5v63q-2 66 -42 91.5t-112 25.5q-100 0 -197.5 -30t-177.5 -77l-90 193q121 59 239 91t255 32q113 0 191.5 -22.5t128 -73t72 -129t22.5 -189.5v-361q0 -51 24.5 -77.5t65.5 -48.5l-183 -177q-53 14 -95 41t-64 82 h-4q-76 -59 -159 -90t-181 -31q-74 0 -135.5 20.5t-105.5 59.5t-69.5 97.5t-25.5 136.5zM178 1399l289 119l284 -269l-172 -92zM354 309q0 -66 39 -103.5t105 -37.5t119 20.5t106 59.5v254q-51 0 -114.5 -4t-120 -22.5t-95.5 -57.5t-39 -109z" />
<glyph unicode="&#xe1;" horiz-adv-x="1150" d="M74 289q0 127 64.5 201.5t160.5 112.5t209 48.5t209 10.5v63q-2 66 -42 91.5t-112 25.5q-100 0 -197.5 -30t-177.5 -77l-90 193q121 59 239 91t255 32q113 0 191.5 -22.5t128 -73t72 -129t22.5 -189.5v-361q0 -51 24.5 -77.5t65.5 -48.5l-183 -177q-53 14 -95 41t-64 82 h-4q-76 -59 -159 -90t-181 -31q-74 0 -135.5 20.5t-105.5 59.5t-69.5 97.5t-25.5 136.5zM354 309q0 -66 39 -103.5t105 -37.5t119 20.5t106 59.5v254q-51 0 -114.5 -4t-120 -22.5t-95.5 -57.5t-39 -109zM370 1249l285 271l289 -121l-402 -242z" />
<glyph unicode="&#xe2;" horiz-adv-x="1150" d="M74 289q0 127 64.5 201.5t160.5 112.5t209 48.5t209 10.5v63q-2 66 -42 91.5t-112 25.5q-100 0 -197.5 -30t-177.5 -77l-90 193q121 59 239 91t255 32q113 0 191.5 -22.5t128 -73t72 -129t22.5 -189.5v-361q0 -51 24.5 -77.5t65.5 -48.5l-183 -177q-53 14 -95 41t-64 82 h-4q-76 -59 -159 -90t-181 -31q-74 0 -135.5 20.5t-105.5 59.5t-69.5 97.5t-25.5 136.5zM193 1307l370 200l377 -200l-117 -162l-256 151l-260 -151zM354 309q0 -66 39 -103.5t105 -37.5t119 20.5t106 59.5v254q-51 0 -114.5 -4t-120 -22.5t-95.5 -57.5t-39 -109z" />
<glyph unicode="&#xe3;" horiz-adv-x="1150" d="M74 289q0 127 64.5 201.5t160.5 112.5t209 48.5t209 10.5v63q-2 66 -42 91.5t-112 25.5q-100 0 -197.5 -30t-177.5 -77l-90 193q121 59 239 91t255 32q113 0 191.5 -22.5t128 -73t72 -129t22.5 -189.5v-361q0 -51 24.5 -77.5t65.5 -48.5l-183 -177q-53 14 -95 41t-64 82 h-4q-76 -59 -159 -90t-181 -31q-74 0 -135.5 20.5t-105.5 59.5t-69.5 97.5t-25.5 136.5zM166 1268q43 102 99.5 140t130.5 38q43 0 80.5 -14.5t71.5 -31t66 -30.5t64 -14q35 0 68 19.5t53 70.5l137 -105q-29 -92 -94 -136t-137 -44q-47 0 -85 13.5t-70.5 31t-63.5 30.5 t-62 13q-35 0 -68.5 -18.5t-56.5 -71.5zM354 309q0 -66 39 -103.5t105 -37.5t119 20.5t106 59.5v254q-51 0 -114.5 -4t-120 -22.5t-95.5 -57.5t-39 -109z" />
<glyph unicode="&#xe4;" horiz-adv-x="1150" d="M74 289q0 127 64.5 201.5t160.5 112.5t209 48.5t209 10.5v63q-2 66 -42 91.5t-112 25.5q-100 0 -197.5 -30t-177.5 -77l-90 193q121 59 239 91t255 32q113 0 191.5 -22.5t128 -73t72 -129t22.5 -189.5v-361q0 -51 24.5 -77.5t65.5 -48.5l-183 -177q-53 14 -95 41t-64 82 h-4q-76 -59 -159 -90t-181 -31q-74 0 -135.5 20.5t-105.5 59.5t-69.5 97.5t-25.5 136.5zM191 1309q0 59 41 100t100 41t100 -41t41 -100t-41 -101.5t-100 -42.5t-100 42t-41 102zM354 309q0 -66 39 -103.5t105 -37.5t119 20.5t106 59.5v254q-51 0 -114.5 -4t-120 -22.5 t-95.5 -57.5t-39 -109zM645 1309q0 59 42 100t102 41q59 0 100 -41t41 -100t-41 -101.5t-100 -42.5t-101.5 42t-42.5 102z" />
<glyph unicode="&#xe5;" horiz-adv-x="1150" d="M74 289q0 127 64.5 201.5t160.5 112.5t209 48.5t209 10.5v63q-2 66 -42 91.5t-112 25.5q-100 0 -197.5 -30t-177.5 -77l-90 193q121 59 239 91t255 32q113 0 191.5 -22.5t128 -73t72 -129t22.5 -189.5v-361q0 -51 24.5 -77.5t65.5 -48.5l-183 -177q-53 14 -95 41t-64 82 h-4q-76 -59 -159 -90t-181 -31q-74 0 -135.5 20.5t-105.5 59.5t-69.5 97.5t-25.5 136.5zM340 1364q0 98 65.5 158.5t161.5 60.5q98 0 164 -60.5t66 -158.5q0 -47 -17.5 -87t-48.5 -68.5t-73 -45t-91 -16.5q-47 0 -88 16.5t-71.5 45t-49 68.5t-18.5 87zM354 309 q0 -66 39 -103.5t105 -37.5t119 20.5t106 59.5v254q-51 0 -114.5 -4t-120 -22.5t-95.5 -57.5t-39 -109zM465 1364q0 -47 28.5 -76.5t75.5 -29.5q45 0 74 29.5t29 76.5t-29 77t-74 30q-47 0 -75.5 -30t-28.5 -77z" />
<glyph unicode="&#xe6;" horiz-adv-x="1824" d="M74 289q0 100 43 170.5t126 116t201.5 66t272.5 20.5v34q0 33 -4 58.5t-19.5 42t-46.5 25.5t-82 9q-74 0 -175 -24.5t-197 -79.5l-95 201q125 63 242 93t250 30q109 0 190.5 -27t128.5 -88q68 61 154 89t178 28q113 0 206 -38t157.5 -109.5t100.5 -174t36 -231.5v-31.5 t-4 -52.5h-727q6 -104 73.5 -160.5t190.5 -56.5q78 0 152.5 19.5t152.5 64.5l94 -195q-98 -57 -198.5 -84t-210.5 -27q-139 0 -242.5 43t-173.5 121q-78 -66 -184.5 -116t-253.5 -50q-156 0 -246 83t-90 231zM354 305q0 -66 40 -106.5t104 -40.5q53 0 121.5 31.5t140.5 84.5 q-23 39 -31 86.5t-10 102.5v33q-201 0 -283 -47.5t-82 -143.5zM1008 604h471q-10 109 -63.5 173.5t-170.5 64.5q-109 0 -172 -61.5t-65 -176.5z" />
<glyph unicode="&#xe7;" horiz-adv-x="1062" d="M86 504q0 127 37 228.5t106.5 172t169 108.5t226.5 38q104 0 206.5 -39t188.5 -109l-125 -186q-55 57 -116.5 83.5t-143.5 26.5q-72 0 -121 -24.5t-80 -66.5t-44 -98t-13 -120q0 -66 13 -124t44 -101t80 -68.5t121 -25.5q82 0 149.5 21.5t139.5 80.5l92 -190 q-88 -63 -175 -97t-194 -39l-45 -81l2 -3q10 2 23.5 3.5t23.5 1.5q74 0 117 -40t43 -118t-58.5 -130t-170.5 -52q-53 0 -101.5 15t-81.5 34l33 100q39 -23 69.5 -32t67.5 -9q35 0 65 14.5t30 55.5q0 70 -86 69q-49 0 -82 -18l-58 31l82 168q-207 23 -320.5 160t-113.5 360z " />
<glyph unicode="&#xe8;" horiz-adv-x="1173" d="M86 512q0 147 45 250.5t118 168t165 93.5t188 29q115 0 205 -39t153.5 -111t96.5 -173t33 -224q0 -10 -1.5 -36t-3.5 -48h-714q0 -111 65.5 -169t200.5 -58q84 0 153.5 20.5t151.5 65.5l92 -193q-100 -59 -199.5 -85t-211.5 -26q-133 0 -233.5 38t-168 109t-101.5 169 t-34 219zM225 1399l289 119l284 -269l-172 -92zM373 604h454q0 104 -54 174t-167 70q-61 0 -105 -19.5t-73 -53.5t-42 -78t-13 -93z" />
<glyph unicode="&#xe9;" horiz-adv-x="1173" d="M86 512q0 147 45 250.5t118 168t165 93.5t188 29q115 0 205 -39t153.5 -111t96.5 -173t33 -224q0 -10 -1.5 -36t-3.5 -48h-714q0 -111 65.5 -169t200.5 -58q84 0 153.5 20.5t151.5 65.5l92 -193q-100 -59 -199.5 -85t-211.5 -26q-133 0 -233.5 38t-168 109t-101.5 169 t-34 219zM373 604h454q0 104 -54 174t-167 70q-61 0 -105 -19.5t-73 -53.5t-42 -78t-13 -93zM430 1249l285 271l289 -121l-402 -242z" />
<glyph unicode="&#xea;" horiz-adv-x="1173" d="M86 512q0 147 45 250.5t118 168t165 93.5t188 29q115 0 205 -39t153.5 -111t96.5 -173t33 -224q0 -10 -1.5 -36t-3.5 -48h-714q0 -111 65.5 -169t200.5 -58q84 0 153.5 20.5t151.5 65.5l92 -193q-100 -59 -199.5 -85t-211.5 -26q-133 0 -233.5 38t-168 109t-101.5 169 t-34 219zM230 1311l370 200l377 -200l-117 -162l-256 151l-260 -151zM373 604h454q0 104 -54 174t-167 70q-61 0 -105 -19.5t-73 -53.5t-42 -78t-13 -93z" />
<glyph unicode="&#xeb;" horiz-adv-x="1173" d="M86 512q0 147 45 250.5t118 168t165 93.5t188 29q115 0 205 -39t153.5 -111t96.5 -173t33 -224q0 -10 -1.5 -36t-3.5 -48h-714q0 -111 65.5 -169t200.5 -58q84 0 153.5 20.5t151.5 65.5l92 -193q-100 -59 -199.5 -85t-211.5 -26q-133 0 -233.5 38t-168 109t-101.5 169 t-34 219zM244 1309q0 59 41 100t100 41t100 -41t41 -100t-41 -101.5t-100 -42.5t-100 42t-41 102zM373 604h454q0 104 -54 174t-167 70q-61 0 -105 -19.5t-73 -53.5t-42 -78t-13 -93zM698 1309q0 59 42 100t102 41q59 0 100 -41t41 -100t-41 -101.5t-100 -42.5t-101.5 42 t-42.5 102z" />
<glyph unicode="&#xec;" horiz-adv-x="546" d="M-127 1399l289 119l284 -269l-172 -92zM129 0v1028h289v-1028h-289z" />
<glyph unicode="&#xed;" horiz-adv-x="546" d="M102 1249l285 271l289 -121l-402 -242zM129 0v1028h289v-1028h-289z" />
<glyph unicode="&#xee;" horiz-adv-x="546" d="M-96 1311l370 200l377 -200l-117 -162l-256 151l-260 -151zM129 0v1028h289v-1028h-289z" />
<glyph unicode="&#xef;" horiz-adv-x="546" d="M-94 1309q0 59 41 100t100 41t100 -41t41 -100t-41 -101.5t-100 -42.5t-100 42t-41 102zM129 0v1028h289v-1028h-289zM360 1309q0 59 42 100t102 41q59 0 100 -41t41 -100t-41 -101.5t-100 -42.5t-101.5 42t-42.5 102z" />
<glyph unicode="&#xf0;" horiz-adv-x="1175" d="M86 498q0 231 111.5 356t322.5 125q94 0 152.5 -21.5t97.5 -70.5h8q-4 59 -25.5 128.5t-58.5 135.5l-227 -92l-68 145l207 84q-25 35 -52.5 64.5t-68.5 62.5l258 70l21.5 -21.5l28 -28t26.5 -27.5t19 -22l147 68l72 -145l-123 -58q41 -74 71.5 -158.5t50 -171.5t29 -168 t9.5 -145q0 -305 -129 -465.5t-398 -162.5q-109 0 -196.5 34.5t-151 101t-98.5 163t-35 219.5zM373 498q0 -160 48 -231.5t171 -71.5t169 73.5t46 223.5q0 72 -9.5 127t-34 93t-67.5 57t-108 19q-66 0 -108 -19t-65.5 -57t-32.5 -92.5t-9 -121.5z" />
<glyph unicode="&#xf1;" horiz-adv-x="1214" d="M129 0v1028h250l18 -123h4q57 82 131 114t177 32q106 0 177.5 -30t116 -86t63.5 -136t19 -178v-621h-288v575q0 51 -6.5 94.5t-24.5 74t-53 48t-95 17.5q-201 0 -200 -195v-614h-289zM231 1268q43 102 99.5 140t130.5 38q43 0 80.5 -14.5t71.5 -31t66 -30.5t64 -14 q35 0 68 19.5t53 70.5l137 -105q-29 -92 -94 -136t-137 -44q-47 0 -85 13.5t-70.5 31t-63.5 30.5t-62 13q-35 0 -68.5 -18.5t-56.5 -71.5z" />
<glyph unicode="&#xf2;" horiz-adv-x="1230" d="M86 514q0 113 29.5 210t94 170t164 115t240.5 42q262 0 396.5 -142.5t134.5 -394.5q0 -119 -33 -218t-98.5 -170t-164.5 -110t-235 -39q-133 0 -232 39t-164.5 110t-98.5 169t-33 219zM240 1399l289 119l284 -269l-172 -92zM379 514q0 -154 52 -236.5t185 -82.5 q131 0 183.5 82.5t52.5 236.5q0 152 -51 231.5t-185 79.5q-133 0 -185 -80.5t-52 -230.5z" />
<glyph unicode="&#xf3;" horiz-adv-x="1230" d="M86 514q0 113 29.5 210t94 170t164 115t240.5 42q262 0 396.5 -142.5t134.5 -394.5q0 -119 -33 -218t-98.5 -170t-164.5 -110t-235 -39q-133 0 -232 39t-164.5 110t-98.5 169t-33 219zM379 514q0 -154 52 -236.5t185 -82.5q131 0 183.5 82.5t52.5 236.5q0 152 -51 231.5 t-185 79.5q-133 0 -185 -80.5t-52 -230.5zM450 1249l285 271l289 -121l-402 -242z" />
<glyph unicode="&#xf4;" horiz-adv-x="1230" d="M86 514q0 113 29.5 210t94 170t164 115t240.5 42q262 0 396.5 -142.5t134.5 -394.5q0 -119 -33 -218t-98.5 -170t-164.5 -110t-235 -39q-133 0 -232 39t-164.5 110t-98.5 169t-33 219zM246 1311l370 200l377 -200l-117 -162l-256 151l-260 -151zM379 514 q0 -154 52 -236.5t185 -82.5q131 0 183.5 82.5t52.5 236.5q0 152 -51 231.5t-185 79.5q-133 0 -185 -80.5t-52 -230.5z" />
<glyph unicode="&#xf5;" horiz-adv-x="1230" d="M86 514q0 113 29.5 210t94 170t164 115t240.5 42q262 0 396.5 -142.5t134.5 -394.5q0 -119 -33 -218t-98.5 -170t-164.5 -110t-235 -39q-133 0 -232 39t-164.5 110t-98.5 169t-33 219zM233 1268q43 102 99.5 140t130.5 38q43 0 80.5 -14.5t71.5 -31t66 -30.5t64 -14 q35 0 68 19.5t53 70.5l137 -105q-29 -92 -94 -136t-137 -44q-47 0 -85 13.5t-70.5 31t-63.5 30.5t-62 13q-35 0 -68.5 -18.5t-56.5 -71.5zM379 514q0 -154 52 -236.5t185 -82.5q131 0 183.5 82.5t52.5 236.5q0 152 -51 231.5t-185 79.5q-133 0 -185 -80.5t-52 -230.5z" />
<glyph unicode="&#xf6;" horiz-adv-x="1230" d="M86 514q0 113 29.5 210t94 170t164 115t240.5 42q262 0 396.5 -142.5t134.5 -394.5q0 -119 -33 -218t-98.5 -170t-164.5 -110t-235 -39q-133 0 -232 39t-164.5 110t-98.5 169t-33 219zM244 1309q0 59 41 100t100 41t100 -41t41 -100t-41 -101.5t-100 -42.5t-100 42 t-41 102zM379 514q0 -154 52 -236.5t185 -82.5q131 0 183.5 82.5t52.5 236.5q0 152 -51 231.5t-185 79.5q-133 0 -185 -80.5t-52 -230.5zM698 1309q0 59 42 100t102 41q59 0 100 -41t41 -100t-41 -101.5t-100 -42.5t-101.5 42t-42.5 102z" />
<glyph unicode="&#xf7;" d="M92 432v242h1071v-242h-1071zM459 143q0 70 48 119t120 49q70 0 119 -49t49 -119q0 -72 -49.5 -121t-118.5 -49q-72 0 -120 49t-48 121zM459 977q0 70 48 119t120 49q70 0 119 -49t49 -119q0 -72 -49.5 -121t-118.5 -49q-72 0 -120 49t-48 121z" />
<glyph unicode="&#xf8;" horiz-adv-x="1230" d="M63 84l101 111q-41 66 -59.5 146.5t-18.5 172.5q0 113 29.5 210t94 170t165 115t241.5 42q170 0 287 -64l117 117l133 -121l-109 -115q53 -70 77 -160t24 -194q0 -119 -32 -218t-97.5 -170t-164.5 -110t-235 -39q-197 0 -323 91l-107 -115zM379 514q0 -23 2 -60.5 t10 -58.5l346 381q-23 23 -54.5 33t-66.5 10q-133 0 -185 -77.5t-52 -227.5zM459 264q23 -31 67.5 -47t91.5 -16q129 0 181.5 78.5t52.5 234.5q0 35 -5 78t-16 72z" />
<glyph unicode="&#xf9;" horiz-adv-x="1196" d="M129 385v643h289v-549q0 -59 4 -108t20.5 -83t51 -52.5t96.5 -18.5q117 0 152.5 54.5t35.5 152.5v604h289v-1028h-252l-16 119h-8q-45 -68 -117 -106t-178 -38q-86 0 -155 18.5t-116 65.5t-71.5 126t-24.5 200zM201 1399l289 119l284 -269l-172 -92z" />
<glyph unicode="&#xfa;" horiz-adv-x="1196" d="M129 385v643h289v-549q0 -59 4 -108t20.5 -83t51 -52.5t96.5 -18.5q117 0 152.5 54.5t35.5 152.5v604h289v-1028h-252l-16 119h-8q-45 -68 -117 -106t-178 -38q-86 0 -155 18.5t-116 65.5t-71.5 126t-24.5 200zM409 1249l285 271l289 -121l-402 -242z" />
<glyph unicode="&#xfb;" horiz-adv-x="1196" d="M129 385v643h289v-549q0 -59 4 -108t20.5 -83t51 -52.5t96.5 -18.5q117 0 152.5 54.5t35.5 152.5v604h289v-1028h-252l-16 119h-8q-45 -68 -117 -106t-178 -38q-86 0 -155 18.5t-116 65.5t-71.5 126t-24.5 200zM232 1311l370 200l377 -200l-117 -162l-256 151l-260 -151z " />
<glyph unicode="&#xfc;" horiz-adv-x="1196" d="M129 385v643h289v-549q0 -59 4 -108t20.5 -83t51 -52.5t96.5 -18.5q117 0 152.5 54.5t35.5 152.5v604h289v-1028h-252l-16 119h-8q-45 -68 -117 -106t-178 -38q-86 0 -155 18.5t-116 65.5t-71.5 126t-24.5 200zM232 1309q0 59 41 100t100 41t100 -41t41 -100t-41 -101.5 t-100 -42.5t-100 42t-41 102zM686 1309q0 59 42 100t102 41q59 0 100 -41t41 -100t-41 -101.5t-100 -42.5t-101.5 42t-42.5 102z" />
<glyph unicode="&#xfd;" horiz-adv-x="1124" d="M14 1028h314l233 -713h8l232 713h309l-424 -1071q-51 -127 -92 -209t-89 -129t-111.5 -64.5t-157.5 -17.5q-29 0 -67 3t-87 7v240q14 -4 41 -5t74 -1q41 0 66.5 6t44 20.5t31.5 38t28 58.5l49 119zM391 1249l285 271l289 -121l-402 -242z" />
<glyph unicode="&#xfe;" horiz-adv-x="1208" d="M129 -451v1885h268v-512h9q55 70 123.5 99.5t158.5 29.5q106 0 188 -38t136.5 -107.5t82 -166t27.5 -215.5q0 -121 -30.5 -221t-89 -173t-143.5 -113t-191 -40q-86 0 -139.5 29t-102.5 88h-8v-545h-289zM418 428q0 -123 43 -178t147 -55q123 0 172 83.5t49 243.5 q0 156 -44 234t-173 78q-102 0 -148 -43t-46 -140v-223z" />
<glyph unicode="&#xff;" horiz-adv-x="1124" d="M14 1028h314l233 -713h8l232 713h309l-424 -1071q-51 -127 -92 -209t-89 -129t-111.5 -64.5t-157.5 -17.5q-29 0 -67 3t-87 7v240q14 -4 41 -5t74 -1q41 0 66.5 6t44 20.5t31.5 38t28 58.5l49 119zM203 1309q0 59 41 100t100 41t100 -41t41 -100t-41 -101.5t-100 -42.5 t-100 42t-41 102zM657 1309q0 59 42 100t102 41q59 0 100 -41t41 -100t-41 -101.5t-100 -42.5t-101.5 42t-42.5 102z" />
<glyph unicode="&#x152;" horiz-adv-x="1959" d="M115 684q0 180 46 313t132 220.5t208 129.5t273 42q59 0 119.5 -6.5t112.5 -16.5h858v-250h-559v-289h499v-254h-499v-329h579v-244h-878q-51 -10 -113 -15t-119 -5q-152 0 -273.5 41.5t-207.5 128t-132 219.5t-46 315zM426 684q0 -111 17.5 -197t58.5 -145t110.5 -90 t173.5 -31q72 0 126.5 10.5t93.5 26.5v848q-39 18 -93.5 29.5t-126.5 11.5q-104 0 -173.5 -31t-110.5 -89t-58.5 -145t-17.5 -198z" />
<glyph unicode="&#x153;" horiz-adv-x="1957" d="M86 514q0 117 30.5 215t96.5 170t165 112t238 40q125 0 222.5 -38t162.5 -116q72 80 170.5 118t204.5 38q113 0 205 -39t157.5 -111t100.5 -174t35 -229v-31.5t-2 -50.5h-729q12 -219 266 -219q154 0 303 84l94 -195q-98 -55 -197.5 -83t-211.5 -28q-129 0 -224.5 41 t-164.5 115q-133 -156 -392 -156q-262 0 -396 142.5t-134 394.5zM379 514q0 -172 58.5 -242.5t178.5 -70.5q121 0 177.5 70.5t56.5 242.5q0 154 -51 229.5t-183 75.5q-133 0 -185 -75.5t-52 -229.5zM1143 604h471q-10 102 -63.5 170t-170.5 68q-111 0 -173 -62.5t-64 -175.5 z" />
<glyph unicode="&#x178;" horiz-adv-x="1323" d="M4 1366h344l318 -567l323 567h330l-506 -829v-537h-299v530zM299 1596q0 59 41 100t100 41t100 -41t41 -100t-41 -101.5t-100 -42.5t-100 42t-41 102zM753 1596q0 59 42 100t102 41q59 0 100 -41t41 -100t-41 -101.5t-100 -42.5t-101.5 42t-42.5 102z" />
<glyph unicode="&#x2c6;" horiz-adv-x="712" d="M-16 1311l370 200l377 -200l-117 -162l-256 151l-260 -151z" />
<glyph unicode="&#x2dc;" horiz-adv-x="712" d="M-29 1268q43 102 99.5 140t130.5 38q43 0 80.5 -14.5t71.5 -31t66 -30.5t64 -14q35 0 68 19.5t53 70.5l137 -105q-29 -92 -94 -136t-137 -44q-47 0 -85 13.5t-70.5 31t-63.5 30.5t-62 13q-35 0 -68.5 -18.5t-56.5 -71.5z" />
<glyph unicode="&#x2000;" horiz-adv-x="907" />
<glyph unicode="&#x2001;" horiz-adv-x="1815" />
<glyph unicode="&#x2002;" horiz-adv-x="907" />
<glyph unicode="&#x2003;" horiz-adv-x="1815" />
<glyph unicode="&#x2004;" horiz-adv-x="605" />
<glyph unicode="&#x2005;" horiz-adv-x="453" />
<glyph unicode="&#x2006;" horiz-adv-x="302" />
<glyph unicode="&#x2007;" horiz-adv-x="302" />
<glyph unicode="&#x2008;" horiz-adv-x="226" />
<glyph unicode="&#x2009;" horiz-adv-x="363" />
<glyph unicode="&#x200a;" horiz-adv-x="100" />
<glyph unicode="&#x2010;" horiz-adv-x="784" d="M98 399v271h588v-271h-588z" />
<glyph unicode="&#x2011;" horiz-adv-x="784" d="M98 399v271h588v-271h-588z" />
<glyph unicode="&#x2012;" horiz-adv-x="784" d="M98 399v271h588v-271h-588z" />
<glyph unicode="&#x2013;" horiz-adv-x="1204" d="M90 426v219h1024v-219h-1024z" />
<glyph unicode="&#x2014;" horiz-adv-x="1773" d="M90 430v211h1593v-211h-1593z" />
<glyph unicode="&#x2018;" horiz-adv-x="557" d="M29 932l227 502h205l-109 -502h-323z" />
<glyph unicode="&#x2019;" horiz-adv-x="557" d="M96 932l109 502h323l-227 -502h-205z" />
<glyph unicode="&#x201a;" horiz-adv-x="557" d="M96 -365l109 502h323l-227 -502h-205z" />
<glyph unicode="&#x201c;" horiz-adv-x="1056" d="M29 932l227 502h205l-109 -502h-323zM528 932l228 502h205l-109 -502h-324z" />
<glyph unicode="&#x201d;" horiz-adv-x="1056" d="M96 932l109 502h323l-227 -502h-205zM594 932l108 502h326l-229 -502h-205z" />
<glyph unicode="&#x201e;" horiz-adv-x="1056" d="M96 -367l109 504h323l-227 -504h-205zM594 -367l108 504h326l-229 -504h-205z" />
<glyph unicode="&#x2022;" horiz-adv-x="1058" d="M188 674q0 70 27 132t73 108.5t107.5 73t132.5 26.5q72 0 134.5 -26.5t108.5 -73t72.5 -108.5t26.5 -132q0 -72 -26.5 -133.5t-72.5 -107.5t-108.5 -72.5t-134.5 -26.5t-133 26.5t-107 72.5t-73 107.5t-27 133.5z" />
<glyph unicode="&#x2026;" horiz-adv-x="1714" d="M96 115q0 57 50.5 95t121.5 38q76 0 125 -38t49 -95q0 -59 -49 -98.5t-123 -39.5q-76 0 -125 39t-49 99zM682 115q0 57 51 95t123 38q74 0 124 -38t50 -95q0 -59 -50 -98.5t-122 -39.5q-76 0 -126 39t-50 99zM1272 115q0 57 50 95t122 38q76 0 125 -38t49 -95 q0 -59 -49 -98.5t-123 -39.5t-124 39t-50 99z" />
<glyph unicode="&#x202f;" horiz-adv-x="363" />
<glyph unicode="&#x2039;" horiz-adv-x="552" d="M29 614l256 414l194 -96l-207 -320l207 -317l-194 -96z" />
<glyph unicode="&#x203a;" horiz-adv-x="552" d="M74 295l207 317l-207 320l194 96l256 -414l-256 -415z" />
<glyph unicode="&#x205f;" horiz-adv-x="453" />
<glyph unicode="&#x20ac;" d="M31 451l2 157h143q-2 20 -2 41v43v28.5t2 31.5h-145l2 155h160q16 113 51 202t96 151.5t152.5 95.5t222.5 33q76 0 139.5 -13.5t119.5 -39t110.5 -65.5t109.5 -93l-164 -177q-72 84 -142.5 116t-156.5 32q-129 0 -183 -57.5t-73 -184.5h467v-155h-475v-62v-42t2 -40h473 v-157h-463q8 -47 21.5 -89.5t41 -76t74 -53t117.5 -19.5q98 0 176 44t154 132l154 -188q-111 -115 -231 -171.5t-263 -56.5q-139 0 -231.5 33t-151.5 95.5t-93 150.5t-54 199h-162z" />
<glyph unicode="&#x2122;" horiz-adv-x="1449" d="M86 1311v123h502v-123h-176v-416h-148v416h-178zM698 895v539h125l185 -258l178 258h127v-539h-144l2 287l-163 -226l-170 226l2 -287h-142z" />
<glyph unicode="&#x25fc;" horiz-adv-x="1024" d="M0 0v1024h1024v-1024h-1024z" />
</font>
</defs>
</svg>
