<?xml version="1.0" standalone="no"?>
<!DOCTYPE svg PUBLIC "-//W3C//DTD SVG 1.1//EN" "http://www.w3.org/Graphics/SVG/1.1/DTD/svg11.dtd" >
<svg>
<metadata>
Created by FontForge 20090622 at Tue Jun 30 16:48:31 2015
 By deploy user
&#194;&#169;2009 Schwartzco Inc.
</metadata>
<defs>
<font id="StagStencilATT-LightItalic" horiz-adv-x="503" >
  <font-face 
    font-family="Stag Stencil ATT Light"
    font-weight="300"
    font-style="italic"
    font-stretch="normal"
    units-per-em="1000"
    panose-1="2 0 6 3 6 0 0 2 0 4"
    ascent="800"
    descent="-200"
    x-height="522"
    cap-height="700"
    bbox="-223 -196 1058 921"
    underline-thickness="20"
    underline-position="-113"
    slope="-12"
    unicode-range="U+0020-U+FB04"
  />
<missing-glyph horiz-adv-x="500" 
 />
    <glyph glyph-name="f_f" unicode="ff" horiz-adv-x="559" 
d="M200 -162l8 34q65 28 84 114l127 589q29 130 156 130q55 0 83 -13l-8 -39h-30q-14 12 -45 12q-42 0 -65 -21t-35 -75l-127 -584q-25 -111 -112 -147h-36zM-54 -162l8 34q65 28 84 114l107 498h-75l9 38h74l10 44q29 132 149 132q45 0 75 -13l-8 -39h-30q-12 12 -37 12
q-37 0 -59 -21.5t-33 -72.5l-126 -579q-23 -110 -112 -147h-36zM580 484h-93l9 38h93zM233 484l8 38h136l-8 -38h-136z" />
    <glyph glyph-name="f_i" unicode="fi" 
d="M462 596q-16 0 -27 11t-11 26q0 17 12 29t28 12q17 0 27.5 -11t10.5 -26q0 -17 -11.5 -29t-28.5 -12zM-54 -162l8 34q65 28 84 114l107 498h-75l9 38h74l12 53q29 130 151 130q48 0 78 -13l-8 -39h-30q-12 12 -40 12q-38 0 -60 -20.5t-34 -71.5l-128 -588
q-23 -110 -112 -147h-36zM309 84l101 438h6q23 0 34 -15.5t5 -40.5l-89 -385q-4 -18 6.5 -31.5t28.5 -13.5h31l-7 -30q-20 -10 -54 -10q-38 0 -55 23.5t-7 64.5zM233 484l9 38h137l-9 -38h-137z" />
    <glyph glyph-name="f_l" unicode="fl" 
d="M220 564l-126 -579q-23 -110 -112 -147h-36l8 34q65 28 84 114l107 498h-75l9 38h74l10 44q31 139 185 139q40 0 73 -5l-10 -41q-21 6 -62 6q-107 0 -129 -101zM309 84l143 616h42q14 0 11 -18l-139 -601q-4 -18 6 -31.5t27 -13.5h36l-7 -30q-27 -10 -55 -10
q-39 0 -56.5 23.5t-7.5 64.5zM316 484h-83l8 38h84z" />
    <glyph glyph-name="f_f_i" unicode="ffi" horiz-adv-x="757" 
d="M-54 -162l8 34q65 28 84 114l107 498h-75l9 38h74l10 44q29 132 149 132q45 0 75 -13l-8 -39h-30q-12 12 -37 12q-37 0 -59 -21.5t-33 -72.5l-126 -579q-23 -110 -112 -147h-36zM233 484l8 38h136l-8 -38h-136zM716 596q-16 0 -27 11t-11 26q0 17 12 29t28 12
q17 0 27.5 -11t10.5 -26q0 -17 -11.5 -29t-28.5 -12zM200 -162l8 34q65 28 84 114l127 589q29 130 151 130q48 0 78 -13l-8 -39h-30q-12 12 -40 12q-38 0 -60 -20.5t-34 -71.5l-128 -588q-23 -110 -112 -147h-36zM563 84l101 438h6q23 0 34 -15.5t5 -40.5l-89 -385
q-4 -18 6.5 -31.5t28.5 -13.5h31l-7 -30q-20 -10 -54 -10q-38 0 -55 23.5t-7 64.5zM487 484l9 38h137l-9 -38h-137z" />
    <glyph glyph-name="f_f_l" unicode="ffl" horiz-adv-x="757" 
d="M-54 -162l8 34q65 28 84 114l107 498h-75l9 38h74l10 44q29 132 149 132q45 0 75 -13l-8 -39h-30q-12 12 -37 12q-37 0 -59 -21.5t-33 -72.5l-126 -579q-23 -110 -112 -147h-36zM233 484l8 38h136l-8 -38h-136zM474 564l-126 -579q-23 -110 -112 -147h-36l8 34
q65 28 84 114l125 580q31 139 185 139q40 0 73 -5l-10 -41q-21 6 -62 6q-107 0 -129 -101zM563 84l143 616h42q14 0 11 -18l-139 -601q-4 -18 6 -31.5t27 -13.5h36l-7 -30q-27 -10 -55 -10q-39 0 -56.5 23.5t-7.5 64.5zM580 484h-93l8 38h94z" />
    <glyph glyph-name="f_b" unicode="fb" horiz-adv-x="833" 
d="M220 564l-126 -579q-23 -110 -112 -147h-36l8 34q65 28 84 114l107 498h-75l9 38h74l10 44q31 139 185 139q40 0 73 -5l-10 -41q-21 6 -62 6q-107 0 -129 -101zM326 484h-93l8 38h94zM508 35q94 0 156 69q81 91 81 248q0 132 -101 132q-82 0 -173 -82l11 48q86 77 177 77
q66 0 105.5 -42.5t39.5 -126.5q0 -85 -28.5 -161.5t-74.5 -123.5q-76 -77 -189 -77q-87 0 -135 37l14 31q44 -29 117 -29zM505 682l-136 -590q-5 -21 -24 -56.5t-31 -35.5h-24l161 700h43q16 0 11 -18z" />
    <glyph glyph-name="f_h" unicode="fh" horiz-adv-x="842" 
d="M220 564l-126 -579q-23 -110 -112 -147h-36l8 34q65 28 84 114l107 498h-75l9 38h74l10 44q31 139 185 139q40 0 73 -5l-10 -41q-21 6 -62 6q-107 0 -129 -101zM326 484h-93l8 38h94zM505 682l-157 -682h-37q-22 0 -14 29l154 671h43q16 0 11 -18zM712 -4q-35 0 -52 23.5
t-8 62.5l70 304q11 47 -4.5 70.5t-52.5 23.5q-85 0 -195 -80l10 43q108 84 206 84q57 0 83.5 -35.5t11.5 -99.5l-71 -309q-4 -19 6 -33t27 -14h30l-7 -30q-23 -10 -54 -10z" />
    <glyph glyph-name="f_j" unicode="fj" 
d="M-54 -162l8 34q65 28 84 114l107 498h-75l9 38h74l12 53q29 130 151 130q48 0 78 -13l-8 -39h-30q-12 12 -40 12q-38 0 -60 -20.5t-34 -71.5l-128 -588q-23 -110 -112 -147h-36zM233 484l9 38h137l-9 -38h-137zM410 522h6q23 0 34 -15.5t5 -40.5l-121 -523
q-25 -108 -131 -108q-39 0 -75 14l9 39h29q12 -15 37 -15q33 0 49 17t25 56zM461 596q-16 0 -27 11t-11 26q0 17 12 29t28 12q17 0 27.5 -11t10.5 -26q0 -17 -11.5 -29t-28.5 -12z" />
    <glyph glyph-name="f_k" unicode="fk" horiz-adv-x="766" 
d="M220 564l-126 -579q-23 -110 -112 -147h-36l8 34q65 28 84 114l107 498h-75l9 38h74l10 44q31 139 185 139q40 0 73 -5l-10 -41q-21 6 -62 6q-107 0 -129 -101zM326 484h-93l8 38h94zM452 700h42q16 0 11 -18l-157 -682h-37q-21 0 -15 29zM765 491q-49 -72 -138 -147.5
t-200 -131.5l12 51q99 53 172.5 123t103.5 136h57zM663 -4q-28 0 -44 15t-29 47l-68 172l46 31l74 -182q16 -43 51 -43h27l-7 -28q-18 -12 -50 -12z" />
    <glyph glyph-name="f_t" unicode="ft" horiz-adv-x="569" 
d="M-54 -162l8 34q65 28 84 114l107 498h-75l9 38h74l12 53q29 130 151 130q48 0 78 -13l-8 -39h-30q-12 12 -40 12q-38 0 -60 -20.5t-34 -71.5l-128 -588q-23 -110 -112 -147h-36zM233 484l9 38h135l-8 -38h-136zM498 666l-123 -535q-22 -96 48 -96q33 0 50 10h29l-8 -36
q-37 -14 -76 -14q-64 0 -89.5 36t-11.5 100l124 535h57zM583 484h-97l9 38h97z" />
    <glyph glyph-name="f_f_b" unicode="ffb" horiz-adv-x="1087" 
d="M-54 -162l8 34q65 28 84 114l107 498h-75l9 38h74l10 44q29 132 149 132q45 0 75 -13l-8 -39h-30q-12 12 -37 12q-37 0 -59 -21.5t-33 -72.5l-126 -579q-23 -110 -112 -147h-36zM233 484l8 38h136l-8 -38h-136zM474 564l-126 -579q-23 -110 -112 -147h-36l8 34
q65 28 84 114l125 580q31 139 185 139q40 0 73 -5l-10 -41q-21 6 -62 6q-107 0 -129 -101zM580 484h-93l8 38h94zM762 35q94 0 156 69q81 91 81 248q0 132 -101 132q-82 0 -173 -82l11 48q86 77 177 77q66 0 105.5 -42.5t39.5 -126.5q0 -85 -28.5 -161.5t-74.5 -123.5
q-76 -77 -189 -77q-87 0 -135 37l14 31q44 -29 117 -29zM759 682l-80 -348l-48 -207l-8 -35q-5 -21 -24 -56.5t-31 -35.5h-24l161 700h43q16 0 11 -18z" />
    <glyph glyph-name="f_f_h" unicode="ffh" horiz-adv-x="1096" 
d="M-54 -162l8 34q65 28 84 114l107 498h-75l9 38h74l10 44q29 132 149 132q45 0 75 -13l-8 -39h-30q-12 12 -37 12q-37 0 -59 -21.5t-33 -72.5l-126 -579q-23 -110 -112 -147h-36zM233 484l8 38h136l-8 -38h-136zM474 564l-126 -579q-23 -110 -112 -147h-36l8 34
q65 28 84 114l125 580q31 139 185 139q40 0 73 -5l-10 -41q-21 6 -62 6q-107 0 -129 -101zM580 484h-93l8 38h94zM759 682l-157 -682h-37q-22 0 -14 29l154 671h43q16 0 11 -18zM966 -4q-35 0 -52 23.5t-8 62.5l70 304q11 47 -4.5 70.5t-52.5 23.5q-85 0 -195 -80l10 43
q108 84 206 84q57 0 83.5 -35.5t11.5 -99.5l-71 -309q-4 -19 6 -33t27 -14h30l-7 -30q-23 -10 -54 -10z" />
    <glyph glyph-name="f_f_j" unicode="ffj" horiz-adv-x="757" 
d="M-54 -162l8 34q65 28 84 114l107 498h-75l9 38h74l10 44q29 132 149 132q45 0 75 -13l-8 -39h-30q-12 12 -37 12q-37 0 -59 -21.5t-33 -72.5l-126 -579q-23 -110 -112 -147h-36zM233 484l8 38h136l-8 -38h-136zM200 -162l8 34q65 28 84 114l127 589q29 130 151 130
q48 0 78 -13l-8 -39h-30q-12 12 -40 12q-38 0 -60 -20.5t-34 -71.5l-128 -588q-23 -110 -112 -147h-36zM487 484l9 38h137l-9 -38h-137zM664 522h6q23 0 34 -15.5t5 -40.5l-121 -523q-25 -108 -131 -108q-39 0 -75 14l9 39h29q12 -15 37 -15q33 0 49 17t25 56zM715 596
q-16 0 -27 11t-11 26q0 17 12 29t28 12q17 0 27.5 -11t10.5 -26q0 -17 -11.5 -29t-28.5 -12z" />
    <glyph glyph-name="f_f_k" unicode="ffk" horiz-adv-x="1020" 
d="M-54 -162l8 34q65 28 84 114l107 498h-75l9 38h74l10 44q29 132 149 132q45 0 75 -13l-8 -39h-30q-12 12 -37 12q-37 0 -59 -21.5t-33 -72.5l-126 -579q-23 -110 -112 -147h-36zM233 484l8 38h136l-8 -38h-136zM474 564l-126 -579q-23 -110 -112 -147h-36l8 34
q65 28 84 114l125 580q31 139 185 139q40 0 73 -5l-10 -41q-21 6 -62 6q-107 0 -129 -101zM580 484h-93l8 38h94zM706 700h42q16 0 11 -18l-157 -682h-37q-21 0 -15 29zM1019 491q-49 -72 -138 -147.5t-200 -131.5l12 51q99 53 172.5 123t103.5 136h57zM917 -4q-28 0 -44 15
t-29 47l-68 172l46 31l74 -182q16 -43 51 -43h27l-7 -28q-18 -12 -50 -12z" />
    <glyph glyph-name="f_f_t" unicode="fft" horiz-adv-x="823" 
d="M-54 -162l8 34q65 28 84 114l107 498h-75l9 38h74l10 44q29 132 149 132q45 0 75 -13l-8 -39h-30q-12 12 -37 12q-37 0 -59 -21.5t-33 -72.5l-126 -579q-23 -110 -112 -147h-36zM233 484l8 38h136l-8 -38h-136zM200 -162l8 34q65 28 84 114l127 589q29 130 151 130
q48 0 78 -13l-8 -39h-30q-12 12 -40 12q-38 0 -60 -20.5t-34 -71.5l-128 -588q-23 -110 -112 -147h-36zM487 484l9 38h135l-8 -38h-136zM752 666l-123 -535q-22 -96 48 -96q33 0 50 10h29l-8 -36q-37 -14 -76 -14q-64 0 -89.5 36t-11.5 100l124 535h57zM837 484h-97l9 38h97
z" />
    <glyph glyph-name="f_igrave" unicode="f&#xec;" 
d="M442 573l-60 105l6 26h48l41 -131h-35zM309 84l101 438h6q24 0 34 -15.5t5 -40.5l-89 -385q-1 -3 -1 -9q0 -15 10.5 -25.5t25.5 -10.5h31l-7 -30q-20 -10 -54 -10q-31 0 -48.5 16t-17.5 45q0 7 4 27zM233 484l9 38h137l-9 -38h-137zM-54 -162l8 34q65 28 84 114l107 498
h-75l9 38h74l15 67q26 116 127 116q39 0 63 -12l-8 -39h-29q-9 11 -26 11q-30 0 -45 -17.5t-24 -60.5l-132 -602q-25 -111 -112 -147h-36z" />
    <glyph glyph-name="f_iacute" unicode="f&#xed;" 
d="M417 573l85 127h62l-6 -25l-102 -102h-39zM-54 -162l8 34q65 28 84 114l107 498h-75l9 38h74l12 53q29 130 151 130q48 0 78 -13l-8 -39h-30q-12 12 -40 12q-38 0 -60 -20.5t-34 -71.5l-128 -588q-23 -110 -112 -147h-36zM309 84l101 438h6q23 0 34 -15.5t5 -40.5
l-89 -385q-4 -18 6.5 -31.5t28.5 -13.5h31l-7 -30q-20 -10 -54 -10q-38 0 -55 23.5t-7 64.5zM233 484l9 38h137l-9 -38h-137z" />
    <glyph glyph-name="f_icircumflex" unicode="f&#xee;" 
d="M343 573l5 20l90 107h53l50 -107l-5 -20h-25l-51 88l-87 -88h-30zM226 587l-132 -602q-23 -110 -112 -147h-36l8 34q65 28 84 114l107 498h-75l9 38h74l15 67q26 116 135 116q41 0 67 -13l-8 -39h-30q-10 12 -32 12q-29 0 -46.5 -18t-27.5 -60zM309 84l101 438h6
q23 0 34 -15.5t5 -40.5l-89 -385q-4 -18 6.5 -31.5t28.5 -13.5h31l-7 -30q-20 -10 -54 -10q-38 0 -55 23.5t-7 64.5zM233 484l9 38h137l-9 -38h-137z" />
    <glyph glyph-name="f_idieresis" unicode="f&#xef;" 
d="M226 587l-132 -602q-23 -110 -112 -147h-36l8 34q65 28 84 114l107 498h-75l9 38h74l15 67q26 116 125 116q36 0 60 -12l-8 -39h-29q-8 11 -27 11q-25 0 -39.5 -18t-23.5 -60zM408 597q-16 0 -26 10t-10 26q0 17 11.5 28.5t27.5 11.5q15 0 25.5 -10.5t10.5 -25.5
q0 -16 -11.5 -28t-27.5 -12zM521 597q-16 0 -26 10t-10 26t12 28t27 12t25.5 -10.5t10.5 -25.5q0 -16 -11.5 -28t-27.5 -12zM233 484l9 38h137l-9 -38h-137zM309 84l101 438h6q23 0 34 -15.5t5 -40.5l-89 -385q-4 -18 6.5 -31.5t28.5 -13.5h31l-7 -30q-20 -10 -54 -10
q-38 0 -55 23.5t-7 64.5z" />
    <glyph glyph-name="f_iogonek" unicode="f&#x12f;" 
d="M-54 -162l8 34q65 28 84 114l107 498h-75l9 38h74l12 53q29 130 151 130q48 0 78 -13l-8 -39h-30q-12 12 -40 12q-38 0 -60 -20.5t-34 -71.5l-128 -588q-23 -110 -112 -147h-36zM309 84l101 438h6q23 0 34 -15.5t5 -40.5l-89 -385q-4 -18 6.5 -31.5t28.5 -13.5h31l-7 -30
q-20 -10 -54 -10q-38 0 -55 23.5t-7 64.5zM322 -23l41 -6q-38 -33 -38 -69q0 -31 34 -31q15 0 25 7h23l-7 -33q-23 -9 -50 -9q-36 0 -56 16.5t-20 45.5q0 45 48 79zM233 484l9 38h137l-9 -38h-137zM462 596q-16 0 -27 11t-11 26q0 17 12 29t28 12q17 0 27.5 -11t10.5 -26
q0 -17 -11.5 -29t-28.5 -12z" />
    <glyph glyph-name="f_imacron" unicode="f&#x12b;" 
d="M377 609l10 40h158l-10 -40h-158zM309 84l101 438h6q23 0 34 -15.5t5 -40.5l-88 -385q-4 -18 6.5 -31.5t27.5 -13.5h31l-7 -30q-20 -10 -54 -10q-38 0 -55 23.5t-7 64.5zM233 484l9 38h137l-9 -38h-137zM-54 -162l8 34q65 28 84 114l107 498h-75l9 38h74l15 67
q26 116 135 116q41 0 67 -13l-8 -39h-30q-10 12 -32 12q-29 0 -46.5 -18t-27.5 -60l-132 -602q-23 -110 -112 -147h-36z" />
    <glyph glyph-name="f_f_igrave" unicode="ff&#xec;" horiz-adv-x="757" 
d="M-54 -162l8 34q65 28 84 114l107 498h-75l9 38h74l10 44q29 132 149 132q45 0 75 -13l-8 -39h-30q-12 12 -37 12q-37 0 -59 -21.5t-33 -72.5l-126 -579q-23 -110 -112 -147h-36zM233 484l8 38h136l-8 -38h-136zM696 573l-60 105l6 26h48l41 -131h-35zM487 484l9 38h137
l-9 -38h-137zM200 -162l8 34q65 28 84 114l130 603q26 116 127 116q39 0 63 -12l-8 -39h-29q-9 11 -26 11q-30 0 -45 -17.5t-24 -60.5l-132 -602q-25 -111 -112 -147h-36zM563 84l101 438h6q23 0 34 -15.5t5 -40.5l-88 -385q-4 -18 6.5 -31.5t27.5 -13.5h31l-7 -30
q-20 -10 -54 -10q-38 0 -55 23.5t-7 64.5z" />
    <glyph glyph-name="f_f_iacute" unicode="ff&#xed;" horiz-adv-x="757" 
d="M-54 -162l8 34q65 28 84 114l107 498h-75l9 38h74l10 44q29 132 149 132q45 0 75 -13l-8 -39h-30q-12 12 -37 12q-37 0 -59 -21.5t-33 -72.5l-126 -579q-23 -110 -112 -147h-36zM233 484l8 38h136l-8 -38h-136zM671 573l85 127h62l-6 -25l-102 -102h-39zM200 -162l8 34
q65 28 84 114l127 589q29 130 151 130q48 0 78 -13l-8 -39h-30q-12 12 -40 12q-38 0 -60 -20.5t-34 -71.5l-128 -588q-23 -110 -112 -147h-36zM563 84l101 438h6q23 0 34 -15.5t5 -40.5l-89 -385q-4 -18 6.5 -31.5t28.5 -13.5h31l-7 -30q-20 -10 -54 -10q-38 0 -55 23.5
t-7 64.5zM487 484l9 38h137l-9 -38h-137z" />
    <glyph glyph-name="f_f_icircumflex" unicode="ff&#xee;" horiz-adv-x="757" 
d="M-54 -162l8 34q65 28 84 114l107 498h-75l9 38h74l10 44q29 132 149 132q45 0 75 -13l-8 -39h-30q-12 12 -37 12q-37 0 -59 -21.5t-33 -72.5l-126 -579q-23 -110 -112 -147h-36zM233 484l8 38h136l-8 -38h-136zM597 573l5 20l90 107h53l50 -107l-5 -20h-25l-51 88
l-87 -88h-30zM480 587l-132 -602q-23 -110 -112 -147h-36l8 34q65 28 84 114l130 603q26 116 135 116q41 0 67 -13l-8 -39h-30q-10 12 -32 12q-29 0 -46.5 -18t-27.5 -60zM563 84l101 438h6q23 0 34 -15.5t5 -40.5l-89 -385q-4 -18 6.5 -31.5t28.5 -13.5h31l-7 -30
q-20 -10 -54 -10q-38 0 -55 23.5t-7 64.5zM487 484l9 38h137l-9 -38h-137z" />
    <glyph glyph-name="f_f_idieresis" unicode="ff&#xef;" horiz-adv-x="757" 
d="M-54 -162l8 34q65 28 84 114l107 498h-75l9 38h74l10 44q29 132 149 132q45 0 75 -13l-8 -39h-30q-12 12 -37 12q-37 0 -59 -21.5t-33 -72.5l-126 -579q-23 -110 -112 -147h-36zM233 484l8 38h136l-8 -38h-136zM662 597q-16 0 -26 10t-10 26q0 17 11.5 28.5t27.5 11.5
q15 0 25.5 -10.5t10.5 -25.5q0 -16 -11.5 -28t-27.5 -12zM775 597q-16 0 -26 10t-10 26t12 28t27 12t25.5 -10.5t10.5 -25.5q0 -16 -11.5 -28t-27.5 -12zM487 484l9 38h137l-9 -38h-137zM563 84l101 438h6q23 0 34 -15.5t5 -40.5l-88 -385q-4 -18 6.5 -31.5t27.5 -13.5h31
l-7 -30q-20 -10 -54 -10q-38 0 -55 23.5t-7 64.5zM480 587l-132 -602q-23 -110 -112 -147h-36l8 34q65 28 84 114l130 603q26 116 125 116q36 0 60 -12l-8 -39h-29q-8 11 -27 11q-25 0 -39.5 -18t-23.5 -60z" />
    <glyph glyph-name="f_f_iogonek" unicode="ff&#x12f;" horiz-adv-x="757" 
d="M-54 -162l8 34q65 28 84 114l107 498h-75l9 38h74l10 44q29 132 149 132q45 0 75 -13l-8 -39h-30q-12 12 -37 12q-37 0 -59 -21.5t-33 -72.5l-126 -579q-23 -110 -112 -147h-36zM200 -162l8 34q65 28 84 114l127 589q29 130 151 130q48 0 78 -13l-8 -39h-30
q-12 12 -40 12q-38 0 -60 -20.5t-34 -71.5l-128 -588q-23 -110 -112 -147h-36zM563 84l101 438h6q23 0 34 -15.5t5 -40.5l-89 -385q-4 -18 6.5 -31.5t28.5 -13.5h31l-7 -30q-20 -10 -54 -10q-37 0 -54.5 23.5t-7.5 64.5zM576 -23l41 -6q-38 -33 -38 -69q0 -31 34 -31
q15 0 25 7h23l-7 -33q-23 -9 -50 -9q-36 0 -56 16.5t-20 45.5q0 45 48 79zM487 484l9 38h137l-9 -38h-137zM233 484l8 38h136l-8 -38h-136zM716 596q-16 0 -27 11t-11 26q0 17 12 29t28 12q17 0 27.5 -11t10.5 -26q0 -17 -11.5 -29t-28.5 -12z" />
    <glyph glyph-name="f_f_imacron" unicode="ff&#x12b;" horiz-adv-x="757" 
d="M-54 -162l8 34q65 28 84 114l107 498h-75l9 38h74l10 44q29 132 149 132q45 0 75 -13l-8 -39h-30q-12 12 -37 12q-37 0 -59 -21.5t-33 -72.5l-126 -579q-23 -110 -112 -147h-36zM233 484l8 38h136l-8 -38h-136zM631 609l10 40h158l-10 -40h-158zM563 84l101 438h6
q23 0 34 -15.5t5 -40.5l-89 -385q-4 -18 6.5 -31.5t28.5 -13.5h31l-7 -30q-20 -10 -54 -10q-38 0 -55 23.5t-7 64.5zM487 484l9 38h137l-9 -38h-137zM200 -162l8 34q65 28 84 114l130 603q26 116 135 116q41 0 67 -13l-8 -39h-30q-10 12 -32 12q-29 0 -46.5 -18t-27.5 -60
l-132 -602q-23 -110 -112 -147h-36z" />
    <glyph glyph-name=".notdef" horiz-adv-x="500" 
 />
    <glyph glyph-name=".null" horiz-adv-x="0" 
 />
    <glyph glyph-name="nonmarkingreturn" horiz-adv-x="333" 
 />
    <glyph glyph-name="space" unicode=" " horiz-adv-x="170" 
 />
    <glyph glyph-name="exclam" unicode="!" horiz-adv-x="157" 
d="M31 144l109 518l9 38h63l-9 -38l-134 -518h-38zM24 -4q-16 0 -27 11t-11 28t13 29.5t30 12.5t28 -11.5t11 -27.5q0 -17 -13 -29.5t-31 -12.5z" />
    <glyph glyph-name="quotedbl" unicode="&#x22;" horiz-adv-x="237" 
d="M109 524l17 131l11 45h60l-10 -45l-44 -131h-34zM216 524l17 131l11 45h60l-11 -45l-43 -131h-34z" />
    <glyph glyph-name="numbersign" unicode="#" horiz-adv-x="469" 
d="M471 425h-390l11 49h88l61 226h44l-61 -226h129l61 226h44l-61 -226h86zM177 301h128l26 94h45l-26 -94h85l-11 -49h-390l11 49h87l26 94h45zM268 0h-45l61 222h44zM50 0l61 222h44l-60 -222h-45z" />
    <glyph glyph-name="dollar" unicode="$" horiz-adv-x="510" 
d="M387 764l-81 -354l-39 18l54 234q-80 -4 -120 -43.5t-40 -98.5q0 -48 25.5 -73t93.5 -57l64 -31t47.5 -27.5t38.5 -33.5t19.5 -39.5t8.5 -53.5q0 -95 -64.5 -151t-183.5 -59l-22 -97h-43l95 417l39 -19l-59 -259q181 11 181 165q0 46 -30 72.5t-106 61.5
q-86 40 -122.5 75.5t-36.5 103.5q0 79 58.5 132.5t165.5 56.5l14 60h43zM72 67q23 -21 74 -28l-10 -41q-76 9 -145 42l28 121h41q-5 -49 -2 -66t14 -28zM451 637q-24 18 -58 22l10 41q53 -5 125 -32l-27 -117h-39q5 43 3 59.5t-14 26.5z" />
    <glyph glyph-name="percent" unicode="%" horiz-adv-x="733" 
d="M45 -34l632 763h51l-632 -763h-51zM694 210q0 -87 -52 -148.5t-124 -66.5l9 37q48 8 80.5 59t32.5 120q0 86 -63 95l9 37q49 -7 78.5 -42.5t29.5 -90.5zM381 128q0 86 52 148.5t122 67.5l-9 -38q-49 -9 -80.5 -60t-31.5 -120q0 -84 62 -94l-9 -36q-49 8 -77.5 42.5
t-28.5 89.5zM393 571q0 -87 -52 -148.5t-124 -66.5l9 37q48 8 80.5 59t32.5 120q0 86 -63 95l9 37q49 -7 78.5 -42.5t29.5 -90.5zM80 489q0 86 52 148.5t122 67.5l-9 -38q-49 -9 -80.5 -60t-31.5 -120q0 -84 62 -94l-9 -36q-49 8 -77.5 42.5t-28.5 89.5z" />
    <glyph glyph-name="ampersand" unicode="&#x26;" horiz-adv-x="676" 
d="M308 389l215 -327q18 -26 37 -26h38l-8 -36h-95l-242 369q-49 73 -49 142q0 83 55.5 138t149.5 56l-10 -42q-65 -5 -100 -44t-35 -102q0 -60 44 -128zM235 37q87 0 160 60l23 -35q-78 -67 -194 -67q-97 0 -150.5 50t-53.5 124q0 156 180 228l21 -33q-137 -63 -137 -188
q0 -59 38 -99t113 -40zM594 330q-50 -118 -94 -180l-26 39q41 61 79 166h-65l8 36h184l-8 -36h-43q-24 0 -35 -25zM513 624q-29 33 -83 38l10 42q52 -5 88 -24q9 0 16 20h41l-38 -164h-43z" />
    <glyph glyph-name="quotesingle" unicode="'" horiz-adv-x="130" 
d="M109 524l17 131l11 45h60l-10 -45l-44 -131h-34z" />
    <glyph glyph-name="parenleft" unicode="(" horiz-adv-x="294" 
d="M170 -49q-125 89 -125 283q0 102 30 192t78 151.5t98 102t100 61.5h30l-8 -32q-32 -15 -66 -40t-71 -67.5t-66 -93.5t-47.5 -123t-18.5 -152q0 -173 101 -251l-7 -31h-28z" />
    <glyph glyph-name="parenright" unicode=")" horiz-adv-x="294" 
d="M163 741q125 -91 125 -283q0 -102 -29.5 -192t-76.5 -151.5t-96.5 -102t-99.5 -61.5h-34l8 32q42 20 84.5 56.5t86 93.5t71 142.5t27.5 183.5q0 173 -101 251l7 31h28z" />
    <glyph glyph-name="asterisk" unicode="*" horiz-adv-x="369" 
d="M266 569h-18l5 102l14 29h39v-41zM279 542l-4 16l89 47l37 2l10 -34l-32 -20zM234 514h19l-4 -101l-14 -28h-39v40zM265 516l11 13l85 -53l20 -31l-23 -26l-33 18zM236 567l-12 -13l-83 55l-20 31l24 26l32 -18zM223 542l4 -16l-88 -46l-37 -2l-11 34l32 20z" />
    <glyph glyph-name="plus" unicode="+" horiz-adv-x="485" 
d="M191 134l97 423h46l-97 -423h-46zM460 324h-149l10 43h149zM55 324l10 43h149l-10 -43h-149z" />
    <glyph glyph-name="comma" unicode="," horiz-adv-x="157" 
d="M-55 -93l7 31q24 5 41 18.5t17 32.5q0 8 -13 18t-13 27q0 19 12 31t30 12q17 0 29 -12t12 -33q0 -54 -34.5 -86.5t-87.5 -38.5z" />
    <glyph glyph-name="hyphen" unicode="-" horiz-adv-x="246" 
d="M35 276l11 44h182l-11 -44h-182z" />
    <glyph glyph-name="period" unicode="." horiz-adv-x="157" 
d="M24 -4q-16 0 -27 11t-11 28t13 29.5t30 12.5t28 -11.5t11 -27.5q0 -17 -13 -29.5t-31 -12.5z" />
    <glyph glyph-name="slash" unicode="/" horiz-adv-x="323" 
d="M-57 -49l423 790h51l-423 -790h-51z" />
    <glyph glyph-name="zero" unicode="0" horiz-adv-x="642" 
d="M151 573q101 129 244 132l-10 -43q-106 -6 -187 -116q-85 -117 -85 -297q0 -97 41 -152.5t120 -59.5l-9 -42q-101 7 -157.5 75.5t-56.5 185.5q0 189 100 317zM528 113q-95 -113 -233 -118l10 42q109 9 181 106q84 115 84 308q0 94 -39.5 150t-115.5 61l10 42
q98 -8 152.5 -77t54.5 -182q0 -205 -104 -332z" />
    <glyph glyph-name="one" unicode="1" horiz-adv-x="337" 
d="M-34 0l8 36h82q13 0 25.5 10.5t15.5 22.5l132 575l-110 -51h-21l8 38l154 69h43l-145 -631q-2 -13 4 -23t18 -10h79l-8 -36h-285z" />
    <glyph glyph-name="two" unicode="2" horiz-adv-x="514" 
d="M264 277q-177 -94 -222 -199h-52q28 70 88 124.5t154 108.5l52 28.5t50 28t41.5 26t38 30.5t26.5 32.5t19.5 40.5t5.5 48q0 50 -29.5 81.5t-87.5 36.5l10 41q83 -7 126.5 -48t43.5 -109q0 -21 -4.5 -41t-9.5 -35.5t-17.5 -32.5t-21.5 -28t-28.5 -25.5l-30.5 -22.5
t-36 -22.5l-36 -20.5l-40 -21zM-31 0l11 48h384l36 115h44l-37 -163h-438zM150 667q78 37 177 38l-10 -41q-61 -1 -100 -24q-18 -11 -28.5 -30t-25.5 -63h-42z" />
    <glyph glyph-name="three" unicode="3" horiz-adv-x="504" 
d="M450 217q0 -98 -69.5 -160t-195.5 -62l10 41q96 3 145 54t49 129q0 57 -38.5 90t-103.5 33h-55l9 41h55q85 0 135 43t50 120q0 110 -117 117l10 41q80 -5 123.5 -45t43.5 -106q0 -75 -45 -127t-122 -66v-2q54 -10 85 -48.5t31 -92.5zM65 65q26 -24 100 -29l-10 -40
q-87 4 -168 42l25 107h39q-6 -63 14 -80zM141 670q83 34 162 35l-9 -41q-54 -1 -90 -22q-23 -14 -46 -78h-41z" />
    <glyph glyph-name="four" unicode="4" horiz-adv-x="543" 
d="M219 0l8 36h57q13 0 25.5 10.5t15.5 22.5l145 631h60l-109 -474h88l-9 -42h-89l-26 -115q-3 -12 3.5 -22.5t18.5 -10.5h58l-8 -36h-238zM94 256h-53l388 398l-16 -70zM18 226h312l-10 -42h-311z" />
    <glyph glyph-name="five" unicode="5" horiz-adv-x="509" 
d="M466 262q0 -118 -80 -191t-209 -76l10 42q98 5 157.5 63t59.5 156q0 67 -34.5 102t-100.5 35q-68 0 -119 -36l10 45q52 33 120 33q87 0 136.5 -44.5t49.5 -128.5zM476 652h-335l11 48h387l-29 -126h-42zM179 622l-67 -296h-47l69 296h45zM59 66q34 -27 97 -29l-9 -42
q-96 5 -165 43l24 105h41q-8 -61 12 -77z" />
    <glyph glyph-name="six" unicode="6" horiz-adv-x="567" 
d="M546 631q-29 29 -82 32l9 41q61 -2 120 -27l-11 -46h-36zM144 314l8 47q84 64 184 64q87 0 137.5 -42.5t50.5 -123.5q0 -110 -70 -185t-178 -79l10 43q79 7 127 67t48 149q0 62 -37 95.5t-103 33.5q-95 0 -177 -69zM244 580q-71 -69 -103 -152.5t-32 -200.5
q0 -182 146 -190l-10 -41q-91 5 -143.5 67t-52.5 173q0 114 42.5 212t114.5 163q100 90 237 93l-9 -41q-110 -4 -190 -83z" />
    <glyph glyph-name="seven" unicode="7" horiz-adv-x="511" 
d="M80 0l6 29l477 671h23l-13 -54l-435 -646h-58zM92 534l38 166h397l-34 -48h-321l-37 -118h-43z" />
    <glyph glyph-name="eight" unicode="8" horiz-adv-x="564" 
d="M198 504q0 -44 25 -72.5t76 -35.5l-10 -43q-86 1 -143.5 -50.5t-57.5 -130.5q0 -58 36.5 -94.5t108.5 -40.5l-9 -41q-96 5 -147 52.5t-51 119.5q0 81 56 138.5t146 72.5v2q-44 17 -67 51t-23 77q0 84 64 139t158 57l-10 -43q-68 -2 -110 -45.5t-42 -112.5zM446 218
q0 55 -31.5 91t-95.5 42l10 44q72 1 117 42.5t45 110.5q0 48 -27.5 78.5t-82.5 35.5l9 42q77 -7 119 -49t42 -104q0 -68 -44 -116t-118 -63v-2q58 -18 88 -58.5t30 -95.5q0 -96 -71.5 -157.5t-181.5 -63.5l10 42q82 4 132 54t50 127z" />
    <glyph glyph-name="nine" unicode="9" horiz-adv-x="567" 
d="M477 368l5 48q3 26 3 57q0 182 -146 190l9 42q92 -7 144.5 -68.5t52.5 -172.5q0 -118 -38 -217.5t-107 -162.5q-95 -86 -248 -89l9 42q125 3 201 78q93 90 115 253zM450 386l-7 -47q-84 -64 -185 -64q-86 0 -137 45t-51 127q0 106 70.5 180t177.5 78l-10 -43
q-78 -7 -126.5 -67t-48.5 -145q0 -133 135 -133q100 0 182 69zM49 72q23 -30 81 -35l-9 -42q-72 4 -119 29l11 48h36z" />
    <glyph glyph-name="colon" unicode=":" horiz-adv-x="164" 
d="M99 304q-16 0 -27 11t-11 28t13 29.5t30 12.5t28 -11.5t11 -27.5q0 -17 -13 -29.5t-31 -12.5zM27 -4q-16 0 -27 11t-11 28t13 29.5t30 12.5t28 -11.5t11 -27.5q0 -17 -13 -29.5t-31 -12.5z" />
    <glyph glyph-name="semicolon" unicode=";" horiz-adv-x="164" 
d="M-52 -93l7 31q24 5 41 18.5t17 32.5q0 8 -13 18t-13 27q0 19 12 31t30 12q17 0 29 -12t12 -33q0 -54 -34.5 -86.5t-87.5 -38.5zM99 304q-16 0 -27 11t-11 28t13 29.5t30 12.5t28 -11.5t11 -27.5q0 -17 -13 -29.5t-31 -12.5z" />
    <glyph glyph-name="less" unicode="&#x3c;" horiz-adv-x="466" 
d="M482 503l-433 -189l13 53l409 180h21zM372 112l-292 183l54 24l266 -168l-9 -39h-19z" />
    <glyph glyph-name="equal" unicode="=" horiz-adv-x="493" 
d="M25 209l11 44h419l-11 -44h-419zM64 376l10 44h419l-10 -44h-419z" />
    <glyph glyph-name="greater" unicode="&#x3e;" horiz-adv-x="466" 
d="M16 156l433 189l-13 -53l-409 -180h-21zM126 547l292 -183l-54 -24l-266 168l9 39h19z" />
    <glyph glyph-name="question" unicode="?" horiz-adv-x="443" 
d="M130 144q7 72 32.5 119t82.5 96q15 13 43.5 33.5t46 35t36.5 35.5t28.5 46.5t9.5 55.5q0 41 -26 67.5t-75 30.5l9 41q73 -4 113.5 -40t40.5 -97q0 -29 -8 -54t-18 -42t-32 -38t-35.5 -31.5t-44 -32.5l-43.5 -32q-58 -44 -84.5 -85t-34.5 -108h-41zM136 672q73 31 151 33
l-10 -41q-44 -2 -71 -15q-19 -10 -30 -26.5t-22 -55.5h-41zM131 -4q-16 0 -27 11t-11 28t13 29.5t30 12.5t28 -11.5t11 -27.5q0 -17 -13 -29.5t-31 -12.5z" />
    <glyph glyph-name="at" unicode="@" horiz-adv-x="879" 
d="M619 71q-102 0 -102 78q0 30 13 79l47 174q31 61 56 61h19l-75 -273q-5 -20 -5 -34q0 -49 57 -49q67 0 118.5 58t51.5 172q0 124 -77 196.5t-208 84.5l9 39q143 -13 234.5 -97t91.5 -223q0 -129 -69.5 -197.5t-160.5 -68.5zM473 659h20l-9 -40h-11q-69 0 -134.5 -24.5
t-119 -70t-86 -119t-32.5 -163.5q0 -150 76.5 -229t206.5 -93l-9 -38q-69 8 -127 33t-104 67t-71.5 108.5t-25.5 151.5q0 97 38 178t100 132t137 79t151 28zM371 110q59 0 119 55l-1 -39q-61 -56 -133 -56q-51 0 -81 31t-30 88q0 98 71.5 187t175.5 89q47 0 76 -17l-17 -32
q-22 9 -55 9q-78 0 -135 -73.5t-57 -164.5q0 -77 67 -77zM444 -122q-25 0 -39 1l9 39q17 -1 30 -1q158 0 250 68h29v-32q-105 -75 -279 -75z" />
    <glyph glyph-name="A" unicode="A" horiz-adv-x="703" 
d="M512 36l-71 664h58l69 -624q2 -17 11.5 -28.5t24.5 -11.5h32l-8 -36h-230l8 36h106zM420 618l-295 -517q-12 -22 -15.5 -35.5t3 -21.5t25.5 -8h60l-8 -36h-227l8 36h26q38 0 60 37l316 554q21 36 -12 36h-60l9 37h101zM232 229l23 40h202l4 -40h-229z" />
    <glyph glyph-name="B" unicode="B" horiz-adv-x="590" 
d="M263 0h-125l9 38h115q111 0 164 52.5t53 137.5q0 119 -164 119h-97l9 39h89q193 0 195 164q1 57 -35.5 83.5t-103.5 26.5h-82l10 40h77q93 0 145 -36.5t52 -108.5q0 -157 -170 -188v-2q64 -10 101 -44t37 -94q0 -105 -74 -166t-205 -61zM-34 0l8 36h46q13 0 26.5 10.5
t16.5 22.5l128 560q3 13 -3 23.5t-18 10.5h-51l9 37h141l-161 -700h-142z" />
    <glyph glyph-name="C" unicode="C" horiz-adv-x="626" 
d="M117 257q0 -104 49.5 -161.5t139.5 -58.5l-10 -42q-114 3 -177.5 72.5t-63.5 189.5q0 183 109.5 313t278.5 135l-10 -43q-140 -9 -228 -122t-88 -283zM592 617q-40 43 -128 46l10 42q79 -4 134 -32q14 0 20 27h41l-46 -197h-45zM548 79q-92 -78 -222 -83l10 42
q65 4 107.5 26.5t81.5 62.5h34z" />
    <glyph glyph-name="D" unicode="D" horiz-adv-x="684" 
d="M252 0h-113l9 39h107q177 0 266 108.5t89 293.5q0 220 -241 220h-78l9 39h76q144 0 220.5 -67t76.5 -196q0 -197 -107.5 -317t-313.5 -120zM-34 0l8 36h46q13 0 26.5 10.5t16.5 22.5l128 560q3 13 -3 23.5t-18 10.5h-51l9 37h141l-161 -700h-142z" />
    <glyph glyph-name="E" unicode="E" horiz-adv-x="588" 
d="M-34 0l8 36h46q13 0 26.5 10.5t16.5 22.5l128 560q3 13 -3 23.5t-18 10.5h-51l9 37h140l-161 -700h-141zM494 0h-356l9 39h302l42 141h44zM565 661h-275l9 39h327l-39 -168h-42zM373 342h-157l9 39h155l30 89h40l-50 -218h-41z" />
    <glyph glyph-name="F" unicode="F" horiz-adv-x="558" 
d="M-34 0l8 36h46q13 0 26.5 10.5t16.5 22.5l128 560q3 13 -3 23.5t-18 10.5h-51l9 37h141l-153 -664h96l-8 -36h-238zM565 661h-275l9 39h328l-39 -170h-43zM367 323h-155l9 39h154l30 93h41l-53 -227h-40z" />
    <glyph glyph-name="G" unicode="G" horiz-adv-x="677" 
d="M445 705l-10 -43q-139 -9 -227.5 -124t-88.5 -282q0 -219 194 -219q76 0 139 36l2 -46q-66 -32 -149 -32q-120 0 -185 66.5t-65 193.5q0 117 49.5 219t139.5 165t201 66zM485 0l-4 91l43 187h-101l8 37h233l-8 -37h-37q-12 0 -25 -11.5t-16 -23.5l-56 -243h-37zM598 616
q-50 45 -133 47l10 42q81 -4 136 -31q14 0 22 26h40l-45 -191h-44z" />
    <glyph glyph-name="H" unicode="H" horiz-adv-x="723" 
d="M400 36h103l145 627h-103l9 37h245l-9 -37h-47q-13 0 -26 -11.5t-15 -23.5l-129 -558q-3 -13 2.5 -23.5t17.5 -10.5h52l-8 -36h-245zM-34 0l8 36h46q13 0 26.5 11t16.5 23l128 558q3 13 -3 24t-18 11h-51l9 37h244l-9 -37h-102l-145 -627h103l-8 -36h-245zM218 342l9 40
h325l-9 -40h-325z" />
    <glyph glyph-name="I" unicode="I" horiz-adv-x="292" 
d="M-34 0l8 36h56q13 0 26 10.5t16 22.5l129 560q2 13 -4 23.5t-17 10.5h-61l9 37h240l-9 -37h-55q-13 0 -26 -11t-16 -23l-128 -560q-3 -13 2.5 -23t17.5 -10h61l-8 -36h-241z" />
    <glyph glyph-name="J" unicode="J" horiz-adv-x="454" 
d="M323 154q-19 -79 -66.5 -118t-133.5 -41l10 42q55 4 85.5 33.5t44.5 88.5l109 470q2 13 -3.5 23.5t-17.5 10.5h-55l8 37h226l-9 -37h-46q-13 0 -26 -11t-16 -23zM16 81q21 -39 87 -44l-10 -41q-70 5 -126 38l11 47h38z" />
    <glyph glyph-name="K" unicode="K" horiz-adv-x="670" 
d="M261 663l-145 -627h99l-7 -36h-242l8 36h46q13 0 26.5 10.5t16.5 22.5l128 560q3 13 -3 23.5t-18 10.5h-51l9 37h241l-9 -37h-99zM627 633l-427 -367l14 61l337 296q19 17 17 28.5t-21 11.5h-32l8 37h201l-9 -37h-26q-25 0 -62 -30zM461 32l-135 303l46 39l135 -299
q18 -39 49 -39h36l-8 -36h-130z" />
    <glyph glyph-name="L" unicode="L" horiz-adv-x="567" 
d="M-34 0l8 36h46q13 0 26.5 10.5t16.5 22.5l128 560q3 13 -3 23.5t-18 10.5h-51l9 37h252l-9 -37h-110l-153 -663h-142zM478 0h-339l9 39h283l47 155h44z" />
    <glyph glyph-name="M" unicode="M" horiz-adv-x="859" 
d="M548 36h91l129 560l61 104h106l-9 -37h-47q-13 0 -26 -11t-16 -23l-128 -560q-3 -13 2.5 -23t17.5 -10h52l-8 -36h-233zM-34 0l8 36h46q13 0 26.5 11t16.5 23l128 559q3 13 -3 23.5t-18 10.5h-51l9 37h96l12 -93l-132 -571h92l-8 -36h-222zM344 0l-90 700h60l86 -673
l-15 -27h-41zM795 700l-371 -633l-7 68l328 565h50z" />
    <glyph glyph-name="N" unicode="N" horiz-adv-x="715" 
d="M-34 0l8 36h46q13 0 26.5 11t16.5 23l128 559q3 13 -3 23.5t-18 10.5h-51l9 37h129l-153 -664h103l-8 -36h-233zM501 0l-239 590l20 89l275 -666l-3 -13h-53zM699 631l-131 -567l-31 77l120 522h-101l9 37h230l-9 -37h-46q-12 0 -25.5 -10.5t-15.5 -21.5z" />
    <glyph glyph-name="O" unicode="O" horiz-adv-x="712" 
d="M697 432q0 -187 -110 -311t-259 -126l10 42q123 6 209.5 118t86.5 280q0 103 -49.5 162.5t-140.5 64.5l10 42q113 -8 178 -79.5t65 -192.5zM56 267q0 186 109.5 311t258.5 127l-10 -42q-124 -6 -209.5 -117.5t-85.5 -281.5q0 -105 48.5 -162.5t140.5 -64.5l-10 -41
q-113 7 -177.5 78t-64.5 193z" />
    <glyph glyph-name="P" unicode="P" horiz-adv-x="570" 
d="M269 700l-153 -664h92l-8 -36h-234l8 36h46q13 0 26.5 10.5t16.5 22.5l128 560q3 12 -4.5 23t-19.5 11h-48l9 37h141zM305 292h-99l9 39h93q111 0 169 52t58 153q0 62 -42 92.5t-118 30.5h-85l10 41h79q100 0 159 -41.5t59 -121.5q0 -120 -77 -182.5t-215 -62.5z" />
    <glyph glyph-name="Q" unicode="Q" horiz-adv-x="712" 
d="M590 -123q-23 57 -84 80.5t-179 34.5l11 45q123 6 209.5 118t86.5 280q0 104 -49 162.5t-140 65.5l9 41q113 -8 178 -79.5t65 -192.5q0 -161 -79.5 -273t-196.5 -140v-1q173 -14 228 -106l-8 -35h-51zM56 267q0 188 108 312t260 126l-10 -42q-124 -6 -209.5 -117.5
t-85.5 -281.5q0 -105 49 -163t140 -63l-10 -43q-114 12 -178 80.5t-64 191.5z" />
    <glyph glyph-name="R" unicode="R" horiz-adv-x="647" 
d="M302 323h-89l9 39h91q102 0 157 47t55 134q0 119 -152 119h-82l9 38h79q95 0 152 -38.5t57 -114.5q0 -92 -56 -142.5t-138 -64.5v-2q49 -15 72 -45t33 -104l16 -124q3 -29 23 -29h36l-8 -36h-109l-18 188q-7 79 -36 107t-101 28zM269 700l-153 -664h92l-8 -36h-234l8 36
h46q13 0 26.5 10.5t16.5 22.5l128 560q3 13 -3 23.5t-18 10.5h-51l9 37h141z" />
    <glyph glyph-name="S" unicode="S" horiz-adv-x="522" 
d="M216 -5h-6l10 42q88 1 141.5 43t53.5 121q0 15 -4 27.5t-8 22t-15.5 20l-17.5 16t-24.5 15.5t-25 13l-30 14t-29.5 14q-71 33 -108 70t-37 104q0 83 59 135.5t166 52.5h5l-10 -42q-82 -1 -124 -39t-42 -103q0 -26 8.5 -46t28.5 -36t37.5 -25.5t51.5 -25.5q94 -44 123 -67
q52 -43 52 -115q0 -97 -70 -154t-185 -57zM57 90q52 -45 132 -52l-10 -42q-85 8 -133 37q-13 0 -20 -33h-42l45 196h44zM475 614q-42 40 -108 48l10 42q53 -5 108 -31q11 0 21 27h41l-41 -176h-43z" />
    <glyph glyph-name="T" unicode="T" horiz-adv-x="631" 
d="M139 0l8 36h54q13 0 25.5 10.5t15.5 22.5l145 631h61l-145 -631q-3 -13 3 -23t19 -10h56l-8 -36h-234zM93 509l44 191h220l-9 -39h-167l-44 -152h-44zM636 661h-167l9 39h220l-45 -191h-43z" />
    <glyph glyph-name="U" unicode="U" horiz-adv-x="715" 
d="M158 238q-42 -183 139 -198l-10 -44q-108 10 -162 72t-27 176l88 384q3 13 -2.5 24t-17.5 11h-47l9 37h237l-9 -37h-100zM326 -5h-9l10 44q94 0 149.5 41t79.5 144l101 439h-99l9 37h224l-9 -37h-43q-13 0 -26 -11.5t-15 -23.5l-94 -408q-28 -122 -95.5 -173.5
t-182.5 -51.5z" />
    <glyph glyph-name="V" unicode="V" horiz-adv-x="697" 
d="M258 0l-79 623q-2 16 -11.5 28t-23.5 12h-29l9 37h221l-9 -37h-101l17 -137l66 -526h-60zM686 625l-343 -582l-9 70l288 491q35 59 -15 59h-55l9 37h216l-9 -37h-23q-16 0 -32.5 -10.5t-26.5 -27.5z" />
    <glyph glyph-name="W" unicode="W" horiz-adv-x="961" 
d="M196 0l-20 623q-1 16 -10.5 28t-24.5 12h-24l9 37h216l-9 -37h-98l23 -663h-62zM589 0l-38 682l9 18h49l38 -700h-58zM953 622l-279 -576l-5 99l220 456q16 32 12 47t-31 15h-50l9 37h211l-9 -37h-19q-38 0 -59 -41zM286 51l-3 95l241 483l5 -95z" />
    <glyph glyph-name="X" unicode="X" horiz-adv-x="659" 
d="M459 36l-255 593q-14 34 -42 34h-43l9 37h220l-9 -37h-86l253 -593q15 -34 43 -34h32l-8 -36h-216l7 36h95zM-34 0l8 36h26q11 0 28.5 8.5t27.5 19.5l241 273l17 -41l-186 -214q-15 -19 -13 -32.5t19 -13.5h53l-7 -36h-214zM622 629l-214 -251l-18 41l165 197
q17 22 14.5 34.5t-20.5 12.5h-41l9 37h218l-9 -37h-46q-10 0 -28.5 -10.5t-29.5 -23.5z" />
    <glyph glyph-name="Y" unicode="Y" horiz-adv-x="643" 
d="M147 0l8 36h53q13 0 26.5 10.5t15.5 22.5l52 232l-121 323q-14 39 -46 39h-18l9 37h209l-9 -37h-96l134 -364l-53 -230q-3 -13 3 -23t18 -10h58l-8 -36h-235zM633 626l-246 -302l-16 44l190 235q24 29 19 44.5t-33 15.5h-44l8 37h209l-9 -37h-19q-29 0 -59 -37z" />
    <glyph glyph-name="Z" unicode="Z" horiz-adv-x="550" 
d="M609 656l-603 -656h-40l10 43l601 657h43zM454 0h-408l36 39h327l40 133h44zM110 534l38 166h389l-36 -39h-310l-38 -127h-43z" />
    <glyph glyph-name="bracketleft" unicode="[" horiz-adv-x="244" 
d="M-26 -49l182 790h173l-9 -39h-118l-164 -713h118l-9 -38h-173z" />
    <glyph glyph-name="backslash" unicode="\" horiz-adv-x="324" 
d="M192 -49l-64 790h47l64 -790h-47z" />
    <glyph glyph-name="bracketright" unicode="]" horiz-adv-x="244" 
d="M310 741l-182 -790h-173l9 39h118l164 713h-118l9 38h173z" />
    <glyph glyph-name="asciicircum" unicode="^" horiz-adv-x="418" 
d="M369 538l-94 154l7 8h50l74 -143l-4 -19h-33zM145 538l4 19l105 113l24 -38l-96 -94h-37z" />
    <glyph glyph-name="underscore" unicode="_" horiz-adv-x="336" 
d="M-92 -162l8 36h336l-9 -36h-335z" />
    <glyph glyph-name="grave" unicode="`" horiz-adv-x="420" 
d="M272 573l-84 102l6 25h52l62 -127h-36z" />
    <glyph glyph-name="a" unicode="a" horiz-adv-x="507" 
d="M163 35q72 0 131 52l-10 -46q-54 -46 -128 -46q-65 0 -104.5 35t-39.5 93q0 87 59.5 131.5t161.5 44.5q56 0 104 -15l-8 -36q-44 13 -97 13q-78 0 -121.5 -33t-43.5 -101q0 -43 26.5 -67.5t69.5 -24.5zM388 -4q-38 0 -56.5 23.5t-9.5 61.5l64 280q13 57 -12 89.5
t-83 35.5l9 41q81 -2 121.5 -46.5t22.5 -121.5l-65 -278q-5 -21 4 -33.5t29 -12.5q17 0 32 3l-7 -32q-23 -10 -49 -10zM112 489q72 35 158 38l-9 -41q-78 -5 -131 -46h-29z" />
    <glyph glyph-name="b" unicode="b" horiz-adv-x="550" 
d="M225 35q94 0 156 69q81 91 81 248q0 132 -101 132q-82 0 -173 -82l11 48q86 77 177 77q66 0 105.5 -42.5t39.5 -126.5q0 -85 -28.5 -161.5t-74.5 -123.5q-76 -77 -189 -77q-87 0 -135 37l14 31q44 -29 117 -29zM222 682l-128 -555l-8 -35q-6 -23 -24.5 -57.5t-30.5 -34.5
h-24l146 634q3 12 -3 20.5t-17 8.5h-48l9 37h117q15 0 11 -18z" />
    <glyph glyph-name="c" unicode="c" horiz-adv-x="490" 
d="M91 192q0 -151 127 -158l-9 -38q-86 6 -131.5 58.5t-45.5 137.5q0 137 82.5 232.5t214.5 102.5l-9 -40q-105 -8 -167 -93.5t-62 -201.5zM401 478q-18 8 -50 10l9 39q71 -2 130 -32l-22 -94h-37q2 34 -4 51t-26 26zM402 53q-72 -53 -162 -57l9 39q76 5 130 62h34z" />
    <glyph glyph-name="d" unicode="d" horiz-adv-x="577" 
d="M192 35q82 0 172 85l-12 -54q-77 -70 -166 -70q-73 0 -114.5 42.5t-41.5 127.5q0 80 30.5 155.5t77.5 122.5q80 83 192 83q70 0 121 -31l-8 -36q-47 26 -112 26q-87 0 -153 -69q-40 -42 -64.5 -107.5t-24.5 -143.5q0 -67 28 -99t75 -32zM386 79l135 584h-89l9 37h131
q16 0 11 -18l-139 -601q-4 -18 6.5 -31.5t27.5 -13.5h30l-7 -30q-17 -10 -46 -10q-38 0 -58 22t-11 61z" />
    <glyph glyph-name="e" unicode="e" horiz-adv-x="494" 
d="M123 235l6 38q152 5 222.5 36.5t70.5 98.5q0 74 -77 80l9 38q57 -4 91 -33t34 -83q0 -166 -356 -175zM315 488q-97 -6 -160.5 -91t-63.5 -201q0 -73 33 -117t98 -45l-9 -38q-88 3 -134 57.5t-46 143.5q0 136 84.5 230.5t206.5 99.5zM401 53q-72 -53 -157 -57l8 38
q76 9 126 63h34z" />
    <glyph glyph-name="f" unicode="f" horiz-adv-x="305" 
d="M-54 -162l8 34q65 28 84 114l107 498h-75l9 38h74l12 53q29 130 156 130q55 0 83 -13l-8 -39h-30q-14 12 -45 12q-42 0 -64.5 -21t-34.5 -75l-128 -584q-25 -111 -112 -147h-36zM326 484h-93l9 38h93z" />
    <glyph glyph-name="g" unicode="g" horiz-adv-x="476" 
d="M407 5q0 -77 -60.5 -125t-183.5 -49l9 40q90 3 135 37t45 84q0 41 -25 59t-74 18h-106q-38 0 -68.5 18t-30.5 57q0 46 46 78l27 -18q-22 -22 -22 -47q0 -17 13 -27t34 -10h125q66 0 101 -29.5t35 -85.5zM236 203h-3l9 38q64 2 101.5 42.5t37.5 108.5q0 37 -21 63.5
t-63 32.5l8 37l20 -3h182l-8 -38h-67q-20 0 -21 -18q25 -33 25 -76q0 -83 -56 -135t-144 -52zM203 205q-54 8 -90 41.5t-36 93.5q0 80 58 133.5t140 53.5l-8 -38q-59 -4 -96.5 -45.5t-37.5 -106.5q0 -38 20 -63t59 -31zM-43 -52q0 72 91 120l35 -16q-70 -40 -70 -98
q0 -35 30.5 -57.5t98.5 -25.5l-9 -39q-87 4 -131.5 36t-44.5 80z" />
    <glyph glyph-name="h" unicode="h" horiz-adv-x="587" 
d="M250 682l-157 -682h-37q-22 0 -14 29l139 605q2 11 -3.5 20t-15.5 9h-49l9 37h117q15 0 11 -18zM457 -4q-35 0 -52 23.5t-8 62.5l70 304q11 47 -4.5 70.5t-52.5 23.5q-85 0 -195 -80l10 43q108 84 206 84q57 0 83.5 -35.5t11.5 -99.5l-71 -309q-4 -19 6 -33t27 -14h30
l-7 -30q-23 -10 -54 -10z" />
    <glyph glyph-name="i" unicode="i" horiz-adv-x="247" 
d="M117 -4q-38 0 -55 23.5t-7 64.5l82 355q5 19 -4.5 32t-27.5 13h-40l7 31q39 11 63 11q80 0 59 -88l-82 -357q-4 -18 6.5 -31.5t28.5 -13.5h31l-7 -30q-20 -10 -54 -10zM205 596q-16 0 -26.5 11t-10.5 26q0 17 12 29t28 12q17 0 27.5 -11t10.5 -26q0 -17 -12.5 -29
t-28.5 -12z" />
    <glyph glyph-name="j" unicode="j" horiz-adv-x="248" 
d="M-50 -165q-39 0 -75 14l9 39h29q12 -15 37 -15q33 0 49 17t25 56l113 493q4 19 -5 32t-27 13h-40l8 31q39 11 62 11q78 0 59 -88l-113 -495q-24 -108 -131 -108zM206 596q-16 0 -27 11t-11 26q0 17 12 29t28 12q17 0 27.5 -11t10.5 -26q0 -17 -11.5 -29t-28.5 -12z" />
    <glyph glyph-name="k" unicode="k" horiz-adv-x="511" 
d="M250 682l-157 -682h-37q-21 0 -15 29l140 605q2 11 -3.5 20t-16.5 9h-48l9 37h117q15 0 11 -18zM510 491q-49 -72 -138 -147.5t-200 -131.5l12 51q99 53 172.5 123t103.5 136h57zM408 -4q-28 0 -44 15t-29 47l-68 172l46 31l74 -182q16 -43 51 -43h27l-7 -28
q-18 -12 -50 -12z" />
    <glyph glyph-name="l" unicode="l" horiz-adv-x="254" 
d="M124 -4q-39 0 -56.5 23.5t-7.5 64.5l127 550q2 11 -5 20t-18 9h-51l9 37h123q14 0 11 -18l-139 -601q-4 -18 6 -31.5t27 -13.5h36l-7 -30q-27 -10 -55 -10z" />
    <glyph glyph-name="m" unicode="m" horiz-adv-x="896" 
d="M766 -4q-36 0 -52.5 25.5t-6.5 67.5l67 290q24 101 -54 101q-75 0 -178 -76l10 44q99 79 189 79q57 0 82.5 -36t11.5 -99l-72 -311q-4 -18 6.5 -31.5t27.5 -13.5h31l-7 -30q-27 -10 -55 -10zM416 527q56 0 81.5 -37.5t12.5 -93.5l-91 -396h-37q-22 0 -14 29l80 349
q24 102 -59 102q-74 0 -173 -76l10 44q101 79 190 79zM134 526q36 0 52.5 -23.5t7.5 -61.5l-101 -441h-37q-22 0 -14 29l94 410q5 19 -4.5 32t-28.5 13h-38l7 31q33 11 62 11z" />
    <glyph glyph-name="n" unicode="n" horiz-adv-x="587" 
d="M457 -4q-35 0 -52 23.5t-8 62.5l70 304q11 47 -4.5 70.5t-51.5 23.5q-87 0 -196 -80l10 43q108 84 206 84q57 0 83.5 -35.5t11.5 -99.5l-71 -309q-4 -19 6 -33t27 -14h30l-7 -30q-23 -10 -54 -10zM133 526q34 0 52 -21t8 -68l-100 -437h-37q-22 0 -14 29l94 410
q5 19 -4.5 32t-28.5 13h-38l7 31q39 11 61 11z" />
    <glyph glyph-name="o" unicode="o" horiz-adv-x="555" 
d="M33 204q0 133 80.5 226.5t200.5 96.5l-9 -40q-95 -7 -154.5 -89.5t-59.5 -199.5q0 -74 34 -116.5t98 -46.5l-9 -38q-85 7 -133 62t-48 145zM524 323q0 -134 -80 -229t-200 -98l9 38q95 7 154 92t59 200q0 72 -34 114t-97 46l9 40q85 -7 132.5 -62t47.5 -141z" />
    <glyph glyph-name="p" unicode="p" horiz-adv-x="580" 
d="M252 40q94 0 157 64q38 40 60.5 105.5t22.5 142.5q0 132 -103 132q-79 0 -173 -83l11 49q84 77 179 77q67 0 106 -41t39 -128q0 -80 -28.5 -157t-73.5 -124q-73 -76 -187 -76q-81 0 -131 32l8 35q43 -28 113 -28zM-71 -162l8 34h42q11 0 21.5 8.5t12.5 19.5l123 539
q5 19 -4.5 32t-28.5 13h-38l7 31q26 11 60 11q36 0 54 -22.5t7 -67.5l-129 -564h86l-7 -34h-214z" />
    <glyph glyph-name="q" unicode="q" horiz-adv-x="561" 
d="M192 40q83 0 173 83l-13 -53q-74 -69 -170 -69q-152 0 -152 168q0 79 30.5 153.5t76.5 121.5q80 83 197 83q75 0 125 -35l-16 -33q-41 27 -107 27q-93 0 -159 -71q-39 -41 -63.5 -105.5t-24.5 -140.5q0 -129 103 -129zM238 -162l8 34h92l131 569q35 81 59 81h18
l-143 -621q-3 -11 3.5 -20t16.5 -9h47l-7 -34h-225z" />
    <glyph glyph-name="r" unicode="r" horiz-adv-x="368" 
d="M56 0q-22 0 -14 29l94 410q5 19 -4.5 32t-28.5 13h-38l7 31q26 11 60 11q36 0 53.5 -23.5t7.5 -66.5l-100 -436h-37zM366 475q-75 0 -150 -73l12 53q72 70 144 70q16 0 25 -3l-11 -48q-11 1 -20 1z" />
    <glyph glyph-name="s" unicode="s" horiz-adv-x="422" 
d="M159 -4h-5l9 38q68 1 104.5 33t36.5 81q0 20 -7 34.5t-25 26.5t-32 18.5t-45 19.5q-63 25 -91.5 52.5t-28.5 78.5q0 68 50 108t139 41l-9 -40q-63 -1 -95.5 -28t-32.5 -73q0 -25 15 -43t33.5 -28t56.5 -25q67 -27 96.5 -55.5t29.5 -81.5q0 -70 -53 -113.5t-146 -43.5z
M59 58q19 -19 74 -23l-9 -38q-74 5 -136 39l21 89h38q-3 -52 12 -67zM346 468q-18 14 -61 18l9 40q67 -3 121 -34l-19 -86h-36q2 50 -14 62z" />
    <glyph glyph-name="t" unicode="t" horiz-adv-x="312" 
d="M241 666l-123 -535q-22 -96 48 -96q33 0 50 10h29l-8 -36q-37 -14 -76 -14q-64 0 -89.5 36t-11.5 100l82 353h-72l9 38h71l34 144h57zM326 484h-97l9 38h97z" />
    <glyph glyph-name="u" unicode="u" horiz-adv-x="581" 
d="M167 -6q-61 0 -89.5 38.5t-13.5 105.5l69 301q5 19 -4.5 32t-27.5 13h-36l8 31q29 11 60 11q36 0 51.5 -24.5t5.5 -67.5l-67 -291q-12 -51 6 -77.5t60 -26.5q78 0 175 74l-10 -45q-93 -74 -187 -74zM388 85l101 437h38q20 0 14 -29l-94 -411q-4 -19 5.5 -32.5t26.5 -13.5
h34l-7 -30q-22 -10 -56 -10q-37 0 -54 24.5t-8 64.5z" />
    <glyph glyph-name="v" unicode="v" horiz-adv-x="527" 
d="M185 458l55 -458h-52l-59 443q-5 41 -41 41h-29l7 31q29 11 59 11q31 0 43.5 -16.5t16.5 -51.5zM527 485q-95 -253 -261 -453l-7 59q163 213 222 431h55z" />
    <glyph glyph-name="w" unicode="w" horiz-adv-x="761" 
d="M150 0l-20 443q-3 41 -42 41h-29l7 31q29 11 57 11q34 0 47.5 -16.5t15.5 -52.5l17 -457h-53zM447 0l-18 522h53l20 -522h-55zM762 485q-91 -256 -235 -447l-2 65q140 208 190 419h55zM230 47l-2 84l173 337l3 -88z" />
    <glyph glyph-name="x" unicode="x" horiz-adv-x="504" 
d="M394 -4q-32 0 -47.5 15.5t-33.5 56.5l-167 376q-17 40 -50 40h-34l7 31q28 11 54 11q32 0 45 -13.5t31 -55.5l166 -377q19 -44 52 -44h31l-7 -30q-20 -10 -47 -10zM-8 36q80 22 214 203l17 -40q-118 -167 -186 -199h-53zM508 484q-72 -16 -207 -188l-16 40
q112 151 181 186h52z" />
    <glyph glyph-name="y" unicode="y" horiz-adv-x="571" 
d="M194 59q79 0 174 72l-10 -44q-94 -73 -182 -73q-63 0 -93 36.5t-15 103.5l65 285q5 19 -4.5 32t-27.5 13h-36l7 31q26 11 62 11q34 0 50 -24t6 -68l-63 -276q-23 -99 67 -99zM423 -13q-19 -79 -73.5 -116.5t-152.5 -39.5l8 38q71 3 109 33t52 88l123 532h38q20 0 13 -30z
M64 -90q30 -38 111 -41l-9 -38q-78 3 -148 33l11 46h35z" />
    <glyph glyph-name="z" unicode="z" horiz-adv-x="474" 
d="M-34 0l9 41l496 481h34l-9 -42l-496 -480h-34zM372 0h-330l41 40h250l31 106h42zM77 377l33 145h320l-42 -40h-239l-32 -105h-40z" />
    <glyph glyph-name="braceleft" unicode="{" horiz-adv-x="316" 
d="M165 -49q-58 0 -82 31t-10 88l47 202q8 32 -2 47t-43 15h-32l9 40h26q65 0 78 55l47 203q13 58 45.5 83.5t89.5 25.5h63l-9 -39h-55q-34 0 -52.5 -16t-26.5 -54l-47 -206q-13 -59 -82 -73v-1q61 -17 45 -88l-47 -200q-18 -75 45 -75h56l-9 -38h-54z" />
    <glyph glyph-name="bar" unicode="|" horiz-adv-x="156" 
d="M74 -49v790h48v-790h-48z" />
    <glyph glyph-name="braceright" unicode="}" horiz-adv-x="316" 
d="M137 741h54q58 0 82 -31t10 -88l-43 -186q-8 -32 2 -47t43 -15h32l-9 -40h-26q-65 0 -78 -55l-51 -219q-13 -58 -45.5 -83.5t-89.5 -25.5h-63l9 39h55q34 0 52.5 16t26.5 54l51 222q13 59 82 73v1q-61 17 -45 88l43 184q18 75 -45 75h-56z" />
    <glyph glyph-name="asciitilde" unicode="~" horiz-adv-x="352" 
d="M25 238l6 32q26 58 83 58q24 0 73 -18.5t66 -18.5q36 0 49 43h38l-8 -32q-26 -58 -81 -58q-24 0 -73.5 18.5t-65.5 18.5q-37 0 -49 -43h-38z" />
    <glyph glyph-name="exclamdown" unicode="&#xa1;" horiz-adv-x="157" 
d="M149 480l-109 -518l-9 -38h-63l9 38l134 518h38zM156 628q16 0 27 -11t11 -28t-13 -29.5t-30 -12.5t-28 11.5t-11 27.5q0 17 13 29.5t31 12.5z" />
    <glyph glyph-name="cent" unicode="&#xa2;" horiz-adv-x="495" 
d="M91 192q0 -116 80 -149l-9 -38q-63 16 -96.5 65.5t-33.5 121.5q0 132 78.5 226.5t202.5 106.5l14 60h43l-127 -551q85 4 141 63h34l-11 -44q-74 -55 -173 -57l-22 -98h-43l135 587q-97 -15 -155 -99t-58 -194zM409 478q-15 6 -32 8l9 39q59 -5 109 -30l-22 -94h-37
q2 35 -3 51.5t-24 25.5z" />
    <glyph glyph-name="sterling" unicode="&#xa3;" horiz-adv-x="519" 
d="M129 38l32 36q85 -26 222 -26l35 117h43l-37 -165h-35q-161 0 -260 38zM181 324q-1 -46 -3 -77t-8.5 -65.5t-17.5 -59t-29 -48t-45.5 -41.5t-64.5 -33h-37l8 35q68 21 104.5 74t36.5 161q0 28 -1 54h-74l9 40h64q-3 62 -3 94q0 119 65 182t176 65l-11 -44
q-163 -8 -168 -200q-1 -31 -1 -97h197l-9 -40h-188zM471 632q-29 26 -90 29l11 43q79 -3 156 -42l-28 -121h-40q11 71 -9 91z" />
    <glyph glyph-name="yen" unicode="&#xa5;" horiz-adv-x="584" 
d="M76 247h432l-9 -40h-186l-31 -138q-3 -13 3 -23t18 -10h57l-8 -36h-235l8 36h53q13 0 26 10.5t16 22.5l31 138h-185zM339 328h187l-9 -40h-432l9 40h184l-103 296q-12 39 -46 39h-15l9 37h204l-9 -37h-92zM578 626l-217 -274l-14 44l159 208q20 28 14 43.5t-31 15.5h-38
l9 37h205l-9 -37h-20q-28 0 -58 -37z" />
    <glyph glyph-name="brokenbar" unicode="&#xa6;" horiz-adv-x="156" 
d="M74 -49v360h48v-360h-48zM74 383v358h48v-358h-48z" />
    <glyph glyph-name="section" unicode="&#xa7;" horiz-adv-x="522" 
d="M213 186q99 -43 130.5 -75t31.5 -82q0 -66 -50.5 -112.5t-149.5 -47.5l9 38q69 4 102 36.5t33 79.5q0 40 -29 63t-105 58q-74 32 -108 65.5t-34 83.5q0 49 35 86t98 54l36 -24q-116 -26 -116 -109q0 -35 27.5 -61t89.5 -53zM490 282q0 -103 -131 -142l-39 24q52 12 84 40
t32 72q0 37 -32 64t-97 54q-75 32 -100 54q-45 39 -45 99q0 67 53 112t139 46l-9 -38q-63 -3 -97 -35t-34 -82q0 -38 27.5 -63.5t91.5 -49.5q76 -29 116.5 -65t40.5 -90zM70 -73q28 -18 83 -20l-9 -37q-87 4 -148 35l23 98h40q-5 -37 -2.5 -53t13.5 -23zM446 648
q-24 16 -70 19l9 37q67 -3 134 -33l-20 -90h-40q7 54 -13 67z" />
    <glyph glyph-name="dieresis" unicode="&#xa8;" horiz-adv-x="420" 
d="M221 597q-16 0 -26 10t-10 26q0 17 11.5 28.5t27.5 11.5q15 0 25.5 -10.5t10.5 -25.5q0 -16 -11.5 -28t-27.5 -12zM367 597q-16 0 -26 10t-10 26t12 28t27 12t25.5 -10.5t10.5 -25.5q0 -16 -11.5 -28t-27.5 -12z" />
    <glyph glyph-name="copyright" unicode="&#xa9;" horiz-adv-x="773" 
d="M56 350q0 162 96 255.5t240 99.5v-34q-129 -5 -212.5 -90t-83.5 -231t83.5 -231t212.5 -90v-34q-144 6 -240 99.5t-96 255.5zM759 350q0 -162 -96 -255.5t-241 -99.5v34q130 5 213.5 90t83.5 231q0 147 -83.5 231.5t-213.5 89.5v34q144 -6 240.5 -100t96.5 -255zM283 353
q0 -74 30.5 -114.5t86.5 -45.5v-36q-80 5 -126.5 54.5t-46.5 140.5q0 90 49 140t124 53v-37q-51 -3 -84 -42t-33 -113zM508 470q-37 33 -78 38v36q36 -3 75 -22q4 0 7.5 6.5t4.5 12.5h33v-127h-34zM557 210q-51 -48 -127 -53v36q67 5 98 52h29v-35z" />
    <glyph glyph-name="ordfeminine" unicode="&#xaa;" horiz-adv-x="438" 
d="M330 336l53 224q12 53 -11.5 79t-75.5 26q-82 0 -128 -39h-29l10 46q70 33 154 33q75 0 112.5 -37t20.5 -110l-53 -230q-4 -15 4 -25.5t24 -10.5l24 2l-7 -32q-19 -8 -43 -8q-34 0 -48.5 23.5t-6.5 58.5zM198 292q58 0 105 40l-11 -47q-45 -31 -103 -31q-56 0 -91 30
t-35 83q0 69 50.5 107.5t136.5 38.5q51 0 89 -11l-8 -34q-37 10 -78 10q-65 0 -101 -28t-36 -82q0 -76 82 -76z" />
    <glyph glyph-name="guillemotleft" unicode="&#xab;" horiz-adv-x="436" 
d="M269 448l-218 -233l-17 30l9 37l198 190h35zM149 47l-82 142l38 40l78 -157l-5 -25h-29zM439 448l-218 -233l-17 30l9 37l198 190h35zM319 47l-82 142l38 40l78 -157l-5 -25h-29z" />
    <glyph glyph-name="registered" unicode="&#xae;" horiz-adv-x="420" 
d="M93 529q0 79 48.5 126.5t119.5 51.5v-27q-60 -4 -98.5 -44.5t-38.5 -106.5q0 -67 39 -107t98 -45v-27q-71 5 -119.5 53t-48.5 126zM455 529q0 -76 -47.5 -124.5t-116.5 -54.5v27q58 6 95.5 46.5t37.5 105.5t-37.5 105.5t-95.5 45.5v27q69 -6 116.5 -53.5t47.5 -124.5z
M193 443v21h12q2 0 5.5 3t3.5 6v118q0 2 -3.5 5.5t-5.5 3.5h-12v21h59v-157h23v-21h-82zM309 569q0 29 -31 29v23q70 0 70 -50q0 -32 -37 -41v-1q21 -4 32 -36l7 -21q2 -8 10 -8h9v-21h-51l-12 50q-6 25 -28 26v21q31 0 31 29z" />
    <glyph glyph-name="macron" unicode="&#xaf;" horiz-adv-x="420" 
d="M174 609l10 40h234l-10 -40h-234z" />
    <glyph glyph-name="degree" unicode="&#xb0;" horiz-adv-x="332" 
d="M236 487q37 0 63 27t26 68q0 61 -51 83l8 35q39 -12 63 -43t24 -75q0 -57 -40 -93.5t-94 -36.5h-9l8 35h2zM244 705h8l-8 -35h-1q-37 0 -62 -27t-25 -69q0 -61 49 -81l-8 -36q-39 11 -62 42.5t-23 73.5q0 58 39 95t93 37z" />
    <glyph glyph-name="twosuperior" unicode="&#xb2;" horiz-adv-x="303" 
d="M212 475q-77 -42 -102 -80h-47q30 54 114 103q8 5 29.5 17t29 16.5t22.5 15.5t20.5 19t10.5 20.5t5 26.5q0 49 -49 55l8 34q45 -3 69.5 -25t24.5 -59q0 -21 -7.5 -39t-16 -29.5t-29 -26t-31.5 -21t-38 -20.5q-9 -5 -13 -7zM41 327l6 26l3 12h202l18 56h33l-22 -94h-240z
M133 683q41 16 89 20l-8 -35q-22 -1 -38 -11q-18 -11 -30 -48h-30z" />
    <glyph glyph-name="threesuperior" unicode="&#xb3;" horiz-adv-x="302" 
d="M309 440q0 -47 -36 -79.5t-102 -36.5l8 34q38 5 58 27.5t20 56.5q0 29 -19.5 45t-51.5 16h-29l7 32h30q42 0 66 20t24 56q0 49 -47 58l8 33q43 -4 66.5 -26t23.5 -57q0 -39 -24 -65t-66 -34v-2q29 -7 46.5 -27.5t17.5 -50.5zM102 369q11 -9 46 -12l-8 -33q-59 6 -92 23
l15 64h30q-2 -34 9 -42zM130 685q37 15 85 18l-8 -33q-23 -2 -35 -9q-16 -9 -27 -43h-31z" />
    <glyph glyph-name="acute" unicode="&#xb4;" horiz-adv-x="420" 
d="M255 573l85 127h62l-6 -25l-102 -102h-39z" />
    <glyph glyph-name="paragraph" unicode="&#xb6;" horiz-adv-x="557" 
d="M200 -91l98 428h-10q-90 0 -143.5 39t-53.5 114q0 109 67.5 159.5t203.5 50.5h66l-183 -791h-45zM324 -91l182 791h127l-9 -37h-46q-13 0 -26 -11t-16 -23l-167 -720h-45z" />
    <glyph glyph-name="periodcentered" unicode="&#xb7;" horiz-adv-x="157" 
d="M88 272q-16 0 -27 11t-11 28t13 29.5t30 12.5t28 -11.5t11 -27.5q0 -17 -13 -29.5t-31 -12.5z" />
    <glyph glyph-name="cedilla" unicode="&#xb8;" horiz-adv-x="420" 
d="M111 -174q-41 0 -75 18l8 32h25q12 -18 42 -18q50 0 50 39q0 32 -51 32h-12l7 33h19q84 0 84 -64q0 -34 -26.5 -53t-70.5 -19z" />
    <glyph glyph-name="onesuperior" unicode="&#xb9;" horiz-adv-x="244" 
d="M38 327l7 31h56q7 0 14.5 6t9.5 13l65 278l-72 -32h-18l7 33l108 44h36l-74 -323q-4 -19 13 -19h55l-7 -31h-200z" />
    <glyph glyph-name="ordmasculine" unicode="&#xba;" horiz-adv-x="475" 
d="M79 430q0 110 66 189.5t165 85.5l-9 -40q-75 -10 -120.5 -77.5t-45.5 -162.5q0 -63 29 -97t83 -37l-9 -37q-75 5 -117 52t-42 124zM498 531q0 -110 -65 -190t-164 -87l9 38q75 11 119.5 80t44.5 162q0 60 -28.5 94t-81.5 38l9 38q73 -5 115 -51.5t42 -121.5z" />
    <glyph glyph-name="guillemotright" unicode="&#xbb;" horiz-adv-x="436" 
d="M-5 71l220 233l17 -30l-9 -37l-198 -190h-35zM117 472l82 -142l-38 -40l-79 157l5 25h30zM165 71l220 233l17 -30l-9 -37l-198 -190h-35zM287 472l82 -142l-38 -40l-79 157l5 25h30z" />
    <glyph glyph-name="onequarter" unicode="&#xbc;" horiz-adv-x="669" 
d="M426 0l8 31h33q7 0 14 6t9 13l77 323h48l-55 -242h56l-8 -32h-56l-11 -49q-2 -7 1.5 -13t9.5 -6h39l-7 -31h-158zM364 131h114l-8 -32h-153l9 38l202 201l-13 -54l-151 -151v-2zM41 327l7 31h56q7 0 14.5 6t9.5 13l65 278l-72 -32h-18l7 33l108 44h36l-74 -323
q-4 -19 13 -19h55l-7 -31h-200zM29 -34l632 763h51l-632 -763h-51z" />
    <glyph glyph-name="onehalf" unicode="&#xbd;" horiz-adv-x="703" 
d="M534 148q-77 -42 -102 -80h-47q30 54 114 103q8 5 29.5 17t29 16.5t22.5 15.5t20.5 19t10.5 20.5t5 26.5q0 49 -49 55l8 34q45 -3 69.5 -25t24.5 -59q0 -21 -7.5 -39t-16 -29.5t-29 -26t-31.5 -21t-38 -20.5q-9 -5 -13 -7zM363 0l6 26l3 12h202l18 56h33l-22 -94h-240z
M455 356q41 16 89 20l-8 -35q-22 -1 -38 -11q-18 -11 -30 -48h-30zM41 327l7 31h56q7 0 14.5 6t9.5 13l65 278l-72 -32h-18l7 33l108 44h36l-74 -323q-4 -19 13 -19h55l-7 -31h-200zM14 -34l632 763h51l-632 -763h-51z" />
    <glyph glyph-name="threequarters" unicode="&#xbe;" horiz-adv-x="668" 
d="M312 440q0 -47 -36 -79.5t-102 -36.5l8 34q38 5 58 27.5t20 56.5q0 29 -19.5 45t-51.5 16h-29l7 32h30q42 0 66 20t24 56q0 49 -47 58l8 33q43 -4 66.5 -26t23.5 -57q0 -39 -24 -65t-66 -34v-2q29 -7 46.5 -27.5t17.5 -50.5zM105 369q11 -9 46 -12l-8 -33q-59 6 -92 23
l15 64h30q-2 -34 9 -42zM133 685q37 15 85 18l-8 -33q-23 -2 -35 -9q-16 -9 -27 -43h-31zM425 0l8 31h33q7 0 14 6t9 13l77 323h48l-55 -242h56l-8 -32h-56l-11 -49q-2 -7 1.5 -13t9.5 -6h39l-7 -31h-158zM363 131h114l-8 -32h-153l9 38l202 201l-13 -54l-151 -151v-2z
M36 -34l632 763h51l-632 -763h-51z" />
    <glyph glyph-name="questiondown" unicode="&#xbf;" horiz-adv-x="443" 
d="M297 480h41q-7 -72 -32.5 -119t-82.5 -96q-15 -13 -43.5 -33.5t-46 -35t-36.5 -35.5t-28.5 -46.5t-9.5 -55.5q0 -41 26 -67.5t75 -30.5l-9 -41q-73 4 -113.5 40t-40.5 97q0 29 8 54t18 42t32 38t35.5 31.5t44 32.5l43.5 32q58 44 84.5 85t34.5 108zM355 57l-23 -105
q-73 -31 -151 -33l10 41q44 2 71 15q19 10 30 26.5t22 55.5h41zM337 628q16 0 27 -11t11 -28t-13 -29.5t-30 -12.5t-28 11.5t-11 27.5q0 17 13 29.5t31 12.5z" />
    <glyph glyph-name="Agrave" unicode="&#xc0;" horiz-adv-x="703" 
d="M512 36l-71 664h58l69 -624q2 -17 11.5 -28.5t24.5 -11.5h32l-8 -36h-230l8 36h106zM420 618l-295 -517q-12 -22 -15.5 -35.5t3 -21.5t25.5 -8h60l-8 -36h-227l8 36h26q38 0 60 37l316 554q21 36 -12 36h-60l9 37h101zM232 229l23 40h202l4 -40h-229zM427 741l-84 102
l6 25h52l62 -127h-36z" />
    <glyph glyph-name="Aacute" unicode="&#xc1;" horiz-adv-x="703" 
d="M512 36l-71 664h58l69 -624q2 -17 11.5 -28.5t24.5 -11.5h32l-8 -36h-230l8 36h106zM420 618l-295 -517q-12 -22 -15.5 -35.5t3 -21.5t25.5 -8h60l-8 -36h-227l8 36h26q38 0 60 37l316 554q21 36 -12 36h-60l9 37h101zM232 229l23 40h202l4 -40h-229zM411 741l85 127h62
l-6 -25l-102 -102h-39z" />
    <glyph glyph-name="Acircumflex" unicode="&#xc2;" horiz-adv-x="703" 
d="M512 36l-71 664h58l69 -624q2 -17 11.5 -28.5t24.5 -11.5h32l-8 -36h-230l8 36h106zM420 618l-295 -517q-12 -22 -15.5 -35.5t3 -21.5t25.5 -8h60l-8 -36h-227l8 36h26q38 0 60 37l316 554q21 36 -12 36h-60l9 37h101zM232 229l23 40h202l4 -40h-229zM320 741l5 20
l101 107h57l65 -107l-5 -20h-25l-67 88l-101 -88h-30z" />
    <glyph glyph-name="Atilde" unicode="&#xc3;" horiz-adv-x="703" 
d="M512 36l-71 664h58l69 -624q2 -17 11.5 -28.5t24.5 -11.5h32l-8 -36h-230l8 36h106zM420 618l-295 -517q-12 -22 -15.5 -35.5t3 -21.5t25.5 -8h60l-8 -36h-227l8 36h26q38 0 60 37l316 554q21 36 -12 36h-60l9 37h101zM232 229l23 40h202l4 -40h-229zM303 754l7 29
q29 58 79 58q24 0 67 -19.5t60 -19.5q35 0 48 42h36l-7 -29q-30 -57 -80 -57q-24 0 -67 19.5t-59 19.5q-35 0 -47 -43h-37z" />
    <glyph glyph-name="Adieresis" unicode="&#xc4;" horiz-adv-x="703" 
d="M512 36l-71 664h58l69 -624q2 -17 11.5 -28.5t24.5 -11.5h32l-8 -36h-230l8 36h106zM420 618l-295 -517q-12 -22 -15.5 -35.5t3 -21.5t25.5 -8h60l-8 -36h-227l8 36h26q38 0 60 37l316 554q21 36 -12 36h-60l9 37h101zM232 229l23 40h202l4 -40h-229zM374 765
q-16 0 -26 10t-10 26q0 17 11.5 28.5t27.5 11.5q15 0 25.5 -10.5t10.5 -25.5q0 -16 -11.5 -28t-27.5 -12zM520 765q-16 0 -26 10t-10 26t12 28t27 12t25.5 -10.5t10.5 -25.5q0 -16 -11.5 -28t-27.5 -12z" />
    <glyph glyph-name="Aring" unicode="&#xc5;" horiz-adv-x="703" 
d="M512 36l-71 664h58l69 -624q2 -17 11.5 -28.5t24.5 -11.5h32l-8 -36h-230l8 36h106zM420 618l-295 -517q-12 -22 -15.5 -35.5t3 -21.5t25.5 -8h60l-8 -36h-227l8 36h26q38 0 60 37l316 554q21 36 -12 36h-60l9 37h101zM232 229l23 40h202l4 -40h-229zM444 742h-4l8 32
q23 2 38 18t15 43q0 36 -30 49l8 32q26 -8 42 -29.5t16 -50.5q0 -42 -28 -68t-65 -26zM353 826q0 42 28.5 68.5t67.5 26.5h1l-8 -32q-24 -2 -38.5 -18.5t-14.5 -43.5q0 -36 30 -48l-8 -32q-25 7 -41.5 28.5t-16.5 50.5z" />
    <glyph glyph-name="AE" unicode="&#xc6;" horiz-adv-x="969" 
d="M565 668l-436 -570q-22 -29 -17.5 -45.5t34.5 -16.5h49l-8 -36h-225l8 36h25q32 0 61 37l419 551q12 16 8.5 27.5t-20.5 11.5h-57l9 37h158zM656 661l-65 -280l-9 -39l-80 -342h-141l8 36h80l4 17l48 207l93 401l9 39h62zM875 0h-342l9 39h288l42 141h44zM946 661h-260
l9 39h312l-39 -168h-42zM754 342h-142l9 39h140l30 89h40l-50 -218h-41zM266 229l30 40h176l-9 -40h-197z" />
    <glyph glyph-name="Ccedilla" unicode="&#xc7;" horiz-adv-x="626" 
d="M117 257q0 -104 49.5 -161.5t139.5 -58.5l-10 -42q-114 3 -177.5 72.5t-63.5 189.5q0 183 109.5 313t278.5 135l-10 -43q-140 -9 -228 -122t-88 -283zM592 617q-40 43 -128 46l10 42q79 -4 134 -32q14 0 20 27h41l-46 -197h-45zM548 79q-92 -78 -222 -83l10 42
q65 4 107.5 26.5t81.5 62.5h34zM247 -174q-41 0 -75 18l8 32h25q12 -18 42 -18q50 0 50 39q0 32 -51 32h-12l7 33h19q84 0 84 -64q0 -34 -26.5 -53t-70.5 -19z" />
    <glyph glyph-name="Egrave" unicode="&#xc8;" horiz-adv-x="588" 
d="M-34 0l8 36h46q13 0 26.5 10.5t16.5 22.5l128 560q3 13 -3 23.5t-18 10.5h-51l9 37h140l-161 -700h-141zM494 0h-356l9 39h302l42 141h44zM565 661h-275l9 39h327l-39 -168h-42zM373 342h-157l9 39h155l30 89h40l-50 -218h-41zM397 741l-84 102l6 25h52l62 -127h-36z" />
    <glyph glyph-name="Eacute" unicode="&#xc9;" horiz-adv-x="588" 
d="M381 741l85 127h62l-6 -25l-102 -102h-39zM-34 0l8 36h46q13 0 26.5 10.5t16.5 22.5l128 560q3 13 -3 23.5t-18 10.5h-51l9 37h140l-161 -700h-141zM494 0h-356l9 39h302l42 141h44zM565 661h-275l9 39h327l-39 -168h-42zM373 342h-157l9 39h155l30 89h40l-50 -218h-41z
" />
    <glyph glyph-name="Ecircumflex" unicode="&#xca;" horiz-adv-x="588" 
d="M290 741l5 20l101 107h57l65 -107l-5 -20h-25l-67 88l-101 -88h-30zM-34 0l8 36h46q13 0 26.5 10.5t16.5 22.5l128 560q3 13 -3 23.5t-18 10.5h-51l9 37h140l-161 -700h-141zM494 0h-356l9 39h302l42 141h44zM565 661h-275l9 39h327l-39 -168h-42zM373 342h-157l9 39h155
l30 89h40l-50 -218h-41z" />
    <glyph glyph-name="Edieresis" unicode="&#xcb;" horiz-adv-x="588" 
d="M344 765q-16 0 -26 10t-10 26q0 17 11.5 28.5t27.5 11.5q15 0 25.5 -10.5t10.5 -25.5q0 -16 -11.5 -28t-27.5 -12zM490 765q-16 0 -26 10t-10 26t12 28t27 12t25.5 -10.5t10.5 -25.5q0 -16 -11.5 -28t-27.5 -12zM-34 0l8 36h46q13 0 26.5 10.5t16.5 22.5l128 560
q3 13 -3 23.5t-18 10.5h-51l9 37h140l-161 -700h-141zM494 0h-356l9 39h302l42 141h44zM565 661h-275l9 39h327l-39 -168h-42zM373 342h-157l9 39h155l30 89h40l-50 -218h-41z" />
    <glyph glyph-name="Igrave" unicode="&#xcc;" horiz-adv-x="292" 
d="M-34 0l8 36h56q13 0 26 10.5t16 22.5l129 560q2 13 -4 23.5t-17 10.5h-61l9 37h240l-9 -37h-55q-13 0 -26 -11t-16 -23l-128 -560q-3 -13 2.5 -23t17.5 -10h61l-8 -36h-241zM245 741l-84 102l6 25h52l62 -127h-36z" />
    <glyph glyph-name="Iacute" unicode="&#xcd;" horiz-adv-x="292" 
d="M-34 0l8 36h56q13 0 26 10.5t16 22.5l129 560q2 13 -4 23.5t-17 10.5h-61l9 37h240l-9 -37h-55q-13 0 -26 -11t-16 -23l-128 -560q-3 -13 2.5 -23t17.5 -10h61l-8 -36h-241zM229 741l85 127h62l-6 -25l-102 -102h-39z" />
    <glyph glyph-name="Icircumflex" unicode="&#xce;" horiz-adv-x="292" 
d="M-34 0l8 36h56q13 0 26 10.5t16 22.5l129 560q2 13 -4 23.5t-17 10.5h-61l9 37h240l-9 -37h-55q-13 0 -26 -11t-16 -23l-128 -560q-3 -13 2.5 -23t17.5 -10h61l-8 -36h-241zM145 741l5 20l101 107h57l65 -107l-5 -20h-25l-67 88l-101 -88h-30z" />
    <glyph glyph-name="Idieresis" unicode="&#xcf;" horiz-adv-x="292" 
d="M-34 0l8 36h56q13 0 26 10.5t16 22.5l129 560q2 13 -4 23.5t-17 10.5h-61l9 37h240l-9 -37h-55q-13 0 -26 -11t-16 -23l-128 -560q-3 -13 2.5 -23t17.5 -10h61l-8 -36h-241zM192 765q-16 0 -26 10t-10 26q0 17 11.5 28.5t27.5 11.5q15 0 25.5 -10.5t10.5 -25.5
q0 -16 -11.5 -28t-27.5 -12zM338 765q-16 0 -26 10t-10 26t12 28t27 12t25.5 -10.5t10.5 -25.5q0 -16 -11.5 -28t-27.5 -12z" />
    <glyph glyph-name="Eth" unicode="&#xd0;" horiz-adv-x="684" 
d="M252 0h-113l9 39h107q177 0 266 108.5t89 293.5q0 220 -241 220h-78l9 39h76q144 0 220.5 -67t76.5 -196q0 -197 -107.5 -317t-313.5 -120zM42 329l10 39h79l60 261q3 13 -3 23.5t-18 10.5h-51l9 37h141l-161 -700h-142l8 36h46q13 0 26.5 10.5t16.5 22.5l59 260h-80z
M385 329h-171l9 39h172z" />
    <glyph glyph-name="Ntilde" unicode="&#xd1;" horiz-adv-x="715" 
d="M-34 0l8 36h46q13 0 26.5 11t16.5 23l128 559q3 13 -3 23.5t-18 10.5h-51l9 37h129l-153 -664h103l-8 -36h-233zM501 0l-239 590l20 89l275 -666l-3 -13h-53zM699 631l-131 -567l-31 77l120 522h-101l9 37h230l-9 -37h-46q-12 0 -25.5 -10.5t-15.5 -21.5zM328 754l7 29
q29 58 79 58q24 0 67 -19.5t60 -19.5q35 0 48 42h36l-7 -29q-30 -57 -80 -57q-24 0 -67 19.5t-59 19.5q-35 0 -47 -43h-37z" />
    <glyph glyph-name="Ograve" unicode="&#xd2;" horiz-adv-x="712" 
d="M697 432q0 -187 -110 -311t-259 -126l10 42q123 6 209.5 118t86.5 280q0 103 -49.5 162.5t-140.5 64.5l10 42q113 -8 178 -79.5t65 -192.5zM56 267q0 186 109.5 311t258.5 127l-10 -42q-124 -6 -209.5 -117.5t-85.5 -281.5q0 -105 48.5 -162.5t140.5 -64.5l-10 -41
q-113 7 -177.5 78t-64.5 193zM437 744l-84 102l6 25h52l62 -127h-36z" />
    <glyph glyph-name="Oacute" unicode="&#xd3;" horiz-adv-x="712" 
d="M421 744l85 127h62l-6 -25l-102 -102h-39zM697 432q0 -187 -110 -311t-259 -126l10 42q123 6 209.5 118t86.5 280q0 103 -49.5 162.5t-140.5 64.5l10 42q113 -8 178 -79.5t65 -192.5zM56 267q0 186 109.5 311t258.5 127l-10 -42q-124 -6 -209.5 -117.5t-85.5 -281.5
q0 -105 48.5 -162.5t140.5 -64.5l-10 -41q-113 7 -177.5 78t-64.5 193z" />
    <glyph glyph-name="Ocircumflex" unicode="&#xd4;" horiz-adv-x="712" 
d="M336 744l5 20l101 107h57l65 -107l-5 -20h-25l-67 88l-101 -88h-30zM697 432q0 -187 -110 -311t-259 -126l10 42q123 6 209.5 118t86.5 280q0 103 -49.5 162.5t-140.5 64.5l10 42q113 -8 178 -79.5t65 -192.5zM56 267q0 186 109.5 311t258.5 127l-10 -42
q-124 -6 -209.5 -117.5t-85.5 -281.5q0 -105 48.5 -162.5t140.5 -64.5l-10 -41q-113 7 -177.5 78t-64.5 193z" />
    <glyph glyph-name="Otilde" unicode="&#xd5;" horiz-adv-x="712" 
d="M697 432q0 -187 -110 -311t-259 -126l10 42q123 6 209.5 118t86.5 280q0 103 -49.5 162.5t-140.5 64.5l10 42q113 -8 178 -79.5t65 -192.5zM56 267q0 186 109.5 311t258.5 127l-10 -42q-124 -6 -209.5 -117.5t-85.5 -281.5q0 -105 48.5 -162.5t140.5 -64.5l-10 -41
q-113 7 -177.5 78t-64.5 193zM313 757l7 29q29 58 79 58q24 0 67 -19.5t60 -19.5q35 0 48 42h36l-7 -29q-30 -57 -80 -57q-24 0 -67 19.5t-59 19.5q-35 0 -47 -43h-37z" />
    <glyph glyph-name="Odieresis" unicode="&#xd6;" horiz-adv-x="712" 
d="M382 760q-16 0 -26 10t-10 26q0 17 11.5 28.5t27.5 11.5q15 0 25.5 -10.5t10.5 -25.5q0 -16 -11.5 -28t-27.5 -12zM528 760q-16 0 -26 10t-10 26t12 28t27 12t25.5 -10.5t10.5 -25.5q0 -16 -11.5 -28t-27.5 -12zM697 432q0 -187 -110 -311t-259 -126l10 42
q123 6 209.5 118t86.5 280q0 103 -49.5 162.5t-140.5 64.5l10 42q113 -8 178 -79.5t65 -192.5zM56 267q0 186 109.5 311t258.5 127l-10 -42q-124 -6 -209.5 -117.5t-85.5 -281.5q0 -105 48.5 -162.5t140.5 -64.5l-10 -41q-113 7 -177.5 78t-64.5 193z" />
    <glyph glyph-name="multiply" unicode="&#xd7;" horiz-adv-x="482" 
d="M147 524l260 -342l-36 -30l-260 342zM476 492l-164 -136l-25 33l163 135zM68 152l-26 32l163 135l24 -32z" />
    <glyph glyph-name="Oslash" unicode="&#xd8;" horiz-adv-x="712" 
d="M728 721l-90 -103q59 -71 59 -186q0 -187 -110 -311t-259 -126l10 42q123 6 209.5 118t86.5 280q0 104 -49.5 163.5t-140.5 63.5l10 42q97 -8 158 -60l67 77h49zM24 -29l93 107q-61 72 -61 189q0 186 109.5 311t258.5 127l-10 -42q-124 -6 -209.5 -117.5t-85.5 -281.5
q0 -214 189 -227l-10 -41q-93 6 -154 56l-71 -81h-49zM195 111l-23 29l387 444l23 -30z" />
    <glyph glyph-name="Ugrave" unicode="&#xd9;" horiz-adv-x="715" 
d="M158 238q-42 -183 139 -198l-10 -44q-108 10 -162 72t-27 176l88 384q3 13 -2.5 24t-17.5 11h-47l9 37h237l-9 -37h-100zM326 -5h-9l10 44q94 0 149.5 41t79.5 144l101 439h-99l9 37h224l-9 -37h-43q-13 0 -26 -11.5t-15 -23.5l-94 -408q-28 -122 -95.5 -173.5
t-182.5 -51.5zM459 741l-84 102l6 25h52l62 -127h-36z" />
    <glyph glyph-name="Uacute" unicode="&#xda;" horiz-adv-x="715" 
d="M443 741l85 127h62l-6 -25l-102 -102h-39zM158 238q-42 -183 139 -198l-10 -44q-108 10 -162 72t-27 176l88 384q3 13 -2.5 24t-17.5 11h-47l9 37h237l-9 -37h-100zM326 -5h-9l10 44q94 0 149.5 41t79.5 144l101 439h-99l9 37h224l-9 -37h-43q-13 0 -26 -11.5t-15 -23.5
l-94 -408q-28 -122 -95.5 -173.5t-182.5 -51.5z" />
    <glyph glyph-name="Ucircumflex" unicode="&#xdb;" horiz-adv-x="715" 
d="M359 741l5 20l101 107h57l65 -107l-5 -20h-25l-67 88l-101 -88h-30zM158 238q-42 -183 139 -198l-10 -44q-108 10 -162 72t-27 176l88 384q3 13 -2.5 24t-17.5 11h-47l9 37h237l-9 -37h-100zM326 -5h-9l10 44q94 0 149.5 41t79.5 144l101 439h-99l9 37h224l-9 -37h-43
q-13 0 -26 -11.5t-15 -23.5l-94 -408q-28 -122 -95.5 -173.5t-182.5 -51.5z" />
    <glyph glyph-name="Udieresis" unicode="&#xdc;" horiz-adv-x="715" 
d="M406 765q-16 0 -26 10t-10 26q0 17 11.5 28.5t27.5 11.5q15 0 25.5 -10.5t10.5 -25.5q0 -16 -11.5 -28t-27.5 -12zM552 765q-16 0 -26 10t-10 26t12 28t27 12t25.5 -10.5t10.5 -25.5q0 -16 -11.5 -28t-27.5 -12zM158 238q-42 -183 139 -198l-10 -44q-108 10 -162 72
t-27 176l88 384q3 13 -2.5 24t-17.5 11h-47l9 37h237l-9 -37h-100zM326 -5h-9l10 44q94 0 149.5 41t79.5 144l101 439h-99l9 37h224l-9 -37h-43q-13 0 -26 -11.5t-15 -23.5l-94 -408q-28 -122 -95.5 -173.5t-182.5 -51.5z" />
    <glyph glyph-name="Yacute" unicode="&#xdd;" horiz-adv-x="643" 
d="M147 0l8 36h53q13 0 26.5 10.5t15.5 22.5l52 232l-121 323q-14 39 -46 39h-18l9 37h209l-9 -37h-96l134 -364l-53 -230q-3 -13 3 -23t18 -10h58l-8 -36h-235zM633 626l-246 -302l-16 44l190 235q24 29 19 44.5t-33 15.5h-44l8 37h209l-9 -37h-19q-29 0 -59 -37zM410 741
l85 127h62l-6 -25l-102 -102h-39z" />
    <glyph glyph-name="Thorn" unicode="&#xde;" horiz-adv-x="575" 
d="M261 663l-145 -627h98l-8 -36h-240l8 36h46q13 0 26.5 10.5t16.5 22.5l128 560q3 13 -3 23.5t-18 10.5h-51l9 37h238l-9 -37h-96zM291 172h-113l9 39h107q214 0 214 182q0 110 -157 110h-97l10 41h94q213 0 213 -146q0 -112 -74.5 -169t-205.5 -57z" />
    <glyph glyph-name="germandbls" unicode="&#xdf;" horiz-adv-x="579" 
d="M-72 -162l8 34q31 14 51.5 39t32.5 75l114 513q46 199 235 206l-10 -41q-131 -11 -167 -167l-116 -512q-25 -110 -112 -147h-36zM491 586q0 35 -26.5 56t-74.5 23l10 40q67 -5 107 -34.5t40 -78.5q0 -29 -18 -55t-36.5 -40.5t-65.5 -47.5q-9 -7 -14 -10q-26 -18 -40 -29
t-25.5 -26t-11.5 -29q0 -19 14.5 -32t51.5 -35q8 -4 12 -7q33 -19 52.5 -33.5t37.5 -42t18 -58.5q0 -64 -46 -105.5t-122 -45.5l9 39q48 4 77 33.5t29 71.5q0 17 -6.5 31.5t-25 29t-27.5 19.5t-37 22q-46 26 -68 48t-22 55q0 31 23.5 57.5t78.5 66.5q5 4 27.5 19.5t31 23
t22.5 21t19.5 26.5t5.5 27zM268 51q18 -14 64 -17l-9 -38q-71 4 -125 35l21 89h38q-6 -57 11 -69z" />
    <glyph glyph-name="agrave" unicode="&#xe0;" horiz-adv-x="507" 
d="M163 35q72 0 131 52l-10 -46q-54 -46 -128 -46q-65 0 -104.5 35t-39.5 93q0 87 59.5 131.5t161.5 44.5q56 0 104 -15l-8 -36q-44 13 -97 13q-78 0 -121.5 -33t-43.5 -101q0 -43 26.5 -67.5t69.5 -24.5zM388 -4q-38 0 -56.5 23.5t-9.5 61.5l64 280q13 57 -12 89.5
t-83 35.5l9 41q81 -2 121.5 -46.5t22.5 -121.5l-65 -278q-5 -21 4 -33.5t29 -12.5q17 0 32 3l-7 -32q-23 -10 -49 -10zM112 489q72 35 158 38l-9 -41q-78 -5 -131 -46h-29zM298 573l-84 102l6 25h52l62 -127h-36z" />
    <glyph glyph-name="aacute" unicode="&#xe1;" horiz-adv-x="507" 
d="M163 35q72 0 131 52l-10 -46q-54 -46 -128 -46q-65 0 -104.5 35t-39.5 93q0 87 59.5 131.5t161.5 44.5q56 0 104 -15l-8 -36q-44 13 -97 13q-78 0 -121.5 -33t-43.5 -101q0 -43 26.5 -67.5t69.5 -24.5zM388 -4q-38 0 -56.5 23.5t-9.5 61.5l64 280q13 57 -12 89.5
t-83 35.5l9 41q81 -2 121.5 -46.5t22.5 -121.5l-65 -278q-5 -21 4 -33.5t29 -12.5q17 0 32 3l-7 -32q-23 -10 -49 -10zM112 489q72 35 158 38l-9 -41q-78 -5 -131 -46h-29zM282 573l85 127h62l-6 -25l-102 -102h-39z" />
    <glyph glyph-name="acircumflex" unicode="&#xe2;" horiz-adv-x="507" 
d="M163 35q72 0 131 52l-10 -46q-54 -46 -128 -46q-65 0 -104.5 35t-39.5 93q0 87 59.5 131.5t161.5 44.5q56 0 104 -15l-8 -36q-44 13 -97 13q-78 0 -121.5 -33t-43.5 -101q0 -43 26.5 -67.5t69.5 -24.5zM388 -4q-38 0 -56.5 23.5t-9.5 61.5l64 280q13 57 -12 89.5
t-83 35.5l9 41q81 -2 121.5 -46.5t22.5 -121.5l-65 -278q-5 -21 4 -33.5t29 -12.5q17 0 32 3l-7 -32q-23 -10 -49 -10zM112 489q72 35 158 38l-9 -41q-78 -5 -131 -46h-29zM189 573l5 20l101 107h57l65 -107l-5 -20h-25l-67 88l-101 -88h-30z" />
    <glyph glyph-name="atilde" unicode="&#xe3;" horiz-adv-x="507" 
d="M163 35q72 0 131 52l-10 -46q-54 -46 -128 -46q-65 0 -104.5 35t-39.5 93q0 87 59.5 131.5t161.5 44.5q56 0 104 -15l-8 -36q-44 13 -97 13q-78 0 -121.5 -33t-43.5 -101q0 -43 26.5 -67.5t69.5 -24.5zM388 -4q-38 0 -56.5 23.5t-9.5 61.5l64 280q13 57 -12 89.5
t-83 35.5l9 41q81 -2 121.5 -46.5t22.5 -121.5l-65 -278q-5 -21 4 -33.5t29 -12.5q17 0 32 3l-7 -32q-23 -10 -49 -10zM112 489q72 35 158 38l-9 -41q-78 -5 -131 -46h-29zM156 586l7 29q29 58 79 58q24 0 67 -19.5t60 -19.5q35 0 48 42h36l-7 -29q-30 -57 -80 -57
q-24 0 -67 19.5t-59 19.5q-35 0 -47 -43h-37z" />
    <glyph glyph-name="adieresis" unicode="&#xe4;" horiz-adv-x="507" 
d="M163 35q72 0 131 52l-10 -46q-54 -46 -128 -46q-65 0 -104.5 35t-39.5 93q0 87 59.5 131.5t161.5 44.5q56 0 104 -15l-8 -36q-44 13 -97 13q-78 0 -121.5 -33t-43.5 -101q0 -43 26.5 -67.5t69.5 -24.5zM388 -4q-38 0 -56.5 23.5t-9.5 61.5l64 280q13 57 -12 89.5
t-83 35.5l9 41q81 -2 121.5 -46.5t22.5 -121.5l-65 -278q-5 -21 4 -33.5t29 -12.5q17 0 32 3l-7 -32q-23 -10 -49 -10zM112 489q72 35 158 38l-9 -41q-78 -5 -131 -46h-29zM245 597q-16 0 -26 10t-10 26q0 17 11.5 28.5t27.5 11.5q15 0 25.5 -10.5t10.5 -25.5
q0 -16 -11.5 -28t-27.5 -12zM391 597q-16 0 -26 10t-10 26t12 28t27 12t25.5 -10.5t10.5 -25.5q0 -16 -11.5 -28t-27.5 -12z" />
    <glyph glyph-name="aring" unicode="&#xe5;" horiz-adv-x="507" 
d="M163 35q72 0 131 52l-10 -46q-54 -46 -128 -46q-65 0 -104.5 35t-39.5 93q0 87 59.5 131.5t161.5 44.5q56 0 104 -15l-8 -36q-44 13 -97 13q-78 0 -121.5 -33t-43.5 -101q0 -43 26.5 -67.5t69.5 -24.5zM388 -4q-38 0 -56.5 23.5t-9.5 61.5l64 280q13 57 -12 89.5
t-83 35.5l9 41q81 -2 121.5 -46.5t22.5 -121.5l-65 -278q-5 -21 4 -33.5t29 -12.5q17 0 32 3l-7 -32q-23 -10 -49 -10zM112 489q72 35 158 38l-9 -41q-78 -5 -131 -46h-29zM315 574h-4l8 32q23 2 38 18t15 43q0 36 -30 49l8 32q26 -8 42 -29.5t16 -50.5q0 -42 -28 -68
t-65 -26zM224 658q0 42 28.5 68.5t67.5 26.5h1l-8 -32q-24 -2 -38.5 -18.5t-14.5 -43.5q0 -36 30 -48l-8 -32q-25 7 -41.5 28.5t-16.5 50.5z" />
    <glyph glyph-name="ae" unicode="&#xe6;" horiz-adv-x="813" 
d="M337 105l13 -34q-80 -76 -184 -76q-73 0 -113.5 35t-40.5 96q0 161 230 161q50 0 88 -6l-5 -37q-45 5 -85 5q-86 0 -129.5 -27t-43.5 -92q0 -46 26.5 -70.5t76.5 -24.5q92 0 167 70zM742 408q0 74 -78 80l9 38q56 -3 90.5 -32t34.5 -84q0 -87 -87.5 -127.5t-268.5 -45.5
l5 38q155 5 225 34t70 99zM720 53q-70 -52 -157 -56l9 38q75 8 125 62h34zM434 417q37 49 91 78.5t118 31.5l-9 -39q-99 -7 -161.5 -89.5t-62.5 -202.5q0 -159 131 -162l-9 -38q-84 2 -132 54t-48 147q0 25 3.5 51t6.5 41t9.5 39.5l8.5 32.5q14 59 -13 90.5t-83 34.5l10 41
q62 -2 99 -30t41 -80zM106 489q73 35 158 38l-10 -41q-77 -5 -130 -46h-29z" />
    <glyph glyph-name="ccedilla" unicode="&#xe7;" horiz-adv-x="490" 
d="M91 192q0 -151 127 -158l-9 -38q-86 6 -131.5 58.5t-45.5 137.5q0 137 82.5 232.5t214.5 102.5l-9 -40q-105 -8 -167 -93.5t-62 -201.5zM401 478q-18 8 -50 10l9 39q71 -2 130 -32l-22 -94h-37q2 34 -4 51t-26 26zM402 53q-72 -53 -162 -57l9 39q76 5 130 62h34z
M169 -174q-41 0 -75 18l8 32h25q12 -18 42 -18q50 0 50 39q0 32 -51 32h-12l7 33h19q84 0 84 -64q0 -34 -26.5 -53t-70.5 -19z" />
    <glyph glyph-name="egrave" unicode="&#xe8;" horiz-adv-x="494" 
d="M123 235l6 38q152 5 222.5 36.5t70.5 98.5q0 74 -77 80l9 38q57 -4 91 -33t34 -83q0 -166 -356 -175zM315 488q-97 -6 -160.5 -91t-63.5 -201q0 -73 33 -117t98 -45l-9 -38q-88 3 -134 57.5t-46 143.5q0 136 84.5 230.5t206.5 99.5zM401 53q-72 -53 -157 -57l8 38
q76 9 126 63h34zM317 573l-84 102l6 25h52l62 -127h-36z" />
    <glyph glyph-name="eacute" unicode="&#xe9;" horiz-adv-x="494" 
d="M290 573l85 127h62l-6 -25l-102 -102h-39zM123 235l6 38q152 5 222.5 36.5t70.5 98.5q0 74 -77 80l9 38q57 -4 91 -33t34 -83q0 -166 -356 -175zM315 488q-97 -6 -160.5 -91t-63.5 -201q0 -73 33 -117t98 -45l-9 -38q-88 3 -134 57.5t-46 143.5q0 136 84.5 230.5
t206.5 99.5zM401 53q-72 -53 -157 -57l8 38q76 9 126 63h34z" />
    <glyph glyph-name="ecircumflex" unicode="&#xea;" horiz-adv-x="494" 
d="M216 573l5 20l101 107h57l65 -107l-5 -20h-25l-67 88l-101 -88h-30zM123 235l6 38q152 5 222.5 36.5t70.5 98.5q0 74 -77 80l9 38q57 -4 91 -33t34 -83q0 -166 -356 -175zM315 488q-97 -6 -160.5 -91t-63.5 -201q0 -73 33 -117t98 -45l-9 -38q-88 3 -134 57.5t-46 143.5
q0 136 84.5 230.5t206.5 99.5zM401 53q-72 -53 -157 -57l8 38q76 9 126 63h34z" />
    <glyph glyph-name="edieresis" unicode="&#xeb;" horiz-adv-x="494" 
d="M264 597q-16 0 -26 10t-10 26q0 17 11.5 28.5t27.5 11.5q15 0 25.5 -10.5t10.5 -25.5q0 -16 -11.5 -28t-27.5 -12zM410 597q-16 0 -26 10t-10 26t12 28t27 12t25.5 -10.5t10.5 -25.5q0 -16 -11.5 -28t-27.5 -12zM123 235l6 38q152 5 222.5 36.5t70.5 98.5q0 74 -77 80
l9 38q57 -4 91 -33t34 -83q0 -166 -356 -175zM315 488q-97 -6 -160.5 -91t-63.5 -201q0 -73 33 -117t98 -45l-9 -38q-88 3 -134 57.5t-46 143.5q0 136 84.5 230.5t206.5 99.5zM401 53q-72 -53 -157 -57l8 38q76 9 126 63h34z" />
    <glyph glyph-name="igrave" unicode="&#xec;" horiz-adv-x="247" 
d="M117 -4q-38 0 -55 23.5t-7 64.5l82 355q5 19 -4.5 32t-27.5 13h-40l7 31q39 11 63 11q79 0 60 -87l-83 -358q-4 -18 6.5 -31.5t28.5 -13.5h31l-7 -30q-20 -10 -54 -10zM168 576l-84 102l6 25h52l62 -127h-36z" />
    <glyph glyph-name="iacute" unicode="&#xed;" horiz-adv-x="247" 
d="M117 -4q-38 0 -55 23.5t-7 64.5l82 355q5 19 -4.5 32t-27.5 13h-40l7 31q39 11 63 11q79 0 60 -87l-83 -358q-4 -18 6.5 -31.5t28.5 -13.5h31l-7 -30q-20 -10 -54 -10zM155 576l85 127h62l-6 -25l-102 -102h-39z" />
    <glyph glyph-name="icircumflex" unicode="&#xee;" horiz-adv-x="247" 
d="M117 -4q-38 0 -55 23.5t-7 64.5l82 355q5 19 -4.5 32t-27.5 13h-40l7 31q39 11 63 11q79 0 60 -87l-83 -358q-4 -18 6.5 -31.5t28.5 -13.5h31l-7 -30q-20 -10 -54 -10zM59 576l5 20l101 107h57l65 -107l-5 -20h-25l-67 88l-101 -88h-30z" />
    <glyph glyph-name="idieresis" unicode="&#xef;" horiz-adv-x="247" 
d="M117 -4q-38 0 -55 23.5t-7 64.5l82 355q5 19 -4.5 32t-27.5 13h-40l7 31q39 11 63 11q79 0 60 -87l-83 -358q-4 -18 6.5 -31.5t28.5 -13.5h31l-7 -30q-20 -10 -54 -10zM108 600q-16 0 -26 10t-10 26q0 17 11.5 28.5t27.5 11.5q15 0 25.5 -10.5t10.5 -25.5
q0 -16 -11.5 -28t-27.5 -12zM254 600q-16 0 -26 10t-10 26t12 28t27 12t25.5 -10.5t10.5 -25.5q0 -16 -11.5 -28t-27.5 -12z" />
    <glyph glyph-name="eth" unicode="&#xf0;" horiz-adv-x="556" 
d="M91 201q0 -77 37 -121t104 -47l-8 -37q-90 5 -140.5 61.5t-50.5 149.5q0 130 80.5 224.5t194.5 94.5q64 0 104 -26l19 -61q-41 48 -118 48q-96 0 -159 -84t-63 -202zM466 353q0 50 -7 89t-22.5 67t-26.5 42t-30 35l43 27q102 -94 102 -261q0 -157 -75.5 -253t-195.5 -103
l9 38q94 12 148.5 99.5t54.5 219.5zM491 685l-218 -133h-39l3 15l93 56q-39 23 -95 37l10 40h22q63 -19 108 -49l81 49h38z" />
    <glyph glyph-name="ntilde" unicode="&#xf1;" horiz-adv-x="587" 
d="M457 -4q-35 0 -52 23.5t-8 62.5l70 304q11 47 -4.5 70.5t-51.5 23.5q-87 0 -196 -80l10 43q108 84 206 84q57 0 83.5 -35.5t11.5 -99.5l-71 -309q-4 -19 6 -33t27 -14h30l-7 -30q-23 -10 -54 -10zM133 526q34 0 52 -21t8 -68l-100 -437h-37q-22 0 -14 29l94 410
q5 19 -4.5 32t-28.5 13h-38l7 31q39 11 61 11zM215 586l7 29q29 58 79 58q24 0 67 -19.5t60 -19.5q35 0 48 42h36l-7 -29q-30 -57 -80 -57q-24 0 -67 19.5t-59 19.5q-35 0 -47 -43h-37z" />
    <glyph glyph-name="ograve" unicode="&#xf2;" horiz-adv-x="555" 
d="M33 204q0 133 80.5 226.5t200.5 96.5l-9 -40q-95 -7 -154.5 -89.5t-59.5 -199.5q0 -74 34 -116.5t98 -46.5l-9 -38q-85 7 -133 62t-48 145zM524 323q0 -134 -80 -229t-200 -98l9 38q95 7 154 92t59 200q0 72 -34 114t-97 46l9 40q85 -7 132.5 -62t47.5 -141zM327 573
l-84 102l6 25h52l62 -127h-36z" />
    <glyph glyph-name="oacute" unicode="&#xf3;" horiz-adv-x="555" 
d="M311 573l85 127h62l-6 -25l-102 -102h-39zM33 204q0 133 80.5 226.5t200.5 96.5l-9 -40q-95 -7 -154.5 -89.5t-59.5 -199.5q0 -74 34 -116.5t98 -46.5l-9 -38q-85 7 -133 62t-48 145zM524 323q0 -134 -80 -229t-200 -98l9 38q95 7 154 92t59 200q0 72 -34 114t-97 46
l9 40q85 -7 132.5 -62t47.5 -141z" />
    <glyph glyph-name="ocircumflex" unicode="&#xf4;" horiz-adv-x="555" 
d="M227 573l5 20l101 107h57l65 -107l-5 -20h-25l-67 88l-101 -88h-30zM33 204q0 133 80.5 226.5t200.5 96.5l-9 -40q-95 -7 -154.5 -89.5t-59.5 -199.5q0 -74 34 -116.5t98 -46.5l-9 -38q-85 7 -133 62t-48 145zM524 323q0 -134 -80 -229t-200 -98l9 38q95 7 154 92t59 200
q0 72 -34 114t-97 46l9 40q85 -7 132.5 -62t47.5 -141z" />
    <glyph glyph-name="otilde" unicode="&#xf5;" horiz-adv-x="555" 
d="M33 204q0 133 80.5 226.5t200.5 96.5l-9 -40q-95 -7 -154.5 -89.5t-59.5 -199.5q0 -74 34 -116.5t98 -46.5l-9 -38q-85 7 -133 62t-48 145zM524 323q0 -134 -80 -229t-200 -98l9 38q95 7 154 92t59 200q0 72 -34 114t-97 46l9 40q85 -7 132.5 -62t47.5 -141zM203 586
l7 29q29 58 79 58q24 0 67 -19.5t60 -19.5q35 0 48 42h36l-7 -29q-30 -57 -80 -57q-24 0 -67 19.5t-59 19.5q-35 0 -47 -43h-37z" />
    <glyph glyph-name="odieresis" unicode="&#xf6;" horiz-adv-x="555" 
d="M274 597q-16 0 -26 10t-10 26q0 17 11.5 28.5t27.5 11.5q15 0 25.5 -10.5t10.5 -25.5q0 -16 -11.5 -28t-27.5 -12zM420 597q-16 0 -26 10t-10 26t12 28t27 12t25.5 -10.5t10.5 -25.5q0 -16 -11.5 -28t-27.5 -12zM33 204q0 133 80.5 226.5t200.5 96.5l-9 -40
q-95 -7 -154.5 -89.5t-59.5 -199.5q0 -74 34 -116.5t98 -46.5l-9 -38q-85 7 -133 62t-48 145zM524 323q0 -134 -80 -229t-200 -98l9 38q95 7 154 92t59 200q0 72 -34 114t-97 46l9 40q85 -7 132.5 -62t47.5 -141z" />
    <glyph glyph-name="divide" unicode="&#xf7;" horiz-adv-x="485" 
d="M226 158q-16 0 -26 11t-9 27q1 17 14 28.5t30 11.5t27 -11t8 -27q-1 -17 -14 -28.5t-30 -11.5zM289 455q-17 0 -27 11t-8 27q1 17 14 28.5t30 11.5t27 -11t8 -27q-1 -17 -14 -28.5t-30 -11.5zM55 324l10 43h405l-10 -43h-405z" />
    <glyph glyph-name="oslash" unicode="&#xf8;" horiz-adv-x="555" 
d="M5 -25l75 85q-47 53 -47 144q0 133 80.5 226.5t200.5 96.5l-9 -40q-95 -7 -154.5 -89.5t-59.5 -199.5q0 -153 132 -164l-9 -37q-63 4 -109 39l-55 -61h-45zM550 543l-72 -82q46 -54 46 -138q0 -134 -80 -229t-200 -98l9 38q95 7 154 92.5t59 199.5q0 150 -131 161l9 39
q65 -6 109 -41l52 58h45zM152 91l-21 27l274 312l21 -28z" />
    <glyph glyph-name="ugrave" unicode="&#xf9;" horiz-adv-x="581" 
d="M167 -6q-61 0 -89.5 38.5t-13.5 105.5l69 301q5 19 -4.5 32t-27.5 13h-36l8 31q29 11 60 11q36 0 51.5 -24.5t5.5 -67.5l-67 -291q-12 -51 6 -77.5t60 -26.5q78 0 175 74l-10 -45q-93 -74 -187 -74zM388 85l101 437h38q20 0 14 -29l-94 -411q-4 -19 5.5 -32.5t26.5 -13.5
h34l-7 -30q-22 -10 -56 -10q-37 0 -54 24.5t-8 64.5zM338 576l-84 102l6 25h52l62 -127h-36z" />
    <glyph glyph-name="uacute" unicode="&#xfa;" horiz-adv-x="581" 
d="M314 576l85 127h62l-6 -25l-102 -102h-39zM167 -6q-61 0 -89.5 38.5t-13.5 105.5l69 301q5 19 -4.5 32t-27.5 13h-36l8 31q29 11 60 11q36 0 51.5 -24.5t5.5 -67.5l-67 -291q-12 -51 6 -77.5t60 -26.5q78 0 175 74l-10 -45q-93 -74 -187 -74zM388 85l101 437h38
q20 0 14 -29l-94 -411q-4 -19 5.5 -32.5t26.5 -13.5h34l-7 -30q-22 -10 -56 -10q-37 0 -54 24.5t-8 64.5z" />
    <glyph glyph-name="ucircumflex" unicode="&#xfb;" horiz-adv-x="581" 
d="M234 576l5 20l101 107h57l65 -107l-5 -20h-25l-67 88l-101 -88h-30zM167 -6q-61 0 -89.5 38.5t-13.5 105.5l69 301q5 19 -4.5 32t-27.5 13h-36l8 31q29 11 60 11q36 0 51.5 -24.5t5.5 -67.5l-67 -291q-12 -51 6 -77.5t60 -26.5q78 0 175 74l-10 -45q-93 -74 -187 -74z
M388 85l101 437h38q20 0 14 -29l-94 -411q-4 -19 5.5 -32.5t26.5 -13.5h34l-7 -30q-22 -10 -56 -10q-37 0 -54 24.5t-8 64.5z" />
    <glyph glyph-name="udieresis" unicode="&#xfc;" horiz-adv-x="581" 
d="M278 600q-16 0 -26 10t-10 26q0 17 11.5 28.5t27.5 11.5q15 0 25.5 -10.5t10.5 -25.5q0 -16 -11.5 -28t-27.5 -12zM424 600q-16 0 -26 10t-10 26t12 28t27 12t25.5 -10.5t10.5 -25.5q0 -16 -11.5 -28t-27.5 -12zM167 -6q-61 0 -89.5 38.5t-13.5 105.5l69 301
q5 19 -4.5 32t-27.5 13h-36l8 31q29 11 60 11q36 0 51.5 -24.5t5.5 -67.5l-67 -291q-12 -51 6 -77.5t60 -26.5q78 0 175 74l-10 -45q-93 -74 -187 -74zM388 85l101 437h38q20 0 14 -29l-94 -411q-4 -19 5.5 -32.5t26.5 -13.5h34l-7 -30q-22 -10 -56 -10q-37 0 -54 24.5
t-8 64.5z" />
    <glyph glyph-name="yacute" unicode="&#xfd;" horiz-adv-x="571" 
d="M194 59q79 0 174 72l-10 -44q-94 -73 -182 -73q-63 0 -93 36.5t-15 103.5l65 285q5 19 -4.5 32t-27.5 13h-36l7 31q26 11 62 11q34 0 50 -24t6 -68l-63 -276q-23 -99 67 -99zM423 -13q-19 -79 -73.5 -116.5t-152.5 -39.5l8 38q71 3 109 33t52 88l123 532h38q20 0 13 -30z
M64 -90q30 -38 111 -41l-9 -38q-78 3 -148 33l11 46h35zM318 573l85 127h62l-6 -25l-102 -102h-39z" />
    <glyph glyph-name="thorn" unicode="&#xfe;" horiz-adv-x="553" 
d="M223 682l-174 -755l-12 -55h86l-7 -34h-214l8 34h42q11 0 21.5 8.5t12.5 19.5l168 734q3 11 -3 20t-16 9h-49l9 37h117q16 0 11 -18zM225 40q94 0 157 64q38 40 60.5 105.5t22.5 142.5q0 132 -103 132q-80 0 -174 -84l12 49q83 78 179 78q67 0 106 -41t39 -128
q0 -80 -28.5 -157t-73.5 -124q-73 -76 -187 -76q-81 0 -131 32l8 35q43 -28 113 -28z" />
    <glyph glyph-name="ydieresis" unicode="&#xff;" horiz-adv-x="571" 
d="M194 59q79 0 174 72l-10 -44q-94 -73 -182 -73q-63 0 -93 36.5t-15 103.5l65 285q5 19 -4.5 32t-27.5 13h-36l7 31q26 11 62 11q34 0 50 -24t6 -68l-63 -276q-23 -99 67 -99zM423 -13q-19 -79 -73.5 -116.5t-152.5 -39.5l8 38q71 3 109 33t52 88l123 532h38q20 0 13 -30z
M64 -90q30 -38 111 -41l-9 -38q-78 3 -148 33l11 46h35zM282 597q-16 0 -26 10t-10 26q0 17 11.5 28.5t27.5 11.5q15 0 25.5 -10.5t10.5 -25.5q0 -16 -11.5 -28t-27.5 -12zM428 597q-16 0 -26 10t-10 26t12 28t27 12t25.5 -10.5t10.5 -25.5q0 -16 -11.5 -28t-27.5 -12z" />
    <glyph glyph-name="Amacron" unicode="&#x100;" horiz-adv-x="703" 
d="M512 36l-71 664h58l69 -624q2 -17 11.5 -28.5t24.5 -11.5h32l-8 -36h-230l8 36h106zM420 618l-295 -517q-12 -22 -15.5 -35.5t3 -21.5t25.5 -8h60l-8 -36h-227l8 36h26q38 0 60 37l316 554q21 36 -12 36h-60l9 37h101zM232 229l23 40h202l4 -40h-229zM325 772l10 40h234
l-10 -40h-234z" />
    <glyph glyph-name="amacron" unicode="&#x101;" horiz-adv-x="507" 
d="M163 35q72 0 131 52l-10 -46q-54 -46 -128 -46q-65 0 -104.5 35t-39.5 93q0 87 59.5 131.5t161.5 44.5q56 0 104 -15l-8 -36q-44 13 -97 13q-78 0 -121.5 -33t-43.5 -101q0 -43 26.5 -67.5t69.5 -24.5zM388 -4q-38 0 -56.5 23.5t-9.5 61.5l64 280q13 57 -12 89.5
t-83 35.5l9 41q81 -2 121.5 -46.5t22.5 -121.5l-65 -278q-5 -21 4 -33.5t29 -12.5q17 0 32 3l-7 -32q-23 -10 -49 -10zM112 489q72 35 158 38l-9 -41q-78 -5 -131 -46h-29zM186 609l10 40h234l-10 -40h-234z" />
    <glyph glyph-name="Abreve" unicode="&#x102;" horiz-adv-x="703" 
d="M512 36l-71 664h58l69 -624q2 -17 11.5 -28.5t24.5 -11.5h32l-8 -36h-230l8 36h106zM420 618l-295 -517q-12 -22 -15.5 -35.5t3 -21.5t25.5 -8h60l-8 -36h-227l8 36h26q38 0 60 37l316 554q21 36 -12 36h-60l9 37h101zM232 229l23 40h202l4 -40h-229zM435 743
q-48 0 -76.5 25t-34.5 65l5 22h38q2 -70 70 -70q69 0 86 70h42l-6 -25q-13 -39 -45 -63t-79 -24z" />
    <glyph glyph-name="abreve" unicode="&#x103;" horiz-adv-x="507" 
d="M163 35q72 0 131 52l-10 -46q-54 -46 -128 -46q-65 0 -104.5 35t-39.5 93q0 87 59.5 131.5t161.5 44.5q56 0 104 -15l-8 -36q-44 13 -97 13q-78 0 -121.5 -33t-43.5 -101q0 -43 26.5 -67.5t69.5 -24.5zM388 -4q-38 0 -56.5 23.5t-9.5 61.5l64 280q13 57 -12 89.5
t-83 35.5l9 41q81 -2 121.5 -46.5t22.5 -121.5l-65 -278q-5 -21 4 -33.5t29 -12.5q17 0 32 3l-7 -32q-23 -10 -49 -10zM112 489q72 35 158 38l-9 -41q-78 -5 -131 -46h-29zM297 575q-48 0 -76.5 25t-34.5 65l5 22h38q2 -70 70 -70q69 0 86 70h42l-6 -25q-13 -39 -45 -63
t-79 -24z" />
    <glyph glyph-name="Aogonek" unicode="&#x104;" horiz-adv-x="703" 
d="M530 -164q-36 0 -56 16.5t-20 45.5q0 40 42 72h45q-36 -34 -36 -68q0 -31 34 -31q15 0 25 7h23l-7 -33q-23 -9 -50 -9zM512 36l-71 664h58l69 -624q2 -17 11.5 -28.5t24.5 -11.5h32l-8 -36h-230l8 36h106zM420 618l-295 -517q-12 -22 -15.5 -35.5t3 -21.5t25.5 -8h60
l-8 -36h-227l8 36h26q38 0 60 37l316 554q21 36 -12 36h-60l9 37h101zM232 229l23 40h202l4 -40h-229z" />
    <glyph glyph-name="aogonek" unicode="&#x105;" horiz-adv-x="507" 
d="M163 35q72 0 131 52l-10 -46q-54 -46 -128 -46q-65 0 -104.5 35t-39.5 93q0 87 59.5 131.5t161.5 44.5q56 0 104 -15l-8 -36q-44 13 -97 13q-78 0 -121.5 -33t-43.5 -101q0 -43 26.5 -67.5t69.5 -24.5zM388 -4q-38 0 -56.5 23.5t-9.5 61.5l64 280q13 57 -12 89.5
t-83 35.5l9 41q81 -2 121.5 -46.5t22.5 -121.5l-65 -278q-5 -21 4 -33.5t29 -12.5q17 0 32 3l-7 -32q-23 -10 -49 -10zM112 489q72 35 158 38l-9 -41q-78 -5 -131 -46h-29zM336 -21l36 -9q-35 -32 -35 -68q0 -31 34 -31q15 0 25 7h23l-7 -33q-23 -9 -50 -9q-36 0 -56 16.5
t-20 45.5q0 45 50 81z" />
    <glyph glyph-name="Cacute" unicode="&#x106;" horiz-adv-x="626" 
d="M431 744l85 127h62l-6 -25l-102 -102h-39zM117 257q0 -104 49.5 -161.5t139.5 -58.5l-10 -42q-114 3 -177.5 72.5t-63.5 189.5q0 183 109.5 313t278.5 135l-10 -43q-140 -9 -228 -122t-88 -283zM592 617q-40 43 -128 46l10 42q79 -4 134 -32q14 0 20 27h41l-46 -197h-45z
M548 79q-92 -78 -222 -83l10 42q65 4 107.5 26.5t81.5 62.5h34z" />
    <glyph glyph-name="cacute" unicode="&#x107;" horiz-adv-x="490" 
d="M313 573l85 127h62l-6 -25l-102 -102h-39zM91 192q0 -151 127 -158l-9 -38q-86 6 -131.5 58.5t-45.5 137.5q0 137 82.5 232.5t214.5 102.5l-9 -40q-105 -8 -167 -93.5t-62 -201.5zM401 478q-18 8 -50 10l9 39q71 -2 130 -32l-22 -94h-37q2 34 -4 51t-26 26zM402 53
q-72 -53 -162 -57l9 39q76 5 130 62h34z" />
    <glyph glyph-name="Ccircumflex" unicode="&#x108;" horiz-adv-x="626" 
d="M346 744l5 20l101 107h57l65 -107l-5 -20h-25l-67 88l-101 -88h-30zM117 257q0 -104 49.5 -161.5t139.5 -58.5l-10 -42q-114 3 -177.5 72.5t-63.5 189.5q0 183 109.5 313t278.5 135l-10 -43q-140 -9 -228 -122t-88 -283zM592 617q-40 43 -128 46l10 42q79 -4 134 -32
q14 0 20 27h41l-46 -197h-45zM548 79q-92 -78 -222 -83l10 42q65 4 107.5 26.5t81.5 62.5h34z" />
    <glyph glyph-name="ccircumflex" unicode="&#x109;" horiz-adv-x="490" 
d="M229 573l5 20l101 107h57l65 -107l-5 -20h-25l-67 88l-101 -88h-30zM91 192q0 -151 127 -158l-9 -38q-86 6 -131.5 58.5t-45.5 137.5q0 137 82.5 232.5t214.5 102.5l-9 -40q-105 -8 -167 -93.5t-62 -201.5zM401 478q-18 8 -50 10l9 39q71 -2 130 -32l-22 -94h-37
q2 34 -4 51t-26 26zM402 53q-72 -53 -162 -57l9 39q76 5 130 62h34z" />
    <glyph glyph-name="Cdotaccent" unicode="&#x10a;" horiz-adv-x="626" 
d="M117 257q0 -104 49.5 -161.5t139.5 -58.5l-10 -42q-114 3 -177.5 72.5t-63.5 189.5q0 183 109.5 313t278.5 135l-10 -43q-140 -9 -228 -122t-88 -283zM592 617q-40 43 -128 46l10 42q79 -4 134 -32q14 0 20 27h41l-46 -197h-45zM548 79q-92 -78 -222 -83l10 42
q65 4 107.5 26.5t81.5 62.5h34zM454 767q-16 0 -27 11t-11 26q0 17 12 29t28 12q17 0 27.5 -11t10.5 -26q0 -17 -11.5 -29t-28.5 -12z" />
    <glyph glyph-name="cdotaccent" unicode="&#x10b;" horiz-adv-x="490" 
d="M91 192q0 -151 127 -158l-9 -38q-86 6 -131.5 58.5t-45.5 137.5q0 137 82.5 232.5t214.5 102.5l-9 -40q-105 -8 -167 -93.5t-62 -201.5zM401 478q-18 8 -50 10l9 39q71 -2 130 -32l-22 -94h-37q2 34 -4 51t-26 26zM402 53q-72 -53 -162 -57l9 39q76 5 130 62h34zM337 596
q-16 0 -27 11t-11 26q0 17 12 29t28 12q17 0 27.5 -11t10.5 -26q0 -17 -11.5 -29t-28.5 -12z" />
    <glyph glyph-name="Ccaron" unicode="&#x10c;" horiz-adv-x="626" 
d="M589 871l-5 -20l-101 -107h-57l-65 107l5 20h25l67 -88l101 88h30zM117 257q0 -104 49.5 -161.5t139.5 -58.5l-10 -42q-114 3 -177.5 72.5t-63.5 189.5q0 183 109.5 313t278.5 135l-10 -43q-140 -9 -228 -122t-88 -283zM592 617q-40 43 -128 46l10 42q79 -4 134 -32
q14 0 20 27h41l-46 -197h-45zM548 79q-92 -78 -222 -83l10 42q65 4 107.5 26.5t81.5 62.5h34z" />
    <glyph glyph-name="ccaron" unicode="&#x10d;" horiz-adv-x="490" 
d="M471 700l-5 -20l-101 -107h-57l-65 107l5 20h25l67 -88l101 88h30zM91 192q0 -151 127 -158l-9 -38q-86 6 -131.5 58.5t-45.5 137.5q0 137 82.5 232.5t214.5 102.5l-9 -40q-105 -8 -167 -93.5t-62 -201.5zM401 478q-18 8 -50 10l9 39q71 -2 130 -32l-22 -94h-37
q2 34 -4 51t-26 26zM402 53q-72 -53 -162 -57l9 39q76 5 130 62h34z" />
    <glyph glyph-name="Dcaron" unicode="&#x10e;" horiz-adv-x="684" 
d="M540 868l-5 -20l-101 -107h-57l-65 107l5 20h25l67 -88l101 88h30zM252 0h-113l9 39h107q177 0 266 108.5t89 293.5q0 220 -241 220h-78l9 39h76q144 0 220.5 -67t76.5 -196q0 -197 -107.5 -317t-313.5 -120zM-34 0l8 36h46q13 0 26.5 10.5t16.5 22.5l128 560
q3 13 -3 23.5t-18 10.5h-51l9 37h141l-161 -700h-142z" />
    <glyph glyph-name="dcaron" unicode="&#x10f;" horiz-adv-x="577" 
d="M603 571l47 129h51l-6 -25l-56 -104h-36zM192 35q82 0 172 85l-12 -54q-77 -70 -166 -70q-73 0 -114.5 42.5t-41.5 127.5q0 80 30.5 155.5t77.5 122.5q80 83 192 83q70 0 121 -31l-8 -36q-47 26 -112 26q-87 0 -153 -69q-40 -42 -64.5 -107.5t-24.5 -143.5q0 -67 28 -99
t75 -32zM386 79l135 584h-89l9 37h131q16 0 11 -18l-139 -601q-4 -18 6.5 -31.5t27.5 -13.5h30l-7 -30q-17 -10 -46 -10q-38 0 -58 22t-11 61z" />
    <glyph glyph-name="Dcroat" unicode="&#x110;" horiz-adv-x="684" 
d="M252 0h-113l9 39h107q177 0 266 108.5t89 293.5q0 220 -241 220h-78l9 39h76q144 0 220.5 -67t76.5 -196q0 -197 -107.5 -317t-313.5 -120zM42 329l10 39h79l60 261q3 13 -3 23.5t-18 10.5h-51l9 37h141l-161 -700h-142l8 36h46q13 0 26.5 10.5t16.5 22.5l59 260h-80z
M385 329h-171l9 39h172z" />
    <glyph glyph-name="dcroat" unicode="&#x111;" horiz-adv-x="577" 
d="M631 579h-72l-115 -498q-4 -18 6.5 -31.5t27.5 -13.5h30l-7 -30q-17 -10 -46 -10q-38 0 -58 22t-11 61l135 584h-89l9 37h131q16 0 11 -18l-17 -70h72zM192 35q82 0 172 85l-12 -54q-77 -70 -166 -70q-73 0 -114.5 42.5t-41.5 127.5q0 80 30.5 155.5t77.5 122.5
q80 83 192 83q70 0 121 -31l-8 -36q-47 26 -112 26q-87 0 -153 -69q-40 -42 -64.5 -107.5t-24.5 -143.5q0 -67 28 -99t75 -32zM343 579l7 33h128l-8 -33h-127z" />
    <glyph glyph-name="Emacron" unicode="&#x112;" horiz-adv-x="588" 
d="M-34 0l8 36h46q13 0 26.5 10.5t16.5 22.5l128 560q3 13 -3 23.5t-18 10.5h-51l9 37h140l-161 -700h-141zM494 0h-356l9 39h302l42 141h44zM565 661h-275l9 39h327l-39 -168h-42zM373 342h-157l9 39h155l30 89h40l-50 -218h-41zM298 772l10 40h234l-10 -40h-234z" />
    <glyph glyph-name="emacron" unicode="&#x113;" horiz-adv-x="494" 
d="M123 235l6 38q152 5 222.5 36.5t70.5 98.5q0 74 -77 80l9 38q57 -4 91 -33t34 -83q0 -166 -356 -175zM315 488q-97 -6 -160.5 -91t-63.5 -201q0 -73 33 -117t98 -45l-9 -38q-88 3 -134 57.5t-46 143.5q0 136 84.5 230.5t206.5 99.5zM401 53q-72 -53 -157 -57l8 38
q76 9 126 63h34zM220 609l10 40h234l-10 -40h-234z" />
    <glyph glyph-name="Ebreve" unicode="&#x114;" horiz-adv-x="588" 
d="M-34 0l8 36h46q13 0 26.5 10.5t16.5 22.5l128 560q3 13 -3 23.5t-18 10.5h-51l9 37h140l-161 -700h-141zM494 0h-356l9 39h302l42 141h44zM565 661h-275l9 39h327l-39 -168h-42zM373 342h-157l9 39h155l30 89h40l-50 -218h-41zM422 743q-48 0 -76.5 25t-34.5 65l5 22h38
q2 -70 70 -70q69 0 86 70h42l-6 -25q-13 -39 -45 -63t-79 -24z" />
    <glyph glyph-name="ebreve" unicode="&#x115;" horiz-adv-x="494" 
d="M123 235l6 38q152 5 222.5 36.5t70.5 98.5q0 74 -77 80l9 38q57 -4 91 -33t34 -83q0 -166 -356 -175zM315 488q-97 -6 -160.5 -91t-63.5 -201q0 -73 33 -117t98 -45l-9 -38q-88 3 -134 57.5t-46 143.5q0 136 84.5 230.5t206.5 99.5zM401 53q-72 -53 -157 -57l8 38
q76 9 126 63h34zM337 575q-48 0 -76.5 25t-34.5 65l5 22h38q2 -70 70 -70q69 0 86 70h42l-6 -25q-13 -39 -45 -63t-79 -24z" />
    <glyph glyph-name="Edotaccent" unicode="&#x116;" horiz-adv-x="588" 
d="M-34 0l8 36h46q13 0 26.5 10.5t16.5 22.5l128 560q3 13 -3 23.5t-18 10.5h-51l9 37h140l-161 -700h-141zM494 0h-356l9 39h302l42 141h44zM565 661h-275l9 39h327l-39 -168h-42zM373 342h-157l9 39h155l30 89h40l-50 -218h-41zM404 764q-16 0 -27 11t-11 26q0 17 12 29
t28 12q17 0 27.5 -11t10.5 -26q0 -17 -11.5 -29t-28.5 -12z" />
    <glyph glyph-name="edotaccent" unicode="&#x117;" horiz-adv-x="494" 
d="M123 235l6 38q152 5 222.5 36.5t70.5 98.5q0 74 -77 80l9 38q57 -4 91 -33t34 -83q0 -166 -356 -175zM315 488q-97 -6 -160.5 -91t-63.5 -201q0 -73 33 -117t98 -45l-9 -38q-88 3 -134 57.5t-46 143.5q0 136 84.5 230.5t206.5 99.5zM401 53q-72 -53 -157 -57l8 38
q76 9 126 63h34zM324 596q-16 0 -27 11t-11 26q0 17 12 29t28 12q17 0 27.5 -11t10.5 -26q0 -17 -11.5 -29t-28.5 -12z" />
    <glyph glyph-name="Eogonek" unicode="&#x118;" horiz-adv-x="588" 
d="M402 -164q-36 0 -56 16.5t-20 45.5q0 40 42 72h45q-36 -34 -36 -68q0 -31 34 -31q15 0 25 7h23l-7 -33q-23 -9 -50 -9zM-34 0l8 36h46q13 0 26.5 10.5t16.5 22.5l128 560q3 13 -3 23.5t-18 10.5h-51l9 37h140l-161 -700h-141zM494 0h-356l9 39h302l42 141h44zM565 661
h-275l9 39h327l-39 -168h-42zM373 342h-157l9 39h155l30 89h40l-50 -218h-41z" />
    <glyph glyph-name="eogonek" unicode="&#x119;" horiz-adv-x="494" 
d="M123 235l6 38q152 5 222.5 36.5t70.5 98.5q0 74 -77 80l9 38q57 -4 91 -33t34 -83q0 -166 -356 -175zM315 488q-97 -6 -160.5 -91t-63.5 -201q0 -73 33 -117t98 -45l-9 -38q-88 3 -134 57.5t-46 143.5q0 136 84.5 230.5t206.5 99.5zM401 53q-72 -53 -157 -57l8 38
q76 9 126 63h34zM249 -28l54 8q-47 -44 -47 -78q0 -31 34 -31q14 0 25 7h23l-7 -33q-23 -9 -50 -9q-36 0 -56 16.5t-20 45.5q0 39 44 74z" />
    <glyph glyph-name="Ecaron" unicode="&#x11a;" horiz-adv-x="588" 
d="M539 868l-5 -20l-101 -107h-57l-65 107l5 20h25l67 -88l101 88h30zM-34 0l8 36h46q13 0 26.5 10.5t16.5 22.5l128 560q3 13 -3 23.5t-18 10.5h-51l9 37h140l-161 -700h-141zM494 0h-356l9 39h302l42 141h44zM565 661h-275l9 39h327l-39 -168h-42zM373 342h-157l9 39h155
l30 89h40l-50 -218h-41z" />
    <glyph glyph-name="ecaron" unicode="&#x11b;" horiz-adv-x="494" 
d="M459 700l-5 -20l-101 -107h-57l-65 107l5 20h25l67 -88l101 88h30zM123 235l6 38q152 5 222.5 36.5t70.5 98.5q0 74 -77 80l9 38q57 -4 91 -33t34 -83q0 -166 -356 -175zM315 488q-97 -6 -160.5 -91t-63.5 -201q0 -73 33 -117t98 -45l-9 -38q-88 3 -134 57.5t-46 143.5
q0 136 84.5 230.5t206.5 99.5zM401 53q-72 -53 -157 -57l8 38q76 9 126 63h34z" />
    <glyph glyph-name="Gcircumflex" unicode="&#x11c;" horiz-adv-x="677" 
d="M350 744l5 20l101 107h57l65 -107l-5 -20h-25l-67 88l-101 -88h-30zM445 705l-10 -43q-139 -9 -227.5 -124t-88.5 -282q0 -219 194 -219q76 0 139 36l2 -46q-66 -32 -149 -32q-120 0 -185 66.5t-65 193.5q0 117 49.5 219t139.5 165t201 66zM485 0l-4 91l43 187h-101l8 37
h233l-8 -37h-37q-12 0 -25 -11.5t-16 -23.5l-56 -243h-37zM598 616q-50 45 -133 47l10 42q81 -4 136 -31q14 0 22 26h40l-45 -191h-44z" />
    <glyph glyph-name="gcircumflex" unicode="&#x11d;" horiz-adv-x="476" 
d="M407 5q0 -77 -60.5 -125t-183.5 -49l9 40q90 3 135 37t45 84q0 41 -25 59t-74 18h-106q-38 0 -68.5 18t-30.5 57q0 46 46 78l27 -18q-22 -22 -22 -47q0 -17 13 -27t34 -10h125q66 0 101 -29.5t35 -85.5zM236 203h-3l9 38q64 2 101.5 42.5t37.5 108.5q0 37 -21 63.5
t-63 32.5l8 37l20 -3h182l-8 -38h-67q-20 0 -21 -18q25 -33 25 -76q0 -83 -56 -135t-144 -52zM203 205q-54 8 -90 41.5t-36 93.5q0 80 58 133.5t140 53.5l-8 -38q-59 -4 -96.5 -45.5t-37.5 -106.5q0 -38 20 -63t59 -31zM-43 -52q0 72 91 120l35 -16q-70 -40 -70 -98
q0 -35 30.5 -57.5t98.5 -25.5l-9 -39q-87 4 -131.5 36t-44.5 80zM206 573l5 20l101 107h57l65 -107l-5 -20h-25l-67 88l-101 -88h-30z" />
    <glyph glyph-name="Gbreve" unicode="&#x11e;" horiz-adv-x="677" 
d="M445 705l-10 -43q-139 -9 -227.5 -124t-88.5 -282q0 -219 194 -219q76 0 139 36l2 -46q-66 -32 -149 -32q-120 0 -185 66.5t-65 193.5q0 117 49.5 219t139.5 165t201 66zM485 0l-4 91l43 187h-101l8 37h233l-8 -37h-37q-12 0 -25 -11.5t-16 -23.5l-56 -243h-37zM598 616
q-50 45 -133 47l10 42q81 -4 136 -31q14 0 22 26h40l-45 -191h-44zM457 746q-48 0 -76.5 25t-34.5 65l5 22h38q2 -70 70 -70q69 0 86 70h42l-6 -25q-13 -39 -45 -63t-79 -24z" />
    <glyph glyph-name="gbreve" unicode="&#x11f;" horiz-adv-x="476" 
d="M407 5q0 -77 -60.5 -125t-183.5 -49l9 40q90 3 135 37t45 84q0 41 -25 59t-74 18h-106q-38 0 -68.5 18t-30.5 57q0 46 46 78l27 -18q-22 -22 -22 -47q0 -17 13 -27t34 -10h125q66 0 101 -29.5t35 -85.5zM236 203h-3l9 38q64 2 101.5 42.5t37.5 108.5q0 37 -21 63.5
t-63 32.5l8 37l20 -3h182l-8 -38h-67q-20 0 -21 -18q25 -33 25 -76q0 -83 -56 -135t-144 -52zM203 205q-54 8 -90 41.5t-36 93.5q0 80 58 133.5t140 53.5l-8 -38q-59 -4 -96.5 -45.5t-37.5 -106.5q0 -38 20 -63t59 -31zM-43 -52q0 72 91 120l35 -16q-70 -40 -70 -98
q0 -35 30.5 -57.5t98.5 -25.5l-9 -39q-87 4 -131.5 36t-44.5 80zM312 575q-48 0 -76.5 25t-34.5 65l5 22h38q2 -70 70 -70q69 0 86 70h42l-6 -25q-13 -39 -45 -63t-79 -24z" />
    <glyph glyph-name="Gdotaccent" unicode="&#x120;" horiz-adv-x="677" 
d="M445 705l-10 -43q-139 -9 -227.5 -124t-88.5 -282q0 -219 194 -219q76 0 139 36l2 -46q-66 -32 -149 -32q-120 0 -185 66.5t-65 193.5q0 117 49.5 219t139.5 165t201 66zM485 0l-4 91l43 187h-101l8 37h233l-8 -37h-37q-12 0 -25 -11.5t-16 -23.5l-56 -243h-37zM598 616
q-50 45 -133 47l10 42q81 -4 136 -31q14 0 22 26h40l-45 -191h-44zM458 767q-16 0 -27 11t-11 26q0 17 12 29t28 12q17 0 27.5 -11t10.5 -26q0 -17 -11.5 -29t-28.5 -12z" />
    <glyph glyph-name="gdotaccent" unicode="&#x121;" horiz-adv-x="476" 
d="M407 5q0 -77 -60.5 -125t-183.5 -49l9 40q90 3 135 37t45 84q0 41 -25 59t-74 18h-106q-38 0 -68.5 18t-30.5 57q0 46 46 78l27 -18q-22 -22 -22 -47q0 -17 13 -27t34 -10h125q66 0 101 -29.5t35 -85.5zM236 203h-3l9 38q64 2 101.5 42.5t37.5 108.5q0 37 -21 63.5
t-63 32.5l8 37l20 -3h182l-8 -38h-67q-20 0 -21 -18q25 -33 25 -76q0 -83 -56 -135t-144 -52zM203 205q-54 8 -90 41.5t-36 93.5q0 80 58 133.5t140 53.5l-8 -38q-59 -4 -96.5 -45.5t-37.5 -106.5q0 -38 20 -63t59 -31zM-43 -52q0 72 91 120l35 -16q-70 -40 -70 -98
q0 -35 30.5 -57.5t98.5 -25.5l-9 -39q-87 4 -131.5 36t-44.5 80zM304 596q-16 0 -27 11t-11 26q0 17 12 29t28 12q17 0 27.5 -11t10.5 -26q0 -17 -11.5 -29t-28.5 -12z" />
    <glyph glyph-name="Gcommaaccent" unicode="&#x122;" horiz-adv-x="677" 
d="M204 -196l7 29q22 3 37.5 15t15.5 30q0 7 -11 16q-13 10 -13 26t11.5 26.5t26.5 10.5q17 0 28 -11.5t11 -34.5q0 -46 -31.5 -73.5t-81.5 -33.5zM445 705l-10 -43q-139 -9 -227.5 -124t-88.5 -282q0 -219 194 -219q76 0 139 36l2 -46q-66 -32 -149 -32q-120 0 -185 66.5
t-65 193.5q0 117 49.5 219t139.5 165t201 66zM485 0l-4 91l43 187h-101l8 37h233l-8 -37h-37q-12 0 -25 -11.5t-16 -23.5l-56 -243h-37zM598 616q-50 45 -133 47l10 42q81 -4 136 -31q14 0 22 26h40l-45 -191h-44z" />
    <glyph glyph-name="gcommaaccent" unicode="&#x123;" horiz-adv-x="476" 
d="M407 5q0 -77 -60.5 -125t-183.5 -49l9 40q90 3 135 37t45 84q0 41 -25 59t-74 18h-106q-38 0 -68.5 18t-30.5 57q0 46 46 78l27 -18q-22 -22 -22 -47q0 -17 13 -27t34 -10h125q66 0 101 -29.5t35 -85.5zM236 203h-3l9 38q64 2 101.5 42.5t37.5 108.5q0 37 -21 63.5
t-63 32.5l8 37l20 -3h182l-8 -38h-67q-20 0 -21 -18q25 -33 25 -76q0 -83 -56 -135t-144 -52zM203 205q-54 8 -90 41.5t-36 93.5q0 80 58 133.5t140 53.5l-8 -38q-59 -4 -96.5 -45.5t-37.5 -106.5q0 -38 20 -63t59 -31zM-43 -52q0 72 91 120l35 -16q-70 -40 -70 -98
q0 -35 30.5 -57.5t98.5 -25.5l-9 -39q-87 4 -131.5 36t-44.5 80zM390 744l-7 -29q-22 -3 -37.5 -15t-15.5 -30q0 -7 11 -16q13 -10 13 -26t-11.5 -26.5t-26.5 -10.5q-17 0 -28 11.5t-11 34.5q0 46 31.5 73.5t81.5 33.5z" />
    <glyph glyph-name="Hcircumflex" unicode="&#x124;" horiz-adv-x="723" 
d="M359 741l5 20l101 107h57l65 -107l-5 -20h-25l-67 88l-101 -88h-30zM400 36h103l145 627h-103l9 37h245l-9 -37h-47q-13 0 -26 -11.5t-15 -23.5l-129 -558q-3 -13 2.5 -23.5t17.5 -10.5h52l-8 -36h-245zM-34 0l8 36h46q13 0 26.5 11t16.5 23l128 558q3 13 -3 24t-18 11
h-51l9 37h244l-9 -37h-102l-145 -627h103l-8 -36h-245zM218 342l9 40h325l-9 -40h-325z" />
    <glyph glyph-name="hcircumflex" unicode="&#x125;" horiz-adv-x="587" 
d="M262 729l5 20l101 107h57l65 -107l-5 -20h-25l-67 88l-101 -88h-30zM250 682l-157 -682h-37q-22 0 -14 29l139 605q2 11 -3.5 20t-15.5 9h-49l9 37h117q15 0 11 -18zM457 -4q-35 0 -52 23.5t-8 62.5l70 304q11 47 -4.5 70.5t-52.5 23.5q-85 0 -195 -80l10 43
q108 84 206 84q57 0 83.5 -35.5t11.5 -99.5l-71 -309q-4 -19 6 -33t27 -14h30l-7 -30q-23 -10 -54 -10z" />
    <glyph glyph-name="Hbar" unicode="&#x126;" horiz-adv-x="723" 
d="M546 221l102 442h-103l9 37h245l-9 -37h-47q-13 0 -26 -11.5t-15 -23.5l-23 -100h81l-8 -33h-81l-98 -425q-3 -13 2.5 -23.5t17.5 -10.5h52l-8 -36h-245l8 36h103zM78 495l8 33h82l23 100q3 13 -3 24t-18 11h-51l9 37h244l-9 -37h-102l-9 -39l-91 -394l-45 -194h103
l-8 -36h-245l8 36h46q13 0 26.5 11t16.5 23l97 425h-82zM217 342l10 40h325l-9 -40h-326zM253 495l7 33h326l-8 -33h-325z" />
    <glyph glyph-name="hbar" unicode="&#x127;" horiz-adv-x="587" 
d="M94 579l7 33h75l5 22q2 11 -3.5 20t-15.5 9h-49l9 37h117q15 0 11 -18l-157 -682h-37q-22 0 -14 29l126 550h-74zM457 -4q-35 0 -52 23.5t-8 62.5l70 304q11 47 -4.5 70.5t-52.5 23.5q-85 0 -195 -80l10 43q108 84 206 84q57 0 83.5 -35.5t11.5 -99.5l-71 -309
q-4 -19 6 -33t27 -14h30l-7 -30q-23 -10 -54 -10zM373 579h-116l8 33h115z" />
    <glyph glyph-name="Imacron" unicode="&#x12a;" horiz-adv-x="292" 
d="M-34 0l8 36h56q13 0 26 10.5t16 22.5l129 560q2 13 -4 23.5t-17 10.5h-61l9 37h240l-9 -37h-55q-13 0 -26 -11t-16 -23l-128 -560q-3 -13 2.5 -23t17.5 -10h61l-8 -36h-241zM147 772l10 40h234l-10 -40h-234z" />
    <glyph glyph-name="imacron" unicode="&#x12b;" horiz-adv-x="247" 
d="M117 -4q-38 0 -55 23.5t-7 64.5l82 355q5 19 -4.5 32t-27.5 13h-40l7 31q39 11 63 11q79 0 60 -87l-83 -358q-4 -18 6.5 -31.5t28.5 -13.5h31l-7 -30q-20 -10 -54 -10zM85 612l10 40h182l-10 -40h-182z" />
    <glyph glyph-name="Iogonek" unicode="&#x12e;" horiz-adv-x="292" 
d="M-34 0l8 36h56q13 0 26 10.5t16 22.5l129 560q2 13 -4 23.5t-17 10.5h-61l9 37h240l-9 -37h-55q-13 0 -26 -11t-16 -23l-128 -560q-3 -13 2.5 -23t17.5 -10h61l-8 -36h-241zM105 -164q-36 0 -56 16.5t-20 45.5q0 40 42 72h45q-36 -34 -36 -68q0 -31 34 -31q14 0 25 7h23
l-7 -33q-23 -9 -50 -9z" />
    <glyph glyph-name="iogonek" unicode="&#x12f;" horiz-adv-x="247" 
d="M117 -4q-38 0 -55 23.5t-7 64.5l82 355q5 19 -4.5 32t-27.5 13h-40l7 31q39 11 63 11q80 0 59 -88l-82 -357q-4 -18 6.5 -31.5t28.5 -13.5h31l-7 -30q-20 -10 -54 -10zM70 -22l37 -9q-36 -33 -36 -67q0 -31 34 -31q15 0 25 7h23l-7 -33q-23 -9 -50 -9q-36 0 -56 16.5
t-20 45.5q0 45 50 80zM207 596q-16 0 -26.5 11t-10.5 26q0 17 12 29t28 12q17 0 27.5 -11t10.5 -26q0 -17 -12.5 -29t-28.5 -12z" />
    <glyph glyph-name="Idotaccent" unicode="&#x130;" horiz-adv-x="292" 
d="M-34 0l8 36h56q13 0 26 10.5t16 22.5l129 560q2 13 -4 23.5t-17 10.5h-61l9 37h240l-9 -37h-55q-13 0 -26 -11t-16 -23l-128 -560q-3 -13 2.5 -23t17.5 -10h61l-8 -36h-241zM264 764q-16 0 -27 11t-11 26q0 17 12 29t28 12q17 0 27.5 -11t10.5 -26q0 -17 -11.5 -29
t-28.5 -12z" />
    <glyph glyph-name="dotlessi" unicode="&#x131;" horiz-adv-x="247" 
d="M117 -4q-38 0 -55 23.5t-7 64.5l82 355q5 19 -4.5 32t-27.5 13h-40l7 31q39 11 63 11q79 0 60 -87l-83 -358q-4 -18 6.5 -31.5t28.5 -13.5h31l-7 -30q-20 -10 -54 -10z" />
    <glyph glyph-name="Jcircumflex" unicode="&#x134;" horiz-adv-x="454" 
d="M314 741l5 20l101 107h57l65 -107l-5 -20h-25l-67 88l-101 -88h-30zM323 154q-19 -79 -66.5 -118t-133.5 -41l10 42q55 4 85.5 33.5t44.5 88.5l109 470q2 13 -3.5 23.5t-17.5 10.5h-55l8 37h226l-9 -37h-46q-13 0 -26 -11t-16 -23zM16 81q21 -39 87 -44l-10 -41
q-70 5 -126 38l11 47h38z" />
    <glyph glyph-name="jcircumflex" unicode="&#x135;" horiz-adv-x="248" 
d="M-50 -165q-39 0 -75 14l9 39h29q12 -15 37 -15q33 0 49 17t25 56l113 493q4 19 -5 32t-27 13h-40l8 31q39 11 62 11q79 0 60 -87l-114 -496q-24 -108 -131 -108zM61 573l5 20l101 107h57l65 -107l-5 -20h-25l-67 88l-101 -88h-30z" />
    <glyph glyph-name="Kcommaaccent" unicode="&#x136;" horiz-adv-x="670" 
d="M221 -196l7 29q22 3 37.5 15t15.5 30q0 7 -11 16q-13 10 -13 26t11.5 26.5t26.5 10.5q17 0 28 -11.5t11 -34.5q0 -46 -31.5 -73.5t-81.5 -33.5zM261 663l-145 -627h99l-7 -36h-242l8 36h46q13 0 26.5 10.5t16.5 22.5l128 560q3 13 -3 23.5t-18 10.5h-51l9 37h241l-9 -37
h-99zM627 633l-427 -367l14 61l337 296q19 17 17 28.5t-21 11.5h-32l8 37h201l-9 -37h-26q-25 0 -62 -30zM461 32l-135 303l46 39l135 -299q18 -39 49 -39h36l-8 -36h-130z" />
    <glyph glyph-name="kcommaaccent" unicode="&#x137;" horiz-adv-x="511" 
d="M143 -196l7 29q22 3 37.5 15t15.5 30q0 7 -11 16q-13 10 -13 26t11.5 26.5t26.5 10.5q17 0 28 -11.5t11 -34.5q0 -46 -31.5 -73.5t-81.5 -33.5zM250 682l-157 -682h-37q-21 0 -15 29l140 605q2 11 -3.5 20t-16.5 9h-48l9 37h117q15 0 11 -18zM510 491
q-49 -72 -138 -147.5t-200 -131.5l12 51q99 53 172.5 123t103.5 136h57zM408 -4q-28 0 -44 15t-29 47l-68 172l46 31l74 -182q16 -43 51 -43h27l-7 -28q-18 -12 -50 -12z" />
    <glyph glyph-name="Lacute" unicode="&#x139;" horiz-adv-x="567" 
d="M245 741l85 127h62l-6 -25l-102 -102h-39zM-34 0l8 36h46q13 0 26.5 10.5t16.5 22.5l128 560q3 13 -3 23.5t-18 10.5h-51l9 37h252l-9 -37h-110l-153 -663h-142zM478 0h-339l9 39h283l47 155h44z" />
    <glyph glyph-name="lacute" unicode="&#x13a;" horiz-adv-x="254" 
d="M124 -4q-39 0 -56.5 23.5t-7.5 64.5l127 550q2 11 -5 20t-18 9h-51l9 37h123q14 0 11 -18l-139 -601q-4 -18 6 -31.5t27 -13.5h36l-7 -30q-27 -10 -55 -10zM198 729l85 127h62l-6 -25l-102 -102h-39z" />
    <glyph glyph-name="Lcommaaccent" unicode="&#x13b;" horiz-adv-x="567" 
d="M171 -196l7 29q22 3 37.5 15t15.5 30q0 7 -11 16q-13 10 -13 26t11.5 26.5t26.5 10.5q17 0 28 -11.5t11 -34.5q0 -46 -31.5 -73.5t-81.5 -33.5zM-34 0l8 36h46q13 0 26.5 10.5t16.5 22.5l128 560q3 13 -3 23.5t-18 10.5h-51l9 37h252l-9 -37h-110l-153 -663h-142zM478 0
h-339l9 39h283l47 155h44z" />
    <glyph glyph-name="lcommaaccent" unicode="&#x13c;" horiz-adv-x="254" 
d="M124 -4q-39 0 -56.5 23.5t-7.5 64.5l127 550q2 11 -5 20t-18 9h-51l9 37h123q14 0 11 -18l-139 -601q-4 -18 6 -31.5t27 -13.5h36l-7 -30q-27 -10 -55 -10zM11 -196l7 29q22 3 37.5 15t15.5 30q0 7 -11 16q-13 10 -13 26t11.5 26.5t26.5 10.5q17 0 28 -11.5t11 -34.5
q0 -46 -31.5 -73.5t-81.5 -33.5z" />
    <glyph glyph-name="Lcaron" unicode="&#x13d;" horiz-adv-x="567" 
d="M427 557l52 143h56l-5 -25l-66 -118h-37zM-34 0l8 36h46q13 0 26.5 10.5t16.5 22.5l128 560q3 13 -3 23.5t-18 10.5h-51l9 37h252l-9 -37h-110l-153 -663h-142zM478 0h-339l9 39h283l47 155h44z" />
    <glyph glyph-name="lcaron" unicode="&#x13e;" horiz-adv-x="254" 
d="M124 -4q-39 0 -56.5 23.5t-7.5 64.5l127 550q2 11 -5 20t-18 9h-51l9 37h123q14 0 11 -18l-139 -601q-4 -18 6 -31.5t27 -13.5h36l-7 -30q-27 -10 -55 -10zM276 571l47 129h51l-6 -25l-56 -104h-36z" />
    <glyph glyph-name="Lslash" unicode="&#x141;" horiz-adv-x="567" 
d="M-34 0l8 36h46q13 0 26.5 10.5t16.5 22.5l45 199l-93 -36l10 45l94 36l72 316q3 13 -3 23.5t-18 10.5h-51l9 37h252l-9 -37h-110l-153 -663h-142zM478 0h-340l9 39h284l47 155h44zM421 389l-212 -82l11 45l212 82z" />
    <glyph glyph-name="lslash" unicode="&#x142;" horiz-adv-x="254" 
d="M124 -4q-39 0 -56.5 23.5t-7.5 64.5l57 249l-88 -56l11 46l88 55l59 256q2 11 -5 20t-18 9h-51l9 37h123q14 0 11 -18l-60 -261l89 57l-11 -46l-89 -56l-68 -295q-4 -18 6 -31.5t27 -13.5h36l-7 -30q-27 -10 -55 -10z" />
    <glyph glyph-name="Nacute" unicode="&#x143;" horiz-adv-x="715" 
d="M430 741l85 127h62l-6 -25l-102 -102h-39zM-34 0l8 36h46q13 0 26.5 11t16.5 23l128 559q3 13 -3 23.5t-18 10.5h-51l9 37h129l-153 -664h103l-8 -36h-233zM501 0l-239 590l20 89l275 -666l-3 -13h-53zM699 631l-131 -567l-31 77l120 522h-101l9 37h230l-9 -37h-46
q-12 0 -25.5 -10.5t-15.5 -21.5z" />
    <glyph glyph-name="nacute" unicode="&#x144;" horiz-adv-x="587" 
d="M323 573l85 127h62l-6 -25l-102 -102h-39zM457 -4q-35 0 -52 23.5t-8 62.5l70 304q11 47 -4.5 70.5t-51.5 23.5q-87 0 -196 -80l10 43q108 84 206 84q57 0 83.5 -35.5t11.5 -99.5l-71 -309q-4 -19 6 -33t27 -14h30l-7 -30q-23 -10 -54 -10zM133 526q34 0 52 -21t8 -68
l-100 -437h-37q-22 0 -14 29l94 410q5 19 -4.5 32t-28.5 13h-38l7 31q39 11 61 11z" />
    <glyph glyph-name="Ncommaaccent" unicode="&#x145;" horiz-adv-x="715" 
d="M229 -196l7 29q22 3 37.5 15t15.5 30q0 7 -11 16q-13 10 -13 26t11.5 26.5t26.5 10.5q17 0 28 -11.5t11 -34.5q0 -46 -31.5 -73.5t-81.5 -33.5zM-34 0l8 36h46q13 0 26.5 11t16.5 23l128 559q3 13 -3 23.5t-18 10.5h-51l9 37h129l-153 -664h103l-8 -36h-233zM501 0
l-239 590l20 89l275 -666l-3 -13h-53zM699 631l-131 -567l-31 77l120 522h-101l9 37h230l-9 -37h-46q-12 0 -25.5 -10.5t-15.5 -21.5z" />
    <glyph glyph-name="ncommaaccent" unicode="&#x146;" horiz-adv-x="587" 
d="M167 -196l7 29q22 3 37.5 15t15.5 30q0 7 -11 16q-13 10 -13 26t11.5 26.5t26.5 10.5q17 0 28 -11.5t11 -34.5q0 -46 -31.5 -73.5t-81.5 -33.5zM457 -4q-35 0 -52 23.5t-8 62.5l70 304q11 47 -4.5 70.5t-51.5 23.5q-87 0 -196 -80l10 43q108 84 206 84q57 0 83.5 -35.5
t11.5 -99.5l-71 -309q-4 -19 6 -33t27 -14h30l-7 -30q-23 -10 -54 -10zM133 526q34 0 52 -21t8 -68l-100 -437h-37q-22 0 -14 29l94 410q5 19 -4.5 32t-28.5 13h-38l7 31q39 11 61 11z" />
    <glyph glyph-name="Ncaron" unicode="&#x147;" horiz-adv-x="715" 
d="M596 868l-5 -20l-101 -107h-57l-65 107l5 20h25l67 -88l101 88h30zM-34 0l8 36h46q13 0 26.5 11t16.5 23l128 559q3 13 -3 23.5t-18 10.5h-51l9 37h129l-153 -664h103l-8 -36h-233zM501 0l-239 590l20 89l275 -666l-3 -13h-53zM699 631l-131 -567l-31 77l120 522h-101
l9 37h230l-9 -37h-46q-12 0 -25.5 -10.5t-15.5 -21.5z" />
    <glyph glyph-name="ncaron" unicode="&#x148;" horiz-adv-x="587" 
d="M482 700l-5 -20l-101 -107h-57l-65 107l5 20h25l67 -88l101 88h30zM457 -4q-35 0 -52 23.5t-8 62.5l70 304q11 47 -4.5 70.5t-51.5 23.5q-87 0 -196 -80l10 43q108 84 206 84q57 0 83.5 -35.5t11.5 -99.5l-71 -309q-4 -19 6 -33t27 -14h30l-7 -30q-23 -10 -54 -10z
M133 526q34 0 52 -21t8 -68l-100 -437h-37q-22 0 -14 29l94 410q5 19 -4.5 32t-28.5 13h-38l7 31q39 11 61 11z" />
    <glyph glyph-name="Omacron" unicode="&#x14c;" horiz-adv-x="712" 
d="M340 781l10 40h234l-10 -40h-234zM697 432q0 -187 -110 -311t-259 -126l10 42q123 6 209.5 118t86.5 280q0 103 -49.5 162.5t-140.5 64.5l10 42q113 -8 178 -79.5t65 -192.5zM56 267q0 186 109.5 311t258.5 127l-10 -42q-124 -6 -209.5 -117.5t-85.5 -281.5
q0 -105 48.5 -162.5t140.5 -64.5l-10 -41q-113 7 -177.5 78t-64.5 193z" />
    <glyph glyph-name="omacron" unicode="&#x14d;" horiz-adv-x="555" 
d="M230 609l10 40h234l-10 -40h-234zM33 204q0 133 80.5 226.5t200.5 96.5l-9 -40q-95 -7 -154.5 -89.5t-59.5 -199.5q0 -74 34 -116.5t98 -46.5l-9 -38q-85 7 -133 62t-48 145zM524 323q0 -134 -80 -229t-200 -98l9 38q95 7 154 92t59 200q0 72 -34 114t-97 46l9 40
q85 -7 132.5 -62t47.5 -141z" />
    <glyph glyph-name="Ohungarumlaut" unicode="&#x150;" horiz-adv-x="712" 
d="M362 751l66 127h52l-6 -25l-75 -102h-37zM483 751l66 127h52l-6 -25l-75 -102h-37zM697 432q0 -187 -110 -311t-259 -126l10 42q123 6 209.5 118t86.5 280q0 103 -49.5 162.5t-140.5 64.5l10 42q113 -8 178 -79.5t65 -192.5zM56 267q0 186 109.5 311t258.5 127l-10 -42
q-124 -6 -209.5 -117.5t-85.5 -281.5q0 -105 48.5 -162.5t140.5 -64.5l-10 -41q-113 7 -177.5 78t-64.5 193z" />
    <glyph glyph-name="ohungarumlaut" unicode="&#x151;" horiz-adv-x="555" 
d="M251 573l66 127h52l-6 -25l-75 -102h-37zM372 573l66 127h52l-6 -25l-75 -102h-37zM33 204q0 133 80.5 226.5t200.5 96.5l-9 -40q-95 -7 -154.5 -89.5t-59.5 -199.5q0 -74 34 -116.5t98 -46.5l-9 -38q-85 7 -133 62t-48 145zM524 323q0 -134 -80 -229t-200 -98l9 38
q95 7 154 92t59 200q0 72 -34 114t-97 46l9 40q85 -7 132.5 -62t47.5 -141z" />
    <glyph glyph-name="OE" unicode="&#x152;" horiz-adv-x="970" 
d="M359 40h53l-9 -40h-51q-144 0 -220.5 67t-76.5 196q0 195 110.5 316t309.5 121h89l-9 -39h-83q-172 0 -262.5 -109.5t-90.5 -292.5q0 -111 59 -165t181 -54zM434 0l161 700h62l-162 -700h-61zM876 0h-350l9 39h296l42 141h44zM1008 700l-39 -168h-42l20 129h-268l9 39
h320zM755 342h-150l9 39h148l30 89h40l-50 -218h-41z" />
    <glyph glyph-name="oe" unicode="&#x153;" horiz-adv-x="915" 
d="M33 204q0 133 80.5 226.5t200.5 96.5l-9 -40q-95 -7 -154.5 -90t-59.5 -199q0 -74 34.5 -116t97.5 -47l-9 -38q-85 7 -133 62t-48 145zM543 235l5 38q151 5 223.5 36.5t72.5 98.5q0 75 -78 80l9 38q57 -4 91 -33t34 -83q0 -85 -88.5 -127.5t-268.5 -47.5zM736 488
q-100 -6 -162 -91t-62 -201q0 -159 131 -162l-9 -38q-71 2 -113 39.5t-54 102.5q-36 -64 -92.5 -102t-130.5 -40l9 38q95 7 154 92.5t59 199.5q0 71 -33.5 113t-97.5 47l9 40q140 -12 163 -149q37 67 99.5 107t137.5 43zM822 53q-69 -53 -157 -56l9 38q75 8 125 62h34z" />
    <glyph glyph-name="Racute" unicode="&#x154;" horiz-adv-x="647" 
d="M348 741l85 127h62l-6 -25l-102 -102h-39zM302 323h-89l9 39h91q102 0 157 47t55 134q0 119 -152 119h-82l9 38h79q95 0 152 -38.5t57 -114.5q0 -92 -56 -142.5t-138 -64.5v-2q49 -15 72 -45t33 -104l16 -124q3 -29 23 -29h36l-8 -36h-109l-18 188q-7 79 -36 107t-101 28
zM269 700l-153 -664h92l-8 -36h-234l8 36h46q13 0 26.5 10.5t16.5 22.5l128 560q3 13 -3 23.5t-18 10.5h-51l9 37h141z" />
    <glyph glyph-name="racute" unicode="&#x155;" horiz-adv-x="368" 
d="M234 573l85 127h62l-6 -25l-102 -102h-39zM56 0q-22 0 -14 29l94 410q5 19 -4.5 32t-28.5 13h-38l7 31q26 11 60 11q36 0 53.5 -23.5t7.5 -66.5l-100 -436h-37zM366 475q-75 0 -150 -73l12 53q72 70 144 70q16 0 25 -3l-11 -48q-11 1 -20 1z" />
    <glyph glyph-name="Rcommaaccent" unicode="&#x156;" horiz-adv-x="647" 
d="M222 -196l7 29q22 3 37.5 15t15.5 30q0 7 -11 16q-13 10 -13 26t11.5 26.5t26.5 10.5q17 0 28 -11.5t11 -34.5q0 -46 -31.5 -73.5t-81.5 -33.5zM302 323h-89l9 39h91q102 0 157 47t55 134q0 119 -152 119h-82l9 38h79q95 0 152 -38.5t57 -114.5q0 -92 -56 -142.5
t-138 -64.5v-2q49 -15 72 -45t33 -104l16 -124q3 -29 23 -29h36l-8 -36h-109l-18 188q-7 79 -36 107t-101 28zM269 700l-153 -664h92l-8 -36h-234l8 36h46q13 0 26.5 10.5t16.5 22.5l128 560q3 13 -3 23.5t-18 10.5h-51l9 37h141z" />
    <glyph glyph-name="rcommaaccent" unicode="&#x157;" horiz-adv-x="368" 
d="M-21 -196l7 29q22 3 37.5 15t15.5 30q0 7 -11 16q-13 10 -13 26t11.5 26.5t26.5 10.5q17 0 28 -11.5t11 -34.5q0 -46 -31.5 -73.5t-81.5 -33.5zM56 0q-22 0 -14 29l94 410q5 19 -4.5 32t-28.5 13h-38l7 31q26 11 60 11q36 0 53.5 -23.5t7.5 -66.5l-100 -436h-37zM366 475
q-75 0 -150 -73l12 53q72 70 144 70q16 0 25 -3l-11 -48q-11 1 -20 1z" />
    <glyph glyph-name="Rcaron" unicode="&#x158;" horiz-adv-x="647" 
d="M506 868l-5 -20l-101 -107h-57l-65 107l5 20h25l67 -88l101 88h30zM302 323h-89l9 39h91q102 0 157 47t55 134q0 119 -152 119h-82l9 38h79q95 0 152 -38.5t57 -114.5q0 -92 -56 -142.5t-138 -64.5v-2q49 -15 72 -45t33 -104l16 -124q3 -29 23 -29h36l-8 -36h-109
l-18 188q-7 79 -36 107t-101 28zM269 700l-153 -664h92l-8 -36h-234l8 36h46q13 0 26.5 10.5t16.5 22.5l128 560q3 13 -3 23.5t-18 10.5h-51l9 37h141z" />
    <glyph glyph-name="rcaron" unicode="&#x159;" horiz-adv-x="368" 
d="M392 700l-5 -20l-101 -107h-57l-65 107l5 20h25l67 -88l101 88h30zM56 0q-22 0 -14 29l94 410q5 19 -4.5 32t-28.5 13h-38l7 31q26 11 60 11q36 0 53.5 -23.5t7.5 -66.5l-100 -436h-37zM366 475q-75 0 -150 -73l12 53q72 70 144 70q16 0 25 -3l-11 -48q-11 1 -20 1z" />
    <glyph glyph-name="Sacute" unicode="&#x15a;" horiz-adv-x="522" 
d="M335 744l85 127h62l-6 -25l-102 -102h-39zM216 -5h-6l10 42q88 1 141.5 43t53.5 121q0 15 -4 27.5t-8 22t-15.5 20l-17.5 16t-24.5 15.5t-25 13l-30 14t-29.5 14q-71 33 -108 70t-37 104q0 83 59 135.5t166 52.5h5l-10 -42q-82 -1 -124 -39t-42 -103q0 -26 8.5 -46
t28.5 -36t37.5 -25.5t51.5 -25.5q94 -44 123 -67q52 -43 52 -115q0 -97 -70 -154t-185 -57zM57 90q52 -45 132 -52l-10 -42q-85 8 -133 37q-13 0 -20 -33h-42l45 196h44zM475 614q-42 40 -108 48l10 42q53 -5 108 -31q11 0 21 27h41l-41 -176h-43z" />
    <glyph glyph-name="sacute" unicode="&#x15b;" horiz-adv-x="422" 
d="M255 576l85 127h62l-6 -25l-102 -102h-39zM159 -4h-5l9 38q68 1 104.5 33t36.5 81q0 20 -7 34.5t-25 26.5t-32 18.5t-45 19.5q-63 25 -91.5 52.5t-28.5 78.5q0 68 50 108t139 41l-9 -40q-63 -1 -95.5 -28t-32.5 -73q0 -25 15 -43t33.5 -28t56.5 -25q67 -27 96.5 -55.5
t29.5 -81.5q0 -70 -53 -113.5t-146 -43.5zM59 58q19 -19 74 -23l-9 -38q-74 5 -136 39l21 89h38q-3 -52 12 -67zM346 468q-18 14 -61 18l9 40q67 -3 121 -34l-19 -86h-36q2 50 -14 62z" />
    <glyph glyph-name="Scircumflex" unicode="&#x15c;" horiz-adv-x="522" 
d="M251 744l5 20l101 107h57l65 -107l-5 -20h-25l-67 88l-101 -88h-30zM216 -5h-6l10 42q88 1 141.5 43t53.5 121q0 15 -4 27.5t-8 22t-15.5 20l-17.5 16t-24.5 15.5t-25 13l-30 14t-29.5 14q-71 33 -108 70t-37 104q0 83 59 135.5t166 52.5h5l-10 -42q-82 -1 -124 -39
t-42 -103q0 -26 8.5 -46t28.5 -36t37.5 -25.5t51.5 -25.5q94 -44 123 -67q52 -43 52 -115q0 -97 -70 -154t-185 -57zM57 90q52 -45 132 -52l-10 -42q-85 8 -133 37q-13 0 -20 -33h-42l45 196h44zM475 614q-42 40 -108 48l10 42q53 -5 108 -31q11 0 21 27h41l-41 -176h-43z
" />
    <glyph glyph-name="scircumflex" unicode="&#x15d;" horiz-adv-x="422" 
d="M171 576l5 20l101 107h57l65 -107l-5 -20h-25l-67 88l-101 -88h-30zM159 -4h-5l9 38q68 1 104.5 33t36.5 81q0 20 -7 34.5t-25 26.5t-32 18.5t-45 19.5q-63 25 -91.5 52.5t-28.5 78.5q0 68 50 108t139 41l-9 -40q-63 -1 -95.5 -28t-32.5 -73q0 -25 15 -43t33.5 -28
t56.5 -25q67 -27 96.5 -55.5t29.5 -81.5q0 -70 -53 -113.5t-146 -43.5zM59 58q19 -19 74 -23l-9 -38q-74 5 -136 39l21 89h38q-3 -52 12 -67zM346 468q-18 14 -61 18l9 40q67 -3 121 -34l-19 -86h-36q2 50 -14 62z" />
    <glyph glyph-name="Scedilla" unicode="&#x15e;" horiz-adv-x="522" 
d="M216 -5h-6l10 42q88 1 141.5 43t53.5 121q0 15 -4 27.5t-8 22t-15.5 20l-17.5 16t-24.5 15.5t-25 13l-30 14t-29.5 14q-71 33 -108 70t-37 104q0 83 59 135.5t166 52.5h5l-10 -42q-82 -1 -124 -39t-42 -103q0 -26 8.5 -46t28.5 -36t37.5 -25.5t51.5 -25.5q94 -44 123 -67
q52 -43 52 -115q0 -97 -70 -154t-185 -57zM57 90q52 -45 132 -52l-10 -42q-85 8 -133 37q-13 0 -20 -33h-42l45 196h44zM475 614q-42 40 -108 48l10 42q53 -5 108 -31q11 0 21 27h41l-41 -176h-43zM178 -174q-41 0 -75 18l8 32h25q12 -18 42 -18q50 0 50 39q0 32 -51 32h-12
l7 33h19q84 0 84 -64q0 -34 -26.5 -53t-70.5 -19z" />
    <glyph glyph-name="scedilla" unicode="&#x15f;" horiz-adv-x="422" 
d="M159 -4h-5l9 38q68 1 104.5 33t36.5 81q0 20 -7 34.5t-25 26.5t-32 18.5t-45 19.5q-63 25 -91.5 52.5t-28.5 78.5q0 68 50 108t139 41l-9 -40q-63 -1 -95.5 -28t-32.5 -73q0 -25 15 -43t33.5 -28t56.5 -25q67 -27 96.5 -55.5t29.5 -81.5q0 -70 -53 -113.5t-146 -43.5z
M59 58q19 -19 74 -23l-9 -38q-74 5 -136 39l21 89h38q-3 -52 12 -67zM346 468q-18 14 -61 18l9 40q67 -3 121 -34l-19 -86h-36q2 50 -14 62zM109 -174q-41 0 -75 18l8 32h25q12 -18 42 -18q50 0 50 39q0 32 -51 32h-12l7 33h19q84 0 84 -64q0 -34 -26.5 -53t-70.5 -19z" />
    <glyph glyph-name="Scaron" unicode="&#x160;" horiz-adv-x="522" 
d="M493 871l-5 -20l-101 -107h-57l-65 107l5 20h25l67 -88l101 88h30zM216 -5h-6l10 42q88 1 141.5 43t53.5 121q0 15 -4 27.5t-8 22t-15.5 20l-17.5 16t-24.5 15.5t-25 13l-30 14t-29.5 14q-71 33 -108 70t-37 104q0 83 59 135.5t166 52.5h5l-10 -42q-82 -1 -124 -39
t-42 -103q0 -26 8.5 -46t28.5 -36t37.5 -25.5t51.5 -25.5q94 -44 123 -67q52 -43 52 -115q0 -97 -70 -154t-185 -57zM57 90q52 -45 132 -52l-10 -42q-85 8 -133 37q-13 0 -20 -33h-42l45 196h44zM475 614q-42 40 -108 48l10 42q53 -5 108 -31q11 0 21 27h41l-41 -176h-43z
" />
    <glyph glyph-name="scaron" unicode="&#x161;" horiz-adv-x="422" 
d="M414 703l-5 -20l-101 -107h-57l-65 107l5 20h25l67 -88l101 88h30zM159 -4h-5l9 38q68 1 104.5 33t36.5 81q0 20 -7 34.5t-25 26.5t-32 18.5t-45 19.5q-63 25 -91.5 52.5t-28.5 78.5q0 68 50 108t139 41l-9 -40q-63 -1 -95.5 -28t-32.5 -73q0 -25 15 -43t33.5 -28
t56.5 -25q67 -27 96.5 -55.5t29.5 -81.5q0 -70 -53 -113.5t-146 -43.5zM59 58q19 -19 74 -23l-9 -38q-74 5 -136 39l21 89h38q-3 -52 12 -67zM346 468q-18 14 -61 18l9 40q67 -3 121 -34l-19 -86h-36q2 50 -14 62z" />
    <glyph glyph-name="Tcommaaccent" unicode="&#x162;" horiz-adv-x="631" 
d="M166 -196l7 29q22 3 37.5 15t15.5 30q0 7 -11 16q-13 10 -13 26t11.5 26.5t26.5 10.5q17 0 28 -11.5t11 -34.5q0 -46 -31.5 -73.5t-81.5 -33.5zM139 0l8 36h54q13 0 25.5 10.5t15.5 22.5l145 631h61l-145 -631q-3 -13 3 -23t19 -10h56l-8 -36h-234zM93 509l44 191h220
l-9 -39h-167l-44 -152h-44zM636 661h-167l9 39h220l-45 -191h-43z" />
    <glyph glyph-name="tcommaaccent" unicode="&#x163;" horiz-adv-x="312" 
d="M34 -196l7 29q22 3 37.5 15t15.5 30q0 7 -11 16q-13 10 -13 26t11.5 26.5t26.5 10.5q17 0 28 -11.5t11 -34.5q0 -46 -31.5 -73.5t-81.5 -33.5zM241 666l-123 -535q-22 -96 48 -96q33 0 50 10h29l-8 -36q-37 -14 -76 -14q-64 0 -89.5 36t-11.5 100l82 353h-72l9 38h71
l34 144h57zM326 484h-97l9 38h97z" />
    <glyph glyph-name="Tcaron" unicode="&#x164;" horiz-adv-x="631" 
d="M557 868l-5 -20l-101 -107h-57l-65 107l5 20h25l67 -88l101 88h30zM139 0l8 36h54q13 0 25.5 10.5t15.5 22.5l145 631h61l-145 -631q-3 -13 3 -23t19 -10h56l-8 -36h-234zM93 509l44 191h220l-9 -39h-167l-44 -152h-44zM636 661h-167l9 39h220l-45 -191h-43z" />
    <glyph glyph-name="tcaron" unicode="&#x165;" horiz-adv-x="312" 
d="M269 571l47 129h51l-6 -25l-56 -104h-36zM241 666l-123 -535q-22 -96 48 -96q33 0 50 10h29l-8 -36q-37 -14 -76 -14q-64 0 -89.5 36t-11.5 100l82 353h-72l9 38h71l34 144h57zM326 484h-97l9 38h97z" />
    <glyph glyph-name="Umacron" unicode="&#x16a;" horiz-adv-x="715" 
d="M158 238q-42 -183 139 -198l-10 -44q-108 10 -162 72t-27 176l88 384q3 13 -2.5 24t-17.5 11h-47l9 37h237l-9 -37h-100zM326 -5h-9l10 44q94 0 149.5 41t79.5 144l101 439h-99l9 37h224l-9 -37h-43q-13 0 -26 -11.5t-15 -23.5l-94 -408q-28 -122 -95.5 -173.5
t-182.5 -51.5zM361 772l10 40h234l-10 -40h-234z" />
    <glyph glyph-name="umacron" unicode="&#x16b;" horiz-adv-x="581" 
d="M167 -6q-61 0 -89.5 38.5t-13.5 105.5l69 301q5 19 -4.5 32t-27.5 13h-36l8 31q29 11 60 11q36 0 51.5 -24.5t5.5 -67.5l-67 -291q-12 -51 6 -77.5t60 -26.5q78 0 175 74l-10 -45q-93 -74 -187 -74zM388 85l101 437h38q20 0 14 -29l-94 -411q-4 -19 5.5 -32.5t26.5 -13.5
h34l-7 -30q-22 -10 -56 -10q-37 0 -54 24.5t-8 64.5zM232 612l10 40h234l-10 -40h-234z" />
    <glyph glyph-name="Ubreve" unicode="&#x16c;" horiz-adv-x="715" 
d="M158 238q-42 -183 139 -198l-10 -44q-108 10 -162 72t-27 176l88 384q3 13 -2.5 24t-17.5 11h-47l9 37h237l-9 -37h-100zM326 -5h-9l10 44q94 0 149.5 41t79.5 144l101 439h-99l9 37h224l-9 -37h-43q-13 0 -26 -11.5t-15 -23.5l-94 -408q-28 -122 -95.5 -173.5
t-182.5 -51.5zM465 743q-48 0 -76.5 25t-34.5 65l5 22h38q2 -70 70 -70q69 0 86 70h42l-6 -25q-13 -39 -45 -63t-79 -24z" />
    <glyph glyph-name="ubreve" unicode="&#x16d;" horiz-adv-x="581" 
d="M167 -6q-61 0 -89.5 38.5t-13.5 105.5l69 301q5 19 -4.5 32t-27.5 13h-36l8 31q29 11 60 11q36 0 51.5 -24.5t5.5 -67.5l-67 -291q-12 -51 6 -77.5t60 -26.5q78 0 175 74l-10 -45q-93 -74 -187 -74zM388 85l101 437h38q20 0 14 -29l-94 -411q-4 -19 5.5 -32.5t26.5 -13.5
h34l-7 -30q-22 -10 -56 -10q-37 0 -54 24.5t-8 64.5zM348 578q-48 0 -76.5 25t-34.5 65l5 22h38q2 -70 70 -70q69 0 86 70h42l-6 -25q-13 -39 -45 -63t-79 -24z" />
    <glyph glyph-name="Uring" unicode="&#x16e;" horiz-adv-x="715" 
d="M472 716h-4l8 32q23 2 38 18t15 43q0 36 -30 49l8 32q26 -8 42 -29.5t16 -50.5q0 -42 -28 -68t-65 -26zM381 800q0 42 28.5 68.5t67.5 26.5h1l-8 -32q-24 -2 -38.5 -18.5t-14.5 -43.5q0 -36 30 -48l-8 -32q-25 7 -41.5 28.5t-16.5 50.5zM158 238q-42 -183 139 -198
l-10 -44q-108 10 -162 72t-27 176l88 384q3 13 -2.5 24t-17.5 11h-47l9 37h237l-9 -37h-100zM326 -5h-9l10 44q94 0 149.5 41t79.5 144l101 439h-99l9 37h224l-9 -37h-43q-13 0 -26 -11.5t-15 -23.5l-94 -408q-28 -122 -95.5 -173.5t-182.5 -51.5z" />
    <glyph glyph-name="uring" unicode="&#x16f;" horiz-adv-x="581" 
d="M353 577h-4l8 32q23 2 38 18t15 43q0 36 -30 49l8 32q26 -8 42 -29.5t16 -50.5q0 -42 -28 -68t-65 -26zM262 661q0 42 28.5 68.5t67.5 26.5h1l-8 -32q-24 -2 -38.5 -18.5t-14.5 -43.5q0 -36 30 -48l-8 -32q-25 7 -41.5 28.5t-16.5 50.5zM167 -6q-61 0 -89.5 38.5
t-13.5 105.5l69 301q5 19 -4.5 32t-27.5 13h-36l8 31q29 11 60 11q36 0 51.5 -24.5t5.5 -67.5l-67 -291q-12 -51 6 -77.5t60 -26.5q78 0 175 74l-10 -45q-93 -74 -187 -74zM388 85l101 437h38q20 0 14 -29l-94 -411q-4 -19 5.5 -32.5t26.5 -13.5h34l-7 -30q-22 -10 -56 -10
q-37 0 -54 24.5t-8 64.5z" />
    <glyph glyph-name="Uhungarumlaut" unicode="&#x170;" horiz-adv-x="715" 
d="M158 238q-42 -183 139 -198l-10 -44q-108 10 -162 72t-27 176l88 384q3 13 -2.5 24t-17.5 11h-47l9 37h237l-9 -37h-100zM326 -5h-9l10 44q94 0 149.5 41t79.5 144l101 439h-99l9 37h224l-9 -37h-43q-13 0 -26 -11.5t-15 -23.5l-94 -408q-28 -122 -95.5 -173.5
t-182.5 -51.5zM383 741l66 127h52l-6 -25l-75 -102h-37zM504 741l66 127h52l-6 -25l-75 -102h-37z" />
    <glyph glyph-name="uhungarumlaut" unicode="&#x171;" horiz-adv-x="581" 
d="M167 -6q-61 0 -89.5 38.5t-13.5 105.5l69 301q5 19 -4.5 32t-27.5 13h-36l8 31q29 11 60 11q36 0 51.5 -24.5t5.5 -67.5l-67 -291q-12 -51 6 -77.5t60 -26.5q78 0 175 74l-10 -45q-93 -74 -187 -74zM388 85l101 437h38q20 0 14 -29l-94 -411q-4 -19 5.5 -32.5t26.5 -13.5
h34l-7 -30q-22 -10 -56 -10q-37 0 -54 24.5t-8 64.5zM265 576l66 127h52l-6 -25l-75 -102h-37zM386 576l66 127h52l-6 -25l-75 -102h-37z" />
    <glyph glyph-name="Uogonek" unicode="&#x172;" horiz-adv-x="715" 
d="M329 -164q-36 0 -56 16.5t-20 45.5q0 40 39 72h49q-37 -30 -37 -68q0 -31 34 -31q14 0 25 7h23l-7 -33q-23 -9 -50 -9zM158 238q-42 -183 139 -198l-10 -44q-108 10 -162 72t-27 176l88 384q3 13 -2.5 24t-17.5 11h-47l9 37h237l-9 -37h-100zM326 -5h-9l10 44
q94 0 149.5 41t79.5 144l101 439h-99l9 37h224l-9 -37h-43q-13 0 -26 -11.5t-15 -23.5l-94 -408q-28 -122 -95.5 -173.5t-182.5 -51.5z" />
    <glyph glyph-name="uogonek" unicode="&#x173;" horiz-adv-x="581" 
d="M405 -21l36 -9q-35 -32 -35 -68q0 -31 34 -31q14 0 25 7h23l-7 -33q-23 -9 -50 -9q-36 0 -56 16.5t-20 45.5q0 45 50 81zM167 -6q-61 0 -89.5 38.5t-13.5 105.5l69 301q5 19 -4.5 32t-27.5 13h-36l8 31q29 11 60 11q36 0 51.5 -24.5t5.5 -67.5l-67 -291q-12 -51 6 -77.5
t60 -26.5q78 0 175 74l-10 -45q-93 -74 -187 -74zM388 85l101 437h38q20 0 14 -29l-94 -411q-4 -19 5.5 -32.5t26.5 -13.5h34l-7 -30q-22 -10 -56 -10q-37 0 -54 24.5t-8 64.5z" />
    <glyph glyph-name="Ydieresis" unicode="&#x178;" horiz-adv-x="643" 
d="M147 0l8 36h53q13 0 26.5 10.5t15.5 22.5l52 232l-121 323q-14 39 -46 39h-18l9 37h209l-9 -37h-96l134 -364l-53 -230q-3 -13 3 -23t18 -10h58l-8 -36h-235zM633 626l-246 -302l-16 44l190 235q24 29 19 44.5t-33 15.5h-44l8 37h209l-9 -37h-19q-29 0 -59 -37zM373 765
q-16 0 -26 10t-10 26q0 17 11.5 28.5t27.5 11.5q15 0 25.5 -10.5t10.5 -25.5q0 -16 -11.5 -28t-27.5 -12zM519 765q-16 0 -26 10t-10 26t12 28t27 12t25.5 -10.5t10.5 -25.5q0 -16 -11.5 -28t-27.5 -12z" />
    <glyph glyph-name="Zacute" unicode="&#x179;" horiz-adv-x="550" 
d="M366 741l85 127h62l-6 -25l-102 -102h-39zM609 656l-603 -656h-40l10 43l601 657h43zM454 0h-408l36 39h327l40 133h44zM110 534l38 166h389l-36 -39h-310l-38 -127h-43z" />
    <glyph glyph-name="zacute" unicode="&#x17a;" horiz-adv-x="474" 
d="M281 573l85 127h62l-6 -25l-102 -102h-39zM-34 0l9 41l496 481h34l-9 -42l-496 -480h-34zM372 0h-330l41 40h250l31 106h42zM77 377l33 145h320l-42 -40h-239l-32 -105h-40z" />
    <glyph glyph-name="Zdotaccent" unicode="&#x17b;" horiz-adv-x="550" 
d="M609 656l-603 -656h-40l10 43l601 657h43zM454 0h-408l36 39h327l40 133h44zM110 534l38 166h389l-36 -39h-310l-38 -127h-43zM389 764q-16 0 -27 11t-11 26q0 17 12 29t28 12q17 0 27.5 -11t10.5 -26q0 -17 -11.5 -29t-28.5 -12z" />
    <glyph glyph-name="zdotaccent" unicode="&#x17c;" horiz-adv-x="474" 
d="M-34 0l9 41l496 481h34l-9 -42l-496 -480h-34zM372 0h-330l41 40h250l31 106h42zM77 377l33 145h320l-42 -40h-239l-32 -105h-40zM304 596q-16 0 -27 11t-11 26q0 17 12 29t28 12q17 0 27.5 -11t10.5 -26q0 -17 -11.5 -29t-28.5 -12z" />
    <glyph glyph-name="Zcaron" unicode="&#x17d;" horiz-adv-x="550" 
d="M524 868l-5 -20l-101 -107h-57l-65 107l5 20h25l67 -88l101 88h30zM609 656l-603 -656h-40l10 43l601 657h43zM454 0h-408l36 39h327l40 133h44zM110 534l38 166h389l-36 -39h-310l-38 -127h-43z" />
    <glyph glyph-name="zcaron" unicode="&#x17e;" horiz-adv-x="474" 
d="M439 700l-5 -20l-101 -107h-57l-65 107l5 20h25l67 -88l101 88h30zM-34 0l9 41l496 481h34l-9 -42l-496 -480h-34zM372 0h-330l41 40h250l31 106h42zM77 377l33 145h320l-42 -40h-239l-32 -105h-40z" />
    <glyph glyph-name="florin" unicode="&#x192;" horiz-adv-x="341" 
d="M-23 -89l7 36q63 25 81 105l77 336h-70l8 38h70l34 150q29 129 153 129q38 0 74 -13l-9 -42h-27q-13 13 -40 13q-37 0 -58 -19.5t-32 -69.5l-121 -525q-23 -104 -117 -138h-30zM316 388h-84l9 38h84z" />
    <glyph glyph-name="Scommaaccent" unicode="&#x218;" horiz-adv-x="522" 
d="M120 -187l7 29q22 3 37.5 15t15.5 30q0 7 -11 16q-13 10 -13 26t11.5 26.5t26.5 10.5q17 0 28 -11.5t11 -34.5q0 -46 -31.5 -73.5t-81.5 -33.5zM216 -5h-6l10 42q88 1 141.5 43t53.5 121q0 15 -4 27.5t-8 22t-15.5 20l-17.5 16t-24.5 15.5t-25 13l-30 14t-29.5 14
q-71 33 -108 70t-37 104q0 83 59 135.5t166 52.5h5l-10 -42q-82 -1 -124 -39t-42 -103q0 -26 8.5 -46t28.5 -36t37.5 -25.5t51.5 -25.5q94 -44 123 -67q52 -43 52 -115q0 -97 -70 -154t-185 -57zM57 90q52 -45 132 -52l-10 -42q-85 8 -133 37q-13 0 -20 -33h-42l45 196h44z
M475 614q-42 40 -108 48l10 42q53 -5 108 -31q11 0 21 27h41l-41 -176h-43z" />
    <glyph glyph-name="scommaaccent" unicode="&#x219;" horiz-adv-x="422" 
d="M58 -187l7 29q22 3 37.5 15t15.5 30q0 7 -11 16q-13 10 -13 26t11.5 26.5t26.5 10.5q17 0 28 -11.5t11 -34.5q0 -46 -31.5 -73.5t-81.5 -33.5zM159 -4h-5l9 38q68 1 104.5 33t36.5 81q0 20 -7 34.5t-25 26.5t-32 18.5t-45 19.5q-63 25 -91.5 52.5t-28.5 78.5q0 68 50 108
t139 41l-9 -40q-63 -1 -95.5 -28t-32.5 -73q0 -25 15 -43t33.5 -28t56.5 -25q67 -27 96.5 -55.5t29.5 -81.5q0 -70 -53 -113.5t-146 -43.5zM59 58q19 -19 74 -23l-9 -38q-74 5 -136 39l21 89h38q-3 -52 12 -67zM346 468q-18 14 -61 18l9 40q67 -3 121 -34l-19 -86h-36
q2 50 -14 62z" />
    <glyph glyph-name="uni0237" unicode="&#x237;" horiz-adv-x="230" 
d="M-50 -165q-39 0 -75 14l9 39h29q12 -15 37 -15q33 0 49 17t25 56l113 493q4 19 -5 32t-27 13h-40l8 31q39 11 62 11q79 0 60 -87l-114 -496q-24 -108 -131 -108z" />
    <glyph glyph-name="circumflex" unicode="&#x2c6;" horiz-adv-x="420" 
d="M170 573l5 20l101 107h57l65 -107l-5 -20h-25l-67 88l-101 -88h-30z" />
    <glyph glyph-name="caron" unicode="&#x2c7;" horiz-adv-x="420" 
d="M423 700l-5 -20l-101 -107h-57l-65 107l5 20h25l67 -88l101 88h30z" />
    <glyph glyph-name="breve" unicode="&#x2d8;" horiz-adv-x="420" 
d="M296 575q-48 0 -76.5 25t-34.5 65l5 22h38q2 -70 70 -70q69 0 86 70h42l-6 -25q-13 -39 -45 -63t-79 -24z" />
    <glyph glyph-name="dotaccent" unicode="&#x2d9;" horiz-adv-x="420" 
d="M296 596q-16 0 -27 11t-11 26q0 17 12 29t28 12q17 0 27.5 -11t10.5 -26q0 -17 -11.5 -29t-28.5 -12z" />
    <glyph glyph-name="ring" unicode="&#x2da;" horiz-adv-x="420" 
d="M301 574h-4l8 32q23 2 38 18t15 43q0 36 -30 49l8 32q26 -8 42 -29.5t16 -50.5q0 -42 -28 -68t-65 -26zM210 658q0 42 28.5 68.5t67.5 26.5h1l-8 -32q-24 -2 -38.5 -18.5t-14.5 -43.5q0 -36 30 -48l-8 -32q-25 7 -41.5 28.5t-16.5 50.5z" />
    <glyph glyph-name="ogonek" unicode="&#x2db;" horiz-adv-x="420" 
d="M149 -164q-36 0 -56 16.5t-20 45.5q0 52 82 102h45q-76 -51 -76 -98q0 -31 34 -31q14 0 25 7h23l-7 -33q-23 -9 -50 -9z" />
    <glyph glyph-name="tilde" unicode="&#x2dc;" horiz-adv-x="420" 
d="M147 586l7 29q29 58 79 58q24 0 67 -19.5t60 -19.5q35 0 48 42h36l-7 -29q-30 -57 -80 -57q-24 0 -67 19.5t-59 19.5q-35 0 -47 -43h-37z" />
    <glyph glyph-name="hungarumlaut" unicode="&#x2dd;" horiz-adv-x="420" 
d="M203 573l66 127h52l-6 -25l-75 -102h-37zM324 573l66 127h52l-6 -25l-75 -102h-37z" />
    <glyph glyph-name="uni2009" unicode="&#x2009;" horiz-adv-x="80" 
 />
    <glyph glyph-name="endash" unicode="&#x2013;" horiz-adv-x="404" 
d="M34 270l9 37h340l-9 -37h-340z" />
    <glyph glyph-name="emdash" unicode="&#x2014;" horiz-adv-x="657" 
d="M34 270l9 37h593l-9 -37h-593z" />
    <glyph glyph-name="quoteleft" unicode="&#x2018;" horiz-adv-x="151" 
d="M227 703l-7 -30q-23 -4 -40 -17t-17 -30q0 -9 14 -18t14 -27t-12 -29t-29 -11t-28.5 11.5t-11.5 31.5q0 52 32.5 82.5t84.5 36.5z" />
    <glyph glyph-name="quoteright" unicode="&#x2019;" horiz-adv-x="151" 
d="M93 542l7 30q23 4 40 17t17 30q0 9 -14 18t-14 27t12 29t29 11t28.5 -11.5t11.5 -31.5q0 -52 -32.5 -82.5t-84.5 -36.5z" />
    <glyph glyph-name="quotesinglbase" unicode="&#x201a;" horiz-adv-x="151" 
d="M-51 -74l7 30q23 4 40 17t17 30q0 9 -14 18t-14 27t12 29t29 11t28.5 -11.5t11.5 -31.5q0 -52 -32.5 -82.5t-84.5 -36.5z" />
    <glyph glyph-name="quotedblleft" unicode="&#x201c;" horiz-adv-x="267" 
d="M343 703l-7 -30q-23 -4 -40 -17t-17 -30q0 -9 14 -18t14 -27t-12 -29t-29 -11t-28.5 11.5t-11.5 31.5q0 52 32.5 82.5t84.5 36.5zM227 703l-7 -30q-23 -4 -40 -17t-17 -30q0 -9 14 -18t14 -27t-12 -29t-29 -11t-28.5 11.5t-11.5 31.5q0 52 32.5 82.5t84.5 36.5z" />
    <glyph glyph-name="quotedblright" unicode="&#x201d;" horiz-adv-x="267" 
d="M93 542l7 30q23 4 40 17t17 30q0 9 -14 18t-14 27t12 29t29 11t28.5 -11.5t11.5 -31.5q0 -52 -32.5 -82.5t-84.5 -36.5zM209 542l7 30q23 4 40 17t17 30q0 9 -14 18t-14 27t12 29t29 11t28.5 -11.5t11.5 -31.5q0 -52 -32.5 -82.5t-84.5 -36.5z" />
    <glyph glyph-name="quotedblbase" unicode="&#x201e;" horiz-adv-x="267" 
d="M-51 -74l7 30q23 4 40 17t17 30q0 9 -14 18t-14 27t12 29t29 11t28.5 -11.5t11.5 -31.5q0 -52 -32.5 -82.5t-84.5 -36.5zM65 -74l7 30q23 4 40 17t17 30q0 9 -14 18t-14 27t12 29t29 11t28.5 -11.5t11.5 -31.5q0 -52 -32.5 -82.5t-84.5 -36.5z" />
    <glyph glyph-name="dagger" unicode="&#x2020;" horiz-adv-x="434" 
d="M286 499h-29l3 73l22 95l17 33h38l3 -36l-23 -96zM247 490l-6 -27l-138 -12l-21 13l7 35l28 11zM286 463l6 25l138 13l22 -13l-8 -35l-28 -11zM247 453h30l-3 -83l-37 -161l-75 -258h-30l42 261l37 162z" />
    <glyph glyph-name="daggerdbl" unicode="&#x2021;" horiz-adv-x="434" 
d="M288 505h-30l3 73l21 89l17 33h38l3 -36l-21 -90zM248 496l-6 -26l-136 -13l-23 13l8 36l28 10zM287 468l6 25l138 14l23 -12l-8 -36l-28 -11zM248 259l-32 -67h-30l1 70l30 131l31 66h31l-1 -70zM177 146h30l-3 -73l-21 -89l-17 -33h-38l-3 37l21 89zM217 155l6 26
l136 13l23 -13l-8 -36l-28 -10zM178 183l-6 -25l-138 -14l-23 12l8 36l28 11z" />
    <glyph glyph-name="bullet" unicode="&#x2022;" horiz-adv-x="312" 
d="M152 185q-46 0 -76 27t-30 73q0 58 39.5 95t94.5 37q46 0 75 -26.5t29 -71.5q0 -61 -38 -97.5t-94 -36.5z" />
    <glyph glyph-name="ellipsis" unicode="&#x2026;" horiz-adv-x="465" 
d="M332 -4q-16 0 -27 11t-11 28t13 29.5t30 12.5t28 -11.5t11 -27.5q0 -17 -13 -29.5t-31 -12.5zM178 -4q-16 0 -27 11t-11 28t13 29.5t30 12.5t28 -11.5t11 -27.5q0 -17 -13 -29.5t-31 -12.5zM24 -4q-16 0 -27 11t-11 28t13 29.5t30 12.5t28 -11.5t11 -27.5
q0 -17 -13 -29.5t-31 -12.5z" />
    <glyph glyph-name="perthousand" unicode="&#x2030;" horiz-adv-x="1098" 
d="M45 -34l632 763h51l-632 -763h-51zM393 571q0 -87 -52 -148.5t-124 -66.5l9 37q48 8 80.5 59t32.5 120q0 86 -63 95l9 37q49 -7 78.5 -42.5t29.5 -90.5zM80 489q0 86 52 148.5t122 67.5l-9 -38q-49 -9 -80.5 -60t-31.5 -120q0 -84 62 -94l-9 -36q-49 8 -77.5 42.5
t-28.5 89.5zM694 210q0 -87 -52 -148.5t-124 -66.5l9 37q48 8 80.5 59t32.5 120q0 86 -63 95l9 37q49 -7 78.5 -42.5t29.5 -90.5zM381 128q0 86 52 148.5t122 67.5l-9 -38q-49 -9 -80.5 -60t-31.5 -120q0 -84 62 -94l-9 -36q-49 8 -77.5 42.5t-28.5 89.5zM1047 210
q0 -87 -52 -148.5t-124 -66.5l9 37q48 8 80.5 59t32.5 120q0 86 -63 95l9 37q49 -7 78.5 -42.5t29.5 -90.5zM734 128q0 86 52 148.5t122 67.5l-9 -38q-49 -9 -80.5 -60t-31.5 -120q0 -84 62 -94l-9 -36q-49 8 -77.5 42.5t-28.5 89.5z" />
    <glyph glyph-name="guilsinglleft" unicode="&#x2039;" horiz-adv-x="271" 
d="M274 448l-222 -232l-18 29l9 37l203 190h35zM154 47l-87 143l39 40l82 -158l-5 -25h-29z" />
    <glyph glyph-name="guilsinglright" unicode="&#x203a;" horiz-adv-x="271" 
d="M-3 71l222 232l18 -29l-9 -37l-203 -190h-35zM117 472l87 -143l-39 -40l-82 158l5 25h29z" />
    <glyph glyph-name="fraction" unicode="&#x2044;" horiz-adv-x="190" 
d="M-223 -34l632 763h51l-632 -763h-51z" />
    <glyph glyph-name="Euro" unicode="&#x20ac;" horiz-adv-x="609" 
d="M429 377h-375l11 40h63q22 76 76 151q93 128 246 137l-10 -43q-118 -10 -189 -117q-37 -55 -59 -128h255zM44 326h365l-17 -40h-226q-2 -28 -2 -54q0 -89 42 -141t124 -54l-10 -42q-107 5 -163 70t-55 175q0 23 2 46h-71zM558 639q-27 23 -87 24l10 42q90 -3 157 -35
l-28 -121h-40q5 43 2.5 61.5t-14.5 28.5zM530 64q-86 -64 -179 -68l10 42q85 9 142 74h37z" />
    <glyph glyph-name="trademark" unicode="&#x2122;" horiz-adv-x="697" 
d="M125 427l6 25h28q5 0 10 5t7 10l54 233h47l-54 -233q-2 -5 1 -10t8 -5h29l-6 -25h-130zM598 452h33l32 135l68 113h44l-7 -27h-26q-4 0 -10 -5t-7 -10l-45 -191q-1 -5 2.5 -10t7.5 -5h28l-6 -25h-118zM509 427l-40 273h43l36 -255l-11 -18h-28zM345 427l6 25h26
q4 0 9.5 5t7.5 10l44 191q2 5 -1 10t-7 5h-28l7 27h35l15 -100l-34 -148h33l-6 -25h-107zM702 700l-134 -222l-6 47l103 175h37zM337 671h-42l7 29h77l-21 -94h-30zM107 606l22 94h76l-7 -29h-41l-21 -65h-29z" />
    <glyph glyph-name="onethird" unicode="&#x2153;" horiz-adv-x="690" 
d="M41 327l7 31h56q7 0 14.5 6t9.5 13l65 278l-72 -32h-18l7 33l108 44h36l-74 -323q-4 -19 13 -19h55l-7 -31h-200zM4 -34l632 763h51l-632 -763h-51zM619 113q0 -47 -36 -79.5t-102 -36.5l8 34q38 5 58 27.5t20 56.5q0 29 -19.5 45t-51.5 16h-29l7 32h30q42 0 66 20t24 56
q0 49 -47 58l8 33q43 -4 66.5 -26t23.5 -57q0 -39 -24 -65t-66 -34v-2q29 -7 46.5 -27.5t17.5 -50.5zM412 42q11 -9 46 -12l-8 -33q-59 6 -92 23l15 64h30q-2 -34 9 -42zM440 358q37 15 85 18l-8 -33q-23 -2 -35 -9q-16 -10 -27 -43h-31z" />
    <glyph glyph-name="twothirds" unicode="&#x2154;" horiz-adv-x="737" 
d="M215 475q-77 -42 -102 -80h-47q30 54 114 103q8 5 29.5 17t29 16.5t22.5 15.5t20.5 19t10.5 20.5t5 26.5q0 49 -49 55l8 34q45 -3 69.5 -25t24.5 -59q0 -21 -7.5 -39t-16 -29.5t-29 -26t-31.5 -21t-38 -20.5q-9 -5 -13 -7zM44 327l6 26l3 12h202l18 56h33l-22 -94h-240z
M136 683q41 16 89 20l-8 -35q-22 -1 -38 -11q-18 -11 -30 -48h-30zM50 -34l632 763h51l-632 -763h-51zM666 113q0 -47 -36 -79.5t-102 -36.5l8 34q38 5 58 27.5t20 56.5q0 29 -19.5 45t-51.5 16h-29l7 32h30q42 0 66 20t24 56q0 49 -47 58l8 33q43 -4 66.5 -26t23.5 -57
q0 -39 -24 -65t-66 -34v-2q29 -7 46.5 -27.5t17.5 -50.5zM459 42q11 -9 46 -12l-8 -33q-59 6 -92 23l15 64h30q-2 -34 9 -42zM487 358q37 15 85 18l-8 -33q-23 -2 -35 -9q-16 -10 -27 -43h-31z" />
    <glyph glyph-name="oneeighth" unicode="&#x215b;" horiz-adv-x="698" 
d="M41 327l7 31h56q7 0 14.5 6t9.5 13l65 278l-72 -32h-18l7 33l108 44h36l-74 -323q-4 -19 13 -19h55l-7 -31h-200zM6 -34l632 763h51l-632 -763h-51zM410 269q0 44 33 73.5t85 33.5l-8 -35q-30 -5 -46 -25t-16 -50q0 -38 41 -49l-8 -34q-39 -2 -65 -26.5t-26 -61.5
q0 -26 17.5 -43t49.5 -20l-9 -34q-52 5 -79.5 29.5t-27.5 62.5q0 43 29 72.5t77 38.5v2q-47 18 -47 66zM624 117q0 -51 -37 -84t-98 -36l8 35q37 4 57.5 27.5t20.5 58.5q0 52 -54 63l8 34q71 7 71 71q0 21 -13 36t-36 19l8 34q42 -5 65.5 -28.5t23.5 -56.5
q0 -35 -22.5 -59.5t-61.5 -33.5v-2q60 -18 60 -78z" />
    <glyph glyph-name="threeeighths" unicode="&#x215c;" horiz-adv-x="714" 
d="M312 440q0 -47 -36 -79.5t-102 -36.5l8 34q38 5 58 27.5t20 56.5q0 29 -19.5 45t-51.5 16h-29l7 32h30q42 0 66 20t24 56q0 49 -47 58l8 33q43 -4 66.5 -26t23.5 -57q0 -39 -24 -65t-66 -34v-2q29 -7 46.5 -27.5t17.5 -50.5zM105 369q11 -9 46 -12l-8 -33q-59 6 -92 23
l15 64h30q-2 -34 9 -42zM133 685q37 15 85 18l-8 -33q-23 -2 -35 -9q-16 -9 -27 -43h-31zM23 -34l632 763h51l-632 -763h-51zM426 269q0 44 33 73.5t85 33.5l-8 -35q-30 -5 -46 -25t-16 -50q0 -38 41 -49l-8 -34q-39 -2 -65 -26.5t-26 -61.5q0 -26 17.5 -43t49.5 -20l-9 -34
q-52 5 -79.5 29.5t-27.5 62.5q0 43 29 72.5t77 38.5v2q-47 18 -47 66zM640 117q0 -51 -37 -84t-98 -36l8 35q37 4 57.5 27.5t20.5 58.5q0 52 -54 63l8 34q71 7 71 71q0 21 -13 36t-36 19l8 34q42 -5 65.5 -28.5t23.5 -56.5q0 -35 -22.5 -59.5t-61.5 -33.5v-2q60 -18 60 -78z
" />
    <glyph glyph-name="fiveeighths" unicode="&#x215d;" horiz-adv-x="707" 
d="M318 467q0 -61 -41.5 -100t-111.5 -43l8 34q43 5 68 32.5t25 72.5q0 65 -63 65q-26 0 -42 -8l8 31q22 9 52 9q44 0 70.5 -23.5t26.5 -69.5zM306 662h-176l9 38h216l-19 -81h-32zM125 494h-35l33 138h36zM104 369q14 -11 38 -12l-8 -33q-49 3 -86 22l15 65h31
q-3 -32 10 -42zM20 -34l632 763h51l-632 -763h-51zM419 269q0 44 33 73.5t85 33.5l-8 -35q-30 -5 -46 -25t-16 -50q0 -38 41 -49l-8 -34q-39 -2 -65 -26.5t-26 -61.5q0 -26 17.5 -43t49.5 -20l-9 -34q-52 5 -79.5 29.5t-27.5 62.5q0 43 29 72.5t77 38.5v2q-47 18 -47 66z
M633 117q0 -51 -37 -84t-98 -36l8 35q37 4 57.5 27.5t20.5 58.5q0 52 -54 63l8 34q71 7 71 71q0 21 -13 36t-36 19l8 34q42 -5 65.5 -28.5t23.5 -56.5q0 -35 -22.5 -59.5t-61.5 -33.5v-2q60 -18 60 -78z" />
    <glyph glyph-name="seveneighths" unicode="&#x215e;" horiz-adv-x="687" 
d="M-29 -34l632 763h51l-632 -763h-51zM399 269q0 44 33 73.5t85 33.5l-8 -35q-30 -5 -46 -25t-16 -50q0 -38 41 -49l-8 -34q-39 -2 -65 -26.5t-26 -61.5q0 -26 17.5 -43t49.5 -20l-9 -34q-52 5 -79.5 29.5t-27.5 62.5q0 43 29 72.5t77 38.5v2q-47 18 -47 66zM613 117
q0 -51 -37 -84t-98 -36l8 35q37 4 57.5 27.5t20.5 58.5q0 52 -54 63l8 34q71 7 71 71q0 21 -13 36t-36 19l8 34q42 -5 65.5 -28.5t23.5 -56.5q0 -35 -22.5 -59.5t-61.5 -33.5v-2q60 -18 60 -78zM104 352l257 348h17l-10 -43l-220 -330h-50zM100 596l24 104h200l-29 -39h-140
l-22 -65h-33z" />
    <glyph glyph-name="minus" unicode="&#x2212;" horiz-adv-x="485" 
d="M55 324l10 43h405l-10 -43h-405z" />
    <glyph glyph-name="space_uni0326" horiz-adv-x="420" 
d="M103 -187l7 29q22 3 37.5 15t15.5 30q0 7 -11 16q-13 10 -13 26t11.5 26.5t26.5 10.5q17 0 28 -11.5t11 -34.5q0 -46 -31.5 -73.5t-81.5 -33.5z" />
    <glyph glyph-name="paragraph.cap" horiz-adv-x="557" 
d="M506 700h127l-9 -37h-46q-13 0 -26 -11t-16 -23l-146 -629h-45zM429 700l-163 -700h-45l77 337h-10q-90 0 -143.5 39t-53.5 114q0 109 67.5 159.5t203.5 50.5h67z" />
    <glyph glyph-name="bullet.cap" horiz-adv-x="312" 
d="M159 213q-46 0 -76 26.5t-30 72.5q0 58 39.5 95.5t94.5 37.5q46 0 75 -26t29 -70q0 -61 -38 -98.5t-94 -37.5z" />
    <glyph glyph-name="at.cap" horiz-adv-x="810" 
d="M448 707h18l-9 -39h-8q-85 0 -159 -36.5t-124.5 -115.5t-50.5 -186q0 -134 69 -207t186 -87l-9 -38q-132 16 -215.5 99t-83.5 233q0 89 34.5 162.5t90.5 119t123.5 70.5t137.5 25zM427 -6q-24 0 -36 1l9 38h28q139 0 225 61h27v-31q-98 -69 -253 -69zM584 170
q-63 0 -82.5 35.5t-2.5 95.5l48 169l17 28q24 31 37 31h19l-69 -246q-22 -79 41 -79q62 0 108.5 52.5t46.5 154.5q0 111 -71 178t-189 77l9 39q131 -13 215 -89.5t84 -202.5q0 -118 -64.5 -180.5t-146.5 -62.5zM361 205q48 0 102 49l1 -37q-59 -49 -121 -49
q-47 0 -74.5 28.5t-27.5 79.5q0 112 83 193q63 61 146 61q47 0 70 -15l-19 -30q-21 8 -47 8q-62 0 -106 -46q-70 -70 -70 -170q0 -72 63 -72z" />
    <glyph glyph-name="dagger.cap" horiz-adv-x="434" 
d="M287 506h-29l2 66l22 95l17 33h38l3 -36l-23 -96zM248 497l-6 -27l-138 -12l-21 13l7 35l28 11zM287 470l6 25l138 13l22 -13l-8 -35l-28 -11zM248 460h30l-2 -77l-37 -161l-67 -222h-30l34 225l37 162z" />
    <glyph glyph-name="daggerdbl.cap" horiz-adv-x="434" 
d="M290 512h-29l2 66l19 89l17 33h38l3 -36l-20 -90zM251 503l-6 -27l-138 -12l-21 13l7 35l28 11zM290 476l6 25l138 13l22 -13l-8 -35l-28 -11zM280 396l-22 -95l-32 -67h-30l1 70l22 96l32 66h30zM187 188h29l-2 -66l-19 -89l-17 -33h-38l-3 36l20 90zM226 197l6 27
l138 12l21 -13l-7 -35l-28 -11zM187 224l-6 -25l-138 -13l-22 13l8 35l28 11z" />
    <glyph glyph-name="less.cap" horiz-adv-x="472" 
d="M527 663l-456 -348l-18 21l10 41l441 323h32zM345 0l-254 292l45 35l246 -291l-8 -36h-29z" />
    <glyph glyph-name="greater.cap" horiz-adv-x="472" 
d="M-11 36l455 350l19 -22l-10 -41l-441 -323h-32zM170 700l254 -291l-45 -35l-245 289l8 37h28z" />
    <glyph glyph-name="guillemotleft.cap" horiz-adv-x="637" 
d="M472 663l-401 -353l-18 26l10 41l385 323h33zM292 0l-203 285l45 39l193 -288l-8 -36h-27zM692 663l-401 -353l-18 26l10 41l385 323h33zM512 0l-203 285l45 39l193 -288l-8 -36h-27z" />
    <glyph glyph-name="guillemotright.cap" horiz-adv-x="636" 
d="M208 36l399 356l20 -28l-10 -41l-385 -323h-33zM388 700l201 -283l-44 -39l-192 285l8 37h27zM-12 36l399 356l20 -28l-10 -41l-385 -323h-33zM168 700l201 -283l-44 -39l-192 285l8 37h27z" />
    <glyph glyph-name="quotedblleft.cap" horiz-adv-x="997" 
d="M252 -5q-100 0 -158.5 63.5t-58.5 172.5q0 191 149.5 323t391.5 147l-9 -38q-183 -19 -280.5 -96t-97.5 -166q0 -47 58 -54q13 -1 38.5 -2t46.5 -3t38 -8q40 -14 66.5 -49t26.5 -83q0 -86 -59 -146.5t-152 -60.5zM729 -5q-100 0 -158.5 63.5t-58.5 172.5q0 191 149.5 323
t391.5 147l-9 -38q-183 -19 -280.5 -96t-97.5 -166q0 -47 58 -54q13 -1 38.5 -2t46.5 -3t38 -8q40 -14 66.5 -49t26.5 -83q0 -86 -59 -146.5t-152 -60.5z" />
    <glyph glyph-name="quotedblright.cap" horiz-adv-x="996" 
d="M310 705q100 0 158.5 -63.5t58.5 -172.5q0 -191 -149.5 -323t-391.5 -147l8 37q185 19 282 94t97 169q0 48 -58 55q-13 1 -38.5 2t-46.5 3t-38 8q-40 14 -66.5 48.5t-26.5 82.5q0 86 59 146.5t152 60.5zM786 705q100 0 158.5 -63.5t58.5 -172.5q0 -191 -149.5 -323
t-391.5 -147l8 37q185 19 282 94t97 169q0 48 -58 55q-13 1 -38.5 2t-46.5 3t-38 8q-40 14 -66.5 48.5t-26.5 82.5q0 86 59 146.5t152 60.5z" />
    <glyph glyph-name="quoteleft.cap" horiz-adv-x="520" 
d="M252 -5q-100 0 -158.5 63.5t-58.5 172.5q0 191 149.5 323t391.5 147l-9 -38q-183 -19 -280.5 -96t-97.5 -166q0 -47 58 -54q13 -1 38.5 -2t46.5 -3t38 -8q40 -14 66.5 -49t26.5 -83q0 -86 -59 -146.5t-152 -60.5z" />
    <glyph glyph-name="quoteright.cap" horiz-adv-x="520" 
d="M310 705q100 0 158.5 -63.5t58.5 -172.5q0 -191 -149.5 -323t-391.5 -147l8 37q185 19 282 94t97 169q0 48 -58 55q-13 1 -38.5 2t-46.5 3t-38 8q-40 14 -66.5 48.5t-26.5 82.5q0 86 59 146.5t152 60.5z" />
    <glyph glyph-name="hyphen.cap" horiz-adv-x="260" 
d="M44 315l11 44h196l-11 -44h-196z" />
    <glyph glyph-name="endash.cap" horiz-adv-x="404" 
d="M46 318l9 37h340l-9 -37h-340z" />
    <glyph glyph-name="emdash.cap" horiz-adv-x="657" 
d="M46 318l9 37h593l-9 -37h-593z" />
    <glyph glyph-name="questiondown.cap" horiz-adv-x="443" 
d="M315 556h41q-7 -72 -32.5 -119t-82.5 -96q-15 -13 -43.5 -33.5t-46 -35t-36.5 -35.5t-28.5 -46.5t-9.5 -55.5q0 -41 26 -67.5t75 -30.5l-9 -41q-73 4 -113.5 40t-40.5 97q0 29 8 54t18 42t32 38t35.5 31.5t44 32.5l43.5 32q58 44 84.5 85t34.5 108zM373 133l-23 -105
q-73 -31 -151 -33l10 41q44 2 71 15q19 10 30 26.5t22 55.5h41zM355 704q16 0 27 -11t11 -28t-13 -29.5t-30 -12.5t-28 11.5t-11 27.5q0 17 13 29.5t31 12.5z" />
    <glyph glyph-name="exclamdown.cap" horiz-adv-x="157" 
d="M167 556l-109 -518l-9 -38h-63l9 38l134 518h38zM174 704q16 0 27 -11t11 -28t-13 -29.5t-30 -12.5t-28 11.5t-11 27.5q0 17 13 29.5t31 12.5z" />
    <glyph glyph-name="R.alt" horiz-adv-x="647" 
d="M525 -4q-38 0 -57 21.5t-22 68.5l-7 103q-5 77 -37 105.5t-102 28.5h-87l9 39h90q103 0 158 47t55 134q0 119 -152 119h-82l9 38h79q95 0 152 -38.5t57 -114.5q0 -93 -56.5 -143.5t-141.5 -63.5v-2q48 -11 74 -43t34 -106l13 -110q2 -19 15 -31t30 -12h22l-7 -30
q-20 -10 -46 -10zM119 663l9 37h141l-153 -664h92l-8 -36h-234l8 36h46q13 0 26.5 10.5t16.5 22.5l128 560q3 13 -3.5 23.5t-18.5 10.5h-50z" />
    <glyph glyph-name="a.alt" horiz-adv-x="571" 
d="M193 35q81 0 165 82l-12 -54q-74 -67 -162 -67q-71 0 -112.5 42t-41.5 121q0 80 32 153t80 124q39 41 93.5 66t109.5 25q65 0 110 -31l-17 -32q-35 21 -86 21q-95 0 -166 -73q-97 -101 -97 -252q0 -63 29 -94t75 -31zM444 -4q-35 0 -53.5 24t-8.5 69l82 358q35 75 59 75
h16l-101 -441q-4 -18 6 -31.5t27 -13.5h31l-7 -30q-23 -10 -51 -10z" />
    <glyph glyph-name="f.alt" horiz-adv-x="306" 
d="M222 573l-135 -641q-21 -98 -118 -98q-29 0 -51 10l6 28h32q61 0 74 62l115 550h-75l8 38h75l12 53q29 130 156 130q53 0 83 -13l-8 -39h-30q-14 12 -45 12q-42 0 -65 -20.5t-34 -71.5zM327 484h-93l8 38h92z" />
    <glyph glyph-name="g.alt" horiz-adv-x="570" 
d="M195 58q85 0 176 87l-12 -51q-80 -75 -173 -75q-72 0 -112.5 41t-40.5 127q0 73 27.5 141.5t71.5 114.5q37 40 90 62t105 22q80 0 132 -37l-14 -31q-45 27 -109 27q-94 0 -161 -69q-38 -39 -60 -101.5t-22 -129.5q0 -128 102 -128zM428 8q-20 -90 -79 -132t-166 -45l9 39
q76 3 119 37t59 101l100 434q31 80 58 80h18zM50 -90q28 -37 111 -41l-9 -38q-81 2 -148 33l11 46h35z" />
    <glyph glyph-name="y.alt" horiz-adv-x="534" 
d="M226 55q197 246 255 467h55l-9 -37q-41 -111 -101 -215t-162 -235q-109 -139 -243 -197h-53l9 38q127 27 249 179zM124 526q30 0 42.5 -16.5t17.5 -51.5l51 -346l-46 -58l-60 389q-7 41 -41 41h-29l7 31q29 11 58 11z" />
    <glyph glyph-name="z.alt" horiz-adv-x="472" 
d="M496 487l-498 -487h-32l7 34l502 488h28zM304 -4q-36 0 -112.5 16.5t-113.5 16.5h-9l39 39q36 -3 99.5 -12.5t91.5 -9.5q24 0 36 12t21 43h38l-22 -95q-26 -10 -68 -10zM394 495h11l-42 -39q-32 2 -91 11t-94 9q-24 0 -35 -10.5t-19 -39.5h-38l21 93q23 8 65 8
q38 0 112 -16t110 -16z" />
    <glyph glyph-name="germandbls.alt" horiz-adv-x="579" 
d="M192 497l-128 -565q-21 -98 -118 -98q-29 0 -51 10l6 28h32q61 0 74 62l127 565q46 199 235 206l-10 -41q-131 -11 -167 -167zM491 586q0 35 -26.5 56t-74.5 23l10 40q67 -5 107 -34.5t40 -78.5q0 -29 -18 -55t-36.5 -40.5t-65.5 -47.5q-9 -7 -14 -10q-26 -18 -40 -29
t-25.5 -26t-11.5 -29q0 -19 14.5 -32t51.5 -35q8 -4 12 -7q33 -19 52.5 -33.5t37.5 -42t18 -58.5q0 -64 -46 -105.5t-122 -45.5l9 39q48 4 77 33.5t29 71.5q0 17 -6.5 31.5t-25 29t-27.5 19.5t-37 22q-46 26 -68 48t-22 55q0 31 23.5 57.5t78.5 66.5q5 4 27.5 19.5t31 23
t22.5 21t19.5 26.5t5.5 27zM268 51q18 -14 64 -17l-9 -38q-71 4 -125 35l21 89h38q-6 -57 11 -69z" />
    <glyph glyph-name="ampersand.alt" horiz-adv-x="676" 
d="M308 389l215 -327q18 -26 37 -26h38l-8 -36h-95l-242 369q-49 73 -49 142q0 83 55.5 138t149.5 56l-10 -42q-65 -5 -100 -44t-35 -102q0 -60 44 -128zM235 37q87 0 160 60l23 -35q-78 -67 -194 -67q-97 0 -150.5 50t-53.5 124q0 156 180 228l21 -33q-137 -63 -137 -188
q0 -59 38 -99t113 -40zM513 624q-29 33 -83 38l10 42q52 -5 88 -24q9 0 16 20h41l-38 -164h-43zM502 148l-27 41q54 82 86 201h56l-8 -34q-48 -128 -107 -208z" />
    <glyph glyph-name="f_i.alt" 
d="M462 596q-16 0 -27 11t-11 26q0 17 12 29t28 12q17 0 27.5 -11t10.5 -26q0 -17 -11.5 -29t-28.5 -12zM222 573l-135 -641q-21 -98 -118 -98q-29 0 -51 10l6 28h32q61 0 74 62l115 550h-75l9 38h74l12 53q29 130 151 130q48 0 78 -13l-8 -39h-30q-12 12 -40 12
q-38 0 -60 -20.5t-34 -71.5zM309 84l101 438h6q23 0 34 -15.5t5 -40.5l-89 -385q-4 -18 6.5 -31.5t28.5 -13.5h31l-7 -30q-20 -10 -54 -10q-38 0 -55 23.5t-7 64.5zM233 484l9 38h137l-9 -38h-137z" />
    <glyph glyph-name="f_l.alt" 
d="M220 564l-133 -632q-21 -98 -118 -98q-29 0 -51 10l6 28h32q61 0 74 62l115 550h-75l9 38h74l10 44q31 139 185 139q40 0 73 -5l-10 -41q-21 6 -62 6q-108 0 -129 -101zM309 84l143 616h42q14 0 11 -18l-139 -601q-4 -18 6 -31.5t27 -13.5h36l-7 -30q-27 -10 -55 -10
q-39 0 -56.5 23.5t-7.5 64.5zM326 484h-93l8 38h94z" />
    <glyph glyph-name="f_f.alt" horiz-adv-x="560" 
d="M220 564l-133 -632q-21 -98 -118 -98q-29 0 -51 10l6 28h32q61 0 74 62l115 550h-75l9 38h74l10 44q29 132 149 132q45 0 75 -13l-8 -39h-30q-12 12 -37 12q-37 0 -59 -21.5t-33 -72.5zM233 484l8 38h136l-8 -38h-136zM580 484h-92l8 38h93zM476 573l-135 -636
q-21 -98 -118 -98q-29 0 -51 10l6 28h32q61 0 74 62l135 636q29 130 156 130q53 0 83 -13l-8 -39h-30q-14 12 -45 12q-42 0 -65 -20.5t-34 -71.5z" />
    <glyph glyph-name="f_b.alt" horiz-adv-x="833" 
d="M220 564l-133 -632q-21 -98 -118 -98q-29 0 -51 10l6 28h32q61 0 74 62l115 550h-75l9 38h74l10 44q31 139 185 139q40 0 73 -5l-10 -41q-21 6 -62 6q-108 0 -129 -101zM326 484h-93l8 38h94zM508 35q94 0 156 69q81 91 81 248q0 132 -101 132q-82 0 -173 -82l11 48
q86 77 177 77q66 0 105.5 -42.5t39.5 -126.5q0 -85 -28.5 -161.5t-74.5 -123.5q-76 -77 -189 -77q-87 0 -135 37l14 31q44 -29 117 -29zM505 682l-136 -590q-5 -21 -24 -56.5t-31 -35.5h-24l161 700h43q16 0 11 -18z" />
    <glyph glyph-name="f_h.alt" horiz-adv-x="842" 
d="M220 564l-133 -632q-21 -98 -118 -98q-29 0 -51 10l6 28h32q61 0 74 62l115 550h-75l9 38h74l10 44q31 139 185 139q40 0 73 -5l-10 -41q-21 6 -62 6q-108 0 -129 -101zM326 484h-93l8 38h94zM505 682l-157 -682h-37q-22 0 -14 29l154 671h43q16 0 11 -18zM712 -4
q-35 0 -52 23.5t-8 62.5l70 304q11 47 -4.5 70.5t-52.5 23.5q-85 0 -195 -80l10 43q108 84 206 84q57 0 83.5 -35.5t11.5 -99.5l-71 -309q-4 -19 6 -33t27 -14h30l-7 -30q-23 -10 -54 -10z" />
    <glyph glyph-name="f_j.alt" 
d="M222 573l-135 -641q-21 -98 -118 -98q-29 0 -51 10l6 28h32q61 0 74 62l115 550h-75l9 38h74l12 53q29 130 151 130q48 0 78 -13l-8 -39h-30q-12 12 -40 12q-38 0 -60 -20.5t-34 -71.5zM233 484l9 38h137l-9 -38h-137zM410 522h6q23 0 34 -15.5t5 -40.5l-121 -523
q-25 -108 -131 -108q-39 0 -75 14l9 39h29q12 -15 37 -15q33 0 49 17t25 56zM461 596q-16 0 -27 11t-11 26q0 17 12 29t28 12q17 0 27.5 -11t10.5 -26q0 -17 -11.5 -29t-28.5 -12z" />
    <glyph glyph-name="f_k.alt" horiz-adv-x="766" 
d="M220 564l-133 -632q-21 -98 -118 -98q-29 0 -51 10l6 28h32q61 0 74 62l115 550h-75l9 38h74l10 44q31 139 185 139q40 0 73 -5l-10 -41q-21 6 -62 6q-108 0 -129 -101zM326 484h-93l8 38h94zM452 700h42q16 0 11 -18l-157 -682h-37q-21 0 -15 29zM765 491
q-49 -72 -138 -147.5t-200 -131.5l12 51q99 53 172.5 123t103.5 136h57zM663 -4q-28 0 -44 15t-29 47l-68 172l46 31l74 -182q16 -43 51 -43h27l-7 -28q-18 -12 -50 -12z" />
    <glyph glyph-name="f_t.alt" horiz-adv-x="569" 
d="M222 573l-135 -641q-21 -98 -118 -98q-29 0 -51 10l6 28h32q61 0 74 62l115 550h-75l9 38h74l12 53q29 130 151 130q48 0 78 -13l-8 -39h-30q-12 12 -40 12q-38 0 -60 -20.5t-34 -71.5zM233 484l9 38h136l-9 -38h-136zM498 666l-123 -535q-22 -96 48 -96q33 0 50 10h29
l-8 -36q-37 -14 -76 -14q-64 0 -89.5 36t-11.5 100l124 535h57zM583 484h-97l9 38h97z" />
    <glyph glyph-name="f_f_i.alt" horiz-adv-x="757" 
d="M220 564l-133 -632q-21 -98 -118 -98q-29 0 -51 10l6 28h32q61 0 74 62l115 550h-75l9 38h74l10 44q29 132 149 132q45 0 75 -13l-8 -39h-30q-12 12 -37 12q-37 0 -59 -21.5t-33 -72.5zM233 484l8 38h136l-8 -38h-136zM476 573l-135 -636q-21 -98 -118 -98q-29 0 -51 10
l6 28h32q61 0 74 62l135 636q28 130 151 130q48 0 78 -13l-8 -39h-30q-12 12 -40 12q-38 0 -60 -20.5t-34 -71.5zM716 596q-16 0 -27 11t-11 26q0 17 12 29t28 12q17 0 27.5 -11t10.5 -26q0 -17 -11.5 -29t-28.5 -12zM563 84l101 438h6q23 0 34 -15.5t5 -40.5l-89 -385
q-4 -18 6.5 -31.5t28.5 -13.5h31l-7 -30q-20 -10 -54 -10q-38 0 -55 23.5t-7 64.5zM488 484l8 38h137l-8 -38h-137z" />
    <glyph glyph-name="f_f_l.alt" horiz-adv-x="757" 
d="M474 564l-133 -627q-21 -98 -118 -98q-29 0 -51 10l6 28h32q61 0 74 62l133 627q31 139 185 139q40 0 73 -5l-10 -41q-21 6 -62 6q-108 0 -129 -101zM580 484h-93l8 38h94zM220 564l-133 -632q-21 -98 -118 -98q-29 0 -51 10l6 28h32q61 0 74 62l115 550h-75l9 38h74
l10 44q29 132 149 132q45 0 75 -13l-8 -39h-30q-12 12 -37 12q-37 0 -59 -21.5t-33 -72.5zM233 484l8 38h136l-8 -38h-136zM563 84l143 616h42q14 0 11 -18l-139 -601q-4 -18 6 -31.5t27 -13.5h36l-7 -30q-27 -10 -55 -10q-39 0 -56.5 23.5t-7.5 64.5z" />
    <glyph glyph-name="f_f_b.alt" horiz-adv-x="1087" 
d="M474 564l-133 -627q-21 -98 -118 -98q-29 0 -51 10l6 28h32q61 0 74 62l133 627q31 139 185 139q40 0 73 -5l-10 -41q-21 6 -62 6q-108 0 -129 -101zM580 484h-93l8 38h94zM762 35q94 0 156 69q81 91 81 248q0 132 -101 132q-82 0 -173 -82l11 48q86 77 177 77
q66 0 105.5 -42.5t39.5 -126.5q0 -85 -28.5 -161.5t-74.5 -123.5q-76 -77 -189 -77q-87 0 -135 37l14 31q44 -29 117 -29zM759 682l-136 -590q-5 -21 -24 -56.5t-31 -35.5h-24l161 700h43q16 0 11 -18zM220 564l-133 -632q-21 -98 -118 -98q-29 0 -51 10l6 28h32q61 0 74 62
l115 550h-75l9 38h74l10 44q29 132 149 132q45 0 75 -13l-8 -39h-30q-12 12 -37 12q-37 0 -59 -21.5t-33 -72.5zM233 484l8 38h136l-8 -38h-136z" />
    <glyph glyph-name="f_f_h.alt" horiz-adv-x="1096" 
d="M474 564l-133 -627q-21 -98 -118 -98q-29 0 -51 10l6 28h32q61 0 74 62l133 627q31 139 185 139q40 0 73 -5l-10 -41q-21 6 -62 6q-108 0 -129 -101zM580 484h-93l8 38h94zM220 564l-133 -632q-21 -98 -118 -98q-29 0 -51 10l6 28h32q61 0 74 62l115 550h-75l9 38h74
l10 44q29 132 149 132q45 0 75 -13l-8 -39h-30q-12 12 -37 12q-37 0 -59 -21.5t-33 -72.5zM233 484l8 38h136l-8 -38h-136zM759 682l-157 -682h-37q-22 0 -14 29l154 671h43q16 0 11 -18zM966 -4q-35 0 -52 23.5t-8 62.5l70 304q11 47 -4.5 70.5t-52.5 23.5q-85 0 -195 -80
l10 43q108 84 206 84q57 0 83.5 -35.5t11.5 -99.5l-71 -309q-4 -19 6 -33t27 -14h30l-7 -30q-23 -10 -54 -10z" />
    <glyph glyph-name="f_f_j.alt" horiz-adv-x="757" 
d="M220 564l-133 -632q-21 -98 -118 -98q-29 0 -51 10l6 28h32q61 0 74 62l115 550h-75l9 38h74l10 44q29 132 149 132q45 0 75 -13l-8 -39h-30q-12 12 -37 12q-37 0 -59 -21.5t-33 -72.5zM233 484l8 38h136l-8 -38h-136zM476 573l-135 -636q-21 -98 -118 -98q-29 0 -51 10
l6 28h32q61 0 74 62l135 636q28 130 151 130q48 0 78 -13l-8 -39h-30q-12 12 -40 12q-38 0 -60 -20.5t-34 -71.5zM625 484h-137l8 38h138zM664 522h6q23 0 34 -15.5t5 -40.5l-121 -523q-25 -108 -131 -108q-39 0 -75 14l9 39h29q12 -15 37 -15q33 0 49 17t25 56zM715 596
q-16 0 -27 11t-11 26q0 17 12 29t28 12q17 0 27.5 -11t10.5 -26q0 -17 -11.5 -29t-28.5 -12z" />
    <glyph glyph-name="f_f_k.alt" horiz-adv-x="1020" 
d="M474 564l-133 -627q-21 -98 -118 -98q-29 0 -51 10l6 28h32q61 0 74 62l133 627q31 139 185 139q40 0 73 -5l-10 -41q-21 6 -62 6q-108 0 -129 -101zM580 484h-93l8 38h94zM220 564l-133 -632q-21 -98 -118 -98q-29 0 -51 10l6 28h32q61 0 74 62l115 550h-75l9 38h74
l10 44q29 132 149 132q45 0 75 -13l-8 -39h-30q-12 12 -37 12q-37 0 -59 -21.5t-33 -72.5zM233 484l8 38h136l-8 -38h-136zM706 700h42q16 0 11 -18l-157 -682h-37q-21 0 -15 29zM1019 491q-49 -72 -138 -147.5t-200 -131.5l12 51q99 53 172.5 123t103.5 136h57zM917 -4
q-28 0 -44 15t-29 47l-68 172l46 31l74 -182q16 -43 51 -43h27l-7 -28q-18 -12 -50 -12z" />
    <glyph glyph-name="f_f_t.alt" horiz-adv-x="823" 
d="M220 564l-133 -632q-21 -98 -118 -98q-29 0 -51 10l6 28h32q61 0 74 62l115 550h-75l9 38h74l10 44q29 132 149 132q45 0 75 -13l-8 -39h-30q-12 12 -37 12q-37 0 -59 -21.5t-33 -72.5zM233 484l8 38h136l-8 -38h-136zM752 666l-123 -535q-22 -96 48 -96q33 0 50 10h29
l-8 -36q-37 -14 -76 -14q-64 0 -89.5 36t-11.5 100l124 535h57zM837 484h-97l9 38h97zM476 573l-135 -636q-21 -98 -118 -98q-29 0 -51 10l6 28h32q61 0 74 62l135 636q29 130 151 130q48 0 78 -13l-8 -39h-30q-12 12 -40 12q-38 0 -60 -20.5t-34 -71.5zM487 484l9 38h136
l-9 -38h-136z" />
    <glyph glyph-name="f_igrave.alt" 
d="M442 573l-60 105l6 26h48l41 -131h-35zM309 84l101 438h6q23 0 33.5 -16t5.5 -40l-89 -385q-1 -3 -1 -9q0 -15 10.5 -25.5t25.5 -10.5h31l-7 -30q-20 -10 -54 -10q-31 0 -48.5 16t-17.5 45q0 7 4 27zM233 484l9 38h137l-9 -38h-137zM226 587l-139 -655q-21 -98 -118 -98
q-29 0 -51 10l6 28h32q61 0 74 62l115 550h-75l9 38h74l15 67q26 116 127 116q39 0 63 -12l-8 -39h-29q-9 11 -26 11q-30 0 -45 -17.5t-24 -60.5z" />
    <glyph glyph-name="f_iacute.alt" 
d="M222 573l-135 -641q-21 -98 -118 -98q-29 0 -51 10l6 28h32q61 0 74 62l115 550h-75l9 38h74l12 53q29 130 151 130q48 0 78 -13l-8 -39h-30q-12 12 -40 12q-38 0 -60 -20.5t-34 -71.5zM309 84l101 438h6q23 0 34 -15.5t5 -40.5l-89 -385q-4 -18 6.5 -31.5t28.5 -13.5h31
l-7 -30q-20 -10 -54 -10q-38 0 -55 23.5t-7 64.5zM233 484l9 38h137l-9 -38h-137zM417 573l85 127h62l-6 -25l-102 -102h-39z" />
    <glyph glyph-name="f_icircumflex.alt" 
d="M343 573l5 20l90 107h53l50 -107l-5 -20h-25l-51 88l-87 -88h-30zM226 587l-139 -655q-21 -98 -118 -98q-29 0 -51 10l6 28h32q61 0 74 62l115 550h-75l9 38h74l15 67q26 116 135 116q41 0 67 -13l-8 -39h-30q-10 12 -32 12q-29 0 -46.5 -18t-27.5 -60zM309 84l101 438h6
q23 0 34 -15.5t5 -40.5l-89 -385q-4 -18 6.5 -31.5t28.5 -13.5h31l-7 -30q-20 -10 -54 -10q-38 0 -55 23.5t-7 64.5zM233 484l9 38h137l-9 -38h-137z" />
    <glyph glyph-name="f_idieresis.alt" 
d="M408 597q-16 0 -26 10t-10 26q0 17 11.5 28.5t27.5 11.5q15 0 25.5 -10.5t10.5 -25.5q0 -16 -11.5 -28t-27.5 -12zM521 597q-16 0 -26 10t-10 26t12 28t27 12t25.5 -10.5t10.5 -25.5q0 -16 -11.5 -28t-27.5 -12zM309 84l101 438h6q19 0 30 -11t11 -30q0 -5 -2 -15
l-89 -385q-1 -3 -1 -9q0 -15 10.5 -25.5t25.5 -10.5h31l-7 -30q-20 -10 -54 -10q-31 0 -48.5 16t-17.5 45q0 7 4 27zM233 484l9 38h137l-9 -38h-137zM226 587l-139 -655q-21 -98 -118 -98q-29 0 -51 10l6 28h32q61 0 74 62l115 550h-75l9 38h74l15 67q26 116 125 116
q36 0 60 -12l-8 -39h-29q-8 11 -27 11q-25 0 -39.5 -18t-23.5 -60z" />
    <glyph glyph-name="f_iogonek.alt" 
d="M222 573l-135 -641q-21 -98 -118 -98q-29 0 -51 10l6 28h32q61 0 74 62l115 550h-75l9 38h74l12 53q29 130 151 130q48 0 78 -13l-8 -39h-30q-12 12 -40 12q-38 0 -60 -20.5t-34 -71.5zM309 84l101 438h6q23 0 34 -15.5t5 -40.5l-89 -385q-4 -18 6.5 -31.5t28.5 -13.5h31
l-7 -30q-20 -10 -54 -10q-38 0 -55 23.5t-7 64.5zM322 -23l41 -6q-38 -33 -38 -69q0 -31 34 -31q15 0 25 7h23l-7 -33q-23 -9 -50 -9q-36 0 -56 16.5t-20 45.5q0 45 48 79zM233 484l9 38h137l-9 -38h-137zM462 596q-16 0 -27 11t-11 26q0 17 12 29t28 12q17 0 27.5 -11
t10.5 -26q0 -17 -11.5 -29t-28.5 -12z" />
    <glyph glyph-name="f_imacron.alt" 
d="M377 609l10 40h158l-10 -40h-158zM309 84l101 438h6q23 0 34 -15.5t5 -40.5l-89 -385q-4 -18 6.5 -31.5t28.5 -13.5h31l-7 -30q-20 -10 -54 -10q-38 0 -55 23.5t-7 64.5zM233 484l9 38h137l-9 -38h-137zM226 587l-139 -655q-21 -98 -118 -98q-29 0 -51 10l6 28h32
q61 0 74 62l115 550h-75l9 38h74l15 67q26 116 135 116q41 0 67 -13l-8 -39h-30q-10 12 -32 12q-29 0 -46.5 -18t-27.5 -60z" />
    <glyph glyph-name="f_f_igrave.alt" horiz-adv-x="757" 
d="M220 564l-133 -632q-21 -98 -118 -98q-29 0 -51 10l6 28h32q61 0 74 62l115 550h-75l9 38h74l10 44q29 132 149 132q45 0 75 -13l-8 -39h-30q-12 12 -37 12q-37 0 -59 -21.5t-33 -72.5zM233 484l8 38h136l-8 -38h-136zM696 573l-60 105l6 26h48l41 -131h-35zM563 84
l101 438h6q23 0 33.5 -16t5.5 -40l-88 -385q-4 -18 6.5 -31.5t27.5 -13.5h31l-7 -30q-20 -10 -54 -10q-39 0 -55 24t-7 64zM487 484l9 38h137l-9 -38h-137zM480 587l-139 -650q-21 -98 -118 -98q-29 0 -51 10l6 28h32q61 0 74 62l138 650q26 116 127 116q39 0 63 -12l-8 -39
h-29q-9 11 -26 11q-30 0 -45 -17.5t-24 -60.5z" />
    <glyph glyph-name="f_f_iacute.alt" horiz-adv-x="757" 
d="M220 564l-133 -632q-21 -98 -118 -98q-29 0 -51 10l6 28h32q61 0 74 62l115 550h-75l9 38h74l10 44q29 132 149 132q45 0 75 -13l-8 -39h-30q-12 12 -37 12q-37 0 -59 -21.5t-33 -72.5zM233 484l8 38h136l-8 -38h-136zM476 573l-135 -636q-21 -98 -118 -98q-29 0 -51 10
l6 28h32q61 0 74 62l135 636q29 130 151 130q48 0 78 -13l-8 -39h-30q-12 12 -40 12q-38 0 -60 -20.5t-34 -71.5zM563 84l101 438h6q23 0 34 -15.5t5 -40.5l-88 -385q-4 -18 6.5 -31.5t27.5 -13.5h31l-7 -30q-20 -10 -54 -10q-38 0 -55 23.5t-7 64.5zM487 484l9 38h137
l-9 -38h-137zM671 573l85 127h62l-6 -25l-102 -102h-39z" />
    <glyph glyph-name="f_f_icircumflex.alt" horiz-adv-x="757" 
d="M220 564l-133 -632q-21 -98 -118 -98q-29 0 -51 10l6 28h32q61 0 74 62l115 550h-75l9 38h74l10 44q29 132 149 132q45 0 75 -13l-8 -39h-30q-12 12 -37 12q-37 0 -59 -21.5t-33 -72.5zM233 484l8 38h136l-8 -38h-136zM597 573l5 20l90 107h53l50 -107l-5 -20h-25l-51 88
l-87 -88h-30zM480 587l-139 -650q-21 -98 -118 -98q-29 0 -51 10l6 28h32q61 0 74 62l138 650q26 116 135 116q41 0 67 -13l-8 -39h-30q-10 12 -32 12q-29 0 -46.5 -18t-27.5 -60zM563 84l101 438h6q23 0 34 -15.5t5 -40.5l-88 -385q-4 -18 6.5 -31.5t27.5 -13.5h31l-7 -30
q-20 -10 -54 -10q-38 0 -55 23.5t-7 64.5zM487 484l9 38h137l-9 -38h-137z" />
    <glyph glyph-name="f_f_idieresis.alt" horiz-adv-x="757" 
d="M220 564l-133 -632q-21 -98 -118 -98q-29 0 -51 10l6 28h32q61 0 74 62l115 550h-75l9 38h74l10 44q29 132 149 132q45 0 75 -13l-8 -39h-30q-12 12 -37 12q-37 0 -59 -21.5t-33 -72.5zM233 484l8 38h136l-8 -38h-136zM284 -61l138 650q26 116 127 116q39 0 63 -12
l-8 -39h-29q-9 11 -26 11q-30 0 -45 -17.5t-24 -60.5l-139 -650q-21 -98 -118 -98q-29 0 -51 10l6 28h32q61 0 74 62zM662 597q-16 0 -26 10t-10 26q0 17 11.5 28.5t27.5 11.5q15 0 25.5 -10.5t10.5 -25.5q0 -16 -11.5 -28t-27.5 -12zM775 597q-16 0 -26 10t-10 26t12 28
t27 12t25.5 -10.5t10.5 -25.5q0 -16 -11.5 -28t-27.5 -12zM487 484l9 38h137l-9 -38h-137zM563 84l101 438h6q23 0 34 -15.5t5 -40.5l-88 -385q-4 -18 6.5 -31.5t27.5 -13.5h31l-7 -30q-20 -10 -54 -10q-38 0 -55 23.5t-7 64.5z" />
    <glyph glyph-name="f_f_iogonek.alt" horiz-adv-x="757" 
d="M220 564l-133 -632q-21 -98 -118 -98q-29 0 -51 10l6 28h32q61 0 74 62l115 550h-75l9 38h74l10 44q29 132 149 132q45 0 75 -13l-8 -39h-30q-12 12 -37 12q-37 0 -59 -21.5t-33 -72.5zM476 573l-135 -641q-21 -98 -118 -98q-29 0 -51 10l6 28h32q61 0 74 62l135 641
q29 130 151 130q48 0 78 -13l-8 -39h-30q-12 12 -40 12q-38 0 -60 -20.5t-34 -71.5zM563 84l101 438h6q23 0 34 -15.5t5 -40.5l-89 -385q-4 -18 6.5 -31.5t28.5 -13.5h31l-7 -30q-20 -10 -54 -10q-38 0 -55 23.5t-7 64.5zM576 -23l41 -6q-38 -33 -38 -69q0 -31 34 -31
q15 0 25 7h23l-7 -33q-23 -9 -50 -9q-36 0 -56 16.5t-20 45.5q0 45 48 79zM487 484l9 38h137l-9 -38h-137zM233 484l8 38h136l-8 -38h-136zM716 596q-16 0 -27 11t-11 26q0 17 12 29t28 12q17 0 27.5 -11t10.5 -26q0 -17 -11.5 -29t-28.5 -12z" />
    <glyph glyph-name="f_f_imacron.alt" horiz-adv-x="757" 
d="M220 564l-133 -632q-21 -98 -118 -98q-29 0 -51 10l6 28h32q61 0 74 62l115 550h-75l9 38h74l10 44q29 132 149 132q45 0 75 -13l-8 -39h-30q-12 12 -37 12q-37 0 -59 -21.5t-33 -72.5zM233 484l8 38h136l-8 -38h-136zM631 609l10 40h158l-10 -40h-158zM563 84l101 438h6
q23 0 34 -15.5t5 -40.5l-89 -385q-4 -18 6.5 -31.5t28.5 -13.5h31l-7 -30q-20 -10 -54 -10q-38 0 -55 23.5t-7 64.5zM487 484l9 38h137l-9 -38h-137zM480 587l-139 -650q-21 -98 -118 -98q-29 0 -51 10l6 28h32q61 0 74 62l138 650q26 116 135 116q41 0 67 -13l-8 -39h-30
q-10 12 -32 12q-29 0 -46.5 -18t-27.5 -60z" />
    <glyph glyph-name="zero.num" horiz-adv-x="382" 
d="M146 635q50 61 118 67l-8 -35q-44 -12 -73 -58q-43 -69 -43 -152q0 -45 19.5 -71t55.5 -28l-8 -34q-55 4 -87.5 42.5t-32.5 98.5q0 99 59 170zM356 392q-48 -61 -119 -67l9 35q48 11 75 57q36 60 36 152q0 43 -18 69.5t-53 30.5l8 34q56 -6 86 -44t30 -98
q0 -101 -54 -169z" />
    <glyph glyph-name="one.num" horiz-adv-x="244" 
d="M38 327l7 31h56q7 0 14.5 6t9.5 13l65 278l-72 -32h-18l7 33l108 44h36l-74 -323q-4 -19 13 -19h55l-7 -31h-200z" />
    <glyph glyph-name="two.num" horiz-adv-x="303" 
d="M212 475q-77 -42 -102 -80h-47q30 54 114 103q8 5 29.5 17t29 16.5t22.5 15.5t20.5 19t10.5 20.5t5 26.5q0 49 -49 55l8 34q45 -3 69.5 -25t24.5 -59q0 -21 -7.5 -39t-16 -29.5t-29 -26t-31.5 -21t-38 -20.5q-9 -5 -13 -7zM41 327l6 26l3 12h202l18 56h33l-22 -94h-240z
M133 683q41 16 89 20l-8 -35q-22 -1 -38 -11q-18 -11 -30 -48h-30z" />
    <glyph glyph-name="three.num" horiz-adv-x="302" 
d="M309 440q0 -47 -36 -79.5t-102 -36.5l8 34q38 5 58 27.5t20 56.5q0 29 -19.5 45t-51.5 16h-29l7 32h30q42 0 66 20t24 56q0 49 -47 58l8 33q43 -4 66.5 -26t23.5 -57q0 -39 -24 -65t-66 -34v-2q29 -7 46.5 -27.5t17.5 -50.5zM102 369q11 -9 46 -12l-8 -33q-59 6 -92 23
l15 64h30q-2 -34 9 -42zM130 685q37 15 85 18l-8 -33q-23 -2 -35 -9q-16 -9 -27 -43h-31z" />
    <glyph glyph-name="four.num" horiz-adv-x="332" 
d="M167 327l8 31h33q7 0 14 6t9 13l77 323h48l-55 -242h56l-8 -32h-56l-11 -49q-2 -7 1.5 -13t9.5 -6h39l-7 -31h-158zM105 458h114l-8 -32h-153l9 38l202 201l-13 -54l-151 -151v-2z" />
    <glyph glyph-name="five.num" horiz-adv-x="303" 
d="M315 467q0 -61 -41.5 -100t-111.5 -43l8 34q43 5 68 32.5t25 72.5q0 65 -63 65q-26 0 -42 -8l8 31q22 9 52 9q44 0 70.5 -23.5t26.5 -69.5zM303 662h-176l9 38h216l-19 -81h-32zM122 494h-35l33 138h36zM101 369q14 -11 38 -12l-8 -33q-49 3 -86 22l15 65h31
q-3 -32 10 -42z" />
    <glyph glyph-name="six.num" horiz-adv-x="338" 
d="M137 454q0 -90 67 -98l-8 -31q-51 4 -80 40t-29 93q0 98 56.5 167.5t145.5 76.5l-8 -34q-67 -9 -105.5 -69.5t-38.5 -144.5zM171 506l6 33q37 18 75 18q48 0 75.5 -24t27.5 -69q0 -57 -35.5 -95.5t-92.5 -43.5l8 33q69 16 69 103q0 62 -67 62q-34 0 -66 -17zM356 649
q-12 18 -44 20l8 34q43 -2 70 -16l-9 -38h-25z" />
    <glyph glyph-name="seven.num" horiz-adv-x="296" 
d="M101 352l257 348h17l-10 -43l-220 -330h-50zM97 596l24 104h200l-29 -39h-140l-22 -65h-33z" />
    <glyph glyph-name="eight.num" horiz-adv-x="341" 
d="M131 596q0 44 33 73.5t85 33.5l-8 -35q-30 -5 -46 -25t-16 -50q0 -38 41 -49l-8 -34q-39 -2 -65 -26.5t-26 -61.5q0 -26 17.5 -43t49.5 -20l-9 -34q-52 5 -79.5 29.5t-27.5 62.5q0 43 29 72.5t77 38.5v2q-47 18 -47 66zM345 444q0 -51 -37 -84t-98 -36l8 35
q37 4 57.5 27.5t20.5 58.5q0 52 -54 63l8 34q71 7 71 71q0 21 -13 36t-36 19l8 34q42 -5 65.5 -28.5t23.5 -56.5q0 -35 -22.5 -59.5t-61.5 -33.5v-2q60 -18 60 -78z" />
    <glyph glyph-name="nine.num" horiz-adv-x="338" 
d="M319 569q0 94 -67 102l7 31q51 -4 80.5 -40t29.5 -92q0 -105 -54.5 -173t-148.5 -72l8 34q71 6 108 64t37 146zM286 522l-6 -33q-37 -19 -76 -19q-48 0 -75.5 24.5t-27.5 69.5q0 56 37.5 94.5t89.5 43.5l-8 -33q-29 -6 -48.5 -32.5t-19.5 -69.5q0 -63 67 -63q36 0 67 18z
M74 378h25q12 -18 44 -20l-8 -34q-43 2 -70 16z" />
    <glyph glyph-name="zero.den" horiz-adv-x="382" 
d="M71 308q50 61 118 67l-8 -35q-44 -12 -73 -58q-43 -69 -43 -152q0 -44 19.5 -70.5t55.5 -28.5l-8 -34q-55 4 -87.5 42.5t-32.5 98.5q0 99 59 170zM281 65q-48 -61 -119 -67l9 35q48 11 75 57q36 60 36 152q0 43 -18 69.5t-53 30.5l8 34q56 -6 86 -44t30 -98
q0 -102 -54 -169z" />
    <glyph glyph-name="one.den" horiz-adv-x="244" 
d="M-37 0l7 31h56q7 0 14.5 6t9.5 13l65 278l-72 -32h-18l7 33l108 44h36l-74 -323q-4 -19 13 -19h55l-7 -31h-200z" />
    <glyph glyph-name="two.den" horiz-adv-x="303" 
d="M137 148q-77 -42 -102 -80h-47q30 54 114 103q8 5 29.5 17t29 16.5t22.5 15.5t20.5 19t10.5 20.5t5 26.5q0 49 -49 55l8 34q45 -3 69.5 -25t24.5 -59q0 -21 -7.5 -39t-16 -29.5t-29 -26t-31.5 -21t-38 -20.5q-9 -5 -13 -7zM-34 0l6 26l3 12h202l18 56h33l-22 -94h-240z
M58 356q41 16 89 20l-8 -35q-22 -1 -38 -11q-18 -11 -30 -48h-30z" />
    <glyph glyph-name="three.den" horiz-adv-x="302" 
d="M234 113q0 -47 -36 -79.5t-102 -36.5l8 34q38 5 58 27.5t20 56.5q0 29 -19.5 45t-51.5 16h-29l7 32h30q42 0 66 20t24 56q0 49 -47 58l8 33q43 -4 66.5 -26t23.5 -57q0 -39 -24 -65t-66 -34v-2q29 -7 46.5 -27.5t17.5 -50.5zM27 42q11 -9 46 -12l-8 -33q-59 6 -92 23
l15 64h30q-2 -34 9 -42zM55 358q37 15 85 18l-8 -33q-23 -2 -35 -9q-16 -10 -27 -43h-31z" />
    <glyph glyph-name="four.den" horiz-adv-x="332" 
d="M92 0l8 31h33q7 0 14 6t9 13l77 323h48l-55 -242h56l-8 -32h-56l-11 -49q-2 -7 1.5 -13t9.5 -6h39l-7 -31h-158zM30 131h114l-8 -32h-153l9 38l202 201l-13 -54l-151 -151v-2z" />
    <glyph glyph-name="five.den" horiz-adv-x="303" 
d="M240 140q0 -61 -41.5 -100t-111.5 -43l8 34q43 5 68 32.5t25 72.5q0 65 -63 65q-26 0 -42 -8l8 31q22 9 52 9q44 0 70.5 -23.5t26.5 -69.5zM228 335h-176l9 38h216l-19 -81h-32zM47 167h-35l33 138h36zM26 42q14 -11 38 -12l-8 -33q-49 3 -86 22l15 65h31q-3 -32 10 -42z
" />
    <glyph glyph-name="six.den" horiz-adv-x="338" 
d="M62 127q0 -90 67 -98l-8 -31q-51 4 -80 40t-29 93q0 98 56.5 167.5t145.5 76.5l-8 -34q-67 -9 -105.5 -69.5t-38.5 -144.5zM96 179l6 33q37 18 75 18q48 0 75.5 -24t27.5 -69q0 -57 -35.5 -95.5t-92.5 -43.5l8 33q69 16 69 103q0 62 -67 62q-34 0 -66 -17zM281 322
q-12 18 -44 20l8 34q43 -2 70 -16l-9 -38h-25z" />
    <glyph glyph-name="seven.den" horiz-adv-x="296" 
d="M26 25l257 348h17l-10 -43l-220 -330h-50zM22 269l24 104h200l-29 -39h-140l-22 -65h-33z" />
    <glyph glyph-name="eight.den" horiz-adv-x="341" 
d="M56 269q0 44 33 73.5t85 33.5l-8 -35q-30 -5 -46 -25t-16 -50q0 -38 41 -49l-8 -34q-39 -2 -65 -26.5t-26 -61.5q0 -26 17.5 -43t49.5 -20l-9 -34q-52 5 -79.5 29.5t-27.5 62.5q0 43 29 72.5t77 38.5v2q-47 18 -47 66zM270 117q0 -51 -37 -84t-98 -36l8 35
q37 4 57.5 27.5t20.5 58.5q0 52 -54 63l8 34q71 7 71 71q0 21 -13 36t-36 19l8 34q42 -5 65.5 -28.5t23.5 -56.5q0 -35 -22.5 -59.5t-61.5 -33.5v-2q60 -18 60 -78z" />
    <glyph glyph-name="nine.den" horiz-adv-x="338" 
d="M244 242q0 94 -67 102l7 31q51 -4 80.5 -40t29.5 -92q0 -105 -54.5 -173t-148.5 -72l8 34q71 6 108 64t37 146zM211 195l-6 -33q-37 -19 -76 -19q-48 0 -75.5 24.5t-27.5 69.5q0 56 37.5 94.5t89.5 43.5l-8 -33q-29 -6 -48.5 -32.5t-19.5 -69.5q0 -63 67 -63q36 0 67 18z
M-1 51h25q12 -18 44 -20l-8 -34q-43 2 -70 16z" />
    <glyph glyph-name="idotaccent" horiz-adv-x="247" 
d="M117 -4q-38 0 -55 23.5t-7 64.5l82 355q5 19 -4.5 32t-27.5 13h-40l8 31q39 11 62 11q79 0 60 -87l-82 -358q-4 -18 6.5 -31.5t27.5 -13.5h31l-7 -30q-20 -10 -54 -10zM205 596q-16 0 -26.5 11t-10.5 26q0 17 12 29t28 12q17 0 27.5 -11t10.5 -26q0 -17 -12.5 -29
t-28.5 -12z" />
    <glyph glyph-name="Racute.alt" horiz-adv-x="647" 
d="M357 741l85 127h62l-6 -25l-102 -102h-39zM525 -4q-38 0 -57 21.5t-22 68.5l-7 103q-5 77 -37 105.5t-102 28.5h-87l9 39h90q103 0 158 47t55 134q0 119 -152 119h-82l9 38h79q95 0 152 -38.5t57 -114.5q0 -93 -56.5 -143.5t-141.5 -63.5v-2q48 -11 74 -43t34 -106
l13 -110q2 -19 15 -31t30 -12h22l-7 -30q-20 -10 -46 -10zM119 663l9 37h141l-153 -664h92l-8 -36h-234l8 36h46q13 0 26.5 10.5t16.5 22.5l128 560q3 13 -3.5 23.5t-18.5 10.5h-50z" />
    <glyph glyph-name="Rcommaaccent.alt" horiz-adv-x="647" 
d="M224 -196l7 29q22 3 37.5 15t15.5 30q0 7 -11 16q-13 10 -13 26t11.5 26.5t26.5 10.5q17 0 28 -11.5t11 -34.5q0 -46 -31.5 -73.5t-81.5 -33.5zM525 -4q-38 0 -57 21.5t-22 68.5l-7 103q-5 77 -37 105.5t-102 28.5h-87l9 39h90q103 0 158 47t55 134q0 119 -152 119h-82
l9 38h79q95 0 152 -38.5t57 -114.5q0 -93 -56.5 -143.5t-141.5 -63.5v-2q48 -11 74 -43t34 -106l13 -110q2 -19 15 -31t30 -12h22l-7 -30q-20 -10 -46 -10zM119 663l9 37h141l-153 -664h92l-8 -36h-234l8 36h46q13 0 26.5 10.5t16.5 22.5l128 560q3 13 -3.5 23.5t-18.5 10.5
h-50z" />
    <glyph glyph-name="Rcaron.alt" horiz-adv-x="647" 
d="M513 868l-5 -20l-101 -107h-57l-65 107l5 20h25l67 -88l101 88h30zM525 -4q-38 0 -57 21.5t-22 68.5l-7 103q-5 77 -37 105.5t-102 28.5h-87l9 39h90q103 0 158 47t55 134q0 119 -152 119h-82l9 38h79q95 0 152 -38.5t57 -114.5q0 -93 -56.5 -143.5t-141.5 -63.5v-2
q48 -11 74 -43t34 -106l13 -110q2 -19 15 -31t30 -12h22l-7 -30q-20 -10 -46 -10zM119 663l9 37h141l-153 -664h92l-8 -36h-234l8 36h46q13 0 26.5 10.5t16.5 22.5l128 560q3 13 -3.5 23.5t-18.5 10.5h-50z" />
    <glyph glyph-name="aacute.alt" horiz-adv-x="571" 
d="M325 573l85 127h62l-6 -25l-102 -102h-39zM193 35q81 0 165 82l-12 -54q-74 -67 -162 -67q-71 0 -112.5 42t-41.5 121q0 80 32 153t80 124q39 41 93.5 66t109.5 25q65 0 110 -31l-17 -32q-35 21 -86 21q-95 0 -166 -73q-97 -101 -97 -252q0 -63 29 -94t75 -31zM444 -4
q-35 0 -53.5 24t-8.5 69l82 358q35 75 59 75h16l-101 -441q-4 -18 6 -31.5t27 -13.5h31l-7 -30q-23 -10 -51 -10z" />
    <glyph glyph-name="agrave.alt" horiz-adv-x="571" 
d="M193 35q81 0 165 82l-12 -54q-74 -67 -162 -67q-71 0 -112.5 42t-41.5 121q0 80 32 153t80 124q39 41 93.5 66t109.5 25q65 0 110 -31l-17 -32q-35 21 -86 21q-95 0 -166 -73q-97 -101 -97 -252q0 -63 29 -94t75 -31zM444 -4q-35 0 -53.5 24t-8.5 69l82 358q35 75 59 75
h16l-101 -441q-4 -18 6 -31.5t27 -13.5h31l-7 -30q-23 -10 -51 -10zM341 573l-84 102l6 25h52l62 -127h-36z" />
    <glyph glyph-name="acircumflex.alt" horiz-adv-x="571" 
d="M240 573l5 20l101 107h57l65 -107l-5 -20h-25l-67 88l-101 -88h-30zM193 35q81 0 165 82l-12 -54q-74 -67 -162 -67q-71 0 -112.5 42t-41.5 121q0 80 32 153t80 124q39 41 93.5 66t109.5 25q65 0 110 -31l-17 -32q-35 21 -86 21q-95 0 -166 -73q-97 -101 -97 -252
q0 -63 29 -94t75 -31zM444 -4q-35 0 -53.5 24t-8.5 69l82 358q35 75 59 75h16l-101 -441q-4 -18 6 -31.5t27 -13.5h31l-7 -30q-23 -10 -51 -10z" />
    <glyph glyph-name="adieresis.alt" horiz-adv-x="571" 
d="M288 597q-16 0 -26 10t-10 26q0 17 11.5 28.5t27.5 11.5q15 0 25.5 -10.5t10.5 -25.5q0 -16 -11.5 -28t-27.5 -12zM434 597q-16 0 -26 10t-10 26t12 28t27 12t25.5 -10.5t10.5 -25.5q0 -16 -11.5 -28t-27.5 -12zM193 35q81 0 165 82l-12 -54q-74 -67 -162 -67
q-71 0 -112.5 42t-41.5 121q0 80 32 153t80 124q39 41 93.5 66t109.5 25q65 0 110 -31l-17 -32q-35 21 -86 21q-95 0 -166 -73q-97 -101 -97 -252q0 -63 29 -94t75 -31zM444 -4q-35 0 -53.5 24t-8.5 69l82 358q35 75 59 75h16l-101 -441q-4 -18 6 -31.5t27 -13.5h31l-7 -30
q-23 -10 -51 -10z" />
    <glyph glyph-name="atilde.alt" horiz-adv-x="571" 
d="M193 35q81 0 165 82l-12 -54q-74 -67 -162 -67q-71 0 -112.5 42t-41.5 121q0 80 32 153t80 124q39 41 93.5 66t109.5 25q65 0 110 -31l-17 -32q-35 21 -86 21q-95 0 -166 -73q-97 -101 -97 -252q0 -63 29 -94t75 -31zM444 -4q-35 0 -53.5 24t-8.5 69l82 358q35 75 59 75
h16l-101 -441q-4 -18 6 -31.5t27 -13.5h31l-7 -30q-23 -10 -51 -10zM217 586l7 29q29 58 79 58q24 0 67 -19.5t60 -19.5q35 0 48 42h36l-7 -29q-30 -57 -80 -57q-24 0 -67 19.5t-59 19.5q-35 0 -47 -43h-37z" />
    <glyph glyph-name="aring.alt" horiz-adv-x="571" 
d="M358 574h-4l8 32q23 2 38 18t15 43q0 36 -30 49l8 32q26 -8 42 -29.5t16 -50.5q0 -42 -28 -68t-65 -26zM267 658q0 42 28.5 68.5t67.5 26.5h1l-8 -32q-24 -2 -38.5 -18.5t-14.5 -43.5q0 -36 30 -48l-8 -32q-25 7 -41.5 28.5t-16.5 50.5zM193 35q81 0 165 82l-12 -54
q-74 -67 -162 -67q-71 0 -112.5 42t-41.5 121q0 80 32 153t80 124q39 41 93.5 66t109.5 25q65 0 110 -31l-17 -32q-35 21 -86 21q-95 0 -166 -73q-97 -101 -97 -252q0 -63 29 -94t75 -31zM444 -4q-35 0 -53.5 24t-8.5 69l82 358q35 75 59 75h16l-101 -441q-4 -18 6 -31.5
t27 -13.5h31l-7 -30q-23 -10 -51 -10z" />
    <glyph glyph-name="aogonek.alt" horiz-adv-x="571" 
d="M394 -21l36 -9q-35 -32 -35 -68q0 -31 34 -31q15 0 25 7h23l-7 -33q-23 -9 -50 -9q-36 0 -56 16.5t-20 45.5q0 45 50 81zM193 35q81 0 165 82l-12 -54q-74 -67 -162 -67q-71 0 -112.5 42t-41.5 121q0 80 32 153t80 124q39 41 93.5 66t109.5 25q65 0 110 -31l-17 -32
q-35 21 -86 21q-95 0 -166 -73q-97 -101 -97 -252q0 -63 29 -94t75 -31zM444 -4q-35 0 -53.5 24t-8.5 69l82 358q35 75 59 75h16l-101 -441q-4 -18 6 -31.5t27 -13.5h31l-7 -30q-23 -10 -51 -10z" />
    <glyph glyph-name="amacron.alt" horiz-adv-x="571" 
d="M193 35q81 0 165 82l-12 -54q-74 -67 -162 -67q-71 0 -112.5 42t-41.5 121q0 80 32 153t80 124q39 41 93.5 66t109.5 25q65 0 110 -31l-17 -32q-35 21 -86 21q-95 0 -166 -73q-97 -101 -97 -252q0 -63 29 -94t75 -31zM444 -4q-35 0 -53.5 24t-8.5 69l82 358q35 75 59 75
h16l-101 -441q-4 -18 6 -31.5t27 -13.5h31l-7 -30q-23 -10 -51 -10zM250 609l10 40h234l-10 -40h-234z" />
    <glyph glyph-name="abreve.alt" horiz-adv-x="571" 
d="M193 35q81 0 165 82l-12 -54q-74 -67 -162 -67q-71 0 -112.5 42t-41.5 121q0 80 32 153t80 124q39 41 93.5 66t109.5 25q65 0 110 -31l-17 -32q-35 21 -86 21q-95 0 -166 -73q-97 -101 -97 -252q0 -63 29 -94t75 -31zM444 -4q-35 0 -53.5 24t-8.5 69l82 358q35 75 59 75
h16l-101 -441q-4 -18 6 -31.5t27 -13.5h31l-7 -30q-23 -10 -51 -10zM347 575q-48 0 -76.5 25t-34.5 65l5 22h38q2 -70 70 -70q69 0 86 70h42l-6 -25q-13 -39 -45 -63t-79 -24z" />
    <glyph glyph-name="gcircumflex.alt" horiz-adv-x="570" 
d="M246 573l5 20l101 107h57l65 -107l-5 -20h-25l-67 88l-101 -88h-30zM195 58q85 0 176 87l-12 -51q-80 -75 -173 -75q-72 0 -112.5 41t-40.5 127q0 73 27.5 141.5t71.5 114.5q37 40 90 62t105 22q80 0 132 -37l-14 -31q-45 27 -109 27q-94 0 -161 -69q-38 -39 -60 -101.5
t-22 -129.5q0 -128 102 -128zM428 8q-20 -90 -79 -132t-166 -45l9 39q76 3 119 37t59 101l100 434q31 80 58 80h18zM50 -90q28 -37 111 -41l-9 -38q-81 2 -148 33l11 46h35z" />
    <glyph glyph-name="gbreve.alt" horiz-adv-x="570" 
d="M195 58q85 0 176 87l-12 -51q-80 -75 -173 -75q-72 0 -112.5 41t-40.5 127q0 73 27.5 141.5t71.5 114.5q37 40 90 62t105 22q80 0 132 -37l-14 -31q-45 27 -109 27q-94 0 -161 -69q-38 -39 -60 -101.5t-22 -129.5q0 -128 102 -128zM428 8q-20 -90 -79 -132t-166 -45l9 39
q76 3 119 37t59 101l100 434q31 80 58 80h18zM50 -90q28 -37 111 -41l-9 -38q-81 2 -148 33l11 46h35zM355 575q-48 0 -76.5 25t-34.5 65l5 22h38q2 -70 70 -70q69 0 86 70h42l-6 -25q-13 -39 -45 -63t-79 -24z" />
    <glyph glyph-name="gdotaccent.alt" horiz-adv-x="570" 
d="M195 58q85 0 176 87l-12 -51q-80 -75 -173 -75q-72 0 -112.5 41t-40.5 127q0 73 27.5 141.5t71.5 114.5q37 40 90 62t105 22q80 0 132 -37l-14 -31q-45 27 -109 27q-94 0 -161 -69q-38 -39 -60 -101.5t-22 -129.5q0 -128 102 -128zM428 8q-20 -90 -79 -132t-166 -45l9 39
q76 3 119 37t59 101l100 434q31 80 58 80h18zM50 -90q28 -37 111 -41l-9 -38q-81 2 -148 33l11 46h35zM357 596q-16 0 -27 11t-11 26q0 17 12 29t28 12q17 0 27.5 -11t10.5 -26q0 -17 -11.5 -29t-28.5 -12z" />
    <glyph glyph-name="gcommaaccent.alt" horiz-adv-x="570" 
d="M418 744l-7 -29q-22 -3 -37.5 -15t-15.5 -30q0 -7 11 -16q13 -10 13 -26t-11.5 -26.5t-26.5 -10.5q-17 0 -28 11.5t-11 34.5q0 46 31.5 73.5t81.5 33.5zM195 58q85 0 176 87l-12 -51q-80 -75 -173 -75q-72 0 -112.5 41t-40.5 127q0 73 27.5 141.5t71.5 114.5q37 40 90 62
t105 22q80 0 132 -37l-14 -31q-45 27 -109 27q-94 0 -161 -69q-38 -39 -60 -101.5t-22 -129.5q0 -128 102 -128zM428 8q-20 -90 -79 -132t-166 -45l9 39q76 3 119 37t59 101l100 434q31 80 58 80h18zM50 -90q28 -37 111 -41l-9 -38q-81 2 -148 33l11 46h35z" />
    <glyph glyph-name="yacute.alt" horiz-adv-x="534" 
d="M305 573l85 127h62l-6 -25l-102 -102h-39zM226 55q197 246 255 467h55l-9 -37q-41 -111 -101 -215t-162 -235q-109 -139 -243 -197h-53l9 38q127 27 249 179zM124 526q30 0 42.5 -16.5t17.5 -51.5l51 -346l-46 -58l-60 389q-7 41 -41 41h-29l7 31q29 11 58 11z" />
    <glyph glyph-name="ydieresis.alt" horiz-adv-x="534" 
d="M268 597q-16 0 -26 10t-10 26q0 17 11.5 28.5t27.5 11.5q15 0 25.5 -10.5t10.5 -25.5q0 -16 -11.5 -28t-27.5 -12zM414 597q-16 0 -26 10t-10 26t12 28t27 12t25.5 -10.5t10.5 -25.5q0 -16 -11.5 -28t-27.5 -12zM226 55q197 246 255 467h55l-9 -37q-41 -111 -101 -215
t-162 -235q-109 -139 -243 -197h-53l9 38q127 27 249 179zM124 526q30 0 42.5 -16.5t17.5 -51.5l51 -346l-46 -58l-60 389q-7 41 -41 41h-29l7 31q29 11 58 11z" />
    <glyph glyph-name="zcaron.alt" horiz-adv-x="470" 
d="M443 700l-5 -20l-101 -107h-57l-65 107l5 20h25l67 -88l101 88h30zM495 487l-498 -487h-32l7 34l502 488h28zM303 -4q-36 0 -112.5 16.5t-113.5 16.5h-9l39 39q36 -3 99.5 -12.5t91.5 -9.5q24 0 36 12t21 43h38l-22 -95q-26 -10 -68 -10zM393 495h11l-42 -39
q-32 2 -91 11t-94 9q-24 0 -35 -10.5t-19 -39.5h-38l21 93q23 8 65 8q38 0 112 -16t110 -16z" />
    <glyph glyph-name="zacute.alt" horiz-adv-x="472" 
d="M284 573l85 127h62l-6 -25l-102 -102h-39zM495 487l-498 -487h-32l7 34l502 488h28zM303 -4q-36 0 -112.5 16.5t-113.5 16.5h-9l39 39q36 -3 99.5 -12.5t91.5 -9.5q24 0 36 12t21 43h38l-22 -95q-26 -10 -68 -10zM393 495h11l-42 -39q-32 2 -91 11t-94 9q-24 0 -35 -10.5
t-19 -39.5h-38l21 93q23 8 65 8q38 0 112 -16t110 -16z" />
    <glyph glyph-name="zdotaccent.alt" horiz-adv-x="470" 
d="M495 487l-498 -487h-32l7 34l502 488h28zM303 -4q-36 0 -112.5 16.5t-113.5 16.5h-9l39 39q36 -3 99.5 -12.5t91.5 -9.5q24 0 36 12t21 43h38l-22 -95q-26 -10 -68 -10zM393 495h11l-42 -39q-32 2 -91 11t-94 9q-24 0 -35 -10.5t-19 -39.5h-38l21 93q23 8 65 8
q38 0 112 -16t110 -16zM308 596q-16 0 -27 11t-11 26q0 17 12 29t28 12q17 0 27.5 -11t10.5 -26q0 -17 -11.5 -29t-28.5 -12z" />
    <glyph glyph-name="space.cap" horiz-adv-x="195" 
 />
    </font>
</defs>
</svg>
