<?xml version="1.0" standalone="no"?>
<!DOCTYPE svg PUBLIC "-//W3C//DTD SVG 1.1//EN" "http://www.w3.org/Graphics/SVG/1.1/DTD/svg11.dtd" >
<svg xmlns="http://www.w3.org/2000/svg" xmlns:xlink="http://www.w3.org/1999/xlink" version="1.1">
<metadata></metadata>
<defs>
<font id="omnes_att_w02_medium_italicRg" horiz-adv-x="1273" >
<font-face units-per-em="2048" ascent="1434" descent="-614" />
<missing-glyph horiz-adv-x="348" />
<glyph horiz-adv-x="0" />
<glyph horiz-adv-x="682" />
<glyph unicode=" "  horiz-adv-x="348" />
<glyph unicode="&#x09;" horiz-adv-x="348" />
<glyph unicode="&#xa0;" horiz-adv-x="348" />
<glyph unicode="!" horiz-adv-x="602" d="M92 72q0 39 9.5 72.5t31.5 56.5q16 16 39 24t61 8q117 0 117 -86q0 -39 -10 -72.5t-33 -56.5q-16 -16 -37.5 -24t-60.5 -8q-117 0 -117 86zM231 461l115 868h266l-260 -887q-10 -31 -23 -45t-36 -14q-39 0 -51.5 16.5t-10.5 61.5z" />
<glyph unicode="&#x22;" horiz-adv-x="870" d="M270 838l60 489h243l-176 -502q-10 -31 -23 -45t-36 -14q-39 0 -55.5 13.5t-12.5 58.5zM614 838l62 489h244l-181 -502q-20 -59 -61 -59q-37 0 -52.5 13.5t-11.5 58.5z" />
<glyph unicode="#" horiz-adv-x="1378" d="M43 334q0 4 2 12q2 6 4 16.5t6 22.5l19 90q4 12 4 17v4h278l103 333h-258q0 4 2 13q2 6 3 16t5 23l18 90q2 4 2 8t2 8q0 4 3 4h272l104 340q4 8 29 8q31 0 66.5 -22.5t35.5 -79.5q0 -27 -16 -80l-51 -166h301l104 340q0 8 27 8q33 0 67.5 -22.5t34.5 -79.5q0 -27 -16 -80 l-51 -166h264q-2 -6 -4 -14q-2 -6 -3 -15.5t-5 -21.5l-19 -90l-3 -9t-1 -7v-5h-278l-103 -333h258q0 -6 -2 -15q-2 -6 -4 -15t-4 -22l-18 -90l-3 -9t-1 -7l-3 -4h-274l-102 -340q0 -4 -9.5 -6t-19.5 -2q-31 0 -65.5 22.5t-34.5 79.5q0 16 3 36.5t11 43.5l51 166h-299 l-104 -340q-4 -8 -29 -8q-31 0 -66.5 22.5t-35.5 79.5q0 31 16 80l51 166h-264zM516 492h313l105 342h-313z" />
<glyph unicode="$" horiz-adv-x="1181" d="M51 289q0 31 14.5 51t32 32.5t32.5 16.5t17 0q41 -86 117 -144.5t170 -80.5l94 440q-55 25 -109 54.5t-96 71.5t-68 99.5t-26 135.5q0 76 30 143.5t87 117.5t141 80.5t193 32.5l41 191h178l-45 -207q78 -16 138.5 -46t103.5 -71q33 -33 49 -68.5t16 -70.5 q0 -33 -14 -55.5t-32.5 -34.5t-35 -16.5t-18.5 0.5q-37 72 -100.5 124t-149.5 74l-92 -432q61 -27 119.5 -56.5t104.5 -70.5t75 -96t29 -131q0 -84 -30 -155t-89.5 -122t-149.5 -79.5t-213 -28.5l-39 -201h-178l43 215q-84 16 -150.5 50t-111.5 81q-78 78 -78 156zM436 979 q0 -68 38 -110t101 -76l80 381q-104 -10 -161.5 -64.5t-57.5 -130.5zM590 152q123 6 180 63t57 145q0 66 -43 107t-110 74z" />
<glyph unicode="%" horiz-adv-x="1585" d="M92 55q0 27 14.5 49.5t55.5 59.5l1323 1190q2 2 15 -1t28.5 -13.5t27 -26t11.5 -35.5q0 -27 -15.5 -49.5t-56.5 -59.5l-1323 -1189q-4 -4 -16.5 0t-26.5 14t-25.5 25.5t-11.5 35.5zM184 987q0 72 24.5 137.5t70 114.5t110 78t141.5 29q129 0 210 -77t81 -206 q0 -72 -24.5 -136.5t-70.5 -113.5t-109.5 -77.5t-143.5 -28.5q-127 0 -208 76.5t-81 203.5zM328 995q0 -70 44.5 -115.5t110.5 -45.5q41 0 77 17t61.5 48t40 72t14.5 86q0 70 -44 116t-110 46q-41 0 -76.5 -17.5t-62.5 -48.5t-41 -72t-14 -86zM838 270q0 72 24.5 137.5 t70.5 114.5t109.5 78t143.5 29q129 0 209 -77t80 -206q0 -72 -25 -136.5t-70 -113.5t-109.5 -77.5t-142.5 -28.5q-129 0 -209.5 76.5t-80.5 203.5zM983 279q0 -70 45.5 -116t108.5 -46q41 0 76.5 17.5t61 48t40 71.5t14.5 86q0 70 -44 116t-109 46q-41 0 -77 -17.5 t-61.5 -48t-40 -71.5t-14.5 -86z" />
<glyph unicode="&#x26;" horiz-adv-x="1443" d="M63 340q0 90 29 158.5t82 120t128 87t167 60.5q-29 43 -47.5 97.5t-18.5 117.5q0 74 28 141.5t79 118.5t124 81t161 30q70 0 130 -21.5t104 -60.5t68.5 -93.5t24.5 -119.5q0 -145 -97 -230.5t-280 -124.5l259 -325q76 86 121.5 186.5t60.5 192.5h188q-37 -141 -96 -265 t-164 -235l10 -12q49 -61 93.5 -92t115.5 -33q2 0 3 -20.5t-8 -45t-34.5 -45t-76.5 -20.5q-78 0 -126.5 36.5t-101.5 102.5l-12 14q-92 -78 -203.5 -122t-263.5 -44q-109 0 -191.5 28t-139 76t-86.5 114.5t-30 146.5zM254 358q0 -45 16.5 -85t50 -70.5t86.5 -49t125 -18.5 q111 0 191 31t151 94l-317 393q-145 -35 -224 -105.5t-79 -189.5zM592 995q0 -55 14 -96t49 -88q145 29 219 78t74 160q0 68 -45 109.5t-119 41.5q-45 0 -80.5 -17.5t-60.5 -46t-38 -65.5t-13 -76z" />
<glyph unicode="'" horiz-adv-x="524" d="M270 838l60 489h243l-176 -502q-10 -31 -23 -45t-36 -14q-39 0 -55.5 13.5t-12.5 58.5z" />
<glyph unicode="(" horiz-adv-x="837" d="M104 264q0 119 24 239t69 232.5t110.5 214t149.5 185.5q92 92 194.5 146t204.5 54q47 0 74.5 -22.5t27.5 -63.5q0 -29 -16 -52t-20 -23q-86 -6 -165 -42t-163 -122q-72 -72 -125 -161t-89 -187.5t-53.5 -201t-17.5 -200.5q0 -135 38 -245.5t116 -188.5q66 -61 145 -86 q4 -2 11.5 -19.5t7.5 -37.5q0 -41 -26 -67t-75 -26q-55 0 -112.5 28t-110.5 81q-88 88 -143.5 232.5t-55.5 332.5z" />
<glyph unicode=")" horiz-adv-x="837" d="M-129 -322q0 29 16.5 52.5t20.5 25.5q86 4 165 41t163 121q72 72 125 161t87.5 187.5t52 200.5t17.5 201q0 135 -37 245.5t-114 188.5q-63 61 -146 88q-4 2 -11 18.5t-7 36.5q0 41 25.5 66.5t74.5 25.5q115 0 223 -108q86 -88 142.5 -231.5t56.5 -333.5 q0 -119 -23.5 -239t-68.5 -232.5t-110.5 -214t-149.5 -185.5q-92 -92 -195 -146.5t-207 -54.5q-45 0 -72.5 23t-27.5 63z" />
<glyph unicode="*" horiz-adv-x="872" d="M189 1047.5q-7 15.5 4 44.5l2 8q6 25 23.5 34t53.5 3l201 -52l14 201q4 41 18.5 52.5t39.5 11.5h8q25 0 40 -11.5t19 -52.5l13 -201l198 52q39 6 55.5 -3.5t24.5 -33.5l2 -8q8 -29 2 -44.5t-43 -31.5l-188 -76l110 -176q18 -35 12.5 -54.5t-24.5 -31.5l-6 -4 q-18 -14 -37.5 -13t-48.5 29l-135 162l-133 -162q-27 -29 -44.5 -30t-39.5 14l-8 4q-23 12 -27 31.5t16 54.5l111 178l-191 74q-35 16 -42 31.5z" />
<glyph unicode="+" horiz-adv-x="1171" d="M121 512q0 18 8 46t23 42q23 23 69 23h307l66 305q10 47 31.5 66.5t50.5 19.5h20q35 0 56.5 -21.5t11.5 -68.5l-66 -301h293q80 0 80 -54q0 -18 -7 -45.5t-22 -42.5q-12 -10 -27.5 -16t-43.5 -6h-305l-70 -322q-10 -47 -31.5 -66.5t-50.5 -19.5h-22q-35 0 -55.5 20.5 t-10.5 69.5l68 318h-291q-82 0 -82 53z" />
<glyph unicode="," horiz-adv-x="528" d="M-78 -201l217 443q2 2 30 2t60.5 -8.5t59 -29t26.5 -56.5q0 -31 -12 -56.5t-45 -64.5l-242 -289q-8 -8 -26.5 -6t-35.5 11t-27.5 23.5t-4.5 30.5z" />
<glyph unicode="-" horiz-adv-x="874" d="M98 406q2 8 4 20q2 18 13 57l6 29q4 16 7 31.5t5 25.5q2 12 4 23h637q-2 -10 -4 -23q-2 -10 -5 -25.5t-7 -31.5l-6 -29q-10 -39 -13 -57q-2 -12 -4 -20h-637z" />
<glyph unicode="." horiz-adv-x="524" d="M51 72q0 39 10.5 72.5t32.5 56.5q16 16 38 24t61 8q117 0 116 -86q0 -39 -9 -72.5t-32 -56.5q-16 -16 -38.5 -24t-61.5 -8q-117 0 -117 86z" />
<glyph unicode="/" horiz-adv-x="763" d="M-186 -414l911 1749h203q-20 -43 -39 -80q-16 -33 -32.5 -64.5t-25.5 -47.5l-815 -1557h-202z" />
<glyph unicode="0" horiz-adv-x="1370" d="M147 457q0 72 13.5 155.5t38.5 182.5q29 121 74.5 222t117.5 175t171.5 116t234.5 42q123 0 216 -36t155.5 -100.5t95 -153.5t32.5 -194q0 -72 -14 -155.5t-37 -182.5q-29 -121 -75 -222t-117.5 -175t-171 -116t-234.5 -42q-123 0 -216 36t-155.5 100.5t-95.5 153.5 t-33 194zM358 459q0 -139 80.5 -225.5t223.5 -86.5q90 0 152.5 32t105.5 85t70.5 124t45.5 149q25 98 37 183t12 144q0 139 -80.5 225.5t-222.5 86.5q-90 0 -152.5 -32t-105.5 -85t-70.5 -123t-45.5 -148q-25 -98 -37.5 -184t-12.5 -145z" />
<glyph unicode="1" horiz-adv-x="819" d="M207 1100q0 33 12 57.5t26.5 40.5t27 24.5t14.5 6.5q39 -49 127 -49q66 0 116 45t70 110h68q100 0 75 -102l-260 -1233h-209l218 1034q-29 -27 -65 -40t-71 -13q-84 0 -118 39q-31 27 -31 80z" />
<glyph unicode="2" horiz-adv-x="1165" d="M23 94q0 98 35.5 194.5t101.5 162.5q39 39 80 68.5t92 56t113.5 50t142.5 48.5q74 25 140.5 50.5t116.5 59t79.5 80.5t29.5 113q0 88 -68.5 143.5t-191.5 55.5q-129 0 -208.5 -63.5t-129.5 -164.5q-2 -4 -20.5 -1t-40 13.5t-38.5 32t-17 58.5q0 35 20.5 77.5t58.5 81.5 q59 59 153.5 100.5t227.5 41.5q106 0 192.5 -27t146 -75t91 -116.5t31.5 -150.5q0 -106 -34.5 -180t-99 -128t-158 -94t-210.5 -77q-70 -23 -122 -41.5t-93 -36.5t-71.5 -38.5t-57.5 -47.5q-63 -68 -75 -164h776q-2 -8 -4 -18t-5 -23.5t-8 -30.5q-4 -18 -7 -35.5t-7 -33.5 q-4 -18 -6 -35h-883q-29 0 -51 29.5t-22 64.5z" />
<glyph unicode="3" horiz-adv-x="1187" d="M31 272q0 47 20.5 75t46 40t47 14t21.5 -2q23 -123 112 -188.5t240 -65.5q80 0 139.5 21.5t98.5 57.5t58.5 84t19.5 102q0 92 -67 147t-198 55h-176l13 56q4 18 9 44.5t9 43.5l3 9t1 7v4h186q96 0 158 18.5t97.5 49t49 69.5t13.5 82t-19.5 77t-53.5 58.5t-81 38 t-102 13.5q-121 0 -205 -53.5t-131 -131.5q-2 -4 -19.5 -2t-38 12.5t-37 31t-16.5 51.5t15.5 60.5t44.5 57.5q63 66 162.5 105t234.5 39q98 0 182 -21.5t145.5 -62.5t95.5 -104.5t34 -145.5q0 -59 -18.5 -114.5t-55.5 -100.5t-94 -77t-137 -44q106 -37 156 -112.5t50 -168.5 q0 -74 -26.5 -149.5t-88 -137t-163.5 -100.5t-254 -39q-141 0 -243.5 38t-155.5 93q-47 45 -64.5 88.5t-17.5 77.5z" />
<glyph unicode="4" horiz-adv-x="1269" d="M86 485q0 43 18.5 77t65.5 85l596 594q27 27 48.5 45.5t43 28.5t47 15t60.5 5q92 0 124.5 -34.5t16.5 -110.5l-141 -662h235q0 -6 -2 -14t-4 -18.5t-4 -22.5l-21 -96q-4 -16 -4 -17l-2 -4h-231l-76 -356h-197l74 356h-586q-4 0 -14 11.5t-20.5 29t-18.5 41t-8 47.5z M279 524h497l135 639z" />
<glyph unicode="5" horiz-adv-x="1171" d="M47 254q0 31 15.5 53.5t35 36.5t36 18.5t18.5 2.5q43 -100 133 -161t241 -61q150 0 239 82t89 215q0 106 -68.5 165t-212.5 59q-98 0 -163.5 -20.5t-116.5 -49.5q-123 27 -96 147l96 467q25 117 137 117h752l-4 -16t-4.5 -19.5t-4.5 -25.5q-4 -20 -9 -41t-9 -37 q-6 -20 -8 -41h-676l-78 -361q102 39 221 39q217 0 334 -101t117 -267q0 -106 -38 -194.5t-107.5 -152t-169 -98.5t-222.5 -35q-154 0 -255 38t-156 96q-66 68 -66 145z" />
<glyph unicode="6" horiz-adv-x="1271" d="M150 463q0 68 13 164t44 199.5t80 200.5t119 167q72 74 164 116t245 42q123 0 212 -37t136 -84q33 -35 47.5 -66.5t14.5 -60.5q0 -37 -17.5 -59.5t-39 -35t-40 -15.5t-20.5 1q-41 88 -119 135.5t-178 47.5q-168 0 -270.5 -118t-153.5 -341q61 45 144 77.5t206 32.5 q92 0 169 -24.5t132.5 -70.5t86 -112.5t30.5 -152.5q0 -96 -37 -185t-104.5 -158t-164.5 -110t-216 -41q-109 0 -198 33t-152.5 95.5t-98 152.5t-34.5 207zM350 455q-4 -147 72 -229.5t219 -82.5q74 0 132 25t98 65.5t61.5 97t21.5 120.5q0 104 -69.5 166.5t-206.5 62.5 q-109 0 -183.5 -36t-134.5 -87q-6 -29 -8 -54.5t-2 -47.5z" />
<glyph unicode="7" horiz-adv-x="1155" d="M195 88q0 35 17 62.5t52 70.5l713 916h-762q0 8 4 20q2 10 6 24.5t8 32.5q4 16 7.5 37t7.5 37q4 20 8 37h860q4 0 17.5 -11t27 -29.5t23.5 -44.5t10 -56q0 -37 -14.5 -71t-55.5 -85l-796 -1038q0 -2 -21.5 -1t-46 10t-45 29.5t-20.5 59.5z" />
<glyph unicode="8" horiz-adv-x="1263" d="M84 334q0 127 91 225t257 137q-84 35 -130 98.5t-46 155.5q0 84 37 157t103.5 127t158.5 85t201 31q102 0 187 -25t146.5 -69t95.5 -105t34 -135q0 -123 -77 -218.5t-229 -131.5q102 -41 156.5 -113t54.5 -170q0 -86 -36.5 -161t-104.5 -129t-165 -86t-220 -32 q-117 0 -212 25t-161.5 72t-103.5 112.5t-37 149.5zM295 352q0 -96 84 -156.5t227 -60.5q147 0 230.5 74t83.5 184q0 94 -84 152.5t-234 58.5q-63 0 -119.5 -18.5t-97.5 -51t-65.5 -78.5t-24.5 -104zM457 946q0 -90 74.5 -142t197.5 -52q135 0 211 66.5t76 172.5 q0 92 -76 144.5t-199 52.5q-131 0 -207.5 -67.5t-76.5 -174.5z" />
<glyph unicode="9" horiz-adv-x="1271" d="M121 219q0 35 16.5 57.5t37 35t37.5 15.5t19 1q43 -88 123 -134.5t178 -46.5q166 0 266.5 113t153.5 326q-61 -43 -148 -76t-198 -33q-94 0 -171 23.5t-132 69.5t-85 116t-30 160q0 100 37 192t105.5 161t165 110t215.5 41q223 0 354 -127t131 -361q0 -68 -13.5 -164 t-44 -198.5t-78.5 -200.5t-118 -168q-37 -37 -77 -65.5t-88 -48t-108.5 -31t-138.5 -11.5q-133 0 -217 34t-133 83q-31 33 -45 65.5t-14 61.5zM389 864q0 -111 67 -174t208 -63q104 0 181 34.5t136 88.5q12 63 12 118q4 150 -70.5 233t-215.5 83q-74 0 -133.5 -24.5 t-100.5 -67.5t-62.5 -101.5t-21.5 -126.5z" />
<glyph unicode=":" horiz-adv-x="528" d="M76 72q0 39 10 72.5t33 56.5q16 16 37.5 24t60.5 8q117 0 117 -86q0 -39 -9.5 -72.5t-31.5 -56.5q-16 -16 -38.5 -24t-61.5 -8q-117 0 -117 86zM221 737q0 37 9.5 72t31.5 57q16 16 39 23.5t61 7.5q117 0 117 -86q0 -37 -9 -71.5t-32 -57.5q-16 -16 -38.5 -23.5 t-61.5 -7.5q-117 0 -117 86z" />
<glyph unicode=";" horiz-adv-x="577" d="M-53 -201l217 443q2 2 29.5 2t60.5 -8.5t59.5 -29t26.5 -56.5q0 -31 -12.5 -56.5t-44.5 -64.5l-242 -289q-8 -8 -26.5 -6t-36 11t-27.5 23.5t-4 30.5zM221 737q0 37 9.5 72t31.5 57q16 16 39 23.5t61 7.5q117 0 117 -86q0 -37 -9 -71.5t-32 -57.5q-16 -16 -38.5 -23.5 t-61.5 -7.5q-117 0 -117 86z" />
<glyph unicode="&#x3c;" horiz-adv-x="1019" d="M129 532q2 41 24.5 75t75.5 59l699 338q2 0 11 -7.5t18.5 -20.5t16.5 -31.5t7 -39.5q2 -31 -20.5 -61.5t-83.5 -59.5l-539 -249l399 -232q59 -35 79 -67.5t15 -63.5q-2 -23 -11 -40t-19 -29.5t-19.5 -18.5t-13.5 -4l-573 344q-29 18 -47.5 46t-18.5 62z" />
<glyph unicode="=" horiz-adv-x="1171" d="M92 260q0 20 9.5 53t25.5 49q10 10 27.5 16.5t50.5 6.5h700q88 0 88 -55q0 -20 -9 -53t-26 -50q-10 -12 -27.5 -17t-49.5 -5h-701q-88 0 -88 55zM195 739q0 18 9 51t25 50q20 23 78 22h701q90 0 90 -55q0 -20 -10.5 -53t-26.5 -49q-10 -10 -27.5 -15.5t-48.5 -5.5h-702 q-88 0 -88 55z" />
<glyph unicode="&#x3e;" horiz-adv-x="1019" d="M59 178q-2 31 20.5 61.5t84.5 59.5l538 250l-399 231q-59 35 -78.5 68t-15.5 63q2 20 11 39t19.5 31t19.5 18.5t13 4.5l574 -345q29 -18 47 -45.5t18 -62.5q-2 -41 -24.5 -75t-75.5 -58l-698 -338q-4 0 -12.5 7t-17.5 20.5t-16.5 32t-7.5 38.5z" />
<glyph unicode="?" horiz-adv-x="1050" d="M205 1049q0 43 22.5 87t61.5 83q59 59 144 96t202 37q98 0 178 -28t136.5 -77t87 -115.5t30.5 -144.5q0 -90 -31.5 -151.5t-80 -102.5t-106.5 -66.5t-110 -41.5q-104 -35 -150 -82t-54 -86q-4 -12 -6.5 -26.5t-6.5 -27.5q-4 -14 -6 -28h-184q0 6 4 18q4 10 7 29.5 t11 52.5q18 88 74.5 161t183.5 116q59 20 105.5 40.5t77 47t47 60.5t16.5 81q0 84 -62.5 141.5t-172.5 57.5q-111 0 -187 -63.5t-112 -162.5q0 -4 -19.5 -1t-41 13.5t-40 30t-18.5 52.5zM270 72q0 39 9.5 72.5t31.5 56.5q16 16 39 24t62 8q117 0 116 -86q0 -39 -10 -72.5 t-33 -56.5q-16 -16 -37.5 -24t-60.5 -8q-117 0 -117 86z" />
<glyph unicode="@" horiz-adv-x="1591" d="M160 575q0 162 57 304.5t158.5 247t239 165t296.5 60.5q137 0 251 -40t196 -112t126 -173t44 -226q0 -109 -25.5 -195t-73 -146.5t-114 -93t-148.5 -32.5q-109 0 -159 41t-62 100q-76 -131 -231 -131q-98 0 -164 63.5t-66 180.5q0 70 25 138.5t68 121.5t102 86t131 33 q63 0 115.5 -29t77.5 -82q8 29 14 47.5t10 30.5q4 14 6 22h148l-76 -360q-16 -68 4 -105.5t86 -37.5q100 0 159.5 90t59.5 254q0 98 -38 181t-106.5 142.5t-163.5 92t-208 32.5q-131 0 -244.5 -51t-198.5 -140t-133.5 -210t-48.5 -260q0 -111 39 -203t110 -158.5t171 -103.5 t221 -37q90 0 175 26.5t145 67.5q16 12 31.5 19.5t37.5 7.5q16 0 29.5 -10.5t22 -23.5t11.5 -24.5t1 -13.5q-72 -66 -191.5 -112t-271.5 -46q-147 0 -267 43t-204 122t-129 189.5t-45 247.5zM641 608q0 -63 36 -100t89 -37q70 0 124 50t68 122l17 84q-16 51 -51 82t-95 31 q-43 0 -77.5 -20.5t-59 -53.5t-38 -74t-13.5 -84z" />
<glyph unicode="A" horiz-adv-x="1361" d="M-68 0l762 1274q20 35 48 50t87 15q74 0 100.5 -21.5t35.5 -55.5l249 -1262h-215l-75 389h-533l-223 -389h-236zM477 559h426l-102 559z" />
<glyph unicode="B" horiz-adv-x="1335" d="M70 0l258 1208q18 117 137 117h389q203 0 306.5 -75.5t103.5 -223.5q0 -119 -62.5 -210t-220.5 -136q119 -33 176 -103.5t57 -164.5q0 -86 -27.5 -161t-91 -131.5t-168 -88t-255.5 -31.5h-602zM315 170h359q176 0 250.5 61.5t74.5 188.5q0 82 -64.5 129t-193.5 47h-333z M438 748h314q139 0 217 66.5t78 174.5q-6 166 -242 166h-279z" />
<glyph unicode="C" horiz-adv-x="1398" d="M147 553q0 160 56.5 305.5t156 254t235.5 173t296 64.5q154 0 252 -43t155 -103q45 -43 65.5 -89t20.5 -77q0 -41 -20.5 -65.5t-45 -36.5t-47 -15t-26.5 1q-90 241 -354 241h-2q-111 0 -206 -47t-164.5 -127t-109.5 -185.5t-40 -223.5q0 -96 29.5 -173t81.5 -130.5 t126 -83t162 -29.5q129 0 225.5 51t155.5 143q2 2 19.5 -2t37 -16t34.5 -33.5t15 -52.5q0 -57 -65 -123q-61 -61 -175 -108.5t-255 -47.5q-139 0 -252 40t-192.5 115t-124 182.5t-44.5 240.5z" />
<glyph unicode="D" horiz-adv-x="1433" d="M70 0l258 1208q18 117 137 117h237q307 0 478.5 -144.5t171.5 -406.5q0 -158 -51.5 -299t-155 -246.5t-258 -167t-361.5 -61.5h-456zM319 182h238q147 0 257 45t181.5 123t106.5 179.5t35 215.5q0 186 -118 292t-335 106h-162z" />
<glyph unicode="E" horiz-adv-x="1271" d="M70 0l258 1208q23 117 137 117h866q-2 -12 -6 -29q-4 -14 -6 -31.5t-6 -33.5q-8 -41 -21 -92h-768l-80 -373h623l-37 -178h-624l-84 -402h780l-39 -186h-993z" />
<glyph unicode="F" horiz-adv-x="1181" d="M72 0l256 1208q18 117 137 117h815q-16 -72 -23.5 -109.5t-11.5 -54.5l-4 -22h-719l-90 -422h561q-2 -14 -6 -29q-4 -12 -6 -28.5t-6 -32.5q-8 -39 -21 -88h-557l-112 -539h-213z" />
<glyph unicode="G" horiz-adv-x="1525" d="M147 543q0 160 56.5 306t157 258t239.5 178.5t305 66.5q154 0 264.5 -47.5t169.5 -108.5q37 -35 56.5 -74t19.5 -73q0 -43 -20.5 -68t-46 -35t-47 -11t-23.5 3q-39 98 -137.5 163.5t-233.5 65.5q-117 0 -216 -48t-172 -131t-112.5 -193.5t-39.5 -233.5 q0 -199 109.5 -307.5t293.5 -108.5q98 0 168 27t123 78q25 25 43 46t33.5 50t28 72t28.5 108h-412l37 172h488q94 0 94 -78q0 -17 -4 -38l-123 -576q0 -4 -16 -9t-39 -5q-51 0 -82 34q-22 24 -22 73q0 19 3 42q-57 -74 -156.5 -120t-228.5 -46q-131 0 -239.5 39t-185.5 112 t-119 178.5t-42 238.5z" />
<glyph unicode="H" horiz-adv-x="1452" d="M70 0l264 1237q10 49 33.5 72.5t70.5 23.5h29q47 -1 67 -27q13 -17 13 -42q0 -15 -4 -33l-99 -475h676l103 481q10 49 33.5 72.5t70.5 23.5h31q46 1 66 -27q14 -18 13 -47q0 -14 -3 -30l-265 -1229h-208l120 571h-675l-125 -571h-211z" />
<glyph unicode="I" horiz-adv-x="600" d="M90 0l264 1237q10 49 34 72.5t71 23.5h28q47 -1 67 -27q13 -17 13 -42q0 -15 -4 -33l-262 -1231h-211z" />
<glyph unicode="J" horiz-adv-x="1013" d="M41 182q0 37 15.5 62.5t35 39t35.5 17.5t18 2q33 -66 93.5 -106.5t136.5 -40.5q109 0 168 65.5t92 216.5l190 887h209l-194 -919q-47 -217 -156.5 -324t-304.5 -107q-100 0 -171 30t-114 73q-29 29 -41 54.5t-12 49.5z" />
<glyph unicode="K" horiz-adv-x="1245" d="M72 0l262 1237q10 51 33.5 73.5t70.5 22.5h29q47 -1 67 -27q13 -17 13 -43q0 -15 -4 -34l-107 -504l727 627l19 -4q18 -5 38.5 -17t38 -31.5t17.5 -50.5q0 -35 -19.5 -63.5t-64.5 -65.5l-561 -461l287 -391q33 -45 57 -74.5t46.5 -47t44 -25.5t50.5 -10q2 0 2 -19.5 t-12 -42t-42 -42t-85 -19.5q-37 0 -67.5 12t-59.5 39t-60.5 67.5t-68.5 98.5l-305 436l-135 -641h-211z" />
<glyph unicode="L" horiz-adv-x="1118" d="M70 0l264 1237q10 49 33.5 72.5t70.5 23.5h29q47 -1 67 -27q13 -17 13 -42q0 -15 -4 -33l-221 -1043h565q92 0 92 -59q0 -20 -9 -54t-28 -52q-10 -12 -28.5 -17.5t-53.5 -5.5h-790z" />
<glyph unicode="M" horiz-adv-x="1603" d="M70 0l258 1212q12 57 48 89t93 32h53q59 0 82 -25.5t33 -82.5l162 -705l467 709q20 31 37.5 51t35 32.5t37 16.5t45.5 4h62q59 1 83 -35q16 -25 16 -59q0 -14 -3 -31l-258 -1208h-199l226 1061l-437 -664q-29 -43 -56.5 -64.5t-86.5 -21.5q-74 0 -95.5 27t-29.5 70 l-147 647l-228 -1055h-198z" />
<glyph unicode="N" horiz-adv-x="1466" d="M72 0l256 1212q25 121 129 121h35q41 0 65.5 -19.5t46.5 -64.5l453 -932l215 1008h196l-260 -1221q-23 -112 -119 -112h-2h-16q-41 0 -64.5 19.5t-48.5 64.5l-469 966l-221 -1042h-196z" />
<glyph unicode="O" horiz-adv-x="1566" d="M150 555q0 170 59 315.5t160.5 253t235.5 168t284 60.5q141 0 252.5 -45t188.5 -124t118 -184.5t41 -226.5q0 -170 -59.5 -315.5t-161 -252t-235 -167t-283.5 -60.5q-143 0 -255 45.5t-189 123t-116.5 183t-39.5 226.5zM365 569q0 -84 26.5 -158.5t77.5 -130t126 -87 t171 -31.5q94 0 185 44t163 123t115 188.5t43 240.5q0 84 -26.5 158.5t-77 130t-125 87t-171.5 31.5q-96 0 -187 -44t-162.5 -122.5t-114.5 -188.5t-43 -241z" />
<glyph unicode="P" horiz-adv-x="1234" d="M70 0l258 1208q18 117 137 117h303q225 0 345 -92t120 -266q0 -229 -140.5 -359.5t-414.5 -130.5h-293l-104 -477h-211zM420 647h282q147 0 232.5 77t85.5 218q0 102 -66.5 155.5t-203.5 53.5h-224z" />
<glyph unicode="Q" horiz-adv-x="1585" d="M150 555q0 170 59 315.5t160.5 253t237.5 168t288 60.5q143 0 255 -44t186.5 -123t113.5 -184.5t39 -228.5q0 -172 -60.5 -316.5t-164.5 -250.5l8 -10q37 -49 67.5 -75t63.5 -36q2 0 1 -17.5t-11.5 -38t-32 -38t-60.5 -17.5q-57 0 -93 23.5t-87 91.5q-86 -53 -180 -82 t-199 -29q-145 0 -254.5 44.5t-185.5 122t-113.5 183t-37.5 228.5zM365 569q0 -84 26.5 -158.5t76.5 -130t124 -87t168 -31.5q131 0 244 71l-203 273l21 18q20 19 44.5 42.5t45 42t22.5 16.5l205 -271q63 78 100 179.5t37 224.5q0 84 -26.5 158.5t-77 130t-124 87 t-167.5 31.5q-98 0 -191.5 -44t-166 -122.5t-115.5 -188.5t-43 -241z" />
<glyph unicode="R" horiz-adv-x="1271" d="M72 0l256 1208q18 117 137 117h326q229 0 346.5 -87t117.5 -257q0 -205 -128 -323.5t-357 -125.5l154 -260q25 -41 44 -69.5t40.5 -47t48 -27.5t61.5 -9q2 0 2 -20.5t-12 -45t-42 -45t-87 -20.5q-35 0 -64.5 9t-58.5 32.5t-58.5 65.5t-66.5 108l-176 315h-164l-108 -518 h-211zM424 684h303q152 0 231.5 72.5t79.5 201.5q0 96 -68.5 145.5t-197.5 49.5h-248z" />
<glyph unicode="S" horiz-adv-x="1187" d="M45 276q0 31 15.5 53.5t34 36t34.5 17.5t18 2q53 -106 159 -172t255 -66q139 0 206 55.5t67 153.5q0 45 -20.5 77t-57.5 57.5t-85 47t-104 44.5q-61 25 -122.5 55.5t-110.5 73.5t-79 102t-30 145q0 80 32 152t92.5 125t149.5 84t203 31q147 0 248 -38t158 -95 q66 -66 66 -140q0 -35 -15.5 -57.5t-35 -35.5t-37 -17t-19.5 0q-47 96 -140 153.5t-231 57.5q-117 0 -188.5 -55.5t-71.5 -141.5q0 -49 20.5 -83t57.5 -60.5t88 -50t113 -48.5q63 -25 124.5 -54.5t109.5 -70.5t78 -98t30 -139q0 -88 -32 -162t-94.5 -127t-156.5 -83 t-217 -30q-150 0 -260.5 42t-175.5 106q-35 37 -55.5 75t-20.5 78z" />
<glyph unicode="T" horiz-adv-x="1284" d="M229 1196q0 20 9.5 54t27.5 53q10 12 28.5 17t53.5 5h930q92 0 92 -59q0 -20 -10 -54t-27 -53q-12 -12 -29.5 -17t-52.5 -5h-364l-242 -1137h-209l240 1137h-354q-92 0 -93 59z" />
<glyph unicode="U" horiz-adv-x="1396" d="M180 596l135 641q12 49 36 72.5t71 23.5h29q47 1 67 -27q12 -18 12 -44q0 -15 -4 -33l-137 -649q-16 -77 -16 -140q0 -108 47 -174q74 -104 260 -104q281 0 356 358l154 717q10 49 33.5 72.5t70.5 23.5h27q45 1 65 -27q14 -18 14 -46q0 -13 -3 -29l-156 -737 q-110 -519 -579 -519q-285 0 -416 157q-88 105 -88 277q0 85 22 187z" />
<glyph unicode="V" horiz-adv-x="1337" d="M233 1266q-2 6 8.5 18t28 22.5t41 18.5t47.5 8q41 0 69 -26.5t36 -79.5l164 -981l610 1089q0 2 23.5 1t53 -10t53.5 -32.5t24 -66.5q0 -25 -11.5 -52.5t-40.5 -74.5l-655 -1100h-207z" />
<glyph unicode="W" horiz-adv-x="1961" d="M303 1284q0 12 35 31.5t80 19.5q54 1 80 -33q25 -31 24 -82v-8l10 -981l435 848q23 47 56.5 66.5t86.5 19.5q70 0 99.5 -28.5t33.5 -79.5l68 -826l485 1100q0 2 25.5 3t55.5 -7t55.5 -30.5t25.5 -67.5q0 -23 -8 -49.5t-31 -73.5l-520 -1106h-242l-78 928l-491 -928h-238z " />
<glyph unicode="X" horiz-adv-x="1290" d="M6 84q0 51 68 117l477 479l-303 645h223l238 -537l522 562l21 -4q20 -5 42.5 -16t42 -32.5t19.5 -54.5q0 -51 -68 -119l-485 -485l160 -342q25 -55 45 -89t41.5 -52.5t46 -25.5t55.5 -7q2 0 2 -22.5t-12.5 -50t-42 -50.5t-84.5 -23q-76 0 -128 57.5t-102 180.5l-137 315 l-516 -553q0 -2 -20.5 2.5t-43 16.5t-42 32.5t-19.5 55.5z" />
<glyph unicode="Y" horiz-adv-x="1239" d="M180 1325h221l258 -606l525 622l20 -3q21 -3 44.5 -13t43 -31.5t19.5 -58.5q0 -29 -15.5 -58.5t-56.5 -74.5l-502 -565l-112 -537h-213l116 547z" />
<glyph unicode="Z" horiz-adv-x="1239" d="M2 0q4 16 8 39q4 16 8.5 39.5t10.5 46.5q10 45 28.5 76.5t65.5 77.5l874 862h-626q-115 0 -115 76q0 18 6 36.5t13.5 35t14.5 26.5t9 10h985q-4 -18 -8 -39l-9 -40.5t-10 -45.5q-10 -45 -27.5 -76.5t-64.5 -76.5l-872 -863h670q114 0 114 -74q0 -19 -6 -38t-13 -35.5 t-14.5 -26.5t-9.5 -10h-1032z" />
<glyph unicode="[" horiz-adv-x="776" d="M-12 -406q2 14 8 35q4 16 9 42t13 61l316 1482q4 29 9 49.5t9 36.5l6 31h426q84 0 84 -53q0 -18 -9 -50t-25 -48q-10 -10 -26.5 -15.5t-47.5 -5.5h-250l-295 -1390h240q84 0 84 -56q0 -18 -8.5 -49t-24.5 -47q-12 -10 -28.5 -16.5t-47.5 -6.5h-442z" />
<glyph unicode="\" horiz-adv-x="763" d="M207 1337h182l172 -1753h-180z" />
<glyph unicode="]" horiz-adv-x="776" d="M-104 -352q0 18 9 50t25 48q10 10 26.5 15.5t47.5 5.5h250l295 1390h-240q-84 0 -84 55q0 18 8.5 49t24.5 48q12 10 28.5 16t47.5 6h442q-4 -14 -8 -35q-4 -16 -9 -41.5t-14 -60.5l-315 -1483q-6 -29 -10 -49t-8 -37l-6 -31h-426q-84 0 -84 54z" />
<glyph unicode="^" horiz-adv-x="1093" d="M367 967q0 39 34.5 83t100.5 97q33 27 66.5 50.5t62 41.5t50 28.5t32.5 12.5q14 -4 57 -42t84 -87q45 -53 64.5 -93t19.5 -69q0 -37 -20.5 -58.5t-51.5 -21.5q-33 0 -62.5 30t-64.5 93q-10 20 -23.5 43t-27.5 51q-23 -27 -44 -50t-44 -46q-51 -57 -95 -89t-79 -32 q-29 0 -44 17.5t-15 40.5z" />
<glyph unicode="_" horiz-adv-x="1050" d="M-63 -117q0 18 8 48t24 46q12 12 27.5 17.5t46.5 5.5h743q84 0 84 -53q0 -16 -8 -47t-24 -47q-12 -10 -27.5 -15.5t-46.5 -5.5h-744q-84 0 -83 51z" />
<glyph unicode="`" horiz-adv-x="1093" d="M428 1376q0 37 26.5 62.5t65.5 25.5q25 0 51.5 -11t49.5 -30q45 -35 87 -82t71.5 -90t45 -75.5t11.5 -38.5q-6 -6 -39 -3t-81 17t-104.5 41t-107.5 63q-76 55 -76 121z" />
<glyph unicode="a" d="M94 387q0 117 41 228.5t114 198.5t174 141.5t222 54.5q115 0 203 -51.5t131 -139.5q10 47 18.5 79t12.5 52q6 23 8 35h196l-159 -760q-8 -39 -8 -67q0 -26 8 -42q16 -32 80 -38q2 0 0 -15.5t-13.5 -33t-37 -32.5t-70.5 -15q-96 0 -136 54q-32 43 -32 112q0 17 2 36 q-63 -102 -159.5 -155.5t-209.5 -53.5q-80 0 -150.5 28t-122.5 80t-82 129t-30 175zM295 406q0 -125 71 -194t169 -69q68 0 129 26t110 71t83 105.5t48 127.5l33 154q-31 100 -99.5 159.5t-181.5 59.5q-84 0 -151.5 -39t-114.5 -101.5t-71.5 -141.5t-24.5 -158z" />
<glyph unicode="b" horiz-adv-x="1263" d="M57 16l289 1397h203l-117 -584q61 86 144 133.5t196 47.5q78 0 149.5 -28t127 -82t88 -135t32.5 -185q0 -115 -37.5 -223.5t-107.5 -193.5t-167 -136.5t-216 -51.5q-121 0 -211 55.5t-137 149.5v-6q-23 -100 -59.5 -141t-102.5 -41q-31 0 -53.5 10t-20.5 14zM356 471 q-6 -32 -6 -63q0 -32 6 -62q12 -59 48 -104t92.5 -73t130.5 -28q82 0 145.5 37t107.5 96.5t66.5 135t22.5 153.5q0 66 -20.5 118t-54.5 88t-80 55.5t-97 19.5q-100 0 -186.5 -56.5t-139.5 -144.5z" />
<glyph unicode="c" horiz-adv-x="1126" d="M90 430q0 115 43 219.5t119 184t178 128t221 48.5q125 0 210 -36t136 -89q41 -41 60.5 -85t19.5 -79q0 -43 -20.5 -66.5t-46 -34t-47 -9.5t-21.5 5q-18 98 -90 161t-195 63q-84 0 -151.5 -34t-116.5 -89t-75.5 -127t-26.5 -146q0 -133 79.5 -216t219.5 -83 q100 0 168.5 46.5t115.5 119.5q2 2 18.5 -1t35 -12t34 -27.5t15.5 -47.5q0 -55 -66 -121q-53 -51 -140 -89t-200 -38q-102 0 -189 31t-150.5 89.5t-100.5 142.5t-37 192z" />
<glyph unicode="d" d="M100 406q0 115 38 223t107.5 193t167 136.5t216.5 51.5q117 0 207 -50.5t141 -140.5l125 594h198l-245 -1188q-9 -40 -9 -68q0 -25 8 -41q17 -32 81 -38q2 0 0 -15.5t-13.5 -33t-37 -32.5t-70.5 -15q-92 0 -133 50q-36 44 -36 116q0 11 1 22q-63 -94 -147.5 -144.5 t-200.5 -50.5q-80 0 -152 28t-126 83t-87 135t-33 185zM299 422q0 -66 20.5 -118t55.5 -88t80 -54.5t96 -18.5q63 0 120.5 23.5t103.5 64.5t79 99.5t47 126.5l35 164q-37 104 -101.5 164.5t-189.5 60.5q-84 0 -148.5 -37t-108.5 -97.5t-66.5 -136t-22.5 -153.5z" />
<glyph unicode="e" horiz-adv-x="1124" d="M86 385q0 135 48 249t132 197.5t196.5 131t244.5 47.5q178 0 274 -75t96 -198q0 -74 -27.5 -133t-93 -101t-175 -63.5t-275.5 -21.5q-53 0 -111.5 3t-124.5 7v-37q0 -117 69 -188.5t202 -71.5q109 0 184.5 40t130.5 114q2 2 16.5 -1t31 -12.5t30.5 -27t14 -43.5 q0 -31 -10 -52.5t-39 -50.5q-61 -59 -149 -91t-213 -32q-113 0 -197 31t-140.5 86t-85 130t-28.5 163zM303 569q53 -6 98 -8t86 -2q119 0 198 14.5t125 38t64.5 54t18.5 65.5q0 49 -48.5 88t-146.5 39q-68 0 -129 -22.5t-111 -60.5t-90 -91t-65 -115z" />
<glyph unicode="f" horiz-adv-x="792" d="M119 819q0 6 2 15q2 6 3 15t5 23q4 16 10 46t11 47q0 4 1 8t1 8t2 4h202l23 96q37 180 128 260t222 80t189 -61q32 -32 32 -73q0 -26 -9 -44t-20.5 -30.5t-21.5 -18.5t-12 -4q-20 29 -60.5 48t-87.5 19q-63 0 -105 -43t-65 -145l-18 -84h264q-2 -6 -4 -14q-2 -6 -3 -15.5 t-5 -21.5l-19 -94q-2 -6 -3 -9.5t-1 -7.5v-4h-258l-172 -819h-203l175 819h-203z" />
<glyph unicode="g" horiz-adv-x="1267" d="M33 -145q0 39 17.5 64.5t39 39.5t38.5 18.5t19 -0.5q35 -98 114 -156.5t224 -58.5q131 0 215 72t115 219l29 140q-66 -86 -150 -131.5t-194 -45.5q-80 0 -152 28t-127 82t-88 134t-33 182q0 106 40 208t113 181.5t172 129t218 49.5q113 0 202 -51.5t134 -137.5l39 164 h196l-198 -942q-47 -219 -178.5 -336t-364.5 -117q-139 0 -228 37t-143 90q-37 37 -53 72t-16 66zM299 455q0 -66 20.5 -116t55.5 -86t81 -54.5t97 -18.5q61 0 119.5 21.5t104.5 59.5t80 90t46 116l35 164q-29 98 -99.5 155.5t-181.5 57.5q-80 0 -146.5 -34t-113.5 -89 t-72.5 -125t-25.5 -141z" />
<glyph unicode="h" horiz-adv-x="1210" d="M53 0l275 1325q10 49 32.5 72.5t69.5 23.5h29q74 0 74 -64q0 -17 -5 -38l-98 -498q53 88 139 138.5t189 50.5q78 0 139 -24.5t104 -68t66 -103.5t23 -130q0 -53 -17.5 -131t-42.5 -166q-23 -76 -36 -134t-13 -87q0 -41 21.5 -59.5t62.5 -22.5q2 0 0 -16.5t-14.5 -35 t-39 -34.5t-71.5 -16q-80 0 -121 43t-41 116q0 43 14.5 107.5t36.5 146.5q23 74 36.5 137.5t13.5 100.5q0 94 -50.5 147.5t-146.5 53.5t-163.5 -48.5t-127.5 -148.5l-135 -637h-203z" />
<glyph unicode="i" horiz-adv-x="546" d="M113 227l161 758h201l-160 -760q-8 -37 -8 -64q-1 -29 9 -47q18 -32 87 -36q2 0 0 -15.5t-14 -33t-39 -32.5t-74 -15q-112 0 -150 66q-22 39 -23 96q0 37 10 83zM322 1290q0 53 33.5 92t93.5 39q59 0 89.5 -24.5t30.5 -67.5q0 -55 -34 -94t-93 -39t-89.5 25.5t-30.5 68.5 z" />
<glyph unicode="j" horiz-adv-x="548" d="M-281 -283q0 23 8.5 42.5t19.5 32.5t20.5 21.5t9.5 6.5q20 -29 58 -48.5t81 -19.5q53 0 86 33t51 121l230 1079h200l-233 -1108q-33 -154 -111.5 -222.5t-199.5 -68.5q-70 0 -116 16.5t-71 43.5q-33 33 -33 71zM332 1290q0 53 33.5 92t93.5 39q59 0 89 -24.5t30 -67.5 q0 -55 -34 -94t-93 -39t-89 25.5t-30 68.5z" />
<glyph unicode="k" horiz-adv-x="1036" d="M53 0l293 1413h203l-174 -852l534 449q0 2 16.5 -2t36 -15.5t35 -32t15.5 -53.5q0 -55 -78 -116l-373 -297l146 -224q31 -49 53 -78.5t43.5 -45t46 -21.5t59.5 -8q2 0 2 -21.5t-12 -46t-40 -46t-81 -21.5q-37 0 -64.5 9t-54 33.5t-57.5 68.5t-72 114l-172 282 q-8 -39 -16 -77q-16 -72 -35 -168q-23 -109 -51 -244h-203z" />
<glyph unicode="l" horiz-adv-x="546" d="M113 227l247 1186h201l-246 -1188q-8 -37 -8 -64q-1 -29 9 -47q18 -32 87 -36q2 0 0 -15.5t-14 -33t-39 -32.5t-74 -15q-114 0 -150 66q-22 40 -22 98q0 37 9 81z" />
<glyph unicode="m" horiz-adv-x="1853" d="M53 0l209 983q4 10 51 10q25 0 47.5 -7t39 -24.5t24.5 -47.5q5 -17 5 -38q0 -16 -3 -36q59 84 142 127t177 43q113 0 191 -57.5t106 -155.5q61 94 151.5 153.5t219.5 59.5q72 0 131.5 -24.5t101.5 -69t64.5 -103.5t22.5 -129q0 -53 -17.5 -131t-40.5 -166 q-23 -76 -36 -134t-13 -87q0 -41 21.5 -59.5t62.5 -22.5q2 0 -1 -16.5t-15.5 -35t-39 -34.5t-71.5 -16q-78 0 -119 43t-41 116q0 43 14.5 107.5t37.5 146.5q20 74 33.5 137.5t13.5 100.5q0 94 -50.5 147.5t-130.5 53.5q-90 0 -153.5 -42t-124.5 -135l-137 -657h-203l117 559 q10 44 10 82q0 68 -32 117q-48 76 -146 76q-90 0 -152.5 -42t-124.5 -137l-139 -655h-203z" />
<glyph unicode="n" horiz-adv-x="1210" d="M53 0l209 983q4 10 51 10q25 0 48.5 -7t41 -26.5t24.5 -52.5q3 -15 3 -34q0 -22 -4 -48q57 86 141 135.5t189 49.5q80 0 141 -24.5t104 -68t66 -103.5t23 -130q0 -53 -17.5 -131t-42.5 -166q-23 -76 -36 -134t-13 -87q0 -41 21.5 -59.5t62.5 -22.5q2 0 0 -16.5t-14.5 -35 t-39 -34.5t-71.5 -16q-80 0 -121 43t-41 116q0 43 14.5 107.5t36.5 146.5q23 74 36.5 137.5t13.5 100.5q0 94 -50.5 147.5t-146.5 53.5t-163.5 -48.5t-127.5 -148.5l-135 -637h-203z" />
<glyph unicode="o" horiz-adv-x="1204" d="M94 430q0 115 40 219.5t114 184t176 128t227 48.5q100 0 185.5 -34t146.5 -94.5t95 -144.5t34 -182q0 -115 -40 -219.5t-113.5 -184t-176 -128t-227.5 -48.5q-102 0 -186 34t-145.5 94.5t-95.5 144.5t-34 182zM281 438q0 -66 21.5 -121t59 -95t90 -62.5t111.5 -22.5 q78 0 144.5 34t114.5 90t76 130t28 156q0 66 -21.5 121t-59.5 95t-90.5 62.5t-111.5 22.5q-78 0 -144.5 -34t-114.5 -90t-75.5 -130t-27.5 -156z" />
<glyph unicode="p" horiz-adv-x="1263" d="M-27 -389l289 1372q4 10 51 10q27 0 50.5 -8t40 -27.5t22.5 -53.5q3 -15 3 -32q0 -24 -5 -53q63 92 147 141.5t201 49.5q78 0 149.5 -28t127 -82t88 -135t32.5 -185q0 -115 -37.5 -223.5t-107.5 -193.5t-167 -136.5t-216 -51.5q-129 0 -217 60.5t-129 146.5l-121 -571 h-201zM356 471q-6 -32 -6 -63q0 -32 6 -62q13 -59 48.5 -104t92 -73t130.5 -28q82 0 145.5 37t107.5 96.5t66.5 135t22.5 153.5q0 66 -20.5 118t-54.5 88t-80 55.5t-97 19.5q-100 0 -185.5 -55.5t-138.5 -145.5z" />
<glyph unicode="q" horiz-adv-x="1267" d="M100 406q0 115 38 223t107.5 193t167 136.5t216.5 51.5q117 0 208 -50.5t142 -140.5q23 96 58.5 135t101.5 39q31 0 52 -10t21 -14l-288 -1358h-203l115 543q-66 -86 -147 -132.5t-191 -46.5q-80 0 -152 28t-126 83t-87 135t-33 185zM299 422q0 -66 20.5 -118t55.5 -88 t80 -54.5t96 -18.5q63 0 120.5 23.5t103.5 64.5t79 99.5t47 126.5l35 164q-37 104 -101.5 164.5t-189.5 60.5q-84 0 -148.5 -37t-108.5 -97.5t-66.5 -136t-22.5 -153.5z" />
<glyph unicode="r" horiz-adv-x="831" d="M53 0l209 983q4 10 51 10q25 0 48.5 -8t41 -27.5t23.5 -53.5q3 -15 3 -32q0 -24 -5 -53q49 92 114.5 141.5t155.5 49.5q66 0 112 -30t46 -83q0 -37 -13.5 -63.5t-29.5 -42t-29.5 -21.5t-15.5 -4q-20 23 -51 39t-80 16q-55 0 -100.5 -30.5t-82 -87t-64.5 -133t-46 -169.5 l-84 -401h-203z" />
<glyph unicode="s" horiz-adv-x="1003" d="M35 207q0 27 12 47t27.5 32.5t29 17.5t15.5 3q49 -74 136 -126t204 -52q98 0 149 38t51 99q0 55 -53 85t-147 63q-53 18 -105.5 40.5t-94.5 55.5t-67.5 79t-25.5 113q0 68 26.5 124.5t76.5 97.5t121 63.5t159 22.5q115 0 203 -34t139 -87q51 -49 51 -103q0 -29 -13.5 -49 t-30.5 -32.5t-31.5 -16.5t-16.5 0q-41 72 -123 120t-180 48q-96 0 -143.5 -40t-47.5 -93q0 -59 57.5 -91t155.5 -69q55 -20 107.5 -42.5t93.5 -54.5t66.5 -76t25.5 -107q0 -139 -103.5 -223.5t-291.5 -84.5q-129 0 -227.5 38t-153.5 91q-23 23 -37 49.5t-14 53.5z" />
<glyph unicode="t" horiz-adv-x="819" d="M131 819q0 6 2 15q2 6 3 15t5 23q4 16 10.5 46t10.5 47q0 4 1 8t1 8t2 4h160l16 80q18 92 54 130t102 38q33 0 55 -10.5t20 -14.5l-47 -223h305q-2 -6 -4 -14q-2 -6 -3 -15.5t-5 -21.5l-18 -94q-2 -6 -3 -9.5t-1 -7.5v-4h-308l-102 -475q-10 -47 -9 -83q0 -50 18 -78 q32 -48 104 -48q41 0 75.5 18.5t53.5 39.5q4 4 21.5 -17.5t17.5 -56.5q0 -47 -39 -86q-27 -27 -73.5 -43.5t-109.5 -16.5q-154 -1 -224 93q-45 61 -45 158q0 53 13 116l101 479h-160z" />
<glyph unicode="u" horiz-adv-x="1212" d="M124 245q-4 28 -4 57q0 59 15 126l117 557h203l-117 -555q-11 -47 -11 -87q0 -65 29 -113q47 -78 164 -78q98 0 166 49t127 147l135 637h201l-160 -760q-8 -38 -8 -66q1 -27 9 -43q16 -32 79 -38q2 0 0 -15.5t-13.5 -33t-37 -32.5t-70.5 -15q-92 0 -132 48 q-36 44 -36 119v15q-57 -90 -142 -139.5t-189 -49.5q-96 0 -165 33t-109 93.5t-51 143.5z" />
<glyph unicode="v" horiz-adv-x="1075" d="M82 872q-2 0 0 19.5t14.5 43t40 43t76.5 19.5q76 0 125 -47q39 -41 58.5 -108.5t29.5 -171.5l51 -459l457 784q0 2 22.5 1t48 -10t47 -30.5t21.5 -58.5q0 -27 -10 -51.5t-37 -67.5l-487 -778h-209l-94 672q-16 117 -52.5 157.5t-101.5 42.5z" />
<glyph unicode="w" horiz-adv-x="1552" d="M111 897q2 18 15 41t42 41t80 18q72 0 117 -45q69 -69 69 -264v-16l-6 -459l281 567q27 53 58.5 68.5t78.5 15.5q59 0 91 -25.5t36 -84.5l45 -543l362 784h22q21 0 46 -8t46.5 -28.5t25.5 -57.5q4 -23 -4.5 -47.5t-30.5 -65.5l-400 -788h-204l-68 627l-332 -627h-221 l-8 676q-2 117 -38 156.5t-101 46.5q-4 0 -2 18z" />
<glyph unicode="x" horiz-adv-x="1071" d="M14 82q0 33 17.5 60.5t58.5 62.5l309 295l-247 485h219l180 -389l399 410q2 0 19.5 -4.5t38 -16.5t37 -31.5t16.5 -50.5q0 -33 -17.5 -60.5t-58.5 -62.5l-336 -321l82 -162q27 -53 50.5 -86t47 -49.5t51 -22.5t62.5 -8q2 0 2 -22.5t-12 -48t-41 -48t-80 -22.5 q-37 0 -69.5 10t-63.5 39t-61.5 78t-65.5 129l-51 116l-375 -382l-17 4q-18 4 -38.5 16t-38 31.5t-17.5 50.5z" />
<glyph unicode="y" horiz-adv-x="1079" d="M-127 -287q0 18 8 36t18.5 30t19.5 18t11 4q18 -23 53 -36t60 -13q29 0 58.5 11.5t63.5 41t76 79.5t97 130l29 43q-63 12 -76 97l-58 518q-12 109 -49 153.5t-102 46.5q-2 0 -1 19.5t14.5 43t42 43t83.5 19.5q86 0 136.5 -76.5t66.5 -250.5l41 -467l450 782h203 l-604 -1028q-115 -195 -217 -284t-221 -89t-170 54q-33 31 -33 75z" />
<glyph unicode="z" horiz-adv-x="1060" d="M20 0q2 14 7 33q4 14 7 32.5t7 36.5q8 37 21.5 65t54.5 64l649 592h-463q-102 0 -102 68q0 14 5 31.5t11 31t12.5 22.5t8.5 9h790q-4 -16 -8 -33q-4 -14 -7 -32.5t-7 -36.5q-8 -37 -20.5 -64.5t-55.5 -62.5l-647 -594h485q102 0 102 -68q0 -16 -5 -32.5t-11 -30 t-12 -22.5t-8 -9h-814z" />
<glyph unicode="{" horiz-adv-x="956" d="M78 436q0 35 10 79t41 73q14 14 33.5 24.5t70.5 28.5l125 49q41 180 104.5 294t141.5 192q88 90 174 124.5t166 34.5q47 0 75 -22.5t28 -63.5q0 -29 -16.5 -52t-20.5 -23q-76 -4 -152 -38t-129 -89q-76 -74 -120 -185.5t-81 -277.5l-266 -111l211 -151q-57 -367 80 -504 q27 -25 60.5 -43.5t84.5 -30.5q4 -2 10.5 -16.5t6.5 -36.5q0 -47 -27 -74t-80 -27q-109 0 -200 93q-88 90 -125 234t-19 323l-100 73q-53 39 -69.5 62.5t-16.5 60.5z" />
<glyph unicode="|" horiz-adv-x="593" d="M27 -301l327 1542q10 49 34 72.5t71 23.5h24q41 0 61.5 -26.5t10.5 -75.5l-328 -1542q-10 -51 -34.5 -75t-71.5 -24h-25q-41 0 -60.5 27t-8.5 78z" />
<glyph unicode="}" horiz-adv-x="956" d="M-102 -324q0 31 15 53.5t19 22.5q78 4 153 39t130 88q74 76 118 187.5t83 275.5l266 111l-213 153q57 365 -80 502q-47 49 -143 76q-4 2 -11.5 15t-7.5 36q0 47 27 73.5t82 26.5q106 0 199 -92q90 -88 125.5 -232.5t17.5 -324.5l100 -72q55 -39 70.5 -62.5t15.5 -62.5 q0 -35 -10 -77.5t-39 -73.5q-14 -14 -33.5 -24.5t-70.5 -28.5l-125 -47q-43 -180 -106.5 -295t-141.5 -193q-88 -88 -174 -124t-166 -36q-47 0 -73.5 22.5t-26.5 63.5z" />
<glyph unicode="~" horiz-adv-x="1093" d="M219 397q0 39 16.5 77t42 67.5t58.5 47t67 17.5q55 0 129 -39t148 -114q25 53 55.5 97t65.5 44q33 0 49 -18.5t16 -40.5q0 -41 -16 -78t-42 -67t-59.5 -47t-66.5 -17q-55 0 -129 38.5t-147 114.5q-25 -53 -56 -97t-65 -44q-33 0 -49.5 18.5t-16.5 40.5z" />
<glyph unicode="&#xa1;" horiz-adv-x="602" d="M66 -4l260 887q10 31 23 45t36 14q39 0 51.5 -16.5t9.5 -61.5l-114 -868h-266zM328 1178q0 39 10 72.5t33 56.5q16 16 37.5 24t60.5 8q117 0 117 -86q0 -39 -9.5 -72.5t-31.5 -56.5q-16 -16 -39 -24t-62 -8q-117 0 -116 86z" />
<glyph unicode="&#xa2;" horiz-adv-x="1175" d="M137 514q0 113 41 215t112.5 182t171 130.5t214.5 56.5l35 155q10 55 30.5 77t55.5 22h10q35 0 62.5 -20.5t17.5 -78.5l-37 -170q70 -16 121 -44.5t88 -65.5q41 -41 60.5 -85t19.5 -83q0 -43 -22.5 -65.5t-49.5 -32t-49.5 -8.5t-22.5 8q-16 76 -63 130t-125 76l-148 -688 q92 6 156 50t107 116q2 2 19 -1t36.5 -13t36 -28.5t16.5 -49.5q0 -25 -14.5 -54.5t-48.5 -62.5q-49 -51 -136.5 -88t-199.5 -39l-33 -161q-12 -53 -32.5 -75t-53.5 -22h-12q-35 0 -62.5 19.5t-15.5 77.5l37 182q-143 41 -232.5 152.5t-89.5 285.5zM334 528q0 -98 45 -171.5 t127 -108.5l143 674q-72 -12 -130 -49t-99 -91.5t-63.5 -120t-22.5 -133.5z" />
<glyph unicode="&#xa3;" horiz-adv-x="1218" d="M18 55q0 18 9.5 50t25.5 49q20 23 72 22h88l102 350h-131q-74 0 -73 49q0 18 8 47t24 46q12 12 27.5 17t44.5 5h147l62 211q35 121 78 206t98 139t125 80t158 26q94 0 161.5 -28t110.5 -71q35 -33 50.5 -69.5t15.5 -69.5q0 -43 -18.5 -66.5t-42 -36t-43 -14.5t-19.5 2 q-23 92 -79 136.5t-142 44.5q-47 0 -85 -15.5t-71 -52.5t-60.5 -97.5t-54.5 -150.5l-51 -174h303q80 0 80 -53q0 -16 -7 -45t-24 -45q-12 -10 -27.5 -15.5t-43.5 -5.5h-330l-100 -350h585q59 0 84 -19.5t25 -54.5t-17.5 -68.5t-21.5 -33.5h-957q-86 0 -86 55z" />
<glyph unicode="&#xa4;" horiz-adv-x="1355" d="M96 481q0 18 7.5 42t19.5 38q25 20 65 21h109q6 39 15.5 81t19.5 89h-92q-76 0 -76 47q0 18 7 41.5t19 36.5q20 20 66 20h123q31 80 73 152.5t97 128.5q88 88 189.5 131t230.5 43q111 0 191.5 -34t133.5 -87q35 -35 52.5 -78t17.5 -84t-18.5 -65.5t-41 -37t-42 -15.5 t-21.5 1q-35 117 -108.5 170.5t-184.5 53.5q-80 0 -142.5 -28t-113.5 -79q-35 -35 -60.5 -79t-47.5 -93h387q76 0 76 -45q0 -20 -7.5 -44t-21.5 -36q-20 -20 -64 -20h-422q-12 -47 -20 -90.5t-12 -79.5h403q76 0 76 -47q0 -20 -8 -44t-21 -36q-20 -20 -63 -21h-391 q16 -123 91 -203.5t208 -80.5q98 0 171.5 43t143.5 137q2 2 16.5 -3t31 -17.5t29.5 -32t13 -44.5q0 -59 -65 -124q-57 -55 -150.5 -94.5t-198.5 -39.5q-229 0 -356 125t-139 334h-121q-74 0 -74 47z" />
<glyph unicode="&#xa5;" d="M106 279q0 20 7.5 44.5t21.5 38.5q20 20 68 21h317l29 139h-303q-78 0 -78 49q0 20 7 44t22 38q20 20 67 21h254l-254 588q-2 6 6.5 17t24.5 23.5t38.5 21.5t51.5 9q33 0 60.5 -19.5t43.5 -66.5l193 -510l471 604l21 -2q20 -2 43.5 -13t43 -31.5t19.5 -57.5 q0 -27 -14.5 -57.5t-57.5 -77.5l-370 -428h237q78 0 78 -47q0 -20 -7 -45t-22 -39q-20 -20 -67 -21h-318l-30 -139h305q78 0 78 -49q0 -20 -7.5 -44t-21.5 -38q-20 -20 -68 -21h-317l-31 -143q-10 -53 -36.5 -74.5t-71.5 -21.5h-9q-43 0 -62 22.5t-9 75.5l28 141h-303 q-78 0 -78 48z" />
<glyph unicode="&#xa6;" horiz-adv-x="593" d="M27 -301l131 612q10 49 33.5 73t70.5 24h25q41 0 61.5 -27t9.5 -76l-131 -612q-10 -51 -34.5 -75t-71.5 -24h-25q-41 0 -60.5 27t-8.5 78zM223 629l131 612q10 49 34 72.5t71 23.5h24q41 0 61.5 -26.5t10.5 -75.5l-131 -612q-10 -51 -34.5 -75t-72.5 -24h-24 q-41 0 -60.5 27t-9.5 78z" />
<glyph unicode="&#xa7;" horiz-adv-x="1179" d="M-16 -90q0 31 14 53.5t32.5 36.5t34 20.5t17.5 4.5q45 -88 143.5 -148.5t251.5 -60.5q123 0 185.5 45t62.5 123q0 35 -20.5 60.5t-56.5 47t-83 38.5t-100 38q-61 20 -125 46t-115 60.5t-82.5 84t-31.5 118.5q0 63 21.5 113.5t58 89.5t87 65.5t107.5 40.5q-53 35 -87 86.5 t-34 128.5q0 76 32 140.5t90 110.5t142 72t187 26q147 0 238 -37t141 -86q29 -29 43 -59.5t14 -53.5q0 -31 -15.5 -53.5t-35 -36.5t-35.5 -19.5t-18 -0.5q-47 84 -131.5 135t-206.5 51q-117 0 -179.5 -44t-62.5 -114q0 -37 20.5 -64.5t56.5 -50t84 -42t103 -39.5 q61 -23 122.5 -48.5t111 -59.5t80 -81t30.5 -112q0 -66 -21.5 -117t-58.5 -90t-86 -64.5t-106 -40.5q55 -33 91 -83t36 -128t-31 -142.5t-90 -112.5t-146 -74.5t-200 -26.5q-160 0 -262.5 38t-157.5 93q-33 33 -46 63.5t-13 59.5zM301 526q0 -43 21.5 -73.5t58.5 -54t87 -42 t107 -39.5l76 -24q47 2 89 17.5t75 41t51.5 60t18.5 75.5t-20.5 70t-57.5 50.5t-85 40t-104 36.5q-23 8 -46 15.5t-46 17.5q-94 -14 -159.5 -63.5t-65.5 -127.5z" />
<glyph unicode="&#xa8;" horiz-adv-x="1093" d="M393 1217q0 59 35 100t94 41t89 -25.5t30 -72.5q0 -59 -34 -100.5t-93 -41.5t-90 25.5t-31 73.5zM768 1217q0 59 35 100t94 41t90 -25.5t31 -72.5q0 -59 -35 -100.5t-94 -41.5t-90 25.5t-31 73.5z" />
<glyph unicode="&#xa9;" horiz-adv-x="1613" d="M166 659q0 150 51 277t141.5 219t214 144.5t271.5 52.5q150 0 273.5 -51.5t212.5 -142.5t139.5 -217t50.5 -275q0 -150 -51.5 -277t-141.5 -219t-214 -144.5t-271 -52.5q-150 0 -274 51.5t-213 142.5t-139 217t-50 275zM285 664q0 -125 42 -231.5t116.5 -183.5t178 -121 t224.5 -44q123 0 225.5 42t175 119t113.5 182t41 235q0 125 -42 231t-117 183t-178 121t-224 44q-123 0 -225.5 -42t-175 -118.5t-113.5 -182t-41 -234.5zM494 659q0 80 28.5 147.5t77.5 117t115.5 77t144.5 27.5q86 0 145.5 -27.5t90.5 -56.5q37 -41 37 -82 q0 -20 -12.5 -36.5t-28 -27t-27.5 -14.5t-14 0q-61 102 -191 103q-43 0 -81 -17.5t-66.5 -47t-46 -70.5t-17.5 -90t17.5 -91.5t46 -73t68.5 -47t85 -16.5q70 0 117 30t74 81q2 2 15 -1t28.5 -13.5t28 -27t12.5 -38.5q0 -43 -45 -90q-31 -31 -90.5 -57.5t-145.5 -26.5 q-80 0 -147.5 26.5t-116.5 75.5t-75.5 117t-26.5 149z" />
<glyph unicode="&#xaa;" horiz-adv-x="1095" d="M162 852q0 92 32.5 182t91 161t139.5 114t177 43q90 0 159.5 -40t104.5 -112q16 76 49 107.5t89 31.5q27 0 46 -9t17 -13l-125 -592q-14 -61 -1 -89t63 -32q2 0 -0.5 -12t-12.5 -26.5t-31.5 -27t-60.5 -12.5q-76 0 -109.5 43t-29.5 115q-49 -78 -125 -121t-166 -43 q-66 0 -121 22.5t-97 64.5t-65.5 103.5t-23.5 141.5zM313 63q0 35 8.5 65t28.5 50q16 16 36 23.5t54 7.5q104 0 105 -78q0 -35 -8.5 -64.5t-30.5 -52.5q-16 -14 -34.5 -21t-53.5 -7q-104 0 -105 77zM336 870q0 -96 54 -149t132 -53q51 0 98.5 20.5t84 54t63.5 79.5t39 100 l24 120q-25 78 -77 123t-138 45q-66 0 -118 -29.5t-87.5 -78.5t-55 -109.5t-19.5 -122.5z" />
<glyph unicode="&#xab;" horiz-adv-x="1132" d="M125 524q0 6 14.5 23.5t39 44t58 57.5t74.5 64q66 53 127.5 90t106.5 37q35 0 52 -19.5t17 -48.5q0 -39 -50 -88t-128 -96q-33 -20 -69.5 -44t-77.5 -44q63 -45 125 -105q66 -59 95.5 -95t31.5 -69q2 -29 -20.5 -49t-57.5 -20q-47 0 -99.5 41t-105.5 106q-29 35 -52.5 71 t-42 65.5t-28.5 51t-10 27.5zM555 504q0 6 17.5 25.5t46 48t65.5 61.5t78 66q68 55 134.5 96t113.5 41q35 0 53 -19.5t18 -48.5q0 -41 -60 -97t-147 -108q-35 -23 -73.5 -45t-81.5 -45q66 -47 110 -90q55 -53 82 -86t27 -65q0 -31 -23.5 -52.5t-60.5 -21.5q-47 0 -94 40 t-92 99q-25 31 -45.5 64.5t-36 61.5t-23.5 48.5t-8 26.5z" />
<glyph unicode="&#xac;" horiz-adv-x="1228" d="M100 608v170h1012v-581h-184v411h-828z" />
<glyph unicode="&#xad;" horiz-adv-x="874" d="M98 406q2 8 4 20q2 18 13 57l6 29q4 16 7 31.5t5 25.5q2 12 4 23h637q-2 -10 -4 -23q-2 -10 -5 -25.5t-7 -31.5l-6 -29q-10 -39 -13 -57q-2 -12 -4 -20h-637z" />
<glyph unicode="&#xae;" horiz-adv-x="1613" d="M166 659q0 150 51 277t141.5 219t214 144.5t271.5 52.5q150 0 273.5 -51.5t212.5 -142.5t139.5 -217t50.5 -275q0 -150 -51.5 -277t-141.5 -219t-214 -144.5t-271 -52.5q-150 0 -274 51.5t-213 142.5t-139 217t-50 275zM285 664q0 -125 42 -231.5t116.5 -183.5t178 -121 t224.5 -44q123 0 225.5 42t175 119t113.5 182t41 235q0 125 -42 231t-117 183t-178 121t-224 44q-123 0 -225.5 -42t-175 -118.5t-113.5 -182t-41 -234.5zM571 391v545q0 41 21.5 63.5t58.5 22.5h217q141 0 214 -55t73 -170q0 -98 -57.5 -149.5t-134.5 -63.5l182 -222 q2 -4 -3 -13t-17.5 -19.5t-29 -18.5t-36.5 -8q-23 0 -49.5 12.5t-48.5 44.5l-156 205h-80v-188q0 -72 -68 -72h-20q-33 0 -49.5 22.5t-16.5 63.5zM721 684h145q66 0 100.5 28.5t34.5 78.5q0 106 -141 106h-139v-213z" />
<glyph unicode="&#xaf;" horiz-adv-x="1093" d="M383 1204q0 18 7 48t24 46q20 20 73 21h459q84 0 84 -53q0 -16 -8 -46t-25 -46q-20 -23 -73 -23h-459q-82 0 -82 53z" />
<glyph unicode="&#xb0;" horiz-adv-x="862" d="M197 983q0 74 26.5 141.5t74.5 118.5t114.5 81t146.5 30q61 0 114.5 -19.5t92.5 -56.5t61.5 -88t22.5 -115q0 -74 -26.5 -140.5t-75 -117.5t-115 -80.5t-146.5 -29.5q-125 0 -207.5 74.5t-82.5 201.5zM342 993q0 -68 46 -113.5t118 -45.5q43 0 79 19t62.5 52t42 75 t15.5 87q0 68 -46.5 114t-117.5 46q-43 0 -79 -19.5t-62.5 -52.5t-42 -75t-15.5 -87z" />
<glyph unicode="&#xb1;" horiz-adv-x="1298" d="M141 248q0 20 9.5 49t23.5 43q23 23 72 22h731q84 0 84 -53q0 -20 -8.5 -49t-24.5 -43q-23 -23 -72 -22h-731q-84 0 -84 53zM289 862q0 18 8 46t22 42q23 23 70 23h277l55 264q10 47 31.5 66.5t50.5 19.5h20q35 0 56.5 -21.5t11.5 -68.5l-55 -260h260q80 0 80 -53 q0 -18 -7.5 -46t-23.5 -43q-23 -23 -70 -22h-274l-53 -254q-10 -47 -33 -66.5t-51 -19.5h-21q-35 0 -55.5 21.5t-9.5 68.5l53 250h-260q-82 0 -82 53z" />
<glyph unicode="&#xb2;" horiz-adv-x="757" d="M68 680q12 111 79 182q41 43 94.5 67.5t112.5 45.5q45 14 82 28.5t62.5 30t39 36t13.5 48.5q0 41 -35 65.5t-94 24.5q-66 0 -104.5 -34.5t-61.5 -86.5h-16q-15 0 -32.5 7.5t-31.5 23t-14 45.5q0 25 13 51.5t36 49.5q35 35 94.5 56t136.5 21q123 0 195 -57t72 -156 q0 -59 -20.5 -99t-55.5 -68.5t-83 -48t-104 -35.5q-68 -23 -116.5 -41.5t-81.5 -51.5q-29 -29 -37 -69h340q84 0 84 -56q0 -27 -14.5 -51t-16.5 -24h-475q-35 0 -50.5 26.5t-10.5 69.5z" />
<glyph unicode="&#xb3;" horiz-adv-x="757" d="M53 737q0 35 15.5 54.5t35 28.5t36 9t16.5 -2q10 -61 55 -96t123 -35t115.5 36t37.5 87q0 41 -28.5 65.5t-87.5 24.5h-37q-59 0 -60 45q0 12 5.5 29.5t15.5 28.5q10 12 25.5 15t44.5 3h45q80 0 107.5 28.5t27.5 67.5t-36 63.5t-93 24.5q-68 0 -109 -30.5t-63 -69.5 q0 -2 -14.5 -2t-31 7t-29.5 21.5t-13 41.5q0 41 37 78t96 59t137 22q119 0 197.5 -52t78.5 -138q0 -72 -42 -122t-128 -66q57 -23 85 -62t28 -92q0 -43 -16.5 -86t-53 -77t-96 -55.5t-145.5 -21.5t-145.5 21.5t-90.5 52.5q-27 25 -36 48.5t-9 45.5z" />
<glyph unicode="&#xb4;" horiz-adv-x="1093" d="M532 1137q-4 6 19.5 38.5t64.5 75.5t92.5 87t102.5 75q49 31 100 31q41 0 64.5 -25.5t23.5 -60.5q0 -33 -24.5 -62.5t-69.5 -56.5q-59 -35 -123.5 -57.5t-118 -34.5t-90.5 -14t-41 4z" />
<glyph unicode="&#xb5;" horiz-adv-x="1212" d="M-14 -293l266 1278h203l-125 -592q-14 -98 26 -164q47 -78 164 -77q98 0 166 49t127 147l135 637h201l-160 -760q-16 -78 0.5 -109.5t79.5 -37.5q2 0 0 -15.5t-13.5 -33t-37 -32.5t-70.5 -15q-92 0 -132 48t-36 134q-57 -90 -142 -139.5t-189 -49.5q-96 0 -166 33 q-14 6 -29 15l-66 -318q-16 -78 1.5 -110.5t86.5 -36.5q2 0 0 -15.5t-14 -33t-38.5 -33t-73.5 -15.5q-113 0 -150 65.5t-14 180.5z" />
<glyph unicode="&#xb6;" horiz-adv-x="1290" d="M162 895q0 88 28.5 167t91 137t161 92t237.5 34h248q49 0 71.5 -27.5t12.5 -74.5l-246 -1157q-10 -41 -28.5 -57.5t-53.5 -16.5h-20q-35 0 -51.5 21.5t-6.5 60.5l107 506h-105q-217 0 -331.5 78.5t-114.5 236.5zM883 74l252 1183q14 74 79 74h23q74 0 57 -82l-252 -1183 q-10 -41 -28.5 -57.5t-52.5 -16.5h-21q-35 0 -51.5 21.5t-5.5 60.5z" />
<glyph unicode="&#xb7;" horiz-adv-x="544" d="M145 463q0 39 10.5 72.5t32.5 56.5q16 16 38 24.5t61 8.5q117 0 116 -86q0 -39 -9 -73t-32 -56q-16 -16 -38.5 -24.5t-61.5 -8.5q-117 0 -117 86z" />
<glyph unicode="&#xb8;" horiz-adv-x="1093" d="M182 -424l209 332q2 2 26.5 1t53.5 -10.5t52.5 -27.5t23.5 -51q0 -31 -15.5 -56.5t-50.5 -54.5l-215 -188q-10 -8 -26.5 -4t-31.5 13t-24.5 21.5t-1.5 24.5z" />
<glyph unicode="&#xb9;" horiz-adv-x="757" d="M82 637q0 8 4 25.5t14 27.5q10 16 24.5 23.5t47.5 7.5h121l96 420q-47 -43 -104 -43q-47 0 -73 24.5t-26 63.5q0 25 8.5 43t18.5 30.5t19.5 17.5t11.5 5q12 -16 33.5 -29.5t54.5 -13.5q35 0 69.5 25.5t51.5 68.5h61q70 0 55 -78l-123 -534h113q70 0 64 -53 q0 -8 -4.5 -25.5t-14.5 -28.5q-14 -31 -69 -30h-388q-70 0 -65 53z" />
<glyph unicode="&#xba;" horiz-adv-x="985" d="M172 887q0 90 32 174t90 148.5t140 103.5t182 39q84 0 153 -27t118 -75t76.5 -115.5t27.5 -149.5q0 -92 -31.5 -176t-91 -148.5t-142.5 -102.5t-183 -38q-84 0 -151.5 26.5t-117 75t-76 116t-26.5 149.5zM285 63q0 35 9 65t28 50q16 16 36.5 23.5t55.5 7.5q104 0 104 -78 q0 -35 -9 -64.5t-30 -52.5q-16 -14 -35.5 -21t-54.5 -7q-104 0 -104 77zM334 891q0 -49 16.5 -91t46 -73t68.5 -48t84 -17q59 0 110.5 25.5t88 69.5t58 101t21.5 121q0 49 -16 91t-46 73t-70 48t-85 17q-59 0 -110 -25.5t-88 -69.5t-57.5 -101.5t-20.5 -120.5z" />
<glyph unicode="&#xbb;" horiz-adv-x="1132" d="M55 225q0 41 59.5 97.5t145.5 107.5q37 20 76 44t80 46q-35 25 -59.5 46.5t-49.5 43.5q-57 53 -82.5 86t-25.5 66q0 31 23.5 51.5t58.5 20.5q47 0 95 -39t91 -99q25 -33 45 -65.5t35.5 -60t25 -48t9.5 -26.5t-17.5 -25.5t-46.5 -48.5t-66.5 -62.5t-76.5 -66.5 q-68 -53 -135.5 -94t-112.5 -41q-35 0 -53.5 19.5t-18.5 47.5zM522 227q0 39 49.5 88.5t128.5 96.5q33 20 70 42.5t78 45.5q-35 25 -65.5 50t-61.5 52q-66 59 -95.5 95t-29.5 71q-2 29 20.5 49.5t57.5 20.5q47 0 99 -41t104 -107q27 -35 51 -70.5t42.5 -65.5t29 -51.5 t10.5 -27.5t-14.5 -23.5t-39 -44t-58.5 -57.5t-73 -63q-66 -53 -127 -90t-108 -37q-33 0 -50.5 19.5t-17.5 47.5z" />
<glyph unicode="&#xbc;" horiz-adv-x="1691" d="M82 637q0 8 4 25.5t14 27.5q10 16 24.5 23.5t47.5 7.5h121l96 420q-47 -43 -104 -43q-47 0 -73 24.5t-26 63.5q0 25 8.5 43t18.5 30.5t19.5 17.5t11.5 5q12 -16 33.5 -29.5t54.5 -13.5q35 0 69.5 25.5t51.5 68.5h61q70 0 55 -78l-123 -534h113q70 0 64 -53 q0 -8 -4.5 -25.5t-14.5 -28.5q-14 -31 -69 -30h-388q-70 0 -65 53zM205 20q6 29 20.5 48.5t53.5 58.5q14 14 69 67.5t131 127t163 156.5t167 161q39 39 89 87t106.5 101.5t114 108.5t112.5 108q127 123 262 254q2 2 13.5 -2t23.5 -13t20.5 -24.5t3.5 -37.5q-4 -23 -20 -47.5 t-53 -59.5q-16 -16 -71.5 -69.5t-132.5 -127t-164 -158.5t-165 -161q-39 -39 -89 -87t-105.5 -101.5t-112.5 -109.5t-111 -107q-127 -123 -260 -252q-4 -4 -16 0t-24.5 15t-20.5 26.5t-4 37.5zM1006 276q0 29 15 53.5t46 61.5l274 295q33 37 57.5 50.5t82.5 13.5 q68 0 94.5 -26t11.5 -85l-69 -328h57q61 0 61 -43q0 -12 -6 -33.5t-18 -33.5q-8 -8 -19.5 -12.5t-36.5 -4.5h-65l-25 -114q-10 -45 -25.5 -61.5t-43.5 -16.5h-21q-31 0 -50 17.5t-7 62.5l22 112h-286q-6 0 -27.5 26t-21.5 66zM1145 309h231l68 324z" />
<glyph unicode="&#xbd;" horiz-adv-x="1691" d="M82 637q0 8 4 25.5t14 27.5q10 16 24.5 23.5t47.5 7.5h121l96 420q-47 -43 -104 -43q-47 0 -73 24.5t-26 63.5q0 25 8.5 43t18.5 30.5t19.5 17.5t11.5 5q12 -16 33.5 -29.5t54.5 -13.5q35 0 69.5 25.5t51.5 68.5h61q70 0 55 -78l-123 -534h113q70 0 64 -53 q0 -8 -4.5 -25.5t-14.5 -28.5q-14 -31 -69 -30h-388q-70 0 -65 53zM147 20q6 29 20.5 48.5t53.5 58.5q14 14 69.5 67.5t131.5 127t163 156.5t167 161q39 39 89 87t106.5 101.5t113.5 108.5t113 108q127 123 262 254q2 2 13 -2t23.5 -13t20.5 -24.5t4 -37.5 q-4 -23 -20.5 -47.5t-53.5 -59.5q-16 -16 -71.5 -69.5t-132 -127t-163.5 -158.5t-165 -161q-39 -39 -89 -87t-105.5 -101.5t-113 -109.5t-110.5 -107q-127 -123 -260 -252q-4 -4 -16.5 0t-24.5 15t-20.5 26.5t-4.5 37.5zM1001 96q12 111 80 183q41 43 94.5 67.5t112.5 44.5 q45 14 82 28.5t62.5 30t39 36t13.5 49.5q0 41 -35 65.5t-94 24.5q-66 0 -105 -35t-61 -86h-16q-15 0 -32.5 7t-31.5 22.5t-14 46.5q0 25 13 51t36 49q35 35 94 56.5t137 21.5q123 0 194.5 -57.5t71.5 -155.5q0 -59 -20 -99t-55 -69t-83 -48.5t-104 -35.5q-68 -23 -116.5 -41 t-81.5 -51q-29 -29 -37 -70h340q84 0 84 -55q0 -27 -14.5 -51.5t-16.5 -24.5h-475q-35 0 -50.5 26.5t-11.5 69.5z" />
<glyph unicode="&#xbe;" horiz-adv-x="1691" d="M53 737q0 35 15.5 54.5t35 28.5t36 9t16.5 -2q10 -61 55 -96t123 -35t115.5 36t37.5 87q0 41 -28.5 65.5t-87.5 24.5h-37q-59 0 -60 45q0 12 5.5 29.5t15.5 28.5q10 12 25.5 15t44.5 3h45q80 0 107.5 28.5t27.5 67.5t-36 63.5t-93 24.5q-68 0 -109 -30.5t-63 -69.5 q0 -2 -14.5 -2t-31 7t-29.5 21.5t-13 41.5q0 41 37 78t96 59t137 22q119 0 197.5 -52t78.5 -138q0 -72 -42 -122t-128 -66q57 -23 85 -62t28 -92q0 -43 -16.5 -86t-53 -77t-96 -55.5t-145.5 -21.5t-145.5 21.5t-90.5 52.5q-27 25 -36 48.5t-9 45.5zM197 20q6 29 20 48.5 t53 58.5q14 14 69.5 67.5t131.5 127t163 156.5t167 161q39 39 89 87t106.5 101.5t113.5 108.5t113 108q127 123 262 254q2 2 13 -2t23.5 -13t20.5 -24.5t4 -37.5q-4 -23 -20.5 -47.5t-52.5 -59.5q-16 -16 -71.5 -69.5t-132.5 -127t-164 -158.5t-165 -161q-39 -39 -89 -87 t-105.5 -101.5t-113 -109.5t-110.5 -107q-127 -123 -260 -252q-4 -4 -16.5 0t-24.5 15t-20 26.5t-4 37.5zM1006 276q0 29 15 53.5t46 61.5l274 295q33 37 57.5 50.5t82.5 13.5q68 0 94.5 -26t11.5 -85l-69 -328h57q61 0 61 -43q0 -12 -6 -33.5t-18 -33.5q-8 -8 -19.5 -12.5 t-36.5 -4.5h-65l-25 -114q-10 -45 -25.5 -61.5t-43.5 -16.5h-21q-31 0 -50 17.5t-7 62.5l22 112h-286q-6 0 -27.5 26t-21.5 66zM1145 309h231l68 324z" />
<glyph unicode="&#xbf;" horiz-adv-x="1050" d="M51 334q0 90 32 151.5t80 102.5t105.5 66.5t110.5 41.5q104 35 150 82t55 86q2 12 5 26.5t7 27.5q4 14 6 28h184q0 -6 -4 -18q-6 -25 -18 -82q-18 -90 -74.5 -162t-183.5 -115q-59 -20 -105.5 -40.5t-77 -47t-47 -60.5t-16.5 -81q0 -84 62.5 -141.5t173.5 -57.5 t186.5 63.5t112.5 162.5q0 2 19.5 0t41 -12.5t39.5 -30t18 -52.5q0 -43 -22.5 -87t-61.5 -83q-59 -59 -144 -96t-202 -37q-98 0 -178 28t-136 77t-87 115.5t-31 144.5zM590 1174q0 39 10 72.5t33 56.5q16 16 37.5 24t60.5 8q117 0 117 -86q0 -39 -9.5 -72.5t-31.5 -56.5 q-16 -16 -39 -24.5t-61 -8.5q-117 0 -117 87z" />
<glyph unicode="&#xc0;" horiz-adv-x="1361" d="M-68 0l762 1274q20 35 48 50t87 15q74 0 100.5 -21.5t35.5 -55.5l249 -1262h-215l-75 389h-533l-223 -389h-236zM477 559h426l-102 559zM541 1716q0 37 26.5 62.5t65.5 25.5q25 0 51.5 -11t49.5 -30q45 -35 87 -82t71.5 -90t45 -75.5t11.5 -38.5q-6 -6 -39 -3t-81 17 t-104.5 41t-107.5 63q-76 55 -76 121z" />
<glyph unicode="&#xc1;" horiz-adv-x="1361" d="M-68 0l762 1274q20 35 48 50t87 15q74 0 100.5 -21.5t35.5 -55.5l249 -1262h-215l-75 389h-533l-223 -389h-236zM477 559h426l-102 559zM735 1477q-4 6 19.5 38.5t64.5 75.5t92.5 87t102.5 75q49 31 100 31q41 0 64.5 -25.5t23.5 -60.5q0 -33 -24.5 -62.5t-69.5 -56.5 q-59 -35 -123.5 -57.5t-118 -34.5t-90.5 -14t-41 4z" />
<glyph unicode="&#xc2;" horiz-adv-x="1361" d="M-68 0l762 1274q20 35 48 50t87 15q74 0 100.5 -21.5t35.5 -55.5l249 -1262h-215l-75 389h-533l-223 -389h-236zM477 559h426l-102 559zM566 1518q0 39 34.5 83t100.5 97q33 27 66.5 50.5t62 41.5t50 28.5t32.5 12.5q14 -4 57 -42t84 -87q45 -53 64.5 -93t19.5 -69 q0 -37 -20.5 -58.5t-51.5 -21.5q-33 0 -62.5 30t-64.5 93q-10 20 -23.5 43t-27.5 51q-23 -27 -44 -50t-44 -46q-51 -57 -95 -89t-79 -32q-29 0 -44 17.5t-15 40.5z" />
<glyph unicode="&#xc3;" horiz-adv-x="1361" d="M-68 0l762 1274q20 35 48 50t87 15q74 0 100.5 -21.5t35.5 -55.5l249 -1262h-215l-75 389h-533l-223 -389h-236zM477 559h426l-102 559zM539 1530q0 39 16.5 77t42 67.5t58.5 47t67 17.5q55 0 129 -39t148 -115q25 53 55.5 97t65.5 44q33 0 49 -18t16 -41 q0 -41 -16.5 -78t-42 -66.5t-59 -47t-66.5 -17.5q-55 0 -129 39t-148 115q-25 -53 -55.5 -97.5t-64.5 -44.5q-33 0 -49.5 18.5t-16.5 41.5z" />
<glyph unicode="&#xc4;" horiz-adv-x="1361" d="M-68 0l762 1274q20 35 48 50t87 15q74 0 100.5 -21.5t35.5 -55.5l249 -1262h-215l-75 389h-533l-223 -389h-236zM477 559h426l-102 559zM549 1557q0 59 35 100t94 41t89 -25.5t30 -72.5q0 -59 -34 -100.5t-93 -41.5t-90 25.5t-31 73.5zM924 1557q0 59 35 100t94 41 t90 -25.5t31 -72.5q0 -59 -35 -100.5t-94 -41.5t-90 25.5t-31 73.5z" />
<glyph unicode="&#xc5;" horiz-adv-x="1361" d="M-68 0l734 1227q0 2 2 4l26 43l4 4q-84 57 -84 166q0 55 20.5 104t56.5 88t86 61.5t110 22.5q104 0 168.5 -58t64.5 -151q0 -80 -43 -148.5t-112 -102.5l10 -48h-2l241 -1212h-215l-75 389h-533l-223 -389h-236zM477 559h426l-102 559zM739 1452q0 -47 31 -80t82 -33 q33 0 59.5 13.5t45 36t28.5 51t10 57.5q0 47 -31.5 80t-80.5 33q-33 0 -59.5 -13.5t-45 -36t-29 -51t-10.5 -57.5z" />
<glyph unicode="&#xc6;" horiz-adv-x="1828" d="M14 92q0 29 11.5 55.5t37.5 73.5l611 1018q25 41 57.5 63.5t97.5 22.5h940q92 0 93 -59q0 -20 -10.5 -54t-26.5 -51q-12 -14 -29.5 -18t-52.5 -4h-758l76 -373h455q86 0 86 -55q0 -18 -8.5 -51t-24.5 -50q-12 -10 -29.5 -16t-48.5 -6h-395l80 -402h385q92 0 92 -57 q0 -23 -10.5 -55.5t-26.5 -50.5q-23 -23 -82 -23h-416q-68 0 -100.5 23.5t-42.5 89.5l-51 276h-533l-227 -399q0 -2 -23.5 -2t-51.5 9t-51.5 30.5t-23.5 64.5zM477 559h426l-102 559z" />
<glyph unicode="&#xc7;" horiz-adv-x="1398" d="M147 553q0 160 56.5 305.5t156 254t235.5 173t296 64.5q154 0 252 -43t155 -103q45 -43 65.5 -89t20.5 -77q0 -41 -20.5 -65.5t-45 -36.5t-47 -15t-26.5 1q-90 242 -356 241q-111 0 -206 -47t-164.5 -127t-109.5 -185.5t-40 -223.5q0 -96 29.5 -173t81.5 -130.5t126 -83 t162 -29.5q129 0 225.5 51t155.5 143q2 2 19.5 -2t37 -16t34.5 -33.5t15 -52.5q0 -57 -65 -123q-61 -61 -175 -108.5t-255 -47.5q-139 0 -252 40t-192.5 115t-124 182.5t-44.5 240.5zM469 -424l209 332q2 2 26.5 1t53 -10.5t52.5 -27.5t24 -51q0 -31 -15.5 -56.5 t-50.5 -54.5l-215 -188q-10 -8 -26.5 -4t-32 13t-24.5 21.5t-1 24.5z" />
<glyph unicode="&#xc8;" horiz-adv-x="1271" d="M70 0l258 1208q23 117 137 117h866q-2 -12 -6 -29q-4 -14 -6 -31.5t-6 -33.5q-8 -41 -21 -92h-768l-80 -373h623l-37 -178h-624l-84 -402h780l-39 -186h-993zM598 1716q0 37 26.5 62.5t65.5 25.5q25 0 51.5 -11t49.5 -30q45 -35 87 -82t71.5 -90t45 -75.5t11.5 -38.5 q-6 -6 -39 -3t-81 17t-104.5 41t-107.5 63q-76 55 -76 121z" />
<glyph unicode="&#xc9;" horiz-adv-x="1271" d="M70 0l258 1208q23 117 137 117h866q-2 -12 -6 -29q-4 -14 -6 -31.5t-6 -33.5q-8 -41 -21 -92h-768l-80 -373h623l-37 -178h-624l-84 -402h780l-39 -186h-993zM722 1477q-4 6 19.5 38.5t64.5 75.5t92.5 87t102.5 75q49 31 100 31q41 0 64.5 -25.5t23.5 -60.5 q0 -33 -24.5 -62.5t-69.5 -56.5q-59 -35 -123.5 -57.5t-118 -34.5t-90.5 -14t-41 4z" />
<glyph unicode="&#xca;" horiz-adv-x="1271" d="M70 0l258 1208q23 117 137 117h866q-2 -12 -6 -29q-4 -14 -6 -31.5t-6 -33.5q-8 -41 -21 -92h-768l-80 -373h623l-37 -178h-624l-84 -402h780l-39 -186h-993zM588 1518q0 39 34.5 83t100.5 97q33 27 66.5 50.5t62 41.5t50 28.5t32.5 12.5q14 -4 57 -42t84 -87 q45 -53 64.5 -93t19.5 -69q0 -37 -20.5 -58.5t-51.5 -21.5q-33 0 -62.5 30t-64.5 93q-10 20 -23.5 43t-27.5 51q-23 -27 -44 -50t-44 -46q-51 -57 -95 -89t-79 -32q-29 0 -44 17.5t-15 40.5z" />
<glyph unicode="&#xcb;" horiz-adv-x="1271" d="M70 0l258 1208q23 117 137 117h866q-2 -12 -6 -29q-4 -14 -6 -31.5t-6 -33.5q-8 -41 -21 -92h-768l-80 -373h623l-37 -178h-624l-84 -402h780l-39 -186h-993zM555 1557q0 59 35 100t94 41t89 -25.5t30 -72.5q0 -59 -34 -100.5t-93 -41.5t-90 25.5t-31 73.5zM930 1557 q0 59 35 100t94 41t90 -25.5t31 -72.5q0 -59 -35 -100.5t-94 -41.5t-90 25.5t-31 73.5z" />
<glyph unicode="&#xcc;" horiz-adv-x="600" d="M90 0l264 1237q10 49 34 72.5t71 23.5h28q47 0 67.5 -26.5t8.5 -75.5l-262 -1231h-211zM190 1716q0 37 26.5 62.5t65.5 25.5q25 0 51.5 -11t49.5 -30q45 -35 87 -82t71.5 -90t45 -75.5t11.5 -38.5q-6 -6 -39 -3t-81 17t-104.5 41t-107.5 63q-76 55 -76 121z" />
<glyph unicode="&#xcd;" horiz-adv-x="600" d="M90 0l264 1237q10 49 34 72.5t71 23.5h28q47 0 67.5 -26.5t8.5 -75.5l-262 -1231h-211zM395 1477q-4 6 19.5 38.5t64.5 75.5t92.5 87t102.5 75q49 31 100 31q41 0 64.5 -25.5t23.5 -60.5q0 -33 -24.5 -62.5t-69.5 -56.5q-59 -35 -123.5 -57.5t-118 -34.5t-90.5 -14t-41 4 z" />
<glyph unicode="&#xce;" horiz-adv-x="600" d="M90 0l264 1237q10 49 34 72.5t71 23.5h28q47 0 67.5 -26.5t8.5 -75.5l-262 -1231h-211zM224 1518q0 39 34.5 83t100.5 97q33 27 66.5 50.5t62 41.5t50 28.5t32.5 12.5q14 -4 57 -42t84 -87q45 -53 64.5 -93t19.5 -69q0 -37 -20.5 -58.5t-51.5 -21.5q-33 0 -62.5 30 t-64.5 93q-10 20 -23.5 43t-27.5 51q-23 -27 -44 -50t-44 -46q-51 -57 -95 -89t-79 -32q-29 0 -44 17.5t-15 40.5z" />
<glyph unicode="&#xcf;" horiz-adv-x="600" d="M90 0l264 1237q10 49 34 72.5t71 23.5h28q47 0 67.5 -26.5t8.5 -75.5l-262 -1231h-211zM207 1557q0 59 35 100t94 41t89 -25.5t30 -72.5q0 -59 -34 -100.5t-93 -41.5t-90 25.5t-31 73.5zM582 1557q0 59 35 100t94 41t90 -25.5t31 -72.5q0 -59 -35 -100.5t-94 -41.5 t-90 25.5t-31 73.5z" />
<glyph unicode="&#xd0;" horiz-adv-x="1513" d="M94 633q0 18 7.5 47t23.5 45q10 10 24.5 14t40.5 4h115l101 465q18 117 137 117h239q309 0 480.5 -144.5t171.5 -406.5q0 -158 -51.5 -299t-155 -246.5t-259 -167t-362.5 -61.5h-319q-139 0 -111 137l96 447h-106q-72 0 -72 49zM397 182h240q147 0 257 45t181.5 123 t106.5 179.5t35 215.5q0 186 -118 292t-333 106h-166l-84 -400h346q78 0 78 -49q0 -16 -7 -44.5t-24 -45.5q-10 -10 -25.5 -15t-43.5 -5h-359z" />
<glyph unicode="&#xd1;" horiz-adv-x="1466" d="M72 0l256 1212q25 121 129 121h35q41 0 65.5 -19.5t46.5 -64.5l453 -932l215 1008h196l-260 -1221q-23 -113 -121 -112h-16q-41 0 -64.5 19.5t-48.5 64.5l-469 966l-221 -1042h-196zM641 1530q0 39 16.5 77t42 67.5t58.5 47t67 17.5q55 0 129 -39t148 -115q25 53 55.5 97 t65.5 44q33 0 49 -18t16 -41q0 -41 -16.5 -78t-42 -66.5t-59 -47t-66.5 -17.5q-55 0 -129 39t-148 115q-25 -53 -55.5 -97.5t-64.5 -44.5q-33 0 -49.5 18.5t-16.5 41.5z" />
<glyph unicode="&#xd2;" horiz-adv-x="1566" d="M150 555q0 170 59 315.5t160.5 253t235.5 168t284 60.5q141 0 252.5 -45t188.5 -124t118 -184.5t41 -226.5q0 -170 -59.5 -315.5t-161 -252t-235 -167t-283.5 -60.5q-143 0 -255 45.5t-189 123t-116.5 183t-39.5 226.5zM365 569q0 -84 26.5 -158.5t77.5 -130t126 -87 t171 -31.5q94 0 185 44t163 123t115 188.5t43 240.5q0 84 -26.5 158.5t-77 130t-125 87t-171.5 31.5q-96 0 -187 -44t-162.5 -122.5t-114.5 -188.5t-43 -241zM664 1716q0 37 26.5 62.5t65.5 25.5q25 0 51.5 -11t49.5 -30q45 -35 87 -82t71.5 -90t45 -75.5t11.5 -38.5 q-6 -6 -39 -3t-81 17t-104.5 41t-107.5 63q-76 55 -76 121z" />
<glyph unicode="&#xd3;" horiz-adv-x="1566" d="M150 555q0 170 59 315.5t160.5 253t235.5 168t284 60.5q141 0 252.5 -45t188.5 -124t118 -184.5t41 -226.5q0 -170 -59.5 -315.5t-161 -252t-235 -167t-283.5 -60.5q-143 0 -255 45.5t-189 123t-116.5 183t-39.5 226.5zM365 569q0 -84 26.5 -158.5t77.5 -130t126 -87 t171 -31.5q94 0 185 44t163 123t115 188.5t43 240.5q0 84 -26.5 158.5t-77 130t-125 87t-171.5 31.5q-96 0 -187 -44t-162.5 -122.5t-114.5 -188.5t-43 -241zM768 1477q-4 6 19.5 38.5t64.5 75.5t92.5 87t102.5 75q49 31 100 31q41 0 64.5 -25.5t23.5 -60.5 q0 -33 -24.5 -62.5t-69.5 -56.5q-59 -35 -123.5 -57.5t-118 -34.5t-90.5 -14t-41 4z" />
<glyph unicode="&#xd4;" horiz-adv-x="1566" d="M150 555q0 170 59 315.5t160.5 253t235.5 168t284 60.5q141 0 252.5 -45t188.5 -124t118 -184.5t41 -226.5q0 -170 -59.5 -315.5t-161 -252t-235 -167t-283.5 -60.5q-143 0 -255 45.5t-189 123t-116.5 183t-39.5 226.5zM365 569q0 -84 26.5 -158.5t77.5 -130t126 -87 t171 -31.5q94 0 185 44t163 123t115 188.5t43 240.5q0 84 -26.5 158.5t-77 130t-125 87t-171.5 31.5q-96 0 -187 -44t-162.5 -122.5t-114.5 -188.5t-43 -241zM662 1518q0 39 34.5 83t100.5 97q33 27 66.5 50.5t62 41.5t50 28.5t32.5 12.5q14 -4 57 -42t84 -87 q45 -53 64.5 -93t19.5 -69q0 -37 -20.5 -58.5t-51.5 -21.5q-33 0 -62.5 30t-64.5 93q-10 20 -23.5 43t-27.5 51q-23 -27 -44 -50t-44 -46q-51 -57 -95 -89t-79 -32q-29 0 -44 17.5t-15 40.5z" />
<glyph unicode="&#xd5;" horiz-adv-x="1566" d="M150 555q0 170 59 315.5t160.5 253t235.5 168t284 60.5q141 0 252.5 -45t188.5 -124t118 -184.5t41 -226.5q0 -170 -59.5 -315.5t-161 -252t-235 -167t-283.5 -60.5q-143 0 -255 45.5t-189 123t-116.5 183t-39.5 226.5zM365 569q0 -84 26.5 -158.5t77.5 -130t126 -87 t171 -31.5q94 0 185 44t163 123t115 188.5t43 240.5q0 84 -26.5 158.5t-77 130t-125 87t-171.5 31.5q-96 0 -187 -44t-162.5 -122.5t-114.5 -188.5t-43 -241zM621 1530q0 39 16.5 77t42 67.5t58.5 47t67 17.5q55 0 129 -39t148 -115q25 53 55.5 97t65.5 44q33 0 49 -18 t16 -41q0 -41 -16.5 -78t-42 -66.5t-59 -47t-66.5 -17.5q-55 0 -129 39t-148 115q-25 -53 -55.5 -97.5t-64.5 -44.5q-33 0 -49.5 18.5t-16.5 41.5z" />
<glyph unicode="&#xd6;" horiz-adv-x="1566" d="M150 555q0 170 59 315.5t160.5 253t235.5 168t284 60.5q141 0 252.5 -45t188.5 -124t118 -184.5t41 -226.5q0 -170 -59.5 -315.5t-161 -252t-235 -167t-283.5 -60.5q-143 0 -255 45.5t-189 123t-116.5 183t-39.5 226.5zM365 569q0 -84 26.5 -158.5t77.5 -130t126 -87 t171 -31.5q94 0 185 44t163 123t115 188.5t43 240.5q0 84 -26.5 158.5t-77 130t-125 87t-171.5 31.5q-96 0 -187 -44t-162.5 -122.5t-114.5 -188.5t-43 -241zM649 1557q0 59 35 100t94 41t89 -25.5t30 -72.5q0 -59 -34 -100.5t-93 -41.5t-90 25.5t-31 73.5zM1024 1557 q0 59 35 100t94 41t90 -25.5t31 -72.5q0 -59 -35 -100.5t-94 -41.5t-90 25.5t-31 73.5z" />
<glyph unicode="&#xd7;" horiz-adv-x="1187" d="M152 221q0 43 38 76l302 254l-189 246q-25 33 -24 61q0 25 28.5 53.5t59.5 28.5q39 0 69 -39l182 -246l293 248q33 31 70 31q12 0 26.5 -9.5t25.5 -22.5t19.5 -27.5t8.5 -24.5q0 -20 -8.5 -38.5t-30.5 -37.5l-299 -252l188 -248q27 -35 27 -61q0 -25 -28.5 -53.5 t-59.5 -28.5q-41 0 -70 39l-186 246l-293 -248q-33 -31 -70 -31q-12 0 -26.5 9.5t-25.5 22.5t-19 27.5t-8 24.5z" />
<glyph unicode="&#xd8;" horiz-adv-x="1566" d="M23 14q0 29 14 52.5t45 52.5l149 131q-82 139 -81 305q0 170 59 315.5t160.5 253t235.5 168t284 60.5q129 0 233.5 -40t182.5 -112l204 184q4 2 17.5 -3t27 -17t24.5 -28.5t11 -37.5q0 -29 -14 -52t-45 -52l-127 -113q86 -139 86 -309t-59.5 -315.5t-161 -252 t-235.5 -167t-283 -60.5q-133 0 -238.5 41t-183.5 113l-226 -201q-4 -4 -17 2.5t-26.5 17.5t-24.5 27.5t-11 36.5zM360 569q0 -102 33 -182l762 682q-51 47 -120.5 73.5t-162.5 26.5q-98 0 -190 -44t-164 -123.5t-115 -190.5t-43 -242zM477 262q51 -49 123 -76.5t166 -27.5 q96 0 188.5 44t164 124t114.5 190.5t43 241.5q0 102 -37 186z" />
<glyph unicode="&#xd9;" horiz-adv-x="1396" d="M180 596l135 641q12 49 36 72.5t71 23.5h29q47 0 66.5 -27.5t8.5 -76.5l-137 -649q-43 -209 31 -313.5t260 -104.5q281 0 356 358l154 717q10 49 33.5 72.5t70.5 23.5h27q45 0 65.5 -27.5t10.5 -74.5l-156 -737q-110 -519 -579 -519q-285 0 -416 157t-66 464zM616 1700 q0 37 26.5 62.5t65.5 25.5q25 0 51.5 -11t49.5 -30q45 -35 87 -82t71.5 -90t45 -75.5t11.5 -38.5q-6 -6 -39 -3t-81 17t-104.5 41t-107.5 63q-76 55 -76 121z" />
<glyph unicode="&#xda;" horiz-adv-x="1396" d="M180 596l135 641q12 49 36 72.5t71 23.5h29q47 0 66.5 -27.5t8.5 -76.5l-137 -649q-43 -209 31 -313.5t260 -104.5q281 0 356 358l154 717q10 49 33.5 72.5t70.5 23.5h27q45 0 65.5 -27.5t10.5 -74.5l-156 -737q-110 -519 -579 -519q-285 0 -416 157t-66 464zM722 1461 q-4 6 19.5 38.5t64.5 75.5t92.5 87t102.5 75q49 31 100 31q41 0 64.5 -25.5t23.5 -60.5q0 -33 -24.5 -62.5t-69.5 -56.5q-59 -35 -123.5 -57.5t-118 -34.5t-90.5 -14t-41 4z" />
<glyph unicode="&#xdb;" horiz-adv-x="1396" d="M180 596l135 641q12 49 36 72.5t71 23.5h29q47 0 66.5 -27.5t8.5 -76.5l-137 -649q-43 -209 31 -313.5t260 -104.5q281 0 356 358l154 717q10 49 33.5 72.5t70.5 23.5h27q45 0 65.5 -27.5t10.5 -74.5l-156 -737q-110 -519 -579 -519q-285 0 -416 157t-66 464zM613 1502 q0 39 34.5 83t100.5 97q33 27 66.5 50.5t62 41.5t50 28.5t32.5 12.5q14 -4 57 -42t84 -87q45 -53 64.5 -93t19.5 -69q0 -37 -20.5 -58.5t-51.5 -21.5q-33 0 -62.5 30t-64.5 93q-10 20 -23.5 43t-27.5 51q-23 -27 -44 -50t-44 -46q-51 -57 -95 -89t-79 -32q-29 0 -44 17.5 t-15 40.5z" />
<glyph unicode="&#xdc;" horiz-adv-x="1396" d="M180 596l135 641q12 49 36 72.5t71 23.5h29q47 0 66.5 -27.5t8.5 -76.5l-137 -649q-43 -209 31 -313.5t260 -104.5q281 0 356 358l154 717q10 49 33.5 72.5t70.5 23.5h27q45 0 65.5 -27.5t10.5 -74.5l-156 -737q-110 -519 -579 -519q-285 0 -416 157t-66 464zM598 1541 q0 59 35 100t94 41t89 -25.5t30 -72.5q0 -59 -34 -100.5t-93 -41.5t-90 25.5t-31 73.5zM973 1541q0 59 35 100t94 41t90 -25.5t31 -72.5q0 -59 -35 -100.5t-94 -41.5t-90 25.5t-31 73.5z" />
<glyph unicode="&#xdd;" horiz-adv-x="1239" d="M180 1325h221l258 -606l525 622l20 -3q21 -3 44.5 -13t43 -31.5t19.5 -58.5q0 -29 -15.5 -58.5t-56.5 -74.5l-502 -565l-112 -537h-213l116 547zM669 1461q-4 6 19.5 38.5t64.5 75.5t92.5 87t102.5 75q49 31 100 31q41 0 64.5 -25.5t23.5 -60.5q0 -33 -24.5 -62.5 t-69.5 -56.5q-59 -35 -123.5 -57.5t-118 -34.5t-90.5 -14t-41 4z" />
<glyph unicode="&#xde;" horiz-adv-x="1247" d="M90 96l242 1141q12 49 35.5 72.5t70.5 23.5h33q43 0 63.5 -24.5t10.5 -69.5l-33 -152h205q227 0 346 -91t119 -265q0 -229 -139.5 -356t-411.5 -127h-297l-35 -168q-10 -47 -32.5 -67.5t-69.5 -20.5h-31q-45 0 -65.5 25.5t-10.5 78.5zM371 418h284q154 0 236 76.5 t82 212.5q0 207 -271 206h-227z" />
<glyph unicode="&#xdf;" horiz-adv-x="1200" d="M55 0l205 961q51 242 173 351t310 109q201 0 310.5 -88t109.5 -229q0 -145 -93 -233.5t-286 -104.5q133 -37 218 -126t85 -218q0 -96 -32.5 -178t-90 -141.5t-135 -93.5t-165.5 -34q-166 0 -244 78q-23 23 -32 44.5t-9 43.5q0 29 12 49.5t27.5 35t28 19.5t14.5 3 q25 -41 67.5 -74t124.5 -33q49 0 92 19.5t76 54.5t51.5 84t18.5 109q0 72 -46 130t-165 99q-51 20 -74.5 44t-23.5 64q0 51 21.5 85t37.5 44q166 0 245 46.5t79 162.5q0 78 -62.5 125t-163.5 47q-102 0 -173.5 -71.5t-106.5 -233.5l-201 -950h-203z" />
<glyph unicode="&#xe0;" d="M94 387q0 117 41 228.5t114 198.5t174 141.5t222 54.5q115 0 203 -51.5t131 -139.5q10 47 18.5 79t12.5 52q6 23 8 35h196l-159 -760q-16 -78 0 -109.5t80 -37.5q2 0 0 -15.5t-13.5 -33t-37 -32.5t-70.5 -15q-96 0 -136 54t-30 148q-63 -102 -159.5 -155.5t-209.5 -53.5 q-80 0 -150.5 28t-122.5 80t-82 129t-30 175zM295 406q0 -125 71 -194t169 -69q68 0 129 26t110 71t83 105.5t48 127.5l33 154q-31 100 -99.5 159.5t-181.5 59.5q-84 0 -151.5 -39t-114.5 -101.5t-71.5 -141.5t-24.5 -158zM463 1376q0 37 26.5 62.5t65.5 25.5q25 0 51.5 -11 t49.5 -30q45 -35 87 -82t71.5 -90t45 -75.5t11.5 -38.5q-6 -6 -39 -3t-81 17t-104.5 41t-107.5 63q-76 55 -76 121z" />
<glyph unicode="&#xe1;" d="M94 387q0 117 41 228.5t114 198.5t174 141.5t222 54.5q115 0 203 -51.5t131 -139.5q10 47 18.5 79t12.5 52q6 23 8 35h196l-159 -760q-16 -78 0 -109.5t80 -37.5q2 0 0 -15.5t-13.5 -33t-37 -32.5t-70.5 -15q-96 0 -136 54t-30 148q-63 -102 -159.5 -155.5t-209.5 -53.5 q-80 0 -150.5 28t-122.5 80t-82 129t-30 175zM295 406q0 -125 71 -194t169 -69q68 0 129 26t110 71t83 105.5t48 127.5l33 154q-31 100 -99.5 159.5t-181.5 59.5q-84 0 -151.5 -39t-114.5 -101.5t-71.5 -141.5t-24.5 -158zM612 1137q-4 6 19.5 38.5t64.5 75.5t92.5 87 t102.5 75q49 31 100 31q41 0 64.5 -25.5t23.5 -60.5q0 -33 -24.5 -62.5t-69.5 -56.5q-59 -35 -123.5 -57.5t-118 -34.5t-90.5 -14t-41 4z" />
<glyph unicode="&#xe2;" d="M94 387q0 117 41 228.5t114 198.5t174 141.5t222 54.5q115 0 203 -51.5t131 -139.5q10 47 18.5 79t12.5 52q6 23 8 35h196l-159 -760q-16 -78 0 -109.5t80 -37.5q2 0 0 -15.5t-13.5 -33t-37 -32.5t-70.5 -15q-96 0 -136 54t-30 148q-63 -102 -159.5 -155.5t-209.5 -53.5 q-80 0 -150.5 28t-122.5 80t-82 129t-30 175zM295 406q0 -125 71 -194t169 -69q68 0 129 26t110 71t83 105.5t48 127.5l33 154q-31 100 -99.5 159.5t-181.5 59.5q-84 0 -151.5 -39t-114.5 -101.5t-71.5 -141.5t-24.5 -158zM482 1178q0 39 34.5 83t100.5 97q33 27 66.5 50.5 t62 41.5t50 28.5t32.5 12.5q14 -4 57 -42t84 -87q45 -53 64.5 -93t19.5 -69q0 -37 -20.5 -58.5t-51.5 -21.5q-33 0 -62.5 30t-64.5 93q-10 20 -23.5 43t-27.5 51q-23 -27 -44 -50t-44 -46q-51 -57 -95 -89t-79 -32q-29 0 -44 17.5t-15 40.5z" />
<glyph unicode="&#xe3;" d="M94 387q0 117 41 228.5t114 198.5t174 141.5t222 54.5q115 0 203 -51.5t131 -139.5q10 47 18.5 79t12.5 52q6 23 8 35h196l-159 -760q-16 -78 0 -109.5t80 -37.5q2 0 0 -15.5t-13.5 -33t-37 -32.5t-70.5 -15q-96 0 -136 54t-30 148q-63 -102 -159.5 -155.5t-209.5 -53.5 q-80 0 -150.5 28t-122.5 80t-82 129t-30 175zM295 406q0 -125 71 -194t169 -69q68 0 129 26t110 71t83 105.5t48 127.5l33 154q-31 100 -99.5 159.5t-181.5 59.5q-84 0 -151.5 -39t-114.5 -101.5t-71.5 -141.5t-24.5 -158zM453 1190q0 39 16.5 77t42 67.5t58.5 47t67 17.5 q55 0 129 -39t148 -115q25 53 55.5 97t65.5 44q33 0 49 -18t16 -41q0 -41 -16.5 -78t-42 -66.5t-59 -47t-66.5 -17.5q-55 0 -129 39t-148 115q-25 -53 -55.5 -97.5t-64.5 -44.5q-33 0 -49.5 18.5t-16.5 41.5z" />
<glyph unicode="&#xe4;" d="M94 387q0 117 41 228.5t114 198.5t174 141.5t222 54.5q115 0 203 -51.5t131 -139.5q10 47 18.5 79t12.5 52q6 23 8 35h196l-159 -760q-16 -78 0 -109.5t80 -37.5q2 0 0 -15.5t-13.5 -33t-37 -32.5t-70.5 -15q-96 0 -136 54t-30 148q-63 -102 -159.5 -155.5t-209.5 -53.5 q-80 0 -150.5 28t-122.5 80t-82 129t-30 175zM295 406q0 -125 71 -194t169 -69q68 0 129 26t110 71t83 105.5t48 127.5l33 154q-31 100 -99.5 159.5t-181.5 59.5q-84 0 -151.5 -39t-114.5 -101.5t-71.5 -141.5t-24.5 -158zM465 1217q0 59 35 100t94 41t89 -25.5t30 -72.5 q0 -59 -34 -100.5t-93 -41.5t-90 25.5t-31 73.5zM840 1217q0 59 35 100t94 41t90 -25.5t31 -72.5q0 -59 -35 -100.5t-94 -41.5t-90 25.5t-31 73.5z" />
<glyph unicode="&#xe5;" d="M94 387q0 117 41 228.5t114 198.5t174 141.5t222 54.5q115 0 203 -51.5t131 -139.5q10 47 18.5 79t12.5 52q6 23 8 35h196l-159 -760q-16 -78 0 -109.5t80 -37.5q2 0 0 -15.5t-13.5 -33t-37 -32.5t-70.5 -15q-96 0 -136 54t-30 148q-63 -102 -159.5 -155.5t-209.5 -53.5 q-80 0 -150.5 28t-122.5 80t-82 129t-30 175zM295 406q0 -125 71 -194t169 -69q68 0 129 26t110 71t83 105.5t48 127.5l33 154q-31 100 -99.5 159.5t-181.5 59.5q-84 0 -151.5 -39t-114.5 -101.5t-71.5 -141.5t-24.5 -158zM549 1333q0 55 20.5 105.5t56.5 88.5t86 61.5 t110 23.5q104 0 167.5 -59.5t63.5 -151.5q0 -55 -20.5 -105.5t-56.5 -89.5t-86 -61.5t-109 -22.5q-104 0 -168 59.5t-64 151.5zM672 1346q0 -47 32 -81t81 -34q68 0 106.5 49t38.5 109q0 47 -31.5 80.5t-82.5 33.5q-33 0 -59.5 -13t-45 -35.5t-29 -51.5t-10.5 -57z" />
<glyph unicode="&#xe6;" horiz-adv-x="1812" d="M53 225q0 94 40 162t128 112t227.5 65.5t337.5 25.5h25l2 8q23 117 -34.5 182.5t-198.5 65.5q-113 0 -181.5 -36t-115.5 -112l-15 2q-16 2 -34.5 12.5t-34 29t-15.5 49.5t23.5 69.5t74 71.5t127 55.5t183.5 22.5q145 0 239.5 -56.5t122.5 -160.5q78 104 188.5 160.5 t252.5 56.5q178 0 274 -75t96 -198q0 -74 -27.5 -133t-93 -101t-175 -63.5t-275.5 -21.5q-53 0 -111.5 3t-124.5 7v-37q0 -117 69 -188.5t202 -71.5q109 0 184.5 40t130.5 114q2 2 16.5 -1t31 -12.5t30.5 -27t14 -43.5q0 -31 -10 -52.5t-39 -50.5q-61 -59 -149 -91t-211 -32 q-162 0 -257.5 62.5t-133.5 161.5q-61 -104 -167.5 -164t-262.5 -60q-166 0 -259.5 67t-93.5 183zM252 248q0 -55 52 -91t142 -36q57 0 110.5 18.5t95.5 52t72 79.5t42 100l20 96l-57 -2q-141 -4 -234.5 -19.5t-146.5 -42t-74.5 -65.5t-21.5 -90zM991 569q53 -6 98.5 -8 t86.5 -2q119 0 197.5 14.5t124.5 38t64.5 54t18.5 65.5q0 49 -48.5 88t-146.5 39q-68 0 -129 -22.5t-111 -60.5t-90 -91t-65 -115z" />
<glyph unicode="&#xe7;" horiz-adv-x="1126" d="M90 430q0 115 43 219.5t119 184t178 128t221 48.5q125 0 210 -36t136 -89q41 -41 60.5 -85t19.5 -79q0 -43 -20.5 -66.5t-46 -34t-47 -9.5t-21.5 5q-18 98 -90 161t-195 63q-84 0 -151.5 -34t-116.5 -89t-75.5 -127t-26.5 -146q0 -133 79.5 -216t219.5 -83 q100 0 168.5 46.5t115.5 119.5q2 2 18.5 -1t35 -12t34 -27.5t15.5 -47.5q0 -55 -66 -121q-53 -51 -140 -89t-200 -38q-102 0 -189 31t-150.5 89.5t-100.5 142.5t-37 192zM281 -424l208 332q2 2 27 1t53.5 -10.5t52 -27.5t23.5 -51q0 -31 -15.5 -56.5t-49.5 -54.5l-215 -188 q-10 -8 -26.5 -4t-32 13t-25 21.5t-0.5 24.5z" />
<glyph unicode="&#xe8;" horiz-adv-x="1124" d="M86 385q0 135 48 249t132 197.5t196.5 131t244.5 47.5q178 0 274 -75t96 -198q0 -74 -27.5 -133t-93 -101t-175 -63.5t-275.5 -21.5q-53 0 -111.5 3t-124.5 7v-37q0 -117 69 -188.5t202 -71.5q109 0 184.5 40t130.5 114q2 2 16.5 -1t31 -12.5t30.5 -27t14 -43.5 q0 -31 -10 -52.5t-39 -50.5q-61 -59 -149 -91t-213 -32q-113 0 -197 31t-140.5 86t-85 130t-28.5 163zM303 569q53 -6 98 -8t86 -2q119 0 198 14.5t125 38t64.5 54t18.5 65.5q0 49 -48.5 88t-146.5 39q-68 0 -129 -22.5t-111 -60.5t-90 -91t-65 -115zM440 1376 q0 37 26.5 62.5t65.5 25.5q25 0 51.5 -11t49.5 -30q45 -35 87 -82t71.5 -90t45 -75.5t11.5 -38.5q-6 -6 -39 -3t-81 17t-104.5 41t-107.5 63q-76 55 -76 121z" />
<glyph unicode="&#xe9;" horiz-adv-x="1124" d="M86 385q0 135 48 249t132 197.5t196.5 131t244.5 47.5q178 0 274 -75t96 -198q0 -74 -27.5 -133t-93 -101t-175 -63.5t-275.5 -21.5q-53 0 -111.5 3t-124.5 7v-37q0 -117 69 -188.5t202 -71.5q109 0 184.5 40t130.5 114q2 2 16.5 -1t31 -12.5t30.5 -27t14 -43.5 q0 -31 -10 -52.5t-39 -50.5q-61 -59 -149 -91t-213 -32q-113 0 -197 31t-140.5 86t-85 130t-28.5 163zM303 569q53 -6 98 -8t86 -2q119 0 198 14.5t125 38t64.5 54t18.5 65.5q0 49 -48.5 88t-146.5 39q-68 0 -129 -22.5t-111 -60.5t-90 -91t-65 -115zM585 1137 q-4 6 19.5 38.5t64.5 75.5t92.5 87t102.5 75q49 31 100 31q41 0 64.5 -25.5t23.5 -60.5q0 -33 -24.5 -62.5t-69.5 -56.5q-59 -35 -123.5 -57.5t-118 -34.5t-90.5 -14t-41 4z" />
<glyph unicode="&#xea;" horiz-adv-x="1124" d="M86 385q0 135 48 249t132 197.5t196.5 131t244.5 47.5q178 0 274 -75t96 -198q0 -74 -27.5 -133t-93 -101t-175 -63.5t-275.5 -21.5q-53 0 -111.5 3t-124.5 7v-37q0 -117 69 -188.5t202 -71.5q109 0 184.5 40t130.5 114q2 2 16.5 -1t31 -12.5t30.5 -27t14 -43.5 q0 -31 -10 -52.5t-39 -50.5q-61 -59 -149 -91t-213 -32q-113 0 -197 31t-140.5 86t-85 130t-28.5 163zM303 569q53 -6 98 -8t86 -2q119 0 198 14.5t125 38t64.5 54t18.5 65.5q0 49 -48.5 88t-146.5 39q-68 0 -129 -22.5t-111 -60.5t-90 -91t-65 -115zM461 1178q0 39 34.5 83 t100.5 97q33 27 66.5 50.5t62 41.5t50 28.5t32.5 12.5q14 -4 57 -42t84 -87q45 -53 64.5 -93t19.5 -69q0 -37 -20.5 -58.5t-51.5 -21.5q-33 0 -62.5 30t-64.5 93q-10 20 -23.5 43t-27.5 51q-23 -27 -44 -50t-44 -46q-51 -57 -95 -89t-79 -32q-29 0 -44 17.5t-15 40.5z" />
<glyph unicode="&#xeb;" horiz-adv-x="1124" d="M86 385q0 135 48 249t132 197.5t196.5 131t244.5 47.5q178 0 274 -75t96 -198q0 -74 -27.5 -133t-93 -101t-175 -63.5t-275.5 -21.5q-53 0 -111.5 3t-124.5 7v-37q0 -117 69 -188.5t202 -71.5q109 0 184.5 40t130.5 114q2 2 16.5 -1t31 -12.5t30.5 -27t14 -43.5 q0 -31 -10 -52.5t-39 -50.5q-61 -59 -149 -91t-213 -32q-113 0 -197 31t-140.5 86t-85 130t-28.5 163zM303 569q53 -6 98 -8t86 -2q119 0 198 14.5t125 38t64.5 54t18.5 65.5q0 49 -48.5 88t-146.5 39q-68 0 -129 -22.5t-111 -60.5t-90 -91t-65 -115zM444 1217q0 59 35 100 t94 41t89 -25.5t30 -72.5q0 -59 -34 -100.5t-93 -41.5t-90 25.5t-31 73.5zM819 1217q0 59 35 100t94 41t90 -25.5t31 -72.5q0 -59 -35 -100.5t-94 -41.5t-90 25.5t-31 73.5z" />
<glyph unicode="&#xec;" horiz-adv-x="540" d="M113 227l161 758h201l-160 -760q-16 -78 1.5 -110.5t86.5 -36.5q2 0 0 -15.5t-14 -33t-39 -32.5t-74 -15q-113 0 -150.5 65.5t-12.5 179.5zM119 1376q0 37 26.5 62.5t65.5 25.5q25 0 51.5 -11t49.5 -30q45 -35 87 -82t71.5 -90t45 -75.5t11.5 -38.5q-6 -6 -39 -3t-81 17 t-104.5 41t-107.5 63q-76 55 -76 121z" />
<glyph unicode="&#xed;" horiz-adv-x="540" d="M113 227l161 758h201l-160 -760q-16 -78 1.5 -110.5t86.5 -36.5q2 0 0 -15.5t-14 -33t-39 -32.5t-74 -15q-113 0 -150.5 65.5t-12.5 179.5zM260 1137q-4 6 19.5 38.5t64.5 75.5t92.5 87t102.5 75q49 31 100 31q41 0 64.5 -25.5t23.5 -60.5q0 -33 -24.5 -62.5t-69.5 -56.5 q-59 -35 -123.5 -57.5t-118 -34.5t-90.5 -14t-41 4z" />
<glyph unicode="&#xee;" horiz-adv-x="540" d="M113 227l161 758h201l-160 -760q-16 -78 1.5 -110.5t86.5 -36.5q2 0 0 -15.5t-14 -33t-39 -32.5t-74 -15q-113 0 -150.5 65.5t-12.5 179.5zM134 1178q0 39 34.5 83t100.5 97q33 27 66.5 50.5t62 41.5t50 28.5t32.5 12.5q14 -4 57 -42t84 -87q45 -53 64.5 -93t19.5 -69 q0 -37 -20.5 -58.5t-51.5 -21.5q-33 0 -62.5 30t-64.5 93q-10 20 -23.5 43t-27.5 51q-23 -27 -44 -50t-44 -46q-51 -57 -95 -89t-79 -32q-29 0 -44 17.5t-15 40.5z" />
<glyph unicode="&#xef;" horiz-adv-x="540" d="M113 227l161 758h201l-160 -760q-16 -78 1.5 -110.5t86.5 -36.5q2 0 0 -15.5t-14 -33t-39 -32.5t-74 -15q-113 0 -150.5 65.5t-12.5 179.5zM117 1217q0 59 35 100t94 41t89 -25.5t30 -72.5q0 -59 -34 -100.5t-93 -41.5t-90 25.5t-31 73.5zM492 1217q0 59 35 100t94 41 t90 -25.5t31 -72.5q0 -59 -35 -100.5t-94 -41.5t-90 25.5t-31 73.5z" />
<glyph unicode="&#xf0;" horiz-adv-x="1222" d="M82 383q0 102 36 193.5t101.5 161t159.5 109.5t209 40q141 0 237.5 -58.5t137.5 -132.5q6 145 -38 255t-122 188l-322 -164q-6 -4 -24.5 17.5t-18.5 60.5q0 29 14.5 54.5t65.5 47.5l156 76q-125 68 -275 78q-4 0 -2 19.5t15.5 44t43 44t81.5 19.5q72 0 157.5 -32 t167.5 -91l248 123q6 4 24.5 -17.5t18.5 -60.5q0 -29 -14.5 -54.5t-65.5 -48.5l-98 -47q49 -55 88 -122.5t62.5 -148.5t28.5 -174t-13 -198q-16 -119 -60.5 -230.5t-148.5 -215.5q-63 -63 -154.5 -103.5t-212.5 -40.5q-104 0 -193 27t-153.5 79t-100.5 128t-36 174zM279 381 q0 -117 77.5 -181.5t198.5 -64.5q72 0 130 24.5t108 71.5q53 53 87.5 134t51.5 174q-12 35 -40 69.5t-69 62t-92 45t-110 17.5q-88 0 -153 -27.5t-107 -75.5t-62 -111.5t-20 -137.5z" />
<glyph unicode="&#xf1;" horiz-adv-x="1210" d="M53 0l209 983q4 10 51 10q25 0 48.5 -7t41 -26.5t24.5 -52.5t-1 -82q57 86 141 135.5t189 49.5q80 0 141 -24.5t104 -68t66 -103.5t23 -130q0 -53 -17.5 -131t-42.5 -166q-23 -76 -36 -134t-13 -87q0 -41 21.5 -59.5t62.5 -22.5q2 0 0 -16.5t-14.5 -35t-39 -34.5 t-71.5 -16q-80 0 -121 43t-41 116q0 43 14.5 107.5t36.5 146.5q23 74 36.5 137.5t13.5 100.5q0 94 -50.5 147.5t-146.5 53.5t-163.5 -48.5t-127.5 -148.5l-135 -637h-203zM438 1190q0 39 16.5 77t42 67.5t58.5 47t67 17.5q55 0 129 -39t148 -115q25 53 55.5 97t65.5 44 q33 0 49 -18t16 -41q0 -41 -16.5 -78t-42 -66.5t-59 -47t-66.5 -17.5q-55 0 -129 39t-148 115q-25 -53 -55.5 -97.5t-64.5 -44.5q-33 0 -49.5 18.5t-16.5 41.5z" />
<glyph unicode="&#xf2;" horiz-adv-x="1204" d="M94 430q0 115 40 219.5t114 184t176 128t227 48.5q100 0 185.5 -34t146.5 -94.5t95 -144.5t34 -182q0 -115 -40 -219.5t-113.5 -184t-176 -128t-227.5 -48.5q-102 0 -186 34t-145.5 94.5t-95.5 144.5t-34 182zM281 438q0 -66 21.5 -121t59 -95t90 -62.5t111.5 -22.5 q78 0 144.5 34t114.5 90t76 130t28 156q0 66 -21.5 121t-59.5 95t-90.5 62.5t-111.5 22.5q-78 0 -144.5 -34t-114.5 -90t-75.5 -130t-27.5 -156zM416 1376q0 37 26.5 62.5t65.5 25.5q25 0 51.5 -11t49.5 -30q45 -35 87 -82t71.5 -90t45 -75.5t11.5 -38.5q-6 -6 -39 -3 t-81 17t-104.5 41t-107.5 63q-76 55 -76 121z" />
<glyph unicode="&#xf3;" horiz-adv-x="1204" d="M94 430q0 115 40 219.5t114 184t176 128t227 48.5q100 0 185.5 -34t146.5 -94.5t95 -144.5t34 -182q0 -115 -40 -219.5t-113.5 -184t-176 -128t-227.5 -48.5q-102 0 -186 34t-145.5 94.5t-95.5 144.5t-34 182zM281 438q0 -66 21.5 -121t59 -95t90 -62.5t111.5 -22.5 q78 0 144.5 34t114.5 90t76 130t28 156q0 66 -21.5 121t-59.5 95t-90.5 62.5t-111.5 22.5q-78 0 -144.5 -34t-114.5 -90t-75.5 -130t-27.5 -156zM567 1137q-4 6 19.5 38.5t64.5 75.5t92.5 87t102.5 75q49 31 100 31q41 0 64.5 -25.5t23.5 -60.5q0 -33 -24.5 -62.5 t-69.5 -56.5q-59 -35 -123.5 -57.5t-118 -34.5t-90.5 -14t-41 4z" />
<glyph unicode="&#xf4;" horiz-adv-x="1204" d="M94 430q0 115 40 219.5t114 184t176 128t227 48.5q100 0 185.5 -34t146.5 -94.5t95 -144.5t34 -182q0 -115 -40 -219.5t-113.5 -184t-176 -128t-227.5 -48.5q-102 0 -186 34t-145.5 94.5t-95.5 144.5t-34 182zM281 438q0 -66 21.5 -121t59 -95t90 -62.5t111.5 -22.5 q78 0 144.5 34t114.5 90t76 130t28 156q0 66 -21.5 121t-59.5 95t-90.5 62.5t-111.5 22.5q-78 0 -144.5 -34t-114.5 -90t-75.5 -130t-27.5 -156zM428 1178q0 39 34.5 83t100.5 97q33 27 66.5 50.5t62 41.5t50 28.5t32.5 12.5q14 -4 57 -42t84 -87q45 -53 64.5 -93t19.5 -69 q0 -37 -20.5 -58.5t-51.5 -21.5q-33 0 -62.5 30t-64.5 93q-10 20 -23.5 43t-27.5 51q-23 -27 -44 -50t-44 -46q-51 -57 -95 -89t-79 -32q-29 0 -44 17.5t-15 40.5z" />
<glyph unicode="&#xf5;" horiz-adv-x="1204" d="M94 430q0 115 40 219.5t114 184t176 128t227 48.5q100 0 185.5 -34t146.5 -94.5t95 -144.5t34 -182q0 -115 -40 -219.5t-113.5 -184t-176 -128t-227.5 -48.5q-102 0 -186 34t-145.5 94.5t-95.5 144.5t-34 182zM281 438q0 -66 21.5 -121t59 -95t90 -62.5t111.5 -22.5 q78 0 144.5 34t114.5 90t76 130t28 156q0 66 -21.5 121t-59.5 95t-90.5 62.5t-111.5 22.5q-78 0 -144.5 -34t-114.5 -90t-75.5 -130t-27.5 -156zM403 1190q0 39 16.5 77t42 67.5t58.5 47t67 17.5q55 0 129 -39t148 -115q25 53 55.5 97t65.5 44q33 0 49 -18t16 -41 q0 -41 -16.5 -78t-42 -66.5t-59 -47t-66.5 -17.5q-55 0 -129 39t-148 115q-25 -53 -55.5 -97.5t-64.5 -44.5q-33 0 -49.5 18.5t-16.5 41.5z" />
<glyph unicode="&#xf6;" horiz-adv-x="1204" d="M94 430q0 115 40 219.5t114 184t176 128t227 48.5q100 0 185.5 -34t146.5 -94.5t95 -144.5t34 -182q0 -115 -40 -219.5t-113.5 -184t-176 -128t-227.5 -48.5q-102 0 -186 34t-145.5 94.5t-95.5 144.5t-34 182zM281 438q0 -66 21.5 -121t59 -95t90 -62.5t111.5 -22.5 q78 0 144.5 34t114.5 90t76 130t28 156q0 66 -21.5 121t-59.5 95t-90.5 62.5t-111.5 22.5q-78 0 -144.5 -34t-114.5 -90t-75.5 -130t-27.5 -156zM411 1217q0 59 35 100t94 41t89 -25.5t30 -72.5q0 -59 -34 -100.5t-93 -41.5t-90 25.5t-31 73.5zM786 1217q0 59 35 100t94 41 t90 -25.5t31 -72.5q0 -59 -35 -100.5t-94 -41.5t-90 25.5t-31 73.5z" />
<glyph unicode="&#xf7;" horiz-adv-x="1298" d="M197 528q0 6 4 21.5t10 21.5q10 27 30.5 40.5t61.5 13.5h744q47 0 63 -17.5t10 -52.5q0 -8 -4 -22.5t-10 -20.5q-10 -27 -29.5 -40t-60.5 -13h-744q-88 0 -75 69zM465 160q0 35 8 66.5t31 52.5q16 16 36.5 23t55.5 7q109 0 109 -80q0 -37 -9.5 -67.5t-29.5 -52.5 q-16 -16 -37 -23.5t-56 -7.5q-109 0 -108 82zM612 854q0 37 9.5 68.5t29.5 52.5q16 16 37 23.5t55 7.5q109 0 109 -80q0 -37 -8 -69t-31 -52q-16 -16 -36.5 -23.5t-55.5 -7.5q-109 0 -109 80z" />
<glyph unicode="&#xf8;" horiz-adv-x="1204" d="M4 8q0 18 12.5 42t40.5 48l103 90q-31 53 -48.5 113.5t-17.5 128.5q0 115 40 219.5t114 184t176 128t227 48.5q86 0 163 -29t136 -78l164 152q4 2 17.5 -2t26.5 -14.5t24.5 -27t11.5 -34.5q0 -20 -12.5 -43t-40.5 -49l-97 -88q68 -109 68 -242q0 -115 -40 -219.5 t-113.5 -184t-176 -128t-227.5 -48.5q-88 0 -165 28t-136 79l-170 -154q-4 -4 -17.5 1t-26.5 16.5t-24.5 28t-11.5 34.5zM279 438q0 -74 26 -133l524 475q-39 35 -87 53.5t-101 18.5q-78 0 -144.5 -34t-114.5 -91t-75.5 -132t-27.5 -157zM375 207q77 -74 190 -74 q78 0 144.5 34t114.5 91t76 132t28 157q0 70 -27 133z" />
<glyph unicode="&#xf9;" horiz-adv-x="1212" d="M124 245q-11 83 11 183l117 557h203l-117 -555q-29 -123 18 -200.5t164 -77.5q98 0 166 49t127 147l135 637h201l-160 -760q-16 -78 0.5 -109.5t79.5 -37.5q2 0 0 -15.5t-13.5 -33t-37 -32.5t-70.5 -15q-92 0 -132 48t-36 134q-57 -90 -142 -139.5t-189 -49.5 q-96 0 -165 33t-109 93.5t-51 143.5zM416 1376q0 37 26.5 62.5t65.5 25.5q25 0 51.5 -11t49.5 -30q45 -35 87 -82t71.5 -90t45 -75.5t11.5 -38.5q-6 -6 -39 -3t-81 17t-104.5 41t-107.5 63q-76 55 -76 121z" />
<glyph unicode="&#xfa;" horiz-adv-x="1212" d="M124 245q-11 83 11 183l117 557h203l-117 -555q-29 -123 18 -200.5t164 -77.5q98 0 166 49t127 147l135 637h201l-160 -760q-16 -78 0.5 -109.5t79.5 -37.5q2 0 0 -15.5t-13.5 -33t-37 -32.5t-70.5 -15q-92 0 -132 48t-36 134q-57 -90 -142 -139.5t-189 -49.5 q-96 0 -165 33t-109 93.5t-51 143.5zM581 1137q-4 6 19.5 38.5t64.5 75.5t92.5 87t102.5 75q49 31 100 31q41 0 64.5 -25.5t23.5 -60.5q0 -33 -24.5 -62.5t-69.5 -56.5q-59 -35 -123.5 -57.5t-118 -34.5t-90.5 -14t-41 4z" />
<glyph unicode="&#xfb;" horiz-adv-x="1212" d="M124 245q-11 83 11 183l117 557h203l-117 -555q-29 -123 18 -200.5t164 -77.5q98 0 166 49t127 147l135 637h201l-160 -760q-16 -78 0.5 -109.5t79.5 -37.5q2 0 0 -15.5t-13.5 -33t-37 -32.5t-70.5 -15q-92 0 -132 48t-36 134q-57 -90 -142 -139.5t-189 -49.5 q-96 0 -165 33t-109 93.5t-51 143.5zM443 1178q0 39 34.5 83t100.5 97q33 27 66.5 50.5t62 41.5t50 28.5t32.5 12.5q14 -4 57 -42t84 -87q45 -53 64.5 -93t19.5 -69q0 -37 -20.5 -58.5t-51.5 -21.5q-33 0 -62.5 30t-64.5 93q-10 20 -23.5 43t-27.5 51q-23 -27 -44 -50 t-44 -46q-51 -57 -95 -89t-79 -32q-29 0 -44 17.5t-15 40.5z" />
<glyph unicode="&#xfc;" horiz-adv-x="1212" d="M124 245q-11 83 11 183l117 557h203l-117 -555q-29 -123 18 -200.5t164 -77.5q98 0 166 49t127 147l135 637h201l-160 -760q-16 -78 0.5 -109.5t79.5 -37.5q2 0 0 -15.5t-13.5 -33t-37 -32.5t-70.5 -15q-92 0 -132 48t-36 134q-57 -90 -142 -139.5t-189 -49.5 q-96 0 -165 33t-109 93.5t-51 143.5zM426 1217q0 59 35 100t94 41t89 -25.5t30 -72.5q0 -59 -34 -100.5t-93 -41.5t-90 25.5t-31 73.5zM801 1217q0 59 35 100t94 41t90 -25.5t31 -72.5q0 -59 -35 -100.5t-94 -41.5t-90 25.5t-31 73.5z" />
<glyph unicode="&#xfd;" horiz-adv-x="1079" d="M-127 -287q0 18 8 36t18.5 30t19.5 18t11 4q18 -23 53 -36t60 -13q29 0 58.5 11.5t63.5 41t76 79.5t97 130l29 43q-63 12 -76 97l-58 518q-12 109 -49 153.5t-102 46.5q-2 0 -1 19.5t14.5 43t42 43t83.5 19.5q86 0 136.5 -76.5t66.5 -250.5l41 -467l450 782h203 l-604 -1028q-115 -195 -217 -284t-221 -89t-170 54q-33 31 -33 75zM532 1121q-4 6 19.5 38.5t64.5 75.5t92.5 87t102.5 75q49 31 100 31q41 0 64.5 -25.5t23.5 -60.5q0 -33 -24.5 -62.5t-69.5 -56.5q-59 -35 -123.5 -57.5t-118 -34.5t-90.5 -14t-41 4z" />
<glyph unicode="&#xfe;" horiz-adv-x="1263" d="M-10 -305l342 1616q12 53 32.5 74.5t59.5 21.5h25q39 0 67.5 -20.5t18.5 -75.5l-103 -482q61 86 144 133.5t196 47.5q78 0 149.5 -28t127 -82t88 -135t32.5 -185q0 -115 -37.5 -223.5t-107.5 -193.5t-167 -136.5t-216 -51.5q-123 0 -213 57.5t-135 149.5l-103 -487 q-10 -53 -31.5 -74.5t-60.5 -21.5h-22q-41 0 -70 20.5t-16 75.5zM356 471q-12 -66 0.5 -125t48 -105t91 -73t129.5 -27q82 0 146.5 37t108.5 96.5t66.5 135t22.5 155.5q0 66 -20.5 118t-54.5 88t-79 54.5t-96 18.5q-102 0 -188.5 -56.5t-139.5 -144.5z" />
<glyph unicode="&#xff;" horiz-adv-x="1079" d="M-127 -287q0 18 8 36t18.5 30t19.5 18t11 4q18 -23 53 -36t60 -13q29 0 58.5 11.5t63.5 41t76 79.5t97 130l29 43q-63 12 -76 97l-58 518q-12 109 -49 153.5t-102 46.5q-2 0 -1 19.5t14.5 43t42 43t83.5 19.5q86 0 136.5 -76.5t66.5 -250.5l41 -467l450 782h203 l-604 -1028q-115 -195 -217 -284t-221 -89t-170 54q-33 31 -33 75zM354 1217q0 59 35 100t94 41t89 -25.5t30 -72.5q0 -59 -34 -100.5t-93 -41.5t-90 25.5t-31 73.5zM729 1217q0 59 35 100t94 41t90 -25.5t31 -72.5q0 -59 -35 -100.5t-94 -41.5t-90 25.5t-31 73.5z" />
<glyph unicode="&#x152;" horiz-adv-x="2164" d="M150 555q0 170 59 315.5t160.5 253t235.5 168t284 60.5q51 0 99 -7.5t91 -19.5h1039q92 0 92 -59q0 -20 -10.5 -54t-26.5 -51q-12 -14 -29.5 -18t-52.5 -4h-727q59 -76 92 -169t33 -198v-6h364q86 0 86 -55q0 -18 -8 -51t-24 -50q-12 -10 -29.5 -16t-48.5 -6h-363 q-27 -121 -85 -222.5t-138 -179.5h645q92 0 92 -57q0 -23 -10 -55.5t-26 -50.5q-23 -23 -82 -23h-944q-86 -23 -168 -23q-143 0 -255 45.5t-189 123t-116.5 183t-39.5 226.5zM365 569q0 -84 26.5 -158.5t77.5 -130t126 -87t171 -31.5q94 0 185 44t163 123t115 188.5 t43 240.5q0 84 -26.5 158.5t-77 130t-125 87t-171.5 31.5q-96 0 -187 -44t-162.5 -122.5t-114.5 -188.5t-43 -241z" />
<glyph unicode="&#x153;" horiz-adv-x="1961" d="M94 430q0 115 40 219.5t111.5 184t173 128t224.5 48.5q147 0 257 -71t157 -200q78 125 203.5 198t285.5 73q176 0 271.5 -75t95.5 -198q0 -74 -26.5 -133t-93.5 -101t-176.5 -63.5t-275.5 -21.5q-53 0 -110 3t-125 7v-37q0 -117 68.5 -188.5t203.5 -71.5q109 0 183.5 40 t130.5 114q2 2 16 -1t31.5 -12.5t32 -27t14.5 -43.5q0 -31 -11.5 -52.5t-39.5 -50.5q-59 -59 -148.5 -91t-212.5 -32q-147 0 -248.5 62.5t-142.5 167.5q-72 -102 -182.5 -166t-251.5 -64q-100 0 -183 33t-143.5 92.5t-94.5 143.5t-34 186zM281 438q0 -66 21.5 -121t59 -95 t90 -62.5t111.5 -22.5q78 0 144.5 34t114.5 90t76 130t28 156q0 66 -21.5 121t-59.5 95t-90.5 62.5t-111.5 22.5q-78 0 -144.5 -34t-114.5 -90t-75.5 -130t-27.5 -156zM1139 569q53 -6 98 -8t86 -2q119 0 197.5 14.5t125 38t65 54t18.5 65.5q0 49 -48.5 88t-146.5 39 q-68 0 -128 -22.5t-111.5 -60.5t-91.5 -91t-64 -115z" />
<glyph unicode="&#x178;" horiz-adv-x="1239" d="M180 1325h221l258 -606l525 622l20 -3q21 -3 44.5 -13t43 -31.5t19.5 -58.5q0 -29 -15.5 -58.5t-56.5 -74.5l-502 -565l-112 -537h-213l116 547zM495 1541q0 59 35 100t94 41t89 -25.5t30 -72.5q0 -59 -34 -100.5t-93 -41.5t-90 25.5t-31 73.5zM870 1541q0 59 35 100 t94 41t90 -25.5t31 -72.5q0 -59 -35 -100.5t-94 -41.5t-90 25.5t-31 73.5z" />
<glyph unicode="&#x2c6;" horiz-adv-x="1093" d="M410 1178q0 39 34.5 83t100.5 97q33 27 66.5 50.5t62 41.5t50 28.5t32.5 12.5q14 -4 57 -42t84 -87q45 -53 64.5 -93t19.5 -69q0 -37 -20.5 -58.5t-51.5 -21.5q-33 0 -62.5 30t-64.5 93q-10 20 -23.5 43t-27.5 51q-23 -27 -44 -50t-44 -46q-51 -57 -95 -89t-79 -32 q-29 0 -44 17.5t-15 40.5z" />
<glyph unicode="&#x2dc;" horiz-adv-x="1093" d="M385 1190q0 39 16.5 77t42 67.5t58.5 47t67 17.5q55 0 129 -39t148 -115q25 53 55.5 97t65.5 44q33 0 49 -18t16 -41q0 -41 -16.5 -78t-42 -66.5t-59 -47t-66.5 -17.5q-55 0 -129 39t-148 115q-25 -53 -55.5 -97.5t-64.5 -44.5q-33 0 -49.5 18.5t-16.5 41.5z" />
<glyph unicode="&#x2000;" horiz-adv-x="915" />
<glyph unicode="&#x2001;" horiz-adv-x="1831" />
<glyph unicode="&#x2002;" horiz-adv-x="915" />
<glyph unicode="&#x2003;" horiz-adv-x="1831" />
<glyph unicode="&#x2004;" horiz-adv-x="610" />
<glyph unicode="&#x2005;" horiz-adv-x="457" />
<glyph unicode="&#x2006;" horiz-adv-x="305" />
<glyph unicode="&#x2007;" horiz-adv-x="305" />
<glyph unicode="&#x2008;" horiz-adv-x="228" />
<glyph unicode="&#x2009;" horiz-adv-x="366" />
<glyph unicode="&#x200a;" horiz-adv-x="101" />
<glyph unicode="&#x2010;" horiz-adv-x="874" d="M98 406q2 8 4 20q2 18 13 57l6 29q4 16 7 31.5t5 25.5q2 12 4 23h637q-2 -10 -4 -23q-2 -10 -5 -25.5t-7 -31.5l-6 -29q-10 -39 -13 -57q-2 -12 -4 -20h-637z" />
<glyph unicode="&#x2011;" horiz-adv-x="874" d="M98 406q2 8 4 20q2 18 13 57l6 29q4 16 7 31.5t5 25.5q2 12 4 23h637q-2 -10 -4 -23q-2 -10 -5 -25.5t-7 -31.5l-6 -29q-10 -39 -13 -57q-2 -12 -4 -20h-637z" />
<glyph unicode="&#x2012;" horiz-adv-x="874" d="M98 406q2 8 4 20q2 18 13 57l6 29q4 16 7 31.5t5 25.5q2 12 4 23h637q-2 -10 -4 -23q-2 -10 -5 -25.5t-7 -31.5l-6 -29q-10 -39 -13 -57q-2 -12 -4 -20h-637z" />
<glyph unicode="&#x2013;" horiz-adv-x="1171" d="M117 467q0 18 8 49t25 47q12 10 28.5 16.5t46.5 6.5h750q86 0 86 -56q0 -18 -9.5 -49.5t-25.5 -48.5q-10 -10 -27.5 -15t-48.5 -5h-747q-86 0 -86 55z" />
<glyph unicode="&#x2014;" horiz-adv-x="1513" d="M117 467q0 18 8 49t25 47q12 10 28.5 16.5t46.5 6.5h1090q86 0 86 -56q0 -18 -8.5 -49.5t-24.5 -48.5q-12 -10 -28.5 -15t-47.5 -5h-1089q-86 0 -86 55z" />
<glyph unicode="&#x2018;" horiz-adv-x="512" d="M203 932q0 31 12 57.5t45 63.5l252 305q8 8 25.5 6t35 -11.5t27.5 -23.5t4 -31l-225 -456q-2 -4 -29.5 -4t-60.5 9t-59.5 28.5t-26.5 56.5z" />
<glyph unicode="&#x2019;" horiz-adv-x="512" d="M166 897l225 457q2 4 30 4t60.5 -9.5t59 -29t26.5 -55.5q0 -31 -12 -57.5t-45 -63.5l-252 -305q-8 -8 -26.5 -6t-35 11t-27.5 23.5t-3 30.5z" />
<glyph unicode="&#x201a;" horiz-adv-x="528" d="M-82 -217l225 459q2 2 30 2t60.5 -8.5t59 -29t26.5 -56.5q0 -31 -12 -56.5t-45 -64.5l-252 -305q-8 -8 -26.5 -6.5t-35 11t-27.5 24t-3 30.5z" />
<glyph unicode="&#x201c;" horiz-adv-x="870" d="M203 936q0 31 12 57.5t45 63.5l256 307q8 8 25.5 6t35 -11t27.5 -23.5t2 -30.5l-233 -459q-2 -4 -29 -4t-58.5 8t-57 28.5t-25.5 57.5zM561 932q0 29 11.5 55.5t43.5 63.5l250 305q8 8 26.5 6t36 -11.5t28 -23.5t4.5 -31l-226 -456q-2 -4 -29.5 -4t-59.5 9t-58.5 29.5 t-26.5 57.5z" />
<glyph unicode="&#x201d;" horiz-adv-x="870" d="M166 899l225 457q2 4 28.5 4t59.5 -9.5t59.5 -30t26.5 -56.5q0 -29 -11 -55.5t-44 -63.5l-250 -305q-8 -8 -26.5 -6t-36 11t-27.5 23.5t-4 30.5zM520 891l234 461q2 2 28.5 2t58 -8.5t57.5 -29t26 -56.5q0 -31 -12.5 -57.5t-45.5 -63.5l-256 -308q-8 -8 -25.5 -6 t-35 11.5t-27.5 23.5t-2 31z" />
<glyph unicode="&#x201e;" horiz-adv-x="880" d="M-86 -215l225 457q2 4 29 4t59.5 -9.5t59 -30t26.5 -56.5q0 -29 -12 -55.5t-43 -63.5l-250 -305q-8 -8 -26.5 -6.5t-36 11t-27.5 24t-4 30.5zM268 -223l232 459q2 4 29.5 4t59.5 -8.5t57.5 -29t25.5 -57.5q0 -31 -12.5 -57.5t-47.5 -62.5l-254 -308q-8 -8 -26.5 -6 t-34.5 11.5t-26.5 23.5t-2.5 31z" />
<glyph unicode="&#x2022;" horiz-adv-x="753" d="M145 498q0 49 18.5 92t49.5 75.5t74 51t92 18.5t92 -18.5t73.5 -51t49 -75.5t18.5 -92t-18.5 -91t-50 -74t-73.5 -50.5t-91 -18.5t-92 18.5t-74 49t-49.5 74t-18.5 92.5z" />
<glyph unicode="&#x2026;" horiz-adv-x="1435" d="M51 72q0 39 10.5 72.5t32.5 56.5q16 16 38 24t61 8q117 0 116 -86q0 -39 -9 -72.5t-32 -56.5q-16 -16 -38.5 -24t-61.5 -8q-117 0 -117 86zM508 72q0 39 9 72.5t32 56.5q16 16 38.5 24t61.5 8q117 0 117 -86q0 -39 -10.5 -72.5t-32.5 -56.5q-16 -16 -37.5 -24t-60.5 -8 q-117 0 -117 86zM963 72q0 39 9 72.5t32 56.5q16 16 38.5 24t61.5 8q117 0 117 -86q0 -39 -10.5 -72.5t-32.5 -56.5q-16 -16 -38 -24t-61 -8q-117 0 -116 86z" />
<glyph unicode="&#x202f;" horiz-adv-x="366" />
<glyph unicode="&#x2039;" horiz-adv-x="714" d="M121 514q2 6 19.5 25.5t45 48t64.5 61.5t78 66q70 55 137 96t115 41q35 0 53 -19.5t18 -48.5q0 -41 -57 -96t-141 -106q-37 -23 -78 -47.5t-86 -47.5q68 -47 125 -104q63 -59 90.5 -94t27.5 -70q0 -29 -23 -50.5t-60 -21.5q-47 0 -99.5 43t-103.5 111q-27 35 -50.5 71 t-41 65.5t-26.5 50t-7 26.5z" />
<glyph unicode="&#x203a;" horiz-adv-x="714" d="M68 215q0 41 57 96.5t143 106.5q37 23 78 47t84 47q-35 25 -65.5 50.5t-59.5 53.5q-61 59 -89 94t-28 70q0 29 22.5 50.5t61.5 21.5q47 0 99.5 -43t103.5 -111q27 -35 49.5 -69.5t40 -64t26.5 -51t9 -28.5q-2 -6 -19.5 -25.5t-46 -48t-65.5 -61.5t-78 -65 q-68 -55 -136.5 -96.5t-115.5 -41.5q-35 0 -53 19.5t-18 48.5z" />
<glyph unicode="&#x205f;" horiz-adv-x="457" />
<glyph unicode="&#x20ac;" horiz-adv-x="1355" d="M96 481q0 18 7.5 42t19.5 38q25 20 65 21h109q6 39 15.5 81t19.5 89h-92q-76 0 -76 47q0 18 7 41.5t19 36.5q20 20 66 20h123q31 80 73 152.5t97 128.5q88 88 189.5 131t230.5 43q111 0 191.5 -34t133.5 -87q35 -35 52.5 -78t17.5 -84t-18.5 -65.5t-41 -37t-42 -15.5 t-21.5 1q-35 117 -108.5 170.5t-184.5 53.5q-80 0 -142.5 -28t-113.5 -79q-35 -35 -60.5 -79t-47.5 -93h387q76 0 76 -45q0 -20 -7.5 -44t-21.5 -36q-20 -20 -64 -20h-422q-12 -47 -20 -90.5t-12 -79.5h403q76 0 76 -47q0 -20 -8 -44t-21 -36q-20 -20 -63 -21h-391 q16 -123 91 -203.5t208 -80.5q98 0 171.5 43t143.5 137q2 2 16.5 -3t31 -17.5t29.5 -32t13 -44.5q0 -59 -65 -124q-57 -55 -150.5 -94.5t-198.5 -39.5q-229 0 -356 125t-139 334h-121q-74 0 -74 47z" />
<glyph unicode="&#x2122;" horiz-adv-x="1476" d="M195 1264v6q0 57 61 57h432q61 0 62 -57v-6q0 -59 -62 -60h-147v-450q0 -66 -62 -66h-18q-55 0 -55 66v450h-150q-61 0 -61 60zM846 754v510q0 70 63 69h56q31 0 44 -11t23 -36l123 -301l123 301q12 29 26.5 38t43.5 9h51q61 0 61 -69v-510q0 -31 -12 -48.5t-43 -17.5 h-19q-55 0 -55 66v387l-112 -289q-4 -14 -13.5 -23.5t-52.5 -9.5q-41 0 -49 8.5t-12 24.5l-117 287v-385q0 -31 -11.5 -48.5t-39.5 -17.5h-23q-55 0 -55 66z" />
<glyph unicode="&#x25fc;" horiz-adv-x="1003" d="M0 0v1004h1004v-1004h-1004z" />
<glyph unicode="&#xfb01;" horiz-adv-x="1267" d="M119 819q0 6 2 15q2 6 3 15t5 23q4 16 10 46t11 47q0 4 1 8t1 8t2 4h202l23 96q37 180 128 260t222 80t189 -61q33 -33 32 -76q0 -23 -9 -41t-20.5 -30.5t-21.5 -18.5t-12 -4q-20 29 -60.5 48t-87.5 19q-63 0 -105 -43t-65 -145l-18 -84h264q-2 -6 -4 -14q-2 -6 -3 -15.5 t-5 -21.5l-19 -94q-2 -6 -3 -9.5t-1 -7.5v-4h-258l-172 -819h-203l175 819h-203zM836 227l161 758h201l-160 -760q-16 -78 1.5 -110.5t86.5 -36.5q2 0 0 -15.5t-14 -33t-39 -32.5t-74 -15q-113 0 -150.5 65.5t-12.5 179.5zM1044 1290q0 53 34 92t93 39t90 -24.5t31 -67.5 q0 -55 -34 -94t-93 -39t-90 25.5t-31 68.5z" />
<glyph unicode="&#xfb02;" horiz-adv-x="1267" d="M119 819q0 6 2 15q2 6 3 15t5 23q4 16 10 46t11 47q0 4 1 8t1 8t2 4h202l23 96q37 180 128 260t222 80t189 -61q33 -33 32 -76q0 -23 -9 -41t-20.5 -30.5t-21.5 -18.5t-12 -4q-20 29 -60.5 48t-87.5 19q-63 0 -105 -43t-65 -145l-18 -84h264q-2 -6 -4 -14q-2 -6 -3 -15.5 t-5 -21.5l-19 -94q-2 -6 -3 -9.5t-1 -7.5v-4h-258l-172 -819h-203l175 819h-203zM834 227l249 1172h201l-248 -1174q-16 -78 1.5 -110.5t86.5 -36.5q2 0 0 -15.5t-14 -33t-39 -32.5t-74 -15q-113 0 -150.5 65.5t-12.5 179.5z" />
</font>
</defs>
</svg>
