<?xml version="1.0" standalone="no"?>
<!DOCTYPE svg PUBLIC "-//W3C//DTD SVG 1.1//EN" "http://www.w3.org/Graphics/SVG/1.1/DTD/svg11.dtd" >
<svg xmlns="http://www.w3.org/2000/svg" xmlns:xlink="http://www.w3.org/1999/xlink" version="1.1">
<metadata></metadata>
<defs>
<font id="omnes_att_w02_lightregular" horiz-adv-x="1566" >
<font-face units-per-em="2048" ascent="1434" descent="-614" />
<missing-glyph horiz-adv-x="360" />
<glyph horiz-adv-x="0" />
<glyph horiz-adv-x="682" />
<glyph unicode=" "  horiz-adv-x="360" />
<glyph unicode="&#x09;" horiz-adv-x="360" />
<glyph unicode="&#xa0;" horiz-adv-x="360" />
<glyph unicode="!" horiz-adv-x="536" d="M190 61v15q0 72 70 71h16q70 0 70 -71v-15q0 -72 -70 -71h-16q-70 0 -70 71zM207 1325h123l-31 -930q-2 -20 -5 -30.5t-20 -10.5h-12q-23 0 -22 41z" />
<glyph unicode="&#x22;" horiz-adv-x="741" d="M170 1325h123l-29 -444q-2 -20 -6 -30.5t-18 -10.5h-17q-14 0 -18 10t-8 31zM446 1325h123l-28 -444q-2 -20 -6.5 -30.5t-18.5 -10.5h-16q-14 0 -18.5 10t-6.5 31z" />
<glyph unicode="#" horiz-adv-x="1378" d="M70 377v88h282l62 197q27 86 61 198h-254v88h281l114 379q4 4 21 4q29 0 45 -27.5t-6 -95.5l-80 -260h360l115 379q4 4 21 4q29 0 45 -27.5t-7 -95.5l-79 -260h258v-88h-285l-121 -395h254v-88h-280l-115 -379q-4 -4 -21 -4q-29 0 -45 27.5t6 95.5l80 260h-360l-115 -379 q-4 -4 -20 -4q-29 0 -45.5 27.5t6.5 95.5l80 260h-258zM446 463h365l121 399h-365z" />
<glyph unicode="$" horiz-adv-x="1157" d="M115 246q0 16 9 28.5t19.5 19.5t20.5 11t12 2q16 -41 47 -79t75 -70.5t104.5 -54t136.5 -27.5v557q-74 18 -144.5 42.5t-126 64.5t-88.5 100.5t-33 148.5q0 72 30 134.5t82 108.5t123 74.5t155 34.5v172q0 2 41 3h10q39 0 39 -3v-170q115 -8 196.5 -44.5t128.5 -84.5 q27 -25 42.5 -53t15.5 -51q0 -16 -9.5 -28.5t-20.5 -19.5t-20.5 -11t-11.5 -2q-35 74 -115.5 133t-209.5 69v-534q78 -18 152.5 -44t134 -68t95 -104.5t35.5 -156.5q0 -76 -30.5 -140.5t-86 -111.5t-132 -76.5t-166.5 -33.5v-177q0 -2 -41 -2h-11q-41 0 -41 2v179 q-125 10 -213 49t-141 92q-35 35 -49 66.5t-14 54.5zM250 989q0 -59 21.5 -100t60.5 -68.5t93 -47t118 -36.5v512q-129 -8 -211 -78.5t-82 -181.5zM618 76q72 2 131.5 22.5t101.5 55t65.5 83t23.5 103.5q0 66 -25.5 110t-70.5 74.5t-103.5 51t-122.5 36.5v-536z" />
<glyph unicode="%" horiz-adv-x="1511" d="M115 1030v14q0 61 22.5 115.5t62.5 95.5t94 64.5t116 23.5q63 0 116.5 -23.5t92 -63t61 -93t22.5 -114.5v-17q0 -61 -22.5 -115.5t-62 -95.5t-93 -64.5t-114.5 -23.5q-63 0 -116.5 23.5t-93.5 63.5t-62.5 94.5t-22.5 115.5zM193 31q0 23 9 39t36 45l1026 1231 q2 2 10 -0.5t16 -6.5t15.5 -13t7.5 -23q0 -31 -47 -84l-1024 -1231q-2 -2 -10.5 0t-16.5 7t-15 14t-7 22zM205 1028q0 -92 57.5 -153.5t147.5 -61.5t147 61.5t57 153.5v21q0 45 -15 85t-43 69.5t-65.5 46t-82.5 16.5q-88 0 -145.5 -62.5t-57.5 -154.5v-21zM809 287v14 q0 61 22.5 115.5t62.5 95.5t94 64.5t116 23.5q61 0 115.5 -23.5t93.5 -63.5t61.5 -93t22.5 -115v-16q0 -61 -22.5 -115.5t-62.5 -95.5t-94.5 -64.5t-115.5 -23.5t-115.5 23.5t-93.5 63.5t-61.5 94t-22.5 116zM899 285q0 -92 57.5 -153.5t147.5 -61.5t146.5 61.5t56.5 153.5 v20q0 92 -57.5 154.5t-147.5 62.5t-146.5 -62.5t-56.5 -154.5v-20z" />
<glyph unicode="&#x26;" horiz-adv-x="1374" d="M84 362q0 80 27.5 143.5t76 112t115 83t143.5 57.5q-53 59 -90 127.5t-37 152.5q0 63 24 119.5t66 97.5t101 66t131 25q68 0 124 -23t97 -62.5t63.5 -93t22.5 -112.5q0 -66 -23.5 -118t-68.5 -92t-107.5 -68.5t-140.5 -49.5l391 -367q47 80 87 182.5t69 250.5h100 q-12 -66 -31.5 -132.5t-44 -131t-53 -123t-59.5 -105.5l289 -264q4 -4 -7.5 -23.5t-48.5 -19.5q-16 0 -33.5 5t-41.5 28l-213 196q-92 -113 -213.5 -178t-266.5 -65q-100 0 -182 26.5t-141 75.5t-92 119.5t-33 160.5zM190 367q0 -139 95.5 -219t253.5 -80q129 0 231 59 t178 158l-444 415q-66 -20 -123 -47.5t-99 -67.5t-67 -93.5t-25 -124.5zM418 1040q0 -72 35 -134.5t94 -119.5q143 35 225 94.5t82 172.5q0 43 -15.5 80.5t-43 66.5t-67.5 45.5t-89 16.5q-106 0 -163.5 -64.5t-57.5 -157.5z" />
<glyph unicode="'" horiz-adv-x="462" d="M170 1325h123l-29 -444q-2 -20 -6 -30.5t-18 -10.5h-17q-14 0 -18 10t-8 31z" />
<glyph unicode="(" horiz-adv-x="780" d="M147 467q0 115 20.5 220.5t55.5 197.5t83 168.5t104 132.5q78 78 151.5 111.5t122.5 33.5q45 0 45 -35q0 -10 -5 -23t-9 -16q-104 -23 -190.5 -93t-148 -175.5t-94 -239t-32.5 -280.5q0 -152 32.5 -286t94 -240.5t147.5 -176t191 -92.5q4 -2 9 -15t5 -24q0 -34 -45 -34 q-49 0 -123 31.5t-151 109.5q-117 117 -190 302t-73 423z" />
<glyph unicode=")" horiz-adv-x="780" d="M51 -365q0 10 5 23.5t10 15.5q104 23 190 92.5t147.5 176t94 240.5t32.5 286q0 147 -32.5 280.5t-94 239t-147.5 176t-190 92.5q-4 2 -9.5 15.5t-5.5 23.5q0 35 45 35q51 0 124 -33.5t151 -111.5q55 -55 103 -132t84 -169t55.5 -197.5t19.5 -220.5q0 -238 -73 -423 t-189 -302q-78 -78 -151 -109.5t-124 -31.5q-45 0 -45 34z" />
<glyph unicode="*" horiz-adv-x="833" d="M104 1106q0 51 50 39l225 -66l6 232q0 25 9 32t26 7q16 0 24.5 -7.5t10.5 -31.5l6 -232l223 66q51 12 51 -39q0 -16 -28 -29l-218 -80l132 -190q20 -33 4 -45q-16 -14 -30.5 -16.5t-31.5 20.5l-143 182l-144 -182q-16 -23 -31.5 -20.5t-29.5 16.5q-16 12 2 45l133 190 l-219 80q-27 10 -27 29z" />
<glyph unicode="+" horiz-adv-x="1126" d="M119 541v10q0 18 10 28.5t39 10.5h350v352q0 47 41 47h8q43 0 43 -47v-352h351q47 0 47 -39v-10q0 -39 -47 -39h-351v-377q0 -29 -11 -38t-32 -9h-8q-18 0 -29.5 9t-11.5 38v377h-350q-29 0 -39 10t-10 29z" />
<glyph unicode="," horiz-adv-x="452" d="M63 -242l121 346q10 29 20.5 42.5t39.5 13.5h8q18 0 31.5 -13.5t13.5 -40.5v-6q0 -12 -3 -29.5t-20 -43.5l-159 -291q-4 -6 -13.5 -8t-19.5 1t-16.5 10t-2.5 19z" />
<glyph unicode="-" horiz-adv-x="780" d="M123 463v90h532v-90h-532z" />
<glyph unicode="." horiz-adv-x="452" d="M147 61v15q0 72 72 71h14q72 0 72 -71v-15q0 -72 -72 -71h-14q-72 0 -72 71z" />
<glyph unicode="/" horiz-adv-x="710" d="M33 -395l526 1720h103l-527 -1720h-102z" />
<glyph unicode="0" horiz-adv-x="1341" d="M152 596v131q0 141 35.5 256t103 196t164 124t215.5 43t215 -43t163.5 -124t104.5 -195t37 -255v-129q0 -141 -37 -256t-104.5 -195.5t-164.5 -124.5t-216 -44t-214.5 43t-163 122.5t-103 194.5t-35.5 256zM254 602q0 -123 28.5 -222t83 -169t131.5 -106.5t173 -36.5 q98 0 175 36.5t131 105.5t82.5 168t28.5 222v123q0 123 -29.5 222t-83.5 169t-131 108t-173 38t-174 -37t-131.5 -106.5t-82 -168t-28.5 -221.5v-125z" />
<glyph unicode="1" horiz-adv-x="749" d="M74 1165q0 27 14 42.5t18 13.5q16 -23 46 -37.5t71 -14.5q70 0 118 47.5t52 114.5h43q47 0 47 -49v-1282h-102v1155q-25 -41 -68 -64.5t-98 -23.5q-76 0 -117 41q-25 25 -24 57z" />
<glyph unicode="2" horiz-adv-x="1114" d="M119 66v47q0 109 34.5 187.5t93 139t134.5 104.5t156 85q72 37 136 70.5t113.5 73.5t78 89t28.5 117q0 121 -84 197.5t-244 76.5q-84 0 -147.5 -23.5t-108.5 -63.5t-74.5 -92t-44.5 -109q0 -4 -11 -4t-24.5 6t-23.5 17t-10 34q0 29 23.5 85t74.5 107q57 57 144.5 97.5 t207.5 40.5q100 0 179 -27t132.5 -76t82 -117.5t28.5 -150.5q0 -84 -30.5 -145.5t-84 -109.5t-125 -87t-153.5 -78q-76 -37 -145.5 -77t-121.5 -89t-83 -112.5t-31 -149.5v-35h797v-94h-828q-70 0 -69 66z" />
<glyph unicode="3" horiz-adv-x="1130" d="M66 264q0 20 8 32.5t19 19t20.5 8.5t11.5 0q35 -111 142.5 -182.5t262.5 -71.5q172 0 271.5 78.5t99.5 213.5q0 141 -96 217t-277 76h-182v88h197q152 0 234.5 69t82.5 187q0 117 -87 189t-243 72q-131 0 -227 -62.5t-137 -153.5q-2 -2 -11.5 0.5t-20.5 10.5t-19.5 19 t-8.5 28q0 18 16.5 47t43.5 57q57 55 150.5 97.5t213.5 42.5q205 0 320 -93.5t115 -253.5q0 -117 -67 -190.5t-181 -101.5q133 -35 211 -122t78 -223q0 -88 -33 -158.5t-95.5 -120.5t-150.5 -76.5t-199 -26.5q-135 0 -231 41.5t-150 95.5q-43 43 -62 83t-19 64z" />
<glyph unicode="4" horiz-adv-x="1222" d="M106 449v30q0 23 11.5 41.5t32.5 44.5l571 709q27 35 43 48t51 13q45 0 62.5 -17.5t17.5 -49.5v-781h242v-92h-242v-395h-100v395h-615q-35 0 -54.5 15.5t-19.5 38.5zM199 487h600v750z" />
<glyph unicode="5" horiz-adv-x="1134" d="M100 233q0 16 9.5 27.5t20.5 19t20.5 9.5t11.5 0q47 -96 148.5 -156.5t244.5 -60.5q86 0 154.5 22.5t118 65.5t76 104.5t26.5 138.5q0 72 -25.5 130.5t-72 100.5t-112 64.5t-145.5 22.5q-209 0 -350 -103q-68 8 -67 74v572q0 27 17.5 44t43.5 17h735v-92h-698v-498 q72 41 152.5 60.5t166.5 19.5q102 0 186.5 -28.5t145 -83t93 -129t32.5 -166.5q0 -100 -33.5 -179t-96 -134.5t-151.5 -85t-200 -29.5q-129 0 -228.5 40.5t-158.5 100.5q-29 29 -46.5 59.5t-17.5 52.5z" />
<glyph unicode="6" horiz-adv-x="1236" d="M152 578v149q0 147 35.5 262t102 194t162 121t214.5 42q123 0 206.5 -35t131.5 -82q29 -29 42 -58.5t13 -46.5q0 -14 -8.5 -25.5t-18.5 -18.5t-18 -11t-10 -2q-43 78 -126 135.5t-212 57.5q-193 0 -303.5 -135.5t-110.5 -391.5v-121q59 82 166.5 141.5t251.5 59.5 q100 0 183 -28.5t141.5 -80t90 -124t31.5 -160.5v-8q0 -94 -33.5 -173t-95 -136.5t-145.5 -90t-185 -32.5q-119 0 -213 40.5t-158.5 118.5t-99 188.5t-34.5 250.5zM252 537v6v-6zM256 508q16 -213 120.5 -326.5t274.5 -113.5q80 0 147.5 24.5t116 68.5t75 106.5t26.5 135.5 v9q0 147 -93.5 231t-263.5 84q-68 0 -129 -17.5t-114.5 -47t-94 -69.5t-65.5 -85z" />
<glyph unicode="7" horiz-adv-x="1091" d="M92 1233v92h864q35 0 47.5 -13.5t12.5 -31.5v-10q0 -20 -29 -74l-600 -1163q-10 -23 -24.5 -31t-30.5 -8q-27 0 -43.5 18.5t-12.5 22.5l627 1198h-811z" />
<glyph unicode="8" horiz-adv-x="1220" d="M119 350q0 117 77.5 210t229.5 128q-135 33 -199.5 114t-64.5 189q0 78 31.5 142.5t90 111.5t141.5 74t185 27q211 0 329 -96.5t118 -256.5q0 -109 -64.5 -189.5t-197.5 -115.5q154 -33 229.5 -125t75.5 -213q0 -80 -35 -148.5t-99.5 -117.5t-154.5 -76.5t-201 -27.5 q-115 0 -205 26.5t-154.5 75.5t-98 116.5t-33.5 151.5zM221 354q0 -127 102.5 -206.5t288.5 -79.5q190 0 287.5 76.5t97.5 209.5q0 129 -101 209t-286 80q-186 0 -287.5 -80t-101.5 -209zM264 989q0 -117 91 -187.5t257 -70.5q164 0 253 68.5t89 189.5q0 119 -89 195 t-255 76q-170 0 -258 -74t-88 -197z" />
<glyph unicode="9" horiz-adv-x="1236" d="M121 887v12q0 94 33.5 175t95 141.5t145.5 95.5t185 35q113 0 207 -39t159.5 -115t102 -187.5t36.5 -256.5v-150q0 -307 -135 -462.5t-383 -155.5q-121 0 -208 33.5t-136 82.5q-33 35 -46 63.5t-13 49.5q0 14 8 25.5t18.5 18.5t19.5 11t11 2q41 -84 126 -141t220 -57 q205 0 311.5 128t106.5 396v100q-29 -39 -70 -75.5t-94 -64.5t-117.5 -44t-136.5 -16q-102 0 -184 28.5t-140.5 79.5t-90 124t-31.5 163zM221 895q0 -150 93 -233.5t261 -83.5q68 0 131.5 17t115.5 48t94 71t67 85q-14 223 -119.5 342t-279.5 119q-80 0 -146.5 -27t-115 -75 t-75 -112.5t-26.5 -138.5v-12z" />
<glyph unicode=":" horiz-adv-x="501" d="M172 61v15q0 72 72 71h14q72 0 72 -71v-15q0 -72 -72 -71h-14q-72 0 -72 71zM172 784v17q0 33 18.5 52t53.5 19h14q35 0 53.5 -19t18.5 -52v-17q0 -70 -72 -69h-14q-72 0 -72 69z" />
<glyph unicode=";" horiz-adv-x="501" d="M88 -242l121 346q10 29 20.5 42.5t38.5 13.5h8q18 0 32 -13.5t14 -40.5v-6q0 -12 -3.5 -29.5t-19.5 -43.5l-160 -291q-4 -6 -13 -8t-19.5 1t-16.5 10t-2 19zM172 784v17q0 33 18.5 52t53.5 19h14q35 0 53.5 -19t18.5 -52v-17q0 -70 -72 -69h-14q-72 0 -72 69z" />
<glyph unicode="&#x3c;" horiz-adv-x="1005" d="M127 545q0 33 7 44t24 21l669 371q4 2 18.5 -11.5t16.5 -33.5q2 -16 -10 -34.5t-51 -41.5l-578 -315l578 -314q39 -23 51 -41t10 -34q-2 -23 -15 -36.5t-20 -10.5l-669 370q-16 10 -23.5 21.5t-7.5 44.5z" />
<glyph unicode="=" horiz-adv-x="1126" d="M141 303v10q0 41 47 41h750q29 0 38 -10t9 -31v-10q0 -20 -9 -30.5t-38 -10.5h-750q-47 0 -47 41zM141 756v10q0 41 47 41h750q29 0 38 -10.5t9 -30.5v-10q0 -18 -9 -29.5t-38 -11.5h-750q-47 0 -47 41z" />
<glyph unicode="&#x3e;" horiz-adv-x="1003" d="M141 156q-2 16 10.5 34.5t51.5 40.5l577 314l-577 315q-39 23 -52.5 41.5t-9.5 34.5q2 20 15.5 33.5t17.5 11.5l670 -371q16 -10 24.5 -21t8.5 -44t-8.5 -44.5t-24.5 -21.5l-670 -370q-4 -2 -17.5 11t-15.5 36z" />
<glyph unicode="?" horiz-adv-x="999" d="M104 1028q0 27 21.5 86.5t75.5 112.5q53 51 131 85t188 34q88 0 160 -25t122 -68t77.5 -103t27.5 -130q0 -59 -17.5 -104.5t-46 -81t-64.5 -63.5t-74 -52q-41 -29 -80 -58.5t-70 -70.5t-49.5 -97.5t-18.5 -136.5h-86q2 96 23.5 164t54.5 116t73 81t81 59q33 23 64.5 45.5 t55 50t38 61.5t14.5 79q0 111 -77 177t-210 66q-84 0 -144.5 -24.5t-101.5 -65.5t-63.5 -93t-30.5 -105q-2 -2 -13 -1t-24.5 8t-25 19.5t-11.5 34.5zM377 53v31q0 33 12 46t47 13h29q35 0 48 -13t13 -46v-31q0 -33 -13 -46t-48 -13h-29q-59 0 -59 59z" />
<glyph unicode="@" d="M127 662q0 150 49 275.5t137 215.5t210 141.5t270 51.5q150 0 271.5 -43t207.5 -124t132 -195t46 -255q0 -182 -69.5 -284.5t-204.5 -102.5q-82 0 -136.5 43t-66.5 115q-29 -72 -86.5 -114t-143.5 -42q-59 0 -109 22.5t-87 63.5t-57.5 96.5t-20.5 122.5q0 68 20.5 124 t57.5 96t88 62.5t113 22.5q74 0 130 -37.5t85 -87.5v115h96v-336q0 -92 31.5 -141t103.5 -49q47 0 81 23.5t55.5 65.5t31.5 99.5t10 122.5q0 123 -41 224.5t-116.5 172t-183 109.5t-238.5 39t-240 -46t-186.5 -127t-120.5 -193.5t-43 -245.5t45 -245t125 -193t192.5 -126 t247.5 -45q106 0 199.5 29t152.5 70q12 10 24.5 15t29.5 5q20 0 32.5 -22.5t8.5 -28.5q-35 -27 -82.5 -52.5t-104.5 -45t-123.5 -31.5t-136.5 -12q-154 0 -280.5 49t-217 139t-139.5 215t-49 279zM569 649q0 -96 55.5 -157.5t141.5 -61.5q84 0 140.5 55.5t56.5 137.5v100 q-25 61 -74 104t-121 43q-88 0 -143.5 -61t-55.5 -160z" />
<glyph unicode="A" horiz-adv-x="1284" d="M53 0l512 1296q8 18 24.5 28.5t51.5 10.5q37 0 53.5 -10t24.5 -29l512 -1296h-115l-180 459h-592l-182 -459h-109zM377 549h526l-262 670z" />
<glyph unicode="B" horiz-adv-x="1280" d="M193 0v1264q0 27 16 44t43 17h420q213 0 321.5 -87t108.5 -251q0 -231 -254 -297q160 -29 237.5 -113.5t77.5 -214.5q0 -186 -117.5 -274t-359.5 -88h-493zM295 92h389q193 0 283 63.5t90 211.5q0 266 -369 266h-393v-541zM295 723h383q152 0 234.5 70.5t82.5 187.5 q0 252 -323 252h-377v-510z" />
<glyph unicode="C" horiz-adv-x="1406" d="M131 659q0 150 48 276t134 217t207 142.5t266 51.5q156 0 260.5 -48.5t163.5 -107.5q35 -35 53.5 -70t18.5 -55q0 -18 -9 -31.5t-20.5 -20.5t-20.5 -9.5t-11 0.5q-53 111 -169 182t-268 71q-123 0 -223 -44t-173 -123.5t-112.5 -189t-39.5 -238.5t39.5 -238t112.5 -187.5 t175.5 -123.5t224.5 -45q92 0 166 23.5t130.5 63.5t94.5 91t56 106q2 2 12 0t22.5 -8t23 -19.5t10.5 -31.5q0 -23 -21.5 -68t-69.5 -90q-59 -59 -167.5 -107t-260.5 -48q-147 0 -268 50t-206 140t-132 215t-47 274z" />
<glyph unicode="D" horiz-adv-x="1417" d="M193 0v1264q0 27 16 44t43 17h313q172 0 306.5 -45t226.5 -130t141 -208t49 -276q0 -156 -50 -279t-144.5 -209t-230.5 -132t-308 -46h-362zM295 90h266q299 0 460 151.5t161 422.5q0 133 -42 238.5t-121 179t-193.5 113.5t-260.5 40h-270v-1145z" />
<glyph unicode="E" horiz-adv-x="1216" d="M193 0v1264q0 27 16 44t43 17h838v-92h-795v-508h625v-90h-625v-541h813v-94h-915z" />
<glyph unicode="F" horiz-adv-x="1134" d="M193 0v1264q0 27 16 44t43 17h797v-92h-754v-551h569v-90h-569v-592h-102z" />
<glyph unicode="G" horiz-adv-x="1482" d="M131 659q0 150 47 276t133 217t206 142.5t265 51.5q152 0 256.5 -47.5t161.5 -104.5q37 -37 54.5 -70.5t17.5 -50.5q0 -23 -9.5 -35t-20.5 -18t-20.5 -7t-11.5 1q-25 51 -66.5 95t-97 77t-124 52t-144.5 19q-121 0 -220 -44t-171 -123.5t-111.5 -189t-39.5 -238.5 q0 -127 35.5 -236t104 -188.5t167 -124.5t223.5 -45q98 0 181 29.5t145.5 84t100.5 128t46 159.5v90h-459v92h473q35 0 55.5 -21.5t20.5 -56.5v-569q0 -2 -9 -6t-24 -4q-27 0 -42 19.5t-15 80.5v164q-53 -129 -181 -203.5t-304 -74.5q-143 0 -259 51t-197 142t-124 215 t-43 271z" />
<glyph unicode="H" horiz-adv-x="1437" d="M193 0v1284q0 47 43 47h14q45 0 45 -47v-573h848v573q0 47 43 47h14q45 0 45 -47v-1284h-102v616h-848v-616h-102z" />
<glyph unicode="I" horiz-adv-x="526" d="M213 0v1284q0 47 43 47h14q45 0 45 -47v-1284h-102z" />
<glyph unicode="J" horiz-adv-x="954" d="M82 180q0 14 8 27.5t19.5 22t20.5 11.5t11 1q31 -76 100.5 -125t168.5 -49q143 0 207.5 81.5t64.5 266.5v909h102v-909q0 -223 -90.5 -329.5t-283.5 -106.5q-80 0 -140.5 22.5t-102.5 54t-63.5 66.5t-21.5 57z" />
<glyph unicode="K" horiz-adv-x="1150" d="M193 0v1284q0 47 43 47h14q45 0 45 -47v-594l629 610q25 25 46 29t36.5 -2t22.5 -20.5t5 -28.5l-626 -598l645 -633q2 -16 -8.5 -30.5t-27 -20.5t-38 -2t-39.5 24l-645 648v-666h-102z" />
<glyph unicode="L" horiz-adv-x="1085" d="M193 0v1284q0 47 43 47h14q45 0 45 -47v-1190h649q47 0 47 -43v-8q0 -43 -47 -43h-751z" />
<glyph unicode="M" d="M193 0v1266q0 29 19 47t52 18h25q41 0 56 -17.5t34 -58.5l405 -802l408 802q16 41 32.5 58.5t55.5 17.5h20q35 0 54.5 -18.5t19.5 -46.5v-1266h-98v1214l-406 -792q-12 -29 -31.5 -46.5t-56.5 -17.5q-39 0 -57 17.5t-31 46.5l-405 792v-1214h-96z" />
<glyph unicode="N" horiz-adv-x="1439" d="M193 0v1262q0 29 13 49t42 20h26q29 0 45.5 -14t34.5 -41l799 -1118v1167h96v-1264q0 -29 -14 -48t-39 -19h-8q-29 0 -41 10t-29 33l-829 1161v-1198h-96z" />
<glyph unicode="O" d="M131 659q0 150 48 276t134 217t207 142.5t266 51.5t265 -51.5t205 -141.5t132.5 -215t47.5 -274q0 -150 -47.5 -275t-133.5 -216t-207 -142t-266 -51t-265 50t-206 140t-133 215t-47 274zM236 662q0 -129 39.5 -238t112.5 -187.5t174 -123.5t222 -45q123 0 223.5 45 t172 123.5t111.5 187t40 238.5q0 127 -40 236.5t-112.5 189t-173 124.5t-223.5 45t-223 -45t-172 -123.5t-111.5 -188t-39.5 -238.5z" />
<glyph unicode="P" horiz-adv-x="1179" d="M193 0v1264q0 27 16 44t43 17h340q236 0 361.5 -103.5t125.5 -293.5q0 -195 -125 -299.5t-372 -104.5h-287v-524h-102zM295 614h295q193 0 288 80t95 230q0 152 -95.5 230.5t-283.5 78.5h-299v-619z" />
<glyph unicode="Q" d="M131 659q0 150 48 276t134 217t207 142.5t266 51.5t265 -51.5t205 -141.5t132.5 -215t47.5 -274q0 -141 -45 -262t-127 -214l157 -159q4 -4 -11 -25.5t-48 -21.5q-25 0 -53 28l-113 115q-84 -70 -187.5 -107.5t-226.5 -37.5q-145 0 -265 50t-206 140t-133 215t-47 274z M236 662q0 -129 39.5 -238t112.5 -187.5t174 -123.5t222 -45q104 0 191.5 30.5t154.5 87.5l-313 318l64 67l315 -319q66 78 100.5 182.5t34.5 227.5q0 127 -40 236.5t-112.5 189t-173 124.5t-223.5 45t-223 -45t-172 -123.5t-111.5 -188t-39.5 -238.5z" />
<glyph unicode="R" horiz-adv-x="1208" d="M193 0v1264q0 27 16 44t43 17h358q236 0 356.5 -95t120.5 -282q0 -184 -118.5 -282.5t-333.5 -98.5h-45l491 -524q4 -6 -12 -27.5t-49 -21.5t-64 37l-497 536h-166v-567h-100zM293 655h328q184 0 272 78t88 211q0 141 -91 215t-276 74h-321v-578z" />
<glyph unicode="S" horiz-adv-x="1157" d="M113 244q0 16 9 29.5t20.5 20.5t20.5 10t11 1q20 -43 55 -86t85.5 -76.5t119 -54t154.5 -20.5q164 0 257 72.5t93 199.5q0 72 -32 119t-84 78.5t-120.5 51t-144.5 38.5q-78 18 -150.5 41.5t-131 63.5t-93.5 101.5t-35 155.5q0 78 33 143.5t91.5 112.5t137 74t171.5 27 q135 0 227 -39t143 -88q29 -29 43.5 -57.5t14.5 -49.5q0 -16 -9.5 -29.5t-19.5 -20.5t-20.5 -11t-12.5 -2q-18 41 -50 78.5t-78 66.5t-105.5 46t-132.5 17q-72 0 -133.5 -18t-105.5 -53t-68.5 -84t-24.5 -111q0 -68 27.5 -111.5t75.5 -73.5t113.5 -48.5t143.5 -36.5 q80 -18 157 -44t138.5 -68t98 -105.5t36.5 -159.5q0 -82 -31.5 -149.5t-91 -114.5t-142.5 -73.5t-183 -26.5q-147 0 -250.5 43t-161.5 100q-35 35 -50 66.5t-15 54.5z" />
<glyph unicode="T" horiz-adv-x="1226" d="M78 1274v8q0 43 47 43h977q49 0 49 -43v-8q0 -41 -49 -41h-436v-1233h-103v1233h-438q-47 0 -47 41z" />
<glyph unicode="U" horiz-adv-x="1353" d="M172 516v768q0 47 43 47h14q45 0 45 -47v-760q0 -452 402 -452h2q403 0 403 452v760q0 47 43 47h19q39 0 39 -47v-764q0 -266 -129 -403t-379 -137q-248 0 -375 135t-127 401z" />
<glyph unicode="V" horiz-adv-x="1275" d="M63 1300q-2 6 12.5 16.5t34 13.5t41 -6t33.5 -42l455 -1173l457 1173q12 33 32.5 42t40 6t32.5 -13t11 -17l-516 -1300h-114z" />
<glyph unicode="W" horiz-adv-x="1867" d="M135 1309q0 6 15.5 14t36 8t40 -14t29.5 -53l276 -1172l322 969q10 29 26.5 44t57.5 15t55.5 -15t24.5 -44l319 -967l283 1170q8 39 27.5 53t38 14t33 -8t14.5 -14l-326 -1309h-137l-332 1018l-344 -1018h-133z" />
<glyph unicode="X" horiz-adv-x="1224" d="M78 43l475 631l-457 651h111l409 -580l418 558q25 33 51 32q27 0 41.5 -20.5t10.5 -26.5l-465 -616l471 -625q4 -6 -10.5 -27.5t-42.5 -21.5q-16 0 -32 7t-26 24l-422 575l-430 -577q-24 -33 -51 -33t-41 20.5t-10 28.5z" />
<glyph unicode="Y" horiz-adv-x="1163" d="M49 1325h113l420 -666l419 635q18 29 39 34t37.5 -1t27.5 -19.5t9 -19.5l-481 -721v-567h-103v567z" />
<glyph unicode="Z" horiz-adv-x="1259" d="M125 0v109l874 1124h-817q-47 0 -47 41v8q0 43 47 43h930v-102l-876 -1129h856q49 0 49 -43v-8q0 -43 -49 -43h-967z" />
<glyph unicode="[" horiz-adv-x="720" d="M203 -395v1720h385q29 0 38 -10t9 -29v-10q0 -20 -9.5 -29.5t-37.5 -9.5h-291v-1542h291q29 0 38 -10.5t9 -30.5v-10q0 -18 -9.5 -28.5t-37.5 -10.5h-385z" />
<glyph unicode="\" horiz-adv-x="710" d="M47 1325h103l526 -1720h-103z" />
<glyph unicode="]" horiz-adv-x="720" d="M86 -346q0 20 9 30.5t38 10.5h291v1542h-291q-29 0 -38 9t-9 30v10q0 18 9 28.5t38 10.5h385v-1720h-385q-29 0 -38 10t-9 29v10z" />
<glyph unicode="^" horiz-adv-x="1085" d="M297 956q0 25 26.5 62t77.5 96q59 66 98.5 99.5t43.5 33.5t44 -33.5t93 -95.5q51 -59 78.5 -98t27.5 -64q0 -35 -30 -34q-20 0 -48 25.5t-85 103.5l-82 108l-82 -112q-51 -68 -80 -96.5t-49 -28.5q-33 0 -33 34z" />
<glyph unicode="_" horiz-adv-x="987" d="M57 -43q0 43 47 43h779q47 0 47 -43v-8q0 -43 -47 -43h-779q-47 0 -47 43v8z" />
<glyph unicode="`" horiz-adv-x="1085" d="M315 1354q0 18 13.5 29.5t29.5 11.5t37 -9.5t56 -35.5q53 -41 97 -80t74.5 -72t47 -54.5t14.5 -23.5q-4 -4 -28.5 2t-64.5 23.5t-91 45.5t-107 69q-47 35 -62.5 54t-15.5 40z" />
<glyph unicode="a" horiz-adv-x="1087" d="M106 246q0 164 167 238.5t534 78.5h20v49q0 137 -77.5 212t-219.5 75q-127 0 -207.5 -53t-121.5 -131l-9 2q-10 2 -20 8t-18.5 17.5t-8.5 29.5q0 16 14.5 43t41.5 51q47 47 129 85t207 38q182 0 284.5 -99t102.5 -276v-614h-97v193q-47 -94 -148.5 -153.5t-236.5 -59.5 q-156 0 -246 71.5t-90 194.5zM207 246q0 -86 65.5 -135.5t178.5 -49.5q80 0 148.5 26t118.5 70t79.5 103t29.5 129v96h-26q-158 -4 -270.5 -18t-184.5 -43t-105.5 -73t-33.5 -105z" />
<glyph unicode="b" horiz-adv-x="1220" d="M172 0v1378q0 10 33 11q27 0 46 -18.5t19 -78.5v-522q59 98 153.5 158.5t229.5 60.5q96 0 180.5 -37t146.5 -102.5t98 -157.5t36 -205t-35 -206t-97 -160.5t-148.5 -104t-186.5 -36.5q-74 0 -135 18t-109.5 49t-82 70t-52.5 80v-197h-96zM268 416q0 -74 29 -137.5 t79 -110.5t117.5 -74.5t145.5 -27.5q84 0 153.5 30.5t119 86t77 133t27.5 171.5q0 90 -29 166t-78 131.5t-117.5 87t-148.5 31.5q-141 0 -234.5 -72.5t-140.5 -191.5v-223z" />
<glyph unicode="c" horiz-adv-x="1110" d="M106 487q0 106 37 198.5t102.5 160t156 105.5t198.5 38q123 0 205 -38t131 -87q39 -39 56.5 -76.5t17.5 -60.5q0 -16 -9.5 -26.5t-20.5 -16.5t-21.5 -7t-12.5 1q-16 43 -45 84t-69.5 72.5t-98 50t-133.5 18.5q-86 0 -158.5 -31.5t-125 -88t-82 -132.5t-29.5 -164 q0 -90 28.5 -166.5t81 -133t125 -88t160.5 -31.5q76 0 133.5 18t98 49t69.5 72t45 84q2 2 12.5 1t21.5 -6t20.5 -16.5t9.5 -27.5q0 -23 -17.5 -61t-58.5 -79q-49 -49 -131 -85.5t-203 -36.5q-109 0 -199 38.5t-155.5 106.5t-102.5 161t-37 201z" />
<glyph unicode="d" horiz-adv-x="1220" d="M106 485q0 111 35 204t97.5 159.5t148.5 103.5t186 37q70 0 130.5 -17.5t108.5 -46t83 -66.5t55 -79v598q0 10 33 11q27 0 46.5 -18.5t19.5 -78.5v-1292h-99v197q-53 -98 -147.5 -157.5t-235.5 -59.5q-98 0 -182 36.5t-146.5 102t-97.5 159t-35 207.5zM205 487 q0 -92 27.5 -169.5t76.5 -133t118 -87t151 -31.5q78 0 145.5 27.5t118.5 74.5t79.5 110.5t28.5 135.5v227q-45 119 -137 190.5t-233 71.5q-82 0 -151 -30.5t-119 -86t-77.5 -131t-27.5 -168.5z" />
<glyph unicode="e" horiz-adv-x="1136" d="M106 481q0 109 36 202t100.5 160.5t153.5 106.5t194 39q100 0 182 -33.5t140.5 -96t90 -149.5t31.5 -194v-10q0 -23 -10 -29t-33 -6h-788q2 -90 31.5 -164t82 -127t125 -82.5t160.5 -29.5q76 0 132.5 16t98 44t69.5 62.5t46 71.5q2 2 11.5 0t19.5 -9t18.5 -18.5 t8.5 -29.5q0 -16 -14.5 -44t-47.5 -61q-45 -45 -132 -82.5t-210 -37.5q-111 0 -203 37.5t-156.5 104t-100.5 159t-36 200.5zM207 555h725q-4 78 -29.5 141.5t-70 109.5t-106.5 71.5t-136 25.5q-76 0 -140.5 -25.5t-114.5 -71.5t-83 -110.5t-45 -140.5z" />
<glyph unicode="f" horiz-adv-x="698" d="M57 881v88h203v104q0 166 69.5 251t200.5 85q59 0 98.5 -14.5t63.5 -38.5q23 -23 23 -51q0 -25 -12.5 -37.5t-16.5 -10.5q-23 29 -65.5 47.5t-90.5 18.5q-88 0 -132 -60.5t-44 -195.5v-98h256v-88h-254v-881h-96v881h-203z" />
<glyph unicode="g" horiz-adv-x="1220" d="M106 500q0 106 36 195t99.5 154.5t148.5 102.5t183 37q143 0 239.5 -60.5t137.5 -142.5v183h99v-916q0 -229 -119 -342.5t-334 -113.5q-131 0 -222 37.5t-145 91.5q-29 29 -44 58.5t-15 47.5t8 31.5t18.5 20.5t19.5 9.5t11 0.5q18 -41 50 -79t77 -67t105.5 -46t138.5 -17 q352 0 352 368v166q-53 -94 -148 -150.5t-235 -56.5q-102 0 -186 35t-145.5 99.5t-95.5 153.5t-34 200zM205 502q0 -92 26.5 -167t75.5 -128t118 -82t153 -29q76 0 144.5 25.5t118.5 72t79.5 109t29.5 133.5v207q-45 119 -136 189.5t-234 70.5q-82 0 -151 -29.5t-119 -84 t-77.5 -128t-27.5 -159.5z" />
<glyph unicode="h" horiz-adv-x="1169" d="M172 0v1378q0 10 33 11q27 0 46 -18.5t19 -78.5v-514q43 94 133.5 152.5t210.5 58.5q98 0 171 -30.5t122 -88t74 -136.5t25 -177v-557h-99v551q0 162 -76.5 254t-222.5 92q-72 0 -134 -24.5t-107 -68.5t-71 -107.5t-26 -139.5v-557h-98z" />
<glyph unicode="i" horiz-adv-x="462" d="M233 1368q68 0 68 -70q0 -67 -72 -67q-65 0 -65 65q0 72 69 72zM182 0v928q0 29 12.5 38t30.5 9h13q18 0 30.5 -9.5t12.5 -37.5v-928h-99z" />
<glyph unicode="j" horiz-adv-x="462" d="M-139 -301q0 23 13 40t15 15q23 -23 59 -40t83 -17q152 0 151 201v1071h99v-1078q0 -135 -63.5 -207.5t-186.5 -72.5q-53 0 -91 13.5t-59 33.5q-20 20 -20 41zM233 1368q68 0 68 -70q0 -67 -72 -67q-65 0 -65 65q0 72 69 72z" />
<glyph unicode="k" horiz-adv-x="940" d="M172 0v1378q0 10 33 11q27 0 46 -18.5t19 -78.5v-770l443 414q31 31 53 36t36.5 -2t21.5 -20.5t5 -21.5l-450 -412l508 -471q0 -8 -6.5 -22.5t-20.5 -22.5t-36.5 -3t-53.5 36l-500 467v-500h-98z" />
<glyph unicode="l" horiz-adv-x="462" d="M182 0v1378q0 10 33 11q27 0 46.5 -18.5t19.5 -78.5v-1292h-99z" />
<glyph unicode="m" horiz-adv-x="1814" d="M172 0v965q0 2 9 6t24 4q27 0 45 -19.5t18 -78.5v-84q47 90 133 143t191 53q129 0 214 -61.5t120 -165.5q45 102 136 164.5t216 62.5q180 0 276.5 -107.5t96.5 -310.5v-571h-99v565q0 160 -71.5 246t-208.5 86q-98 0 -185.5 -58.5t-125.5 -166.5v-672h-99v588 q0 145 -69.5 227t-210.5 82q-96 0 -183.5 -59.5t-128.5 -163.5v-674h-98z" />
<glyph unicode="n" horiz-adv-x="1169" d="M172 0v965q0 2 9 6t24 4q27 0 45 -19.5t18 -78.5v-89q49 88 137.5 144.5t210.5 56.5q96 0 169 -30.5t122 -88t74 -136.5t25 -177v-557h-99v551q0 160 -75.5 253t-219.5 93q-123 0 -210 -61.5t-132 -163.5v-672h-98z" />
<glyph unicode="o" horiz-adv-x="1204" d="M106 485q0 109 37 201t102.5 159.5t157 105.5t199.5 38q106 0 197.5 -39t157 -106.5t102.5 -160.5t37 -202t-37 -200t-102.5 -158.5t-157 -105t-197.5 -37.5q-109 0 -200 38.5t-156.5 106.5t-102.5 160t-37 200zM205 485q0 -90 29.5 -165.5t83 -133t126 -89t158.5 -31.5 t157.5 31.5t125 87t83 131t29.5 165.5q0 88 -29.5 166t-81.5 134.5t-125 89t-159 32.5t-158.5 -31.5t-126 -88t-83 -133.5t-29.5 -165z" />
<glyph unicode="p" horiz-adv-x="1220" d="M172 -389v1354q0 2 9 6t24 4q27 0 45 -19.5t18 -78.5v-107q59 98 153.5 158.5t231.5 60.5q96 0 180.5 -37t146.5 -102.5t98 -157.5t36 -205t-35 -206t-97 -160.5t-148 -104t-187 -36.5q-74 0 -134 18t-108.5 49t-82 70t-52.5 80v-586h-98zM268 416q0 -74 29 -137.5 t79 -110.5t117.5 -74.5t145.5 -27.5q84 0 153.5 30.5t119 86t77 133t27.5 171.5q0 90 -29 166t-78 131.5t-117.5 87t-148.5 31.5q-141 0 -234.5 -72.5t-140.5 -191.5v-223z" />
<glyph unicode="q" horiz-adv-x="1220" d="M106 485q0 111 35 204t97.5 159.5t148.5 103.5t186 37q72 0 132.5 -17.5t107.5 -47t82 -67.5t55 -79v99q0 59 19.5 78.5t44.5 19.5q14 0 24.5 -4t10.5 -6v-1354h-99v584q-53 -96 -148 -155.5t-235 -59.5q-98 0 -182 36.5t-146.5 102t-97.5 159t-35 207.5zM205 487 q0 -92 27.5 -169.5t76.5 -133t118 -87t151 -31.5q78 0 145.5 27.5t118.5 74.5t79.5 111.5t28.5 136.5v221q-45 121 -137 193.5t-233 72.5q-82 0 -151 -30.5t-119 -86t-77.5 -131t-27.5 -168.5z" />
<glyph unicode="r" horiz-adv-x="733" d="M172 0v965q0 2 9 6t24 4q27 0 45 -19.5t18 -78.5v-121q31 123 100.5 178t168.5 55q57 0 96 -22.5t39 -59.5q0 -29 -12.5 -41t-16.5 -10q-18 16 -48 27.5t-69 11.5q-131 0 -193.5 -119t-62.5 -315v-461h-98z" />
<glyph unicode="s" horiz-adv-x="970" d="M94 172q0 14 8.5 25.5t17.5 17.5t17 8t10 2q45 -70 129 -117t213 -47q133 0 206 53.5t73 135.5q0 49 -21.5 80.5t-61.5 52t-95 35t-123 28.5q-59 12 -120.5 27.5t-111 44.5t-81 74t-31.5 117q0 61 25.5 113t73.5 89t114.5 57.5t148.5 20.5q115 0 193 -31.5t121 -74.5 q37 -37 37 -72q0 -14 -8.5 -25.5t-17.5 -17.5t-17.5 -8t-10.5 0q-37 63 -114.5 105t-182.5 42q-127 0 -197.5 -52t-70.5 -132q0 -47 20.5 -77t58.5 -50.5t92 -34.5t120 -29q61 -12 124.5 -28.5t115 -46t84 -75.5t32.5 -118q0 -127 -101.5 -205.5t-277.5 -78.5 q-129 0 -214 33.5t-130 78.5q-27 27 -37 45.5t-10 34.5z" />
<glyph unicode="t" horiz-adv-x="741" d="M72 881v88h159v188q0 29 12.5 39t30.5 10h13q18 0 29.5 -10t11.5 -39v-188h321v-88h-321v-590q0 -121 37.5 -174.5t123.5 -53.5q53 0 93.5 24t64.5 60q4 4 18.5 -8t14.5 -41q0 -12 -7 -28.5t-26 -32.5q-23 -25 -63 -41t-99 -16q-129 0 -191.5 73.5t-62.5 227.5v600h-159z " />
<glyph unicode="u" horiz-adv-x="1169" d="M164 412v557h98v-551q0 -160 76 -253t219 -93q123 0 210 61.5t132 165.5v670h98v-965q0 -2 -10 -6t-24 -4q-25 0 -43.5 19.5t-18.5 78.5v88q-49 -86 -138 -143t-212 -57q-96 0 -169 30.5t-121 88t-72.5 136t-24.5 177.5z" />
<glyph unicode="v" horiz-adv-x="1005" d="M61 946q0 8 13.5 18.5t32 11.5t39 -12.5t36.5 -54.5l322 -821l323 821q14 41 35 54.5t39.5 11.5t30.5 -12.5t12 -16.5l-383 -946h-115z" />
<glyph unicode="w" horiz-adv-x="1421" d="M90 948q0 4 14.5 14.5t34 12.5t39 -12.5t29.5 -59.5l199 -813l233 686q6 23 21.5 33t54.5 10q37 0 52 -10t24 -33l231 -686l197 813q10 45 29.5 59.5t38 12.5t32.5 -13.5t14 -13.5l-250 -948h-120l-248 723l-254 -723h-121z" />
<glyph unicode="x" horiz-adv-x="993" d="M80 37l356 448l-350 447q-4 4 8 23.5t41 19.5q27 0 42.5 -13.5t31.5 -35.5l291 -379l286 377q23 29 40.5 40t33.5 11q29 0 42 -19.5t9 -23.5l-354 -447l350 -448q4 -4 -8 -23.5t-41 -19.5q-27 0 -42 13t-32 36l-292 383l-287 -381q-18 -25 -34.5 -38t-39.5 -13 q-29 0 -42 19.5t-9 23.5z" />
<glyph unicode="y" horiz-adv-x="999" d="M51 969h103l366 -854l326 854h104l-508 -1299q-14 -41 -31.5 -53t-37.5 -12t-37 11t-14 15l172 422q-27 0 -39.5 8.5t-22.5 30.5z" />
<glyph unicode="z" horiz-adv-x="1003" d="M104 0v76l654 809h-598q-29 0 -39 9t-10 28v10q0 18 10 27.5t39 9.5h729v-68l-660 -817h623q51 0 51 -37v-10q0 -37 -51 -37h-748z" />
<glyph unicode="{" horiz-adv-x="868" d="M84 467q0 20 3 33.5t11 24t21.5 18.5t32.5 18l153 90q8 193 64.5 332t134.5 217q70 70 137.5 102.5t114.5 32.5q39 0 39 -43q0 -10 -5.5 -23.5t-9.5 -15.5q-199 -55 -283.5 -217t-93.5 -436l-233 -133l233 -133q8 -276 93.5 -438t283.5 -218q4 -2 9.5 -15t5.5 -23 q0 -41 -39 -41q-47 0 -115 32.5t-137 102.5q-78 78 -134.5 216t-64.5 333l-153 90q-39 20 -53.5 36.5t-14.5 57.5z" />
<glyph unicode="|" horiz-adv-x="532" d="M217 -348v1632q0 29 12.5 38t30.5 9h12q18 0 30.5 -9t12.5 -38v-1632q0 -29 -12 -38t-31 -9h-12q-18 0 -30.5 9t-12.5 38z" />
<glyph unicode="}" horiz-adv-x="868" d="M72 -360q0 10 5 23t9 15q199 55 284 217t93 439l233 133l-233 133q-8 274 -93 436t-284 217q-4 2 -9 15.5t-5 23.5q0 43 39 43q47 0 114.5 -32.5t136.5 -102.5q78 -78 134.5 -217t64.5 -332l154 -90q18 -10 31.5 -18t21.5 -18.5t11 -24t3 -33.5q0 -41 -14 -57.5 t-53 -36.5l-154 -90q-8 -195 -64.5 -333t-134.5 -216q-70 -70 -137 -102.5t-114 -32.5q-39 0 -39 41z" />
<glyph unicode="~" horiz-adv-x="1083" d="M264 367q6 92 43 147t109 55q53 0 90 -25.5t67 -58.5q31 -33 52.5 -47t44.5 -14q29 0 44 22.5t25 63.5q6 23 15.5 35t27.5 12q20 0 35 -14q-4 -92 -41.5 -146.5t-109.5 -54.5q-51 0 -88 25.5t-70 58.5q-31 31 -51.5 45t-42.5 14q-31 0 -45.5 -22.5t-24.5 -63.5 q-6 -23 -15.5 -34t-27.5 -11t-37 13z" />
<glyph unicode="&#xa1;" horiz-adv-x="536" d="M190 1249v15q0 72 70 71h16q70 0 70 -71v-15q0 -72 -70 -71h-16q-70 0 -70 71zM207 0l31 930q2 20 5 30.5t19 10.5h12q23 0 23 -41l33 -930h-123z" />
<glyph unicode="&#xa2;" horiz-adv-x="1146" d="M123 575q0 104 33.5 193.5t93 157t141.5 108.5t178 51v213q0 29 11.5 38.5t29.5 9.5h8q20 0 30.5 -9.5t10.5 -38.5v-211q109 -6 186 -41.5t124 -84.5q31 -31 47 -62t16 -47t-8 -28.5t-17.5 -19.5t-18.5 -10t-11 -1q-41 86 -117 142t-205 64v-845q129 4 212 66.5 t120 154.5q2 2 11.5 0t20.5 -8.5t19.5 -17.5t8.5 -27q0 -23 -18.5 -58t-57.5 -74q-47 -47 -126 -83.5t-186 -40.5v-220q0 -29 -10 -38t-31 -9h-8q-18 0 -29.5 9.5t-11.5 37.5v222q-100 8 -183 48t-141.5 105.5t-90 154.5t-31.5 199zM223 575q0 -90 25.5 -162.5t73 -127 t111 -87t140.5 -40.5v841q-78 -6 -141 -38.5t-110.5 -87t-73 -130t-25.5 -168.5z" />
<glyph unicode="&#xa3;" horiz-adv-x="1208" d="M78 43v8q0 43 47 43h127l84 455h-184q-47 0 -48 41v10q0 41 48 41h200l58 307q35 197 126 299.5t259 102.5q84 0 144 -26t99 -67q37 -39 55.5 -85t18.5 -85q0 -23 -10 -35t-23.5 -17t-25 -6t-13.5 1q-14 106 -76.5 169t-168.5 63q-131 0 -193.5 -78t-93.5 -242l-55 -301 h374q47 0 47 -41v-10q0 -41 -47 -41h-391l-84 -455h690q47 0 48 -45v-6q0 -43 -48 -43h-917q-47 0 -47 43z" />
<glyph unicode="&#xa4;" horiz-adv-x="1341" d="M104 502v8q0 20 10.5 29.5t39.5 9.5h149q-2 16 -2 33.5v35.5v93v36.5t2 38.5h-149q-29 0 -39.5 9.5t-10.5 29.5v9q0 20 10.5 30t39.5 10h161q18 109 61.5 196t108 148.5t148.5 94.5t182 33q121 0 204 -38t130 -87q35 -37 52.5 -73t17.5 -63q0 -16 -9.5 -27t-19.5 -18.5 t-20.5 -9.5t-12.5 0q-18 45 -48 87t-72 74t-98 50.5t-130 18.5q-154 0 -257 -103.5t-138 -282.5h473q47 0 47 -40v-9q0 -39 -47 -39h-486q-2 -18 -2 -36.5v-38.5v-97v-32.5t2 -32.5h486q47 0 47 -39v-8q0 -39 -47 -39h-473q35 -180 140 -287.5t265 -107.5q74 0 131.5 19 t99.5 52t70.5 77t46.5 93q2 2 11.5 0t20.5 -8t20.5 -18.5t9.5 -30.5q0 -29 -18.5 -68t-57.5 -75q-53 -53 -136 -91t-194 -38q-211 0 -343 126.5t-167 356.5h-159q-29 0 -39.5 9t-10.5 30z" />
<glyph unicode="&#xa5;" horiz-adv-x="1193" d="M100 1288q-4 6 9.5 18.5t33 19.5t41 3t37.5 -33l375 -628l381 626q18 31 38.5 36t39 -3t29 -20.5t8.5 -18.5l-418 -659h323q47 0 47 -39v-8q0 -39 -47 -39h-354v-203h354q47 0 47 -39v-10q0 -39 -47 -39h-354v-211q0 -47 -43 -47h-10q-41 0 -41 47v211h-354q-47 0 -48 39 v10q0 39 48 39h354v203h-354q-47 0 -48 39v8q0 39 48 39h323z" />
<glyph unicode="&#xa6;" horiz-adv-x="532" d="M217 -348v710q0 29 12.5 38.5t30.5 9.5h12q18 0 30.5 -9.5t12.5 -38.5v-710q0 -29 -12 -38t-31 -9h-12q-18 0 -30.5 9t-12.5 38zM217 573v711q0 29 12.5 38t30.5 9h12q18 0 30.5 -9t12.5 -38v-711q0 -29 -12 -38t-31 -9h-12q-18 0 -30.5 9.5t-12.5 37.5z" />
<glyph unicode="&#xa7;" horiz-adv-x="1087" d="M98 -84q0 16 8.5 28.5t18.5 19.5t19.5 11.5t9.5 1.5q45 -92 135 -150t243 -58q147 0 234.5 56t87.5 152q0 59 -25.5 96.5t-70.5 62t-109.5 41t-140.5 34.5q-74 16 -145.5 36.5t-129 54.5t-92.5 86t-35 130q0 98 67 162.5t179 93.5q-92 33 -150.5 91.5t-58.5 168.5 q0 70 32 127.5t86 98t128 63.5t160 23q129 0 212 -36t130 -83q27 -29 40 -56.5t13 -44.5q0 -16 -8 -27.5t-17.5 -19.5t-18.5 -11t-11 -1q-45 80 -126 134t-214 54q-63 0 -119.5 -14t-97.5 -42t-65.5 -66.5t-24.5 -85.5q0 -55 24.5 -92t69.5 -64t107.5 -45.5t138.5 -34.5 q74 -16 145.5 -36.5t127.5 -54.5t92 -85t36 -129q0 -98 -64.5 -165t-173.5 -95q43 -14 81 -36t66 -52.5t44 -73.5t16 -100q0 -68 -29.5 -124.5t-85 -96t-132 -62.5t-170.5 -23q-141 0 -233.5 38t-139.5 85q-35 35 -49.5 65t-14.5 50zM201 526q0 -55 27.5 -92t75.5 -62.5 t111.5 -43t135.5 -31.5l80 -18q55 6 102 25.5t82 49t54.5 66.5t19.5 76q0 55 -27.5 92t-76 61.5t-112 42t-134.5 33.5l-78 16q-57 -6 -104.5 -26.5t-82 -49t-54 -65.5t-19.5 -74z" />
<glyph unicode="&#xa8;" horiz-adv-x="1085" d="M303 1194q0 37 20.5 57.5t55.5 20.5q78 0 78 -78q0 -37 -20.5 -57.5t-55.5 -20.5t-56.5 20.5t-21.5 57.5zM629 1194q0 78 76 78q35 0 56 -20.5t21 -57.5t-20 -57.5t-55 -20.5q-78 0 -78 78z" />
<glyph unicode="&#xa9;" horiz-adv-x="1595" d="M131 659q0 147 50 273.5t139.5 217.5t212 143.5t266.5 52.5q147 0 270 -50.5t211 -140.5t137 -215t49 -274q0 -147 -50 -273.5t-140 -217.5t-213 -143t-266 -52q-147 0 -269 50t-210.5 140t-137.5 215t-49 274zM213 662q0 -133 44 -244t122 -193t185.5 -127t236.5 -45 t235.5 45t184 126t120.5 192.5t43 247.5q0 131 -44 243.5t-122.5 193.5t-186 127t-234.5 46q-129 0 -236.5 -45t-184.5 -126t-120 -193.5t-43 -247.5zM459 659q0 78 26.5 144.5t74.5 116t112.5 77t140.5 27.5q80 0 138.5 -25.5t88.5 -58.5q43 -43 43 -82q0 -12 -7 -21.5 t-16 -15.5t-17.5 -9t-10.5 -1q-25 55 -80 92t-141 37q-55 0 -102 -21.5t-82 -59.5t-54.5 -89t-19.5 -108q0 -61 19.5 -112.5t54.5 -88.5t84 -58.5t108 -21.5q94 0 146.5 43t74.5 96q2 2 10.5 0t17.5 -8t17.5 -15.5t8.5 -23.5t-12.5 -39.5t-41.5 -56.5q-31 -31 -88 -55.5 t-137 -24.5t-145.5 26.5t-112.5 74.5t-72.5 115t-25.5 146z" />
<glyph unicode="&#xaa;" horiz-adv-x="913" d="M102 748q0 57 26 103t90.5 79t174 53.5t279.5 26.5v20q0 109 -58.5 171.5t-175.5 62.5q-96 0 -156.5 -42t-95.5 -102l-8 1t-17 6.5t-17.5 15.5t-8.5 26q0 31 47 82q37 35 100.5 65t161.5 30q160 0 240 -86t80 -230v-473q0 -4 -9.5 -7t-21.5 -3q-25 0 -42 16.5t-17 69.5 v63q-37 -72 -114 -115.5t-173 -43.5q-131 0 -208 55t-77 156zM197 752q0 -66 54 -103t148 -37q57 0 107.5 18.5t87.5 49.5t58.5 72t21.5 86v104q-147 -6 -240.5 -21.5t-145.5 -40t-71.5 -57t-19.5 -71.5zM375 55v13q0 66 65 65h13q66 0 65 -65v-13q0 -66 -65 -65h-13 q-66 0 -65 65z" />
<glyph unicode="&#xab;" horiz-adv-x="1060" d="M121 496q0 8 45 57t127 119q76 66 119 95.5t69 29.5q33 0 33 -35q0 -16 -35 -52t-121 -102q-39 -31 -74.5 -58.5t-76.5 -55.5q41 -29 80 -57.5t80 -61.5q82 -66 114.5 -98.5t32.5 -49.5q0 -34 -33 -34q-27 0 -69.5 30.5t-118.5 93.5q-82 70 -127 119t-45 60zM502 496 q0 8 47 60t133 126q80 70 129 104.5t78 34.5q16 0 27.5 -10t11.5 -27q0 -23 -42 -62.5t-136 -111.5q-41 -33 -78 -60.5t-78 -55.5q41 -29 80 -56.5t80 -62.5q92 -72 133 -110t41 -60q0 -14 -11.5 -24.5t-27.5 -10.5q-29 0 -77 34t-128 101q-86 74 -134 127t-48 64z" />
<glyph unicode="&#xac;" horiz-adv-x="1228" d="M100 608v170h1012v-581h-184v411h-828z" />
<glyph unicode="&#xad;" horiz-adv-x="780" d="M123 463v90h532v-90h-532z" />
<glyph unicode="&#xae;" horiz-adv-x="1595" d="M131 659q0 147 50 273.5t139.5 217.5t212 143.5t266.5 52.5q147 0 270 -50.5t211 -140.5t137 -215t49 -274q0 -147 -50 -273.5t-140 -217.5t-213 -143t-266 -52q-147 0 -269 50t-210.5 140t-137.5 215t-49 274zM213 662q0 -133 44 -244t122 -193t185.5 -127t236.5 -45 t235.5 45t184 126t120.5 192.5t43 247.5q0 131 -44 243.5t-122.5 193.5t-186 127t-234.5 46q-129 0 -236.5 -45t-184.5 -126t-120 -193.5t-43 -247.5zM557 360v607q0 55 51 55h207q129 0 197.5 -53.5t68.5 -159.5q0 -94 -61.5 -149.5t-183.5 -57.5l239 -250q4 -6 -10 -22.5 t-39 -16.5q-14 0 -30.5 7.5t-32.5 25.5l-226 250h-88v-240q0 -43 -39 -43h-14q-39 0 -39 47zM647 672h170q86 0 130 35.5t44 101.5q0 135 -178 135h-166v-272z" />
<glyph unicode="&#xaf;" horiz-adv-x="1085" d="M274 1204v8q0 41 60 41h418q59 0 59 -41v-8q0 -43 -59 -43h-418q-59 0 -60 43z" />
<glyph unicode="&#xb0;" horiz-adv-x="843" d="M135 1044v17q0 61 22.5 114.5t61.5 91.5t92.5 60.5t114.5 22.5t113.5 -21.5t89.5 -60.5t58.5 -91.5t21.5 -113.5v-16q0 -61 -22.5 -114.5t-61.5 -91.5t-92.5 -60.5t-114.5 -22.5t-113.5 21.5t-89.5 59.5t-58.5 91t-21.5 114zM219 1047q0 -43 15.5 -82t43 -67t64.5 -44 t80 -16q86 0 144.5 59t58.5 147v17q0 43 -16.5 82t-44 66.5t-64.5 44t-80 16.5q-86 0 -143.5 -59.5t-57.5 -147.5v-16z" />
<glyph unicode="&#xb1;" horiz-adv-x="1290" d="M223 303v10q0 20 9.5 30.5t37.5 10.5h750q47 0 47 -41v-10q0 -41 -47 -41h-750q-29 0 -38 10.5t-9 30.5zM254 872v11q0 39 47 39h297v299q0 29 11.5 39t31.5 10h8q18 0 29.5 -10.5t11.5 -38.5v-299h297q29 0 38 -9.5t9 -29.5v-11q0 -18 -9 -28t-38 -10h-297v-316 q0 -29 -11 -38t-30 -9h-8q-20 0 -31.5 9t-11.5 38v316h-297q-47 0 -47 38z" />
<glyph unicode="&#xb2;" horiz-adv-x="749" d="M117 1151q0 23 17.5 57.5t51.5 63.5q35 29 83 48t114 19q121 0 185.5 -58t64.5 -157q0 -49 -17.5 -83.5t-46 -60.5t-68.5 -47.5t-83 -41.5q-43 -18 -82 -39t-68.5 -46.5t-48 -58t-18.5 -77.5v-4h399q45 0 45 -37v-6q0 -39 -45 -39h-420q-35 0 -48 12t-13 41v33 q0 57 18.5 100t51 75t73.5 56.5t88 46.5q39 18 73 35.5t59.5 38t41 44.5t15.5 56q0 59 -42 97t-122 38q-86 0 -130 -46t-61 -105q0 -2 -11 -2t-23.5 4t-22.5 14.5t-10 28.5z" />
<glyph unicode="&#xb3;" horiz-adv-x="749" d="M86 733q0 18 8 28.5t19.5 15.5t20.5 6t9 -1q18 -59 72.5 -97t138.5 -38q86 0 140.5 41t54.5 107t-51.5 103.5t-137.5 37.5h-65q-45 0 -45 35v6q0 33 45 33h76q72 0 114.5 33.5t42.5 89.5q0 59 -48 94t-126 35q-74 0 -123 -35t-67 -82l-10 1q-9 1 -19 6t-18 15.5t-8 26.5 q0 23 18 48.5t53 45.5q33 23 78 37t98 14q125 0 191.5 -53t66.5 -145q0 -66 -35.5 -106t-95.5 -56q72 -20 112 -68t40 -120q0 -102 -74 -161t-205 -59q-55 0 -98 12.5t-76 32.5q-47 27 -71.5 60t-24.5 57z" />
<glyph unicode="&#xb4;" horiz-adv-x="1085" d="M401 1120q-2 2 14.5 23.5t47.5 54.5t75 72t97 80q35 27 55.5 36t36.5 9q18 0 31.5 -11.5t13.5 -29.5q0 -20 -16.5 -40t-61.5 -54q-55 -41 -106 -69t-92 -45.5t-67 -23.5t-28 -2z" />
<glyph unicode="&#xb5;" horiz-adv-x="1169" d="M164 -532v1501h98v-551q0 -160 76 -253t219 -93q123 0 210 61.5t132 165.5v670h98v-965q0 -2 -10 -6t-24 -4q-25 0 -43.5 19.5t-18.5 78.5v88q-49 -86 -138 -143t-212 -57q-96 0 -169 30.5t-120 85.5v-628h-98z" />
<glyph unicode="&#xb6;" horiz-adv-x="1257" d="M102 969q0 174 116 266t345 92h232q29 0 45 -17.5t16 -43.5v-1225q0 -47 -43 -47h-12q-23 0 -34 13t-11 34v582h-183q-229 0 -350 86t-121 260zM963 41v1243q0 47 45 47h12q45 0 45 -47v-1243q0 -47 -45 -47h-12q-45 0 -45 47z" />
<glyph unicode="&#xb7;" horiz-adv-x="483" d="M164 500v16q0 72 69 72h15q72 0 71 -72v-16q0 -70 -71 -70h-15q-70 0 -69 70z" />
<glyph unicode="&#xb8;" horiz-adv-x="1085" d="M377 -412l127 260q10 25 21.5 39.5t39.5 14.5h8q20 0 36 -12.5t16 -32.5v-7q0 -12 -11.5 -27.5t-27.5 -37.5l-158 -221q-4 -6 -15.5 -7t-20.5 2t-15 10t0 19z" />
<glyph unicode="&#xb9;" horiz-adv-x="749" d="M133 1217q0 23 13.5 36t17.5 11q25 -35 82 -35q45 0 79.5 27.5t39.5 74.5h34q45 0 45 -47v-618h150q45 0 45 -41v-4q0 -37 -45 -37h-412q-45 0 -45 37v4q0 41 45 41h170v526q-18 -25 -48 -38t-64 -13q-23 0 -45.5 7t-36.5 21q-25 18 -25 48z" />
<glyph unicode="&#xba;" horiz-adv-x="1011" d="M113 938q0 86 30.5 159.5t84 129t125 87.5t155.5 32t155.5 -31t124 -85t82 -128t29.5 -160t-29.5 -159.5t-83 -129t-125 -87t-155.5 -31.5t-157 30.5t-125 85t-81.5 128t-29.5 159.5zM205 940q0 -68 22.5 -127t63.5 -102t95 -69t120 -26t122 25t96 69t62.5 103t22.5 127 t-22.5 127t-63.5 103t-96.5 69t-118.5 25q-66 0 -122 -25t-96 -69t-62.5 -103t-22.5 -127zM434 55v13q0 66 64 65h14q66 0 66 -65v-13q0 -66 -66 -65h-14q-63 0 -64 65z" />
<glyph unicode="&#xbb;" horiz-adv-x="1060" d="M135 207q0 23 41 62.5t135 111.5l156 117q-41 29 -80 56.5t-80 59.5q-92 72 -132 111t-40 61q0 14 10.5 24.5t26.5 10.5q29 0 77 -33.5t128 -101.5q86 -76 134 -128t48 -62t-47 -61.5t-133 -127.5q-80 -70 -129 -103.5t-78 -33.5q-16 0 -26.5 10t-10.5 27zM547 227 q0 18 35.5 54t119.5 102q39 31 75 58.5t77 56.5q-41 29 -80 57.5t-80 60.5q-80 66 -113.5 99t-33.5 49q0 33 33 33q27 0 69.5 -30t118.5 -93q82 -72 128 -121t46 -57q0 -10 -46 -58.5t-128 -120.5q-76 -63 -118.5 -92.5t-69.5 -29.5q-33 0 -33 32z" />
<glyph unicode="&#xbc;" horiz-adv-x="1683" d="M133 1217q0 23 13.5 36t17.5 11q25 -35 82 -35q45 0 79.5 27.5t39.5 74.5h34q45 0 45 -47v-618h150q45 0 45 -41v-4q0 -37 -45 -37h-412q-45 0 -45 37v4q0 41 45 41h170v526q-18 -25 -48 -38t-64 -13q-23 0 -45.5 7t-36.5 21q-25 18 -25 48zM313 -23q0 23 7.5 37.5 t29.5 44.5q10 14 60.5 75t118 142.5t143.5 174t137 167.5q31 39 71 88.5t83 103.5t89 111.5t89 110.5q100 127 207 262h7t15 -3t15.5 -10t7.5 -19q0 -16 -8.5 -36t-30.5 -46q-10 -14 -59.5 -75t-117 -143.5t-143.5 -175t-137 -168.5q-41 -51 -97.5 -120.5t-115.5 -144 t-117.5 -148.5t-104.5 -131.5t-75 -93.5l-29 -35q-4 -4 -24.5 2t-20.5 30zM1008 252v20q2 16 8 28.5t20 31.5l289 375q16 25 32.5 34t53.5 9q39 0 54.5 -14.5t15.5 -49.5v-399h96q43 0 43 -37v-4q0 -37 -43 -37h-96v-168q0 -45 -41 -45h-6q-39 0 -39 45v168h-326 q-29 0 -45 12t-16 31zM1094 285h303l-2 389z" />
<glyph unicode="&#xbd;" horiz-adv-x="1683" d="M133 1217q0 23 13.5 36t17.5 11q25 -35 82 -35q45 0 79.5 27.5t39.5 74.5h34q45 0 45 -47v-618h150q45 0 45 -41v-4q0 -37 -45 -37h-412q-45 0 -45 37v4q0 41 45 41h170v526q-18 -25 -48 -38t-64 -13q-23 0 -45.5 7t-36.5 21q-25 18 -25 48zM272 -23q0 23 7.5 37.5 t29.5 44.5q10 14 60.5 75t118 142.5t143.5 174t137 167.5q31 39 71 88.5t83 103.5t89 111.5t89 110.5q100 127 207 262h7t15 -3t15.5 -10t7.5 -19q0 -16 -8.5 -36t-30.5 -46q-10 -14 -59.5 -75t-117 -143.5t-143 -175t-137.5 -168.5q-41 -51 -97.5 -120.5t-115.5 -144 t-117.5 -148.5t-104.5 -131.5t-75 -93.5l-29 -35q-4 -4 -24.5 2t-20.5 30zM1051 567q0 23 17 57.5t52 63.5t83 48.5t114 19.5q121 0 185.5 -58.5t64.5 -156.5q0 -49 -17.5 -84t-46 -60.5t-68.5 -47t-83 -42.5q-43 -18 -82 -38.5t-69 -46t-48 -58.5t-18 -78v-4h399 q45 0 45 -37v-6q0 -39 -45 -39h-420q-35 0 -48 12.5t-13 40.5v33q0 57 18.5 100t51 75t73.5 56.5t88 47.5q39 18 73 35.5t59.5 38t41 44t15.5 56.5q0 59 -42 97t-122 38q-86 0 -130 -46t-61 -106q0 -2 -11 -2t-23.5 4t-22.5 14.5t-10 28.5z" />
<glyph unicode="&#xbe;" horiz-adv-x="1683" d="M86 733q0 18 8 28.5t19.5 15.5t20.5 6t9 -1q18 -59 72.5 -97t138.5 -38q86 0 140.5 41t54.5 107t-51.5 103.5t-137.5 37.5h-65q-45 0 -45 35v6q0 33 45 33h76q72 0 114.5 33.5t42.5 89.5q0 59 -48 94t-126 35q-74 0 -123 -35t-67 -82l-10 1q-9 1 -19 6t-18 15.5t-8 26.5 q0 23 18 48.5t53 45.5q33 23 78 37t98 14q125 0 191.5 -53t66.5 -145q0 -66 -35.5 -106t-95.5 -56q72 -20 112 -68t40 -120q0 -102 -74 -161t-205 -59q-55 0 -98 12.5t-76 32.5q-47 27 -71.5 60t-24.5 57zM313 -23q0 23 7.5 37.5t29.5 44.5q10 14 60.5 75t118 142.5 t143.5 174t137 167.5q31 39 71 88.5t83 103.5t89 111.5t89 110.5q100 127 207 262h7q7 0 15 -3t15.5 -10t7.5 -19q0 -16 -8.5 -36t-30.5 -46q-10 -14 -59.5 -75t-117 -143.5t-143.5 -175t-137 -168.5q-41 -51 -97.5 -120.5t-115.5 -144t-117.5 -148.5t-104.5 -131.5 t-75 -93.5l-29 -35q-4 -4 -24.5 2t-20.5 30zM1008 252v20q2 16 8 28.5t20 31.5l289 375q16 25 32.5 34t53.5 9q39 0 54.5 -14.5t15.5 -49.5v-399h96q43 0 43 -37v-4q0 -37 -43 -37h-96v-168q0 -45 -41 -45h-6q-39 0 -39 45v168h-326q-29 0 -45 12t-16 31zM1094 285h303 l-2 389z" />
<glyph unicode="&#xbf;" horiz-adv-x="999" d="M92 303q0 61 17.5 106.5t46 80t65.5 63.5t74 53q41 27 80 56.5t69.5 67.5t49 90t18.5 124q0 16 12.5 22.5t30.5 6.5q43 0 43 -35q-2 -86 -23.5 -148.5t-54.5 -106.5t-73.5 -76t-79.5 -58q-35 -23 -66 -45.5t-54.5 -50t-37.5 -62.5t-14 -80q0 -104 73.5 -172.5 t216.5 -68.5q82 0 141.5 24.5t100.5 65.5t63.5 93t30.5 105q2 2 13.5 1t24.5 -7t24.5 -19.5t11.5 -33.5q0 -29 -21.5 -87t-74.5 -112q-53 -53 -130 -86.5t-188 -33.5q-92 0 -164.5 25.5t-122 69.5t-76 103.5t-26.5 124.5zM473 1241v31q0 33 13.5 46t48.5 13h28q59 0 60 -59 v-31q0 -33 -12.5 -46t-47.5 -13h-28q-35 0 -48.5 13t-13.5 46z" />
<glyph unicode="&#xc0;" horiz-adv-x="1284" d="M53 0l512 1296q8 18 24.5 28.5t51.5 10.5q37 0 53.5 -10t24.5 -29l512 -1296h-115l-180 459h-592l-182 -459h-109zM354 1704q0 18 13.5 29.5t29.5 11.5t37 -9.5t56 -35.5q53 -41 97 -80t74.5 -72t47 -54.5t14.5 -23.5q-4 -4 -28.5 2t-64.5 23.5t-91 45.5t-107 69 q-47 35 -62.5 54t-15.5 40zM377 549h526l-262 670z" />
<glyph unicode="&#xc1;" horiz-adv-x="1284" d="M53 0l512 1296q8 18 24.5 28.5t51.5 10.5q37 0 53.5 -10t24.5 -29l512 -1296h-115l-180 459h-592l-182 -459h-109zM377 549h526l-262 670zM538 1476q-2 2 14.5 23.5t47.5 54.5t75 72t97 80q35 27 55.5 36t36.5 9q18 0 31.5 -11.5t13.5 -29.5q0 -20 -16.5 -40t-61.5 -54 q-55 -41 -106 -69t-92 -45.5t-67 -23.5t-28 -2z" />
<glyph unicode="&#xc2;" horiz-adv-x="1284" d="M53 0l512 1296q8 18 24.5 28.5t51.5 10.5q37 0 53.5 -10t24.5 -29l512 -1296h-115l-180 459h-592l-182 -459h-109zM377 549h526l-262 670zM395 1493q0 23 26.5 59.5t77.5 96.5q59 66 98.5 99.5t43.5 33.5t44 -34t93 -95q51 -59 78.5 -97t27.5 -63q0 -35 -30 -35 q-20 0 -47 25.5t-86 101.5l-82 109l-82 -111q-51 -70 -80 -97.5t-49 -27.5q-33 0 -33 35z" />
<glyph unicode="&#xc3;" horiz-adv-x="1284" d="M53 0l512 1296q8 18 24.5 28.5t51.5 10.5q37 0 53.5 -10t24.5 -29l512 -1296h-115l-180 459h-592l-182 -459h-109zM370 1493q6 92 43 147t109 55q53 0 90 -25.5t67 -60.5q31 -31 52.5 -45t44.5 -14q29 0 44 22.5t25 63.5q6 23 15.5 35t27.5 12q16 0 35 -14 q-4 -92 -41.5 -146.5t-109.5 -54.5q-51 0 -88 24.5t-70 59.5q-31 31 -51.5 45t-42.5 14q-31 0 -45.5 -22.5t-24.5 -63.5q-6 -23 -15.5 -35t-27.5 -12q-16 0 -37 15zM377 549h526l-262 670z" />
<glyph unicode="&#xc4;" horiz-adv-x="1284" d="M53 0l512 1296q8 18 24.5 28.5t51.5 10.5q37 0 53.5 -10t24.5 -29l512 -1296h-115l-180 459h-592l-182 -459h-109zM377 549h526l-262 670zM401 1544q0 37 20.5 57.5t55.5 20.5q78 0 78 -78q0 -37 -20.5 -57.5t-55.5 -20.5t-56.5 20.5t-21.5 57.5zM727 1544q0 78 76 78 q35 0 56 -20.5t21 -57.5t-20 -57.5t-55 -20.5q-78 0 -78 78z" />
<glyph unicode="&#xc5;" horiz-adv-x="1284" d="M61 25l496 1253q-61 23 -98 76t-37 125q0 96 61.5 159.5t159.5 63.5t158.5 -63.5t60.5 -159.5q0 -72 -37 -125.5t-100 -75.5l498 -1253q2 -6 -12.5 -16.5t-35 -13.5t-41 6t-32.5 42l-166 416h-592l-166 -416q-12 -33 -32.5 -42t-40 -6t-33 13t-11.5 17zM377 549h526 l-262 674zM496 1479q0 -66 41 -110t104 -44t104 44t41 110t-40.5 110.5t-104.5 44.5q-63 0 -104 -45t-41 -110z" />
<glyph unicode="&#xc6;" horiz-adv-x="1789" d="M61 25l496 1253q10 20 25.5 33.5t42.5 13.5h1026v-92h-912q14 -39 31 -80q14 -35 32.5 -81t37.5 -93q43 -113 100 -252h567v-94h-528l213 -539h487v-94h-501q-39 0 -56.5 14.5t-29.5 42.5l-154 402h-596l-164 -416q-12 -33 -32.5 -42t-40 -6t-33 13t-11.5 17zM377 549 h526l-262 670z" />
<glyph unicode="&#xc7;" horiz-adv-x="1406" d="M131 659q0 150 48 276t134 217t207 142.5t266 51.5q156 0 260.5 -48.5t163.5 -107.5q35 -35 53.5 -70t18.5 -55q0 -18 -9 -31.5t-20.5 -20.5t-20.5 -9.5t-11 0.5q-53 111 -169 182t-268 71q-123 0 -223 -44t-173 -123.5t-112.5 -189t-39.5 -238.5t39.5 -238t112.5 -187.5 t175.5 -123.5t224.5 -45q92 0 166 23.5t130.5 63.5t94.5 91t56 106q2 2 12 0t22.5 -8t23 -19.5t10.5 -31.5q0 -23 -21.5 -68t-69.5 -90q-59 -59 -167.5 -107t-260.5 -48q-147 0 -268 50t-206 140t-132 215t-47 274zM579.5 -431q-6.5 7 0.5 19l127 260q10 25 21 39.5t40 14.5 h8q20 0 35.5 -12.5t15.5 -32.5v-7q0 -12 -11 -27.5t-28 -37.5l-157 -221q-4 -6 -15.5 -7t-20.5 2t-15.5 10z" />
<glyph unicode="&#xc8;" horiz-adv-x="1216" d="M193 0v1264q0 27 16 44t43 17h838v-92h-795v-508h625v-90h-625v-541h813v-94h-915zM413 1710q0 18 13.5 29.5t29.5 11.5t37 -9.5t56 -35.5q53 -41 97 -80t74.5 -72t47 -54.5t14.5 -23.5q-4 -4 -28.5 2t-64.5 23.5t-91 45.5t-107 69q-47 35 -62.5 54t-15.5 40z" />
<glyph unicode="&#xc9;" horiz-adv-x="1216" d="M193 0v1264q0 27 16 44t43 17h838v-92h-795v-508h625v-90h-625v-541h813v-94h-915zM503 1476q-2 2 14.5 23.5t47.5 54.5t75 72t97 80q35 27 55.5 36t36.5 9q18 0 31.5 -11.5t13.5 -29.5q0 -20 -16.5 -40t-61.5 -54q-55 -41 -106 -69t-92 -45.5t-67 -23.5t-28 -2z" />
<glyph unicode="&#xca;" horiz-adv-x="1216" d="M193 0v1264q0 27 16 44t43 17h838v-92h-795v-508h625v-90h-625v-541h813v-94h-915zM403 1507q0 23 26.5 59.5t77.5 96.5q59 66 98.5 99.5t43.5 33.5t44 -34t93 -95q51 -59 78.5 -97t27.5 -63q0 -35 -30 -35q-20 0 -47 25.5t-86 101.5l-82 109l-82 -111q-51 -70 -80 -97.5 t-49 -27.5q-33 0 -33 35z" />
<glyph unicode="&#xcb;" horiz-adv-x="1216" d="M193 0v1264q0 27 16 44t43 17h838v-92h-795v-508h625v-90h-625v-541h813v-94h-915zM405 1550q0 37 20.5 57.5t55.5 20.5q78 0 78 -78q0 -37 -20.5 -57.5t-55.5 -20.5t-56.5 20.5t-21.5 57.5zM731 1550q0 78 76 78q35 0 56 -20.5t21 -57.5t-20 -57.5t-55 -20.5 q-78 0 -78 78z" />
<glyph unicode="&#xcc;" horiz-adv-x="526" d="M-9 1704q0 18 13.5 29.5t29.5 11.5t37 -9.5t56 -35.5q53 -41 97 -80t74.5 -72t47 -54.5t14.5 -23.5q-4 -4 -28.5 2t-64.5 23.5t-91 45.5t-107 69q-47 35 -62.5 54t-15.5 40zM213 0v1284q0 47 43 47h14q45 0 45 -47v-1284h-102z" />
<glyph unicode="&#xcd;" horiz-adv-x="526" d="M168 1470q-2 2 14.5 23.5t47.5 54.5t75 72t97 80q35 27 55.5 36t36.5 9q18 0 31.5 -11.5t13.5 -29.5q0 -20 -16.5 -40t-61.5 -54q-55 -41 -106 -69t-92 -45.5t-67 -23.5t-28 -2zM213 0v1284q0 47 43 47h14q45 0 45 -47v-1284h-102z" />
<glyph unicode="&#xce;" horiz-adv-x="526" d="M18 1501q0 23 26.5 59.5t77.5 96.5q59 66 98.5 99.5t43.5 33.5t44 -34t93 -95q51 -59 78.5 -97t27.5 -63q0 -35 -30 -35q-20 0 -47 25.5t-86 101.5l-82 109l-82 -111q-51 -70 -80 -97.5t-49 -27.5q-33 0 -33 35zM213 0v1284q0 47 43 47h14q45 0 45 -47v-1284h-102z" />
<glyph unicode="&#xcf;" horiz-adv-x="526" d="M24 1550q0 37 20.5 57.5t55.5 20.5q78 0 78 -78q0 -37 -20.5 -57.5t-55.5 -20.5t-56.5 20.5t-21.5 57.5zM213 0v1284q0 47 43 47h14q45 0 45 -47v-1284h-102zM350 1550q0 78 76 78q35 0 56 -20.5t21 -57.5t-20 -57.5t-55 -20.5q-78 0 -78 78z" />
<glyph unicode="&#xd0;" horiz-adv-x="1517" d="M76 657v11q0 18 9 29.5t38 11.5h156v555q0 27 17 44t44 17h319q170 0 305.5 -45t229.5 -131t144.5 -208t50.5 -275q0 -154 -51.5 -278t-147.5 -210t-232.5 -132t-308.5 -46h-309q-27 0 -44 17.5t-17 43.5v557h-156q-29 0 -38 10.5t-9 28.5zM381 94h281q299 0 460.5 149.5 t161.5 420.5q0 131 -41 236.5t-120 179t-193.5 113.5t-261.5 40h-287v-524h465q47 0 47 -41v-11q0 -39 -47 -39h-465v-524z" />
<glyph unicode="&#xd1;" horiz-adv-x="1439" d="M193 0v1262q0 29 13 49t42 20h26q29 0 45.5 -14t34.5 -41l799 -1118v1167h96v-1264q0 -29 -14 -48t-39 -19h-8q-29 0 -41 10t-29 33l-829 1161v-1198h-96zM450 1485q6 92 43 147t109 55q53 0 90 -25.5t67 -60.5q31 -31 52.5 -45t44.5 -14q29 0 44 22.5t25 63.5 q6 23 15.5 35t27.5 12q16 0 35 -14q-4 -92 -41.5 -146.5t-109.5 -54.5q-51 0 -88 24.5t-70 59.5q-31 31 -51.5 45t-42.5 14q-31 0 -45.5 -22.5t-24.5 -63.5q-6 -23 -15.5 -35t-27.5 -12q-16 0 -37 15z" />
<glyph unicode="&#xd2;" d="M131 659q0 150 48 276t134 217t207 142.5t266 51.5t265 -51.5t205 -141.5t132.5 -215t47.5 -274q0 -150 -47.5 -275t-133.5 -216t-207 -142t-266 -51t-265 50t-206 140t-133 215t-47 274zM236 662q0 -129 39.5 -238t112.5 -187.5t174 -123.5t222 -45q123 0 223.5 45 t172 123.5t111.5 187t40 238.5q0 127 -40 236.5t-112.5 189t-173 124.5t-223.5 45t-223 -45t-172 -123.5t-111.5 -188t-39.5 -238.5zM499 1710q0 18 13.5 29.5t29.5 11.5t37 -9.5t56 -35.5q53 -41 97 -80t74.5 -72t47 -54.5t14.5 -23.5q-4 -4 -28.5 2t-64.5 23.5t-91 45.5 t-107 69q-47 35 -62.5 54t-15.5 40z" />
<glyph unicode="&#xd3;" d="M131 659q0 150 48 276t134 217t207 142.5t266 51.5t265 -51.5t205 -141.5t132.5 -215t47.5 -274q0 -150 -47.5 -275t-133.5 -216t-207 -142t-266 -51t-265 50t-206 140t-133 215t-47 274zM236 662q0 -129 39.5 -238t112.5 -187.5t174 -123.5t222 -45q123 0 223.5 45 t172 123.5t111.5 187t40 238.5q0 127 -40 236.5t-112.5 189t-173 124.5t-223.5 45t-223 -45t-172 -123.5t-111.5 -188t-39.5 -238.5zM686 1476q-2 2 14.5 23.5t47.5 54.5t75 72t97 80q35 27 55.5 36t36.5 9q18 0 31.5 -11.5t13.5 -29.5q0 -20 -16.5 -40t-61.5 -54 q-55 -41 -106 -69t-92 -45.5t-67 -23.5t-28 -2z" />
<glyph unicode="&#xd4;" d="M131 659q0 150 48 276t134 217t207 142.5t266 51.5t265 -51.5t205 -141.5t132.5 -215t47.5 -274q0 -150 -47.5 -275t-133.5 -216t-207 -142t-266 -51t-265 50t-206 140t-133 215t-47 274zM236 662q0 -129 39.5 -238t112.5 -187.5t174 -123.5t222 -45q123 0 223.5 45 t172 123.5t111.5 187t40 238.5q0 127 -40 236.5t-112.5 189t-173 124.5t-223.5 45t-223 -45t-172 -123.5t-111.5 -188t-39.5 -238.5zM533 1507q0 23 26.5 59.5t77.5 96.5q59 66 98.5 99.5t43.5 33.5t44 -34t93 -95q51 -59 78.5 -97t27.5 -63q0 -35 -30 -35q-20 0 -47 25.5 t-86 101.5l-82 109l-82 -111q-51 -70 -80 -97.5t-49 -27.5q-33 0 -33 35z" />
<glyph unicode="&#xd5;" d="M131 659q0 150 48 276t134 217t207 142.5t266 51.5t265 -51.5t205 -141.5t132.5 -215t47.5 -274q0 -150 -47.5 -275t-133.5 -216t-207 -142t-266 -51t-265 50t-206 140t-133 215t-47 274zM236 662q0 -129 39.5 -238t112.5 -187.5t174 -123.5t222 -45q123 0 223.5 45 t172 123.5t111.5 187t40 238.5q0 127 -40 236.5t-112.5 189t-173 124.5t-223.5 45t-223 -45t-172 -123.5t-111.5 -188t-39.5 -238.5zM500 1495q6 92 43 147t109 55q53 0 90 -25.5t67 -60.5q31 -31 52.5 -45t44.5 -14q29 0 44 22.5t25 63.5q6 23 15.5 35t27.5 12q16 0 35 -14 q-4 -92 -41.5 -146.5t-109.5 -54.5q-51 0 -88 24.5t-70 59.5q-31 31 -51.5 45t-42.5 14q-31 0 -45.5 -22.5t-24.5 -63.5q-6 -23 -15.5 -35t-27.5 -12q-16 0 -37 15z" />
<glyph unicode="&#xd6;" d="M131 659q0 150 48 276t134 217t207 142.5t266 51.5t265 -51.5t205 -141.5t132.5 -215t47.5 -274q0 -150 -47.5 -275t-133.5 -216t-207 -142t-266 -51t-265 50t-206 140t-133 215t-47 274zM236 662q0 -129 39.5 -238t112.5 -187.5t174 -123.5t222 -45q123 0 223.5 45 t172 123.5t111.5 187t40 238.5q0 127 -40 236.5t-112.5 189t-173 124.5t-223.5 45t-223 -45t-172 -123.5t-111.5 -188t-39.5 -238.5zM539 1550q0 37 20.5 57.5t55.5 20.5q78 0 78 -78q0 -37 -20.5 -57.5t-55.5 -20.5t-56.5 20.5t-21.5 57.5zM865 1550q0 78 76 78 q35 0 56 -20.5t21 -57.5t-20 -57.5t-55 -20.5q-78 0 -78 78z" />
<glyph unicode="&#xd7;" horiz-adv-x="1126" d="M211 221.5q-2 16.5 16 36.5l279 285l-279 282q-18 18 -16 35t14 29l6 6q12 12 27.5 14t38.5 -20l270 -285l271 285q23 23 38 20.5t27 -14.5l6 -6q12 -12 13.5 -28.5t-17.5 -35.5l-276 -282l276 -285q33 -37 4 -65l-6 -7q-12 -12 -27.5 -14t-37.5 21l-271 286l-270 -286 q-23 -23 -38 -21t-28 14l-6 7q-12 12 -14 28.5z" />
<glyph unicode="&#xd8;" d="M125 -27q0 14 8 33t31 43l127 146q-78 92 -119 209.5t-41 254.5q0 143 47 269.5t132 218.5t205 145.5t265 53.5q123 0 225.5 -37t182.5 -103l162 187q2 2 10 -1t17 -10.5t16.5 -17.5t7.5 -25q0 -16 -8.5 -33.5t-30.5 -41.5l-107 -123q84 -92 128 -214t44 -263 q0 -143 -47 -268.5t-132 -217.5t-204.5 -145t-267.5 -53q-125 0 -230.5 37.5t-187.5 107.5q-14 -16 -28 -33q-14 -14 -30.5 -32.5t-33.5 -36.5l-90 -103q-2 -2 -10 1t-17.5 10.5t-16.5 17.5t-7 24zM233 662q0 -236 129 -396l758 869q-66 55 -151.5 86.5t-190.5 31.5 q-125 0 -225 -45t-171 -124.5t-110 -188.5t-39 -233zM424 201q70 -61 160 -95t196 -34q125 0 225.5 45t171 125t109.5 187.5t39 232.5q0 121 -36 225t-105 182q-211 -244 -379 -434z" />
<glyph unicode="&#xd9;" horiz-adv-x="1353" d="M172 516v768q0 47 43 47h14q45 0 45 -47v-760q0 -453 404 -452q403 0 403 452v760q0 47 43 47h19q39 0 39 -47v-764q0 -266 -129 -403t-379 -137q-248 0 -375 135t-127 401zM415 1688q0 18 13.5 29.5t29.5 11.5t37 -9.5t56 -35.5q53 -41 97 -80t74.5 -72t47 -54.5 t14.5 -23.5q-4 -4 -28.5 2t-64.5 23.5t-91 45.5t-107 69q-47 35 -62.5 54t-15.5 40z" />
<glyph unicode="&#xda;" horiz-adv-x="1353" d="M172 516v768q0 47 43 47h14q45 0 45 -47v-760q0 -453 404 -452q403 0 403 452v760q0 47 43 47h19q39 0 39 -47v-764q0 -266 -129 -403t-379 -137q-248 0 -375 135t-127 401zM571 1454q-2 2 14.5 23.5t47.5 54.5t75 72t97 80q35 27 55.5 36t36.5 9q18 0 31.5 -11.5 t13.5 -29.5q0 -20 -16.5 -40t-61.5 -54q-55 -41 -106 -69t-92 -45.5t-67 -23.5t-28 -2z" />
<glyph unicode="&#xdb;" horiz-adv-x="1353" d="M172 516v768q0 47 43 47h14q45 0 45 -47v-760q0 -453 404 -452q403 0 403 452v760q0 47 43 47h19q39 0 39 -47v-764q0 -266 -129 -403t-379 -137q-248 0 -375 135t-127 401zM426 1499q0 23 26.5 59.5t77.5 96.5q59 66 98.5 99.5t43.5 33.5t44 -34t93 -95q51 -59 78.5 -97 t27.5 -63q0 -35 -30 -35q-20 0 -47 25.5t-86 101.5l-82 109l-82 -111q-51 -70 -80 -97.5t-49 -27.5q-33 0 -33 35z" />
<glyph unicode="&#xdc;" horiz-adv-x="1353" d="M172 516v768q0 47 43 47h14q45 0 45 -47v-760q0 -453 404 -452q403 0 403 452v760q0 47 43 47h19q39 0 39 -47v-764q0 -266 -129 -403t-379 -137q-248 0 -375 135t-127 401zM432 1544q0 37 20.5 57.5t55.5 20.5q78 0 78 -78q0 -37 -20.5 -57.5t-55.5 -20.5t-56.5 20.5 t-21.5 57.5zM758 1544q0 78 76 78q35 0 56 -20.5t21 -57.5t-20 -57.5t-55 -20.5q-78 0 -78 78z" />
<glyph unicode="&#xdd;" horiz-adv-x="1163" d="M49 1325h113l420 -666l419 635q18 29 39 34t37.5 -1t27.5 -19.5t9 -19.5l-481 -721v-567h-103v567zM464 1450q-2 2 14.5 23.5t47.5 54.5t75 72t97 80q35 27 55.5 36t36.5 9q18 0 31.5 -11.5t13.5 -29.5q0 -20 -16.5 -40t-61.5 -54q-55 -41 -106 -69t-92 -45.5t-67 -23.5 t-28 -2z" />
<glyph unicode="&#xde;" horiz-adv-x="1191" d="M193 41v1243q0 47 43 47h14q45 0 45 -47v-217h299q236 0 360.5 -104.5t124.5 -290.5q0 -193 -124 -296.5t-371 -103.5h-289v-231q0 -47 -45 -47h-14q-43 0 -43 47zM295 362h297q193 0 287 79t94 227q0 147 -94.5 227t-284.5 80h-299v-613z" />
<glyph unicode="&#xdf;" horiz-adv-x="1114" d="M172 0v946q0 229 106.5 343t290.5 114q82 0 150.5 -24.5t116 -67.5t74 -102.5t26.5 -129.5q0 -137 -83 -218t-261 -93q117 -27 196.5 -69t130 -95t72 -119.5t21.5 -142.5q0 -78 -28 -144.5t-76 -114.5t-113.5 -75.5t-141.5 -27.5q-90 0 -150.5 22.5t-92.5 54.5 q-20 20 -29.5 39t-9.5 31q0 29 18.5 45t22.5 12q33 -47 89 -82.5t154 -35.5q55 0 102.5 20t82 57t54 88.5t19.5 110.5t-17 112.5t-59 97.5t-108.5 79t-165.5 57q-49 12 -67.5 31.5t-18.5 50.5q0 23 10.5 40t16.5 21q166 4 251 60.5t85 181.5q0 106 -72 174t-201 68 q-141 0 -219 -88t-78 -281v-946h-98z" />
<glyph unicode="&#xe0;" horiz-adv-x="1087" d="M106 246q0 164 167 238.5t534 78.5h20v49q0 137 -77.5 212t-219.5 75q-127 0 -207.5 -53t-121.5 -131l-9 2q-10 2 -20 8t-18.5 17.5t-8.5 29.5q0 16 14.5 43t41.5 51q47 47 129 85t207 38q182 0 284.5 -99t102.5 -276v-614h-97v193q-47 -94 -148.5 -153.5t-236.5 -59.5 q-156 0 -246 71.5t-90 194.5zM207 246q0 -86 65.5 -135.5t178.5 -49.5q80 0 148.5 26t118.5 70t79.5 103t29.5 129v96h-26q-158 -4 -270.5 -18t-184.5 -43t-105.5 -73t-33.5 -105zM309 1354q0 18 13.5 29.5t29.5 11.5t37 -9.5t56 -35.5q53 -41 97 -80t74.5 -72t47 -54.5 t14.5 -23.5q-4 -4 -28.5 2t-64.5 23.5t-91 45.5t-107 69q-47 35 -62.5 54t-15.5 40z" />
<glyph unicode="&#xe1;" horiz-adv-x="1087" d="M106 246q0 164 167 238.5t534 78.5h20v49q0 137 -77.5 212t-219.5 75q-127 0 -207.5 -53t-121.5 -131l-9 2q-10 2 -20 8t-18.5 17.5t-8.5 29.5q0 16 14.5 43t41.5 51q47 47 129 85t207 38q182 0 284.5 -99t102.5 -276v-614h-97v193q-47 -94 -148.5 -153.5t-236.5 -59.5 q-156 0 -246 71.5t-90 194.5zM207 246q0 -86 65.5 -135.5t178.5 -49.5q80 0 148.5 26t118.5 70t79.5 103t29.5 129v96h-26q-158 -4 -270.5 -18t-184.5 -43t-105.5 -73t-33.5 -105zM401 1120q-2 2 14.5 23.5t47.5 54.5t75 72t97 80q35 27 55.5 36t36.5 9q18 0 31.5 -11.5 t13.5 -29.5q0 -20 -16.5 -40t-61.5 -54q-55 -41 -106 -69t-92 -45.5t-67 -23.5t-28 -2z" />
<glyph unicode="&#xe2;" horiz-adv-x="1087" d="M106 246q0 164 167 238.5t534 78.5h20v49q0 137 -77.5 212t-219.5 75q-127 0 -207.5 -53t-121.5 -131l-9 2q-10 2 -20 8t-18.5 17.5t-8.5 29.5q0 16 14.5 43t41.5 51q47 47 129 85t207 38q182 0 284.5 -99t102.5 -276v-614h-97v193q-47 -94 -148.5 -153.5t-236.5 -59.5 q-156 0 -246 71.5t-90 194.5zM207 246q0 -86 65.5 -135.5t178.5 -49.5q80 0 148.5 26t118.5 70t79.5 103t29.5 129v96h-26q-158 -4 -270.5 -18t-184.5 -43t-105.5 -73t-33.5 -105zM293 1151q0 23 26.5 59.5t77.5 96.5q59 66 98.5 99.5t43.5 33.5t44 -34t93 -95 q51 -59 78.5 -97t27.5 -63q0 -35 -30 -35q-20 0 -47 25.5t-86 101.5l-82 109l-82 -111q-51 -70 -80 -97.5t-49 -27.5q-33 0 -33 35z" />
<glyph unicode="&#xe3;" horiz-adv-x="1087" d="M106 246q0 164 167 238.5t534 78.5h20v49q0 137 -77.5 212t-219.5 75q-127 0 -207.5 -53t-121.5 -131l-9 2q-10 2 -20 8t-18.5 17.5t-8.5 29.5q0 16 14.5 43t41.5 51q47 47 129 85t207 38q182 0 284.5 -99t102.5 -276v-614h-97v193q-47 -94 -148.5 -153.5t-236.5 -59.5 q-156 0 -246 71.5t-90 194.5zM207 246q0 -86 65.5 -135.5t178.5 -49.5q80 0 148.5 26t118.5 70t79.5 103t29.5 129v96h-26q-158 -4 -270.5 -18t-184.5 -43t-105.5 -73t-33.5 -105zM260 1139q6 92 43 147t109 55q53 0 90 -25.5t67 -60.5q31 -31 52.5 -45t44.5 -14 q29 0 44 22.5t25 63.5q6 23 15.5 35t27.5 12q16 0 35 -14q-4 -92 -41.5 -146.5t-109.5 -54.5q-51 0 -88 24.5t-70 59.5q-31 31 -51.5 45t-42.5 14q-31 0 -45.5 -22.5t-24.5 -63.5q-6 -23 -15.5 -35t-27.5 -12q-16 0 -37 15z" />
<glyph unicode="&#xe4;" horiz-adv-x="1087" d="M106 246q0 164 167 238.5t534 78.5h20v49q0 137 -77.5 212t-219.5 75q-127 0 -207.5 -53t-121.5 -131l-9 2q-10 2 -20 8t-18.5 17.5t-8.5 29.5q0 16 14.5 43t41.5 51q47 47 129 85t207 38q182 0 284.5 -99t102.5 -276v-614h-97v193q-47 -94 -148.5 -153.5t-236.5 -59.5 q-156 0 -246 71.5t-90 194.5zM207 246q0 -86 65.5 -135.5t178.5 -49.5q80 0 148.5 26t118.5 70t79.5 103t29.5 129v96h-26q-158 -4 -270.5 -18t-184.5 -43t-105.5 -73t-33.5 -105zM301 1194q0 37 20.5 57.5t55.5 20.5q78 0 78 -78q0 -37 -20.5 -57.5t-55.5 -20.5t-56.5 20.5 t-21.5 57.5zM627 1194q0 78 76 78q35 0 56 -20.5t21 -57.5t-20 -57.5t-55 -20.5q-78 0 -78 78z" />
<glyph unicode="&#xe5;" horiz-adv-x="1087" d="M106 246q0 164 167 238.5t534 78.5h20v49q0 137 -77.5 212t-219.5 75q-127 0 -207.5 -53t-121.5 -131l-9 2q-10 2 -20 8t-18.5 17.5t-8.5 29.5q0 16 14.5 43t41.5 51q47 47 129 85t207 38q182 0 284.5 -99t102.5 -276v-614h-97v193q-47 -94 -148.5 -153.5t-236.5 -59.5 q-156 0 -246 71.5t-90 194.5zM207 246q0 -86 65.5 -135.5t178.5 -49.5q80 0 148.5 26t118.5 70t79.5 103t29.5 129v96h-26q-158 -4 -270.5 -18t-184.5 -43t-105.5 -73t-33.5 -105zM322 1335q0 96 62 160t159 64q98 0 158.5 -63.5t60.5 -160.5q0 -94 -62.5 -157.5 t-158.5 -63.5q-98 0 -158.5 62.5t-60.5 158.5zM395 1335q0 -66 41.5 -109.5t104.5 -43.5t104 44t41 109q0 66 -41 111t-104 45t-104.5 -45t-41.5 -111z" />
<glyph unicode="&#xe6;" horiz-adv-x="1837" d="M106 246q0 82 41 141t127 97t218.5 57.5t314.5 23.5h20v43q0 141 -77.5 216t-219.5 75q-127 0 -207.5 -53t-121.5 -131l-9 2q-10 2 -20 8t-18.5 17.5t-8.5 29.5q0 16 14.5 43t41.5 51q47 47 130 85t206 38q145 0 235 -68.5t119 -195.5q51 123 155.5 193.5t245.5 70.5 q98 0 179 -34.5t139.5 -97t91.5 -149.5t33 -194v-8q0 -23 -10.5 -30t-32.5 -7h-781q2 -90 32 -164t82 -126t124 -81.5t158 -29.5q74 0 129 16t97 44t69.5 62.5t46.5 71.5q2 2 11 0t19.5 -9t18.5 -18.5t8 -29.5q0 -16 -14.5 -44t-46.5 -61q-45 -45 -131.5 -82.5t-206.5 -37.5 q-164 0 -276.5 77.5t-160.5 210.5q-20 -66 -60 -119t-96.5 -91t-126 -58t-145.5 -20q-156 0 -246 71.5t-90 194.5zM207 246q0 -86 65.5 -135.5t178.5 -49.5q80 0 148.5 25t118.5 68t79.5 103t29.5 132v98h-24q-160 -4 -272.5 -18t-184.5 -43t-105.5 -74t-33.5 -106zM915 553 h717q-8 158 -100.5 254t-239.5 96q-74 0 -138 -25.5t-113.5 -72.5t-82 -111.5t-43.5 -140.5z" />
<glyph unicode="&#xe7;" horiz-adv-x="1110" d="M106 487q0 106 37 198.5t102.5 160t156 105.5t198.5 38q123 0 205 -38t131 -87q39 -39 56.5 -76.5t17.5 -60.5q0 -16 -9.5 -26.5t-20.5 -16.5t-21.5 -7t-12.5 1q-16 43 -45 84t-69.5 72.5t-98 50t-133.5 18.5q-86 0 -158.5 -31.5t-125 -88t-82 -132.5t-29.5 -164 q0 -90 28.5 -166.5t81 -133t125 -88t160.5 -31.5q76 0 133.5 18t98 49t69.5 72t45 84q2 2 12.5 1t21.5 -6t20.5 -16.5t9.5 -27.5q0 -23 -17.5 -61t-58.5 -79q-49 -49 -131 -85.5t-203 -36.5q-109 0 -199 38.5t-155.5 106.5t-102.5 161t-37 201zM420 -412l127 260 q10 25 21.5 39.5t39.5 14.5h8q20 0 36 -12.5t16 -32.5v-7q0 -12 -11.5 -27.5t-27.5 -37.5l-158 -221q-4 -6 -15.5 -7t-20.5 2t-15 10t0 19z" />
<glyph unicode="&#xe8;" horiz-adv-x="1136" d="M106 481q0 109 36 202t100.5 160.5t153.5 106.5t194 39q100 0 182 -33.5t140.5 -96t90 -149.5t31.5 -194v-10q0 -23 -10 -29t-33 -6h-788q2 -90 31.5 -164t82 -127t125 -82.5t160.5 -29.5q76 0 132.5 16t98 44t69.5 62.5t46 71.5q2 2 11.5 0t19.5 -9t18.5 -18.5 t8.5 -29.5q0 -16 -14.5 -44t-47.5 -61q-45 -45 -132 -82.5t-210 -37.5q-111 0 -203 37.5t-156.5 104t-100.5 159t-36 200.5zM207 555h725q-4 78 -29.5 141.5t-70 109.5t-106.5 71.5t-136 25.5q-76 0 -140.5 -25.5t-114.5 -71.5t-83 -110.5t-45 -140.5zM319 1354 q0 18 13.5 29.5t29.5 11.5t37 -9.5t56 -35.5q53 -41 97 -80t74.5 -72t47 -54.5t14.5 -23.5q-4 -4 -28.5 2t-64.5 23.5t-91 45.5t-107 69q-47 35 -62.5 54t-15.5 40z" />
<glyph unicode="&#xe9;" horiz-adv-x="1136" d="M106 481q0 109 36 202t100.5 160.5t153.5 106.5t194 39q100 0 182 -33.5t140.5 -96t90 -149.5t31.5 -194v-10q0 -23 -10 -29t-33 -6h-788q2 -90 31.5 -164t82 -127t125 -82.5t160.5 -29.5q76 0 132.5 16t98 44t69.5 62.5t46 71.5q2 2 11.5 0t19.5 -9t18.5 -18.5 t8.5 -29.5q0 -16 -14.5 -44t-47.5 -61q-45 -45 -132 -82.5t-210 -37.5q-111 0 -203 37.5t-156.5 104t-100.5 159t-36 200.5zM207 555h725q-4 78 -29.5 141.5t-70 109.5t-106.5 71.5t-136 25.5q-76 0 -140.5 -25.5t-114.5 -71.5t-83 -110.5t-45 -140.5zM464 1120 q-2 2 14.5 23.5t47.5 54.5t75 72t97 80q35 27 55.5 36t36.5 9q18 0 31.5 -11.5t13.5 -29.5q0 -20 -16.5 -40t-61.5 -54q-55 -41 -106 -69t-92 -45.5t-67 -23.5t-28 -2z" />
<glyph unicode="&#xea;" horiz-adv-x="1136" d="M106 481q0 109 36 202t100.5 160.5t153.5 106.5t194 39q100 0 182 -33.5t140.5 -96t90 -149.5t31.5 -194v-10q0 -23 -10 -29t-33 -6h-788q2 -90 31.5 -164t82 -127t125 -82.5t160.5 -29.5q76 0 132.5 16t98 44t69.5 62.5t46 71.5q2 2 11.5 0t19.5 -9t18.5 -18.5 t8.5 -29.5q0 -16 -14.5 -44t-47.5 -61q-45 -45 -132 -82.5t-210 -37.5q-111 0 -203 37.5t-156.5 104t-100.5 159t-36 200.5zM207 555h725q-4 78 -29.5 141.5t-70 109.5t-106.5 71.5t-136 25.5q-76 0 -140.5 -25.5t-114.5 -71.5t-83 -110.5t-45 -140.5zM338 1151 q0 23 26.5 59.5t77.5 96.5q59 66 98.5 99.5t43.5 33.5t44 -34t93 -95q51 -59 78.5 -97t27.5 -63q0 -35 -30 -35q-20 0 -47 25.5t-86 101.5l-82 109l-82 -111q-51 -70 -80 -97.5t-49 -27.5q-33 0 -33 35z" />
<glyph unicode="&#xeb;" horiz-adv-x="1136" d="M106 481q0 109 36 202t100.5 160.5t153.5 106.5t194 39q100 0 182 -33.5t140.5 -96t90 -149.5t31.5 -194v-10q0 -23 -10 -29t-33 -6h-788q2 -90 31.5 -164t82 -127t125 -82.5t160.5 -29.5q76 0 132.5 16t98 44t69.5 62.5t46 71.5q2 2 11.5 0t19.5 -9t18.5 -18.5 t8.5 -29.5q0 -16 -14.5 -44t-47.5 -61q-45 -45 -132 -82.5t-210 -37.5q-111 0 -203 37.5t-156.5 104t-100.5 159t-36 200.5zM207 555h725q-4 78 -29.5 141.5t-70 109.5t-106.5 71.5t-136 25.5q-76 0 -140.5 -25.5t-114.5 -71.5t-83 -110.5t-45 -140.5zM344 1194 q0 37 20.5 57.5t55.5 20.5q78 0 78 -78q0 -37 -20.5 -57.5t-55.5 -20.5t-56.5 20.5t-21.5 57.5zM670 1194q0 78 76 78q35 0 56 -20.5t21 -57.5t-20 -57.5t-55 -20.5q-78 0 -78 78z" />
<glyph unicode="&#xec;" horiz-adv-x="462" d="M-31 1354q0 18 13.5 29.5t29.5 11.5t37 -9.5t56 -35.5q53 -41 97 -80t74.5 -72t47 -54.5t14.5 -23.5q-4 -4 -28.5 2t-64.5 23.5t-91 45.5t-107 69q-47 35 -62.5 54t-15.5 40zM182 0v928q0 29 12.5 38t30.5 9h13q18 0 30.5 -9.5t12.5 -37.5v-928h-99z" />
<glyph unicode="&#xed;" horiz-adv-x="462" d="M139 1120q-2 2 14.5 23.5t47.5 54.5t75 72t97 80q35 27 55.5 36t36.5 9q18 0 31.5 -11.5t13.5 -29.5q0 -20 -16.5 -40t-61.5 -54q-55 -41 -106 -69t-92 -45.5t-67 -23.5t-28 -2zM182 0v928q0 29 12.5 38t30.5 9h13q18 0 30.5 -9.5t12.5 -37.5v-928h-99z" />
<glyph unicode="&#xee;" horiz-adv-x="462" d="M-8 1145q0 23 26.5 59.5t77.5 96.5q59 66 98.5 99.5t43.5 33.5t44 -34t93 -95q51 -59 78.5 -97t27.5 -63q0 -35 -30 -35q-20 0 -47 25.5t-86 101.5l-82 109l-82 -111q-51 -70 -80 -97.5t-49 -27.5q-33 0 -33 35zM182 0v928q0 29 12.5 38t30.5 9h13q18 0 30.5 -9.5 t12.5 -37.5v-928h-99z" />
<glyph unicode="&#xef;" horiz-adv-x="462" d="M-2 1194q0 37 20.5 57.5t55.5 20.5q78 0 78 -78q0 -37 -20.5 -57.5t-55.5 -20.5t-56.5 20.5t-21.5 57.5zM182 0v928q0 29 12.5 38t30.5 9h13q18 0 30.5 -9.5t12.5 -37.5v-928h-99zM324 1194q0 78 76 78q35 0 56 -20.5t21 -57.5t-20 -57.5t-55 -20.5q-78 0 -78 78z" />
<glyph unicode="&#xf0;" horiz-adv-x="1193" d="M117 430q0 102 34.5 184t97 139.5t149.5 88t192 30.5q66 0 125 -17t108 -45t88 -64.5t62 -75.5q-16 166 -90 290.5t-189 208.5l-268 -155q-41 -23 -57 10l-4 8q-23 31 20 58l229 127q-88 49 -186 75.5t-201 30.5q-4 0 -4 12.5t7.5 27.5t23.5 28.5t47 13.5q35 0 82 -7 t101.5 -23.5t113.5 -42t117 -64.5l233 135q25 14 38 10t24 -20l4 -4q10 -16 5 -31t-28 -29l-207 -115q59 -49 112.5 -114.5t92.5 -146.5t61.5 -180t22.5 -216q0 -137 -34.5 -244.5t-98 -181.5t-153.5 -112.5t-203 -38.5q-104 0 -190.5 30.5t-148 89t-95 142.5t-33.5 188z M217 432q0 -176 100.5 -271t266.5 -95q100 0 172.5 36.5t121 102t72 157t23.5 201.5q-18 41 -54 81t-86.5 72t-110.5 51t-126 19q-180 0 -279.5 -91t-99.5 -263z" />
<glyph unicode="&#xf1;" horiz-adv-x="1169" d="M172 0v965q0 2 9 6t24 4q27 0 45 -19.5t18 -78.5v-89q49 88 137.5 144.5t210.5 56.5q96 0 169 -30.5t122 -88t74 -136.5t25 -177v-557h-99v551q0 160 -75.5 253t-219.5 93q-123 0 -210 -61.5t-132 -163.5v-672h-98zM299 1139q6 92 43 147t109 55q53 0 90 -25.5t67 -60.5 q31 -31 52.5 -45t44.5 -14q29 0 44 22.5t25 63.5q6 23 15.5 35t27.5 12q16 0 35 -14q-4 -92 -41.5 -146.5t-109.5 -54.5q-51 0 -88 24.5t-70 59.5q-31 31 -51.5 45t-42.5 14q-31 0 -45.5 -22.5t-24.5 -63.5q-6 -23 -15.5 -35t-27.5 -12q-16 0 -37 15z" />
<glyph unicode="&#xf2;" horiz-adv-x="1204" d="M106 485q0 109 37 201t102.5 159.5t157 105.5t199.5 38q106 0 197.5 -39t157 -106.5t102.5 -160.5t37 -202t-37 -200t-102.5 -158.5t-157 -105t-197.5 -37.5q-109 0 -200 38.5t-156.5 106.5t-102.5 160t-37 200zM205 485q0 -90 29.5 -165.5t83 -133t126 -89t158.5 -31.5 t157.5 31.5t125 87t83 131t29.5 165.5q0 88 -29.5 166t-81.5 134.5t-125 89t-159 32.5t-158.5 -31.5t-126 -88t-83 -133.5t-29.5 -165zM327 1354q0 18 13.5 29.5t29.5 11.5t37 -9.5t56 -35.5q53 -41 97 -80t74.5 -72t47 -54.5t14.5 -23.5q-4 -4 -28.5 2t-64.5 23.5t-91 45.5 t-107 69q-47 35 -62.5 54t-15.5 40z" />
<glyph unicode="&#xf3;" horiz-adv-x="1204" d="M106 485q0 109 37 201t102.5 159.5t157 105.5t199.5 38q106 0 197.5 -39t157 -106.5t102.5 -160.5t37 -202t-37 -200t-102.5 -158.5t-157 -105t-197.5 -37.5q-109 0 -200 38.5t-156.5 106.5t-102.5 160t-37 200zM205 485q0 -90 29.5 -165.5t83 -133t126 -89t158.5 -31.5 t157.5 31.5t125 87t83 131t29.5 165.5q0 88 -29.5 166t-81.5 134.5t-125 89t-159 32.5t-158.5 -31.5t-126 -88t-83 -133.5t-29.5 -165zM505 1120q-2 2 14.5 23.5t47.5 54.5t75 72t97 80q35 27 55.5 36t36.5 9q18 0 31.5 -11.5t13.5 -29.5q0 -20 -16.5 -40t-61.5 -54 q-55 -41 -106 -69t-92 -45.5t-67 -23.5t-28 -2z" />
<glyph unicode="&#xf4;" horiz-adv-x="1204" d="M106 485q0 109 37 201t102.5 159.5t157 105.5t199.5 38q106 0 197.5 -39t157 -106.5t102.5 -160.5t37 -202t-37 -200t-102.5 -158.5t-157 -105t-197.5 -37.5q-109 0 -200 38.5t-156.5 106.5t-102.5 160t-37 200zM205 485q0 -90 29.5 -165.5t83 -133t126 -89t158.5 -31.5 t157.5 31.5t125 87t83 131t29.5 165.5q0 88 -29.5 166t-81.5 134.5t-125 89t-159 32.5t-158.5 -31.5t-126 -88t-83 -133.5t-29.5 -165zM356 1151q0 23 26.5 59.5t77.5 96.5q59 66 98.5 99.5t43.5 33.5t44 -34t93 -95q51 -59 78.5 -97t27.5 -63q0 -35 -30 -35q-20 0 -47 25.5 t-86 101.5l-82 109l-82 -111q-51 -70 -80 -97.5t-49 -27.5q-33 0 -33 35z" />
<glyph unicode="&#xf5;" horiz-adv-x="1204" d="M106 485q0 109 37 201t102.5 159.5t157 105.5t199.5 38q106 0 197.5 -39t157 -106.5t102.5 -160.5t37 -202t-37 -200t-102.5 -158.5t-157 -105t-197.5 -37.5q-109 0 -200 38.5t-156.5 106.5t-102.5 160t-37 200zM205 485q0 -90 29.5 -165.5t83 -133t126 -89t158.5 -31.5 t157.5 31.5t125 87t83 131t29.5 165.5q0 88 -29.5 166t-81.5 134.5t-125 89t-159 32.5t-158.5 -31.5t-126 -88t-83 -133.5t-29.5 -165zM325 1139q6 92 43 147t109 55q53 0 90 -25.5t67 -60.5q31 -31 52.5 -45t44.5 -14q29 0 44 22.5t25 63.5q6 23 15.5 35t27.5 12 q16 0 35 -14q-4 -92 -41.5 -146.5t-109.5 -54.5q-51 0 -88 24.5t-70 59.5q-31 31 -51.5 45t-42.5 14q-31 0 -45.5 -22.5t-24.5 -63.5q-6 -23 -15.5 -35t-27.5 -12q-16 0 -37 15z" />
<glyph unicode="&#xf6;" horiz-adv-x="1204" d="M106 485q0 109 37 201t102.5 159.5t157 105.5t199.5 38q106 0 197.5 -39t157 -106.5t102.5 -160.5t37 -202t-37 -200t-102.5 -158.5t-157 -105t-197.5 -37.5q-109 0 -200 38.5t-156.5 106.5t-102.5 160t-37 200zM205 485q0 -90 29.5 -165.5t83 -133t126 -89t158.5 -31.5 t157.5 31.5t125 87t83 131t29.5 165.5q0 88 -29.5 166t-81.5 134.5t-125 89t-159 32.5t-158.5 -31.5t-126 -88t-83 -133.5t-29.5 -165zM362 1194q0 37 20.5 57.5t55.5 20.5q78 0 78 -78q0 -37 -20.5 -57.5t-55.5 -20.5t-56.5 20.5t-21.5 57.5zM688 1194q0 78 76 78 q35 0 56 -20.5t21 -57.5t-20 -57.5t-55 -20.5q-78 0 -78 78z" />
<glyph unicode="&#xf7;" horiz-adv-x="1290" d="M215 541v10q0 41 47 41h764q29 0 38 -10.5t9 -30.5v-10q0 -18 -9 -29.5t-38 -11.5h-764q-47 0 -47 41zM565 238v14q0 72 72 72h14q72 0 72 -72v-14q0 -72 -72 -72h-14q-72 0 -72 72zM565 840v14q0 72 72 72h14q72 0 72 -72v-14q0 -72 -72 -72h-14q-72 0 -72 72z" />
<glyph unicode="&#xf8;" horiz-adv-x="1204" d="M115 -20q0 12 7 28.5t28 38.5l90 98q-57 66 -90 153t-33 185q0 104 38 196.5t104.5 161t155.5 108.5t193 40q88 0 166 -27.5t139 -78.5l134 149q4 4 24.5 -9t20.5 -36q0 -14 -7.5 -30.5t-27.5 -38.5l-84 -93q59 -68 91 -154.5t32 -185.5q0 -106 -38 -198t-103.5 -161 t-154.5 -107.5t-194 -38.5q-90 0 -168 27.5t-139 78.5l-137 -152q-4 -4 -25.5 9.5t-21.5 36.5zM217 485q0 -78 23.5 -147.5t66.5 -122.5l543 596q-49 41 -110.5 65.5t-133.5 24.5q-86 0 -156.5 -31.5t-123 -88t-81 -132.5t-28.5 -164zM360 158q51 -41 113.5 -65.5 t134.5 -24.5q84 0 156 31.5t124 88t80.5 132t28.5 163.5q0 78 -24.5 147.5t-69.5 125.5z" />
<glyph unicode="&#xf9;" horiz-adv-x="1169" d="M164 412v557h98v-551q0 -160 76 -253t219 -93q123 0 210 61.5t132 165.5v670h98v-965q0 -2 -10 -6t-24 -4q-25 0 -43.5 19.5t-18.5 78.5v88q-49 -86 -138 -143t-212 -57q-96 0 -169 30.5t-121 88t-72.5 136t-24.5 177.5zM317 1348q0 18 13.5 29.5t29.5 11.5t37 -9.5 t56 -35.5q53 -41 97 -80t74.5 -72t47 -54.5t14.5 -23.5q-4 -4 -28.5 2t-64.5 23.5t-91 45.5t-107 69q-47 35 -62.5 54t-15.5 40z" />
<glyph unicode="&#xfa;" horiz-adv-x="1169" d="M164 412v557h98v-551q0 -160 76 -253t219 -93q123 0 210 61.5t132 165.5v670h98v-965q0 -2 -10 -6t-24 -4q-25 0 -43.5 19.5t-18.5 78.5v88q-49 -86 -138 -143t-212 -57q-96 0 -169 30.5t-121 88t-72.5 136t-24.5 177.5zM497 1114q-2 2 14.5 23.5t47.5 54.5t75 72t97 80 q35 27 55.5 36t36.5 9q18 0 31.5 -11.5t13.5 -29.5q0 -20 -16.5 -40t-61.5 -54q-55 -41 -106 -69t-92 -45.5t-67 -23.5t-28 -2z" />
<glyph unicode="&#xfb;" horiz-adv-x="1169" d="M164 412v557h98v-551q0 -160 76 -253t219 -93q123 0 210 61.5t132 165.5v670h98v-965q0 -2 -10 -6t-24 -4q-25 0 -43.5 19.5t-18.5 78.5v88q-49 -86 -138 -143t-212 -57q-96 0 -169 30.5t-121 88t-72.5 136t-24.5 177.5zM342 1145q0 23 26.5 59.5t77.5 96.5 q59 66 98.5 99.5t43.5 33.5t44 -34t93 -95q51 -59 78.5 -97t27.5 -63q0 -35 -30 -35q-20 0 -47 25.5t-86 101.5l-82 109l-82 -111q-51 -70 -80 -97.5t-49 -27.5q-33 0 -33 35z" />
<glyph unicode="&#xfc;" horiz-adv-x="1169" d="M164 412v557h98v-551q0 -160 76 -253t219 -93q123 0 210 61.5t132 165.5v670h98v-965q0 -2 -10 -6t-24 -4q-25 0 -43.5 19.5t-18.5 78.5v88q-49 -86 -138 -143t-212 -57q-96 0 -169 30.5t-121 88t-72.5 136t-24.5 177.5zM348 1188q0 37 20.5 57.5t55.5 20.5q78 0 78 -78 q0 -37 -20.5 -57.5t-55.5 -20.5t-56.5 20.5t-21.5 57.5zM674 1188q0 78 76 78q35 0 56 -20.5t21 -57.5t-20 -57.5t-55 -20.5q-78 0 -78 78z" />
<glyph unicode="&#xfd;" horiz-adv-x="999" d="M51 969h103l366 -854l326 854h104l-508 -1299q-14 -41 -31.5 -53t-37.5 -12t-37 11t-14 15l172 422q-27 0 -39.5 8.5t-22.5 30.5zM407 1093q-2 2 14.5 23.5t47.5 54.5t75 72t97 80q35 27 55.5 36t36.5 9q18 0 31.5 -11.5t13.5 -29.5q0 -20 -16.5 -40t-61.5 -54 q-55 -41 -106 -69t-92 -45.5t-67 -23.5t-28 -2z" />
<glyph unicode="&#xfe;" horiz-adv-x="1234" d="M172 -348v1726q0 10 33 11q27 0 46 -18.5t19 -78.5v-522q57 98 151.5 158.5t231.5 60.5q96 0 180.5 -37t146.5 -102.5t98 -157.5t36 -205t-35 -206t-97 -160.5t-148 -104t-187 -36.5q-74 0 -134 18t-108.5 49t-82 70t-52.5 80v-545q0 -27 -12 -37t-31 -10h-10 q-45 0 -45 47zM268 416q0 -74 29 -137.5t79 -110.5t117.5 -74.5t145.5 -27.5q84 0 153.5 30.5t119 86t77 133t27.5 171.5q0 90 -29 166t-78 131.5t-117.5 87t-148.5 31.5q-141 0 -234.5 -72.5t-140.5 -191.5v-223z" />
<glyph unicode="&#xff;" horiz-adv-x="999" d="M51 969h103l366 -854l326 854h104l-508 -1299q-14 -41 -31.5 -53t-37.5 -12t-37 11t-14 15l172 422q-27 0 -39.5 8.5t-22.5 30.5zM264 1194q0 37 20.5 57.5t55.5 20.5q78 0 78 -78q0 -37 -20.5 -57.5t-55.5 -20.5t-56.5 20.5t-21.5 57.5zM590 1194q0 78 76 78 q35 0 56 -20.5t21 -57.5t-20 -57.5t-55 -20.5q-78 0 -78 78z" />
<glyph unicode="&#x152;" horiz-adv-x="2144" d="M131 659q0 150 48 275t134 216t205 142t262 51q86 0 164 -18h1071v-92h-862q117 -82 188.5 -212t83.5 -296h443v-90h-441q-6 -178 -78.5 -316.5t-195.5 -224.5h881v-94h-1094q-78 -18 -164 -18q-143 0 -262 50t-204 140t-132 214t-47 273zM236 662q0 -129 39.5 -238 t112.5 -187.5t172 -122.5t220 -44q119 0 219.5 44t172 122.5t111.5 187t40 238.5q0 127 -40 235.5t-112.5 188t-173 124.5t-219.5 45q-121 0 -220 -44t-171 -123.5t-111.5 -188t-39.5 -237.5z" />
<glyph unicode="&#x153;" horiz-adv-x="2009" d="M106 485q0 109 37 201t102.5 159.5t156 105.5t196.5 38q156 0 271.5 -84t166.5 -221q47 139 162 222t268 83q98 0 179 -34.5t139.5 -97t90.5 -149.5t32 -192v-10q0 -23 -10.5 -29t-32.5 -6h-781q2 -90 31 -164t81 -127t125 -82.5t159 -29.5q74 0 129 16t97 44t69.5 62.5 t46.5 71.5q2 2 11 0t19.5 -9t18.5 -18.5t8 -29.5q0 -16 -14.5 -44t-46.5 -61q-45 -45 -131.5 -82.5t-206.5 -37.5q-164 0 -281 79.5t-166 219.5q-49 -135 -163.5 -217t-270.5 -82q-109 0 -199 38.5t-154.5 106.5t-101.5 160t-37 200zM205 485q0 -90 29.5 -165.5t82 -133 t124 -89t157.5 -31.5q84 0 154.5 31.5t123 87t82 132t29.5 166.5q0 88 -29.5 165t-82 133.5t-123 89t-154.5 32.5t-156.5 -31.5t-125 -88t-82 -133.5t-29.5 -165zM1087 555h717q-4 78 -29.5 141.5t-69.5 109.5t-104.5 71.5t-134.5 25.5t-138 -25.5t-113.5 -71.5t-82 -110.5 t-45.5 -140.5z" />
<glyph unicode="&#x178;" horiz-adv-x="1163" d="M49 1325h113l420 -666l419 635q18 29 39 34t37.5 -1t27.5 -19.5t9 -19.5l-481 -721v-567h-103v567zM340 1550q0 37 20.5 57.5t55.5 20.5q78 0 78 -78q0 -37 -20.5 -57.5t-55.5 -20.5t-56.5 20.5t-21.5 57.5zM666 1550q0 78 76 78q35 0 56 -20.5t21 -57.5t-20 -57.5 t-55 -20.5q-78 0 -78 78z" />
<glyph unicode="&#x2c6;" horiz-adv-x="1085" d="M297 1151q0 23 26.5 59.5t77.5 96.5q59 66 98.5 99.5t43.5 33.5t44 -34t93 -95q51 -59 78.5 -97t27.5 -63q0 -35 -30 -35q-20 0 -47 25.5t-86 101.5l-82 109l-82 -111q-51 -70 -80 -97.5t-49 -27.5q-33 0 -33 35z" />
<glyph unicode="&#x2dc;" horiz-adv-x="1085" d="M264 1139q6 92 43 147t109 55q53 0 90 -25.5t67 -60.5q31 -31 52.5 -45t44.5 -14q29 0 44 22.5t25 63.5q6 23 15.5 35t27.5 12q16 0 35 -14q-4 -92 -41.5 -146.5t-109.5 -54.5q-51 0 -88 24.5t-70 59.5q-31 31 -51.5 45t-42.5 14q-31 0 -45.5 -22.5t-24.5 -63.5 q-6 -23 -15.5 -35t-27.5 -12q-16 0 -37 15z" />
<glyph unicode="&#x2000;" horiz-adv-x="898" />
<glyph unicode="&#x2001;" horiz-adv-x="1796" />
<glyph unicode="&#x2002;" horiz-adv-x="898" />
<glyph unicode="&#x2003;" horiz-adv-x="1796" />
<glyph unicode="&#x2004;" horiz-adv-x="598" />
<glyph unicode="&#x2005;" horiz-adv-x="449" />
<glyph unicode="&#x2006;" horiz-adv-x="299" />
<glyph unicode="&#x2007;" horiz-adv-x="299" />
<glyph unicode="&#x2008;" horiz-adv-x="224" />
<glyph unicode="&#x2009;" horiz-adv-x="359" />
<glyph unicode="&#x200a;" horiz-adv-x="99" />
<glyph unicode="&#x2010;" horiz-adv-x="780" d="M123 463v90h532v-90h-532z" />
<glyph unicode="&#x2011;" horiz-adv-x="780" d="M123 463v90h532v-90h-532z" />
<glyph unicode="&#x2012;" horiz-adv-x="780" d="M123 463v90h532v-90h-532z" />
<glyph unicode="&#x2013;" horiz-adv-x="1087" d="M117 504v8q0 41 47 41h760q29 0 38 -10.5t9 -30.5v-8q0 -20 -9.5 -29.5t-37.5 -9.5h-760q-47 0 -47 39z" />
<glyph unicode="&#x2014;" horiz-adv-x="1423" d="M117 504v8q0 41 47 41h1093q29 0 39.5 -10.5t10.5 -30.5v-8q0 -20 -10.5 -29.5t-39.5 -9.5h-1093q-47 0 -47 39z" />
<glyph unicode="&#x2018;" horiz-adv-x="454" d="M121 952v6q0 12 4 30t20 44l158 305q2 6 12.5 8.5t20.5 -1t16 -10.5t2 -19l-118 -361q-10 -27 -21.5 -41t-40.5 -14h-6q-20 0 -33.5 14.5t-13.5 38.5z" />
<glyph unicode="&#x2019;" horiz-adv-x="454" d="M100 932l121 358q10 29 20.5 42.5t39.5 13.5h8q18 0 31.5 -14.5t13.5 -39.5v-6q0 -12 -4 -29.5t-21 -44.5l-157 -305q-4 -6 -14.5 -8t-19.5 1t-15.5 11.5t-2.5 20.5z" />
<glyph unicode="&#x201a;" horiz-adv-x="442" d="M66 -252l120 358q10 29 20.5 42.5t39.5 13.5h8q18 0 31.5 -13.5t13.5 -39.5v-5q0 -14 -4 -30.5t-21 -44.5l-157 -303q-4 -6 -13.5 -8.5t-19.5 0.5t-16.5 10.5t-1.5 19.5z" />
<glyph unicode="&#x201c;" horiz-adv-x="737" d="M121 952v6q0 12 4 30t20 44l158 305q2 6 12.5 8.5t20.5 -1t16 -10.5t2 -19l-118 -361q-10 -27 -21.5 -41t-38.5 -14h-8q-18 0 -32.5 14.5t-14.5 38.5zM403 952v6q0 12 5.5 30t21.5 44l156 305q4 6 14 8.5t19.5 -1t15.5 -10.5t2 -19l-119 -361q-10 -27 -20.5 -41 t-38.5 -14h-8q-18 0 -33 14.5t-15 38.5z" />
<glyph unicode="&#x201d;" horiz-adv-x="737" d="M98 932l121 358q10 29 20.5 42.5t39.5 13.5h8q18 0 31.5 -14.5t13.5 -39.5v-6q0 -12 -4 -29.5t-21 -44.5l-157 -305q-4 -6 -13.5 -8t-20 1t-16.5 11.5t-2 20.5zM383 932l121 358q10 29 20.5 42.5t38.5 13.5h8q18 0 31.5 -14.5t13.5 -39.5v-6q0 -12 -3 -29.5t-19 -44.5 l-160 -305q-4 -6 -13 -8t-19.5 1t-16.5 11.5t-2 20.5z" />
<glyph unicode="&#x201e;" horiz-adv-x="727" d="M66 -252l118 358q10 29 20.5 42.5t39.5 13.5h8q18 0 31.5 -13.5t13.5 -39.5v-5q0 -14 -3 -30.5t-20 -44.5l-159 -303q-4 -6 -13.5 -8.5t-18.5 0.5t-15.5 10.5t-1.5 19.5zM350 -252l121 358q10 29 20.5 42.5t38.5 13.5h9q18 0 31.5 -13.5t13.5 -39.5v-5q0 -14 -4.5 -30.5 t-20.5 -44.5l-158 -303q-4 -6 -14 -8.5t-19.5 0.5t-15.5 10.5t-2 19.5z" />
<glyph unicode="&#x2022;" horiz-adv-x="675" d="M160 508q0 76 51 128t127 52t127 -52t51 -128t-51 -128t-127 -52t-127 52t-51 128z" />
<glyph unicode="&#x2026;" horiz-adv-x="1236" d="M147 61v15q0 72 72 71h14q72 0 72 -71v-15q0 -72 -72 -71h-14q-72 0 -72 71zM541 61v15q0 72 69 71h15q72 0 71 -71v-15q0 -72 -71 -71h-15q-70 0 -69 71zM932 61v15q0 72 69 71h17q72 0 72 -71v-15q0 -72 -72 -71h-17q-70 0 -69 71z" />
<glyph unicode="&#x202f;" horiz-adv-x="359" />
<glyph unicode="&#x2039;" horiz-adv-x="679" d="M121 496q0 8 47 60t133 126q80 72 129 105.5t78 33.5q16 0 27.5 -10t11.5 -27q0 -23 -42 -62.5t-136 -111.5l-156 -116q41 -29 80 -56.5t80 -62.5q92 -72 133 -110t41 -60q0 -14 -11.5 -24.5t-27.5 -10.5q-29 0 -77 34t-128 101q-86 74 -134 127t-48 64z" />
<glyph unicode="&#x203a;" horiz-adv-x="679" d="M135 207q0 23 41 62.5t135 111.5l156 117q-41 29 -80 56.5t-80 59.5q-92 72 -132 111t-40 61q0 14 10.5 24.5t26.5 10.5q29 0 77 -33.5t128 -101.5q86 -76 134 -128t48 -62t-47 -61.5t-133 -127.5q-80 -70 -129 -103.5t-78 -33.5q-16 0 -26.5 10t-10.5 27z" />
<glyph unicode="&#x205f;" horiz-adv-x="449" />
<glyph unicode="&#x20ac;" horiz-adv-x="1341" d="M104 502v8q0 20 10.5 29.5t39.5 9.5h149q-2 16 -2 33.5v35.5v93v36.5t2 38.5h-149q-29 0 -39.5 9.5t-10.5 29.5v9q0 20 10.5 30t39.5 10h161q18 109 61.5 196t108 148.5t148.5 94.5t182 33q121 0 204 -38t130 -87q35 -37 52.5 -73t17.5 -63q0 -16 -9.5 -27t-19.5 -18.5 t-20.5 -9.5t-12.5 0q-18 45 -48 87t-72 74t-98 50.5t-130 18.5q-154 0 -257 -103.5t-138 -282.5h473q47 0 47 -40v-9q0 -39 -47 -39h-486q-2 -18 -2 -36.5v-38.5v-97v-32.5t2 -32.5h486q47 0 47 -39v-8q0 -39 -47 -39h-473q35 -180 140 -287.5t265 -107.5q74 0 131.5 19 t99.5 52t70.5 77t46.5 93q2 2 11.5 0t20.5 -8t20.5 -18.5t9.5 -30.5q0 -29 -18.5 -68t-57.5 -75q-53 -53 -136 -91t-194 -38q-211 0 -343 126.5t-167 356.5h-159q-29 0 -39.5 9t-10.5 30z" />
<glyph unicode="&#x2122;" horiz-adv-x="1398" d="M66 1286v6q0 35 36 35h451q37 0 37 -35v-6q0 -33 -37 -33h-184v-514q0 -39 -37 -39h-10q-35 0 -35 39v514h-185q-37 0 -36 33zM694 739v547q0 45 41 45h37q20 0 29.5 -9t17.5 -26l164 -344l162 344q10 20 19.5 27.5t27.5 7.5h35q41 0 41 -45v-547q0 -39 -35 -39h-10 q-33 0 -33 39v484l-164 -353q-4 -10 -11 -16t-34 -6t-33 6t-10 16l-166 351v-482q0 -39 -31 -39h-14q-33 0 -33 39z" />
<glyph unicode="&#x25fc;" horiz-adv-x="972" d="M0 0v973h973v-973h-973z" />
<glyph unicode="&#xfb01;" horiz-adv-x="1099" d="M53 881v88h207v104q0 166 69.5 251t200.5 85q59 0 98.5 -14.5t63.5 -38.5q23 -23 23 -51q0 -25 -12.5 -37.5t-16.5 -10.5q-23 29 -65.5 47.5t-90.5 18.5q-88 0 -132 -60.5t-44 -195.5v-98h262v-88h-260v-881h-96v881h-207zM801 1298q0 70 71 70q66 0 66 -70 q0 -67 -70 -67q-68 0 -67 67zM819 0v928q0 29 12.5 38t30.5 9h12q18 0 31 -9.5t13 -37.5v-928h-99z" />
<glyph unicode="&#xfb02;" horiz-adv-x="1099" d="M53 881v88h207v104q0 166 69.5 251t200.5 85q59 0 98.5 -14.5t63.5 -38.5q23 -23 23 -51q0 -25 -12.5 -37.5t-16.5 -10.5q-23 29 -65.5 47.5t-90.5 18.5q-88 0 -132 -60.5t-44 -195.5v-98h262v-88h-260v-881h-96v881h-207zM819 0v1378q0 4 10.5 7.5t24.5 3.5 q25 0 44.5 -18.5t19.5 -78.5v-1292h-99z" />
</font>
</defs>
</svg>
