<?xml version="1.0" standalone="no"?>
<!DOCTYPE svg PUBLIC "-//W3C//DTD SVG 1.1//EN" "http://www.w3.org/Graphics/SVG/1.1/DTD/svg11.dtd" >
<svg xmlns="http://www.w3.org/2000/svg" xmlns:xlink="http://www.w3.org/1999/xlink" version="1.1">
<metadata></metadata>
<defs>
<font id="omnes_att_w02_light_italicRg" horiz-adv-x="1165" >
<font-face units-per-em="2048" ascent="1434" descent="-614" />
<missing-glyph horiz-adv-x="360" />
<glyph horiz-adv-x="0" />
<glyph horiz-adv-x="682" />
<glyph unicode=" "  horiz-adv-x="360" />
<glyph unicode="&#x09;" horiz-adv-x="360" />
<glyph unicode="&#xa0;" horiz-adv-x="360" />
<glyph unicode="!" horiz-adv-x="544" d="M104 45q0 57 27 82q20 20 57 20q76 0 76 -53q0 -57 -24 -84q-21 -20 -60 -20q-76 0 -76 55zM223 395l164 930h133l-237 -942q-7 -31 -27 -31q-23 0 -30 9.5t-3 33.5z" />
<glyph unicode="&#x22;" horiz-adv-x="749" d="M287 883l57 442h141l-131 -448q-12 -39 -32 -39q-23 0 -31 8t-4 37zM565 883l58 442h141l-131 -448q-13 -39 -33 -39q-23 0 -31 8t-4 37z" />
<glyph unicode="#" horiz-adv-x="1349" d="M63 377q2 2 3 6q0 10 2 18l12 54q0 4 1 5t1 3v2h283l122 395h-272q2 2 2 6q0 10 2 19l12 53q0 2 1 4t1 4v2h279l117 379q0 2 15 4t30.5 -7t23 -35.5t-9.5 -80.5l-80 -260h359l116 379q0 2 15.5 4t31 -7t22.5 -35.5t-9 -80.5l-80 -260h272q-2 -2 -2 -6t-1 -8t-1 -10 l-12 -54q-2 -4 -2 -8v-2h-283l-121 -395h273q-2 -2 -2 -6t-1 -8.5t-1 -10.5l-13 -51q-2 -4 -2 -10v-2h-280l-115 -379q0 -2 -15.5 -4t-30.5 7t-22.5 35.5t9.5 80.5l80 260h-359l-117 -379q0 -2 -15 -4t-30.5 7t-22.5 35.5t9 80.5l80 260h-275zM457 463h364l123 399h-364z " />
<glyph unicode="$" horiz-adv-x="1155" d="M66 268q0 18 9 30.5t21.5 19t22.5 7.5t10 -1q31 -86 106.5 -155t208.5 -91l121 559q-61 25 -118.5 54.5t-101.5 70.5t-70.5 95t-26.5 130t30.5 141.5t87 113.5t137.5 76t181 28h29l39 174h90l-39 -183q90 -16 152.5 -48t101.5 -72q33 -33 49 -66t16 -61q0 -18 -9 -30.5 t-20.5 -19t-21.5 -7.5t-12 1q-29 74 -96.5 134.5t-184.5 78.5l-114 -540q68 -27 129 -56.5t108 -70.5t75 -96.5t28 -131.5q0 -166 -117 -269t-336 -103h-39l-39 -181h-90l41 191q-98 16 -168 53t-115 82q-35 35 -55 73t-20 70zM352 997q0 -51 17.5 -90t49.5 -69.5t76 -54 t95 -46.5l110 518q-8 2 -22 2q-74 0 -133.5 -19t-102.5 -55t-66.5 -83t-23.5 -103zM524 70q8 0 16.5 -1t16.5 -1q172 0 258 74.5t86 199.5q0 51 -20.5 90t-55 69.5t-84 56.5t-104.5 48z" />
<glyph unicode="%" horiz-adv-x="1519" d="M86 27q0 20 11.5 36.5t43.5 47.5l1329 1237q4 4 21.5 -7.5t17.5 -33.5q0 -18 -11 -36t-44 -46l-1327 -1239q-4 -4 -22.5 7t-18.5 34zM217 1001q0 68 24.5 130.5t68.5 109.5t103.5 74.5t131.5 27.5q55 0 103 -18t84 -54t56.5 -85t20.5 -111q0 -68 -24.5 -130t-68.5 -109.5 t-104.5 -75t-130.5 -27.5q-53 0 -101 18.5t-84 54.5t-57.5 85t-21.5 110zM301 1006q0 -86 55 -140.5t131 -54.5q51 0 94.5 21.5t75 56.5t50 82t18.5 100q0 86 -54.5 140.5t-131.5 54.5q-51 0 -94.5 -21.5t-75 -56.5t-50 -83t-18.5 -99zM786 258q0 68 25 130.5t69 109.5 t103 74.5t131 27.5q55 0 103.5 -18.5t84 -54t56 -85t20.5 -110.5q0 -68 -24.5 -130.5t-67.5 -109.5t-103 -74.5t-130 -27.5q-53 0 -101.5 18.5t-85.5 54t-58.5 85t-21.5 110.5zM870 262q0 -86 55.5 -140t133.5 -54q49 0 93 21.5t76 56t50 81.5t18 101q0 86 -55 140t-133 54 q-49 0 -93 -21.5t-76 -56t-50.5 -83t-18.5 -99.5z" />
<glyph unicode="&#x26;" horiz-adv-x="1382" d="M74 338q0 172 113.5 277.5t328.5 152.5q-35 51 -55.5 108.5t-20.5 122.5q0 70 26 132.5t72 110.5t109.5 76t140.5 28q129 0 207 -76t78 -195q0 -152 -105.5 -235.5t-301.5 -118.5l319 -420q94 109 141.5 226.5t61.5 244.5h92q-12 -141 -71.5 -278.5t-170.5 -260.5l27 -38 q57 -76 102 -104t105 -23q2 0 3 -12.5t-3 -26t-19.5 -25.5t-48.5 -12q-63 0 -106 32.5t-99 104.5l-28 39q-94 -86 -213 -137t-266 -51q-98 0 -176 26.5t-132.5 74.5t-82 113.5t-27.5 143.5zM172 342q0 -55 20.5 -105.5t61.5 -88t103.5 -59t146.5 -21.5q129 0 229.5 44 t186.5 121l-357 467q-199 -37 -295 -129t-96 -229zM539 1006q0 -61 18 -112t57 -106q88 14 157 36t115 53.5t69.5 80t23.5 115.5q0 84 -54.5 136.5t-146.5 52.5q-55 0 -99 -21.5t-76 -57.5t-48 -82t-16 -95z" />
<glyph unicode="'" horiz-adv-x="471" d="M287 883l57 442h143l-133 -448q-12 -39 -32 -39q-23 0 -31 8t-4 37z" />
<glyph unicode="(" horiz-adv-x="788" d="M131 246q0 127 24.5 252t70.5 240.5t111.5 218t147.5 184.5q96 96 194.5 144t176.5 48q27 0 38 -11t13 -25.5t-4 -29t-14 -18.5q-86 -4 -169 -45t-169 -127q-76 -76 -134.5 -172t-99.5 -204.5t-62.5 -225.5t-21.5 -229q0 -154 42 -277t124 -205q37 -37 73 -58t79 -34 q4 -2 7 -14t1 -25.5t-13 -24.5t-36 -11q-35 0 -85 24.5t-103 77.5q-86 86 -138.5 224t-52.5 323z" />
<glyph unicode=")" horiz-adv-x="788" d="M-123 -364.5q-2 14.5 4 28.5t15 19q86 4 168.5 45t168.5 127q74 76 133.5 172t99.5 204.5t61.5 224t21.5 230.5q0 154 -42 276.5t-122 204.5q-37 37 -73 58.5t-79 34.5q-4 2 -7 13t-1 25.5t13.5 25.5t35.5 11q35 0 85.5 -24.5t103.5 -77.5q84 -86 136 -224.5t52 -322.5 q0 -127 -24.5 -252t-70.5 -240.5t-111.5 -218t-147.5 -184.5q-96 -96 -194.5 -144t-176.5 -48q-25 0 -36 11t-13 25.5z" />
<glyph unicode="*" horiz-adv-x="841" d="M231 1106q0 51 52 39l223 -66l6 232q2 25 10 32t25 7q16 0 24.5 -7.5t10.5 -31.5l6 -232l223 66q51 12 51 -39q0 -16 -28 -29l-218 -80l132 -190q20 -33 4 -45q-14 -14 -29.5 -16.5t-32.5 20.5l-143 182l-144 -182q-16 -23 -31.5 -20.5t-29.5 16.5q-16 12 4 45l131 190 l-219 80q-27 10 -27 29z" />
<glyph unicode="+" horiz-adv-x="1134" d="M135 526q0 10 5 26.5t14 27.5q14 10 36 10h355l76 352q8 47 43 47h12q16 0 28.5 -9t8.5 -38l-76 -352h346q45 0 45 -25q0 -10 -5 -27.5t-13 -25.5q-10 -10 -39 -10h-353l-79 -377q-10 -47 -45 -47h-13q-16 0 -28.5 9t-6.5 38l80 377h-346q-45 0 -45 24z" />
<glyph unicode="," horiz-adv-x="460" d="M-82 -236l213 396q2 2 16.5 2t31 -6t30.5 -17.5t14 -29.5q0 -16 -6 -32t-22 -38l-232 -305q-4 -4 -13 -2t-17.5 7t-13.5 12t-1 13z" />
<glyph unicode="-" horiz-adv-x="788" d="M123 463q0 2 2 6q0 4 4 20l10 52q0 4 1 6t1 4v2h535q-2 -2 -2 -6t-1 -8t-1 -11l-13 -53q-2 -4 -2 -10v-2h-534z" />
<glyph unicode="." horiz-adv-x="460" d="M63 45q0 57 25 82q20 20 59 20q76 0 76 -53q0 -57 -26 -84q-21 -20 -58 -20q-76 0 -76 55z" />
<glyph unicode="/" horiz-adv-x="718" d="M-156 -395l895 1720h111l-895 -1720h-111z" />
<glyph unicode="0" horiz-adv-x="1343" d="M170 459q0 72 12.5 147.5t38.5 186.5q27 119 72 220t112.5 175t158.5 116t214 42q117 0 205 -36t147.5 -100.5t89 -152.5t29.5 -191q0 -72 -12 -148.5t-39 -187.5q-29 -117 -73 -218t-110.5 -175t-158.5 -115.5t-215 -41.5q-117 0 -205 35.5t-147.5 100t-89 151.5 t-29.5 192zM272 459q0 -86 25 -158t73 -124t116.5 -80.5t156.5 -28.5q102 0 178 36.5t130.5 101t90 150.5t58.5 187q25 104 36 182t11 141q0 86 -24.5 158t-71.5 124t-116 80.5t-157 28.5q-102 0 -178 -36.5t-131 -101t-91 -151.5t-59 -188q-25 -104 -36 -181t-11 -140z" />
<glyph unicode="1" horiz-adv-x="757" d="M221 1153q0 33 21.5 51.5t23.5 16.5q14 -23 44 -37.5t77 -14.5q66 0 120 47.5t71 114.5h43q47 0 34 -55l-270 -1276h-102l241 1143q-29 -35 -73.5 -55.5t-90.5 -20.5q-47 0 -74.5 9t-43.5 26q-20 20 -21 51z" />
<glyph unicode="2" horiz-adv-x="1116" d="M49 72q0 104 36 192t101 154q78 78 179.5 127t216.5 90q106 39 184 73.5t128 75.5t74.5 92.5t24.5 122.5q0 111 -84 182.5t-235 71.5q-143 0 -230.5 -71.5t-132.5 -175.5q-2 -2 -11 -1t-20.5 7t-20.5 18t-9 33q0 23 20.5 64.5t61.5 82.5q55 55 141 95.5t205 40.5 q197 0 308.5 -94.5t111.5 -252.5q0 -96 -32 -163.5t-93.5 -119.5t-151.5 -93t-207 -84q-121 -43 -205.5 -85t-150.5 -108q-47 -47 -74.5 -108.5t-31.5 -143.5h782l-19 -94h-809q-23 0 -40 22.5t-17 49.5z" />
<glyph unicode="3" horiz-adv-x="1132" d="M29 281q0 25 10 40t23.5 23t24.5 9t11 -1q8 -59 39 -111.5t80 -91t119 -60t158 -21.5q92 0 162.5 26.5t118.5 71.5t71.5 104.5t23.5 124.5q0 117 -80.5 188.5t-240.5 71.5h-170l18 88h174q113 0 188 22.5t121 60.5t65.5 89.5t19.5 108.5q0 51 -22.5 94t-63.5 75 t-97.5 49.5t-122.5 17.5q-121 0 -217 -55.5t-149 -135.5q-2 -2 -10.5 0t-17.5 9t-16 17.5t-7 22.5q0 39 49 88q59 59 154.5 99.5t220.5 40.5q86 0 160.5 -21.5t129 -61.5t86 -99.5t31.5 -135.5q0 -129 -82 -223t-243 -117q115 -31 172 -108.5t57 -182.5q0 -76 -28.5 -150.5 t-88 -134t-152 -96t-221.5 -36.5q-125 0 -221 37.5t-149 91.5q-49 49 -68.5 96t-19.5 76z" />
<glyph unicode="4" horiz-adv-x="1216" d="M88 467q0 27 12.5 48.5t40.5 49.5l727 711q35 33 57.5 46t53.5 13q49 0 63.5 -20.5t8.5 -54.5l-166 -773h248l-19 -92h-248l-84 -395h-98l82 395h-643q-4 0 -19.5 22.5t-15.5 49.5zM188 487h600l160 750z" />
<glyph unicode="5" horiz-adv-x="1136" d="M63 258q0 18 9.5 30.5t21.5 19.5t22.5 9t12.5 0q29 -106 129 -176.5t260 -70.5q92 0 165 29.5t123 80.5t76.5 119t26.5 145q0 129 -86 203t-258 74q-94 0 -165.5 -18.5t-133.5 -53.5q-35 8 -46 27.5t-5 52.5l111 531q16 66 77 65h736l-19 -92h-700l-98 -473 q61 29 123.5 40t127.5 11q102 0 184.5 -25.5t139.5 -73.5t88 -115t31 -146q0 -98 -34 -183.5t-97.5 -150t-157.5 -101t-213 -36.5q-129 0 -224 37.5t-155 97.5q-39 41 -55.5 77.5t-16.5 65.5z" />
<glyph unicode="6" horiz-adv-x="1239" d="M170 444q0 63 13.5 163t44 207.5t80.5 210.5t122 175q70 70 153 108t216 38q111 0 187.5 -34t121.5 -79q35 -35 49 -67.5t14 -53.5q0 -18 -9 -30.5t-19 -20.5t-20.5 -10t-12.5 0q-35 94 -119 151.5t-203 57.5q-203 0 -322.5 -157t-172.5 -441q59 59 154.5 104t230.5 45 q94 0 172 -24.5t133 -70.5t86 -112.5t31 -150.5q0 -94 -36 -180.5t-99.5 -151t-153 -103t-193.5 -38.5q-98 0 -180 28.5t-141 87t-93 145.5t-34 203zM266 442q0 -184 94.5 -278t260.5 -94q86 0 156.5 29.5t120.5 79.5t78 119t28 148q0 125 -86.5 203t-251.5 78 q-135 0 -232.5 -50t-159.5 -120q-4 -31 -6 -59.5t-2 -55.5z" />
<glyph unicode="7" horiz-adv-x="1093" d="M191.5 52.5q1.5 25.5 35.5 72.5l824 1108h-815l18 92h846q2 0 10 -6t16.5 -16.5t15.5 -25.5t7 -34q0 -16 -7 -34.5t-30 -47.5l-858 -1167q-2 0 -19.5 3t-31 16.5t-12 39z" />
<glyph unicode="8" horiz-adv-x="1228" d="M96 324q0 70 28 132t79 112t122.5 84t161.5 48q-104 31 -157.5 97.5t-53.5 163.5q0 80 35 149.5t97.5 121.5t149.5 83t192 31q92 0 169.5 -23t134 -64.5t88.5 -101t32 -131.5q0 -61 -23 -118.5t-66 -103.5t-107.5 -80t-150.5 -48q129 -37 189.5 -117t60.5 -178 q0 -86 -35.5 -158.5t-101.5 -127t-159 -85t-208 -30.5q-109 0 -196.5 24.5t-150 69.5t-96.5 108.5t-34 141.5zM199 330q0 -117 100.5 -190.5t278.5 -73.5q184 0 290.5 88t106.5 227q0 113 -98.5 187.5t-284.5 74.5q-86 0 -158 -23.5t-124 -64.5t-81.5 -98.5t-29.5 -126.5z M379 965q0 -109 89 -171.5t243 -62.5q170 0 265 79t95 208q0 111 -91 176.5t-245 65.5q-82 0 -148.5 -23t-112.5 -61.5t-70.5 -93t-24.5 -117.5z" />
<glyph unicode="9" horiz-adv-x="1239" d="M135 217q0 18 8.5 30.5t19.5 20.5t20.5 9.5t11.5 -1.5q37 -94 120.5 -151t206.5 -57q201 0 321 150.5t175 424.5q-59 -59 -156.5 -104t-226.5 -45q-197 0 -309.5 94t-112.5 274q0 98 36 186.5t100.5 155t153.5 104.5t193 38q98 0 180 -29t141.5 -87.5t93.5 -145.5 t34 -203q0 -63 -13.5 -161.5t-44 -206t-81 -211t-123.5 -175.5q-70 -72 -155 -109.5t-218 -37.5q-113 0 -189.5 34.5t-121.5 79.5q-35 35 -49.5 69t-14.5 54zM309 868q0 -135 83 -212.5t255 -77.5q129 0 228.5 50t160.5 120q12 74 13 135q0 184 -94.5 278t-260.5 94 q-86 0 -156.5 -28.5t-121.5 -80.5t-79 -123t-28 -155z" />
<glyph unicode=":" horiz-adv-x="509" d="M88 45q0 57 25 82q20 20 59 20q76 0 76 -53q0 -57 -27 -84q-20 -20 -57 -20q-76 0 -76 55zM242 770q0 53 24 82q20 20 60 20q76 0 75 -55q0 -57 -26 -82q-21 -20 -58 -20q-76 0 -75 55z" />
<glyph unicode=";" horiz-adv-x="509" d="M-57 -236l213 396q2 2 16 2t30.5 -6t31 -17.5t14.5 -29.5q0 -16 -6 -32t-23 -38l-231 -305q-4 -4 -13.5 -2t-17.5 7t-13 12t-1 13zM242 770q0 53 24 82q20 20 60 20q76 0 75 -55q0 -57 -26 -82q-21 -20 -58 -20q-76 0 -75 55z" />
<glyph unicode="&#x3c;" horiz-adv-x="1013" d="M139 537q0 25 12.5 46t51.5 40l727 358q4 2 17.5 -11.5t15.5 -35.5q0 -16 -13.5 -33.5t-54.5 -38.5l-655 -321l503 -312q37 -20 49.5 -39.5t10.5 -35.5q-4 -23 -18.5 -36.5t-18.5 -8.5l-590 366q-37 20 -37 62z" />
<glyph unicode="=" horiz-adv-x="1134" d="M104 287q0 12 6.5 29.5t14.5 27.5q14 10 39 10h743q47 0 47 -24q0 -12 -5 -30.5t-15 -27.5q-8 -10 -39 -10h-743q-47 0 -48 25zM203 739q0 12 5 30.5t13 27.5q10 10 41 10h742q49 0 49 -25q0 -12 -6.5 -29.5t-14.5 -25.5q-12 -12 -39 -12h-743q-47 0 -47 24z" />
<glyph unicode="&#x3e;" horiz-adv-x="1013" d="M78 158q-2 16 11 33.5t54 37.5l658 322l-506 309q-37 23 -49.5 41.5t-7.5 34.5q4 25 17 37t19 8l590 -365q37 -25 37 -61q0 -27 -13.5 -47.5t-51.5 -38.5l-727 -360q-4 -2 -17.5 12t-13.5 37z" />
<glyph unicode="?" horiz-adv-x="1007" d="M223 1055q0 29 23.5 75t66.5 89q55 55 135 91t187 36q88 0 160.5 -26t123 -72t78 -109.5t27.5 -137.5q0 -82 -27.5 -142t-72.5 -103t-102.5 -72t-114.5 -49q-70 -25 -113 -46.5t-68.5 -47t-38 -55t-20.5 -68.5l-14 -62h-97l17 74q10 51 26.5 91t45 72t76.5 58.5t124 53.5 q129 45 204 110.5t75 185.5q0 111 -78 182.5t-217 71.5q-129 0 -215 -72.5t-125 -183.5q-2 -2 -12.5 0t-22.5 8.5t-21.5 17.5t-9.5 30zM287 45q0 57 26 82q20 20 58 20q78 0 78 -53t-27 -84q-20 -20 -57 -20q-78 0 -78 55z" />
<glyph unicode="@" horiz-adv-x="1574" d="M166 571q0 158 56.5 298.5t155.5 247t234.5 168t292.5 61.5q137 0 249 -39t190.5 -110t121.5 -172t43 -224q0 -98 -23.5 -182t-67.5 -145.5t-105.5 -96.5t-136.5 -35q-94 0 -141.5 42t-55.5 103q-80 -137 -242 -137q-102 0 -170.5 65.5t-68.5 182.5q0 68 23.5 133.5 t66.5 116.5t102 83t129 32q82 0 137.5 -41t75.5 -101l27 127h94l-76 -360q-16 -82 11.5 -126t99.5 -44q55 0 100 29.5t77 81t49.5 121t17.5 147.5q0 106 -39 193t-110 150.5t-169 98.5t-217 35q-139 0 -258 -56.5t-207 -151.5t-138 -221t-50 -267q0 -115 40 -210.5 t112.5 -166t176 -109.5t232.5 -39q100 0 192.5 29t151.5 70q12 10 24.5 15t28.5 5q20 0 32.5 -22.5t8.5 -28.5q-33 -27 -80 -52.5t-105.5 -45t-124 -31.5t-134.5 -12q-147 0 -264 43t-199 121.5t-126 187t-44 239.5zM594 608q0 -84 48 -132t120 -48q43 0 81 16.5t68.5 44 t51 63.5t28.5 77l21 96q-12 68 -58.5 113t-128.5 45q-53 0 -95 -23.5t-72.5 -62.5t-47 -88.5t-16.5 -100.5z" />
<glyph unicode="A" horiz-adv-x="1292" d="M-49 0l780 1300q10 18 24.5 26.5t41.5 8.5q39 0 53 -12t18 -35l265 -1288h-107l-90 459h-596l-270 -459h-119zM391 549h527l-132 670z" />
<glyph unicode="B" horiz-adv-x="1284" d="M92 0l266 1262q10 63 76 63h367q199 0 298 -74.5t99 -218.5q0 -61 -16.5 -117.5t-53 -102.5t-95 -80t-142.5 -52q123 -27 190.5 -96.5t67.5 -177.5q0 -84 -26.5 -158t-87 -129.5t-160 -87t-242.5 -31.5h-541zM213 92h426q219 0 312 81t93 233q0 111 -83.5 169t-239.5 58 h-393zM346 723h383q92 0 159.5 22.5t114 62.5t69 94t22.5 118q-6 213 -303 213h-334z" />
<glyph unicode="C" horiz-adv-x="1394" d="M162 545q0 162 55 307t152.5 255t230.5 174.5t289 64.5q145 0 238.5 -43t148.5 -101q47 -47 67.5 -96t20.5 -80q0 -20 -9 -32.5t-20.5 -19.5t-23 -9t-15.5 2q-37 135 -139 212.5t-274 77.5q-133 0 -245 -56t-194 -151.5t-128 -222.5t-46 -268q0 -113 35 -204t97.5 -154.5 t150.5 -97t195 -33.5q82 0 150.5 19.5t123.5 53t95 75.5t69 89q2 2 10 0t17.5 -8t16.5 -17.5t7 -27.5q0 -18 -17.5 -51t-56.5 -74q-61 -59 -170.5 -104t-244.5 -45q-133 0 -241 38.5t-184.5 112.5t-118.5 178.5t-42 235.5z" />
<glyph unicode="D" horiz-adv-x="1396" d="M92 0l268 1262q10 63 74 63h219q311 0 482.5 -145.5t171.5 -409.5q0 -162 -52.5 -302t-155 -244.5t-255 -164t-355.5 -59.5h-397zM215 90h291q174 0 304 52.5t216 143.5t129 211.5t43 258.5q0 225 -142.5 352t-408.5 127h-190z" />
<glyph unicode="E" horiz-adv-x="1218" d="M92 0l268 1262q14 63 74 63h826l-19 -92h-784l-109 -508h617l-19 -90h-616l-115 -541h805l-21 -94h-907z" />
<glyph unicode="F" horiz-adv-x="1140" d="M92 0l268 1262q10 63 74 63h791l-19 -92h-749l-117 -551h569l-18 -90h-572l-126 -592h-101z" />
<glyph unicode="G" horiz-adv-x="1484" d="M164 549q0 156 53 299t150.5 253.5t231.5 177.5t296 67q147 0 247.5 -46.5t155.5 -101.5q39 -39 58.5 -81t19.5 -70q0 -25 -10 -39.5t-22.5 -20.5t-23.5 -7t-13 1q-14 55 -50 105.5t-89.5 88t-123 59t-151.5 21.5q-137 0 -252 -57t-197 -152.5t-128 -222.5t-46 -264 q0 -119 35 -211t98.5 -154.5t150.5 -94t191 -31.5q102 0 188.5 32.5t149.5 98.5q35 33 59.5 67.5t44 75.5t35 93t29.5 124h-454l18 92h475q61 0 61 -48q0 -10 -3 -23l-123 -580q0 -6 -23 -6q-29 0 -44 24q-8 13 -8 37q0 19 5 45l21 101q-53 -94 -165 -157.5t-268 -63.5 q-127 0 -233.5 37.5t-183 110.5t-119.5 179.5t-43 241.5z" />
<glyph unicode="H" horiz-adv-x="1421" d="M94 0l271 1284q12 47 51 47h14q39 0 39 -36q0 -8 -2 -17l-121 -567h825l121 573q12 47 51 47h15q39 0 39 -34q0 -8 -2 -19l-273 -1278h-100l129 616h-825l-131 -616h-101z" />
<glyph unicode="I" horiz-adv-x="534" d="M115 0l274 1286q8 45 49 45h15q23 0 32 -15.5t4 -39.5l-272 -1276h-102z" />
<glyph unicode="J" horiz-adv-x="962" d="M39 178q0 18 8 30.5t19.5 21t20.5 10.5t11 0q29 -76 99.5 -124t162.5 -48q127 0 199 77.5t109 247.5l198 932h101l-201 -946q-43 -205 -141.5 -302t-264.5 -97q-92 0 -158.5 28.5t-107.5 69.5q-31 33 -43 58.5t-12 41.5z" />
<glyph unicode="K" horiz-adv-x="1144" d="M92 0l273 1284q10 47 51 47h14q39 0 39 -36q0 -8 -2 -17l-123 -578l801 643q2 0 17.5 -6t24.5 -21.5t2 -40t-50 -58.5l-688 -543l372 -477q33 -43 57.5 -70t45 -42t41 -20.5t45.5 -5.5q2 0 2 -10t-6.5 -23.5t-23.5 -23.5t-50 -10q-25 0 -46.5 8t-44 27.5t-50 52.5 t-64.5 80l-391 514l-145 -674h-101z" />
<glyph unicode="L" horiz-adv-x="1064" d="M92 0l273 1284q12 47 51 47h14q39 0 39 -36q0 -8 -2 -17l-252 -1184h643q47 0 47 -26q0 -12 -5 -30t-15 -28q-8 -10 -41 -10h-752z" />
<glyph unicode="M" horiz-adv-x="1574" d="M92 0l268 1262q16 69 82 69h2h23q39 0 51 -18.5t23 -57.5l233 -802l580 802q31 45 50 60.5t54 15.5h27q35 0 49 -21.5t8 -49.5l-268 -1260h-96l258 1214l-578 -796q-23 -33 -44 -46.5t-52 -13.5q-41 0 -56.5 19.5t-23.5 52.5l-233 784l-261 -1214h-96z" />
<glyph unicode="N" horiz-adv-x="1441" d="M92 0l268 1262q16 69 70 69h2h27q25 0 38 -14t27 -43l555 -1124l252 1175h94l-270 -1270q-6 -29 -22.5 -45t-42.5 -16h-13q-23 0 -36 14.5t-29 42.5l-568 1153l-258 -1204h-94z" />
<glyph unicode="O" horiz-adv-x="1558" d="M162 551q0 172 60.5 317.5t161.5 252t233.5 166t273.5 59.5q135 0 242.5 -43t182.5 -120t116 -181.5t41 -227.5q0 -172 -61.5 -317.5t-163 -251t-233 -165.5t-272.5 -60q-133 0 -240.5 43t-183 119.5t-116.5 181t-41 227.5zM270 559q0 -102 33 -192.5t94.5 -156 t151.5 -103t205 -37.5q117 0 227.5 52t195.5 145t136 221t51 280q0 102 -33 191.5t-94 156t-151.5 104t-204.5 37.5q-117 0 -226.5 -52t-195.5 -146t-137.5 -222t-51.5 -278z" />
<glyph unicode="P" horiz-adv-x="1183" d="M92 0l268 1262q10 63 74 63h297q217 0 330 -88t113 -254q0 -217 -135.5 -338t-391.5 -121h-342l-112 -524h-101zM326 614h340q193 0 298 95.5t105 261.5q0 129 -85 195.5t-259 66.5h-268z" />
<glyph unicode="Q" horiz-adv-x="1576" d="M162 551q0 172 61.5 317.5t162.5 252t234.5 166t276.5 59.5q135 0 241.5 -43t181.5 -119t114 -180.5t39 -229.5q0 -186 -71 -339.5t-190 -260.5l19 -22q45 -57 76.5 -77t66.5 -24q2 0 3 -11t-4 -23.5t-17.5 -23.5t-38.5 -11q-43 0 -75 22.5t-81 87.5l-18 23 q-90 -66 -192.5 -100.5t-213.5 -34.5q-135 0 -241.5 43t-181 118.5t-113.5 181t-39 228.5zM270 559q0 -102 33 -192.5t94.5 -156t149.5 -103t201 -37.5q92 0 177 29.5t160 84.5l-254 328l72 57l250 -321q96 92 153.5 226t57.5 294q0 102 -32 191.5t-93 156t-150.5 104 t-201.5 37.5q-119 0 -230.5 -52t-197.5 -146t-137.5 -222t-51.5 -278z" />
<glyph unicode="R" horiz-adv-x="1214" d="M92 0l268 1262q10 63 74 63h316q215 0 326.5 -82t111.5 -239q0 -205 -131 -321t-371 -116h-74l244 -368q25 -39 45.5 -64.5t41 -41t44 -21.5t53.5 -6q2 0 3 -11.5t-5 -26t-23.5 -25.5t-51.5 -11q-25 0 -46.5 6t-44 24.5t-48 51t-58.5 86.5l-268 407h-183l-122 -567h-101z M334 655h354q197 0 295 92.5t98 245.5q0 117 -86 179.5t-252 62.5h-286z" />
<glyph unicode="S" horiz-adv-x="1155" d="M66 268q0 18 9 30.5t21.5 19t22.5 7.5t10 -1q18 -53 53 -99.5t88.5 -81t125 -55t161.5 -20.5q172 0 258 74.5t86 199.5q0 57 -24.5 98t-65.5 74t-98.5 58.5t-120.5 52.5q-66 27 -127.5 56.5t-109.5 70.5t-77.5 98t-29.5 137q0 76 30.5 141.5t87 113.5t137.5 76t181 28 q137 0 229.5 -39t143.5 -90q33 -33 49 -66t16 -61q0 -18 -9 -30.5t-20.5 -19t-21.5 -7.5t-12 1q-16 45 -48 86t-79 72t-109.5 48t-142.5 17q-74 0 -134.5 -19t-103.5 -55t-66.5 -83t-23.5 -103q0 -59 23.5 -102t64.5 -76t98.5 -59.5t125.5 -52.5q63 -27 124.5 -56.5 t109.5 -69.5t77 -95.5t29 -133.5q0 -166 -117 -269t-336 -103q-141 0 -245.5 43t-164.5 102q-35 35 -55 73t-20 70z" />
<glyph unicode="T" horiz-adv-x="1234" d="M248 1257q0 12 5 30t15 28q8 10 41 10h969q47 0 47 -25q0 -12 -5 -29.5t-15 -27.5q-4 -8 -14.5 -9t-26.5 -1h-435l-262 -1233h-102l262 1233h-432q-47 0 -47 24z" />
<glyph unicode="U" horiz-adv-x="1361" d="M182 312q-7 42 -6 89q0 79 19 172l151 711q6 25 17.5 36t33.5 11h15q37 0 37 -33q0 -9 -3 -20l-149 -713q-19 -89 -18 -162q0 -133 62 -211q97 -120 318 -120q172 0 278.5 105.5t149.5 311.5l170 795q8 47 52 47h12q37 0 37 -34q0 -9 -2 -19l-170 -809 q-53 -242 -185.5 -365.5t-347.5 -123.5q-131 0 -231 36.5t-161 110t-79 185.5z" />
<glyph unicode="V" horiz-adv-x="1280" d="M242 1300q0 6 14 16.5t33.5 13.5t38 -8t24.5 -48l223 -1165l709 1222h20q16 0 32 -11q19 -13 19 -43q0 -27 -28 -73l-713 -1204h-114z" />
<glyph unicode="W" horiz-adv-x="1863" d="M315 1311q0 6 16.5 14t36 7t36 -14t16.5 -50l33 -1176l522 975q14 29 31.5 41t52.5 12q43 0 58.5 -19.5t19.5 -49.5l114 -957l549 1233q0 2 18.5 3t35.5 -8q16 -10 20 -36q1 -4 1 -7q0 -26 -22 -75l-546 -1200q0 -2 -10.5 -3t-22.5 -1h-22h-11h-13h-24.5t-25 1t-11.5 3 l-118 1014l-551 -1018h-133z" />
<glyph unicode="X" horiz-adv-x="1218" d="M-15 42q1 24 38 60l561 572l-297 651h110l262 -594l582 612q2 0 18.5 -5t28.5 -18t11 -36.5t-37 -60.5l-555 -570l211 -438q23 -49 42 -79t39.5 -45t43 -20t51.5 -3q2 0 3 -13.5t-5.5 -30t-23.5 -29.5t-50 -13q-57 0 -98 43t-89 145l-202 426l-586 -614l-17 4 q-18 4 -30 18t-11 38z" />
<glyph unicode="Y" d="M221 1325h111l289 -666l575 674q2 2 19.5 -2t31 -17.5t10 -41t-42.5 -72.5l-559 -639l-118 -561h-103l121 571z" />
<glyph unicode="Z" horiz-adv-x="1210" d="M0 0l14 70l4 20l1092 1143h-772q-59 0 -59 37q0 16 10 35.5t12 19.5h963l-15 -70l-4 -20l-1093 -1141h813q59 0 59 -39q0 -16 -10 -35.5t-15 -19.5h-999z" />
<glyph unicode="[" horiz-adv-x="729" d="M20 -395l367 1720h381q45 0 45 -25q0 -10 -5 -27.5t-13 -25.5q-10 -10 -39 -10h-295l-328 -1542h289q45 0 45 -25q0 -12 -5 -28.5t-13 -26.5q-14 -10 -39 -10h-390z" />
<glyph unicode="\" horiz-adv-x="718" d="M233 1325h99l160 -1720h-99z" />
<glyph unicode="]" horiz-adv-x="729" d="M-92 -371q0 10 5 27.5t13 26.5q12 12 39 12h295l328 1542h-289q-45 0 -45 23q0 12 5 29.5t13 25.5q10 10 39 10h389l-366 -1720h-381q-45 0 -45 24z" />
<glyph unicode="^" horiz-adv-x="1093" d="M403 948q0 25 31 62t105 104q72 66 119 99.5t51 33.5t35.5 -33.5t72.5 -95.5q47 -70 62.5 -103.5t15.5 -49.5q0 -20 -10.5 -31.5t-26.5 -11.5q-20 0 -40.5 25.5t-61.5 103.5l-60 108q-29 -29 -50 -53.5t-56 -58.5q-66 -68 -102 -96.5t-56 -28.5q-29 0 -29 26z" />
<glyph unicode="_" horiz-adv-x="995" d="M-53 -68q0 10 5 29t13 27q10 12 41 12h770q47 0 47 -27q0 -10 -5 -27.5t-13 -27.5q-12 -12 -41 -12h-770q-47 0 -47 26z" />
<glyph unicode="`" horiz-adv-x="1093" d="M487 1362q0 18 14.5 30.5t33.5 12.5q16 0 36.5 -11.5t51.5 -39.5q49 -41 87 -82t64.5 -74t38.5 -54.5t10 -23.5q-4 -4 -27.5 3t-61.5 25.5t-85 48.5t-96 71q-41 35 -53.5 54t-12.5 40z" />
<glyph unicode="a" horiz-adv-x="1228" d="M111 395q0 113 39.5 219.5t111.5 189.5t171 134t216 51q72 0 131.5 -19.5t106.5 -52t79.5 -75.5t49.5 -92l47 219h96l-166 -774q-6 -33 -6 -57q1 -37 15 -54q24 -27 81 -29l1 -11t-5 -23.5t-20 -23.5t-43 -11q-72 0 -108 51q-22 31 -22 82q0 33 9 74v4 q-68 -106 -168 -161.5t-215 -55.5q-84 0 -156.5 27.5t-127 80.5t-86 130t-31.5 177zM211 397q0 -78 24.5 -139t66.5 -104t99 -65.5t123 -22.5q80 0 150.5 30.5t126 81.5t94.5 117.5t53 138.5l39 176q-27 127 -111.5 210t-232.5 83q-98 0 -178 -44t-136.5 -115.5t-87 -163 t-30.5 -183.5z" />
<glyph unicode="b" horiz-adv-x="1224" d="M74 6l293 1374h98l-129 -598q66 94 158 150.5t215 56.5q82 0 155.5 -27.5t130 -83t89 -135t32.5 -184.5q0 -111 -39 -215t-107.5 -185t-164.5 -130t-211 -49q-74 0 -134.5 20t-108.5 54t-80.5 80t-51.5 95l-29 -135q-12 -55 -30.5 -77.5t-46.5 -22.5q-16 0 -27.5 5 t-11.5 7zM264 446q-5 -29 -5 -58q-1 -40 9 -79q16 -67 59.5 -121.5t112 -88t160.5 -33.5q96 0 174 42t132.5 111.5t83 158.5t28.5 181q0 80 -25.5 144.5t-68.5 108.5t-101.5 67.5t-124.5 23.5t-125 -20.5t-109 -56t-90 -84t-67 -103.5z" />
<glyph unicode="c" horiz-adv-x="1118" d="M109 422q0 111 40.5 213t113.5 181t171 126t213 47q119 0 198 -35.5t126 -85.5q43 -43 62.5 -90t19.5 -80q0 -23 -11.5 -36t-24.5 -19t-24.5 -6t-13.5 4q-8 53 -32.5 100t-66.5 83t-99.5 56.5t-131.5 20.5q-96 0 -177 -40t-139.5 -106.5t-91 -151.5t-32.5 -175 q0 -84 26.5 -150.5t73.5 -112.5t112.5 -71.5t145.5 -25.5q121 0 201 57t127 135q2 2 11 0t19.5 -7t18.5 -15.5t8 -24.5q0 -41 -63 -107q-49 -47 -133 -86.5t-197 -39.5q-94 0 -176 29.5t-143.5 86t-96 138t-34.5 188.5z" />
<glyph unicode="d" horiz-adv-x="1228" d="M117 410q0 111 38 215t107.5 185t165.5 130t211 49q143 0 238.5 -69.5t136.5 -171.5l135 632h98l-254 -1185q-7 -35 -8 -60q-1 -35 15 -51q26 -27 83 -29l1 -11t-5 -23.5t-20 -23.5t-43 -11q-70 0 -107 49q-24 31 -24 83q0 30 8 66q-68 -98 -159 -151t-212 -53 q-82 0 -155.5 28.5t-129 82.5t-88 134t-32.5 185zM215 410q0 -80 25.5 -144.5t68.5 -108.5t101.5 -67.5t124.5 -23.5q76 0 144.5 28.5t122.5 76.5t91 112.5t51 136.5l41 186q-29 129 -117 213t-235 84q-96 0 -174 -42t-132.5 -111.5t-83 -158.5t-28.5 -181z" />
<glyph unicode="e" horiz-adv-x="1103" d="M104 371q0 129 46.5 241.5t128 196.5t191.5 132t239 48q160 0 247.5 -69.5t87.5 -174.5q0 -66 -25.5 -120t-90 -92.5t-173 -60t-274.5 -21.5q-59 0 -125.5 3t-144.5 11q-6 -43 -6 -88q0 -139 80 -226.5t239 -87.5q119 0 201 44.5t139 123.5q2 2 10.5 0t17.5 -8t16 -16 t7 -23q0 -18 -9 -35.5t-38 -44.5q-61 -63 -146 -93.5t-202 -30.5q-102 0 -179 28.5t-130 80.5t-80 124t-27 158zM231 549q70 -10 129.5 -13.5t112.5 -3.5q141 0 232.5 18.5t144.5 47.5t73.5 66.5t20.5 78.5q0 59 -60.5 109.5t-181.5 50.5q-84 0 -157.5 -27.5t-135 -74.5 t-107.5 -111.5t-71 -140.5z" />
<glyph unicode="f" horiz-adv-x="706" d="M150 881l16 88h201l26 118q29 141 100.5 228.5t200.5 87.5q59 0 99.5 -15.5t64.5 -39.5q25 -25 25 -56q0 -27 -17.5 -41t-21.5 -10q-18 33 -60.5 54.5t-95.5 21.5q-88 0 -134 -66.5t-69 -177.5l-24 -104h258l-19 -88h-256l-186 -881h-96l186 881h-198z" />
<glyph unicode="g" horiz-adv-x="1224" d="M39 -147q0 25 10 39t23.5 22t25 9t13.5 -1q25 -98 109.5 -166.5t248.5 -68.5q315 0 389 350l39 178q-63 -94 -157.5 -149.5t-219.5 -55.5q-80 0 -152.5 28t-130 81t-91 133t-33.5 182q0 106 40 205.5t111.5 177.5t168.5 125t212 47q72 0 132.5 -19.5t106.5 -52 t78.5 -75.5t49.5 -92l49 219h94l-199 -940q-45 -209 -166.5 -320.5t-328.5 -111.5q-129 0 -215 35.5t-137 86.5q-39 39 -54.5 75t-15.5 59zM213 434q0 -80 26.5 -142.5t70.5 -105.5t101.5 -66.5t120.5 -23.5q76 0 143.5 27t123 73t93.5 106t52 130l39 178q-23 129 -113 211 t-231 82q-94 0 -173 -40t-135.5 -106.5t-87 -150.5t-30.5 -172z" />
<glyph unicode="h" d="M72 0l286 1339q8 45 50 45h14q23 0 30 -15t3 -40l-121 -555q59 98 151.5 156.5t208.5 58.5q154 0 243 -89t89 -232q0 -55 -16.5 -133t-40.5 -177q-23 -80 -35 -137t-12 -86q0 -47 24.5 -62.5t65.5 -19.5q2 0 2 -10t-6.5 -23.5t-20.5 -23.5t-41 -10q-53 0 -88 34.5 t-35 100.5q0 41 13.5 104.5t35.5 145.5q25 92 39.5 162.5t14.5 117.5q0 117 -64.5 181.5t-179.5 64.5q-129 0 -217 -67.5t-158 -188.5l-137 -641h-98z" />
<glyph unicode="i" horiz-adv-x="471" d="M125 193l166 776h96l-164 -774q-6 -33 -6 -58q1 -37 15 -54q24 -28 87 -28l1 -11q2 -11 -4.5 -23.5t-21.5 -23.5t-44 -11q-76 0 -112 50q-22 31 -22 82q0 33 9 75zM340 1284q0 33 18.5 57.5t53.5 24.5q69 0 69 -52q0 -34 -18 -58.5t-53 -24.5q-70 0 -70 53z" />
<glyph unicode="j" horiz-adv-x="471" d="M-303 -309q0 29 19.5 47t21.5 14q23 -29 59.5 -50t87.5 -21q63 0 105.5 41.5t64.5 144.5l236 1102h96l-237 -1119q-29 -135 -100 -196.5t-169 -61.5q-61 0 -101 17.5t-61 36.5q-23 23 -22 45zM340 1284q0 33 18.5 57.5t53.5 24.5q69 0 69 -52q0 -34 -18 -58.5t-53 -24.5 q-70 0 -70 53z" />
<glyph unicode="k" horiz-adv-x="944" d="M72 0l295 1380h98l-182 -854l604 461q2 2 17.5 -5t23.5 -22.5t1 -39t-48 -56.5l-492 -364l234 -301q33 -47 56 -73t44.5 -38t44.5 -15t53 -3l1 -14q1 -13 -5 -28.5t-23.5 -28.5t-50.5 -13q-27 0 -48 7t-44.5 26.5t-52.5 55.5t-70 95l-249 334l-109 -504h-98z" />
<glyph unicode="l" horiz-adv-x="471" d="M125 193l254 1187h96l-252 -1185q-6 -33 -6 -58q1 -37 15 -54q24 -28 87 -28l1 -11q2 -11 -4.5 -23.5t-21.5 -23.5t-44 -11q-76 0 -112 50q-22 31 -22 82q0 33 9 75z" />
<glyph unicode="m" horiz-adv-x="1822" d="M72 0l209 969q0 6 20 6q29 -1 49 -21q11 -12 11 -37q0 -20 -7 -49l-14 -71q63 92 151.5 142t192.5 50q117 0 198 -63.5t99 -171.5q59 102 155.5 168.5t235.5 66.5q70 0 127 -23.5t99 -64.5t66 -100.5t24 -128.5q0 -53 -16.5 -131t-45.5 -183q-23 -80 -35 -137t-12 -86 q0 -47 25.5 -62.5t66.5 -19.5v-10t-5 -23.5t-19 -23.5t-41 -10q-55 0 -89 34.5t-34 100.5q0 41 13 104.5t36 145.5q25 100 39 168.5t14 115.5q0 115 -62.5 178.5t-162.5 63.5q-125 0 -210 -62.5t-151 -179.5l-139 -655h-98l123 578q9 43 9 81q0 25 -4 48q-9 59 -39 101 t-76 65.5t-103 23.5q-121 0 -205 -59.5t-156 -175.5l-141 -662h-98z" />
<glyph unicode="n" d="M72 0l209 969q0 6 20 6q29 -1 47 -21q11 -12 11 -39q0 -19 -5 -47l-20 -92q61 98 152.5 155.5t207.5 57.5q154 0 243 -89t89 -232q0 -55 -16.5 -133t-40.5 -177q-23 -80 -35 -137t-12 -86q0 -47 24.5 -62.5t65.5 -19.5q2 0 2 -10t-6.5 -23.5t-20.5 -23.5t-41 -10 q-53 0 -88 34.5t-35 100.5q0 41 13.5 104.5t35.5 145.5q25 92 39.5 162.5t14.5 117.5q0 117 -64.5 181.5t-179.5 64.5q-129 0 -217 -67.5t-158 -188.5l-137 -641h-98z" />
<glyph unicode="o" horiz-adv-x="1202" d="M111 424q0 115 42 218t114.5 180t171 122t212.5 45q94 0 175 -32.5t140.5 -92t93.5 -140.5t34 -179q0 -115 -42 -218.5t-116 -180t-172 -121.5t-211 -45q-94 0 -175 32.5t-140.5 92t-93 140.5t-33.5 179zM209 426q0 -78 26.5 -143.5t72.5 -113.5t110.5 -75.5t140.5 -27.5 q88 0 167 37.5t138.5 102t94 151.5t34.5 186q0 78 -25.5 143.5t-71.5 113.5t-110.5 75.5t-140.5 27.5q-88 0 -167 -38t-139 -102.5t-95 -151.5t-35 -185z" />
<glyph unicode="p" horiz-adv-x="1224" d="M-10 -389l291 1358q0 6 20 6q29 0 47 -21q11 -12 11 -39q0 -20 -5 -47l-18 -86q66 94 158 150.5t215 56.5q82 0 155.5 -27.5t130 -83t89 -135t32.5 -184.5q0 -111 -39 -215t-107.5 -185t-164.5 -130t-211 -49q-76 0 -138.5 21.5t-109.5 56t-80 79.5t-47 92l-131 -618h-98 zM264 446q-5 -29 -5 -58q0 -40 9 -79q17 -67 60 -121.5t111.5 -88t160.5 -33.5q96 0 174 42t132.5 111.5t83 158.5t28.5 181q0 80 -25.5 144.5t-68.5 108.5t-101.5 67.5t-124.5 23.5t-125 -20.5t-109 -56t-90 -84t-67 -103.5z" />
<glyph unicode="q" horiz-adv-x="1228" d="M117 410q0 111 38 215t107.5 185t165.5 130t211 49q72 0 132 -18.5t107.5 -51t82 -74.5t55.5 -91l24 118q12 57 31 80t49 23q16 0 26.5 -5t10.5 -7l-289 -1352h-96l123 575q-66 -94 -158 -150t-215 -56q-82 0 -155.5 28.5t-129 82.5t-88 134t-32.5 185zM215 410 q0 -80 25.5 -144.5t68.5 -108.5t101.5 -67.5t124.5 -23.5q76 0 144.5 28.5t122.5 76.5t91 112.5t51 136.5l41 186q-29 129 -111.5 213t-240.5 84q-96 0 -174 -42t-132.5 -111.5t-83 -158.5t-28.5 -181z" />
<glyph unicode="r" horiz-adv-x="741" d="M74 0l207 969q0 6 20 6q29 -1 47 -21q11 -12 11 -39q0 -19 -5 -47l-20 -100q53 115 122.5 168t161.5 53q59 0 101.5 -24.5t42.5 -59.5t-18.5 -50t-22.5 -13q-18 23 -50 39t-79 16q-59 0 -110.5 -33t-92.5 -94t-72.5 -148t-54.5 -194l-90 -428h-98z" />
<glyph unicode="s" horiz-adv-x="972" d="M45 193q0 16 8 27t17.5 18.5t18.5 10.5t11 1q39 -76 130.5 -132.5t222.5 -56.5q129 0 198.5 52.5t69.5 136.5q0 39 -18.5 65.5t-52.5 48t-80 39t-99 35.5q-55 18 -108.5 40t-95.5 52.5t-67.5 74.5t-25.5 108q0 57 25.5 108t71.5 88t110.5 58.5t144.5 21.5 q111 0 194 -33.5t130 -81.5q47 -51 47 -90q0 -16 -8 -27.5t-18.5 -17.5t-19.5 -8t-11 2q-35 76 -122 125t-200 49q-61 0 -107 -15t-77 -41t-47.5 -58.5t-16.5 -67.5q0 -41 20.5 -71.5t55.5 -53t82 -42t100 -38.5q53 -18 104.5 -39.5t92.5 -50.5t65.5 -71t24.5 -99 q0 -127 -96.5 -203.5t-272.5 -76.5q-117 0 -206.5 35.5t-143.5 88.5q-23 23 -37 46.5t-14 42.5z" />
<glyph unicode="t" horiz-adv-x="741" d="M158 881l16 88h158l28 135q10 57 30 79.5t50 22.5q14 0 25.5 -5t11.5 -7l-47 -225h311l-18 -88h-311l-121 -562q-13 -58 -13 -103q0 -58 22 -92q38 -60 130 -61q45 0 83 19.5t56 46.5q4 2 14.5 -11.5t10.5 -35.5q0 -27 -25 -51q-51 -51 -153 -51q-132 0 -194 85 q-40 54 -40 143q0 50 13 111l118 562h-155z" />
<glyph unicode="u" d="M146 243q-5 31 -4 66q0 58 14 125l112 535h99l-115 -541q-13 -60 -12 -110q0 -94 44 -154q70 -92 210 -92q121 0 205.5 61.5t156.5 183.5l137 652h99l-164 -774q-8 -36 -8 -62q0 -34 14 -49q24 -27 82 -29l1 -11t-5 -23.5t-20.5 -23.5t-43.5 -11q-70 0 -106 48 q-23 31 -22 83q0 30 7 67q-59 -98 -148 -151t-200 -53q-92 0 -162.5 30.5t-113.5 89t-57 143.5z" />
<glyph unicode="v" horiz-adv-x="999" d="M81 910q-1 12 4 27t19.5 27.5t45.5 12.5q59 0 100 -41q31 -31 49 -90.5t31 -151.5l80 -596l534 875q2 2 20 1q16 0 30 -12q16 -13 16 -40q0 -24 -27 -66l-534 -856h-117l-99 702q-16 115 -52 156q-34 39 -93 39h-6z" />
<glyph unicode="w" horiz-adv-x="1460" d="M120 913.5q-1 12.5 6 25.5t23.5 25.5t49.5 12.5q55 0 92 -37q61 -61 61 -237v-11l-6 -590l356 660q18 37 40 47t51 10q70 0 77 -76l70 -641l418 871q0 2 16.5 2t31.5 -11q16 -10 20 -34q1 -4 0 -9q0 -24 -19 -65l-420 -856h-123l-88 700l-387 -700h-133l2 698 q0 61 -9 100.5t-26.5 62t-43 31.5t-56.5 9q-2 0 -3 12.5z" />
<glyph unicode="x" horiz-adv-x="1001" d="M7 47.5q3 24.5 42 61.5l381 374l-250 486h115l207 -430l440 444q2 0 18.5 -5t27.5 -18.5t7 -38t-43 -61.5l-401 -395l129 -242q27 -49 48.5 -78.5t44 -45t48 -19.5t58.5 -4l1 -14q1 -13 -4.5 -28.5t-21.5 -28.5t-49 -13q-31 0 -57.5 9t-52 33.5t-53.5 67.5t-60 111 l-103 197l-420 -424q-2 0 -18 4t-26.5 18.5t-7.5 39z" />
<glyph unicode="y" horiz-adv-x="997" d="M-150 -319q0 25 18.5 40t22.5 11q18 -23 50 -37t59 -14q29 0 57.5 11t61.5 38.5t72.5 76t91.5 123.5l82 123q-47 6 -54 66l-80 583q-16 109 -51 153q-33 42 -94 42h-6l-1 13q-1 12 5 27t21.5 27.5t50.5 12.5q51 0 86 -37q31 -31 53 -91.5t33 -154.5l73 -588l539 863h18 q17 0 36.5 -1t34.5 -2l15 -1l-667 -1055q-59 -96 -107.5 -157.5t-91.5 -97.5t-84 -50.5t-88 -14.5q-94 0 -137 48q-18 18 -19 43z" />
<glyph unicode="z" horiz-adv-x="1011" d="M14 0v76l842 809h-592q-53 0 -53 35q0 14 8 31.5t12 17.5h752v-74l-844 -811h615q53 0 53 -35q0 -14 -8 -31.5t-13 -17.5h-772z" />
<glyph unicode="{" horiz-adv-x="876" d="M88 487q2 16 6 27.5t13.5 21t24.5 18.5t42 19l170 78q23 98 51.5 177t60 140.5t67.5 108.5t75 86q94 94 182 132t142 38q23 0 33 -11t12 -25.5t-4.5 -29t-14.5 -18.5q-76 -12 -153.5 -52t-137.5 -99q-80 -82 -133 -205t-94 -303l-258 -111l203 -155q-66 -401 100 -570 q35 -33 65.5 -51t71.5 -31q4 -2 7.5 -14t1 -25.5t-13.5 -24.5t-36 -11q-35 0 -75.5 21.5t-87.5 68.5q-96 98 -131 253.5t-9 342.5l-133 102q-35 27 -45 46.5t-2 55.5z" />
<glyph unicode="|" horiz-adv-x="540" d="M45 -342l346 1626q8 47 53 47h11q45 0 32 -53l-346 -1626q-8 -47 -53 -47h-8q-47 0 -35 53z" />
<glyph unicode="}" horiz-adv-x="876" d="M-102 -366.5q-2 14.5 4 28.5t14 19q76 12 155 52t138 99q80 82 133 205t94 303l258 111l-202 155q33 199 7 342.5t-110 225.5q-33 35 -63.5 53t-71.5 30q-4 2 -8 13.5t-1 26t13 25.5t35 11q35 0 76 -21.5t88 -68.5q98 -98 133 -253.5t8 -342.5l133 -102q35 -27 45 -46.5 t2 -56.5q-4 -16 -7 -28.5t-12 -21.5t-24.5 -17t-42.5 -19l-170 -77q-23 -98 -51.5 -177t-60 -140.5t-68.5 -109t-76 -85.5q-92 -94 -180 -132t-141 -38q-25 0 -35 11t-12 25.5z" />
<glyph unicode="~" horiz-adv-x="1091" d="M254 367q16 92 60 147t116 55q51 0 85 -25.5t63 -58.5q27 -33 45 -47t43 -14q29 0 47 22.5t32 63.5q8 23 18.5 35t29.5 12q20 0 34 -14q-16 -92 -59 -146.5t-115 -54.5q-51 0 -84.5 25.5t-62.5 58.5q-29 31 -47.5 45t-40.5 14q-29 0 -47.5 -22.5t-32.5 -63.5 q-14 -45 -49 -45q-16 0 -35 13z" />
<glyph unicode="&#xa1;" horiz-adv-x="544" d="M121 57l219 885q8 31 29 31q23 0 28.5 -9.5t1.5 -33.5l-155 -885q-4 -33 -19.5 -42t-38.5 -9q-39 0 -57 11t-8 52zM358 1233q0 55 27 82q20 20 57 20q76 0 76 -55q0 -57 -24 -82q-21 -20 -60 -20q-76 0 -76 55z" />
<glyph unicode="&#xa2;" horiz-adv-x="1146" d="M150 514q0 111 40.5 213t113.5 180t172 125t216 47l47 219q8 47 41 48h11q16 0 29.5 -9.5t6.5 -38.5l-47 -225q80 -12 136.5 -42t95.5 -70q43 -43 62.5 -90.5t19.5 -79.5q0 -25 -10.5 -37.5t-23.5 -18.5t-25.5 -6t-14.5 4q-12 94 -79 167t-181 89l-176 -829q6 0 12 -1 t12 -1q123 0 203 58t127 134q2 2 10 1t18.5 -6t18.5 -15.5t8 -24.5q0 -18 -14 -45t-49 -61q-47 -47 -132 -87t-198 -40h-16t-17 2l-47 -228q-10 -47 -43 -47h-10q-16 0 -29.5 9.5t-7.5 37.5l25 119l24 119q-72 16 -131 52t-104 90.5t-69.5 127t-24.5 160.5zM252 520 q0 -137 68.5 -228t183.5 -120l174 821q-96 -4 -174 -45t-134.5 -107.5t-87 -150.5t-30.5 -170z" />
<glyph unicode="&#xa3;" horiz-adv-x="1187" d="M27 27q0 12 6 28.5t14 26.5q10 12 41 12h127l131 455h-178q-47 0 -47 26q0 10 5 26.5t13 27.5q14 12 39 12h195l71 250q35 123 76 210t92.5 142t116 81t145.5 26q84 0 143.5 -26t100.5 -64q33 -35 48.5 -72t15.5 -60q0 -25 -10.5 -39t-22.5 -20t-23.5 -7t-13.5 1 q-23 98 -86 148.5t-158 50.5q-115 0 -190.5 -87.5t-134.5 -295.5l-70 -238h377q47 0 47 -27q0 -10 -5 -26.5t-13 -26.5q-16 -12 -41 -12h-389l-134 -455h670q33 0 45 -11t12 -28q0 -16 -9 -35.5t-13 -19.5h-946q-47 0 -47 27z" />
<glyph unicode="&#xa4;" horiz-adv-x="1343" d="M111 485q0 12 5 28.5t13 25.5q10 10 39 10h154q4 51 15 111.5t30 125.5h-142q-45 0 -45 25q0 10 5 26.5t14 24.5q12 12 39 12h157q33 86 78 167t109 145q80 80 173 120t210 40q104 0 176.5 -32t122.5 -83q35 -35 53 -79t18 -79q0 -23 -10 -36t-22.5 -20t-23.5 -8t-11 3 q-29 117 -108 182.5t-206 65.5q-92 0 -166.5 -34t-136.5 -96q-53 -53 -91 -118.5t-64 -137.5h475q43 0 43 -24q0 -12 -4 -28.5t-15 -24.5q-8 -10 -37 -11h-491q-18 -66 -29.5 -127t-15.5 -110h479q43 0 43 -25q0 -10 -4 -26.5t-14 -24.5q-8 -10 -37 -10h-469 q2 -88 27.5 -161t70.5 -125t109.5 -80.5t144.5 -28.5q113 0 199 55t145 149q2 2 9.5 -1t16.5 -9t16 -15t7 -24q0 -45 -67 -112q-53 -53 -139.5 -92t-182.5 -39q-219 0 -336.5 129t-122.5 354h-161q-45 0 -45 22z" />
<glyph unicode="&#xa5;" horiz-adv-x="1202" d="M113 276q0 10 5 26.5t13 27.5q14 10 37 10h356l41 203h-348q-43 0 -43 22q0 12 4 28.5t15 24.5q8 10 36 11h326l-289 669q0 6 13.5 16.5t32 14.5t39 -4t32.5 -39l254 -620l534 667q2 2 19.5 -1t31 -16t10.5 -41t-42 -75l-477 -571h317q43 0 43 -23q0 -12 -4 -28.5 t-14 -24.5q-8 -10 -37 -10h-356l-44 -203h351q43 0 43 -25q0 -10 -4 -27.5t-15 -25.5q-8 -10 -37 -10h-356l-45 -211q-10 -47 -55 -47h-6q-43 0 -33 47l45 211h-348q-45 0 -45 24z" />
<glyph unicode="&#xa6;" horiz-adv-x="540" d="M45 -342l150 704q8 47 53 48h10q45 0 33 -54l-150 -704q-8 -47 -53 -47h-8q-47 0 -35 53zM242 580l149 704q8 47 53 47h11q45 0 32 -53l-149 -705q-8 -47 -53 -47h-9q-47 0 -34 54z" />
<glyph unicode="&#xa7;" horiz-adv-x="1095" d="M-12 -68q0 18 9 33t20.5 23t21.5 11t12 1q14 -47 45 -90t78 -75t113.5 -50t154.5 -18q150 0 229 64.5t79 162.5q0 45 -22.5 77.5t-61.5 58.5t-93.5 46.5t-115.5 42.5q-66 23 -125.5 48.5t-106.5 59t-74.5 79t-27.5 110.5q0 61 23.5 109.5t63.5 84t93 58.5t111 33 q-66 37 -107 89t-41 136q0 68 29 126t82 101t128 68t169 25q135 0 219 -39t127 -82q31 -31 46 -65t15 -52t-9 -31.5t-21.5 -21.5t-22.5 -10.5t-12 2.5q-33 90 -119 151.5t-231 61.5q-72 0 -127.5 -17.5t-93 -48.5t-58 -71t-20.5 -85q0 -47 22.5 -80.5t62.5 -60.5t93 -48.5 t117 -45.5q63 -25 121.5 -49.5t103.5 -57t72.5 -77t27.5 -105.5q0 -63 -23.5 -113.5t-63.5 -86t-92 -58.5t-110 -31q66 -35 109 -86t43 -133q0 -72 -27.5 -132t-81 -103t-130.5 -68t-175 -25q-141 0 -236.5 38t-144.5 87q-35 37 -51 70t-16 59zM221 537q0 -49 22.5 -84 t62.5 -61.5t95.5 -49.5t118.5 -43q23 -6 42.5 -14.5t39.5 -16.5q55 2 107.5 19.5t92.5 47.5t63.5 70.5t23.5 90.5q0 45 -22.5 78.5t-61.5 59t-92.5 46t-114.5 43.5q-25 8 -49.5 16.5t-46.5 18.5q-55 -6 -106.5 -23.5t-90.5 -45t-61.5 -65.5t-22.5 -87z" />
<glyph unicode="&#xa8;" horiz-adv-x="1093" d="M457 1176q0 37 19.5 64.5t58.5 27.5q78 0 77 -60q0 -37 -20.5 -64.5t-59.5 -27.5q-76 0 -75 60zM782 1176q0 37 19.5 64.5t60.5 27.5q76 0 76 -60q0 -37 -19.5 -64.5t-60.5 -27.5q-76 0 -76 60z" />
<glyph unicode="&#xa9;" horiz-adv-x="1603" d="M172 659q0 147 50 273.5t139.5 217.5t212 143.5t266.5 52.5q147 0 270 -50.5t211 -140.5t137 -215t49 -274q0 -147 -50 -273.5t-140 -217.5t-213 -143t-266 -52q-147 0 -269.5 50t-210.5 140t-137 215t-49 274zM254 662q0 -133 44 -244t122 -193t185.5 -127t236.5 -45 t235.5 45t184 126t120.5 192.5t43 247.5q0 131 -44 243.5t-122.5 193.5t-186 127t-234.5 46q-129 0 -235.5 -45t-184.5 -126t-121 -193.5t-43 -247.5zM502 659q0 78 26.5 144.5t73.5 116t111.5 77t140.5 27.5q80 0 138.5 -25.5t88.5 -58.5q23 -23 33 -44.5t10 -37.5 q0 -12 -7 -21.5t-16 -15.5t-17.5 -9t-10.5 -1q-25 55 -79 92t-140 37q-55 0 -102 -21.5t-83 -59.5t-55.5 -89t-19.5 -108q0 -61 19.5 -112.5t54 -88.5t84 -58.5t108.5 -21.5q94 0 147.5 43t73.5 96q2 2 10.5 0t17.5 -8t17.5 -15.5t8.5 -23.5t-12.5 -39.5t-41.5 -56.5 q-31 -31 -88 -55.5t-135 -24.5q-80 0 -145.5 26.5t-112.5 74.5t-72.5 115t-25.5 146z" />
<glyph unicode="&#xaa;" horiz-adv-x="1030" d="M176 870q0 88 32 174t89 154t136 109t173 41q113 0 187.5 -56.5t101.5 -138.5l18 90q10 51 27.5 71.5t48.5 20.5q14 0 24.5 -5t10.5 -7l-131 -612q-12 -63 5 -87t65 -26v-8t-5.5 -19.5t-17.5 -19.5t-37 -8q-61 0 -91 42t-11 128v2q-53 -88 -133 -133t-174 -45 q-66 0 -123.5 22.5t-100.5 65.5t-68.5 104.5t-25.5 140.5zM268 874q0 -121 71 -189.5t171 -68.5q63 0 118.5 24t98.5 63.5t72.5 91t42.5 106.5l28 141q-16 98 -82.5 162t-183.5 64q-78 0 -139.5 -35t-105.5 -90.5t-67.5 -126t-23.5 -142.5zM330 41q0 47 22 74q16 18 54 18 q70 0 69 -49q0 -53 -24 -74q-19 -20 -52 -20q-70 0 -69 51z" />
<glyph unicode="&#xab;" horiz-adv-x="1069" d="M133 514q0 6 50 52t149 118q92 68 143 97.5t80 29.5q16 0 25.5 -10t9.5 -27q0 -23 -45 -62.5t-150 -105.5q-45 -29 -85 -56.5t-87 -53.5q37 -31 69 -58.5t68 -62.5q41 -39 69 -64.5t43 -43t22.5 -30t7.5 -24.5q2 -14 -10.5 -24.5t-28.5 -10.5q-29 0 -71 33t-113 111 q-70 78 -108 130t-38 62zM518 498q0 8 59.5 59t157.5 123q94 68 149.5 100.5t84.5 32.5q16 0 25.5 -10t9.5 -27q0 -47 -216 -184q-47 -29 -90 -56.5t-90 -56.5q37 -29 63.5 -54.5t61.5 -55.5q37 -35 61.5 -58.5t39 -40t19.5 -28t5 -23.5q0 -14 -12.5 -24.5t-28.5 -10.5 q-29 0 -65.5 30t-102.5 101q-63 72 -97 122t-34 61z" />
<glyph unicode="&#xac;" horiz-adv-x="1228" d="M100 608v170h1012v-581h-184v411h-828z" />
<glyph unicode="&#xad;" horiz-adv-x="788" d="M123 463q0 2 2 6q0 4 4 20l10 52q0 4 1 6t1 4v2h535q-2 -2 -2 -6t-1 -8t-1 -11l-13 -53q-2 -4 -2 -10v-2h-534z" />
<glyph unicode="&#xae;" horiz-adv-x="1603" d="M172 659q0 147 50 273.5t139.5 217.5t212 143.5t266.5 52.5q147 0 270 -50.5t211 -140.5t137 -215t49 -274q0 -147 -50 -273.5t-140 -217.5t-213 -143t-266 -52q-147 0 -269.5 50t-210.5 140t-137 215t-49 274zM254 662q0 -133 44 -244t122 -193t185.5 -127t236.5 -45 t235.5 45t184 126t120.5 192.5t43 247.5q0 131 -44 243.5t-122.5 193.5t-186 127t-234.5 46q-129 0 -235.5 -45t-184.5 -126t-121 -193.5t-43 -247.5zM600 360v607q0 55 49 55h207q131 0 199.5 -53.5t68.5 -159.5q0 -55 -19.5 -94t-52 -63.5t-75.5 -36t-90 -11.5h-10 l239 -252q4 -6 -10 -22.5t-39 -16.5q-12 0 -29.5 7.5t-33.5 25.5l-224 250h-90v-240q0 -43 -39 -43h-12q-39 0 -39 47zM688 672h172q86 0 129 35.5t43 101.5q0 135 -178 135h-166v-272z" />
<glyph unicode="&#xaf;" horiz-adv-x="1093" d="M430 1188q0 10 5 26.5t14 26.5q6 8 17 10t23 2h435q49 0 49 -26q0 -10 -5 -27.5t-14 -28.5q-6 -6 -17 -8t-24 -2h-436q-47 0 -47 27z" />
<glyph unicode="&#xb0;" horiz-adv-x="823" d="M227 1016q0 68 26 129t71 106t103 72t126 27q111 0 183.5 -69t72.5 -185q0 -68 -25.5 -129.5t-70.5 -107.5t-103.5 -72.5t-126.5 -26.5q-111 0 -183.5 69.5t-72.5 186.5zM313 1022q0 -78 51.5 -130t133.5 -52q47 0 88 20.5t71.5 54t48 78.5t17.5 97q0 78 -51 130t-133 52 q-47 0 -88 -20.5t-72 -54.5t-48.5 -79t-17.5 -96z" />
<glyph unicode="&#xb1;" horiz-adv-x="1298" d="M184 287q0 12 5.5 29.5t13.5 25.5q8 12 39 12h745q47 0 47 -24q0 -12 -6 -29.5t-14 -26.5q-10 -12 -39 -12h-744q-47 0 -47 25zM336 858q0 10 5 26.5t13 24.5q8 12 37 13h301l66 299q12 49 43 49h14q16 0 28.5 -10.5t6.5 -38.5l-64 -299h293q45 0 45 -25q0 -10 -5 -26.5 t-13 -24.5q-12 -12 -37 -12h-301l-63 -302q-10 -47 -46 -47h-12q-16 0 -28.5 9.5t-6.5 37.5l64 302h-295q-45 0 -45 24z" />
<glyph unicode="&#xb2;" horiz-adv-x="757" d="M82 643q6 115 80 193q41 41 97 67.5t116 48.5q55 18 96 36t68.5 38.5t42 46t14.5 62.5q0 53 -44 87.5t-120 34.5q-74 0 -120 -37.5t-68 -93.5q0 -2 -9.5 -2t-20.5 5.5t-19.5 15.5t-8.5 29q0 16 12.5 41.5t34.5 48.5q35 33 87.5 54t121.5 21q115 0 180.5 -54t65.5 -146 q0 -53 -18.5 -91t-53 -67t-84 -51.5t-110.5 -42.5q-66 -23 -116 -45.5t-85 -57.5q-47 -47 -53 -120h385q53 0 53 -33q0 -16 -9 -31.5t-11 -15.5h-465q-16 0 -28.5 17t-10.5 42z" />
<glyph unicode="&#xb3;" horiz-adv-x="757" d="M68 739q0 23 9 35t21.5 18.5t22.5 7.5t10 -1q8 -63 59.5 -106.5t145.5 -43.5q92 0 141 48t49 114q0 53 -38.5 89t-116.5 36h-58q-37 0 -37 25q0 8 4.5 20t10.5 18q10 10 39 11h65q104 0 144.5 40t40.5 95q0 51 -43 84t-113 33q-68 0 -118 -31t-75 -74q-2 0 -10 1t-17 5 t-16.5 13.5t-7.5 23.5q0 29 31 57q35 37 90 59.5t129 22.5q51 0 95 -13t78 -37.5t53.5 -58.5t19.5 -73q0 -78 -46 -126t-134 -64q61 -18 93 -59.5t32 -100.5q0 -43 -16.5 -86t-51.5 -76t-89 -53.5t-130 -20.5q-74 0 -130.5 21.5t-88.5 52.5q-27 27 -37 52.5t-10 41.5z" />
<glyph unicode="&#xb4;" horiz-adv-x="1093" d="M543 1120q-2 2 17.5 24.5t55 54.5t85 71t106.5 76q35 27 55.5 33.5t38.5 6.5t30.5 -12t12.5 -28q0 -20 -19.5 -40t-66.5 -53q-61 -37 -117.5 -64.5t-99.5 -44t-69.5 -22.5t-28.5 -2z" />
<glyph unicode="&#xb5;" d="M-10 -340l278 1309h99l-115 -541q-37 -172 32.5 -264t209.5 -92q121 0 205.5 61.5t156.5 183.5l137 652h99l-164 -774q-18 -84 6 -111t82 -29v-12q2 -10 -4 -22.5t-20.5 -23.5t-43.5 -11q-70 0 -105.5 48t-15.5 150q-59 -98 -148 -151t-200 -53q-92 0 -162.5 30.5 t-113.5 87.5l-17 25l-98 -461q-16 -84 8.5 -111.5t87.5 -27.5v-10q2 -12 -4 -24.5t-21 -24t-44 -11.5q-76 0 -112 50.5t-13 156.5z" />
<glyph unicode="&#xb6;" horiz-adv-x="1222" d="M188 918q0 84 27 158.5t86 130t154.5 87t232.5 31.5h250q74 0 57 -72l-256 -1212q-12 -47 -51 -47h-14q-23 0 -32 14.5t-3 38.5l121 576h-135q-213 0 -325 73.5t-112 221.5zM848 47l262 1237q6 25 17.5 36t33.5 11h13q49 0 36 -53l-262 -1237q-12 -47 -51 -47h-14 q-23 0 -32 14.5t-3 38.5z" />
<glyph unicode="&#xb7;" horiz-adv-x="491" d="M172 485q0 57 27 84q18 20 57 21q76 0 76 -55q0 -57 -27 -82q-20 -21 -57 -21q-76 0 -76 53z" />
<glyph unicode="&#xb8;" horiz-adv-x="1093" d="M184 -418q59 90 107 162q20 29 38.5 58.5t35.5 52.5q18 27 32 51q2 2 15.5 0t30 -8.5t29.5 -17.5t13 -30q0 -35 -34 -71l-222 -228q-4 -6 -13 -4t-17.5 8.5t-13.5 13.5t-1 13z" />
<glyph unicode="&#xb9;" horiz-adv-x="757" d="M94 616q0 4 1 13.5t5 13.5q10 23 47 23h166l115 530q-23 -25 -55.5 -39t-65.5 -14q-43 0 -67.5 19.5t-26.5 49.5q0 31 17.5 46.5t19.5 13.5q10 -18 29.5 -31.5t54.5 -13.5q41 0 80 28.5t55 75.5h39q41 0 33 -47l-138 -618h156q18 0 29.5 -8.5t7.5 -24.5q0 -4 -2 -13.5 t-6 -13.5q-8 -23 -45 -22h-412q-43 0 -37 32z" />
<glyph unicode="&#xba;" horiz-adv-x="968" d="M184 891q0 92 33 175t91.5 144.5t138 98.5t171.5 37q78 0 143.5 -26t114 -73t75 -112.5t26.5 -143.5q0 -92 -34 -175t-92 -145.5t-138 -99t-172 -36.5q-78 0 -142.5 25.5t-112.5 72.5t-75 112.5t-27 145.5zM276 893q0 -59 20.5 -110.5t56.5 -88.5t85.5 -58.5t108.5 -21.5 q68 0 129 30t107 81t73 118.5t27 143.5q0 59 -20.5 110.5t-56.5 88.5t-86 58.5t-108 21.5q-70 0 -130 -30t-106 -81t-73 -118.5t-27 -143.5zM319 41q0 47 23 74q16 18 53 18q70 0 70 -49q0 -53 -25 -74q-18 -20 -51 -20q-70 0 -70 51z" />
<glyph unicode="&#xbb;" horiz-adv-x="1069" d="M70 213q0 49 215 184q47 31 90 58.5t90 56.5q-37 29 -63.5 53.5t-61.5 57.5q-37 35 -61.5 58.5t-39 39.5t-19.5 27.5t-5 23.5q0 14 12.5 24.5t28.5 10.5q29 0 65.5 -29.5t102.5 -101.5q63 -72 97 -123t34 -61q0 -6 -58.5 -58.5t-158.5 -124.5q-94 -66 -149.5 -98.5 t-84.5 -32.5q-16 0 -25 10.5t-9 24.5zM485 217q0 23 44 62.5t149 105.5q45 29 85 55.5t87 55.5q-35 29 -67.5 57.5t-69.5 62.5q-41 39 -69 65t-43 43t-22.5 29.5t-7.5 22.5q0 14 11.5 24.5t27.5 10.5q29 0 71 -31.5t114 -109.5q70 -78 107.5 -130.5t37.5 -62.5q0 -8 -50 -54 t-149 -118q-92 -66 -142 -95.5t-79 -29.5q-18 0 -26.5 10.5t-8.5 26.5z" />
<glyph unicode="&#xbc;" horiz-adv-x="1691" d="M94 616q0 4 1 13.5t5 13.5q10 23 47 23h166l115 530q-23 -25 -55.5 -39t-65.5 -14q-43 0 -67.5 19.5t-26.5 49.5q0 31 17.5 46.5t19.5 13.5q10 -18 29.5 -31.5t54.5 -13.5q41 0 80 28.5t55 75.5h39q41 0 33 -47l-138 -618h156q18 0 29.5 -8.5t7.5 -24.5q0 -4 -2 -13.5 t-6 -13.5q-8 -23 -45 -22h-412q-43 0 -37 32zM195 6q4 23 14 38t41 44l44 44t88 85t114.5 109.5t125 119t118 110.5t91.5 89q27 27 72 70t98.5 94t113 108.5t116.5 112.5q135 129 291 277q12 -2 20 -11q8 -6 14.5 -15t2.5 -24q-4 -16 -15.5 -33.5t-40.5 -45.5 q-8 -10 -45 -45t-89 -85.5t-115.5 -110.5t-126 -119.5t-117 -113t-90.5 -88.5q-29 -27 -72 -69.5t-96.5 -94t-112.5 -107.5t-117 -112q-135 -129 -289 -274q-2 -2 -9 0t-14 8t-12 16.5t-3 22.5zM1018 266q0 18 9 34.5t30 41.5l360 365q23 25 40.5 34t49.5 9q78 0 64 -70 l-84 -393h92q39 0 39 -25q0 -8 -4 -22.5t-12 -22.5t-35 -8h-97l-36 -168q-4 -27 -15.5 -36t-27.5 -9h-13q-18 0 -28.5 10t-3.5 37l34 166h-333q-4 0 -16.5 16.5t-12.5 40.5zM1104 287h299l80 387z" />
<glyph unicode="&#xbd;" horiz-adv-x="1691" d="M94 616q0 4 1 13.5t5 13.5q10 23 47 23h166l115 530q-23 -25 -55.5 -39t-65.5 -14q-43 0 -67.5 19.5t-26.5 49.5q0 31 17.5 46.5t19.5 13.5q10 -18 29.5 -31.5t54.5 -13.5q41 0 80 28.5t55 75.5h39q41 0 33 -47l-138 -618h156q18 0 29.5 -8.5t7.5 -24.5q0 -4 -2 -13.5 t-6 -13.5q-8 -23 -45 -22h-412q-43 0 -37 32zM154 6q4 23 14 38t41 44l44 44t88 85t114.5 109.5t125 119t118 110.5t92.5 89q27 27 71.5 70t98 94t113 108.5t116.5 112.5q135 129 291 277q12 -2 20 -11q8 -6 14.5 -15t2.5 -24q-4 -16 -15.5 -33.5t-40.5 -45.5 q-8 -10 -45 -45t-89 -85.5t-115.5 -110.5t-126 -119.5t-117 -113t-90.5 -88.5q-29 -27 -72 -69.5t-96.5 -94t-112.5 -107.5t-117 -112q-134 -129 -288 -274q-2 -2 -9.5 0t-14.5 8t-12 16.5t-3 22.5zM1016 59q6 115 80 193q41 41 97 67.5t116 49.5q55 18 96 35.5t68.5 38 t42 46t14.5 62.5q0 53 -44 88t-120 35q-74 0 -120 -38t-68 -93q0 -2 -9.5 -2t-20.5 5t-19.5 15t-8.5 29q0 16 12.5 41.5t34.5 48.5q35 33 87.5 54.5t121.5 21.5q115 0 180.5 -54.5t65.5 -146.5q0 -53 -18.5 -91t-53 -66.5t-84 -51t-110.5 -43.5q-66 -23 -116 -45t-85 -57 q-47 -47 -53 -121h385q53 0 53 -33q0 -16 -9 -31.5t-11 -15.5h-465q-16 0 -28.5 17.5t-10.5 41.5z" />
<glyph unicode="&#xbe;" horiz-adv-x="1691" d="M68 739q0 23 9 35t21.5 18.5t22.5 7.5t10 -1q8 -63 59.5 -106.5t145.5 -43.5q92 0 141 48t49 114q0 53 -38.5 89t-116.5 36h-58q-37 0 -37 25q0 8 4.5 20t10.5 18q10 10 39 11h65q104 0 144.5 40t40.5 95q0 51 -43 84t-113 33q-68 0 -118 -31t-75 -74q-2 0 -10 1t-17 5 t-16.5 13.5t-7.5 23.5q0 29 31 57q35 37 90 59.5t129 22.5q51 0 95 -13t78 -37.5t53.5 -58.5t19.5 -73q0 -78 -46 -126t-134 -64q61 -18 93 -59.5t32 -100.5q0 -43 -16.5 -86t-51.5 -76t-89 -53.5t-130 -20.5q-74 0 -130.5 21.5t-88.5 52.5q-27 27 -37 52.5t-10 41.5zM195 6 q4 23 14 38t41 44l44 44t88 85t114.5 109.5t125 119t118 110.5t91.5 89q27 27 72 70t98.5 94t113 108.5t116.5 112.5q135 129 291 277q12 -2 20 -11q8 -6 14.5 -15t2.5 -24q-4 -16 -15.5 -33.5t-40.5 -45.5q-8 -10 -45 -45t-89 -85.5t-115.5 -110.5t-126 -119.5t-117 -113 t-90.5 -88.5q-29 -27 -72 -69.5t-96.5 -94t-112.5 -107.5t-117 -112q-135 -129 -289 -274q-2 -2 -9 0t-14 8t-12 16.5t-3 22.5zM1018 266q0 18 9 34.5t30 41.5l360 365q23 25 40.5 34t49.5 9q78 0 64 -70l-84 -393h92q39 0 39 -25q0 -8 -4 -22.5t-12 -22.5t-35 -8h-97 l-36 -168q-4 -27 -15.5 -36t-27.5 -9h-13q-18 0 -28.5 10t-3.5 37l34 166h-333q-4 0 -16.5 16.5t-12.5 40.5zM1104 287h299l80 387z" />
<glyph unicode="&#xbf;" horiz-adv-x="1007" d="M55 322q0 82 28 142t72 103t100 72t114 49q70 25 116.5 44.5t74.5 39t39 39.5t11 43q0 61 -67 74q-2 0 -1 8t6 16.5t16 15.5t30 7q47 0 80 -33t33 -86q0 -80 -62.5 -133t-212.5 -105q-66 -23 -117 -49t-85.5 -62t-54 -81t-19.5 -104q0 -111 77.5 -182.5t217.5 -71.5 q127 0 214 72.5t126 183.5q2 2 12 0t22.5 -8.5t21.5 -17.5t9 -30q0 -31 -23.5 -76t-66.5 -88q-55 -55 -135.5 -92t-186.5 -37q-90 0 -161.5 27t-121.5 73t-78 109.5t-28 137.5zM631 1229q0 57 26 82q20 20 58 20q78 0 78 -53t-27 -84q-20 -20 -57 -20q-78 0 -78 55z" />
<glyph unicode="&#xc0;" horiz-adv-x="1292" d="M-49 0l780 1300q10 18 24.5 26.5t41.5 8.5q39 0 53 -12t18 -35l265 -1288h-107l-90 459h-596l-270 -459h-119zM391 549h527l-132 670zM553 1718q0 18 14.5 30.5t33.5 12.5q16 0 36.5 -11.5t51.5 -39.5q49 -41 87 -82t64.5 -74t38.5 -54.5t10 -23.5q-4 -4 -27.5 3 t-61.5 25.5t-85 48.5t-96 71q-41 35 -53.5 54t-12.5 40z" />
<glyph unicode="&#xc1;" horiz-adv-x="1292" d="M-49 0l780 1300q10 18 24.5 26.5t41.5 8.5q39 0 53 -12t18 -35l265 -1288h-107l-90 459h-596l-270 -459h-119zM391 549h527l-132 670zM729 1476q-2 2 17.5 24.5t55 54.5t85 71t106.5 76q35 27 55.5 33.5t38.5 6.5t30.5 -12t12.5 -28q0 -20 -19.5 -40t-66.5 -53 q-61 -37 -117.5 -64.5t-99.5 -44t-69.5 -22.5t-28.5 -2z" />
<glyph unicode="&#xc2;" horiz-adv-x="1292" d="M-49 0l780 1300q10 18 24.5 26.5t41.5 8.5q39 0 53 -12t18 -35l265 -1288h-107l-90 459h-596l-270 -459h-119zM391 549h527l-132 670zM567 1497q0 25 31 62.5t105 103.5q72 66 118.5 99.5t51.5 33.5q4 0 35.5 -34t72.5 -95q47 -70 61.5 -102.5t14.5 -49.5 q0 -23 -10.5 -33t-24.5 -10q-20 0 -40.5 25.5t-61.5 101.5q-16 29 -29.5 53.5t-30.5 55.5l-106 -111q-66 -70 -102 -97.5t-56 -27.5q-29 0 -29 25z" />
<glyph unicode="&#xc3;" horiz-adv-x="1292" d="M-49 0l780 1300q10 18 24.5 26.5t41.5 8.5q39 0 53 -12t18 -35l265 -1288h-107l-90 459h-596l-270 -459h-119zM391 549h527l-132 670zM543 1495q16 92 60 147t116 55q51 0 85 -26.5t62 -59.5q27 -31 45.5 -45t42.5 -14q29 0 47.5 22.5t32.5 63.5q8 23 18.5 35t28.5 12 q16 0 35 -14q-16 -92 -59 -146.5t-115 -54.5q-51 0 -85 24.5t-62 59.5q-29 31 -47.5 45t-40.5 14q-31 0 -49.5 -22.5t-30.5 -63.5q-16 -47 -49 -47q-16 0 -35 15z" />
<glyph unicode="&#xc4;" horiz-adv-x="1292" d="M-49 0l780 1300q10 18 24.5 26.5t41.5 8.5q39 0 53 -12t18 -35l265 -1288h-107l-90 459h-596l-270 -459h-119zM391 549h527l-132 670zM584 1532q0 37 19.5 64.5t58.5 27.5q78 0 77 -60q0 -37 -20.5 -64.5t-59.5 -27.5q-76 0 -75 60zM909 1532q0 37 19.5 64.5t60.5 27.5 q76 0 76 -60q0 -37 -19.5 -64.5t-60.5 -27.5q-76 0 -76 60z" />
<glyph unicode="&#xc5;" horiz-adv-x="1292" d="M-2 45q-2 27 29 78l675 1128l17 23q-55 23 -84 70t-29 102q0 51 18.5 97t52.5 81t78 56.5t97 21.5q98 0 152.5 -57.5t54.5 -135.5q0 -86 -53.5 -155.5t-133.5 -89.5q2 -4 4.5 -12.5t2.5 -14.5l249 -1210q0 -6 -14 -16.5t-33.5 -13.5t-38 8t-24.5 48l-82 408h-596 l-272 -465h-18q-19 0 -34.5 11t-17.5 38zM393 551h527l-134 668zM684 1452q0 -49 35 -89t96 -40q37 0 66.5 15.5t51 40t34 57t12.5 67.5q0 49 -34 89t-95 40q-37 0 -67.5 -15t-52 -40t-34 -57.5t-12.5 -67.5z" />
<glyph unicode="&#xc6;" horiz-adv-x="1798" d="M-4 45q-2 27 29 78l688 1147q16 27 35.5 41t54.5 14h999v-6q0 -2 -4 -19q-2 -12 -6 -29.5t-4 -27.5q-2 -6 -2 -8t-2 -2h-903l104 -508h555l-6 -25l-10 -55q-2 -4 -2 -8q0 -2 -2 -2h-516l110 -541h467q-2 -2 -2 -6t-1 -9t-1 -11q-2 -12 -6 -30t-6 -28q0 -4 -1 -5t-1 -3v-2 h-465q-39 0 -57.5 14.5t-26.5 53.5l-78 391h-596l-272 -463h-20.5t-34 11t-17.5 38zM391 549h527l-132 670z" />
<glyph unicode="&#xc7;" horiz-adv-x="1394" d="M162 545q0 162 55 307t152.5 255t230.5 174.5t289 64.5q145 0 238.5 -43t148.5 -101q47 -47 67.5 -96t20.5 -80q0 -20 -9 -32.5t-20.5 -19.5t-23 -9t-15.5 2q-37 135 -139 212.5t-274 77.5q-133 0 -245 -56t-194 -151.5t-128 -222.5t-46 -268q0 -113 35 -204t97.5 -154.5 t150.5 -97t195 -33.5q82 0 150.5 19.5t123.5 53t95 75.5t69 89q2 2 10 0t17.5 -8t16.5 -17.5t7 -27.5q0 -18 -17.5 -51t-56.5 -74q-61 -59 -170.5 -104t-244.5 -45q-133 0 -241 38.5t-184.5 112.5t-118.5 178.5t-42 235.5zM459 -418q59 90 106 162q20 29 39 58.5t35 52.5 q18 27 33 51q2 2 15 0t29.5 -8.5t30 -17.5t13.5 -30q0 -35 -35 -71l-221 -228q-4 -6 -13.5 -4t-17.5 8.5t-13 13.5t-1 13z" />
<glyph unicode="&#xc8;" horiz-adv-x="1218" d="M92 0l268 1262q14 63 74 63h826l-19 -92h-784l-109 -508h617l-19 -90h-616l-115 -541h805l-21 -94h-907zM612 1718q0 18 14.5 30.5t33.5 12.5q16 0 36.5 -11.5t51.5 -39.5q49 -41 87 -82t64.5 -74t38.5 -54.5t10 -23.5q-4 -4 -27.5 3t-61.5 25.5t-85 48.5t-96 71 q-41 35 -53.5 54t-12.5 40z" />
<glyph unicode="&#xc9;" horiz-adv-x="1218" d="M92 0l268 1262q14 63 74 63h826l-19 -92h-784l-109 -508h617l-19 -90h-616l-115 -541h805l-21 -94h-907zM727 1476q-2 2 17.5 24.5t55 54.5t85 71t106.5 76q35 27 55.5 33.5t38.5 6.5t30.5 -12t12.5 -28q0 -20 -19.5 -40t-66.5 -53q-61 -37 -117.5 -64.5t-99.5 -44 t-69.5 -22.5t-28.5 -2z" />
<glyph unicode="&#xca;" horiz-adv-x="1218" d="M92 0l268 1262q14 63 74 63h826l-19 -92h-784l-109 -508h617l-19 -90h-616l-115 -541h805l-21 -94h-907zM606 1497q0 25 31 62.5t105 103.5q72 66 118.5 99.5t51.5 33.5q4 0 35.5 -34t72.5 -95q47 -70 61.5 -102.5t14.5 -49.5q0 -23 -10.5 -33t-24.5 -10 q-20 0 -40.5 25.5t-61.5 101.5q-16 29 -29.5 53.5t-30.5 55.5l-106 -111q-66 -70 -102 -97.5t-56 -27.5q-29 0 -29 25z" />
<glyph unicode="&#xcb;" horiz-adv-x="1218" d="M92 0l268 1262q14 63 74 63h826l-19 -92h-784l-109 -508h617l-19 -90h-616l-115 -541h805l-21 -94h-907zM613 1532q0 37 19.5 64.5t58.5 27.5q78 0 77 -60q0 -37 -20.5 -64.5t-59.5 -27.5q-76 0 -75 60zM938 1532q0 37 19.5 64.5t60.5 27.5q76 0 76 -60 q0 -37 -19.5 -64.5t-60.5 -27.5q-76 0 -76 60z" />
<glyph unicode="&#xcc;" horiz-adv-x="534" d="M115 0l274 1286q8 45 49 45h15q23 0 32 -15.5t4 -39.5l-272 -1276h-102zM208 1718q0 18 14.5 30.5t33.5 12.5q16 0 36.5 -11.5t51.5 -39.5q49 -41 87 -82t64.5 -74t38.5 -54.5t10 -23.5q-4 -4 -27.5 3t-61.5 25.5t-85 48.5t-96 71q-41 35 -53.5 54t-12.5 40z" />
<glyph unicode="&#xcd;" horiz-adv-x="534" d="M115 0l274 1286q8 45 49 45h15q23 0 32 -15.5t4 -39.5l-272 -1276h-102zM393 1476q-2 2 17.5 24.5t55 54.5t85 71t106.5 76q35 27 55.5 33.5t38.5 6.5t30.5 -12t12.5 -28q0 -20 -19.5 -40t-66.5 -53q-61 -37 -117.5 -64.5t-99.5 -44t-69.5 -22.5t-28.5 -2z" />
<glyph unicode="&#xce;" horiz-adv-x="534" d="M115 0l274 1286q8 45 49 45h15q23 0 32 -15.5t4 -39.5l-272 -1276h-102zM231 1497q0 25 31 62.5t105 103.5q72 66 118.5 99.5t51.5 33.5q4 0 35.5 -34t72.5 -95q47 -70 61.5 -102.5t14.5 -49.5q0 -23 -10.5 -33t-24.5 -10q-20 0 -40.5 25.5t-61.5 101.5 q-16 29 -29.5 53.5t-30.5 55.5l-106 -111q-66 -70 -102 -97.5t-56 -27.5q-29 0 -29 25z" />
<glyph unicode="&#xcf;" horiz-adv-x="534" d="M115 0l274 1286q8 45 49 45h15q23 0 32 -15.5t4 -39.5l-272 -1276h-102zM246 1532q0 37 19.5 64.5t58.5 27.5q78 0 77 -60q0 -37 -20.5 -64.5t-59.5 -27.5q-76 0 -75 60zM571 1532q0 37 19.5 64.5t60.5 27.5q76 0 76 -60q0 -37 -19.5 -64.5t-60.5 -27.5q-76 0 -76 60z " />
<glyph unicode="&#xd0;" horiz-adv-x="1486" d="M115 643q0 10 5 27.5t13 25.5q10 10 39 11h160l119 555q10 63 73 63h219q311 0 482.5 -145.5t171.5 -409.5q0 -162 -52.5 -302t-155 -244.5t-255 -164t-354.5 -59.5h-324q-74 0 -57 72l114 546h-153q-45 0 -45 25zM303 90h293q174 0 304 52.5t216 143.5t129 211.5 t43 258.5q0 225 -142 352t-409 127h-190l-113 -528h459q45 0 45 -25q0 -10 -5 -26.5t-13 -26.5q-14 -10 -37 -11h-467z" />
<glyph unicode="&#xd1;" horiz-adv-x="1441" d="M92 0l268 1262q16 70 72 69h27q25 0 38 -14t27 -43l555 -1124l252 1175h94l-270 -1270q-6 -29 -22.5 -45t-42.5 -16h-13q-23 0 -36 14.5t-29 42.5l-568 1153l-258 -1204h-94zM670 1495q16 92 60 147t116 55q51 0 85 -26.5t62 -59.5q27 -31 45.5 -45t42.5 -14 q29 0 47.5 22.5t32.5 63.5q8 23 18.5 35t28.5 12q16 0 35 -14q-16 -92 -59 -146.5t-115 -54.5q-51 0 -85 24.5t-62 59.5q-29 31 -47.5 45t-40.5 14q-31 0 -49.5 -22.5t-30.5 -63.5q-16 -47 -49 -47q-16 0 -35 15z" />
<glyph unicode="&#xd2;" horiz-adv-x="1558" d="M162 551q0 172 60.5 317.5t161.5 252t233.5 166t273.5 59.5q135 0 242.5 -43t182.5 -120t116 -181.5t41 -227.5q0 -172 -61.5 -317.5t-163 -251t-233 -165.5t-272.5 -60q-133 0 -240.5 43t-183 119.5t-116.5 181t-41 227.5zM270 559q0 -102 33 -192.5t94.5 -156 t151.5 -103t205 -37.5q117 0 227.5 52t195.5 145t136 221t51 280q0 102 -33 191.5t-94 156t-151.5 104t-204.5 37.5q-117 0 -226.5 -52t-195.5 -146t-137.5 -222t-51.5 -278zM706 1718q0 18 14.5 30.5t33.5 12.5q16 0 36.5 -11.5t51.5 -39.5q49 -41 87 -82t64.5 -74 t38.5 -54.5t10 -23.5q-4 -4 -27.5 3t-61.5 25.5t-85 48.5t-96 71q-41 35 -53.5 54t-12.5 40z" />
<glyph unicode="&#xd3;" horiz-adv-x="1558" d="M162 551q0 172 60.5 317.5t161.5 252t233.5 166t273.5 59.5q135 0 242.5 -43t182.5 -120t116 -181.5t41 -227.5q0 -172 -61.5 -317.5t-163 -251t-233 -165.5t-272.5 -60q-133 0 -240.5 43t-183 119.5t-116.5 181t-41 227.5zM270 559q0 -102 33 -192.5t94.5 -156 t151.5 -103t205 -37.5q117 0 227.5 52t195.5 145t136 221t51 280q0 102 -33 191.5t-94 156t-151.5 104t-204.5 37.5q-117 0 -226.5 -52t-195.5 -146t-137.5 -222t-51.5 -278zM793 1476q-2 2 17.5 24.5t55 54.5t85 71t106.5 76q35 27 55.5 33.5t38.5 6.5t30.5 -12t12.5 -28 q0 -20 -19.5 -40t-66.5 -53q-61 -37 -117.5 -64.5t-99.5 -44t-69.5 -22.5t-28.5 -2z" />
<glyph unicode="&#xd4;" horiz-adv-x="1558" d="M162 551q0 172 60.5 317.5t161.5 252t233.5 166t273.5 59.5q135 0 242.5 -43t182.5 -120t116 -181.5t41 -227.5q0 -172 -61.5 -317.5t-163 -251t-233 -165.5t-272.5 -60q-133 0 -240.5 43t-183 119.5t-116.5 181t-41 227.5zM270 559q0 -102 33 -192.5t94.5 -156 t151.5 -103t205 -37.5q117 0 227.5 52t195.5 145t136 221t51 280q0 102 -33 191.5t-94 156t-151.5 104t-204.5 37.5q-117 0 -226.5 -52t-195.5 -146t-137.5 -222t-51.5 -278zM702 1497q0 25 31 62.5t105 103.5q72 66 118.5 99.5t51.5 33.5q4 0 35.5 -34t72.5 -95 q47 -70 61.5 -102.5t14.5 -49.5q0 -23 -10.5 -33t-24.5 -10q-20 0 -40.5 25.5t-61.5 101.5q-16 29 -29.5 53.5t-30.5 55.5l-106 -111q-66 -70 -102 -97.5t-56 -27.5q-29 0 -29 25z" />
<glyph unicode="&#xd5;" horiz-adv-x="1558" d="M162 551q0 172 60.5 317.5t161.5 252t233.5 166t273.5 59.5q135 0 242.5 -43t182.5 -120t116 -181.5t41 -227.5q0 -172 -61.5 -317.5t-163 -251t-233 -165.5t-272.5 -60q-133 0 -240.5 43t-183 119.5t-116.5 181t-41 227.5zM270 559q0 -102 33 -192.5t94.5 -156 t151.5 -103t205 -37.5q117 0 227.5 52t195.5 145t136 221t51 280q0 102 -33 191.5t-94 156t-151.5 104t-204.5 37.5q-117 0 -226.5 -52t-195.5 -146t-137.5 -222t-51.5 -278zM645 1495q16 92 60 147t116 55q51 0 85 -26.5t62 -59.5q27 -31 45.5 -45t42.5 -14q29 0 47.5 22.5 t32.5 63.5q8 23 18.5 35t28.5 12q16 0 35 -14q-16 -92 -59 -146.5t-115 -54.5q-51 0 -85 24.5t-62 59.5q-29 31 -47.5 45t-40.5 14q-31 0 -49.5 -22.5t-30.5 -63.5q-16 -47 -49 -47q-16 0 -35 15z" />
<glyph unicode="&#xd6;" horiz-adv-x="1558" d="M162 551q0 172 60.5 317.5t161.5 252t233.5 166t273.5 59.5q135 0 242.5 -43t182.5 -120t116 -181.5t41 -227.5q0 -172 -61.5 -317.5t-163 -251t-233 -165.5t-272.5 -60q-133 0 -240.5 43t-183 119.5t-116.5 181t-41 227.5zM270 559q0 -102 33 -192.5t94.5 -156 t151.5 -103t205 -37.5q117 0 227.5 52t195.5 145t136 221t51 280q0 102 -33 191.5t-94 156t-151.5 104t-204.5 37.5q-117 0 -226.5 -52t-195.5 -146t-137.5 -222t-51.5 -278zM715 1532q0 37 19.5 64.5t58.5 27.5q78 0 77 -60q0 -37 -20.5 -64.5t-59.5 -27.5q-76 0 -75 60z M1040 1532q0 37 19.5 64.5t60.5 27.5q76 0 76 -60q0 -37 -19.5 -64.5t-60.5 -27.5q-76 0 -76 60z" />
<glyph unicode="&#xd7;" horiz-adv-x="1173" d="M194 236.5q1 19.5 19 35.5l330 283l-209 283q-14 20 -11 38.5t16 28.5t31.5 8t35.5 -22l206 -279l324 277q18 18 37.5 15t30 -16.5t10.5 -32.5t-19 -36l-327 -280l211 -285q14 -20 11 -38.5t-16.5 -29t-33 -8.5t-33.5 23l-209 280l-326 -278q-18 -18 -37.5 -15.5 t-30.5 16t-10 33z" />
<glyph unicode="&#xd8;" horiz-adv-x="1558" d="M39 -10q0 39 45 82l174 155q-47 70 -71.5 152t-24.5 172q0 172 60.5 317.5t161.5 252t233.5 166t273.5 59.5q131 0 236.5 -43t181.5 -119l207 188q4 4 23.5 -12.5t19.5 -38.5q0 -23 -10.5 -40t-35.5 -40l-143 -131q49 -70 76 -155t27 -181q0 -172 -61.5 -317.5t-163 -251 t-232.5 -165.5t-273 -60q-135 0 -243.5 47t-186.5 127l-233 -213q-4 -4 -22.5 11t-18.5 38zM270 559q0 -76 17.5 -141.5t50.5 -122.5l897 823q-59 66 -148.5 102.5t-205.5 36.5q-117 0 -226.5 -52t-195.5 -146t-137.5 -222t-51.5 -278zM389 219q59 -70 151.5 -109.5 t213.5 -39.5q117 0 227.5 52t195.5 145t136 221t51 280q0 160 -76 276z" />
<glyph unicode="&#xd9;" horiz-adv-x="1361" d="M182.5 312.5q-18.5 111.5 12.5 260.5l151 711q6 25 17.5 36t33.5 11h15q47 0 34 -53l-149 -713q-53 -252 44 -372.5t318 -120.5q172 0 278.5 105.5t149.5 311.5l170 795q8 47 52 47h12q47 0 35 -53l-170 -809q-53 -242 -185.5 -365.5t-347.5 -123.5q-131 0 -231 36.5 t-160.5 110.5t-79 185.5zM649 1698q0 18 14.5 30.5t33.5 12.5q16 0 36.5 -11.5t51.5 -39.5q49 -41 87 -82t64.5 -74t38.5 -54.5t10 -23.5q-4 -4 -27.5 3t-61.5 25.5t-85 48.5t-96 71q-41 35 -53.5 54t-12.5 40z" />
<glyph unicode="&#xda;" horiz-adv-x="1361" d="M182.5 312.5q-18.5 111.5 12.5 260.5l151 711q6 25 17.5 36t33.5 11h15q47 0 34 -53l-149 -713q-53 -252 44 -372.5t318 -120.5q172 0 278.5 105.5t149.5 311.5l170 795q8 47 52 47h12q47 0 35 -53l-170 -809q-53 -242 -185.5 -365.5t-347.5 -123.5q-131 0 -231 36.5 t-160.5 110.5t-79 185.5zM742 1456q-2 2 17.5 24.5t55 54.5t85 71t106.5 76q35 27 55.5 33.5t38.5 6.5t30.5 -12t12.5 -28q0 -20 -19.5 -40t-66.5 -53q-61 -37 -117.5 -64.5t-99.5 -44t-69.5 -22.5t-28.5 -2z" />
<glyph unicode="&#xdb;" horiz-adv-x="1361" d="M182.5 312.5q-18.5 111.5 12.5 260.5l151 711q6 25 17.5 36t33.5 11h15q47 0 34 -53l-149 -713q-53 -252 44 -372.5t318 -120.5q172 0 278.5 105.5t149.5 311.5l170 795q8 47 52 47h12q47 0 35 -53l-170 -809q-53 -242 -185.5 -365.5t-347.5 -123.5q-131 0 -231 36.5 t-160.5 110.5t-79 185.5zM639 1477q0 25 31 62.5t105 103.5q72 66 118.5 99.5t51.5 33.5q4 0 35.5 -34t72.5 -95q47 -70 61.5 -102.5t14.5 -49.5q0 -23 -10.5 -33t-24.5 -10q-20 0 -40.5 25.5t-61.5 101.5q-16 29 -29.5 53.5t-30.5 55.5l-106 -111q-66 -70 -102 -97.5 t-56 -27.5q-29 0 -29 25z" />
<glyph unicode="&#xdc;" horiz-adv-x="1361" d="M182.5 312.5q-18.5 111.5 12.5 260.5l151 711q6 25 17.5 36t33.5 11h15q47 0 34 -53l-149 -713q-53 -252 44 -372.5t318 -120.5q172 0 278.5 105.5t149.5 311.5l170 795q8 47 52 47h12q47 0 35 -53l-170 -809q-53 -242 -185.5 -365.5t-347.5 -123.5q-131 0 -231 36.5 t-160.5 110.5t-79 185.5zM654 1512q0 37 19.5 64.5t58.5 27.5q78 0 77 -60q0 -37 -20.5 -64.5t-59.5 -27.5q-76 0 -75 60zM979 1512q0 37 19.5 64.5t60.5 27.5q76 0 76 -60q0 -37 -19.5 -64.5t-60.5 -27.5q-76 0 -76 60z" />
<glyph unicode="&#xdd;" d="M221 1325h111l289 -666l575 674q2 2 19.5 -2t31 -17.5t10 -41t-42.5 -72.5l-559 -639l-118 -561h-103l121 571zM672 1450q-2 2 17.5 24.5t55 54.5t85 71t106.5 76q35 27 55.5 33.5t38.5 6.5t30.5 -12t12.5 -28q0 -20 -19.5 -40t-66.5 -53q-61 -37 -117.5 -64.5t-99.5 -44 t-69.5 -22.5t-28.5 -2z" />
<glyph unicode="&#xde;" horiz-adv-x="1198" d="M102 47l263 1237q10 47 51 47h14q47 0 37 -53l-47 -211h260q217 0 328.5 -89t111.5 -251q0 -209 -133 -332t-391 -123h-344l-49 -231q-8 -47 -51 -47h-13q-49 0 -37 53zM270 362h344q199 0 300.5 95.5t101.5 255.5q0 127 -84 194.5t-258 67.5h-273z" />
<glyph unicode="&#xdf;" horiz-adv-x="1122" d="M74 0l205 956q49 231 162.5 339t267.5 108q170 0 265 -82t95 -217q0 -154 -100.5 -245t-317.5 -101q154 -41 246 -132t92 -223q0 -88 -29.5 -165.5t-83 -135t-126 -90t-158.5 -32.5t-144.5 20t-93.5 55q-27 29 -36 51.5t-9 38.5t7.5 29.5t16.5 21t17 10.5t10 1 q25 -53 78.5 -97t159.5 -44q63 0 116.5 24.5t92.5 69.5t61.5 104.5t22.5 130.5q0 94 -63.5 169t-211.5 122q-41 14 -56 30.5t-15 37.5q0 35 14 55t25 27q199 0 293 62.5t94 199.5q0 98 -72 157.5t-192 59.5q-121 0 -207 -87t-127 -280l-201 -948h-98z" />
<glyph unicode="&#xe0;" horiz-adv-x="1228" d="M111 395q0 113 39.5 219.5t111.5 189.5t171 134t216 51q72 0 131.5 -19.5t106.5 -52t79.5 -75.5t49.5 -92l47 219h96l-166 -774q-16 -84 8.5 -111t81.5 -29l1 -11t-5 -23.5t-20 -23.5t-43 -11q-72 0 -108 51t-13 156v4q-68 -106 -168 -161.5t-215 -55.5 q-84 0 -156.5 27.5t-127 80.5t-86 130t-31.5 177zM211 397q0 -78 24.5 -139t66.5 -104t99 -65.5t123 -22.5q80 0 150.5 30.5t126 81.5t94.5 117.5t53 138.5l39 176q-27 127 -111.5 210t-232.5 83q-98 0 -178 -44t-136.5 -115.5t-87 -163t-30.5 -183.5zM491 1362 q0 18 14.5 30.5t33.5 12.5q16 0 36.5 -11.5t51.5 -39.5q49 -41 87 -82t64.5 -74t38.5 -54.5t10 -23.5q-4 -4 -27.5 3t-61.5 25.5t-85 48.5t-96 71q-41 35 -53.5 54t-12.5 40z" />
<glyph unicode="&#xe1;" horiz-adv-x="1228" d="M111 395q0 113 39.5 219.5t111.5 189.5t171 134t216 51q72 0 131.5 -19.5t106.5 -52t79.5 -75.5t49.5 -92l47 219h96l-166 -774q-16 -84 8.5 -111t81.5 -29l1 -11t-5 -23.5t-20 -23.5t-43 -11q-72 0 -108 51t-13 156v4q-68 -106 -168 -161.5t-215 -55.5 q-84 0 -156.5 27.5t-127 80.5t-86 130t-31.5 177zM211 397q0 -78 24.5 -139t66.5 -104t99 -65.5t123 -22.5q80 0 150.5 30.5t126 81.5t94.5 117.5t53 138.5l39 176q-27 127 -111.5 210t-232.5 83q-98 0 -178 -44t-136.5 -115.5t-87 -163t-30.5 -183.5zM621 1120 q-2 2 17.5 24.5t55 54.5t85 71t106.5 76q35 27 55.5 33.5t38.5 6.5t30.5 -12t12.5 -28q0 -20 -19.5 -40t-66.5 -53q-61 -37 -117.5 -64.5t-99.5 -44t-69.5 -22.5t-28.5 -2z" />
<glyph unicode="&#xe2;" horiz-adv-x="1228" d="M111 395q0 113 39.5 219.5t111.5 189.5t171 134t216 51q72 0 131.5 -19.5t106.5 -52t79.5 -75.5t49.5 -92l47 219h96l-166 -774q-16 -84 8.5 -111t81.5 -29l1 -11t-5 -23.5t-20 -23.5t-43 -11q-72 0 -108 51t-13 156v4q-68 -106 -168 -161.5t-215 -55.5 q-84 0 -156.5 27.5t-127 80.5t-86 130t-31.5 177zM211 397q0 -78 24.5 -139t66.5 -104t99 -65.5t123 -22.5q80 0 150.5 30.5t126 81.5t94.5 117.5t53 138.5l39 176q-27 127 -111.5 210t-232.5 83q-98 0 -178 -44t-136.5 -115.5t-87 -163t-30.5 -183.5zM487 1141 q0 25 31 62.5t105 103.5q72 66 118.5 99.5t51.5 33.5q4 0 35.5 -34t72.5 -95q47 -70 61.5 -102.5t14.5 -49.5q0 -23 -10.5 -33t-24.5 -10q-20 0 -40.5 25.5t-61.5 101.5q-16 29 -29.5 53.5t-30.5 55.5l-106 -111q-66 -70 -102 -97.5t-56 -27.5q-29 0 -29 25z" />
<glyph unicode="&#xe3;" horiz-adv-x="1228" d="M111 395q0 113 39.5 219.5t111.5 189.5t171 134t216 51q72 0 131.5 -19.5t106.5 -52t79.5 -75.5t49.5 -92l47 219h96l-166 -774q-16 -84 8.5 -111t81.5 -29l1 -11t-5 -23.5t-20 -23.5t-43 -11q-72 0 -108 51t-13 156v4q-68 -106 -168 -161.5t-215 -55.5 q-84 0 -156.5 27.5t-127 80.5t-86 130t-31.5 177zM211 397q0 -78 24.5 -139t66.5 -104t99 -65.5t123 -22.5q80 0 150.5 30.5t126 81.5t94.5 117.5t53 138.5l39 176q-27 127 -111.5 210t-232.5 83q-98 0 -178 -44t-136.5 -115.5t-87 -163t-30.5 -183.5zM459 1139 q16 92 60 147t116 55q51 0 85 -26.5t62 -59.5q27 -31 45.5 -45t42.5 -14q29 0 47.5 22.5t32.5 63.5q8 23 18.5 35t28.5 12q16 0 35 -14q-16 -92 -59 -146.5t-115 -54.5q-51 0 -85 24.5t-62 59.5q-29 31 -47.5 45t-40.5 14q-31 0 -49.5 -22.5t-30.5 -63.5q-16 -47 -49 -47 q-16 0 -35 15z" />
<glyph unicode="&#xe4;" horiz-adv-x="1228" d="M111 395q0 113 39.5 219.5t111.5 189.5t171 134t216 51q72 0 131.5 -19.5t106.5 -52t79.5 -75.5t49.5 -92l47 219h96l-166 -774q-16 -84 8.5 -111t81.5 -29l1 -11t-5 -23.5t-20 -23.5t-43 -11q-72 0 -108 51t-13 156v4q-68 -106 -168 -161.5t-215 -55.5 q-84 0 -156.5 27.5t-127 80.5t-86 130t-31.5 177zM211 397q0 -78 24.5 -139t66.5 -104t99 -65.5t123 -22.5q80 0 150.5 30.5t126 81.5t94.5 117.5t53 138.5l39 176q-27 127 -111.5 210t-232.5 83q-98 0 -178 -44t-136.5 -115.5t-87 -163t-30.5 -183.5zM500 1176 q0 37 19.5 64.5t58.5 27.5q78 0 77 -60q0 -37 -20.5 -64.5t-59.5 -27.5q-76 0 -75 60zM825 1176q0 37 19.5 64.5t60.5 27.5q76 0 76 -60q0 -37 -19.5 -64.5t-60.5 -27.5q-76 0 -76 60z" />
<glyph unicode="&#xe5;" horiz-adv-x="1228" d="M111 395q0 113 39.5 219.5t111.5 189.5t171 134t216 51q72 0 131.5 -19.5t106.5 -52t79.5 -75.5t49.5 -92l47 219h96l-166 -774q-16 -84 8.5 -111t81.5 -29l1 -11t-5 -23.5t-20 -23.5t-43 -11q-72 0 -108 51t-13 156v4q-68 -106 -168 -161.5t-215 -55.5 q-84 0 -156.5 27.5t-127 80.5t-86 130t-31.5 177zM211 397q0 -78 24.5 -139t66.5 -104t99 -65.5t123 -22.5q80 0 150.5 30.5t126 81.5t94.5 117.5t53 138.5l39 176q-27 127 -111.5 210t-232.5 83q-98 0 -178 -44t-136.5 -115.5t-87 -163t-30.5 -183.5zM545 1307 q0 51 18.5 97t52 81t77.5 56.5t98 21.5q98 0 152 -57.5t54 -135.5q0 -51 -18 -97t-52 -82t-79 -56.5t-96 -20.5q-98 0 -152.5 57.5t-54.5 135.5zM623 1313q0 -49 35 -89t96 -40q37 0 66.5 15t52 41t35 58.5t12.5 67.5q0 49 -35 89t-97 40q-37 0 -66.5 -15.5t-52 -41 t-34.5 -58t-12 -67.5z" />
<glyph unicode="&#xe6;" horiz-adv-x="1810" d="M61 221q0 121 72 193q76 78 241 113.5t443 35.5h31l4 19q31 154 -45 236.5t-238 82.5q-119 0 -196.5 -41t-126.5 -112q-2 -2 -22.5 11t-20.5 42q0 33 45 76q43 43 124 77.5t208 34.5q154 0 253 -69.5t109 -208.5q74 129 196 203.5t279 74.5q158 0 245 -69.5t87 -174.5 q0 -80 -36 -140t-129 -98t-254 -50.5t-408 6.5q-6 -43 -7 -86q0 -139 81 -226.5t235 -87.5q117 0 199.5 44.5t138.5 123.5q2 2 11 0t18.5 -8t16.5 -16t7 -23q0 -18 -10 -35.5t-37 -44.5q-123 -125 -348 -124q-166 0 -260.5 75.5t-120.5 198.5q-57 -129 -173 -201.5 t-272 -72.5q-154 0 -247 64.5t-93 176.5zM162 229q0 -76 70.5 -122t183.5 -46q68 0 131 21.5t115.5 62.5t90.5 99.5t54 130.5l24 110h-55q-131 -4 -224 -11t-159.5 -21.5t-109.5 -35t-72 -48.5q-49 -51 -49 -140zM942 545q217 -16 354.5 -5t216 39.5t108.5 71.5t30 92 q0 59 -59.5 109.5t-178.5 50.5q-84 0 -157.5 -27.5t-135 -75.5t-107.5 -113.5t-71 -141.5z" />
<glyph unicode="&#xe7;" horiz-adv-x="1118" d="M109 422q0 111 40.5 213t113.5 181t171 126t213 47q119 0 198 -35.5t126 -85.5q43 -43 62.5 -90t19.5 -80q0 -23 -11.5 -36t-24.5 -19t-24.5 -6t-13.5 4q-8 53 -32.5 100t-66.5 83t-99.5 56.5t-131.5 20.5q-96 0 -177 -40t-139.5 -106.5t-91 -151.5t-32.5 -175 q0 -84 26.5 -150.5t73.5 -112.5t112.5 -71.5t145.5 -25.5q121 0 201 57t127 135q2 2 11 0t19.5 -7t18.5 -15.5t8 -24.5q0 -41 -63 -107q-49 -47 -133 -86.5t-197 -39.5q-94 0 -176 29.5t-143.5 86t-96 138t-34.5 188.5zM276 -418q59 90 107 162q20 29 38.5 58.5t35.5 52.5 q18 27 32 51q2 2 15.5 0t30 -8.5t30 -17.5t13.5 -30q0 -35 -35 -71l-221 -228q-4 -6 -13.5 -4t-17.5 8.5t-13.5 13.5t-1.5 13z" />
<glyph unicode="&#xe8;" horiz-adv-x="1103" d="M104 371q0 129 46.5 241.5t128 196.5t191.5 132t239 48q160 0 247.5 -69.5t87.5 -174.5q0 -66 -25.5 -120t-90 -92.5t-173 -60t-274.5 -21.5q-59 0 -125.5 3t-144.5 11q-6 -43 -6 -88q0 -139 80 -226.5t239 -87.5q119 0 201 44.5t139 123.5q2 2 10.5 0t17.5 -8t16 -16 t7 -23q0 -18 -9 -35.5t-38 -44.5q-61 -63 -146 -93.5t-202 -30.5q-102 0 -179 28.5t-130 80.5t-80 124t-27 158zM231 549q70 -10 129.5 -13.5t112.5 -3.5q141 0 232.5 18.5t144.5 47.5t73.5 66.5t20.5 78.5q0 59 -60.5 109.5t-181.5 50.5q-84 0 -157.5 -27.5t-135 -74.5 t-107.5 -111.5t-71 -140.5zM477 1362q0 18 14.5 30.5t33.5 12.5q16 0 36.5 -11.5t51.5 -39.5q49 -41 87 -82t64.5 -74t38.5 -54.5t10 -23.5q-4 -4 -27.5 3t-61.5 25.5t-85 48.5t-96 71q-41 35 -53.5 54t-12.5 40z" />
<glyph unicode="&#xe9;" horiz-adv-x="1103" d="M104 371q0 129 46.5 241.5t128 196.5t191.5 132t239 48q160 0 247.5 -69.5t87.5 -174.5q0 -66 -25.5 -120t-90 -92.5t-173 -60t-274.5 -21.5q-59 0 -125.5 3t-144.5 11q-6 -43 -6 -88q0 -139 80 -226.5t239 -87.5q119 0 201 44.5t139 123.5q2 2 10.5 0t17.5 -8t16 -16 t7 -23q0 -18 -9 -35.5t-38 -44.5q-61 -63 -146 -93.5t-202 -30.5q-102 0 -179 28.5t-130 80.5t-80 124t-27 158zM231 549q70 -10 129.5 -13.5t112.5 -3.5q141 0 232.5 18.5t144.5 47.5t73.5 66.5t20.5 78.5q0 59 -60.5 109.5t-181.5 50.5q-84 0 -157.5 -27.5t-135 -74.5 t-107.5 -111.5t-71 -140.5zM611 1120q-2 2 17.5 24.5t55 54.5t85 71t106.5 76q35 27 55.5 33.5t38.5 6.5t30.5 -12t12.5 -28q0 -20 -19.5 -40t-66.5 -53q-61 -37 -117.5 -64.5t-99.5 -44t-69.5 -22.5t-28.5 -2z" />
<glyph unicode="&#xea;" horiz-adv-x="1103" d="M104 371q0 129 46.5 241.5t128 196.5t191.5 132t239 48q160 0 247.5 -69.5t87.5 -174.5q0 -66 -25.5 -120t-90 -92.5t-173 -60t-274.5 -21.5q-59 0 -125.5 3t-144.5 11q-6 -43 -6 -88q0 -139 80 -226.5t239 -87.5q119 0 201 44.5t139 123.5q2 2 10.5 0t17.5 -8t16 -16 t7 -23q0 -18 -9 -35.5t-38 -44.5q-61 -63 -146 -93.5t-202 -30.5q-102 0 -179 28.5t-130 80.5t-80 124t-27 158zM231 549q70 -10 129.5 -13.5t112.5 -3.5q141 0 232.5 18.5t144.5 47.5t73.5 66.5t20.5 78.5q0 59 -60.5 109.5t-181.5 50.5q-84 0 -157.5 -27.5t-135 -74.5 t-107.5 -111.5t-71 -140.5zM497 1141q0 25 31 62.5t105 103.5q72 66 118.5 99.5t51.5 33.5q4 0 35.5 -34t72.5 -95q47 -70 61.5 -102.5t14.5 -49.5q0 -23 -10.5 -33t-24.5 -10q-20 0 -40.5 25.5t-61.5 101.5q-16 29 -29.5 53.5t-30.5 55.5l-106 -111q-66 -70 -102 -97.5 t-56 -27.5q-29 0 -29 25z" />
<glyph unicode="&#xeb;" horiz-adv-x="1103" d="M104 371q0 129 46.5 241.5t128 196.5t191.5 132t239 48q160 0 247.5 -69.5t87.5 -174.5q0 -66 -25.5 -120t-90 -92.5t-173 -60t-274.5 -21.5q-59 0 -125.5 3t-144.5 11q-6 -43 -6 -88q0 -139 80 -226.5t239 -87.5q119 0 201 44.5t139 123.5q2 2 10.5 0t17.5 -8t16 -16 t7 -23q0 -18 -9 -35.5t-38 -44.5q-61 -63 -146 -93.5t-202 -30.5q-102 0 -179 28.5t-130 80.5t-80 124t-27 158zM231 549q70 -10 129.5 -13.5t112.5 -3.5q141 0 232.5 18.5t144.5 47.5t73.5 66.5t20.5 78.5q0 59 -60.5 109.5t-181.5 50.5q-84 0 -157.5 -27.5t-135 -74.5 t-107.5 -111.5t-71 -140.5zM508 1176q0 37 19.5 64.5t58.5 27.5q78 0 77 -60q0 -37 -20.5 -64.5t-59.5 -27.5q-76 0 -75 60zM833 1176q0 37 19.5 64.5t60.5 27.5q76 0 76 -60q0 -37 -19.5 -64.5t-60.5 -27.5q-76 0 -76 60z" />
<glyph unicode="&#xec;" horiz-adv-x="471" d="M116 1362q0 18 14.5 30.5t33.5 12.5q16 0 36.5 -11.5t51.5 -39.5q49 -41 87 -82t64.5 -74t38.5 -54.5t10 -23.5q-4 -4 -27.5 3t-61.5 25.5t-85 48.5t-96 71q-41 35 -53.5 54t-12.5 40zM125 193l166 776h96l-164 -774q-16 -84 8.5 -112t87.5 -28l1 -11q2 -11 -4.5 -23.5 t-21.5 -23.5t-44 -11q-76 0 -112 50t-13 157z" />
<glyph unicode="&#xed;" horiz-adv-x="471" d="M125 193l166 776h96l-164 -774q-16 -84 8.5 -112t87.5 -28l1 -11q2 -11 -4.5 -23.5t-21.5 -23.5t-44 -11q-76 0 -112 50t-13 157zM254 1120q-2 2 17.5 24.5t55 54.5t85 71t106.5 76q35 27 55.5 33.5t38.5 6.5t30.5 -12t12.5 -28q0 -20 -19.5 -40t-66.5 -53 q-61 -37 -117.5 -64.5t-99.5 -44t-69.5 -22.5t-28.5 -2z" />
<glyph unicode="&#xee;" horiz-adv-x="471" d="M125 193l166 776h96l-164 -774q-16 -84 8.5 -112t87.5 -28l1 -11q2 -11 -4.5 -23.5t-21.5 -23.5t-44 -11q-76 0 -112 50t-13 157zM133 1141q0 25 31 62.5t105 103.5q72 66 118.5 99.5t51.5 33.5q4 0 35.5 -34t72.5 -95q47 -70 61.5 -102.5t14.5 -49.5q0 -23 -10.5 -33 t-24.5 -10q-20 0 -40.5 25.5t-61.5 101.5q-16 29 -29.5 53.5t-30.5 55.5l-106 -111q-66 -70 -102 -97.5t-56 -27.5q-29 0 -29 25z" />
<glyph unicode="&#xef;" horiz-adv-x="471" d="M125 193l166 776h96l-164 -774q-16 -84 8.5 -112t87.5 -28l1 -11q2 -11 -4.5 -23.5t-21.5 -23.5t-44 -11q-76 0 -112 50t-13 157zM146 1176q0 37 19.5 64.5t58.5 27.5q78 0 77 -60q0 -37 -20.5 -64.5t-59.5 -27.5q-76 0 -75 60zM471 1176q0 37 19.5 64.5t60.5 27.5 q76 0 76 -60q0 -37 -19.5 -64.5t-60.5 -27.5q-76 0 -76 60z" />
<glyph unicode="&#xf0;" horiz-adv-x="1171" d="M90 365q0 102 36 192t101.5 157.5t158.5 107.5t208 40q74 0 137.5 -19.5t114.5 -51t89 -71.5t56 -79q2 16 2 33.5v34.5q0 147 -54 259.5t-146 196.5l-320 -178q-4 -4 -16.5 9.5t-12.5 37.5q0 14 9.5 29.5t48.5 36.5l217 117q-78 53 -165 76.5t-161 29.5q-4 0 -4 12.5 t7 27.5t23.5 27.5t47.5 12.5q59 0 155.5 -32t190.5 -105l260 141q4 4 16.5 -9.5t12.5 -35.5q0 -16 -9.5 -31.5t-48.5 -36.5l-163 -86q92 -92 150.5 -217t58.5 -291q0 -115 -32 -241.5t-99.5 -233t-174 -176t-256.5 -69.5q-94 0 -175 25.5t-139 74.5t-91 120.5t-33 164.5z M188 362q0 -72 26 -127t71 -93t107 -58.5t134 -20.5q100 0 176 39t130.5 103.5t88 150.5t50.5 181q-12 39 -46 82t-84 77.5t-113.5 57t-135.5 22.5q-102 0 -177 -31.5t-126 -88t-76 -132t-25 -162.5z" />
<glyph unicode="&#xf1;" d="M72 0l209 969q0 6 20 6q29 0 47.5 -20.5t5.5 -86.5l-20 -92q61 98 152.5 155.5t207.5 57.5q154 0 243 -89t89 -232q0 -55 -16.5 -133t-40.5 -177q-23 -80 -35 -137t-12 -86q0 -47 24.5 -62.5t65.5 -19.5q2 0 2 -10t-6.5 -23.5t-20.5 -23.5t-41 -10q-53 0 -88 34.5 t-35 100.5q0 41 13.5 104.5t35.5 145.5q25 92 39.5 162.5t14.5 117.5q0 117 -64.5 181.5t-179.5 64.5q-129 0 -217 -67.5t-158 -188.5l-137 -641h-98zM451 1139q16 92 60 147t116 55q51 0 85 -26.5t62 -59.5q27 -31 45.5 -45t42.5 -14q29 0 47.5 22.5t32.5 63.5 q8 23 18.5 35t28.5 12q16 0 35 -14q-16 -92 -59 -146.5t-115 -54.5q-51 0 -85 24.5t-62 59.5q-29 31 -47.5 45t-40.5 14q-31 0 -49.5 -22.5t-30.5 -63.5q-16 -47 -49 -47q-16 0 -35 15z" />
<glyph unicode="&#xf2;" horiz-adv-x="1202" d="M111 424q0 115 42 218t114.5 180t171 122t212.5 45q94 0 175 -32.5t140.5 -92t93.5 -140.5t34 -179q0 -115 -42 -218.5t-116 -180t-172 -121.5t-211 -45q-94 0 -175 32.5t-140.5 92t-93 140.5t-33.5 179zM209 426q0 -78 26.5 -143.5t72.5 -113.5t110.5 -75.5t140.5 -27.5 q88 0 167 37.5t138.5 102t94 151.5t34.5 186q0 78 -25.5 143.5t-71.5 113.5t-110.5 75.5t-140.5 27.5q-88 0 -167 -38t-139 -102.5t-95 -151.5t-35 -185zM450 1362q0 18 14.5 30.5t33.5 12.5q16 0 36.5 -11.5t51.5 -39.5q49 -41 87 -82t64.5 -74t38.5 -54.5t10 -23.5 q-4 -4 -27.5 3t-61.5 25.5t-85 48.5t-96 71q-41 35 -53.5 54t-12.5 40z" />
<glyph unicode="&#xf3;" horiz-adv-x="1202" d="M111 424q0 115 42 218t114.5 180t171 122t212.5 45q94 0 175 -32.5t140.5 -92t93.5 -140.5t34 -179q0 -115 -42 -218.5t-116 -180t-172 -121.5t-211 -45q-94 0 -175 32.5t-140.5 92t-93 140.5t-33.5 179zM209 426q0 -78 26.5 -143.5t72.5 -113.5t110.5 -75.5t140.5 -27.5 q88 0 167 37.5t138.5 102t94 151.5t34.5 186q0 78 -25.5 143.5t-71.5 113.5t-110.5 75.5t-140.5 27.5q-88 0 -167 -38t-139 -102.5t-95 -151.5t-35 -185zM588 1120q-2 2 17.5 24.5t55 54.5t85 71t106.5 76q35 27 55.5 33.5t38.5 6.5t30.5 -12t12.5 -28q0 -20 -19.5 -40 t-66.5 -53q-61 -37 -117.5 -64.5t-99.5 -44t-69.5 -22.5t-28.5 -2z" />
<glyph unicode="&#xf4;" horiz-adv-x="1202" d="M111 424q0 115 42 218t114.5 180t171 122t212.5 45q94 0 175 -32.5t140.5 -92t93.5 -140.5t34 -179q0 -115 -42 -218.5t-116 -180t-172 -121.5t-211 -45q-94 0 -175 32.5t-140.5 92t-93 140.5t-33.5 179zM209 426q0 -78 26.5 -143.5t72.5 -113.5t110.5 -75.5t140.5 -27.5 q88 0 167 37.5t138.5 102t94 151.5t34.5 186q0 78 -25.5 143.5t-71.5 113.5t-110.5 75.5t-140.5 27.5q-88 0 -167 -38t-139 -102.5t-95 -151.5t-35 -185zM462 1141q0 25 31 62.5t105 103.5q72 66 118.5 99.5t51.5 33.5q4 0 35.5 -34t72.5 -95q47 -70 61.5 -102.5t14.5 -49.5 q0 -23 -10.5 -33t-24.5 -10q-20 0 -40.5 25.5t-61.5 101.5q-16 29 -29.5 53.5t-30.5 55.5l-106 -111q-66 -70 -102 -97.5t-56 -27.5q-29 0 -29 25z" />
<glyph unicode="&#xf5;" horiz-adv-x="1202" d="M111 424q0 115 42 218t114.5 180t171 122t212.5 45q94 0 175 -32.5t140.5 -92t93.5 -140.5t34 -179q0 -115 -42 -218.5t-116 -180t-172 -121.5t-211 -45q-94 0 -175 32.5t-140.5 92t-93 140.5t-33.5 179zM209 426q0 -78 26.5 -143.5t72.5 -113.5t110.5 -75.5t140.5 -27.5 q88 0 167 37.5t138.5 102t94 151.5t34.5 186q0 78 -25.5 143.5t-71.5 113.5t-110.5 75.5t-140.5 27.5q-88 0 -167 -38t-139 -102.5t-95 -151.5t-35 -185zM434 1139q16 92 60 147t116 55q51 0 85 -26.5t62 -59.5q27 -31 45.5 -45t42.5 -14q29 0 47.5 22.5t32.5 63.5 q8 23 18.5 35t28.5 12q16 0 35 -14q-16 -92 -59 -146.5t-115 -54.5q-51 0 -85 24.5t-62 59.5q-29 31 -47.5 45t-40.5 14q-31 0 -49.5 -22.5t-30.5 -63.5q-16 -47 -49 -47q-16 0 -35 15z" />
<glyph unicode="&#xf6;" horiz-adv-x="1202" d="M111 424q0 115 42 218t114.5 180t171 122t212.5 45q94 0 175 -32.5t140.5 -92t93.5 -140.5t34 -179q0 -115 -42 -218.5t-116 -180t-172 -121.5t-211 -45q-94 0 -175 32.5t-140.5 92t-93 140.5t-33.5 179zM209 426q0 -78 26.5 -143.5t72.5 -113.5t110.5 -75.5t140.5 -27.5 q88 0 167 37.5t138.5 102t94 151.5t34.5 186q0 78 -25.5 143.5t-71.5 113.5t-110.5 75.5t-140.5 27.5q-88 0 -167 -38t-139 -102.5t-95 -151.5t-35 -185zM475 1176q0 37 19.5 64.5t58.5 27.5q78 0 77 -60q0 -37 -20.5 -64.5t-59.5 -27.5q-76 0 -75 60zM800 1176 q0 37 19.5 64.5t60.5 27.5q76 0 76 -60q0 -37 -19.5 -64.5t-60.5 -27.5q-76 0 -76 60z" />
<glyph unicode="&#xf7;" horiz-adv-x="1298" d="M229 541l2 10q6 23 17.5 32t40.5 9h764q29 0 36 -9.5t3 -31.5l-5 -10q-4 -20 -15 -30.5t-40 -10.5h-764q-51 0 -39 41zM516 221q0 57 27 82q18 20 57 21q76 0 76 -54q0 -57 -27 -84q-20 -20 -57 -20q-76 0 -76 55zM643 823q0 55 27 82q20 20 57 21q78 0 78 -56 q0 -55 -27 -82q-20 -20 -57 -20q-78 0 -78 55z" />
<glyph unicode="&#xf8;" horiz-adv-x="1202" d="M25 2q0 12 10 29.5t33 36.5l116 104q-74 109 -73 252q0 115 42 218t114.5 180t171 122t212.5 45q92 0 173 -32.5t141 -92.5l161 148q4 4 22.5 -10.5t18.5 -36.5q0 -14 -9 -29.5t-32 -38.5l-108 -96q35 -53 55.5 -118t20.5 -138q0 -115 -42 -218.5t-116 -180t-172 -121.5 t-211 -45q-94 0 -175 33.5t-140 92.5l-170 -151q-4 -4 -23.5 10.5t-19.5 36.5zM209 426q0 -53 14.5 -102.5t36.5 -90.5l635 566q-47 49 -110.5 76.5t-139.5 27.5q-88 0 -167 -38t-139 -102.5t-95 -151.5t-35 -185zM305 172q47 -49 111.5 -77.5t142.5 -28.5q88 0 167 37.5 t138.5 102t94 151.5t34.5 186q0 109 -51 194z" />
<glyph unicode="&#xf9;" d="M146.5 243q-13.5 85 9.5 191l112 535h99l-115 -541q-37 -172 32.5 -264t209.5 -92q121 0 205.5 61.5t156.5 183.5l137 652h99l-164 -774q-18 -84 6 -111t82 -29l1 -11t-5 -23.5t-20.5 -23.5t-43.5 -11q-70 0 -105.5 48t-15.5 150q-59 -98 -148 -151t-200 -53 q-92 0 -162.5 30.5t-113.5 89t-56.5 143.5zM438 1356q0 18 14.5 30.5t33.5 12.5q16 0 36.5 -11.5t51.5 -39.5q49 -41 87 -82t64.5 -74t38.5 -54.5t10 -23.5q-4 -4 -27.5 3t-61.5 25.5t-85 48.5t-96 71q-41 35 -53.5 54t-12.5 40z" />
<glyph unicode="&#xfa;" d="M146.5 243q-13.5 85 9.5 191l112 535h99l-115 -541q-37 -172 32.5 -264t209.5 -92q121 0 205.5 61.5t156.5 183.5l137 652h99l-164 -774q-18 -84 6 -111t82 -29l1 -11t-5 -23.5t-20.5 -23.5t-43.5 -11q-70 0 -105.5 48t-15.5 150q-59 -98 -148 -151t-200 -53 q-92 0 -162.5 30.5t-113.5 89t-56.5 143.5zM584 1114q-2 2 17.5 24.5t55 54.5t85 71t106.5 76q35 27 55.5 33.5t38.5 6.5t30.5 -12t12.5 -28q0 -20 -19.5 -40t-66.5 -53q-61 -37 -117.5 -64.5t-99.5 -44t-69.5 -22.5t-28.5 -2z" />
<glyph unicode="&#xfb;" d="M146.5 243q-13.5 85 9.5 191l112 535h99l-115 -541q-37 -172 32.5 -264t209.5 -92q121 0 205.5 61.5t156.5 183.5l137 652h99l-164 -774q-18 -84 6 -111t82 -29l1 -11t-5 -23.5t-20.5 -23.5t-43.5 -11q-70 0 -105.5 48t-15.5 150q-59 -98 -148 -151t-200 -53 q-92 0 -162.5 30.5t-113.5 89t-56.5 143.5zM462 1135q0 25 31 62.5t105 103.5q72 66 118.5 99.5t51.5 33.5q4 0 35.5 -34t72.5 -95q47 -70 61.5 -102.5t14.5 -49.5q0 -23 -10.5 -33t-24.5 -10q-20 0 -40.5 25.5t-61.5 101.5q-16 29 -29.5 53.5t-30.5 55.5l-106 -111 q-66 -70 -102 -97.5t-56 -27.5q-29 0 -29 25z" />
<glyph unicode="&#xfc;" d="M146.5 243q-13.5 85 9.5 191l112 535h99l-115 -541q-37 -172 32.5 -264t209.5 -92q121 0 205.5 61.5t156.5 183.5l137 652h99l-164 -774q-18 -84 6 -111t82 -29l1 -11t-5 -23.5t-20.5 -23.5t-43.5 -11q-70 0 -105.5 48t-15.5 150q-59 -98 -148 -151t-200 -53 q-92 0 -162.5 30.5t-113.5 89t-56.5 143.5zM475 1170q0 37 19.5 64.5t58.5 27.5q78 0 77 -60q0 -37 -20.5 -64.5t-59.5 -27.5q-76 0 -75 60zM800 1170q0 37 19.5 64.5t60.5 27.5q76 0 76 -60q0 -37 -19.5 -64.5t-60.5 -27.5q-76 0 -76 60z" />
<glyph unicode="&#xfd;" horiz-adv-x="997" d="M-150 -319q0 25 18.5 40t22.5 11q18 -23 50 -37t59 -14q29 0 57.5 11t61.5 38.5t72.5 76t91.5 123.5l82 123q-47 6 -54 66l-80 583q-16 109 -51 153t-100 42l-1 13q-1 12 5 27t21.5 27.5t50.5 12.5q51 0 86 -37q31 -31 53 -91.5t33 -154.5l73 -588l539 863h18 q17 0 36.5 -1t34.5 -2l15 -1l-667 -1055q-59 -96 -107.5 -157.5t-91.5 -97.5t-84 -50.5t-88 -14.5q-94 0 -137 48q-18 18 -19 43zM523 1093q-2 2 17.5 24.5t55 54.5t85 71t106.5 76q35 27 55.5 33.5t38.5 6.5t30.5 -12t12.5 -28q0 -20 -19.5 -40t-66.5 -53 q-61 -37 -117.5 -64.5t-99.5 -44t-69.5 -22.5t-28.5 -2z" />
<glyph unicode="&#xfe;" horiz-adv-x="1224" d="M-2 -354l360 1695q8 47 45 48h13q18 0 31.5 -9.5t9.5 -38.5l-121 -559q66 94 158 150.5t215 56.5q82 0 155.5 -27.5t130 -83t89 -135t32.5 -184.5q0 -111 -39 -215t-107.5 -185t-164.5 -130t-211 -49q-76 0 -138.5 21.5t-109.5 56t-80 79.5t-47 92l-123 -583 q-10 -47 -45 -47h-12q-20 0 -33.5 9t-7.5 38zM264 446q-12 -70 4.5 -137t59.5 -121.5t111.5 -88t160.5 -33.5q96 0 174 42t132.5 111.5t83 158.5t28.5 181q0 80 -25.5 144.5t-68.5 108.5t-101.5 67.5t-124.5 23.5t-125 -20.5t-109 -56t-90 -84t-67 -103.5z" />
<glyph unicode="&#xff;" horiz-adv-x="997" d="M-150 -319q0 25 18.5 40t22.5 11q18 -23 50 -37t59 -14q29 0 57.5 11t61.5 38.5t72.5 76t91.5 123.5l82 123q-47 6 -54 66l-80 583q-16 109 -51 153t-100 42l-1 13q-1 12 5 27t21.5 27.5t50.5 12.5q51 0 86 -37q31 -31 53 -91.5t33 -154.5l73 -588l539 863h18 q17 0 36.5 -1t34.5 -2l15 -1l-667 -1055q-59 -96 -107.5 -157.5t-91.5 -97.5t-84 -50.5t-88 -14.5q-94 0 -137 48q-18 18 -19 43zM381 1176q0 37 19.5 64.5t58.5 27.5q78 0 77 -60q0 -37 -20.5 -64.5t-59.5 -27.5q-76 0 -75 60zM706 1176q0 37 19.5 64.5t60.5 27.5 q76 0 76 -60q0 -37 -19.5 -64.5t-60.5 -27.5q-76 0 -76 60z" />
<glyph unicode="&#x152;" horiz-adv-x="2138" d="M162 553q0 172 60.5 316.5t161.5 250t231 164.5t270 59q78 0 149 -18h1125q-2 -2 -2 -6t-1.5 -8t-1.5 -11l-12 -57l-2 -10h-921q115 -68 179 -187.5t64 -271.5v-49h426q-2 -2 -2 -6t-1 -8t-1 -11l-12 -55q-2 -4 -2 -8v-2h-420q-14 -92 -49 -174t-84 -150.5t-111.5 -124 t-132.5 -92.5h850q-2 -2 -2 -6t-1 -9t-1 -11l-12 -58q-2 -4 -2 -8v-2h-1031q-72 -16 -135 -16q-133 0 -239.5 43t-182 118.5t-115.5 180t-40 227.5zM270 559q0 -102 32 -191t93.5 -155t150.5 -103.5t204 -37.5q117 0 225 52t192 145t135.5 220t51.5 279q0 102 -32 191.5 t-93.5 155t-150.5 103t-204 37.5q-117 0 -225 -52t-192 -145t-135.5 -221t-51.5 -278z" />
<glyph unicode="&#x153;" horiz-adv-x="1966" d="M111 420q0 117 41 220t112.5 181t168.5 123t212 45q78 0 146.5 -23.5t123 -66.5t91 -104.5t53.5 -137.5q35 74 88 134.5t119.5 104.5t144.5 68.5t162 24.5q158 0 245 -69.5t87 -174.5q0 -66 -26 -119t-87 -92.5t-165.5 -61t-262.5 -21.5q-63 0 -134 2t-153 10 q-6 -43 -6 -86q0 -139 80 -226.5t235 -87.5q117 0 200 44.5t138 123.5q2 2 10.5 0t17.5 -8t16.5 -16t7.5 -23q0 -18 -9.5 -35.5t-35.5 -44.5q-123 -125 -349 -124q-160 0 -257 78.5t-124 207.5q-66 -129 -185 -207.5t-271 -78.5q-92 0 -171 31.5t-137.5 89t-92 138 t-33.5 181.5zM209 422q0 -78 26.5 -142.5t72.5 -112.5t109.5 -74.5t137.5 -26.5q88 0 167 37.5t137.5 103t92 152.5t33.5 188q0 76 -25.5 141.5t-71.5 113.5t-108.5 74.5t-136.5 26.5q-90 0 -170 -38t-138.5 -103.5t-92 -152.5t-33.5 -187zM1100 549q72 -8 136 -11t118 -3 q135 0 222 18t138 47t71.5 67t20.5 76q0 31 -15 59.5t-45 51.5t-75 36t-104 13q-82 0 -156 -27.5t-134 -74.5t-106.5 -112.5t-70.5 -139.5z" />
<glyph unicode="&#x178;" d="M221 1325h111l289 -666l575 674q2 2 19.5 -2t31 -17.5t10 -41t-42.5 -72.5l-559 -639l-118 -561h-103l121 571zM527 1512q0 37 19.5 64.5t58.5 27.5q78 0 77 -60q0 -37 -20.5 -64.5t-59.5 -27.5q-76 0 -75 60zM852 1512q0 37 19.5 64.5t60.5 27.5q76 0 76 -60 q0 -37 -19.5 -64.5t-60.5 -27.5q-76 0 -76 60z" />
<glyph unicode="&#x2c6;" horiz-adv-x="1093" d="M444 1141q0 25 31 62.5t105 103.5q72 66 118.5 99.5t51.5 33.5q4 0 35.5 -34t72.5 -95q47 -70 61.5 -102.5t14.5 -49.5q0 -23 -10.5 -33t-24.5 -10q-20 0 -40.5 25.5t-61.5 101.5q-16 29 -29.5 53.5t-30.5 55.5l-106 -111q-66 -70 -102 -97.5t-56 -27.5q-29 0 -29 25z " />
<glyph unicode="&#x2dc;" horiz-adv-x="1091" d="M416 1139q16 92 60 147t116 55q51 0 85 -26.5t62 -59.5q27 -31 45.5 -45t42.5 -14q29 0 47.5 22.5t32.5 63.5q8 23 18.5 35t28.5 12q16 0 35 -14q-16 -92 -59 -146.5t-115 -54.5q-51 0 -85 24.5t-62 59.5q-29 31 -47.5 45t-40.5 14q-31 0 -49.5 -22.5t-30.5 -63.5 q-16 -47 -49 -47q-16 0 -35 15z" />
<glyph unicode="&#x2000;" horiz-adv-x="898" />
<glyph unicode="&#x2001;" horiz-adv-x="1796" />
<glyph unicode="&#x2002;" horiz-adv-x="898" />
<glyph unicode="&#x2003;" horiz-adv-x="1796" />
<glyph unicode="&#x2004;" horiz-adv-x="598" />
<glyph unicode="&#x2005;" horiz-adv-x="449" />
<glyph unicode="&#x2006;" horiz-adv-x="299" />
<glyph unicode="&#x2007;" horiz-adv-x="299" />
<glyph unicode="&#x2008;" horiz-adv-x="224" />
<glyph unicode="&#x2009;" horiz-adv-x="359" />
<glyph unicode="&#x200a;" horiz-adv-x="99" />
<glyph unicode="&#x2010;" horiz-adv-x="788" d="M123 463q0 2 2 6q0 4 4 20l10 52q0 4 1 6t1 4v2h535q-2 -2 -2 -6t-1 -8t-1 -11l-13 -53q-2 -4 -2 -10v-2h-534z" />
<glyph unicode="&#x2011;" horiz-adv-x="788" d="M123 463q0 2 2 6q0 4 4 20l10 52q0 4 1 6t1 4v2h535q-2 -2 -2 -6t-1 -8t-1 -11l-13 -53q-2 -4 -2 -10v-2h-534z" />
<glyph unicode="&#x2012;" horiz-adv-x="788" d="M123 463q0 2 2 6q0 4 4 20l10 52q0 4 1 6t1 4v2h535q-2 -2 -2 -6t-1 -8t-1 -11l-13 -53q-2 -4 -2 -10v-2h-534z" />
<glyph unicode="&#x2013;" horiz-adv-x="1095" d="M125 489q0 10 5 26.5t13 25.5q12 12 37 12h758q45 0 45 -25q0 -12 -5 -28.5t-13 -24.5q-10 -10 -37 -10h-758q-45 0 -45 24z" />
<glyph unicode="&#x2014;" horiz-adv-x="1431" d="M125 489q0 10 5 26.5t13 25.5q12 12 37 12h1094q43 0 43 -25q0 -12 -4 -28.5t-15 -24.5q-8 -10 -36 -10h-1092q-45 0 -45 24z" />
<glyph unicode="&#x2018;" horiz-adv-x="462" d="M221 948q0 16 7.5 32.5t23.5 39.5l242 332q4 4 13 2t17 -7.5t13.5 -13.5t3.5 -14l-226 -422q-2 -2 -16 -2t-31.5 6t-32 17.5t-14.5 29.5z" />
<glyph unicode="&#x2019;" horiz-adv-x="462" d="M193 926l225 422q2 2 16.5 2t30.5 -6.5t30.5 -17.5t14.5 -30q0 -16 -6 -32.5t-23 -38.5l-241 -332q-4 -4 -13.5 -2t-18.5 7t-14.5 13.5t-0.5 14.5z" />
<glyph unicode="&#x201a;" horiz-adv-x="460" d="M-94 -262l225 422q2 2 16.5 2t31 -6t30.5 -17.5t14 -29.5q0 -16 -6 -32t-22 -38l-242 -334q-4 -4 -13.5 -2t-18.5 7t-14 13.5t-1 14.5z" />
<glyph unicode="&#x201c;" horiz-adv-x="745" d="M221 950q0 16 7.5 32.5t23.5 39.5l242 332q4 4 13 2t17 -7.5t13.5 -13.5t3.5 -14l-226 -422q-2 -2 -16 -2t-31.5 6t-32 17.5t-14.5 29.5zM506 948q0 16 7 32.5t24 39.5l241 332q2 4 11.5 2t18.5 -7.5t14 -13.5t1 -14l-225 -422q0 -2 -15.5 -2t-31.5 6t-30.5 17.5 t-14.5 29.5z" />
<glyph unicode="&#x201d;" horiz-adv-x="745" d="M193 926l225 422q2 2 16.5 2t30.5 -6.5t30.5 -17.5t14.5 -30q0 -16 -6 -32.5t-23 -38.5l-241 -332q-4 -4 -13.5 -2t-18.5 7t-14.5 13.5t-0.5 14.5zM477 924q63 117 113 211q20 39 39.5 77.5t36.5 67.5q18 35 34 66q2 2 16.5 2t32 -6.5t32 -17.5t14.5 -30 q0 -16 -7.5 -32.5t-23.5 -38.5l-242 -332q-4 -4 -13 -2t-17.5 7t-13.5 13.5t-1 14.5z" />
<glyph unicode="&#x201e;" horiz-adv-x="745" d="M-94 -262l225 422q2 2 16.5 2t31 -6t30.5 -17.5t14 -29.5q0 -16 -6 -32t-22 -38l-242 -334q-4 -4 -13.5 -2t-18.5 7t-14 13.5t-1 14.5zM190 -264l226 422q0 2 15 2t31.5 -6.5t31 -17.5t14.5 -30q0 -31 -31 -69l-241 -334q-4 -4 -12.5 -2t-17.5 7t-14.5 13.5t-1.5 14.5z " />
<glyph unicode="&#x2022;" horiz-adv-x="684" d="M170 508q0 76 51 128t127 52q74 0 125 -52t51 -128t-51 -128t-125 -52q-76 0 -127 52t-51 128z" />
<glyph unicode="&#x2026;" horiz-adv-x="1245" d="M63 45q0 57 25 82q20 20 59 20q76 0 76 -53q0 -57 -26 -84q-21 -20 -58 -20q-76 0 -76 55zM455 45q0 57 26 82q20 20 58 20q76 0 75 -53q0 -57 -26 -84q-19 -20 -58 -20q-76 0 -75 55zM846 45q0 57 26 82q20 20 58 20q76 0 76 -53q0 -57 -25 -84q-20 -20 -59 -20 q-76 0 -76 55z" />
<glyph unicode="&#x202f;" horiz-adv-x="359" />
<glyph unicode="&#x2039;" horiz-adv-x="688" d="M129 506q2 8 59.5 59t157.5 123q94 68 149.5 100.5t84.5 32.5q16 0 25 -10t9 -27q0 -49 -215 -184q-47 -31 -90 -57.5t-90 -55.5q37 -31 68.5 -59.5t66.5 -60.5q41 -39 66.5 -65t41 -43t21.5 -29.5t6 -24.5q0 -14 -11 -24.5t-29 -10.5q-29 0 -69 33t-110 110 q-68 76 -105.5 129.5t-35.5 63.5z" />
<glyph unicode="&#x203a;" horiz-adv-x="688" d="M82 207q0 47 213 184q49 31 91 57.5t89 55.5q-35 31 -66.5 58.5t-66.5 62.5q-82 76 -109.5 107.5t-27.5 53.5q0 14 12 24.5t29 10.5q29 0 69.5 -32.5t108.5 -110.5q70 -78 107.5 -131t35.5 -64q-4 -6 -61 -57t-158 -123q-92 -68 -147 -100.5t-84 -32.5q-16 0 -25.5 10 t-9.5 27z" />
<glyph unicode="&#x205f;" horiz-adv-x="449" />
<glyph unicode="&#x20ac;" horiz-adv-x="1343" d="M111 485q0 12 5 28.5t13 25.5q10 10 39 10h154q4 51 15 111.5t30 125.5h-142q-45 0 -45 25q0 10 5 26.5t14 24.5q12 12 39 12h157q33 86 78 167t109 145q80 80 173 120t210 40q104 0 176.5 -32t122.5 -83q35 -35 53 -79t18 -79q0 -23 -10 -36t-22.5 -20t-23.5 -8t-11 3 q-29 117 -108 182.5t-206 65.5q-92 0 -166.5 -34t-136.5 -96q-53 -53 -91 -118.5t-64 -137.5h475q43 0 43 -24q0 -12 -4 -28.5t-15 -24.5q-8 -10 -37 -11h-491q-18 -66 -29.5 -127t-15.5 -110h479q43 0 43 -25q0 -10 -4 -26.5t-14 -24.5q-8 -10 -37 -10h-469 q2 -88 27.5 -161t70.5 -125t109.5 -80.5t144.5 -28.5q113 0 199 55t145 149q2 2 9.5 -1t16.5 -9t16 -15t7 -24q0 -45 -67 -112q-53 -53 -139.5 -92t-182.5 -39q-219 0 -336.5 129t-122.5 354h-161q-45 0 -45 22z" />
<glyph unicode="&#x2122;" horiz-adv-x="1406" d="M190 1286v6q0 35 37 35h451q37 0 37 -35v-6q0 -33 -37 -33h-184v-514q0 -39 -37 -39h-11q-35 0 -34 39v514h-185q-37 0 -37 33zM819 739v547q0 45 41 45h37q20 0 29.5 -9t17.5 -26l164 -344l162 344q10 20 19 27.5t28 7.5h35q41 0 41 -45v-547q0 -39 -35 -39h-10 q-33 0 -33 39v484l-164 -353q-4 -10 -11 -16t-34 -6t-33 6t-10 16l-166 351v-482q0 -39 -31 -39h-14q-33 0 -33 39z" />
<glyph unicode="&#x25fc;" horiz-adv-x="983" d="M0 0v983h983v-983h-983z" />
<glyph unicode="&#xfb01;" horiz-adv-x="1107" d="M150 881v6q0 2 4 18l10 53q0 4 1 5.5t1 3.5v2h201l26 118q29 141 100.5 228.5t200.5 87.5q59 0 99.5 -15.5t64.5 -39.5q25 -25 25 -56q0 -27 -17.5 -41t-21.5 -10q-18 33 -60.5 54.5t-95.5 21.5q-88 0 -134 -66.5t-69 -177.5l-24 -104h258q-2 -2 -2 -6t-1 -8.5t-1 -10.5 l-13 -51q-2 -4 -2 -10v-2h-256l-186 -881h-96l186 881h-198zM762 193l166 776h98l-166 -774q-16 -84 8.5 -112t89.5 -28v-11t-6 -23.5t-21 -23.5t-44 -11q-76 0 -112 49t-13 158zM977 1284q0 33 18.5 57.5t55.5 24.5q70 0 69 -53q0 -33 -18 -57.5t-53 -24.5q-72 0 -72 53z " />
<glyph unicode="&#xfb02;" horiz-adv-x="1107" d="M150 881v6q0 2 4 18l10 53q0 4 1 5.5t1 3.5v2h201l26 118q29 141 100.5 228.5t200.5 87.5q59 0 99.5 -15.5t64.5 -39.5q25 -25 25 -56q0 -27 -17.5 -41t-21.5 -10q-18 33 -60.5 54.5t-95.5 21.5q-88 0 -134 -66.5t-69 -177.5l-24 -104h258q-2 -2 -2 -6t-1 -8.5t-1 -10.5 l-13 -51q-2 -4 -2 -10v-2h-256l-186 -881h-96l186 881h-198zM762 193l254 1187h98l-254 -1185q-16 -84 8.5 -112t89.5 -28v-11t-6 -23.5t-21 -23.5t-44 -11q-76 0 -112 49t-13 158z" />
</font>
</defs>
</svg>
